<svg width="151" height="43" viewBox="0 0 151 43" fill="none" xmlns="http://www.w3.org/2000/svg">
<g clip-path="url(#clip0_92_4680)">
<path d="M67.328 27.5921L66.872 26.0676H63.0617L62.618 27.5921H59.0479L63.0169 16.7661H67.0878L71.0569 27.5921H67.328ZM63.7904 23.6429H66.1433L65.0076 19.7869H64.9424L63.7904 23.6429Z" fill="white"/>
<path d="M82.9111 21.8792C82.5328 22.4367 81.9827 22.8565 81.3439 23.0753L83.762 27.6085H79.8458L77.9162 23.6592H76.6217V27.6085H73.1289V16.7825H79.7807C80.474 16.7612 81.1615 16.9146 81.7795 17.2285C82.3061 17.504 82.7405 17.9268 83.0292 18.4449C83.3037 18.9559 83.4438 19.5278 83.4363 20.1073C83.4425 20.7369 83.2596 21.3539 82.9111 21.8792ZM79.6056 19.5194C79.5162 19.427 79.4086 19.3541 79.2895 19.3053C79.1703 19.2564 79.0424 19.2327 78.9136 19.2356H76.6217V21.2345H78.9014C79.0308 21.2369 79.1593 21.2121 79.2785 21.1618C79.3978 21.1115 79.505 21.0368 79.5934 20.9426C79.6866 20.8488 79.7599 20.7373 79.8089 20.6147C79.8579 20.4921 79.8815 20.3609 79.8784 20.229C79.8837 20.0984 79.8623 19.9682 79.8154 19.8462C79.7685 19.7242 79.6971 19.613 79.6056 19.5194Z" fill="white"/>
<path d="M95.3638 26.619C94.4248 27.3921 93.0909 27.78 91.3621 27.7827C89.6334 27.7854 88.2982 27.3975 87.3564 26.619C86.4147 25.8405 85.9438 24.712 85.9438 23.2334V16.7661H89.4366V23.1847C89.4085 23.714 89.5831 24.2343 89.9251 24.6403C90.1085 24.8289 90.331 24.9752 90.5772 25.0691C90.8233 25.1629 91.087 25.202 91.3499 25.1837C91.6136 25.2002 91.8778 25.1598 92.1244 25.0654C92.371 24.9709 92.5942 24.8245 92.7788 24.6363C93.1221 24.2321 93.2995 23.7136 93.2755 23.1847V16.7661H96.7682V23.2334C96.7682 24.7147 96.3001 25.8432 95.3638 26.619Z" fill="white"/>
<path d="M106.176 19.5355V27.5921H102.683V19.5355H99.0928V16.7661H109.71V19.5355H106.176Z" fill="white"/>
<path d="M67.328 42.8094L66.872 41.2849H63.0617L62.618 42.8094H59.0479L63.0169 31.9834H67.0878L71.0569 42.8094H67.328ZM63.7904 38.8602H66.1433L65.0076 35.0041H64.9424L63.7904 38.8602Z" fill="white"/>
<path d="M81.8524 32.997C82.7887 33.8079 83.2569 34.954 83.2569 36.4353H79.9228C79.9514 35.8922 79.7742 35.3583 79.4262 34.9392C79.0139 34.5681 78.4724 34.3723 77.9171 34.3935C77.3619 34.4147 76.837 34.6513 76.4545 35.0527C76.0919 35.596 75.9175 36.2424 75.9578 36.8935V37.8991C75.9199 38.5474 76.0942 39.1905 76.4545 39.7318C76.6344 39.9594 76.8678 40.1394 77.1339 40.256C77.4001 40.3727 77.691 40.4224 77.981 40.4008C78.2581 40.4214 78.5365 40.386 78.7995 40.2968C79.0625 40.2077 79.3048 40.0665 79.5117 39.8818C79.694 39.686 79.8342 39.4552 79.9238 39.2035C80.0134 38.9518 80.0505 38.6845 80.0328 38.4181H83.2569C83.2569 39.8994 82.8009 41.0334 81.8891 41.82C80.9772 42.6066 79.6894 42.9999 78.0258 42.9999C76.1722 42.9999 74.7691 42.5268 73.8166 41.5808C72.8599 40.6401 72.3877 39.2412 72.3877 37.3963C72.3877 35.5514 72.8599 34.1526 73.8166 33.2119C74.7732 32.2712 76.1736 31.7927 78.0258 31.7927C79.6379 31.7927 80.9134 32.1941 81.8524 32.997Z" fill="white"/>
<path d="M93.2144 42.8094L92.7421 41.2849H88.9359L88.4759 42.8094H84.9058L88.8708 31.9834H92.9416L96.9066 42.8094H93.2144ZM89.6727 38.8602H92.0297L90.8899 35.0041H90.8248L89.6727 38.8602Z" fill="white"/>
<path d="M109.433 37.3965C109.433 41.0051 107.533 42.8095 103.733 42.8095H99.0112V31.9956H103.733C107.533 31.9956 109.433 33.7959 109.433 37.3965ZM102.512 40.2145H103.668C105.131 40.2145 105.862 39.4333 105.862 37.8708V36.9221C105.862 35.3623 105.131 34.5811 103.668 34.5784H102.512V40.2145Z" fill="white"/>
<path d="M112.095 31.9956H121.498V34.5906H115.588V36.0868H120.644V38.5723H115.588V40.2266H121.608V42.8216H112.095V31.9956Z" fill="white"/>
<path d="M133.634 42.8095V38.8886C133.634 38.4101 133.654 37.9114 133.691 37.4046C133.727 36.8977 133.768 36.4679 133.809 36.1192C133.849 35.7705 133.878 35.5556 133.89 35.4583H133.825L131.822 42.8095H129.086L127.051 35.4907H126.99L127.075 36.1436C127.124 36.4842 127.169 36.9099 127.21 37.4208C127.255 37.9276 127.275 38.4263 127.275 38.9048V42.8095H124.087V31.9956H129.017L130.646 38.2439H130.711L132.339 31.9956H137.114V42.8216L133.634 42.8095Z" fill="white"/>
<path d="M146.75 42.8094H143.257V38.6087L138.942 31.9955H142.956L145.045 35.6001H145.106L147.194 31.9955L151.004 31.4441L146.75 38.6209V42.8094Z" fill="white"/>
<path d="M51.6428 42.8135L26.0738 0H13.1407L28.5896 25.8689H10.1161L0 42.8135H12.9372L22.0233 27.5962H29.6195L38.7056 42.8135H51.6428Z" fill="white"/>
</g>
<defs>
<clipPath id="clip0_92_4680">
<rect width="151" height="43" fill="white"/>
</clipPath>
</defs>
</svg>
