<?xml version="1.0" encoding="utf-8"?><svg viewBox="0 0 22 18" xmlns="http://www.w3.org/2000/svg" xmlns:xlink="http://www.w3.org/1999/xlink"><style>:root>svg{display:none}:root>svg:target{display:block}</style><svg fill="none" viewBox="0 0 15 15" id="arrTop" xmlns="http://www.w3.org/2000/svg"><path d="M1.925 2.175h10.491L1.65 12.942l.552.552L12.968 2.727v10.49h.781V1.395H1.925v.78z" fill="#00F" stroke="#00F" stroke-width="1.21"/></svg><svg fill="none" viewBox="0 0 15 15" id="email" xmlns="http://www.w3.org/2000/svg"><path d="M14.002 7.427c0-.105 0-.208-.005-.313a6.896 6.896 0 00-.03-.707A6.706 6.706 0 009.953.704a6.742 6.742 0 00-7.28.833A6.582 6.582 0 00.01 6.68a6.9 6.9 0 004.543 6.881c.209.075.421.14.636.192.1.026.19.051.283.08l.174.053.941.118h.318c.246.002.492-.01.737-.033a9.83 9.83 0 001.192-.214 1.031 1.031 0 00.66-.475 1.022 1.022 0 00-1.185-1.489 4.972 4.972 0 01-6.048-3.3 4.958 4.958 0 014.42-6.41 4.943 4.943 0 015.11 6.174.972.972 0 01-.209.424.69.69 0 01-.782.1 1.287 1.287 0 01-.553-.613c-.457-.94-.12-2.346-.068-3.364a.941.941 0 00-.892-.988.925.925 0 00-.822.423 3.393 3.393 0 00-2.527-.413 3.343 3.343 0 00-2.137 4.956 3.277 3.277 0 002.786 1.651 3.475 3.475 0 002.146-.68 3.148 3.148 0 002.745 1.085 2.755 2.755 0 002.242-1.894c.045-.123.078-.25.111-.378l.051-.2.12-.939zm-5.99-.273a1.316 1.316 0 11-2.628-.137 1.316 1.316 0 012.628.137z" fill="#676767"/></svg><svg fill="none" viewBox="0 0 17 17" id="instagram" xmlns="http://www.w3.org/2000/svg"><g clip-path="url(#cclip0_92_2393)"><path d="M8.5 6.209a2.29 2.29 0 10-.012 4.58A2.29 2.29 0 008.5 6.21z"/><path d="M16.94 5.006a6.638 6.638 0 00-.2-1.466 4.44 4.44 0 00-1.384-2.307 4.653 4.653 0 00-2.57-1.111c-.483-.058-.97-.091-1.457-.1C10.368 0 9.411 0 8.454 0 7.324 0 6.193-.01 5.06.048a8.183 8.183 0 00-1.276.145 4.555 4.555 0 00-2.429 1.3A4.708 4.708 0 00.136 4.106a11.912 11.912 0 00-.113 1.65C.008 6.657 0 7.559 0 8.461c0 1.254-.014 2.51.064 3.764a6.41 6.41 0 00.287 1.578 4.306 4.306 0 001.943 2.442 5.14 5.14 0 002.283.67c.551.04 1.106.067 1.66.07 1.802.01 3.605.035 5.408-.023a8.607 8.607 0 001.69-.188 4.468 4.468 0 003.522-3.885c.074-.547.112-1.098.113-1.65.017-.911.02-1.822.033-3.13-.018-.773-.036-1.939-.064-3.103zM8.49 12.86a4.361 4.361 0 11.007-8.723 4.361 4.361 0 01-.007 8.723zm4.966-7.772a1.472 1.472 0 111.466-1.47 1.476 1.476 0 01-1.466 1.466v.004z"/></g><defs><clipPath id="cclip0_92_2393"><path d="M0 0h17v17H0z"/></clipPath></defs></svg><svg fill="none" viewBox="0 0 17 17" id="instagramWhite" xmlns="http://www.w3.org/2000/svg"><g clip-path="url(#dclip0_92_2393)" fill="#fff"><path d="M8.5 6.209a2.29 2.29 0 10-.012 4.58A2.29 2.29 0 008.5 6.21z"/><path d="M16.94 5.006a6.638 6.638 0 00-.2-1.466 4.44 4.44 0 00-1.384-2.307 4.653 4.653 0 00-2.57-1.111c-.483-.058-.97-.091-1.457-.1C10.368 0 9.411 0 8.454 0 7.324 0 6.193-.01 5.06.048a8.183 8.183 0 00-1.276.145 4.555 4.555 0 00-2.429 1.3A4.708 4.708 0 00.136 4.106a11.912 11.912 0 00-.113 1.65C.008 6.657 0 7.559 0 8.461c0 1.254-.014 2.51.064 3.764a6.41 6.41 0 00.287 1.578 4.306 4.306 0 001.943 2.442 5.14 5.14 0 002.283.67c.551.04 1.106.067 1.66.07 1.802.01 3.605.035 5.408-.023a8.607 8.607 0 001.69-.188 4.468 4.468 0 003.522-3.885c.074-.547.112-1.098.113-1.65.017-.911.02-1.822.033-3.13-.018-.773-.036-1.939-.064-3.103zM8.49 12.86a4.361 4.361 0 11.007-8.723 4.361 4.361 0 01-.007 8.723zm4.966-7.772a1.472 1.472 0 111.466-1.47 1.476 1.476 0 01-1.466 1.466v.004z"/></g><defs><clipPath id="dclip0_92_2393"><path fill="#fff" d="M0 0h17v17H0z"/></clipPath></defs></svg><svg fill="none" viewBox="0 0 14 15" id="password" xmlns="http://www.w3.org/2000/svg"><path d="M12.322 8.767L9.273 7.001l3.309-1.915a1.105 1.105 0 00.494-1.572 1.072 1.072 0 00-.74-.57 1.27 1.27 0 00-.862.17c-.246.138-3.347 1.927-3.347 1.927l-.005-3.835a1.215 1.215 0 00-.333-.905 1.062 1.062 0 00-.796-.3 1.109 1.109 0 00-1.125 1.207v3.838c-1.095-.63-2.188-1.26-3.278-1.892a1.293 1.293 0 00-.99-.188 1.091 1.091 0 00-.665.543 1.081 1.081 0 00-.135.84 1.305 1.305 0 00.667.767l3.265 1.885-3.286 1.9a1.093 1.093 0 00-.535 1.551 1.1 1.1 0 00.666.578 1.26 1.26 0 00.985-.166c.545-.309 1.087-.62 1.631-.934l1.674-.959v3.73a1.33 1.33 0 00.344 1 1.082 1.082 0 00.789.3h.03c.33-.005 1.1-.14 1.095-1.283V8.964l3.087 1.778a1.64 1.64 0 001.249.272 1.033 1.033 0 00.629-.526c.241-.444.304-1.103-.768-1.72z" fill="#676767"/></svg><svg fill="none" viewBox="0 0 18 18" id="play" xmlns="http://www.w3.org/2000/svg"><path d="M9 17.333A8.342 8.342 0 01.667 9v-.167A8.333 8.333 0 119 17.333zM7.334 5.25v7.5l5-3.75-5-3.75z" fill="#00F"/></svg><svg fill="none" viewBox="0 0 17 17" id="telegram" xmlns="http://www.w3.org/2000/svg"><g clip-path="url(#gclip0_92_2395)"><path clip-rule="evenodd" d="M16.04.037L.729 5.922a.747.747 0 00.025 1.403l3.4 1.191a1.073 1.073 0 00.91-.095l7.43-4.48a.243.243 0 01.295.375l-5.574 5.66a.938.938 0 00-.317.697l-.026 5.842a.519.519 0 00.982.197l2.047-4.152a.874.874 0 011.187-.29l3.632 2.004a.787.787 0 001.165-.64l.86-13.126a.51.51 0 00-.706-.471z"/></g><defs><clipPath id="gclip0_92_2395"><path d="M0 0h17v17H0z"/></clipPath></defs></svg><svg fill="none" viewBox="0 0 15 16" id="telegramColor" xmlns="http://www.w3.org/2000/svg"><path d="M0 8.312a7.5 7.5 0 1015 0 7.5 7.5 0 00-15 0z" fill="#08C"/><path d="M3.797 8.175A328.615 328.615 0 017.824 6.44c1.918-.798 2.317-.936 2.576-.94a.455.455 0 01.268.08c.07.056.09.133.098.186.01.054.021.177.012.272-.104 1.092-.554 3.742-.783 4.965-.096.518-.287.691-.471.708-.402.037-.706-.265-1.094-.52-.608-.398-.952-.646-1.542-1.035-.682-.449-.24-.696.149-1.1.102-.105 1.869-1.712 1.903-1.858.004-.018.008-.086-.032-.122-.04-.036-.1-.024-.143-.014-.061.014-1.032.656-2.913 1.925-.276.19-.525.282-.75.277-.246-.005-.72-.14-1.073-.254-.432-.14-.776-.215-.746-.454.016-.124.187-.251.514-.381z" fill="#fff"/></svg><svg fill="none" viewBox="0 0 17 17" id="telegramWhite" xmlns="http://www.w3.org/2000/svg"><g clip-path="url(#iclip0_92_2395)"><path fill-rule="evenodd" clip-rule="evenodd" d="M16.04.037L.729 5.922a.747.747 0 00.025 1.403l3.4 1.191a1.073 1.073 0 00.91-.095l7.43-4.48a.243.243 0 01.295.375l-5.574 5.66a.938.938 0 00-.317.697l-.026 5.842a.519.519 0 00.982.197l2.047-4.152a.874.874 0 011.187-.29l3.632 2.004a.787.787 0 001.165-.64l.86-13.126a.51.51 0 00-.706-.471z" fill="#fff"/></g><defs><clipPath id="iclip0_92_2395"><path fill="#fff" d="M0 0h17v17H0z"/></clipPath></defs></svg><svg fill="none" viewBox="0 0 17 17" id="tiktok" xmlns="http://www.w3.org/2000/svg"><path d="M11.984 0H8.986s-.04 11.502-.066 11.779a2.392 2.392 0 01-.885 1.55 2.601 2.601 0 01-1.586.607 2.688 2.688 0 01-2.657-2.596 2.658 2.658 0 012.28-2.558c.135-.011.328-.016.514-.02V5.714c-.45-.006-.9.023-1.344.09a5.683 5.683 0 00-4.46 4.792A5.423 5.423 0 002.55 15.47a5.574 5.574 0 006.738.707 5.412 5.412 0 002.725-4.746c.036-2 .029-5.312.037-5.464a7.584 7.584 0 004.213 1.357V4.348C13.78 3.931 12.219 2.635 11.983 0z"/></svg><svg fill="none" viewBox="0 0 17 17" id="tiktokWhite" xmlns="http://www.w3.org/2000/svg"><path d="M11.984 0H8.986s-.04 11.502-.066 11.779a2.392 2.392 0 01-.885 1.55 2.601 2.601 0 01-1.586.607 2.688 2.688 0 01-2.657-2.596 2.658 2.658 0 012.28-2.558c.135-.011.328-.016.514-.02V5.714c-.45-.006-.9.023-1.344.09a5.683 5.683 0 00-4.46 4.792A5.423 5.423 0 002.55 15.47a5.574 5.574 0 006.738.707 5.412 5.412 0 002.725-4.746c.036-2 .029-5.312.037-5.464a7.584 7.584 0 004.213 1.357V4.348C13.78 3.931 12.219 2.635 11.983 0z" fill="#fff"/></svg><svg fill="none" viewBox="0 0 13 14" id="user" xmlns="http://www.w3.org/2000/svg"><path d="M0 11.825v-.995c.019-.363.137-.713.343-1.014.205-.301.49-.54.823-.693a13.515 13.515 0 019.978 0c.333.152.618.392.823.693.206.3.324.651.343 1.014v.995a2.012 2.012 0 01-.602 1.437 2.054 2.054 0 01-1.453.593h-8.2a2.07 2.07 0 01-1.453-.593A2.03 2.03 0 010 11.825zM6.155 0c-.676 0-1.338.198-1.9.57-.563.372-1.001.9-1.26 1.519a3.352 3.352 0 00.74 3.689 3.453 3.453 0 003.727.734 3.413 3.413 0 001.536-1.247A3.36 3.36 0 008.573.991 3.422 3.422 0 006.155 0z" fill="#676767"/></svg><svg fill="none" viewBox="0 0 22 16" id="youtube" xmlns="http://www.w3.org/2000/svg"><path d="M21.122 2.336l.027.176a2.738 2.738 0 00-1.861-1.9l-.019-.005C17.585.15 10.809.15 10.809.15S4.05.14 2.349.607A2.74 2.74 0 00.474 2.494l-.004.018c-.63 3.286-.634 7.235.028 10.753l-.028-.179c.26.927.966 1.641 1.861 1.901l.019.005c1.682.458 8.46.458 8.46.458s6.758 0 8.46-.458a2.739 2.739 0 001.875-1.887l.005-.019c.286-1.528.45-3.286.45-5.083v-.199-.207a29.03 29.03 0 00-.478-5.261zm-12.475 8.75V4.522l5.64 3.287-5.64 3.277z" fill="#676767"/></svg></svg>