<svg width="15" height="15" viewBox="0 0 15 15" fill="none" xmlns="http://www.w3.org/2000/svg">
<path d="M14.0021 7.42733C14.0021 7.32233 14.0021 7.21933 13.9971 7.11433C13.9992 6.87831 13.9892 6.64233 13.9671 6.40733C13.8854 5.18003 13.4678 3.99884 12.7598 2.99299C12.0519 1.98714 11.0809 1.19538 9.95315 0.704332C8.78844 0.126285 7.48142 -0.102632 6.18958 0.0451639C4.89775 0.19296 3.67621 0.711162 2.67215 1.53733C1.86585 2.13497 1.2069 2.90909 0.745691 3.80048C0.284482 4.69187 0.0332304 5.67693 0.0111488 6.68033C-0.0732514 8.1635 0.323283 9.63431 1.14179 10.8741C1.9603 12.1138 3.15707 13.0563 4.55415 13.5613C4.76277 13.636 4.97505 13.7001 5.19015 13.7533C5.29015 13.7793 5.38015 13.8043 5.47315 13.8323L5.64715 13.8863L6.58815 14.0043C6.68815 14.0043 6.80015 14.0043 6.90615 14.0043C7.15222 14.0059 7.3982 13.9949 7.64315 13.9713C8.0445 13.9245 8.44259 13.8531 8.83515 13.7573C8.97144 13.7269 9.10012 13.6691 9.2134 13.5875C9.32668 13.5058 9.4222 13.402 9.49415 13.2823C9.59697 13.1046 9.64389 12.9001 9.62879 12.6953C9.61369 12.4906 9.53727 12.2951 9.40949 12.1344C9.28171 11.9737 9.10849 11.8552 8.9124 11.7944C8.71631 11.7336 8.50645 11.7332 8.31015 11.7933C7.071 12.1309 5.74931 11.9758 4.62191 11.3607C3.49452 10.7456 2.64888 9.71802 2.26215 8.49333C2.04114 7.77726 1.98533 7.02041 2.09892 6.27967C2.21251 5.53893 2.49253 4.83358 2.91794 4.21663C3.34336 3.59969 3.90309 3.08721 4.55506 2.71771C5.20704 2.34821 5.93429 2.13132 6.68215 2.08333C7.46288 2.03181 8.24468 2.16635 8.96327 2.47591C9.68186 2.78546 10.3167 3.26118 10.8156 3.86393C11.3144 4.46668 11.6631 5.17925 11.8329 5.94304C12.0027 6.70682 11.9887 7.5 11.7921 8.25733C11.7584 8.41371 11.6866 8.55935 11.5831 8.68133C11.4785 8.77574 11.3476 8.83592 11.2078 8.8538C11.068 8.87167 10.9261 8.84639 10.8011 8.78133C10.5545 8.64333 10.3601 8.42789 10.2481 8.16833C9.79115 7.22833 10.1271 5.82233 10.1801 4.80433C10.1927 4.55508 10.1058 4.31105 9.93853 4.12581C9.77129 3.94057 9.53738 3.82926 9.28815 3.81633C9.12607 3.80855 8.9648 3.84353 8.82052 3.91778C8.67623 3.99203 8.55402 4.10292 8.46615 4.23933C7.71008 3.77692 6.80309 3.62868 5.93915 3.82633C5.42648 3.94327 4.94862 4.1795 4.5444 4.51582C4.14018 4.85215 3.821 5.27909 3.61279 5.76195C3.40458 6.24481 3.31322 6.76998 3.34612 7.2948C3.37902 7.81961 3.53526 8.32925 3.80215 8.78233C4.08374 9.27527 4.48856 9.68661 4.97695 9.97603C5.46534 10.2655 6.02054 10.423 6.58815 10.4333C7.35923 10.4508 8.11421 10.2112 8.73415 9.75233C9.06812 10.1439 9.49297 10.4476 9.97151 10.6369C10.45 10.8262 10.9677 10.8954 11.4791 10.8383C11.9934 10.766 12.4767 10.5498 12.8734 10.2147C13.27 9.87963 13.5639 9.43923 13.7211 8.94433C13.7661 8.82133 13.7991 8.69433 13.8321 8.56633L13.8831 8.36633L14.0021 7.42733ZM8.01215 7.15433C7.99629 7.45835 7.87551 7.74746 7.6704 7.97242C7.4653 8.19737 7.18854 8.34426 6.88728 8.38807C6.58602 8.43187 6.27889 8.36987 6.01822 8.21263C5.75754 8.05539 5.55944 7.81264 5.45766 7.52573C5.35588 7.23882 5.35672 6.9255 5.46004 6.63914C5.56336 6.35278 5.76276 6.11109 6.02427 5.95526C6.28579 5.79942 6.59324 5.73907 6.89427 5.78448C7.19529 5.8299 7.47125 5.97828 7.67515 6.20433C7.79146 6.33246 7.88114 6.48242 7.939 6.64551C7.99685 6.80859 8.02171 6.98155 8.01215 7.15433Z" fill="#676767"/>
</svg>
