<svg width="17" height="17" viewBox="0 0 17 17" fill="none" xmlns="http://www.w3.org/2000/svg">
<g clip-path="url(#clip0_92_2393)">
<path d="M8.49983 6.20899C8.04668 6.20779 7.60335 6.34105 7.22597 6.59191C6.84859 6.84277 6.55411 7.19995 6.37981 7.61824C6.2055 8.03653 6.15921 8.49713 6.24679 8.94174C6.33437 9.38635 6.55189 9.79498 6.8718 10.1159C7.19172 10.4369 7.59966 10.6557 8.04399 10.7447C8.48832 10.8337 8.94906 10.7888 9.36791 10.6159C9.78675 10.4429 10.1449 10.1496 10.3969 9.77298C10.649 9.3964 10.7837 8.9535 10.7839 8.50035C10.7836 7.894 10.5431 7.31247 10.115 6.88304C9.68693 6.4536 9.10617 6.21124 8.49983 6.20899V6.20899Z"/>
<path d="M16.9394 5.00561C16.9278 4.51117 16.861 4.01957 16.7402 3.53997C16.5285 2.64627 16.0449 1.84022 15.3559 1.23282C14.6338 0.607509 13.7367 0.219592 12.7865 0.121753C12.3028 0.0638132 11.8165 0.0305796 11.3294 0.0221817C10.3677 0.000324588 9.4108 0.000324588 8.45394 0.000324588C7.32344 0.000324588 6.19294 -0.010604 5.06001 0.0476817C4.63145 0.0627384 4.20473 0.11146 3.7838 0.193396C2.85959 0.365488 2.01127 0.819339 1.35523 1.49268C0.685521 2.21477 0.259133 3.1287 0.136083 4.10582C0.0602491 4.65262 0.0225153 5.20402 0.0231545 5.75604C0.00777352 6.65704 8.30436e-05 7.55885 8.30436e-05 8.46147C8.30436e-05 9.71461 -0.0144884 10.9714 0.0644402 12.2245C0.0934787 12.7607 0.189756 13.291 0.351012 13.8031C0.670523 14.8314 1.3637 15.7026 2.29387 16.245C2.99205 16.6435 3.77393 16.8726 4.57673 16.9141C5.12801 16.9554 5.68294 16.9821 6.23665 16.9845C8.03865 16.9955 9.84187 17.0198 11.6451 16.9615C12.2133 16.9551 12.7795 16.8925 13.3354 16.7745C14.257 16.5806 15.0938 16.1005 15.7262 15.4027C16.3586 14.7048 16.7543 13.8249 16.8568 12.8888C16.9314 12.3418 16.9691 11.7905 16.9697 11.2385C16.9867 10.3278 16.9892 9.41711 17.0025 8.10811C16.9855 7.33582 16.9673 6.17011 16.9394 5.00561ZM8.49037 12.8608C7.62781 12.8601 6.78482 12.6037 6.068 12.1239C5.35117 11.6441 4.79269 10.9626 4.46315 10.1655C4.13362 9.36833 4.04783 8.49139 4.21664 7.6455C4.38545 6.79962 4.80127 6.02278 5.41153 5.4132C6.02179 4.80361 6.7991 4.38866 7.64517 4.22079C8.49124 4.05293 9.36808 4.13969 10.1648 4.47011C10.9616 4.80053 11.6425 5.35977 12.1215 6.07713C12.6004 6.7945 12.856 7.63776 12.8557 8.50032C12.856 9.07345 12.7433 9.64102 12.524 10.1705C12.3047 10.7 11.983 11.1811 11.5776 11.5861C11.1721 11.9911 10.6907 12.3122 10.1609 12.5309C9.63118 12.7497 9.0635 12.8618 8.49037 12.8608V12.8608ZM13.4556 5.0894C13.1642 5.09036 12.8792 5.00483 12.6365 4.84365C12.3938 4.68247 12.2044 4.45288 12.0923 4.18398C11.9802 3.91507 11.9505 3.61894 12.0068 3.33311C12.0631 3.04727 12.203 2.78458 12.4088 2.57832C12.6145 2.37206 12.8769 2.23151 13.1626 2.17446C13.4483 2.11742 13.7445 2.14645 14.0136 2.25788C14.2828 2.36932 14.5129 2.55814 14.6747 2.80042C14.8364 3.04271 14.9227 3.32756 14.9224 3.6189C14.9196 4.00693 14.7641 4.37825 14.4896 4.65253C14.2151 4.9268 13.8436 5.082 13.4556 5.08454V5.0894Z" />
</g>
<defs>
<clipPath id="clip0_92_2393">
<rect width="17" height="17" />
</clipPath>
</defs>
</svg>
