<svg width="14" height="15" viewBox="0 0 14 15" fill="none" xmlns="http://www.w3.org/2000/svg">
<path d="M12.322 8.76742L9.27295 7.00142L12.582 5.08642C12.7237 5.0223 12.8502 4.92899 12.9534 4.81259C13.0566 4.69619 13.134 4.55932 13.1806 4.41093C13.2273 4.26255 13.242 4.10599 13.224 3.9515C13.206 3.79701 13.1555 3.64807 13.076 3.51442C13.0036 3.36973 12.8995 3.24329 12.7713 3.14458C12.6431 3.04587 12.4943 2.97744 12.336 2.94442C12.0375 2.89681 11.7319 2.95708 11.474 3.11442C11.228 3.25242 8.12695 5.04142 8.12695 5.04142L8.12195 1.20642C8.13115 1.04083 8.10635 0.875107 8.04908 0.719464C7.99181 0.563822 7.90328 0.421551 7.78895 0.301416C7.68411 0.19925 7.55928 0.119862 7.4223 0.0682355C7.28532 0.0166093 7.13914 -0.00614011 6.99295 0.00141564C6.83735 -0.00144083 6.68289 0.0284846 6.53961 0.0892459C6.39634 0.150007 6.26745 0.240244 6.16134 0.354089C6.05523 0.467934 5.97427 0.602837 5.92372 0.750027C5.87317 0.897218 5.85417 1.0534 5.86795 1.20842V5.04642C4.77262 4.41642 3.67995 3.78575 2.58995 3.15442C2.44592 3.05841 2.28408 2.9923 2.11402 2.96C1.94396 2.92771 1.76915 2.92989 1.59995 2.96642C1.45815 3.00725 1.3261 3.07642 1.21179 3.16975C1.09749 3.26309 1.00331 3.37864 0.934951 3.50942C0.856937 3.63289 0.804753 3.77089 0.78155 3.91509C0.758347 4.05929 0.764607 4.2067 0.799951 4.34842C0.854051 4.51456 0.940966 4.66815 1.05554 4.80008C1.17012 4.932 1.31002 5.03958 1.46695 5.11642L4.73195 7.00142L1.44595 8.90141C1.30237 8.96039 1.173 9.04928 1.06645 9.16215C0.9599 9.27502 0.878612 9.40929 0.827997 9.55603C0.777382 9.70277 0.758601 9.8586 0.772905 10.0132C0.787208 10.1677 0.834268 10.3175 0.910951 10.4524C0.976085 10.5895 1.06888 10.7116 1.1835 10.8111C1.29811 10.9105 1.43207 10.9852 1.57695 11.0304C1.74377 11.0714 1.91722 11.0778 2.08662 11.0493C2.25602 11.0207 2.41778 10.9578 2.56195 10.8644C3.10695 10.5554 3.64895 10.2434 4.19295 9.93042L5.86695 8.97142V12.7014C5.85292 12.8828 5.87621 13.0651 5.93537 13.237C5.99454 13.409 6.08833 13.5671 6.21095 13.7014C6.31568 13.8017 6.43949 13.8799 6.57502 13.9314C6.71055 13.983 6.85505 14.0068 6.99995 14.0014H7.02995C7.35995 13.9964 8.12995 13.8604 8.12495 12.7184V8.96442L11.212 10.7424C11.3914 10.869 11.5944 10.9582 11.8089 11.0049C12.0234 11.0517 12.2452 11.0549 12.461 11.0144C12.5961 10.9743 12.7217 10.907 12.8299 10.8165C12.9381 10.726 13.0266 10.6144 13.09 10.4884C13.331 10.0444 13.394 9.38542 12.322 8.76742Z" fill="#676767"/>
</svg>
