<svg width="15" height="16" viewBox="0 0 15 16" fill="none" xmlns="http://www.w3.org/2000/svg">
<path d="M0 8.31152C0 12.4537 3.35786 15.8115 7.5 15.8115C11.6421 15.8115 15 12.4537 15 8.31152C15 4.16939 11.6421 0.811523 7.5 0.811523C3.35786 0.811523 0 4.16939 0 8.31152Z" fill="#0088CC"/>
<path d="M3.79684 8.17479C5.8101 7.29764 7.15259 6.71937 7.82431 6.43998C9.7422 5.64226 10.1407 5.50369 10.4005 5.49907C10.4576 5.49811 10.5853 5.51227 10.6681 5.57941C10.7379 5.6361 10.7572 5.71268 10.7664 5.76643C10.7756 5.82018 10.787 5.94263 10.7779 6.0383C10.674 7.13032 10.2243 9.78035 9.99549 11.0034C9.89868 11.521 9.70806 11.6945 9.52352 11.7115C9.12247 11.7484 8.81794 11.4464 8.4295 11.1918C7.82168 10.7934 7.47829 10.5453 6.88829 10.1565C6.20645 9.7072 6.64846 9.46024 7.03704 9.05664C7.13874 8.95102 8.90577 7.34377 8.93997 7.19797C8.94425 7.17973 8.94822 7.11176 8.90783 7.07587C8.86745 7.03998 8.80785 7.05225 8.76485 7.06201C8.70388 7.07585 7.73288 7.71765 5.85182 8.98741C5.57621 9.17667 5.32656 9.26889 5.10289 9.26405C4.8563 9.25873 4.38198 9.12463 4.02937 9.01001C3.59687 8.86943 3.25314 8.7951 3.28307 8.55634C3.29866 8.43198 3.46991 8.30479 3.79684 8.17479Z" fill="white"/>
</svg>
