<svg width="17" height="17" viewBox="0 0 17 17" fill="none" xmlns="http://www.w3.org/2000/svg">
<g clip-path="url(#clip0_92_2395)">
<path fill-rule="evenodd" clip-rule="evenodd" d="M16.0395 0.0366388L0.728589 5.92228C0.585813 5.97745 0.463439 6.07516 0.378034 6.20219C0.292628 6.32921 0.248317 6.47941 0.2511 6.63245C0.253883 6.78548 0.303624 6.93397 0.39359 7.05781C0.483557 7.18164 0.609402 7.27484 0.754089 7.32478L4.15409 8.516C4.30348 8.56834 4.4626 8.58699 4.62005 8.57061C4.7775 8.55424 4.92938 8.50324 5.0648 8.42128L12.4938 3.94178C12.5439 3.91625 12.6012 3.90887 12.6561 3.92089C12.711 3.93291 12.76 3.96359 12.7948 4.0077C12.8296 4.05181 12.848 4.10662 12.847 4.1628C12.8459 4.21898 12.8254 4.27304 12.7889 4.31578L7.2153 9.97678C7.11655 10.064 7.03729 10.171 6.98268 10.2909C6.92807 10.4108 6.89935 10.5408 6.89838 10.6726L6.87166 16.5145C6.87867 16.6286 6.92317 16.7371 6.99824 16.8233C7.07331 16.9095 7.17474 16.9684 7.28677 16.991C7.39881 17.0136 7.51516 16.9985 7.61774 16.9481C7.72032 16.8977 7.80338 16.8149 7.85402 16.7124L9.9013 12.5596C10.0223 12.3661 10.214 12.2276 10.4357 12.1736C10.6573 12.1197 10.8913 12.1544 11.0877 12.2706L14.7196 14.2741C14.8358 14.338 14.9663 14.3714 15.0988 14.3714C15.2314 14.3714 15.3619 14.338 15.4781 14.2742C15.5943 14.2104 15.6926 14.1183 15.7638 14.0064C15.8349 13.8945 15.8767 13.7665 15.8853 13.6342L16.745 0.507782C16.7453 0.423764 16.7248 0.340976 16.6854 0.266809C16.6459 0.192642 16.5887 0.129405 16.5188 0.0827451C16.4489 0.0360849 16.3686 0.00745381 16.285 -0.000591529C16.2013 -0.00863687 16.117 0.00415394 16.0395 0.0366388Z"/>
</g>
<defs>
<clipPath id="clip0_92_2395">
<rect width="17" height="17"/>
</clipPath>
</defs>
</svg>
