<svg width="17" height="17" viewBox="0 0 17 17" fill="none" xmlns="http://www.w3.org/2000/svg">
<path d="M11.9837 0H8.9856C8.9856 0 8.94675 11.5017 8.92003 11.7786C8.83615 12.3903 8.51896 12.946 8.03482 13.3292C7.58901 13.7033 7.03062 13.9171 6.44896 13.9364C5.75703 13.9289 5.09464 13.6549 4.59972 13.1713C4.1048 12.6877 3.81551 12.0318 3.7921 11.3402C3.80922 10.7134 4.04737 10.1129 4.46444 9.6447C4.88152 9.17652 5.45067 8.87085 6.07132 8.78171C6.20732 8.77078 6.40039 8.76593 6.58617 8.76229V5.71443C6.13644 5.70752 5.68689 5.73717 5.24196 5.80307C4.09505 6.0445 3.05084 6.63465 2.25239 7.49266C1.45395 8.35067 0.940324 9.43457 0.781889 10.5959C0.645923 11.4915 0.736493 12.4069 1.04533 13.2586C1.35417 14.1102 1.87143 14.8709 2.54989 15.4712C3.43939 16.3129 4.58132 16.8381 5.79922 16.9659C7.01712 17.0936 8.24319 16.8167 9.28796 16.1779C10.1228 15.7004 10.8154 15.009 11.2943 14.175C11.7733 13.3409 12.0213 12.3943 12.0128 11.4325C12.0492 9.43257 12.042 6.12 12.0505 5.96821C13.2885 6.82902 14.7551 7.30125 16.2628 7.32457V4.34836C13.7796 3.93064 12.2192 2.635 11.9837 0Z" fill="#ffffff"/>
</svg>
