<svg width="13" height="14" viewBox="0 0 13 14" fill="none" xmlns="http://www.w3.org/2000/svg">
<path d="M0 11.8255V10.8299C0.0186564 10.4672 0.137144 10.1165 0.342653 9.81556C0.548162 9.51467 0.832872 9.2751 1.166 9.12276C4.36768 7.85 7.94231 7.85 11.144 9.12276C11.4771 9.2751 11.7618 9.51467 11.9673 9.81556C12.1729 10.1165 12.2913 10.4672 12.31 10.8299V11.8255C12.3099 12.0924 12.2566 12.3566 12.1532 12.6031C12.0499 12.8495 11.8984 13.0734 11.7076 13.2619C11.5167 13.4504 11.2902 13.5999 11.041 13.7017C10.7917 13.8035 10.5246 13.8557 10.255 13.8553H2.055C1.78536 13.8557 1.51828 13.8035 1.26904 13.7017C1.0198 13.5999 0.793281 13.4504 0.602431 13.2619C0.41158 13.0734 0.260142 12.8495 0.156773 12.6031C0.0534038 12.3566 0.000131116 12.0924 0 11.8255ZM6.155 1.44755e-07C5.47854 -0.000195605 4.81722 0.198145 4.25468 0.569937C3.69213 0.94173 3.25362 1.47027 2.99462 2.08872C2.73561 2.70717 2.66774 3.38775 2.79959 4.04437C2.93144 4.701 3.25709 5.30418 3.73534 5.77763C4.2136 6.25108 4.82298 6.57354 5.48642 6.70422C6.14986 6.8349 6.83756 6.76793 7.46254 6.51178C8.08753 6.25563 8.62172 5.82181 8.99755 5.26518C9.37339 4.70856 9.574 4.05413 9.574 3.38466C9.57413 2.94023 9.48579 2.50012 9.31403 2.08948C9.14227 1.67884 8.89045 1.30571 8.57295 0.991405C8.25545 0.677097 7.8785 0.427769 7.46362 0.257662C7.04875 0.0875542 6.60407 1.25745e-07 6.155 1.44755e-07Z" fill="#676767"/>
</svg>
