<svg width="22" height="16" viewBox="0 0 22 16" fill="none" xmlns="http://www.w3.org/2000/svg">
<path d="M21.1221 2.33601L21.1491 2.51242C20.8881 1.58631 20.1834 0.871715 19.2879 0.611615L19.269 0.607115C17.5851 0.149915 10.809 0.149915 10.809 0.149915C10.809 0.149915 4.05002 0.140915 2.34902 0.607115C1.43642 0.871715 0.730821 1.58632 0.474321 2.49352L0.469821 2.51242C-0.159279 5.79832 -0.163779 9.74662 0.497721 13.2647L0.469821 13.0865C0.730821 14.0126 1.43552 14.7272 2.33102 14.9873L2.34992 14.9918C4.03202 15.4499 10.8099 15.4499 10.8099 15.4499C10.8099 15.4499 17.568 15.4499 19.2699 14.9918C20.1834 14.7272 20.889 14.0126 21.1455 13.1054L21.15 13.0865C21.4362 11.5583 21.6 9.79972 21.6 8.00332C21.6 7.93762 21.6 7.87102 21.5991 7.80442C21.6 7.74322 21.6 7.67031 21.6 7.59741C21.6 5.80011 21.4362 4.04152 21.1221 2.33601V2.33601ZM8.64722 11.0858V4.52212L14.2866 7.80892L8.64722 11.0858Z" fill="#676767"/>
</svg>
