<svg xmlns="http://www.w3.org/2000/svg" xmlns:xlink="http://www.w3.org/1999/xlink" preserveAspectRatio="xMidYMid" width="529" height="549" viewBox="0 0 529 549">
  <defs>
    <style>
      .cls-1 {
        fill: #64a9df;
        opacity: 0.3;
        fill-rule: evenodd;
      }
    </style>
  </defs>
  <path d="M497.347,78.333 C427.107,153.499 348.468,223.341 261.374,281.354 L362.659,-0.015 L528.998,-0.015 L497.347,78.333 ZM459.754,171.391 C393.408,233.925 320.560,290.757 241.173,337.471 L247.494,319.912 C329.319,269.500 404.010,208.473 471.674,141.885 L459.754,171.391 ZM130.971,392.311 L130.971,392.336 C130.971,392.336 128.686,393.191 125.406,394.380 C124.562,394.687 123.687,395.032 122.851,395.329 C122.852,395.319 122.852,395.308 122.853,395.298 C117.652,397.156 111.101,399.418 106.766,400.627 L103.163,391.876 L103.162,391.872 C103.162,391.872 119.310,385.637 127.015,382.612 C149.662,373.466 174.614,361.471 202.166,346.331 C212.454,340.678 222.596,334.792 232.673,328.806 L236.745,340.119 C229.443,344.367 222.086,348.531 214.674,352.605 C183.415,369.783 155.621,382.932 130.971,392.311 ZM106.706,400.644 C106.726,400.638 106.746,400.632 106.766,400.627 C106.766,400.684 106.767,400.738 106.767,400.796 L106.706,400.644 ZM126.293,357.464 C126.293,357.464 123.552,358.678 119.531,360.404 C119.530,360.412 119.528,360.421 119.527,360.429 C118.063,361.063 116.655,361.632 115.210,362.243 C114.227,362.657 113.221,363.080 112.179,363.515 C110.988,364.009 109.762,364.546 108.586,365.022 C108.587,365.014 108.588,365.005 108.589,364.997 C106.390,365.897 104.164,366.791 102.008,367.633 C102.007,367.637 102.007,367.640 102.007,367.645 C101.798,367.726 101.602,367.792 101.395,367.871 C98.926,368.830 96.567,369.711 94.498,370.425 L0.000,141.885 L165.949,141.885 L224.145,305.115 C210.754,313.279 197.204,321.205 183.433,328.773 C162.934,340.039 143.945,349.546 126.293,357.464 ZM437.631,226.153 L427.316,251.688 C371.014,298.546 310.571,340.909 245.911,376.442 C197.805,402.877 151.390,421.599 118.446,429.707 L115.041,421.277 C146.131,412.071 191.010,393.458 233.398,370.165 C306.872,329.788 374.916,280.662 437.631,226.153 ZM124.056,443.592 L123.996,443.443 L123.952,443.334 C123.974,443.331 123.995,443.330 124.017,443.326 C124.028,443.417 124.044,443.501 124.056,443.592 ZM407.843,299.892 L398.790,322.300 C360.029,350.772 319.500,376.995 277.147,400.269 C214.798,434.539 165.871,453.185 129.285,456.537 L126.330,449.222 C162.452,443.256 208.262,424.980 264.639,393.996 C314.909,366.371 362.617,334.622 407.843,299.892 ZM129.535,485.392 C129.490,485.371 129.441,485.352 129.397,485.329 C129.350,485.320 129.302,485.313 129.256,485.304 C129.248,485.287 129.240,485.269 129.232,485.254 C129.166,485.122 129.104,484.986 129.039,484.855 C129.188,485.022 129.342,485.183 129.493,485.346 C129.507,485.362 129.521,485.377 129.535,485.392 ZM381.367,365.429 L373.349,385.275 C352.183,398.953 330.534,411.935 308.384,424.106 C232.836,465.628 176.891,484.209 138.915,480.374 L136.800,475.140 C175.499,473.962 228.160,455.040 295.880,417.828 C325.243,401.691 353.727,384.141 381.367,365.429 ZM327.112,441.662 C337.414,436.000 347.570,430.107 357.661,424.110 L350.530,441.764 C346.893,443.819 343.288,445.925 339.625,447.938 C245.955,499.414 182.435,515.897 145.894,497.650 L145.855,497.555 L145.768,497.338 C185.599,504.908 245.245,486.647 327.112,441.662 ZM336.178,477.290 L307.213,548.990 L166.634,548.990 L151.367,511.198 C185.946,534.506 246.674,523.386 336.178,477.290 Z" class="cls-1"/>
</svg>
