<?xml version="1.0" encoding="utf-8"?>
<!-- Generator: Adobe Illustrator 19.0.0, SVG Export Plug-In . SVG Version: 6.00 Build 0)  -->
<svg version="1.1" id="Шар_1" xmlns="http://www.w3.org/2000/svg" xmlns:xlink="http://www.w3.org/1999/xlink" x="0px" y="0px"
	 viewBox="0 0 498.3 595.8" style="enable-background:new 0 0 498.3 595.8;" xml:space="preserve">
<style type="text/css">
	.st0{clip-path:url(#SVGID_2_);}
	.st1{clip-path:url(#SVGID_2_);fill:#A9A5A4;}
	.st2{clip-path:url(#SVGID_2_);fill:#36A9E1;}
</style>
<g>
	<defs>
		<rect id="SVGID_1_" width="498.3" height="595.8"/>
	</defs>
	<clipPath id="SVGID_2_">
		<use xlink:href="#SVGID_1_"  style="overflow:visible;"/>
	</clipPath>
	<path class="st0" d="M119.3,550l-4.8,17c1.6-1.6,2.9-2.8,4.1-3.4c1.2-0.6,2.4-0.9,3.7-0.9c1.8,0,3.3,0.6,4.4,1.8
		c1.1,1.2,1.7,2.8,1.7,4.9c0,2.6-0.8,5.3-2.3,7.9c-1.5,2.6-3.4,4.6-5.7,6.1c-2.3,1.5-4.5,2.2-6.7,2.2c-2.5,0-5-0.9-7.6-2.8l7.5-25.7
		c0.6-2,0.9-3.1,0.9-3.5c0-0.4-0.1-0.7-0.4-1c-0.4-0.3-0.9-0.4-1.7-0.4c-0.3,0-0.9,0.1-1.6,0.2v-0.9L119.3,550z M109.8,583.1
		c1.6,0.9,3.1,1.4,4.3,1.4c1.4,0,2.9-0.5,4.5-1.6c1.5-1.1,2.9-2.8,4-5.3c1.1-2.5,1.7-5,1.7-7.6c0-1.5-0.4-2.7-1.1-3.5
		c-0.7-0.9-1.6-1.3-2.6-1.3c-1.5,0-3,0.6-4.5,1.8c-1.5,1.2-2.5,2.9-3.1,5.1L109.8,583.1z"/>
	<path class="st0" d="M137.9,562.7c0.6,1,0.9,1.8,1.2,2.7s0.4,2.5,0.6,4.9l1.1,12.1c1-1.2,2.4-3,4.3-5.6c0.9-1.2,2-2.9,3.3-5.1
		c0.8-1.3,1.3-2.2,1.5-2.8c0.1-0.3,0.1-0.5,0.1-0.8c0-0.2-0.1-0.3-0.2-0.4c-0.1-0.1-0.4-0.3-0.9-0.4c-0.5-0.2-0.9-0.4-1.2-0.9
		c-0.3-0.4-0.5-0.9-0.5-1.4c0-0.7,0.2-1.2,0.6-1.6c0.4-0.4,0.9-0.6,1.5-0.6c0.7,0,1.3,0.3,1.8,0.9c0.5,0.6,0.8,1.4,0.8,2.5
		c0,1.3-0.4,2.8-1.3,4.4c-0.9,1.7-2.6,4.2-5.1,7.7c-2.5,3.4-5.6,7.2-9.2,11.3c-2.5,2.8-4.3,4.6-5.5,5.3c-1.2,0.7-2.2,1.1-3.1,1.1
		c-0.5,0-1-0.2-1.3-0.6c-0.4-0.4-0.6-0.8-0.6-1.3c0-0.6,0.3-1.2,0.8-1.7c0.5-0.5,1.1-0.8,1.7-0.8c0.3,0,0.6,0.1,0.8,0.2
		c0.1,0.1,0.3,0.3,0.4,0.7c0.2,0.4,0.3,0.6,0.4,0.8c0.1,0.1,0.2,0.1,0.3,0.1c0.1,0,0.3-0.1,0.5-0.2c0.9-0.6,1.9-1.4,3.1-2.7
		c1.6-1.6,2.7-2.9,3.5-3.9l-1.4-15.6c-0.2-2.6-0.6-4.1-1-4.7c-0.5-0.6-1.2-0.8-2.3-0.8c-0.3,0-1,0-1.8,0.2l-0.2-0.9L137.9,562.7z"/>
	<path class="st0" d="M189.3,551.7l-6.4,21.9h4l-0.9,3h-4l-2.6,8.9h-3.6l2.6-8.9h-12l1-3.4l20-21.5H189.3z M183.9,558l-14.3,15.6
		h9.9L183.9,558z"/>
	<path class="st0" d="M198,562.7c0.6,1,0.9,1.8,1.2,2.7c0.2,0.8,0.4,2.5,0.6,4.9l1.1,12.1c1-1.2,2.4-3,4.3-5.6
		c0.9-1.2,2-2.9,3.3-5.1c0.8-1.3,1.3-2.2,1.5-2.8c0.1-0.3,0.1-0.5,0.1-0.8c0-0.2-0.1-0.3-0.2-0.4c-0.1-0.1-0.4-0.3-0.9-0.4
		c-0.5-0.2-0.9-0.4-1.2-0.9c-0.3-0.4-0.5-0.9-0.5-1.4c0-0.7,0.2-1.2,0.6-1.6c0.4-0.4,0.9-0.6,1.5-0.6c0.7,0,1.3,0.3,1.8,0.9
		c0.5,0.6,0.8,1.4,0.8,2.5c0,1.3-0.4,2.8-1.3,4.4c-0.9,1.7-2.6,4.2-5.1,7.7c-2.5,3.4-5.6,7.2-9.2,11.3c-2.5,2.8-4.3,4.6-5.5,5.3
		c-1.2,0.7-2.2,1.1-3.1,1.1c-0.5,0-1-0.2-1.3-0.6c-0.4-0.4-0.6-0.8-0.6-1.3c0-0.6,0.3-1.2,0.8-1.7c0.5-0.5,1.1-0.8,1.7-0.8
		c0.3,0,0.6,0.1,0.8,0.2c0.1,0.1,0.3,0.3,0.4,0.7c0.2,0.4,0.3,0.6,0.4,0.8c0.1,0.1,0.2,0.1,0.3,0.1c0.1,0,0.3-0.1,0.5-0.2
		c0.9-0.6,1.9-1.4,3.1-2.7c1.6-1.6,2.7-2.9,3.5-3.9l-1.4-15.6c-0.2-2.6-0.6-4.1-1-4.7c-0.5-0.6-1.2-0.8-2.3-0.8c-0.3,0-1,0-1.8,0.2
		l-0.2-0.9L198,562.7z"/>
	<path class="st0" d="M235.6,570.4c0,2.5-0.7,4.9-2,7.3c-1.3,2.4-3.1,4.3-5.4,5.7c-2.3,1.4-4.6,2.1-6.8,2.1c-2.2,0-4.1-0.7-5.5-2.2
		c-1.4-1.4-2.1-3.3-2.1-5.6c0-2.4,0.7-4.8,2.1-7.2c1.4-2.4,3.2-4.3,5.6-5.8c2.3-1.4,4.6-2.1,6.7-2.1c2.2,0,3.9,0.7,5.3,2.1
		C234.9,566.3,235.6,568.1,235.6,570.4 M231.5,568.7c0-1.5-0.4-2.7-1.1-3.5c-0.7-0.8-1.7-1.2-2.9-1.2c-2.4,0-4.6,1.7-6.6,5.2
		c-2,3.4-3,6.9-3,10.3c0,1.6,0.4,2.8,1.2,3.6c0.8,0.8,1.8,1.3,3,1.3c2.3,0,4.5-1.7,6.5-5.1C230.5,575.8,231.5,572.3,231.5,568.7"/>
	<path class="st0" d="M261.2,563.3l-4.3,14.6c-0.6,2.2-1,3.6-1,4.1c0,0.3,0.1,0.5,0.2,0.6c0.1,0.1,0.2,0.2,0.4,0.2
		c0.3,0,0.6-0.1,0.9-0.4c0.3-0.2,1.2-1.3,2.5-3l0.7,0.6c-1.3,2-2.6,3.6-4,4.5c-0.9,0.6-1.8,0.9-2.6,0.9c-0.6,0-1.1-0.2-1.5-0.5
		c-0.4-0.4-0.5-0.8-0.5-1.4c0-0.6,0.1-1.3,0.3-2.2c0.3-1.2,1-3.9,2.2-7.9c-2.8,4.6-5.1,7.7-7,9.5c-1.9,1.7-3.6,2.6-5.2,2.6
		c-0.8,0-1.4-0.3-1.9-0.8c-0.5-0.5-0.8-1.2-0.8-2c0-1.2,0.4-3.1,1.1-5.7l2.1-7.6c0.5-1.8,0.8-3,0.8-3.4c0-0.2-0.1-0.4-0.2-0.5
		c-0.1-0.1-0.3-0.2-0.5-0.2c-0.3,0-0.7,0.1-1,0.4c-0.3,0.3-1.1,1.2-2.3,2.7L239,568c1.2-1.9,2.5-3.3,3.9-4.2c1-0.7,2-1.1,2.9-1.1
		c0.6,0,1.1,0.2,1.5,0.6c0.4,0.4,0.6,0.9,0.6,1.5c0,0.9-0.3,2.5-1,4.7l-2.3,7.9c-0.6,2.2-1,3.5-1,4.1c0,0.3,0.1,0.6,0.3,0.7
		c0.2,0.2,0.5,0.3,0.8,0.3c0.5,0,1.2-0.3,2.1-0.8c0.9-0.5,2-1.7,3.5-3.6c1.5-1.9,2.6-3.6,3.6-5.2c0.9-1.6,1.9-4.2,3-7.8l0.5-1.9
		H261.2z"/>
	<path class="st0" d="M288.9,564.3l-0.7,2.6H284c0.3,0.9,0.5,1.7,0.5,2.5c0,2.2-0.9,4.1-2.8,5.8c-1.9,1.7-4.4,2.6-7.6,2.8
		c-1.7,0.5-3,1.1-3.9,1.9c-0.3,0.3-0.5,0.5-0.5,0.8c0,0.3,0.1,0.6,0.4,0.9c0.3,0.3,1,0.5,2.2,0.8l4.8,1.1c2.6,0.6,4.4,1.4,5.2,2.2
		c0.8,0.9,1.3,1.9,1.3,3c0,1.3-0.5,2.6-1.5,3.7c-1,1.1-2.4,2-4.3,2.6c-1.9,0.6-4,0.9-6.3,0.9c-2,0-3.9-0.2-5.6-0.7
		c-1.7-0.5-2.9-1.1-3.6-2c-0.7-0.8-1.1-1.7-1.1-2.5c0-0.7,0.2-1.4,0.7-2.2c0.5-0.8,1.1-1.4,1.8-1.9c0.4-0.3,1.7-1,3.8-2.2
		c-0.8-0.6-1.1-1.2-1.1-1.9c0-0.7,0.3-1.3,1-2.1c0.7-0.7,2.1-1.5,4.2-2.4c-1.8-0.3-3.2-1.1-4.3-2.3c-1.1-1.2-1.6-2.5-1.6-3.9
		c0-2.3,1-4.4,3.1-6.2c2-1.8,4.8-2.8,8.1-2.8c1.2,0,2.2,0.1,3,0.4c0.8,0.2,1.5,0.6,2.3,1.2H288.9z M268.6,585
		c-1.3,0.6-2.3,1.4-3,2.3c-0.7,0.9-1,1.9-1,2.8c0,1.1,0.5,2,1.5,2.7c1.4,1,3.5,1.5,6.2,1.5c2.3,0,4.3-0.4,6-1.2
		c1.7-0.8,2.5-1.8,2.5-3.1c0-0.6-0.3-1.2-0.9-1.8c-0.6-0.6-1.8-1-3.6-1.4C275.2,586.6,272.7,586,268.6,585 M280.3,568.1
		c0-1.3-0.4-2.3-1.1-3.1c-0.7-0.8-1.7-1.1-2.9-1.1c-1.9,0-3.4,0.9-4.6,2.8c-1.2,1.9-1.8,3.8-1.8,5.8c0,1.3,0.4,2.3,1.2,3.1
		c0.8,0.8,1.7,1.2,2.8,1.2c0.9,0,1.7-0.2,2.5-0.7c0.8-0.5,1.5-1.1,2.1-2c0.6-0.8,1-1.9,1.3-3.2C280.2,569.6,280.3,568.7,280.3,568.1
		"/>
	<path class="st0" d="M302.8,550l-8.4,29.2c-0.4,1.5-0.6,2.3-0.6,2.7c0,0.2,0.1,0.5,0.2,0.6c0.2,0.2,0.3,0.2,0.6,0.2
		c0.3,0,0.6-0.1,1-0.4c0.9-0.7,1.7-1.7,2.7-3.1l0.7,0.8c-1.6,2.2-3,3.7-4.3,4.6c-1,0.6-1.9,0.9-2.8,0.9c-0.6,0-1.1-0.2-1.6-0.6
		c-0.4-0.4-0.6-0.9-0.6-1.5c0-0.6,0.3-1.8,0.8-3.6l6.7-23c0.5-1.9,0.8-3,0.8-3.2c0-0.4-0.2-0.7-0.5-1c-0.3-0.3-0.8-0.4-1.4-0.4
		c-0.4,0-1,0.1-1.7,0.2v-0.9L302.8,550z"/>
	<path class="st0" d="M325,570.4c0,2.5-0.7,4.9-2,7.3c-1.3,2.4-3.1,4.3-5.4,5.7c-2.3,1.4-4.6,2.1-6.8,2.1c-2.2,0-4.1-0.7-5.5-2.2
		c-1.4-1.4-2.1-3.3-2.1-5.6c0-2.4,0.7-4.8,2.1-7.2c1.4-2.4,3.2-4.3,5.6-5.8c2.3-1.4,4.6-2.1,6.7-2.1c2.2,0,3.9,0.7,5.3,2.1
		C324.3,566.3,325,568.1,325,570.4 M321,568.7c0-1.5-0.4-2.7-1.1-3.5c-0.7-0.8-1.7-1.2-2.9-1.2c-2.4,0-4.6,1.7-6.6,5.2
		c-2,3.4-3,6.9-3,10.3c0,1.6,0.4,2.8,1.2,3.6c0.8,0.8,1.8,1.3,3,1.3c2.3,0,4.5-1.7,6.5-5.1C320,575.8,321,572.3,321,568.7"/>
	<path class="st0" d="M341.5,550l-4.8,17c1.6-1.6,2.9-2.8,4.1-3.4c1.2-0.6,2.4-0.9,3.7-0.9c1.8,0,3.3,0.6,4.4,1.8
		c1.1,1.2,1.7,2.8,1.7,4.9c0,2.6-0.8,5.3-2.3,7.9c-1.5,2.6-3.4,4.6-5.7,6.1c-2.3,1.5-4.5,2.2-6.7,2.2c-2.5,0-5-0.9-7.6-2.8l7.5-25.7
		c0.6-2,0.9-3.1,0.9-3.5c0-0.4-0.1-0.7-0.4-1c-0.4-0.3-0.9-0.4-1.7-0.4c-0.3,0-0.9,0.1-1.6,0.2v-0.9L341.5,550z M331.9,583.1
		c1.6,0.9,3.1,1.4,4.3,1.4c1.4,0,2.9-0.5,4.5-1.6c1.5-1.1,2.9-2.8,4-5.3c1.1-2.5,1.7-5,1.7-7.6c0-1.5-0.4-2.7-1.1-3.5
		c-0.7-0.9-1.6-1.3-2.6-1.3c-1.5,0-3,0.6-4.5,1.8c-1.5,1.2-2.5,2.9-3.1,5.1L331.9,583.1z"/>
	<path class="st0" d="M375.7,562.7l-4.8,16.7l-0.5,2.2c0,0.2-0.1,0.4-0.1,0.5c0,0.3,0.1,0.5,0.2,0.7c0.1,0.1,0.3,0.2,0.5,0.2
		c0.2,0,0.5-0.1,0.8-0.4c0.6-0.5,1.5-1.5,2.6-2.9l0.8,0.6c-1.1,1.7-2.3,3-3.5,3.9c-1.2,0.9-2.3,1.3-3.3,1.3c-0.7,0-1.2-0.2-1.6-0.5
		c-0.4-0.4-0.5-0.9-0.5-1.5c0-0.8,0.2-1.9,0.5-3.2l0.5-1.8c-2.1,2.8-4.1,4.8-5.9,5.9c-1.3,0.8-2.6,1.2-3.8,1.2
		c-1.2,0-2.2-0.5-3.1-1.5c-0.9-1-1.3-2.4-1.3-4.1c0-2.6,0.8-5.4,2.3-8.2c1.6-2.9,3.5-5.2,6-6.9c1.9-1.4,3.7-2.1,5.3-2.1
		c1,0,1.8,0.3,2.5,0.8s1.2,1.4,1.5,2.6l0.9-2.8L375.7,562.7z M367,564c-1,0-2.2,0.5-3.3,1.5c-1.7,1.4-3.2,3.5-4.5,6.2
		c-1.3,2.7-2,5.2-2,7.4c0,1.1,0.3,2,0.8,2.6c0.6,0.6,1.2,1,1.9,1c1.8,0,3.7-1.3,5.8-4c2.8-3.5,4.2-7.1,4.2-10.8c0-1.4-0.3-2.4-0.8-3
		C368.6,564.3,367.9,564,367,564"/>
	<path class="st0" d="M392.2,550l-8.4,29.2c-0.4,1.5-0.6,2.3-0.6,2.7c0,0.2,0.1,0.5,0.2,0.6c0.2,0.2,0.3,0.2,0.6,0.2
		c0.3,0,0.6-0.1,1-0.4c0.9-0.7,1.7-1.7,2.7-3.1l0.7,0.8c-1.6,2.2-3,3.7-4.3,4.6c-1,0.6-1.9,0.9-2.8,0.9c-0.6,0-1.1-0.2-1.6-0.6
		c-0.4-0.4-0.6-0.9-0.6-1.5c0-0.6,0.3-1.8,0.8-3.6l6.7-23c0.5-1.9,0.8-3,0.8-3.2c0-0.4-0.2-0.7-0.5-1c-0.3-0.3-0.8-0.4-1.4-0.4
		c-0.4,0-1,0.1-1.7,0.2v-0.9L392.2,550z"/>
	<polygon class="st1" points="23.6,471.2 11.8,408.6 0,408.6 15.5,490.7 30.9,490.7 46.2,408.6 35.2,408.6 	"/>
	<rect x="106.4" y="408.6" class="st1" width="11.7" height="82.1"/>
	<rect x="285.2" y="408.6" class="st1" width="11.7" height="82.1"/>
	<polygon class="st1" points="371.3,408.6 359.6,408.6 359.6,490.7 393.9,490.7 393.9,479.8 371.3,479.8 	"/>
	<polygon class="st1" points="194,408.6 178.3,490.7 189.1,490.7 201.1,427.5 213.5,490.7 224.9,490.7 209.1,408.6 	"/>
	<polygon class="st1" points="482.6,408.6 467.4,408.6 451.7,490.7 462.6,490.7 474.5,427.5 486.9,490.7 498.3,490.7 	"/>
	<path class="st2" d="M385.5,46L404,0h-97.4l-59.3,165.2C298.3,131.2,344.4,90.2,385.5,46"/>
	<path class="st2" d="M235.5,198.2c46.5-27.4,89.2-60.8,128-97.5l7-17.3c-39.6,39.1-83.4,74.9-131.3,104.5L235.5,198.2z"/>
	<path class="st2" d="M182.9,300.2l8.9,22.2h82.3l17-42.1C238.7,307.4,203.1,313.9,182.9,300.2"/>
	<path class="st2" d="M191.4,83.3H94.3l55.3,134.2c1.2-0.4,2.6-0.9,4-1.5c0.1,0,0.2-0.1,0.4-0.1c0,0,0,0,0,0c1.3-0.5,2.6-1,3.9-1.5
		c0,0,0,0,0,0c0.7-0.3,1.4-0.6,2.1-0.9c0.6-0.3,1.2-0.5,1.8-0.7c0.8-0.4,1.7-0.7,2.5-1.1c0,0,0,0,0,0c2.4-1,4-1.7,4-1.7
		c10.3-4.7,21.5-10.2,33.5-16.8c8.1-4.4,16-9.1,23.8-13.9L191.4,83.3z"/>
	<path class="st2" d="M230.9,217.4c-24.8,13.7-51.1,24.6-69.3,30l2,4.9c19.3-4.8,46.5-15.8,74.6-31.3
		c37.9-20.9,73.3-45.7,106.2-73.3l6-15C313.8,164.8,274,193.7,230.9,217.4"/>
	<path class="st2" d="M174.4,279l1.2,3.1c22.2,2.3,55-8.7,99.2-33c13-7.1,25.6-14.8,38-22.8l4.7-11.7c-16.2,11-32.9,21.3-50.1,30.8
		C227.9,267.2,197,278.3,174.4,279"/>
	<path class="st2" d="M179.7,292.3c21.4,10.7,58.6,1,113.5-29.2c2.1-1.2,4.3-2.4,6.4-3.6l4.2-10.4c-5.9,3.5-11.9,7-17.9,10.3
		c-47.9,26.4-82.9,37.1-106.2,32.7L179.7,292.3L179.7,292.3z"/>
	<path class="st2" d="M168.2,263.8l1.7,4.3c21.4-2,50.1-12.9,86.6-33c24.8-13.7,48.5-29.1,71.2-45.8l5.3-13.2
		c-26.5,20.4-54.4,39-83.9,55.3C216.2,249.6,189.4,260.3,168.2,263.8"/>
	<path class="st2" d="M166.9,260.3C166.9,260.4,166.9,260.4,166.9,260.3L166.9,260.3l0,0.2C166.9,260.5,166.9,260.4,166.9,260.3"/>
	<path class="st2" d="M156.8,235.4C156.8,235.3,156.8,235.3,156.8,235.4L156.8,235.4L156.8,235.4z"/>
	<path class="st2" d="M156.8,235.3c2.5-0.7,6.4-2,9.4-3.1c0,0,0,0,0,0c0.5-0.2,1-0.4,1.5-0.6c1.9-0.7,3.3-1.2,3.3-1.2v0
		c14.4-5.5,30.7-13.2,49-23.3c4.3-2.4,8.6-4.8,12.9-7.3l-2.4-6.6c-5.9,3.5-11.8,7-17.9,10.3c-16.1,8.9-30.7,15.9-44,21.3
		c-4.5,1.8-14,5.4-14,5.4l0,0L156.8,235.3z"/>
	<path class="st2" d="M179.7,292.2l-0.1-0.1L179.7,292.2z"/>
	<path class="st2" d="M179.7,292.2l-0.1-0.1L179.7,292.2z"/>
	<path class="st2" d="M170.1,285.1C170.1,285,170.1,285,170.1,285.1C170.1,285,170,285,170.1,285.1C170.1,285,170.1,285,170.1,285.1
		"/>
	<path class="st2" d="M170.1,285.1C170.1,285,170.1,285,170.1,285.1C170.1,285,170,285,170.1,285.1C170.1,285,170.1,285,170.1,285.1
		"/>
	<path class="st2" d="M170,285C170,285,170.1,285,170,285c0-0.1-0.1-0.2-0.2-0.3C169.9,284.8,169.9,284.9,170,285
		C170,285,170,285,170,285"/>
	<path class="st2" d="M170,285C170,285,170.1,285,170,285c0-0.1-0.1-0.2-0.2-0.3C169.9,284.8,169.9,284.9,170,285
		C170,285,170,285,170,285"/>
	<path class="st2" d="M169.9,285C170,285,170,285,169.9,285C170,285,170,285,169.9,285C169.9,285,169.9,285,169.9,285"/>
	<path class="st2" d="M169.9,285C170,285,170,285,169.9,285C170,285,170,285,169.9,285C169.9,285,169.9,285,169.9,285"/>
	<path class="st2" d="M166.9,260.5L166.9,260.5L166.9,260.5z"/>
	<path class="st2" d="M166.9,260.5L166.9,260.5L166.9,260.5z"/>
	<path class="st2" d="M154.7,230.1L154.7,230.1L154.7,230.1z"/>
	<path class="st2" d="M154.7,230.1L154.7,230.1L154.7,230.1z"/>
</g>
</svg>
