<?xml version="1.0" encoding="utf-8"?>
<!-- Generator: Adobe Illustrator 24.0.0, SVG Export Plug-In . SVG Version: 6.00 Build 0)  -->
<svg version="1.1" id="Слой_1" xmlns="http://www.w3.org/2000/svg" xmlns:xlink="http://www.w3.org/1999/xlink" x="0px" y="0px"
	 viewBox="0 0 79.9 74.1" style="enable-background:new 0 0 79.9 74.1;" xml:space="preserve">
<g>
	<rect x="31.9" y="10.6" transform="matrix(0.7071 -0.7071 0.7071 0.7071 1.6106 26.1491)" width="1" height="1"/>
	<rect x="42.3" y="72.9" transform="matrix(0.7032 -0.711 0.711 0.7032 -39.4982 52.2376)" width="1" height="1"/>
	<path d="M79.2,36.4L43.5,0.7L42.8,0l-0.7,0.7l-9.7,9.7l0.7,0.7l-0.7,0.7L49.6,29H1H0l0,1l0,14.2l1,0v0l-1,0l0,1h1h48.6L32.4,62.4
		l0.7,0.7v0l-0.7-0.7l-0.7,0.7l0.7,0.7l9.7,9.6l0.7-0.7l0.7,0.7l35.6-35.6l0.7-0.7L79.2,36.4z M42.8,71.3l-8.3-8.2l18.2-18.2
		l1.7-1.7h-2.4H2L2,31h50h2.4l-1.7-1.7L34.5,11.1l8.3-8.3L77,37.1L42.8,71.3z"/>
</g>
</svg>
