<?xml version="1.0" encoding="utf-8"?>
<!-- Generator: Adobe Illustrator 24.0.0, SVG Export Plug-In . SVG Version: 6.00 Build 0)  -->
<svg version="1.1" id="Слой_1" xmlns="http://www.w3.org/2000/svg" xmlns:xlink="http://www.w3.org/1999/xlink" x="0px" y="0px"
	 viewBox="0 0 18 18" style="enable-background:new 0 0 18 18;" xml:space="preserve">
<path d="M9,4.3C6.4,4.3,4.3,6.4,4.3,9c0,2.6,2.1,4.7,4.7,4.7c2.6,0,4.7-2.1,4.7-4.7C13.7,6.4,11.6,4.3,9,4.3z M9,12.1
	c-1.7,0-3.1-1.4-3.1-3.1c0-1.7,1.4-3.1,3.1-3.1c1.7,0,3.1,1.4,3.1,3.1C12.1,10.7,10.7,12.1,9,12.1z"/>
<path d="M12.7,0.1C11.1,0,7,0,5.3,0.1C3.8,0.1,2.6,0.5,1.5,1.5C-0.2,3.2,0,5.6,0,9c0,3.5-0.2,5.8,1.5,7.5C3.3,18.2,5.6,18,9,18
	c3.5,0,4.7,0,5.9-0.5c1.7-0.6,2.9-2.1,3-4.8c0.1-1.7,0.1-5.8,0-7.4C17.8,2.1,16.1,0.2,12.7,0.1z M15.3,15.3c-1.1,1.1-2.7,1-6.4,1
	c-3.7,0-5.3,0.1-6.4-1c-1.3-1.3-1-3.3-1-6.3c0-4.1-0.4-7.1,3.7-7.3c1,0,1.2,0,3.6,0l0,0c4,0,7.1-0.4,7.3,3.7c0,0.9,0.1,1.2,0.1,3.6
	C16.4,12.7,16.4,14.2,15.3,15.3z"/>
<path d="M13.8,5.2c0.6,0,1-0.5,1-1s-0.5-1-1-1c-0.6,0-1,0.5-1,1S13.3,5.2,13.8,5.2z"/>
</svg>
