<?xml version="1.0" standalone="no"?>
<!DOCTYPE svg PUBLIC "-//W3C//DTD SVG 1.1//EN" "http://www.w3.org/Graphics/SVG/1.1/DTD/svg11.dtd" >
<svg>
<metadata>
Created by FontForge 20090914 at Wed Sep  4 08:01:51 2019
 By www-data
Copyright (c) 2018 by TypeType. Designers Ivan Gladkikh, Pavel Emelyanov. Technical designers Marina Khodak, Vika Usmanova, Nadyr Rakhimov. All rights reserved.
</metadata>
<defs>
<font id="TTCommons-ExtraBold" horiz-adv-x="530" >
  <font-face 
    font-family="TT Commons ExtraBold"
    font-weight="800"
    font-stretch="normal"
    units-per-em="1000"
    panose-1="2 0 9 3 3 0 0 2 0 4"
    ascent="700"
    descent="-300"
    x-height="459.999"
    cap-height="630"
    bbox="-190 -300.003 1438 870"
    underline-thickness="50"
    underline-position="-100"
    unicode-range="U+000D-U+FB06"
  />
<missing-glyph horiz-adv-x="0" 
 />
    <glyph glyph-name="ff" unicode="ff" horiz-adv-x="630" 
d="M605 290l-90 -0.00195312v-290h-160v290h-125v-290h-160v290h-55v145h55v10c0 58 15.333 102.5 46 133.5s73.667 46.5 129 46.5c10 0 19.333 -0.833008 28 -2.5s16.667 -3.5 24 -5.5c8 -2.66699 15.667 -5 23 -7v-140l-10 2c-3.33301 0.666992 -7 1.33398 -11 2.00098
s-8.66699 1 -14 1c-11.333 0 -20.5 -2 -27.5 -6s-12.5 -8.66699 -16.5 -14c-4.66699 -6 -8.33398 -12.667 -11.001 -20h125v30c0 58 15.333 102.5 46 133.5s73.667 46.5 129 46.5c10 0 19.333 -0.833008 28 -2.5s16.667 -3.5 24 -5.5c8 -2.66699 15.667 -5 23 -7v-140l-10 2
c-3.33301 0.666992 -7 1.33398 -11 2.00098s-8.66699 1 -14 1c-15.333 0 -27.666 -5 -36.999 -15s-15 -25 -17 -45h89v-145z" />
    <glyph glyph-name="uniFB01" unicode="fi" horiz-adv-x="560" 
d="M355 290l-125.001 -0.000976562v-290h-160v290h-55v145h55v30c0 58 15.333 102.5 46 133.5s73.667 46.5 129 46.5c10 0 19.333 -0.833008 28 -2.5s16.667 -3.5 24 -5.5c8 -2.66699 15.667 -5 23 -7v-140l-10 2c-3.33301 0.666992 -7 1.33398 -11 2.00098
s-8.66699 1 -14 1c-15.333 0 -27.666 -5 -36.999 -15s-15 -25 -17 -45h284v-435h-160v290zM349.999 559.999c0 22.667 7.83301 41.667 23.5 57s36.167 23 61.5 23s45.833 -7.66699 61.5 -23s23.5 -34.333 23.5 -57s-7.83301 -41.667 -23.5 -57s-36.167 -23 -61.5 -23
s-45.833 7.66699 -61.5 23s-23.5 34.333 -23.5 57z" />
    <glyph glyph-name="uniFB02" unicode="fl" horiz-adv-x="560" 
d="M305 505c-20 0 -36.833 -6.66699 -50.5 -20s-21.5 -30 -23.5 -50h89v-145h-90v-290h-160v290h-55v145h55v30c0 28.667 5.5 54.667 16.5 78s25.833 43.333 44.5 60s40.5 29.5 65.5 38.5s51.167 13.5 78.5 13.5c20 0 38 -1.33301 54 -4s29.667 -5.66699 41 -9
c13.333 -3.33301 25.333 -7.33301 36 -12h109v-630h-160v495l-12 5c-4 1.33301 -9.16699 2.5 -15.5 3.5s-13.833 1.5 -22.5 1.5z" />
    <glyph glyph-name="ffi" unicode="ffi" horiz-adv-x="845" 
d="M640 290l-125 -0.00195312v-290h-160v290h-125v-290h-160v290h-55v145h55v10c0 58 15.333 102.5 46 133.5s73.667 46.5 129 46.5c10 0 19.333 -0.833008 28 -2.5s16.667 -3.5 24 -5.5c8 -2.66699 15.667 -5 23 -7v-140l-10 2c-3.33301 0.666992 -7 1.33398 -11 2.00098
s-8.66699 1 -14 1c-11.333 0 -20.5 -2 -27.5 -6s-12.5 -8.66699 -16.5 -14c-4.66699 -6 -8.33398 -12.667 -11.001 -20h125v30c0 58 15.333 102.5 46 133.5s73.667 46.5 129 46.5c10 0 19.333 -0.833008 28 -2.5s16.667 -3.5 24 -5.5c8 -2.66699 15.667 -5 23 -7v-140l-10 2
c-3.33301 0.666992 -7 1.33398 -11 2.00098s-8.66699 1 -14 1c-15.333 0 -27.666 -5 -36.999 -15s-15 -25 -17 -45h284v-435h-160v290zM635 559.998c0 22.667 7.83301 41.667 23.5 57s36.167 23 61.5 23s45.833 -7.66699 61.5 -23s23.5 -34.333 23.5 -57
s-7.83301 -41.667 -23.5 -57s-36.167 -23 -61.5 -23s-45.833 7.66699 -61.5 23s-23.5 34.333 -23.5 57z" />
    <glyph glyph-name="ffl" unicode="ffl" horiz-adv-x="845" 
d="M590 505c-20 0 -36.832 -6.66797 -50.499 -20.001s-21.5 -30 -23.5 -50h89v-145h-90v-290h-160v290h-125v-290h-160v290h-55v145h55v10c0 58 15.333 102.5 46 133.5s73.667 46.5 129 46.5c10 0 19.333 -0.833008 28 -2.5s16.667 -3.5 24 -5.5c8 -2.66699 15.667 -5 23 -7
v-140l-10 2c-3.33301 0.666992 -7 1.33398 -11 2.00098s-8.66699 1 -14 1c-11.333 0 -20.5 -2 -27.5 -6s-12.5 -8.66699 -16.5 -14c-4.66699 -6 -8.33398 -12.667 -11.001 -20h125v30c0 28.667 5.5 54.667 16.5 78s25.833 43.333 44.5 60s40.5 29.5 65.5 38.5
s51.167 13.5 78.5 13.5c20 0 38 -1.33301 54 -4s29.667 -5.66699 41 -9c13.333 -3.33301 25.333 -7.33301 36 -12h109v-630h-160v495l-12 5c-4 1.33301 -9.16699 2.5 -15.5 3.5s-13.833 1.5 -22.5 1.5z" />
    <glyph glyph-name="f_f_j" unicode="ffj" horiz-adv-x="845" 
d="M800 10c0 -58 -15.332 -102.503 -45.999 -133.503s-73.667 -46.5 -129 -46.5c-10 0 -19.5 0.666992 -28.5 2s-17.167 3 -24.5 5c-8 2.66699 -15.333 5.33398 -22 8.00098v140c3.33301 -1.33301 6.66602 -2.33301 9.99902 -3s7 -1.16699 11 -1.5s8.66699 -0.5 14 -0.5
c15.333 0 28.333 5.83301 39 17.5s16 27.5 16 47.5v245h-125v-290h-160v290h-125v-290h-160v290h-55v145h55v10c0 58 15.333 102.5 46 133.5s73.667 46.5 129 46.5c10 0 19.333 -0.833008 28 -2.5s16.667 -3.5 24 -5.5c8 -2.66699 15.667 -5 23 -7v-140l-10 2
c-3.33301 0.666992 -7 1.33398 -11 2.00098s-8.66699 1 -14 1c-11.333 0 -20.5 -2 -27.5 -6s-12.5 -8.66699 -16.5 -14c-4.66699 -6 -8.33398 -12.667 -11.001 -20h125v30c0 58 15.333 102.5 46 133.5s73.667 46.5 129 46.5c10 0 19.333 -0.833008 28 -2.5
s16.667 -3.5 24 -5.5c8 -2.66699 15.667 -5 23 -7v-140l-10 2c-3.33301 0.666992 -7 1.33398 -11 2.00098s-8.66699 1 -14 1c-15.333 0 -27.666 -5 -36.999 -15s-15 -25 -17 -45h284v-425zM805.001 559.997c0 -22.667 -7.83301 -41.667 -23.5 -57s-36.167 -23 -61.5 -23
s-45.833 7.66699 -61.5 23s-23.5 34.333 -23.5 57s7.83301 41.667 23.5 57s36.167 23 61.5 23s45.833 -7.66699 61.5 -23s23.5 -34.333 23.5 -57z" />
    <glyph glyph-name="f_j" unicode="fj" horiz-adv-x="560" 
d="M515 10c0 -58 -15.333 -102.502 -46 -133.502s-73.667 -46.5 -129 -46.5c-10 0 -19.5 0.666992 -28.5 2s-17.167 3 -24.5 5c-8 2.66699 -15.333 5.33398 -22 8.00098v140c3.33301 -1.33301 6.66602 -2.33301 9.99902 -3s7 -1.16699 11 -1.5s8.66699 -0.5 14 -0.5
c15.333 0 28.333 5.83301 39 17.5s16 27.5 16 47.5v245h-125v-290h-160v290h-55v145h55v30c0 58 15.333 102.5 46 133.5s73.667 46.5 129 46.5c10 0 19.333 -0.833008 28 -2.5s16.667 -3.5 24 -5.5c8 -2.66699 15.667 -5 23 -7v-140l-10 2
c-3.33301 0.666992 -7 1.33398 -11 2.00098s-8.66699 1 -14 1c-15.333 0 -27.666 -5 -36.999 -15s-15 -25 -17 -45h284v-425zM520 559.998c0 -22.667 -7.83301 -41.667 -23.5 -57s-36.167 -23 -61.5 -23s-45.833 7.66699 -61.5 23s-23.5 34.333 -23.5 57
s7.83301 41.667 23.5 57s36.167 23 61.5 23s45.833 -7.66699 61.5 -23s23.5 -34.333 23.5 -57z" />
    <glyph glyph-name="f_t" unicode="ft" horiz-adv-x="655" 
d="M355 290l-125 -0.000976562v-290h-160v290h-55v145h55v30c0 58 15.333 102.5 46 133.5s73.667 46.5 129 46.5c10 0 19.333 -0.833008 28 -2.5s16.667 -3.5 24 -5.5c8 -2.66699 15.667 -5 23 -7v-140l-10 2c-3.33301 0.666992 -7 1.33398 -11 2.00098s-8.66699 1 -14 1
c-15.333 0 -27.666 -5 -36.999 -15s-15 -25 -17 -45h89c36.667 0 55 18.333 55 55v65h140v-110h95v-145h-95v-110c0 -20 5.33301 -35.833 16 -47.5s23.667 -17.5 39 -17.5c5.33301 0 10 0.166992 14 0.5s7.66699 0.833008 11 1.5s6.66602 1.66699 9.99902 3v-140l-23 -8
c-7.33301 -2 -15.333 -3.66699 -24 -5s-18 -2 -28 -2c-55.333 0 -98.333 15.5 -129 46.5s-46 75.5 -46 133.5v135z" />
    <glyph glyph-name="f_h" unicode="fh" horiz-adv-x="855" 
d="M630 470c27.333 0 52.334 -4.5 75.001 -13.5s42.167 -22.167 58.5 -39.5s29 -38.333 38 -63s13.5 -52.667 13.5 -84v-270h-160v240c0 25.333 -6.66699 45 -20 59s-30 21 -50 21s-36.667 -7 -50 -21s-20 -33.667 -20 -59v-240h-160v495l-12 5
c-4 1.33301 -9.16699 2.5 -15.5 3.5s-13.833 1.5 -22.5 1.5c-20 0 -36.833 -6.66699 -50.5 -20s-21.5 -30 -23.5 -50h89v-145h-90v-290h-160v290h-55v145h55v30c0 28.667 5.5 54.667 16.5 78s25.833 43.333 44.5 60s40.5 29.5 65.5 38.5s51.167 13.5 78.5 13.5
c20 0 38 -1.33301 54 -4s29.667 -5.66699 41 -9c13.333 -3.33301 25.333 -7.33301 36 -12h109v-205c8.66699 8 19 15.333 31 22c10 5.33301 22.167 10.5 36.5 15.5s30.166 7.5 47.499 7.5z" />
    <glyph glyph-name="f_k" unicode="fk" horiz-adv-x="810" 
d="M635 0l-120 195v-195h-160v495l-12 5c-4 1.33301 -9.16699 2.5 -15.5 3.5s-13.833 1.5 -22.5 1.5c-20 0 -36.833 -6.66699 -50.5 -20s-21.5 -30 -23.5 -50h89v-145h-90v-290h-160v290h-55v145h55v30c0 28.667 5.5 54.667 16.5 78s25.833 43.333 44.5 60
s40.5 29.5 65.5 38.5s51.167 13.5 78.5 13.5c20 0 38 -1.33301 54 -4s29.667 -5.66699 41 -9c13.333 -3.33301 25.333 -7.33301 36 -12h109v-350l105 180h180l-140 -220l155 -240h-180z" />
    <glyph glyph-name="f_b" unicode="fb" horiz-adv-x="865" 
d="M630 -10c-20 0 -38.332 2.66797 -54.999 8.00098s-31 11.666 -43 18.999c-14 8 -26.333 17.333 -37 28l-25 -45h-115v495l-12 5c-4 1.33301 -9.16699 2.5 -15.5 3.5s-13.833 1.5 -22.5 1.5c-20 0 -36.833 -6.66699 -50.5 -20s-21.5 -30 -23.5 -50h89v-145h-90v-290h-160
v290h-55v145h55v30c0 28.667 5.5 54.667 16.5 78s25.833 43.333 44.5 60s40.5 29.5 65.5 38.5s51.167 13.5 78.5 13.5c20 0 38 -1.33301 54 -4s29.667 -5.66699 41 -9c13.333 -3.33301 25.333 -7.33301 36 -12h109v-200c8.66699 7.33301 19 14 31 20
c10 5.33301 22.167 10 36.5 14s30.166 6 47.499 6c26 0 51.667 -6.16699 77 -18.5s47.833 -29.333 67.5 -51s35.5 -47 47.5 -76s18 -60.5 18 -94.5s-6 -65.5 -18 -94.5s-27.833 -54.333 -47.5 -76s-42.167 -38.667 -67.5 -51s-51 -18.5 -77 -18.5zM510.001 230.001
c0 -25.333 8.5 -46.666 25.5 -63.999s36.833 -26 59.5 -26s42.5 8.66699 59.5 26s25.5 38.666 25.5 63.999s-8.5 46.666 -25.5 63.999s-36.833 26 -59.5 26s-42.5 -8.66699 -59.5 -26s-25.5 -38.666 -25.5 -63.999z" />
    <glyph glyph-name="f_f_h" unicode="ffh" horiz-adv-x="1140" 
d="M590 505c-20 0 -36.8311 -6.66797 -50.498 -20.001s-21.5 -30 -23.5 -50h89v-145h-90v-290h-160v290h-125v-290h-160v290h-55v145h55v10c0 58 15.333 102.5 46 133.5s73.667 46.5 129 46.5c10 0 19.333 -0.833008 28 -2.5s16.667 -3.5 24 -5.5
c8 -2.66699 15.667 -5 23 -7v-140l-10 2c-3.33301 0.666992 -7 1.33398 -11 2.00098s-8.66699 1 -14 1c-11.333 0 -20.5 -2 -27.5 -6s-12.5 -8.66699 -16.5 -14c-4.66699 -6 -8.33398 -12.667 -11.001 -20h125v30c0 28.667 5.5 54.667 16.5 78s25.833 43.333 44.5 60
s40.5 29.5 65.5 38.5s51.167 13.5 78.5 13.5c20 0 38 -1.33301 54 -4s29.667 -5.66699 41 -9c13.333 -3.33301 25.333 -7.33301 36 -12h109v-205c8.66699 8 19 15.333 31 22c10 5.33301 22.167 10.5 36.5 15.5s30.166 7.5 47.499 7.5c27.333 0 52.333 -4.5 75 -13.5
s42.167 -22.167 58.5 -39.5s29 -38.333 38 -63s13.5 -52.667 13.5 -84v-270h-160v240c0 25.333 -6.66699 45 -20 59s-30 21 -50 21s-36.667 -7 -50 -21s-20 -33.667 -20 -59v-240h-160v495l-12 5c-4 1.33301 -9.16699 2.5 -15.5 3.5s-13.833 1.5 -22.5 1.5z" />
    <glyph glyph-name="f_f_k" unicode="ffk" horiz-adv-x="1095" 
d="M920 0l-119.999 194.999v-195h-160v495l-12 5c-4 1.33301 -9.16699 2.5 -15.5 3.5s-13.833 1.5 -22.5 1.5c-20 0 -36.833 -6.66699 -50.5 -20s-21.5 -30 -23.5 -50h89v-145h-90v-290h-160v290h-125v-290h-160v290h-55v145h55v10c0 58 15.333 102.5 46 133.5
s73.667 46.5 129 46.5c10 0 19.333 -0.833008 28 -2.5s16.667 -3.5 24 -5.5c8 -2.66699 15.667 -5 23 -7v-140l-10 2c-3.33301 0.666992 -7 1.33398 -11 2.00098s-8.66699 1 -14 1c-11.333 0 -20.5 -2 -27.5 -6s-12.5 -8.66699 -16.5 -14
c-4.66699 -6 -8.33398 -12.667 -11.001 -20h125v30c0 28.667 5.5 54.667 16.5 78s25.833 43.333 44.5 60s40.5 29.5 65.5 38.5s51.167 13.5 78.5 13.5c20 0 38 -1.33301 54 -4s29.667 -5.66699 41 -9c13.333 -3.33301 25.333 -7.33301 36 -12h109v-350l105 180h180
l-140 -220l155 -240h-180z" />
    <glyph glyph-name="f_f_b" unicode="ffb" horiz-adv-x="1150" 
d="M590 505c-20 0 -36.8311 -6.66699 -50.498 -20s-21.5 -30 -23.5 -50h89v-145h-90v-290h-160v290h-125v-290h-160v290h-55v145h55v10c0 58 15.333 102.5 46 133.5s73.667 46.5 129 46.5c10 0 19.333 -0.833008 28 -2.5s16.667 -3.5 24 -5.5c8 -2.66699 15.667 -5 23 -7
v-140l-10 2c-3.33301 0.666992 -7 1.33398 -11 2.00098s-8.66699 1 -14 1c-11.333 0 -20.5 -2 -27.5 -6s-12.5 -8.66699 -16.5 -14c-4.66699 -6 -8.33398 -12.667 -11.001 -20h125v30c0 28.667 5.5 54.667 16.5 78s25.833 43.333 44.5 60s40.5 29.5 65.5 38.5
s51.167 13.5 78.5 13.5c20 0 38 -1.33301 54 -4s29.667 -5.66699 41 -9c13.333 -3.33301 25.333 -7.33301 36 -12h109v-200c8.66699 7.33301 19 14 31 20c10 5.33301 22.167 10 36.5 14s30.166 6 47.499 6c26 0 51.667 -6.16699 77 -18.5s47.833 -29.333 67.5 -51
s35.5 -47 47.5 -76s18 -60.5 18 -94.5s-6 -65.5 -18 -94.5s-27.833 -54.333 -47.5 -76s-42.167 -38.667 -67.5 -51s-51 -18.5 -77 -18.5c-20 0 -38.333 2.66699 -55 8s-31 11.666 -43 18.999c-14 8 -26.333 17.333 -37 28l-25 -45h-115v495l-12 5
c-4 1.33301 -9.16699 2.5 -15.5 3.5s-13.833 1.5 -22.5 1.5zM795.002 230c0 -25.333 8.5 -46.666 25.5 -63.999s36.833 -26 59.5 -26s42.5 8.66699 59.5 26s25.5 38.666 25.5 63.999s-8.5 46.666 -25.5 63.999s-36.833 26 -59.5 26s-42.5 -8.66699 -59.5 -26
s-25.5 -38.666 -25.5 -63.999z" />
    <glyph glyph-name=".notdef" horiz-adv-x="0" 
 />
    <glyph glyph-name=".null" horiz-adv-x="0" 
 />
    <glyph glyph-name=".null" horiz-adv-x="0" 
 />
    <glyph glyph-name="nonmarkingreturn" unicode="&#xd;" horiz-adv-x="0" 
 />
    <glyph glyph-name="space" unicode=" " horiz-adv-x="235" 
 />
    <glyph glyph-name="exclam" unicode="!" horiz-adv-x="290" 
d="M55 630h180l-15 -425h-150zM230 75c0 -11.333 -2.33301 -22.166 -7 -32.499s-10.834 -19.333 -18.501 -27s-16.667 -13.834 -27 -18.501s-21.166 -7 -32.499 -7s-22.166 2.33301 -32.499 7s-19.333 10.834 -27 18.501s-13.834 16.667 -18.501 27s-7 21.166 -7 32.499
s2.33301 22.166 7 32.499s10.834 19.333 18.501 27s16.667 13.834 27 18.501s21.166 7 32.499 7s22.166 -2.33301 32.499 -7s19.333 -10.834 27 -18.501s13.834 -16.667 18.501 -27s7 -21.166 7 -32.499z" />
    <glyph glyph-name="quotedbl" unicode="&#x22;" horiz-adv-x="430" 
d="M190 414h-140v216h140v-216zM380 414h-140v216h140v-216z" />
    <glyph glyph-name="numbersign" unicode="#" horiz-adv-x="655" 
d="M85 490h95l30 140h135l-30 -140h90l30 140h130l-30 -140h110l-30 -125h-100l-20 -100h105l-30 -125h-95l-30 -140h-135l30 140h-90l-30 -140h-130l30 140h-110l30 125h100l20 100h-105zM270 265h95l20 100h-95z" />
    <glyph glyph-name="dollar" unicode="$" horiz-adv-x="545" 
d="M30 455c0 20.667 3.66797 40.333 11.001 59s17.833 35.834 31.5 51.501s30.334 29 50.001 40s42.167 19.167 67.5 24.5v85h160v-90c24 -6 45.5 -15.333 64.5 -28s35.167 -27.667 48.5 -45s23.666 -36.333 30.999 -57s11 -42.334 11 -65.001l-170 -15
c0 20 -6.5 35.833 -19.5 47.5s-28.167 17.5 -45.5 17.5c-15.333 0 -27.5 -4.16699 -36.5 -12.5s-13.5 -17.5 -13.5 -27.5c0 -12.667 7.33301 -22.5 22 -29.5s32.834 -13.833 54.501 -20.5l71 -22.5c25.667 -8.33301 49.334 -20 71.001 -35s39.834 -34.167 54.501 -57.5
s22 -53.333 22 -90c0 -20 -3.83301 -39.833 -11.5 -59.5s-18.834 -37.667 -33.501 -54s-32.167 -30.833 -52.5 -43.5s-42.833 -22 -67.5 -28v-85h-160v85c-52.667 12.667 -94.167 37.667 -124.5 75s-45.5 80.666 -45.5 129.999l170 15c0 -20 6.66699 -36.667 20 -50
s30 -20 50 -20c22.667 0 39.167 5 49.5 15s15.5 20 15.5 30c0 12.667 -7.33301 22.667 -22 30s-32.834 14.5 -54.501 21.5l-71 24c-25.667 9 -49.334 21 -71.001 36s-39.834 34.333 -54.501 58s-22 53.834 -22 90.501z" />
    <glyph glyph-name="percent" unicode="%" horiz-adv-x="680" 
d="M600 630l-385 -630h-135l385 630h135zM125 495c0 -12.667 4.33398 -23.334 13.001 -32.001s19.334 -13 32.001 -13c12 0 22.5 4.33301 31.5 13s13.5 19.334 13.5 32.001s-4.33301 23.334 -13 32.001s-19.334 13 -32.001 13s-23.334 -4.33301 -32.001 -13
s-13 -19.334 -13 -32.001zM315.001 495c0 -20 -3.5 -38.5 -10.5 -55.5s-17 -31.833 -30 -44.5s-28.333 -22.5 -46 -29.5s-37.167 -10.5 -58.5 -10.5s-40.833 3.5 -58.5 10.5s-33 16.833 -46 29.5s-23 27.5 -30 44.5s-10.5 35.5 -10.5 55.5s3.5 38.5 10.5 55.5
s17 31.833 30 44.5s28.333 22.5 46 29.5s37.167 10.5 58.5 10.5s40.833 -3.5 58.5 -10.5s33 -16.833 46 -29.5s23 -27.5 30 -44.5s10.5 -35.5 10.5 -55.5zM465.001 135c0 -12.667 4.33398 -23.334 13.001 -32.001s19.334 -13 32.001 -13c12 0 22.5 4.33301 31.5 13
s13.5 19.334 13.5 32.001s-4.33301 23.334 -13 32.001s-19.334 13 -32.001 13s-23.334 -4.33301 -32.001 -13s-13 -19.334 -13 -32.001zM655.002 135c0 -20 -3.5 -38.5 -10.5 -55.5s-17 -31.833 -30 -44.5s-28.333 -22.5 -46 -29.5s-37.167 -10.5 -58.5 -10.5
s-40.833 3.5 -58.5 10.5s-33 16.833 -46 29.5s-23 27.5 -30 44.5s-10.5 35.5 -10.5 55.5s3.5 38.5 10.5 55.5s17 31.833 30 44.5s28.333 22.5 46 29.5s37.167 10.5 58.5 10.5s40.833 -3.5 58.5 -10.5s33 -16.833 46 -29.5s23 -27.5 30 -44.5s10.5 -35.5 10.5 -55.5z" />
    <glyph glyph-name="ampersand" unicode="&#x26;" horiz-adv-x="610" 
d="M460 0l-54.998 54.999c-14.667 -12.667 -31 -23.667 -49 -33c-15.333 -8 -34 -15.333 -56 -22s-47 -10 -75 -10c-32.667 0 -61.334 4.16699 -86.001 12.5s-45.5 19.833 -62.5 34.5s-29.833 32 -38.5 52s-13 42 -13 66c0 28.667 6 54 18 76s25.333 40.333 40 55
c17.333 17.333 36.666 32 57.999 44l-21 25l-16.5 19.5c-5.66699 7 -11 15.5 -16 25.5s-9.16699 21.5 -12.5 34.5s-5 28.167 -5 45.5c0 21.333 4.5 41.666 13.5 60.999s21.833 36.333 38.5 51s36.667 26.334 60 35.001s49.333 13 78 13c27.333 0 52.333 -4.33301 75 -13
s42.167 -20.334 58.5 -35.001s29 -31.667 38 -51s13.5 -39.666 13.5 -60.999c0 -15.333 -2.66699 -29.666 -8 -42.999s-12 -25.666 -20 -36.999s-16.333 -21.333 -25 -30s-16 -15.334 -22 -20.001l-30 -25l60 -60l35 50h175l-105 -155l160 -160h-205zM260.002 399.999
c7.33301 6.66699 14 13.667 20 21c5.33301 6 10 13 14 21s6 15.667 6 23c0 26.667 -13.333 40 -40 40s-40 -13.333 -40 -40c0 -7.33301 2 -15 6 -23s8.66699 -15 14 -21c6 -7.33301 12.667 -14.333 20 -21zM245.002 139.999c7.33301 0 13.999 1.16895 19.999 3.50195
s11.333 5.16602 16 8.49902c5.33301 3.33301 10 7.66602 14 12.999l-65 70c-6 -4.66699 -11 -10 -15 -16c-4 -5.33301 -7.5 -11.333 -10.5 -18s-4.5 -13.667 -4.5 -21c0 -10 4.33301 -19.167 13 -27.5s19.334 -12.5 32.001 -12.5z" />
    <glyph glyph-name="quotesingle" unicode="'" horiz-adv-x="225" 
d="M40 630h145v-216h-145v216z" />
    <glyph glyph-name="parenleft" unicode="(" horiz-adv-x="355" 
d="M215 225c0 -50 5.83301 -96.833 17.5 -140.5s24.834 -81.834 39.501 -114.501c17.333 -38 36.666 -73 57.999 -105l-130 -85c-30 36.667 -56.667 78.334 -80 125.001c-20 40 -38.333 87 -55 141s-25 113.667 -25 179s8.33301 125 25 179s35 101 55 141
c23.333 46.667 50 88.334 80 125.001l130 -85c-21.333 -32 -40.666 -67 -57.999 -105c-14.667 -32.667 -27.834 -70.834 -39.501 -114.501s-17.5 -90.5 -17.5 -140.5z" />
    <glyph glyph-name="parenright" unicode=")" horiz-adv-x="355" 
d="M140 225c0 50 -6 96.833 -18 140.5s-25.333 81.834 -40 114.501c-17.333 38 -36.333 73 -57 105l130 85c30 -36.667 56.667 -78.334 80 -125.001c20 -40 38.333 -87 55 -141s25 -113.667 25 -179s-8.33301 -125 -25 -179s-35 -101 -55 -141
c-23.333 -46.667 -50 -88.334 -80 -125.001l-130 85c20.667 32 39.667 67 57 105c14.667 32.667 28 70.834 40 114.501s18 90.5 18 140.5z" />
    <glyph glyph-name="asterisk" unicode="*" horiz-adv-x="380" 
d="M235 535l90 35l30 -95l-95 -20l65 -75l-80 -60l-55 85l-55 -85l-80 60l65 75l-95 20l30 95l90 -35l-5 100h100z" />
    <glyph glyph-name="plus" unicode="+" horiz-adv-x="480" 
d="M165 50v130h-130v150h130v130h150v-130h130v-150h-130v-130h-150z" />
    <glyph glyph-name="comma" unicode="," horiz-adv-x="230" 
d="M55 -80c8.66699 4.66699 16.667 10.665 24 17.998c6 6 12 13.333 18 22s10.333 18.667 13 30c-22.667 2.66699 -41.667 11.834 -57 27.501s-23 34.834 -23 57.501c0 11.333 2.33301 22.166 7 32.499s10.834 19.333 18.501 27s16.667 13.834 27 18.501s21.166 7 32.499 7
s22.166 -2.33301 32.499 -7s19.333 -10.834 27 -18.501s13.834 -16.667 18.501 -27s7 -21.166 7 -32.499c0 -35.333 -6 -65.333 -18 -90s-25.333 -44.667 -40 -60c-17.333 -18 -36.333 -33 -57 -45z" />
    <glyph glyph-name="hyphen" unicode="-" horiz-adv-x="390" 
d="M350 180h-310v150h310v-150z" />
    <glyph glyph-name="period" unicode="." horiz-adv-x="230" 
d="M200 75c0 -11.333 -2.33301 -22.166 -7 -32.499s-10.834 -19.333 -18.501 -27s-16.667 -13.834 -27 -18.501s-21.166 -7 -32.499 -7s-22.166 2.33301 -32.499 7s-19.333 10.834 -27 18.501s-13.834 16.667 -18.501 27s-7 21.166 -7 32.499s2.33301 22.166 7 32.499
s10.834 19.333 18.501 27s16.667 13.834 27 18.501s21.166 7 32.499 7s22.166 -2.33301 32.499 -7s19.333 -10.834 27 -18.501s13.834 -16.667 18.501 -27s7 -21.166 7 -32.499z" />
    <glyph glyph-name="slash" unicode="/" horiz-adv-x="420" 
d="M160 -180h-160l260 810h160z" />
    <glyph glyph-name="zero" unicode="0" horiz-adv-x="630" 
d="M420 315c0 26 -2.83301 48.833 -8.5 68.5s-13.334 35.834 -23.001 48.501s-20.834 22.167 -33.501 28.5s-26 9.5 -40 9.5s-27.333 -3.16699 -40 -9.5s-23.834 -15.833 -33.501 -28.5s-17.334 -28.834 -23.001 -48.501s-8.5 -42.5 -8.5 -68.5s2.83301 -48.833 8.5 -68.5
s13.334 -35.834 23.001 -48.501s20.834 -22.167 33.501 -28.5s26 -9.5 40 -9.5s27.333 3.16699 40 9.5s23.834 15.833 33.501 28.5s17.334 28.834 23.001 48.501s8.5 42.5 8.5 68.5zM595 315c0 -50 -7.33301 -95 -22 -135s-34.667 -74.167 -60 -102.5s-55 -50 -89 -65
s-70.333 -22.5 -109 -22.5s-75 7.5 -109 22.5s-63.667 36.667 -89 65s-45.333 62.5 -60 102.5s-22 85 -22 135s7.33301 95 22 135s34.667 74.167 60 102.5s55 50 89 65s70.333 22.5 109 22.5s75 -7.5 109 -22.5s63.667 -36.667 89 -65s45.333 -62.5 60 -102.5
s22 -85 22 -135z" />
    <glyph glyph-name="one" unicode="1" horiz-adv-x="375" 
d="M320 630v-630h-175v425l-65 -45l-80 130l175 120h145z" />
    <glyph glyph-name="two" unicode="2" horiz-adv-x="520" 
d="M490 170l0.000976562 -170h-455v115l215 225c10 9.33301 19 19.333 27 30c7.33301 8.66699 13.833 18.334 19.5 29.001s8.5 21 8.5 31c0 12.667 -4.5 23.334 -13.5 32.001s-21.167 13 -36.5 13c-17.333 0 -31.666 -5.83301 -42.999 -17.5s-17 -27.5 -17 -47.5l-170 15
c1.33301 31.333 7.66602 60.166 18.999 86.499s27.166 49 47.499 68s44.666 33.833 72.999 44.5s60.166 16 95.499 16c36 0 68.333 -5 97 -15s52.834 -23.833 72.501 -41.5s34.667 -38.334 45 -62.001s15.5 -49.167 15.5 -76.5c0 -25.333 -5.5 -49.5 -16.5 -72.5
s-23.167 -43.167 -36.5 -60.5c-15.333 -20.667 -32.666 -39.667 -51.999 -57l-80 -85h185z" />
    <glyph glyph-name="three" unicode="3" 
d="M25 445c1.33301 26 7.66992 50.8311 19.0029 74.498s27.166 44.5 47.499 62.5s44.666 32.167 72.999 42.5s60.166 15.5 95.499 15.5c36 0 68.333 -5 97 -15s52.834 -23.167 72.501 -39.5s34.667 -35.333 45 -57s15.5 -44.5 15.5 -68.5
c0 -22.667 -4.5 -42.167 -13.5 -58.5s-19.167 -29.833 -30.5 -40.5c-12.667 -12 -27 -22.333 -43 -31c18.667 -10 35.667 -22 51 -36c12.667 -12 24.334 -27.5 35.001 -46.5s16 -41.5 16 -67.5c0 -25.333 -5.5 -49.333 -16.5 -72s-26.833 -42.834 -47.5 -60.501
s-45.834 -31.667 -75.501 -42s-63.167 -15.5 -100.5 -15.5c-38.667 0 -73.167 5.33301 -103.5 16s-56.166 25 -77.499 43s-37.833 39.167 -49.5 63.5s-18.167 50.166 -19.5 77.499l175 15c1.33301 -10.667 4.66602 -20 9.99902 -28
c4.66699 -7.33301 11.167 -13.666 19.5 -18.999s20.166 -8 35.499 -8c17.333 0 31.666 5.33301 42.999 16s17 23.667 17 39s-5.16699 27.5 -15.5 36.5s-26.833 13.5 -49.5 13.5h-60v135h60c17.333 0 30.833 4.33301 40.5 13s14.5 19.334 14.5 32.001
s-4.5 23.334 -13.5 32.001s-21.167 13 -36.5 13c-12.667 0 -22.667 -2.66699 -30 -8s-12.666 -11 -15.999 -17c-4.66699 -7.33301 -7.66699 -15.666 -9 -24.999z" />
    <glyph glyph-name="four" unicode="4" horiz-adv-x="535" 
d="M520 105h-65v-105h-175v105h-265v145l240 380h200v-365h65v-160zM185 265h100v160z" />
    <glyph glyph-name="five" unicode="5" horiz-adv-x="535" 
d="M305 430c28.667 0 55.4932 -5.33496 80.4932 -16.002s46.667 -25.5 65 -44.5s32.833 -41.667 43.5 -68s16 -55.166 16 -86.499c0 -32.667 -5.66699 -62.667 -17 -90s-27.666 -51 -48.999 -71s-47.166 -35.667 -77.499 -47s-64.166 -17 -101.499 -17
c-36 0 -68.667 5.16699 -98 15.5s-54.166 24.5 -74.499 42.5s-36.333 38.833 -48 62.5s-18.167 48.5 -19.5 74.5l175 15c2 -9.33301 5.66699 -17.666 11 -24.999c4.66699 -6.66699 10.834 -12.5 18.501 -17.5s17.834 -7.5 30.501 -7.5c17.333 0 32.5 6.66699 45.5 20
s19.5 30 19.5 50s-6.5 36.667 -19.5 50s-28.167 20 -45.5 20c-10 0 -18.667 -2 -26 -6s-13.333 -8.66699 -18 -14c-5.33301 -6 -9.66602 -12.667 -12.999 -20h-163l45 380h380v-150h-240l-10 -70c6.66699 4 14.667 7.33301 24 10c8 2.66699 17.5 5 28.5 7s23.5 3 37.5 3z
" />
    <glyph glyph-name="six" unicode="6" horiz-adv-x="535" 
d="M270 -10c-36 0 -69.1699 5.83398 -99.5029 17.501s-56.166 28 -77.499 49s-38 45.833 -50 74.5s-18 60 -18 94c0 25.333 3.83301 49.666 11.5 72.999s16.167 44 25.5 62c11.333 21.333 24 41.333 38 60l145 210h185l-135 -185
c31.333 -1.33301 60.333 -7.66602 87 -18.999s49.834 -26.833 69.501 -46.5s35.167 -43 46.5 -70s17 -56.833 17 -89.5s-6 -63 -18 -91s-28.667 -52.333 -50 -73s-47.166 -36.834 -77.499 -48.501s-63.5 -17.5 -99.5 -17.5zM199.997 220.001
c0 -22.667 6.66699 -40.834 20 -54.501s30 -20.5 50 -20.5s36.667 6.83301 50 20.5s20 31.834 20 54.501s-6.66699 40.834 -20 54.501s-30 20.5 -50 20.5s-36.667 -6.83301 -50 -20.5s-20 -31.834 -20 -54.501z" />
    <glyph glyph-name="seven" unicode="7" horiz-adv-x="480" 
d="M460 630v-145l-225 -485h-185l215 460h-240v170h435z" />
    <glyph glyph-name="eight" unicode="8" horiz-adv-x="550" 
d="M275 500c-15.333 0 -27.5 -4.5 -36.5 -13.5s-13.5 -21.167 -13.5 -36.5s4.5 -27.5 13.5 -36.5s21.167 -13.5 36.5 -13.5s27.5 4.5 36.5 13.5s13.5 21.167 13.5 36.5s-4.5 27.5 -13.5 36.5s-21.167 13.5 -36.5 13.5zM275 -10c-40 0 -75.501 5.16699 -106.501 15.5
s-57.167 24.5 -78.5 42.5s-37.5 38.833 -48.5 62.5s-16.5 48.5 -16.5 74.5s5.16699 48.667 15.5 68s21.833 35.666 34.5 48.999c14.667 15.333 31.334 28 50.001 38c-14 8.66699 -26.667 19 -38 31c-9.33301 10.667 -17.833 23.667 -25.5 39s-11.5 33.666 -11.5 54.999
c0 22.667 5.16699 44.5 15.5 65.5s25.166 39.667 44.499 56s42.833 29.333 70.5 39s59.167 14.5 94.5 14.5c34.667 0 66 -4.83301 94 -14.5s51.667 -22.667 71 -39s34.166 -35 44.499 -56s15.5 -42.833 15.5 -65.5c0 -21.333 -4 -39.666 -12 -54.999
s-16.667 -28.333 -26 -39c-11.333 -12 -23.666 -22.333 -36.999 -31c18.667 -10 35.334 -22.667 50.001 -38c12.667 -13.333 24.167 -29.666 34.5 -48.999s15.5 -42 15.5 -68s-5.5 -50.833 -16.5 -74.5s-27.167 -44.5 -48.5 -62.5s-47.5 -32.167 -78.5 -42.5
s-66.5 -15.5 -106.5 -15.5zM209.999 195c0 -17.333 6.5 -32.5 19.5 -45.5s28.167 -19.5 45.5 -19.5s32.5 6.5 45.5 19.5s19.5 28.167 19.5 45.5s-6.5 32.5 -19.5 45.5s-28.167 19.5 -45.5 19.5s-32.5 -6.5 -45.5 -19.5s-19.5 -28.167 -19.5 -45.5z" />
    <glyph glyph-name="nine" unicode="9" horiz-adv-x="535" 
d="M265 640c36 0 69.1689 -5.83398 99.502 -17.501s56.166 -28 77.499 -49s38 -45.833 50 -74.5s18 -60 18 -94c0 -25.333 -4 -49.666 -12 -72.999s-16.667 -44 -26 -62c-11.333 -21.333 -23.666 -41.333 -36.999 -60l-145 -210h-185l135 185
c-31.333 1.33301 -60.333 7.66602 -87 18.999s-49.834 26.833 -69.501 46.5s-35.167 43 -46.5 70s-17 56.833 -17 89.5s6 63 18 91s28.667 52.333 50 73s47.166 36.834 77.499 48.501s63.5 17.5 99.5 17.5zM335.002 409.999c0 22.667 -6.66699 40.834 -20 54.501
s-30 20.5 -50 20.5s-36.667 -6.83301 -50 -20.5s-20 -31.834 -20 -54.501s6.66699 -40.834 20 -54.501s30 -20.5 50 -20.5s36.667 6.83301 50 20.5s20 31.834 20 54.501z" />
    <glyph glyph-name="colon" unicode=":" horiz-adv-x="230" 
d="M200 75c0 -11.333 -2.33301 -22.166 -7 -32.499s-10.834 -19.333 -18.501 -27s-16.667 -13.834 -27 -18.501s-21.166 -7 -32.499 -7s-22.166 2.33301 -32.499 7s-19.333 10.834 -27 18.501s-13.834 16.667 -18.501 27s-7 21.166 -7 32.499s2.33301 22.166 7 32.499
s10.834 19.333 18.501 27s16.667 13.834 27 18.501s21.166 7 32.499 7s22.166 -2.33301 32.499 -7s19.333 -10.834 27 -18.501s13.834 -16.667 18.501 -27s7 -21.166 7 -32.499zM200 380c0 -11.333 -2.33301 -22.166 -7 -32.499s-10.834 -19.333 -18.501 -27
s-16.667 -13.834 -27 -18.501s-21.166 -7 -32.499 -7s-22.166 2.33301 -32.499 7s-19.333 10.834 -27 18.501s-13.834 16.667 -18.501 27s-7 21.166 -7 32.499s2.33301 22.166 7 32.499s10.834 19.333 18.501 27s16.667 13.834 27 18.501s21.166 7 32.499 7
s22.166 -2.33301 32.499 -7s19.333 -10.834 27 -18.501s13.834 -16.667 18.501 -27s7 -21.166 7 -32.499z" />
    <glyph glyph-name="semicolon" unicode=";" horiz-adv-x="230" 
d="M200 380c0 -11.333 -2.33301 -22.166 -7 -32.499s-10.834 -19.333 -18.501 -27s-16.667 -13.834 -27 -18.501s-21.166 -7 -32.499 -7s-22.166 2.33301 -32.499 7s-19.333 10.834 -27 18.501s-13.834 16.667 -18.501 27s-7 21.166 -7 32.499s2.33301 22.166 7 32.499
s10.834 19.333 18.501 27s16.667 13.834 27 18.501s21.166 7 32.499 7s22.166 -2.33301 32.499 -7s19.333 -10.834 27 -18.501s13.834 -16.667 18.501 -27s7 -21.166 7 -32.499zM55 -80c8.66699 4.66699 16.667 10.665 24 17.998c6 6 12 13.333 18 22s10.333 18.667 13 30
c-22.667 2.66699 -41.667 11.834 -57 27.501s-23 34.834 -23 57.501c0 11.333 2.33301 22.166 7 32.499s10.834 19.333 18.501 27s16.667 13.834 27 18.501s21.166 7 32.499 7s22.166 -2.33301 32.499 -7s19.333 -10.834 27 -18.501s13.834 -16.667 18.501 -27
s7 -21.166 7 -32.499c0 -35.333 -6 -65.333 -18 -90s-25.333 -44.667 -40 -60c-17.333 -18 -36.333 -33 -57 -45z" />
    <glyph glyph-name="less" unicode="&#x3c;" horiz-adv-x="470" 
d="M210 230l220 -85v-145l-390 160v140l390 160v-145z" />
    <glyph glyph-name="equal" unicode="=" horiz-adv-x="470" 
d="M430 290h-390v135h390v-135zM430 85h-390v135h390v-135z" />
    <glyph glyph-name="greater" unicode="&#x3e;" horiz-adv-x="470" 
d="M40 315v145l390 -160v-140l-390 -160v145l220 85z" />
    <glyph glyph-name="question" unicode="?" horiz-adv-x="470" 
d="M455 460c0 -22 -3.33203 -40.6689 -9.99902 -56.002s-15.167 -29.166 -25.5 -41.499s-21.5 -23.666 -33.5 -33.999s-23.333 -21.333 -34 -33s-20 -24.667 -28 -39s-12.667 -31.5 -14 -51.5h-160c0 38.667 6.5 70.167 19.5 94.5s27.333 44.5 43 60.5s30 29.833 43 41.5
s19.5 24.5 19.5 38.5c0 26.667 -15 40 -45 40c-12.667 0 -24.167 -5.83301 -34.5 -17.5s-15.5 -27.5 -15.5 -47.5l-170 20c1.33301 28.667 7.66602 55.5 18.999 80.5s26.833 46.667 46.5 65s43 32.833 70 43.5s56.833 16 89.5 16c34 0 64.5 -5 91.5 -15s50 -23.167 69 -39.5
s33.667 -35.333 44 -57s15.5 -44.5 15.5 -68.5zM315.001 74.998c0 -11.333 -2.33301 -22.166 -7 -32.499s-10.834 -19.333 -18.501 -27s-16.667 -13.834 -27 -18.501s-21.166 -7 -32.499 -7s-22.166 2.33301 -32.499 7s-19.333 10.834 -27 18.501s-13.834 16.667 -18.501 27
s-7 21.166 -7 32.499s2.33301 22.166 7 32.499s10.834 19.333 18.501 27s16.667 13.834 27 18.501s21.166 7 32.499 7s22.166 -2.33301 32.499 -7s19.333 -10.834 27 -18.501s13.834 -16.667 18.501 -27s7 -21.166 7 -32.499z" />
    <glyph glyph-name="at" unicode="@" horiz-adv-x="760" 
d="M380 565c51.333 0 98.665 -8.83301 141.998 -26.5s80.833 -41.5 112.5 -71.5s56.334 -65 74.001 -105s26.5 -82.333 26.5 -127c0 -30 -3.83301 -56.5 -11.5 -79.5s-18.334 -42.333 -32.001 -58s-30 -27.5 -49 -35.5s-39.833 -12 -62.5 -12
c-19.333 0 -35.666 3.16699 -48.999 9.5s-24.666 13.166 -33.999 20.499c-10.667 8.66699 -19.667 18.667 -27 30c-8 -11.333 -17.667 -21.333 -29 -30c-9.33301 -7.33301 -21.333 -14.166 -36 -20.499s-31.334 -9.5 -50.001 -9.5c-21.333 0 -41.333 4.16699 -60 12.5
s-35 20.166 -49 35.499s-25.167 33.833 -33.5 55.5s-12.5 45.5 -12.5 71.5s4 49.833 12 71.5s19 40.167 33 55.5s30 27.166 48 35.499s37 12.5 57 12.5c12.667 0 24.167 -2 34.5 -6s19.166 -8.66699 26.499 -14c8.66699 -6 16.667 -12.667 24 -20l10 30h95v-165
c0 -28 4.16699 -47.5 12.5 -58.5s17.5 -16.5 27.5 -16.5c12.667 0 23.334 6 32.001 18s13 34.333 13 67s-6 63 -18 91s-28.667 52.333 -50 73s-47.166 36.834 -77.499 48.501s-63.5 17.5 -99.5 17.5c-35.333 0 -67.666 -6 -96.999 -18s-54.5 -28.5 -75.5 -49.5
s-37.5 -46.333 -49.5 -76s-18 -61.834 -18 -96.501c0 -35.333 6 -67.666 18 -96.999s28.5 -54.5 49.5 -75.5s46.167 -37.5 75.5 -49.5s61.666 -18 96.999 -18c20 0 38.5 2.33301 55.5 7s31.833 9.66699 44.5 15c14.667 6.66699 28 14.334 40 23.001l60 -80
c-16 -12.667 -34.333 -23.667 -55 -33c-17.333 -8 -38.333 -15.333 -63 -22s-52 -10 -82 -10c-50 0 -96.333 8.83301 -139 26.5s-79.667 41.834 -111 72.501s-55.833 66.667 -73.5 108s-26.5 85.666 -26.5 132.999s8.83301 91.666 26.5 132.999s42.167 77.333 73.5 108
s68.333 54.834 111 72.501s89 26.5 139 26.5zM429.999 225c0 22.667 -6.16699 40.834 -18.5 54.501s-26.166 20.5 -41.499 20.5s-29.166 -6.83301 -41.499 -20.5s-18.5 -31.834 -18.5 -54.501s6.16699 -40.834 18.5 -54.501s26.166 -20.5 41.499 -20.5
s29.166 6.83301 41.499 20.5s18.5 31.834 18.5 54.501z" />
    <glyph glyph-name="A" unicode="A" horiz-adv-x="620" 
d="M310 435l-55 -180h110zM215 115l-35 -115h-185l215 630h200l215 -630h-185l-35 115h-190z" />
    <glyph glyph-name="B" unicode="B" horiz-adv-x="600" 
d="M465 335c20 -8 38.335 -19.002 55.002 -33.002c13.333 -12 25.833 -27.833 37.5 -47.5s17.5 -44.5 17.5 -74.5c0 -25.333 -4.83301 -48.833 -14.5 -70.5s-23.5 -40.667 -41.5 -57s-40 -29.166 -66 -38.499s-55.333 -14 -88 -14h-310v630h290
c32.667 0 61.667 -4.33301 87 -13s46.666 -20.5 63.999 -35.5s30.666 -32.5 39.999 -52.5s14 -41.333 14 -64c0 -23.333 -4.5 -43.166 -13.5 -59.499s-18.833 -29.833 -29.5 -40.5c-12 -12 -26 -22 -42 -30zM230.002 384.998h80c17.333 0 31.666 5.33301 42.999 16
s17 23.667 17 39s-5.66699 28.333 -17 39s-25.666 16 -42.999 16h-80v-110zM325.002 134.998c20 0 36.667 6.5 50 19.5s20 28.167 20 45.5s-6.66699 32.5 -20 45.5s-30 19.5 -50 19.5h-95v-130h95z" />
    <glyph glyph-name="C" unicode="C" horiz-adv-x="670" 
d="M350 160c22.667 0 41.667 4.16895 57 12.502s27.666 17.5 36.999 27.5c11.333 12 20 25.333 26 40l180 -15c-6 -28.667 -17.833 -57 -35.5 -85s-39.667 -53.167 -66 -75.5s-56.333 -40.333 -90 -54s-69.834 -20.5 -108.501 -20.5c-45.333 0 -87.333 8.33301 -126 25
s-72.5 39.5 -101.5 68.5s-51.667 63.333 -68 103s-24.5 82.5 -24.5 128.5s8.16699 88.833 24.5 128.5s39 74 68 103s62.833 51.833 101.5 68.5s80.667 25 126 25c38.667 0 74.834 -6.83301 108.501 -20.5s63.667 -31.667 90 -54s48.333 -47.5 66 -75.5
s29.5 -56.333 35.5 -85l-180 -15c-6 14.667 -14.667 28 -26 40c-9.33301 10 -21.666 19.167 -36.999 27.5s-34.333 12.5 -57 12.5c-20 0 -38.833 -3.83301 -56.5 -11.5s-33 -18.334 -46 -32.001s-23.333 -30 -31 -49s-11.5 -39.833 -11.5 -62.5s3.83301 -43.5 11.5 -62.5
s18 -35.333 31 -49s28.333 -24.334 46 -32.001s36.5 -11.5 56.5 -11.5z" />
    <glyph glyph-name="D" unicode="D" horiz-adv-x="635" 
d="M285 160c20 0 38.833 3.83105 56.5 11.498s33 18.334 46 32.001s23.333 30 31 49s11.5 39.833 11.5 62.5s-3.83301 43.5 -11.5 62.5s-18 35.333 -31 49s-28.333 24.334 -46 32.001s-36.5 11.5 -56.5 11.5h-55v-310h55zM55 629.998h230c46 0 88.667 -8 128 -24
s73.166 -38 101.499 -66s50.5 -61.333 66.5 -100s24 -80.334 24 -125.001c0 -45.333 -8 -87.166 -24 -125.499s-38.167 -71.5 -66.5 -99.5s-62.166 -50 -101.499 -66s-82 -24 -128 -24h-230v630z" />
    <glyph glyph-name="E" unicode="E" horiz-adv-x="570" 
d="M55 630h470v-155h-295v-80h270v-150h-270v-90h305v-155h-480v630z" />
    <glyph glyph-name="F" unicode="F" horiz-adv-x="535" 
d="M55 630h455v-160h-280v-105h225v-160h-225v-205h-175v630z" />
    <glyph glyph-name="G" unicode="G" horiz-adv-x="705" 
d="M345 340l315 0.00195312v-340h-115l-25 60c-13.333 -13.333 -29 -25 -47 -35c-15.333 -9.33301 -34.166 -17.5 -56.499 -24.5s-47.833 -10.5 -76.5 -10.5c-42.667 0 -82.834 8.33301 -120.501 25s-70.5 39.5 -98.5 68.5s-50.167 63.333 -66.5 103s-24.5 82.5 -24.5 128.5
s8.16699 88.833 24.5 128.5s39 74 68 103s62.833 51.833 101.5 68.5s80.667 25 126 25c30 0 57.333 -3.33301 82 -10s46.834 -15.167 66.501 -25.5s37 -22.333 52 -36s28.167 -27.5 39.5 -41.5c26.667 -32.667 46.667 -70 60 -112l-180 -15
c-6 12.667 -14.667 24.334 -26 35.001c-9.33301 8.66699 -21.666 16.667 -36.999 24s-34.333 11 -57 11c-20 0 -38.833 -3.83301 -56.5 -11.5s-33 -18.334 -46 -32.001s-23.333 -30 -31 -49s-11.5 -39.833 -11.5 -62.5s3.83301 -43.5 11.5 -62.5s18.167 -35.333 31.5 -49
s28.666 -24.334 45.999 -32.001s36 -11.5 56 -11.5c22.667 0 41.667 3.16699 57 9.5s27.666 13.166 36.999 20.499c11.333 8.66699 20 18.667 26 30h-125v120z" />
    <glyph glyph-name="H" unicode="H" horiz-adv-x="675" 
d="M620 630v-630h-175v235h-215v-235h-175v630h175v-225h215v225h175z" />
    <glyph glyph-name="I" unicode="I" horiz-adv-x="285" 
d="M230 0h-175v630h175v-630z" />
    <glyph glyph-name="J" unicode="J" horiz-adv-x="515" 
d="M465 630l-0.000976562 -410.001c0 -35.333 -5.5 -67.166 -16.5 -95.499s-26.5 -52.5 -46.5 -72.5s-44.167 -35.333 -72.5 -46s-59.833 -16 -94.5 -16c-34 0 -65 5.5 -93 16.5s-52.167 26.333 -72.5 46s-36.166 42.5 -47.499 68.5s-17 54 -17 84l175 15
c0 -17.333 5.33301 -31.666 16 -42.999s23.667 -17 39 -17s28.333 5.66699 39 17s16 25.666 16 42.999v410h175z" />
    <glyph glyph-name="K" unicode="K" horiz-adv-x="595" 
d="M405 0l-175 275v-275h-175v630h175v-267l160 267h195l-200 -310l220 -320h-200z" />
    <glyph glyph-name="L" unicode="L" horiz-adv-x="515" 
d="M55 630h175v-460h275v-170h-450v630z" />
    <glyph glyph-name="M" unicode="M" horiz-adv-x="810" 
d="M230 300v-300h-175v630h170l180 -380l180 380h170v-630h-175v300l-140 -300h-70z" />
    <glyph glyph-name="N" unicode="N" horiz-adv-x="675" 
d="M620 630v-630h-160l-230 325v-325h-175v630h160l230 -325v325h175z" />
    <glyph glyph-name="O" unicode="O" horiz-adv-x="700" 
d="M205 315c0 -22.667 3.83301 -43.5 11.5 -62.5s18 -35.333 31 -49s28.333 -24.334 46 -32.001s36.5 -11.5 56.5 -11.5s38.833 3.83301 56.5 11.5s33 18.334 46 32.001s23.333 30 31 49s11.5 39.833 11.5 62.5s-3.83301 43.5 -11.5 62.5s-18 35.333 -31 49
s-28.333 24.334 -46 32.001s-36.5 11.5 -56.5 11.5s-38.833 -3.83301 -56.5 -11.5s-33 -18.334 -46 -32.001s-23.333 -30 -31 -49s-11.5 -39.833 -11.5 -62.5zM670 315c0 -46 -8.16699 -88.833 -24.5 -128.5s-39 -74 -68 -103s-63 -51.833 -102 -68.5
s-80.833 -25 -125.5 -25c-45.333 0 -87.333 8.33301 -126 25s-72.5 39.5 -101.5 68.5s-51.667 63.333 -68 103s-24.5 82.5 -24.5 128.5s8.16699 88.833 24.5 128.5s39 74 68 103s62.833 51.833 101.5 68.5s80.667 25 126 25c44.667 0 86.5 -8.33301 125.5 -25
s73 -39.5 102 -68.5s51.667 -63.333 68 -103s24.5 -82.5 24.5 -128.5z" />
    <glyph glyph-name="P" unicode="P" horiz-adv-x="580" 
d="M320 630c34.667 0 66.5 -5.66699 95.5 -17s53.833 -27 74.5 -47s36.667 -43.667 48 -71s17 -57.333 17 -90s-5.66699 -62.667 -17 -90s-27.333 -51 -48 -71s-45.5 -35.667 -74.5 -47s-60.833 -17 -95.5 -17h-90v-180h-175v630h265zM305 340c20 0 36.667 6.5 50 19.5
s20 28.167 20 45.5s-6.66699 32.5 -20 45.5s-30 19.5 -50 19.5h-75v-130h75z" />
    <glyph glyph-name="Q" unicode="Q" horiz-adv-x="705" 
d="M670 315c0 -28 -2.83301 -53.332 -8.5 -75.999s-12.167 -42 -19.5 -58c-8 -19.333 -17 -36.333 -27 -51l60 -60l-95 -95l-65 60c-12.667 -8.66699 -27.667 -16.334 -45 -23.001c-14.667 -5.33301 -32 -10.333 -52 -15s-42.667 -7 -68 -7
c-45.333 0 -87.333 8.33301 -126 25s-72.5 39.5 -101.5 68.5s-51.667 63.333 -68 103s-24.5 82.5 -24.5 128.5s8.16699 88.833 24.5 128.5s39 74 68 103s62.833 51.833 101.5 68.5s80.667 25 126 25c44.667 0 86.5 -8.33301 125.5 -25s73 -39.5 102 -68.5
s51.667 -63.333 68 -103s24.5 -82.5 24.5 -128.5zM205 315.001c0 -22.667 3.83398 -43.499 11.501 -62.499s18 -35.333 31 -49s28.333 -24.334 46 -32.001s36.5 -11.5 56.5 -11.5c6 0 11.167 0.166992 15.5 0.5s8.16602 0.833008 11.499 1.5s6 1.66699 8 3l-50 50l95 95
l55 -55l5 17c1.33301 5.33301 2.5 11.5 3.5 18.5s1.5 15.167 1.5 24.5c0 22.667 -3.83301 43.5 -11.5 62.5s-18 35.333 -31 49s-28.333 24.334 -46 32.001s-36.5 11.5 -56.5 11.5s-38.833 -3.83301 -56.5 -11.5s-33 -18.334 -46 -32.001s-23.333 -30 -31 -49
s-11.5 -39.833 -11.5 -62.5z" />
    <glyph glyph-name="R" unicode="R" horiz-adv-x="600" 
d="M400 0l-31.5 59.001l-34.5 66l-39 75h-65v-200h-175v630h275c34.667 0 66.5 -5.5 95.5 -16.5s53.833 -26.333 74.5 -46s36.667 -42.5 48 -68.5s17 -54 17 -84c0 -32 -5.83301 -58.833 -17.5 -80.5s-24.167 -39.5 -37.5 -53.5c-16.667 -16.667 -35 -30.334 -55 -41.001
l140 -240h-195zM320 360.001c20 0 35.833 5.33301 47.5 16s17.5 23.667 17.5 39s-5.83301 28.333 -17.5 39s-27.5 16 -47.5 16h-90v-110h90z" />
    <glyph glyph-name="S" unicode="S" horiz-adv-x="545" 
d="M30 455c0 24.667 5.16602 48.3311 15.499 70.998s25.333 42.334 45 59.001s43.834 30 72.501 40s61 15 97 15c37.333 0 71.166 -5.5 101.499 -16.5s56.166 -26 77.499 -45s37.666 -41.333 48.999 -67s17 -52.834 17 -81.501l-170 -15c0 20 -6.5 35.833 -19.5 47.5
s-28.167 17.5 -45.5 17.5c-15.333 0 -27.5 -4.16699 -36.5 -12.5s-13.5 -17.5 -13.5 -27.5c0 -12.667 7.33301 -22.5 22 -29.5s32.834 -13.833 54.501 -20.5l71 -22.5c25.667 -8.33301 49.334 -20 71.001 -35s39.834 -34.167 54.501 -57.5s22 -53.333 22 -90
c0 -25.333 -5.66699 -49.666 -17 -72.999s-27.666 -44 -48.999 -62s-47.166 -32.5 -77.499 -43.5s-64.166 -16.5 -101.499 -16.5c-38.667 0 -73.5 5.5 -104.5 16.5s-57.167 26.333 -78.5 46s-37.833 42.5 -49.5 68.5s-17.5 54 -17.5 84l170 15c0 -20 6.66699 -36.667 20 -50
s30 -20 50 -20c22.667 0 39.167 5 49.5 15s15.5 20 15.5 30c0 12.667 -7.33301 22.667 -22 30s-32.834 14.5 -54.501 21.5l-71 24c-25.667 9 -49.334 21 -71.001 36s-39.834 34.333 -54.501 58s-22 53.834 -22 90.501z" />
    <glyph glyph-name="T" unicode="T" horiz-adv-x="545" 
d="M360 0h-175v460h-170v170h515v-170h-170v-460z" />
    <glyph glyph-name="U" unicode="U" horiz-adv-x="650" 
d="M225 630l0.00195312 -365c0 -32.667 9.16699 -58.334 27.5 -77.001s42.5 -28 72.5 -28s54.167 9.33301 72.5 28s27.5 44.334 27.5 77.001v365h175v-365c0 -42.667 -6.33301 -81 -19 -115s-30.834 -62.833 -54.501 -86.5s-52.5 -41.834 -86.5 -54.501
s-72.333 -19 -115 -19s-81 6.33301 -115 19s-62.833 30.834 -86.5 54.501s-41.834 52.5 -54.501 86.5s-19 72.333 -19 115v365h175z" />
    <glyph glyph-name="V" unicode="V" horiz-adv-x="620" 
d="M615 630l-205 -630h-200l-205 630h185l120 -405l120 405h185z" />
    <glyph glyph-name="W" unicode="W" horiz-adv-x="900" 
d="M390 630h120l105 -355l95 355h185l-195 -630h-145l-105 350l-105 -350h-145l-195 630h185l95 -355z" />
    <glyph glyph-name="X" unicode="X" horiz-adv-x="600" 
d="M595 630l-185 -310l195 -320h-195l-110 190l-110 -190h-195l195 320l-185 310h195l100 -180l100 180h195z" />
    <glyph glyph-name="Y" unicode="Y" horiz-adv-x="595" 
d="M210 230l-215 400h190l113 -230l112 230h190l-215 -400v-230h-175v230z" />
    <glyph glyph-name="Z" unicode="Z" horiz-adv-x="560" 
d="M265 170h270v-170h-500v150l250 310h-240v170h470v-150z" />
    <glyph glyph-name="bracketleft" unicode="[" horiz-adv-x="350" 
d="M225 -15h100v-165h-270v810h270v-165h-100v-480z" />
    <glyph glyph-name="backslash" unicode="\" horiz-adv-x="420" 
d="M0 630h160l260 -810h-160z" />
    <glyph glyph-name="bracketright" unicode="]" horiz-adv-x="350" 
d="M125 465h-100v165h270v-810h-270v165h100v480z" />
    <glyph glyph-name="asciicircum" unicode="^" horiz-adv-x="440" 
d="M285 330l-65 135l-65 -135h-135l150 300h100l150 -300h-135z" />
    <glyph glyph-name="underscore" unicode="_" horiz-adv-x="295" 
d="M315 -210h-335v150h335v-150z" />
    <glyph glyph-name="grave" unicode="`" horiz-adv-x="290" 
d="M260 500h-130l-100 140h165z" />
    <glyph glyph-name="a" unicode="a" horiz-adv-x="490" 
d="M250 470c30 0 57.3398 -4.66602 82.0068 -13.999s45.667 -22.5 63 -39.5s30.833 -37.167 40.5 -60.5s14.5 -48.666 14.5 -75.999v-280h-115c-4 6 -7.33301 11.667 -10 17l-8 14.5l-7 13.5c-12 -10.667 -25 -20 -39 -28c-12 -7.33301 -26.333 -13.666 -43 -18.999
s-34.334 -8 -53.001 -8c-24 0 -45.5 3.5 -64.5 10.5s-35.167 16.667 -48.5 29s-23.666 26.666 -30.999 42.999s-11 33.833 -11 52.5c0 21.333 4.66699 41.333 14 60s24.666 35 45.999 49s49.166 25.167 83.499 33.5s76.5 12.5 126.5 12.5c0 17.333 -4.33301 30.833 -13 40.5
s-19.334 14.5 -32.001 14.5c-10 0 -18.333 -1.83301 -25 -5.5s-11.667 -7.83398 -15 -12.501c-4.66699 -5.33301 -8 -11 -10 -17l-155 15c5.33301 28.667 16.666 54.334 33.999 77.001c7.33301 10 16.166 19.667 26.499 29s22.666 17.666 36.999 24.999
s30.666 13.166 48.999 17.499s39.5 6.5 63.5 6.5zM225.007 110.001c17.333 0 32.501 6.66406 45.501 19.9971s19.5 30 19.5 50v15c-22.667 0 -41.167 -1.16699 -55.5 -3.5s-25.5 -5.66602 -33.5 -9.99902s-13.5 -9.66602 -16.5 -15.999s-4.5 -13.166 -4.5 -20.499
c0 -10 3.66699 -18.333 11 -25s18.666 -10 33.999 -10z" />
    <glyph glyph-name="b" unicode="b" horiz-adv-x="555" 
d="M320 -10c-20 0 -38.332 2.66797 -54.999 8.00098s-31 11.666 -43 18.999c-14 8 -26.333 17.333 -37 28l-25 -45h-115v620h160v-190c8.66699 7.33301 19 14 31 20c10 5.33301 22.167 10 36.5 14s30.166 6 47.499 6c26 0 51.667 -6.16699 77 -18.5s47.833 -29.333 67.5 -51
s35.5 -47 47.5 -76s18 -60.5 18 -94.5s-6 -65.5 -18 -94.5s-27.833 -54.333 -47.5 -76s-42.167 -38.667 -67.5 -51s-51 -18.5 -77 -18.5zM200.001 230.001c0 -25.333 8.5 -46.666 25.5 -63.999s36.833 -26 59.5 -26s42.5 8.66699 59.5 26s25.5 38.666 25.5 63.999
s-8.5 46.666 -25.5 63.999s-36.833 26 -59.5 26s-42.5 -8.66699 -59.5 -26s-25.5 -38.666 -25.5 -63.999z" />
    <glyph glyph-name="c" unicode="c" horiz-adv-x="520" 
d="M270 470c24.667 0 47 -2.66699 67 -8s37.667 -12.333 53 -21s28.833 -18.667 40.5 -30s21.5 -22.666 29.5 -33.999c18.667 -26.667 32 -57.334 40 -92.001l-155 -15c-4 9.33301 -9.66699 17.666 -17 24.999c-6 6 -13.833 11.667 -23.5 17s-21.167 8 -34.5 8
c-22.667 0 -42.5 -8.66699 -59.5 -26s-25.5 -38.666 -25.5 -63.999s8.5 -46.666 25.5 -63.999s36.833 -26 59.5 -26c13.333 0 24.833 2.5 34.5 7.5s17.5 10.833 23.5 17.5c7.33301 7.33301 13 15.666 17 24.999l155 -15c-8 -35.333 -21.333 -66.333 -40 -93
c-8 -11.333 -17.833 -22.5 -29.5 -33.5s-25.167 -20.833 -40.5 -29.5s-33 -15.667 -53 -21s-42.333 -8 -67 -8c-35.333 0 -67.833 6.16699 -97.5 18.5s-55.5 29.333 -77.5 51s-39.167 47 -51.5 76s-18.5 60.5 -18.5 94.5s6.16699 65.5 18.5 94.5s29.5 54.333 51.5 76
s47.833 38.667 77.5 51s62.167 18.5 97.5 18.5z" />
    <glyph glyph-name="d" unicode="d" horiz-adv-x="555" 
d="M235 -10c-26 0 -51.666 6.16602 -76.999 18.499s-47.833 29.333 -67.5 51s-35.5 47 -47.5 76s-18 60.5 -18 94.5s6 65.5 18 94.5s27.833 54.333 47.5 76s42.167 38.667 67.5 51s51 18.5 77 18.5c17.333 0 33.166 -2 47.499 -6s26.5 -8.66699 36.5 -14
c12 -6 22.333 -12.667 31 -20v190h160v-620h-115l-25 45c-11.333 -10.667 -24 -20 -38 -28c-12 -7.33301 -26.167 -13.666 -42.5 -18.999s-34.5 -8 -54.5 -8zM355.001 229.999c0 25.333 -8.5 46.666 -25.5 63.999s-36.833 26 -59.5 26s-42.5 -8.66699 -59.5 -26
s-25.5 -38.666 -25.5 -63.999s8.5 -46.666 25.5 -63.999s36.833 -26 59.5 -26s42.5 8.66699 59.5 26s25.5 38.666 25.5 63.999z" />
    <glyph glyph-name="e" unicode="e" 
d="M490 140c-6 -18.667 -14.9971 -36.999 -26.9971 -54.999s-27 -34 -45 -48s-39.333 -25.333 -64 -34s-52.667 -13 -84 -13c-35.333 0 -67.833 6.16699 -97.5 18.5s-55.5 29.333 -77.5 51s-39.167 47 -51.5 76s-18.5 60.5 -18.5 94.5s6.16699 65.5 18.5 94.5
s29.5 54.333 51.5 76s47.833 38.667 77.5 51s62.167 18.5 97.5 18.5c32.667 0 63.167 -5.83301 91.5 -17.5s53.166 -28 74.499 -49s38.166 -45.833 50.499 -74.5s18.5 -60 18.5 -94c0 -6.66699 -0.333008 -12.834 -1 -18.501s-1.33398 -10.834 -2.00098 -15.501l-2 -16h-305
c3.33301 -11.333 8.33301 -21.333 15 -30c5.33301 -7.33301 12.833 -14.166 22.5 -20.499s22.167 -9.5 37.5 -9.5c11.333 0 20.833 1.5 28.5 4.5s13.834 6.5 18.501 10.5c5.33301 4 9.66602 9 12.999 15zM270.003 340.001c-20 0 -36.8311 -6.5 -50.498 -19.5
s-21.834 -28.167 -24.501 -45.5h150c-2.66699 17.333 -10.834 32.5 -24.501 45.5s-30.5 19.5 -50.5 19.5z" />
    <glyph glyph-name="f" unicode="f" horiz-adv-x="345" 
d="M15 435l54.999 -0.000976562v20c0 58 15.333 102.5 46 133.5s73.667 46.5 129 46.5c10 0 19.333 -0.833008 28 -2.5s16.667 -3.5 24 -5.5c8 -2.66699 15.667 -5 23 -7v-140l-10 2c-3.33301 0.666992 -7 1.33398 -11 2.00098s-8.66699 1 -14 1
c-15.333 0 -27.666 -4.5 -36.999 -13.5s-15.333 -21.167 -18 -36.5h90v-145h-90v-290h-160v290h-55v145z" />
    <glyph glyph-name="g" unicode="g" horiz-adv-x="560" 
d="M345 250c0 25.333 -7.66699 45.833 -23 61.5s-34.333 23.5 -57 23.5s-41.667 -7.83301 -57 -23.5s-23 -36.167 -23 -61.5s7.66699 -45.833 23 -61.5s34.333 -23.5 57 -23.5s41.667 7.83301 57 23.5s23 36.167 23 61.5zM345 70
c-8 -7.33301 -17.6689 -14.002 -29.002 -20.002c-9.33301 -5.33301 -21.333 -10 -36 -14s-31.334 -6 -50.001 -6c-27.333 0 -53.5 5.66699 -78.5 17s-46.833 26.833 -65.5 46.5s-33.5 42.834 -44.5 69.501s-16.5 55.667 -16.5 87s5.5 60.333 16.5 87
s25.833 49.834 44.5 69.501s40.5 35.167 65.5 46.5s51.167 17 78.5 17c20 0 38.167 -2.83301 54.5 -8.5s30.5 -12.167 42.5 -19.5c14 -8 26.667 -17 38 -27l25 45h115v-415c0 -30 -5.66699 -58 -17 -84s-27.333 -48.833 -48 -68.5s-45.5 -35 -74.5 -46
s-60.833 -16.5 -95.5 -16.5c-24.667 0 -46.667 2.33301 -66 7s-36.666 10.667 -51.999 18s-28.833 15.833 -40.5 25.5s-21.5 19.5 -29.5 29.5c-19.333 23.333 -33.333 50 -42 80l160 15c2.66699 -7.33301 7.33398 -14 14.001 -20c5.33301 -5.33301 12.5 -10 21.5 -14
s20.5 -6 34.5 -6c22.667 0 40.834 7 54.501 21s20.5 33.667 20.5 59v25z" />
    <glyph glyph-name="h" unicode="h" horiz-adv-x="545" 
d="M320 470c27.333 0 52.334 -4.5 75.001 -13.5s42.167 -22.167 58.5 -39.5s29 -38.333 38 -63s13.5 -52.667 13.5 -84v-270h-160v240c0 25.333 -6.66699 45 -20 59s-30 21 -50 21s-36.667 -7 -50 -21s-20 -33.667 -20 -59v-240h-160v630h160v-205
c8.66699 8 19 15.333 31 22c10 5.33301 22.167 10.5 36.5 15.5s30.166 7.5 47.499 7.5z" />
    <glyph glyph-name="i" unicode="i" horiz-adv-x="250" 
d="M45 460h160v-460h-160v460zM40 585c0 22.667 7.83301 41.667 23.5 57s36.167 23 61.5 23s45.833 -7.66699 61.5 -23s23.5 -34.333 23.5 -57s-7.83301 -41.667 -23.5 -57s-36.167 -23 -61.5 -23s-45.833 7.66699 -61.5 23s-23.5 34.333 -23.5 57z" />
    <glyph glyph-name="j" unicode="j" horiz-adv-x="250" 
d="M205 10c0 -58 -15.332 -102.501 -45.999 -133.501s-73.667 -46.5 -129 -46.5c-10 0 -19.5 0.666992 -28.5 2s-17.167 3 -24.5 5c-8 2.66699 -15.333 5.33398 -22 8.00098v140c3.33301 -1.33301 6.66602 -2.33301 9.99902 -3s7 -1.16699 11 -1.5s8.66699 -0.5 14 -0.5
c15.333 0 28.333 5.83301 39 17.5s16 27.5 16 47.5v415h160v-450zM210.001 584.999c0 -22.667 -7.83301 -41.667 -23.5 -57s-36.167 -23 -61.5 -23s-45.833 7.66699 -61.5 23s-23.5 34.333 -23.5 57s7.83301 41.667 23.5 57s36.167 23 61.5 23s45.833 -7.66699 61.5 -23
s23.5 -34.333 23.5 -57z" />
    <glyph glyph-name="k" unicode="k" horiz-adv-x="500" 
d="M325 0l-120 195v-195h-160v630h160v-350l105 180h180l-140 -220l155 -240h-180z" />
    <glyph glyph-name="l" unicode="l" horiz-adv-x="250" 
d="M205 0h-160v630h160v-630z" />
    <glyph glyph-name="m" unicode="m" horiz-adv-x="765" 
d="M565 470c48 0 86.665 -16 115.998 -48s44 -79.333 44 -142v-280h-160v250c0 25.333 -4.5 43.333 -13.5 54s-21.167 16 -36.5 16s-27.5 -5.33301 -36.5 -16s-13.5 -28.667 -13.5 -54v-250h-160v250c0 25.333 -4.5 43.333 -13.5 54s-21.167 16 -36.5 16
s-27.5 -5.33301 -36.5 -16s-13.5 -28.667 -13.5 -54v-250h-160v460h115l25 -45c10.667 10 22 19 34 27c10.667 7.33301 23.334 13.833 38.001 19.5s30.667 8.5 48 8.5c22.667 0 41.834 -3.16699 57.501 -9.5s28.5 -13.166 38.5 -20.499c12 -8.66699 21.667 -18.667 29 -30
c10.667 11.333 23 21.333 37 30c12 7.33301 26.333 14.166 43 20.499s35 9.5 55 9.5z" />
    <glyph glyph-name="n" unicode="n" horiz-adv-x="545" 
d="M320 470c27.333 0 52.333 -4.5 75 -13.5s42.167 -22.167 58.5 -39.5s29 -38.333 38 -63s13.5 -52.667 13.5 -84v-270h-160v240c0 25.333 -6.66699 45 -20 59s-30 21 -50 21s-36.667 -7 -50 -21s-20 -33.667 -20 -59v-240h-160v460h115l25 -45c10.667 10 22.667 19 36 27
c11.333 7.33301 25.333 13.833 42 19.5s35.667 8.5 57 8.5z" />
    <glyph glyph-name="o" unicode="o" horiz-adv-x="540" 
d="M185 230c0 -25.333 8.5 -46.666 25.5 -63.999s36.833 -26 59.5 -26s42.5 8.66699 59.5 26s25.5 38.666 25.5 63.999s-8.5 46.666 -25.5 63.999s-36.833 26 -59.5 26s-42.5 -8.66699 -59.5 -26s-25.5 -38.666 -25.5 -63.999zM515 230c0 -34 -6.16699 -65.5 -18.5 -94.5
s-29.5 -54.333 -51.5 -76s-48 -38.667 -78 -51s-62.333 -18.5 -97 -18.5c-35.333 0 -67.833 6.16699 -97.5 18.5s-55.5 29.333 -77.5 51s-39.167 47 -51.5 76s-18.5 60.5 -18.5 94.5s6.16699 65.5 18.5 94.5s29.5 54.333 51.5 76s47.833 38.667 77.5 51
s62.167 18.5 97.5 18.5c34.667 0 67 -6.16699 97 -18.5s56 -29.333 78 -51s39.167 -47 51.5 -76s18.5 -60.5 18.5 -94.5z" />
    <glyph glyph-name="p" unicode="p" horiz-adv-x="555" 
d="M320 470c26 0 51.666 -6.16699 76.999 -18.5s47.833 -29.333 67.5 -51s35.5 -47 47.5 -76s18 -60.5 18 -94.5s-6 -65.5 -18 -94.5s-27.833 -54.333 -47.5 -76s-42.167 -38.667 -67.5 -51s-51 -18.5 -77 -18.5c-17.333 0 -33.166 2 -47.499 6s-26.5 8.66699 -36.5 14
c-12 6 -22.333 12.667 -31 20v-190h-160v620h115l25 -45c10.667 10 23 19 37 27c12 7.33301 26.333 13.833 43 19.5s35 8.5 55 8.5zM199.999 230c0 -25.333 8.5 -46.666 25.5 -63.999s36.833 -26 59.5 -26s42.5 8.66699 59.5 26s25.5 38.666 25.5 63.999
s-8.5 46.666 -25.5 63.999s-36.833 26 -59.5 26s-42.5 -8.66699 -59.5 -26s-25.5 -38.666 -25.5 -63.999z" />
    <glyph glyph-name="q" unicode="q" horiz-adv-x="555" 
d="M235 470c20 0 38.166 -2.83301 54.499 -8.5s30.5 -12.167 42.5 -19.5c14 -8 26.667 -17 38 -27l25 45h115v-620h-160v190c-8.66699 -7.33301 -19 -14 -31 -20c-10 -5.33301 -22.167 -10 -36.5 -14s-30.166 -6 -47.499 -6c-26 0 -51.667 6.16699 -77 18.5
s-47.833 29.333 -67.5 51s-35.5 47 -47.5 76s-18 60.5 -18 94.5s6 65.5 18 94.5s27.833 54.333 47.5 76s42.167 38.667 67.5 51s51 18.5 77 18.5zM354.999 230c0 25.333 -8.5 46.666 -25.5 63.999s-36.833 26 -59.5 26s-42.5 -8.66699 -59.5 -26
s-25.5 -38.666 -25.5 -63.999s8.5 -46.666 25.5 -63.999s36.833 -26 59.5 -26s42.5 8.66699 59.5 26s25.5 38.666 25.5 63.999z" />
    <glyph glyph-name="r" unicode="r" horiz-adv-x="360" 
d="M290 470c7.33301 0 13.999 -0.5 19.999 -1.5s11.333 -2.16699 16 -3.5c5.33301 -2 10 -3.66699 14 -5v-165c-4.66699 1.33301 -10 3 -16 5c-5.33301 1.33301 -11.333 2.5 -18 3.5s-13.667 1.5 -21 1.5c-22.667 0 -41.667 -8 -57 -24s-23 -38 -23 -66v-215h-160v460h115
l25 -45c8 10 17.333 19 28 27c9.33301 7.33301 20.333 13.833 33 19.5s27.334 8.5 44.001 8.5z" />
    <glyph glyph-name="s" unicode="s" horiz-adv-x="455" 
d="M170 155c2 -7.33301 5.33301 -14.001 10 -20.001c3.33301 -5.33301 8.33301 -10 15 -14s15 -6 25 -6c15.333 0 26.666 3.16699 33.999 9.5s11 13.166 11 20.499c0 6.66699 -5.83301 12.167 -17.5 16.5s-26.167 8.83301 -43.5 13.5s-36.166 10.334 -56.499 17.001
s-39.166 15.5 -56.499 26.5s-31.833 25 -43.5 42s-17.5 38.5 -17.5 64.5c0 18.667 4.33301 36.667 13 54s21 32.833 37 46.5s35.833 24.5 59.5 32.5s50.5 12 80.5 12c64.667 0 113.334 -13.5 146.001 -40.5s54 -61.833 64 -104.5l-150 -15c-2 6 -4.66699 11.667 -8 17
c-3.33301 4.66699 -7.83301 8.83398 -13.5 12.501s-13.5 5.5 -23.5 5.5c-23.333 0 -35 -8.33301 -35 -25c0 -6.66699 5.83301 -12 17.5 -16s26.167 -8.33301 43.5 -13l56.5 -16c20.333 -6 39.166 -14.667 56.499 -26s31.833 -25.666 43.5 -42.999s17.5 -39.333 17.5 -66
c0 -20 -4.33301 -39 -13 -57s-21.5 -34 -38.5 -48s-37.833 -25 -62.5 -33s-53.334 -12 -86.001 -12c-67.333 0 -117.5 13.667 -150.5 41s-54.5 63.666 -64.5 108.999z" />
    <glyph glyph-name="t" unicode="t" horiz-adv-x="385" 
d="M85 315h-64.999v135h30c36.667 0 55 18.333 55 55v65h140v-110h95v-145h-95v-110c0 -20 5.33301 -35.833 16 -47.5s23.667 -17.5 39 -17.5c5.33301 0 10 0.166992 14 0.5s7.66699 0.833008 11 1.5s6.66602 1.66699 9.99902 3v-140l-23 -8
c-7.33301 -2 -15.333 -3.66699 -24 -5s-18 -2 -28 -2c-55.333 0 -98.333 15.5 -129 46.5s-46 75.5 -46 133.5v145z" />
    <glyph glyph-name="u" unicode="u" horiz-adv-x="550" 
d="M230 -10c-27.333 0 -52.333 4.49902 -75 13.499s-42.167 22.167 -58.5 39.5s-29 38.333 -38 63s-13.5 52.667 -13.5 84v270h160v-240c0 -25.333 6.66699 -45 20 -59s30 -21 50 -21s36.667 7 50 21s20 33.667 20 59v240h160v-460h-115l-25 45
c-10.667 -10.667 -22.667 -20 -36 -28c-11.333 -7.33301 -25.333 -13.666 -42 -18.999s-35.667 -8 -57 -8z" />
    <glyph glyph-name="v" unicode="v" horiz-adv-x="510" 
d="M170 460l85 -285l85 285h170l-165 -460h-180l-165 460h170z" />
    <glyph glyph-name="w" unicode="w" horiz-adv-x="720" 
d="M290 0h-135l-155 460h165l65 -250l75 250h110l75 -250l65 250h165l-155 -460h-135l-70 235z" />
    <glyph glyph-name="x" unicode="x" horiz-adv-x="480" 
d="M240 340l65 120h170l-135 -225l150 -235h-175l-75 130l-75 -130h-175l150 235l-135 225h170z" />
    <glyph glyph-name="y" unicode="y" horiz-adv-x="500" 
d="M-5 460l170 -0.000976562l85 -260l85 260h170l-180 -460c-20.667 -52.667 -47 -94.167 -79 -124.5s-70.667 -45.5 -116 -45.5c-15.333 0 -29 1.66699 -41 5c-6.66699 1.33301 -13 3 -19 5v140h25c15.333 0 27.333 2.33301 36 7s15.667 9.66699 21 15
c6 6.66699 10.333 14.334 13 23.001z" />
    <glyph glyph-name="z" unicode="z" horiz-adv-x="460" 
d="M210 310h-175v150h385v-130l-175 -180h185v-150h-395v130z" />
    <glyph glyph-name="braceleft" unicode="{" horiz-adv-x="370" 
d="M30 290c17.333 0 31.666 5.66992 42.999 17.0029s17 25.666 17 42.999v100c0 120 60 180 180 180h70v-165h-30c-15.333 0 -27.5 -4.5 -36.5 -13.5s-13.5 -21.167 -13.5 -36.5v-75c0 -22.667 -3.66699 -41.334 -11 -56.001s-15.333 -26.334 -24 -35.001
c-10.667 -10.667 -22.334 -18.667 -35.001 -24c12.667 -6 24.334 -14 35.001 -24c8.66699 -9.33301 16.667 -21.166 24 -35.499s11 -32.833 11 -55.5v-75c0 -15.333 4.5 -27.5 13.5 -36.5s21.167 -13.5 36.5 -13.5h30v-165h-70c-120 0 -180 60 -180 180v100
c0 17.333 -5.66699 31.666 -17 42.999s-25.666 17 -42.999 17v130z" />
    <glyph glyph-name="bar" unicode="|" horiz-adv-x="405" 
d="M285 -160h-165v790h165v-790z" />
    <glyph glyph-name="braceright" unicode="}" horiz-adv-x="370" 
d="M340 160c-17.333 0 -31.666 -5.66992 -42.999 -17.0029s-17 -25.666 -17 -42.999v-100c0 -120 -60 -180 -180 -180h-70v165h30c15.333 0 27.5 4.5 36.5 13.5s13.5 21.167 13.5 36.5v75c0 22.667 3.5 41.167 10.5 55.5s15.167 26.166 24.5 35.499c10 10 21.667 18 35 24
c-13.333 5.33301 -25 13.333 -35 24c-9.33301 8.66699 -17.5 20.334 -24.5 35.001s-10.5 33.334 -10.5 56.001v75c0 15.333 -4.5 27.5 -13.5 36.5s-21.167 13.5 -36.5 13.5h-30v165h70c120 0 180 -60 180 -180v-100c0 -17.333 5.66699 -31.666 17 -42.999
s25.666 -17 42.999 -17v-130z" />
    <glyph glyph-name="asciitilde" unicode="~" horiz-adv-x="475" 
d="M465 350c0 -30 -3.5 -56.333 -10.5 -79s-16.5 -41.5 -28.5 -56.5s-25.833 -26.167 -41.5 -33.5s-32.167 -11 -49.5 -11s-33.5 2.66699 -48.5 8s-29 11 -42 17l-35.5 17c-10.667 5.33301 -20.334 8 -29.001 8c-25.333 0 -40.333 -15 -45 -45l-125 10
c0 30 3.5 56.167 10.5 78.5s16.5 41 28.5 56s25.833 26.333 41.5 34s32.167 11.5 49.5 11.5s33.5 -2.66699 48.5 -8s29 -11 42 -17l35.5 -17c10.667 -5.33301 20.334 -8 29.001 -8c24.667 0 39.667 15 45 45z" />
    <glyph glyph-name="nonbreakingspace" unicode="&#xa0;" horiz-adv-x="235" 
 />
    <glyph glyph-name="exclamdown" unicode="&#xa1;" horiz-adv-x="290" 
d="M70 250h150l15 -410h-180zM230 380c0 -11.333 -2.33301 -22.166 -7 -32.499s-10.834 -19.333 -18.501 -27s-16.667 -13.834 -27 -18.501s-21.166 -7 -32.499 -7s-22.166 2.33301 -32.499 7s-19.333 10.834 -27 18.501s-13.834 16.667 -18.501 27s-7 21.166 -7 32.499
s2.33301 22.166 7 32.499s10.834 19.333 18.501 27s16.667 13.834 27 18.501s21.166 7 32.499 7s22.166 -2.33301 32.499 -7s19.333 -10.834 27 -18.501s13.834 -16.667 18.501 -27s7 -21.166 7 -32.499z" />
    <glyph glyph-name="cent" unicode="&#xa2;" horiz-adv-x="520" 
d="M190 5c-24 7.33301 -46 18.3291 -66 32.9961s-37.333 32 -52 52s-26.167 41.833 -34.5 65.5s-12.5 48.5 -12.5 74.5s4.16699 50.833 12.5 74.5s19.833 45.5 34.5 65.5s32 37.333 52 52s42 25.667 66 33v80h160v-75c32.667 -11.333 58.834 -26.666 78.501 -45.999
s34.834 -38.666 45.501 -57.999c12 -22 20.667 -45.667 26 -71l-155 -15c-4 9.33301 -9.66699 17.666 -17 24.999c-6 6 -13.833 11.667 -23.5 17s-21.167 8 -34.5 8c-22.667 0 -42.5 -8.66699 -59.5 -26s-25.5 -38.666 -25.5 -63.999s8.5 -46.666 25.5 -63.999
s36.833 -26 59.5 -26c13.333 0 24.833 2.5 34.5 7.5s17.5 10.833 23.5 17.5c7.33301 7.33301 13 15.666 17 24.999l155 -15c-5.33301 -25.333 -14 -49 -26 -71c-10.667 -19.333 -25.834 -38.666 -45.501 -57.999s-45.834 -34.666 -78.501 -45.999v-80h-160v85z" />
    <glyph glyph-name="sterling" unicode="&#xa3;" horiz-adv-x="540" 
d="M260 240c0 -12.667 -1.66992 -23.501 -5.00293 -32.501s-6.66602 -16.167 -9.99902 -21.5c-4.66699 -6.66699 -9.66699 -12 -15 -16h280v-170h-480v170c36.667 0 55 18.333 55 55v15h-45v130h45v60c0 31.333 5.16699 59.833 15.5 85.5s24.833 47.834 43.5 66.501
s41.167 33 67.5 43s55.833 15 88.5 15c34 0 64.833 -5.16699 92.5 -15.5s51.334 -24.5 71.001 -42.5s34.834 -38.833 45.501 -62.5s16 -48.5 16 -74.5l-165 -15c0 20 -4.5 35 -13.5 45s-21.167 15 -36.5 15s-27.5 -5 -36.5 -15s-13.5 -25 -13.5 -45v-60h125v-130h-125z" />
    <glyph glyph-name="currency" unicode="&#xa4;" horiz-adv-x="590" 
d="M330 630c36 0 68.5 -5.33301 97.5 -16s53.667 -25 74 -43s36 -39.167 47 -63.5s16.5 -50.166 16.5 -77.499c0 -25.333 -5.5 -49.333 -16.5 -72s-26.667 -42.834 -47 -60.501s-45 -31.667 -74 -42s-61.5 -15.5 -97.5 -15.5h-70v-35h160v-125h-160v-80h-175v80h-60v125h60
v35h-60v130h60v260h245zM315 370c22.667 0 40 5.66895 52 17.002s18 25.666 18 42.999s-6 31.666 -18 42.999s-29.333 17 -52 17h-55v-120h55z" />
    <glyph glyph-name="yen" unicode="&#xa5;" horiz-adv-x="595" 
d="M90 350h55l-150 280h190l113 -230l112 230h190l-150 -280h55v-120h-120v-35h120v-120h-120v-75h-175v75h-120v120h120v35h-120v120z" />
    <glyph glyph-name="brokenbar" unicode="&#xa6;" horiz-adv-x="405" 
d="M285 630v-310h-165v310h165zM120 150h165v-310h-165v310z" />
    <glyph glyph-name="section" unicode="&#xa7;" horiz-adv-x="500" 
d="M380 120c9.33301 -8 17.666 -17.334 24.999 -28.001c6 -9.33301 11.667 -20.5 17 -33.5s8 -27.5 8 -43.5c0 -18.667 -4 -36.5 -12 -53.5s-19.833 -31.833 -35.5 -44.5s-35 -22.834 -58 -30.501s-49.5 -11.5 -79.5 -11.5c-55.333 0 -99 14.5 -131 43.5
s-51.667 66.167 -59 111.5l140 15c0 -15.333 4.33301 -27.5 13 -36.5s19.334 -13.5 32.001 -13.5s22.5 3.33301 29.5 10s10.5 15 10.5 25c0 11.333 -6 21 -18 29s-26.833 15.667 -44.5 23l-57.5 24c-20.667 8.66699 -39.834 19.834 -57.501 33.501s-32.5 30.5 -44.5 50.5
s-18 45 -18 75c0 21.333 4.16699 40 12.5 56s17.5 29.667 27.5 41c12 12.667 25.333 23.667 40 33c-9.33301 8 -17.666 17.333 -24.999 28c-6.66699 9.33301 -12.5 20.333 -17.5 33s-7.5 27.334 -7.5 44.001c0 18.667 4 36.5 12 53.5s19.833 31.833 35.5 44.5
s35 22.834 58 30.501s49.5 11.5 79.5 11.5c55.333 0 99 -14.5 131 -43.5s51.667 -66.167 59 -111.5l-140 -15c0 14.667 -4.33301 26.667 -13 36s-19.334 14 -32.001 14s-22.5 -3.33301 -29.5 -10s-10.5 -15 -10.5 -25c0 -12 6 -21.833 18 -29.5s26.833 -15.167 44.5 -22.5
l57.5 -24c20.667 -8.66699 39.834 -19.834 57.501 -33.501s32.5 -30.5 44.5 -50.5s18 -45 18 -75c0 -21.333 -4.16699 -40 -12.5 -56s-17.5 -29.667 -27.5 -41c-12 -12.667 -25.333 -23.667 -40 -33zM225 319.999c-6 -3.33301 -10.999 -7.00098 -14.999 -11.001
s-7.5 -8.83301 -10.5 -14.5s-4.5 -12.167 -4.5 -19.5c0 -17.333 7 -33.166 21 -47.499s33.667 -25.166 59 -32.499c5.33301 2.66699 10.333 6.33398 15 11.001c3.33301 3.33301 6.66602 8 9.99902 14s5 12.667 5 20c0 17.333 -7 33.166 -21 47.499
s-33.667 25.166 -59 32.499z" />
    <glyph glyph-name="dieresis" unicode="&#xa8;" horiz-adv-x="410" 
d="M190 575c0 -22.667 -7.66699 -41.667 -23 -57s-34.333 -23 -57 -23s-41.667 7.66699 -57 23s-23 34.333 -23 57s7.66699 41.667 23 57s34.333 23 57 23s41.667 -7.66699 57 -23s23 -34.333 23 -57zM380 575c0 -22.667 -7.66699 -41.667 -23 -57s-34.333 -23 -57 -23
s-41.667 7.66699 -57 23s-23 34.333 -23 57s7.66699 41.667 23 57s34.333 23 57 23s41.667 -7.66699 57 -23s23 -34.333 23 -57z" />
    <glyph glyph-name="copyright" unicode="&#xa9;" horiz-adv-x="740" 
d="M305 315c0 -22.667 6.66699 -40.832 20 -54.499s30 -20.5 50 -20.5c12.667 0 22.834 2.33301 30.501 7s13.834 9.66699 18.501 15c5.33301 6.66699 9 14.334 11 23.001l100 -10c-6 -25.333 -16 -48 -30 -68c-12 -17.333 -28.667 -32.833 -50 -46.5
s-49.666 -20.5 -84.999 -20.5c-24 0 -46.333 4.5 -67 13.5s-38.667 21.167 -54 36.5s-27.333 33.666 -36 54.999s-13 44.666 -13 69.999c0 24.667 4.33301 47.834 13 69.501s20.667 40.167 36 55.5s33.333 27.5 54 36.5s43 13.5 67 13.5c35.333 0 63.666 -7 84.999 -21
s38 -29.667 50 -47c14 -20 24 -42.333 30 -67l-100 -10c-2 8 -5.66699 15.333 -11 22c-4.66699 5.33301 -10.834 10.5 -18.501 15.5s-17.834 7.5 -30.501 7.5c-20 0 -36.667 -6.83301 -50 -20.5s-20 -31.834 -20 -54.501zM135 315.002c0 -32.667 6.16699 -63.167 18.5 -91.5
s29.166 -53.166 50.499 -74.499s46.166 -38.166 74.499 -50.499s58.833 -18.5 91.5 -18.5s63.167 6.16699 91.5 18.5s53.166 29.166 74.499 50.499s38.166 46.166 50.499 74.499s18.5 58.833 18.5 91.5s-6.16699 63.167 -18.5 91.5s-29.166 53.166 -50.499 74.499
s-46.166 38.166 -74.499 50.499s-58.833 18.5 -91.5 18.5s-63.167 -6.16699 -91.5 -18.5s-53.166 -29.166 -74.499 -50.499s-38.166 -46.166 -50.499 -74.499s-18.5 -58.833 -18.5 -91.5zM700 315.002c0 -45.333 -8.5 -87.666 -25.5 -126.999s-40.333 -73.666 -70 -102.999
s-64.667 -52.5 -105 -69.5s-83.5 -25.5 -129.5 -25.5s-89.167 8.5 -129.5 25.5s-75.333 40.167 -105 69.5s-53 63.666 -70 102.999s-25.5 81.666 -25.5 126.999c0 44.667 8.5 86.834 25.5 126.501s40.333 74.167 70 103.5s64.667 52.5 105 69.5s83.5 25.5 129.5 25.5
s89.167 -8.5 129.5 -25.5s75.333 -40.167 105 -69.5s53 -63.833 70 -103.5s25.5 -81.834 25.5 -126.501z" />
    <glyph glyph-name="ordfeminine" unicode="&#xaa;" horiz-adv-x="325" 
d="M170 635c40 0 70.834 -10.333 92.501 -31s32.5 -48.667 32.5 -84v-165h-70l-15 30c-6.66699 -6.66699 -14.334 -12.667 -23.001 -18c-7.33301 -4.66699 -16.5 -8.66699 -27.5 -12s-24.167 -5 -39.5 -5c-30 0 -53.333 7.66699 -70 23s-25 34.333 -25 57
c0 14 2.83301 26.667 8.5 38s15 21.333 28 30s30.333 15.334 52 20.001s48.834 7 81.501 7c0 5.33301 -1.33301 10.333 -4 15c-2 3.33301 -5 6.66602 -9 9.99902s-9.66699 5 -17 5c-5.33301 0 -9.5 -0.833008 -12.5 -2.5s-5.5 -3.5 -7.5 -5.5
c-2.66699 -2.66699 -4.33398 -5 -5.00098 -7h-95c0 25.333 10.833 47.5 32.5 66.5s52.5 28.5 92.5 28.5zM150.001 420c12.667 0 23.333 4.16602 32 12.499s13 17.5 13 27.5v10c-28 0 -46.667 -3.16699 -56 -9.5s-14 -13.166 -14 -20.499c0 -5.33301 2.33301 -10 7 -14
s10.667 -6 18 -6z" />
    <glyph glyph-name="guillemotleft" unicode="&#xab;" horiz-adv-x="560" 
d="M310 395l-120 -170l120 -170h-160l-120 170l120 170h160zM530 395l-120 -170l120 -170h-160l-120 170l120 170h160z" />
    <glyph glyph-name="logicalnot" unicode="&#xac;" horiz-adv-x="500" 
d="M300 260h-265v150h425v-255h-160v105z" />
    <glyph glyph-name="uni00AD" unicode="&#xad;" horiz-adv-x="390" 
d="M350 180h-310v150h310v-150z" />
    <glyph glyph-name="registered" unicode="&#xae;" horiz-adv-x="740" 
d="M700 315c0 -45.333 -8.5 -87.666 -25.5 -126.999s-40.333 -73.666 -70 -102.999s-64.667 -52.5 -105 -69.5s-83.5 -25.5 -129.5 -25.5s-89.167 8.5 -129.5 25.5s-75.333 40.167 -105 69.5s-53 63.666 -70 102.999s-25.5 81.666 -25.5 126.999
c0 44.667 8.5 86.834 25.5 126.501s40.333 74.167 70 103.5s64.667 52.5 105 69.5s83.5 25.5 129.5 25.5s89.167 -8.5 129.5 -25.5s75.333 -40.167 105 -69.5s53 -63.833 70 -103.5s25.5 -81.834 25.5 -126.501zM515 370c0 -17.333 -2.83691 -31.6699 -8.50391 -43.0029
s-12.167 -20.666 -19.5 -27.999c-8 -8 -17 -14.333 -27 -19l87 -120c18 21.333 32.167 45 42.5 71s15.5 54 15.5 84c0 32.667 -6.16699 63.167 -18.5 91.5s-29.166 53.166 -50.499 74.499s-46.166 38.166 -74.499 50.499s-58.833 18.5 -91.5 18.5
s-63.167 -6.16699 -91.5 -18.5s-53.166 -29.166 -74.499 -50.499s-38.166 -46.166 -50.499 -74.499s-18.5 -58.833 -18.5 -91.5s6.16699 -63.167 18.5 -91.5s29.166 -53.166 50.499 -74.499s46.166 -38.166 74.499 -50.499s58.833 -18.5 91.5 -18.5
s63.334 6.16699 92.001 18.5s53.667 29.5 75 51.5h-97l-70 105h-25v-105h-95v330h145c17.333 0 33.333 -3 48 -9s27.334 -14 38.001 -24s19 -21.667 25 -35s9 -27.333 9 -42zM379.996 344.996c23.333 0 35 8.33301 35 25s-11.667 25 -35 25h-35v-50h35z" />
    <glyph glyph-name="macron" unicode="&#xaf;" horiz-adv-x="340" 
d="M310 515h-280v120h280v-120z" />
    <glyph glyph-name="degree" unicode="&#xb0;" horiz-adv-x="330" 
d="M300 500c0 -18.667 -3.5 -36 -10.5 -52s-16.667 -29.667 -29 -41s-26.666 -20.333 -42.999 -27s-33.833 -10 -52.5 -10s-36.167 3.33301 -52.5 10s-30.666 15.667 -42.999 27s-22 25 -29 41s-10.5 33.333 -10.5 52s3.5 36 10.5 52s16.667 29.667 29 41
s26.666 20.333 42.999 27s33.833 10 52.5 10s36.167 -3.33301 52.5 -10s30.666 -15.667 42.999 -27s22 -25 29 -41s10.5 -33.333 10.5 -52zM120 500c0 -12.667 4.33301 -23.334 13 -32.001s19.334 -13 32.001 -13s23.334 4.33301 32.001 13s13 19.334 13 32.001
s-4.33301 23.334 -13 32.001s-19.334 13 -32.001 13s-23.334 -4.33301 -32.001 -13s-13 -19.334 -13 -32.001z" />
    <glyph glyph-name="plusminus" unicode="&#xb1;" horiz-adv-x="480" 
d="M445 0h-410v150h130v90h-130v150h130v134h150v-134h130v-150h-130v-90h130v-150z" />
    <glyph glyph-name="twosuperior" unicode="&#xb2;" horiz-adv-x="285" 
d="M265 500l-0.000976562 -90.001h-245v70l105 90c6 5.33301 11.667 10.666 17 15.999c4.66699 4.66699 8.83398 9.83398 12.501 15.501s5.5 11.834 5.5 18.501c0 5.33301 -1.5 10 -4.5 14s-8.16699 6 -15.5 6c-16.667 0 -25 -10 -25 -30l-100 10
c2.66699 30 15.167 55 37.5 75s54.833 30 97.5 30c38 0 67.5 -9.66699 88.5 -29s31.5 -43 31.5 -71c0 -20 -4.16699 -36.333 -12.5 -49s-17.5 -23 -27.5 -31l-55 -45h90z" />
    <glyph glyph-name="threesuperior" unicode="&#xb3;" horiz-adv-x="290" 
d="M10 625c5.33301 30 18.498 54.168 39.498 72.501s52.833 27.5 95.5 27.5c20 0 37.833 -2.5 53.5 -7.5s28.667 -11.833 39 -20.5s18.333 -18.334 24 -29.001s8.5 -21.667 8.5 -33c0 -10 -2 -19.167 -6 -27.5s-8.66699 -15.166 -14 -20.499
c-6 -6.66699 -12.667 -12.334 -20 -17.001c8 -4 15.333 -9.33301 22 -16c5.33301 -5.33301 10.5 -12.5 15.5 -21.5s7.5 -19.833 7.5 -32.5c0 -25.333 -11 -47.5 -33 -66.5s-54.333 -28.5 -97 -28.5c-45.333 0 -78.666 9.16699 -99.999 27.5s-34.666 42.5 -39.999 72.5
l105 10c0 -16.667 9.33301 -25 28 -25c8.66699 0 15.334 2 20.001 6s7 8.66699 7 14s-1.83301 10 -5.5 14s-11.834 6 -24.501 6h-30v70h30c7.33301 0 13.333 2 18 6s7 8.66699 7 14s-2.33301 10 -7 14s-10.667 6 -18 6c-16.667 0 -25 -8.33301 -25 -25z" />
    <glyph glyph-name="acute" unicode="&#xb4;" horiz-adv-x="290" 
d="M95 640h165l-100 -140h-130z" />
    <glyph glyph-name="mu" unicode="&#xb5;" horiz-adv-x="550" 
d="M45 460l160 -0.000976562v-248c1.33301 -22.667 8.5 -40.334 21.5 -53.001s29.167 -19 48.5 -19c20 0 36.667 7 50 21s20 33.667 20 59v240h160v-460h-115l-25 45c-7.33301 -10.667 -16 -20 -26 -28c-9.33301 -7.33301 -20.5 -13.666 -33.5 -18.999s-28.167 -8 -45.5 -8
c-14.667 0 -27.667 2.33301 -39 7c-6 2.66699 -11.333 5.33398 -16 8.00098v-165h-160v620z" />
    <glyph glyph-name="paragraph" unicode="&#xb6;" horiz-adv-x="575" 
d="M520 630v-720h-130v570h-60v-570h-130v370c-25.333 0 -48.833 4.66699 -70.5 14s-40.667 22 -57 38s-29.166 34.5 -38.499 55.5s-14 43.5 -14 67.5s4.66699 46.5 14 67.5s22.166 39.5 38.499 55.5s35.333 28.667 57 38s45.167 14 70.5 14h320z" />
    <glyph glyph-name="periodcentered" unicode="&#xb7;" horiz-adv-x="235" 
d="M200 315c0 -11.333 -2.33301 -22.166 -7 -32.499s-10.834 -19.333 -18.501 -27s-16.667 -13.834 -27 -18.501s-21.166 -7 -32.499 -7s-22.166 2.33301 -32.499 7s-19.333 10.834 -27 18.501s-13.834 16.667 -18.501 27s-7 21.166 -7 32.499s2.33301 22.166 7 32.499
s10.834 19.333 18.501 27s16.667 13.834 27 18.501s21.166 7 32.499 7s22.166 -2.33301 32.499 -7s19.333 -10.834 27 -18.501s13.834 -16.667 18.501 -27s7 -21.166 7 -32.499z" />
    <glyph glyph-name="cedilla" unicode="&#xb8;" horiz-adv-x="265" 
d="M135 -40c18.667 -2 35.3311 -6.66504 49.998 -13.998c12.667 -6 24.167 -14.667 34.5 -26s15.5 -26.333 15.5 -45c0 -25.333 -11.167 -46.666 -33.5 -63.999s-56.166 -26 -101.499 -26c-20 0 -36.667 1.66699 -50 5c-7.33301 1.33301 -14 3 -20 5v55
c3.33301 -1.33301 7.33301 -2.33301 12 -3c3.33301 -0.666992 7.5 -1.16699 12.5 -1.5s10.167 -0.5 15.5 -0.5c20 0 34.167 3.5 42.5 10.5s12.5 16.833 12.5 29.5c0 7.33301 -3.66699 14.166 -11 20.499s-18.666 9.5 -33.999 9.5c-4 0 -7.5 -0.333008 -10.5 -1
s-5.5 -1.33398 -7.5 -2.00098c-2.66699 -0.666992 -5 -1.33398 -7 -2.00098l35 90h65z" />
    <glyph glyph-name="onesuperior" unicode="&#xb9;" horiz-adv-x="260" 
d="M195 720v-310h-110v180l-25 -15l-50 75l115 70h70z" />
    <glyph glyph-name="ordmasculine" unicode="&#xba;" horiz-adv-x="330" 
d="M130 495c0 -15.333 3.33301 -26.666 10 -33.999s15 -11 25 -11s18.333 3.66699 25 11s10 18.666 10 33.999s-3.33301 26.666 -10 33.999s-15 11 -25 11s-18.333 -3.66699 -25 -11s-10 -18.666 -10 -33.999zM310 495c0 -18.667 -3.83301 -36.5 -11.5 -53.5
s-18 -31.833 -31 -44.5s-28.333 -22.834 -46 -30.501s-36.5 -11.5 -56.5 -11.5s-38.833 3.83301 -56.5 11.5s-33 17.834 -46 30.501s-23.333 27.5 -31 44.5s-11.5 34.833 -11.5 53.5s3.83301 36.5 11.5 53.5s18 31.833 31 44.5s28.333 22.834 46 30.501s36.5 11.5 56.5 11.5
s38.833 -3.83301 56.5 -11.5s33 -17.834 46 -30.501s23.333 -27.5 31 -44.5s11.5 -34.833 11.5 -53.5z" />
    <glyph glyph-name="guillemotright" unicode="&#xbb;" horiz-adv-x="560" 
d="M410 395l120 -170l-120 -170h-160l120 170l-120 170h160zM190 395l120 -170l-120 -170h-160l120 170l-120 170h160z" />
    <glyph glyph-name="onequarter" unicode="&#xbc;" horiz-adv-x="655" 
d="M575 630l-385 -630h-135l385 630h135zM195 630v-310h-110v180l-25 -15l-50 75l115 70h70zM635 60h-35v-60h-110v60h-135v65l115 185h130v-160h35v-90zM500 145v75l-44 -75h44z" />
    <glyph glyph-name="onehalf" unicode="&#xbd;" horiz-adv-x="665" 
d="M575 630l-385 -630h-135l385 630h135zM195 630v-310h-110v180l-25 -15l-50 75l115 70h70zM630 90l-0.000976562 -90.001h-245v70l105 90c6 5.33301 11.667 10.666 17 15.999c4.66699 4.66699 8.83398 9.83398 12.501 15.501s5.5 11.834 5.5 18.501
c0 5.33301 -1.5 10 -4.5 14s-8.16699 6 -15.5 6c-16.667 0 -25 -10 -25 -30l-100 10c2.66699 30 15.167 55 37.5 75s54.833 30 97.5 30c38 0 67.5 -9.66699 88.5 -29s31.5 -43 31.5 -71c0 -20 -4.16699 -36.333 -12.5 -49s-17.5 -23 -27.5 -31l-55 -45h90z" />
    <glyph glyph-name="threequarters" unicode="&#xbe;" horiz-adv-x="695" 
d="M615 630l-385 -630h-135l385 630h135zM675 60h-35v-60h-110v60h-135v65l115 185h130v-160h35v-90zM540 145v75l-44 -75h44zM15 535c5.33301 30 18.498 54.168 39.498 72.501s52.833 27.5 95.5 27.5c20 0 37.833 -2.5 53.5 -7.5s28.667 -11.833 39 -20.5
s18.333 -18.334 24 -29.001s8.5 -21.667 8.5 -33c0 -10 -2 -19.167 -6 -27.5s-8.66699 -15.166 -14 -20.499c-6 -6.66699 -12.667 -12.334 -20 -17.001c8 -4 15.333 -9.33301 22 -16c5.33301 -5.33301 10.5 -12.5 15.5 -21.5s7.5 -19.833 7.5 -32.5
c0 -25.333 -11 -47.5 -33 -66.5s-54.333 -28.5 -97 -28.5c-45.333 0 -78.666 9.16699 -99.999 27.5s-34.666 42.5 -39.999 72.5l105 10c0 -16.667 9.33301 -25 28 -25c8.66699 0 15.334 2 20.001 6s7 8.66699 7 14s-1.83301 10 -5.5 14s-11.834 6 -24.501 6h-30v70h30
c7.33301 0 13.333 2 18 6s7 8.66699 7 14s-2.33301 10 -7 14s-10.667 6 -18 6c-16.667 0 -25 -8.33301 -25 -25z" />
    <glyph glyph-name="questiondown" unicode="&#xbf;" horiz-adv-x="465" 
d="M10 10c0 30 6.99902 54.1689 20.999 72.502s29.833 35.333 47.5 51s34.167 32.167 49.5 49.5s24.333 39.666 27 66.999h160c0 -36 -6.5 -65.667 -19.5 -89s-27.333 -42.833 -43 -58.5s-30 -28.834 -43 -39.501s-19.5 -21.667 -19.5 -33c0 -26.667 15 -40 45 -40
c12.667 0 24.167 5.83301 34.5 17.5s15.5 27.5 15.5 47.5l170 -20c-1.33301 -28.667 -7.66602 -55.5 -18.999 -80.5s-26.833 -46.667 -46.5 -65s-43 -32.833 -70 -43.5s-56.833 -16 -89.5 -16c-34 0 -64.5 5 -91.5 15s-50 23.167 -69 39.5s-33.667 35.333 -44 57
s-15.5 44.5 -15.5 68.5zM149.999 380.002c0 11.333 2.33301 22.166 7 32.499s10.834 19.333 18.501 27s16.667 13.834 27 18.501s21.166 7 32.499 7s22.166 -2.33301 32.499 -7s19.333 -10.834 27 -18.501s13.834 -16.667 18.501 -27s7 -21.166 7 -32.499
s-2.33301 -22.166 -7 -32.499s-10.834 -19.333 -18.501 -27s-16.667 -13.834 -27 -18.501s-21.166 -7 -32.499 -7s-22.166 2.33301 -32.499 7s-19.333 10.834 -27 18.501s-13.834 16.667 -18.501 27s-7 21.166 -7 32.499z" />
    <glyph glyph-name="Agrave" unicode="&#xc0;" horiz-adv-x="620" 
d="M310 435l-55 -180h110zM215 115l-35 -115h-185l215 630h200l215 -630h-185l-35 115h-190zM375 695h-130l-100 140h165z" />
    <glyph glyph-name="Aacute" unicode="&#xc1;" horiz-adv-x="620" 
d="M310 435l-55 -180h110zM215 115l-35 -115h-185l215 630h200l215 -630h-185l-35 115h-190zM315 835h165l-100 -140h-130z" />
    <glyph glyph-name="Acircumflex" unicode="&#xc2;" horiz-adv-x="620" 
d="M310 435l-55 -180h110zM215 115l-35 -115h-185l215 630h200l215 -630h-185l-35 115h-190zM310 755l-45 -60h-130l105 140h140l105 -140h-130z" />
    <glyph glyph-name="Atilde" unicode="&#xc3;" horiz-adv-x="620" 
d="M310 435l-55 -180h110zM215 115l-35 -115h-185l215 630h200l215 -630h-185l-35 115h-190zM155 695c0 47.333 8.66895 81.667 26.002 103s38.666 32 63.999 32c14 0 25.833 -2.16699 35.5 -6.5s18.167 -9 25.5 -14l20.5 -13.5c6.33301 -4 12.5 -6 18.5 -6
c20 0 30 11.667 30 35l95 -10c0 -24 -2.33301 -44.5 -7 -61.5s-11 -31 -19 -42s-17.5 -19 -28.5 -24s-22.833 -7.5 -35.5 -7.5c-14 0 -25.833 2 -35.5 6s-18.334 8.5 -26.001 13.5s-14.5 9.66699 -20.5 14s-12 6.5 -18 6.5c-20 0 -30 -11.667 -30 -35z" />
    <glyph glyph-name="Adieresis" unicode="&#xc4;" horiz-adv-x="620" 
d="M310 435l-55 -180h110zM215 115l-35 -115h-185l215 630h200l215 -630h-185l-35 115h-190zM295 760c0 -22.667 -7.66699 -41.667 -23 -57s-34.333 -23 -57 -23s-41.667 7.66699 -57 23s-23 34.333 -23 57s7.66699 41.667 23 57s34.333 23 57 23s41.667 -7.66699 57 -23
s23 -34.333 23 -57zM485 760c0 -22.667 -7.66699 -41.667 -23 -57s-34.333 -23 -57 -23s-41.667 7.66699 -57 23s-23 34.333 -23 57s7.66699 41.667 23 57s34.333 23 57 23s41.667 -7.66699 57 -23s23 -34.333 23 -57z" />
    <glyph glyph-name="Aring" unicode="&#xc5;" horiz-adv-x="620" 
d="M310 435l-55 -180h110zM215 115l-35 -115h-185l215 630h200l215 -630h-185l-35 115h-190zM345 770c0 10 -3.33301 18.333 -10 25s-15 10 -25 10s-18.333 -3.33301 -25 -10s-10 -15 -10 -25s3.33301 -18.333 10 -25s15 -10 25 -10s18.333 3.33301 25 10s10 15 10 25z
M415 770c0 -30 -9.33301 -54.167 -28 -72.5s-44.334 -27.5 -77.001 -27.5s-58.334 9.16699 -77.001 27.5s-28 42.5 -28 72.5s9.33301 54.167 28 72.5s44.334 27.5 77.001 27.5s58.334 -9.16699 77.001 -27.5s28 -42.5 28 -72.5z" />
    <glyph glyph-name="AE" unicode="&#xc6;" horiz-adv-x="875" 
d="M390 115h-175l-55 -115h-190l310 630h550v-155h-265v-80h240v-150h-240v-90h275v-155h-450v115zM390 475l-100 -205h100v205z" />
    <glyph glyph-name="Ccedilla" unicode="&#xc7;" horiz-adv-x="670" 
d="M350 160c22.667 0 41.6621 4.16992 56.9951 12.5029s27.666 17.5 36.999 27.5c11.333 12 20 25.333 26 40l180 -15c-6 -27.333 -17.167 -54.5 -33.5 -81.5s-36.666 -51.333 -60.999 -73s-52.333 -39.667 -84 -54s-65.5 -22.833 -101.5 -25.5l-15 -31
c18.667 -2 35.334 -6.66699 50.001 -14c12.667 -6 24.167 -14.667 34.5 -26s15.5 -26.333 15.5 -45c0 -25.333 -11.167 -46.666 -33.5 -63.999s-56.166 -26 -101.499 -26c-20 0 -36.667 1.66699 -50 5c-7.33301 1.33301 -14 3 -20 5v55
c3.33301 -1.33301 7.33301 -2.33301 12 -3c3.33301 -0.666992 7.5 -1.16699 12.5 -1.5s10.167 -0.5 15.5 -0.5c20 0 34.167 3.5 42.5 10.5s12.5 16.833 12.5 29.5c0 7.33301 -3.66699 14.166 -11 20.499s-18.666 9.5 -33.999 9.5c-7.33301 0 -13.166 -0.833008 -17.499 -2.5
s-6.83301 -2.5 -7.5 -2.5l32 83c-40 4.66699 -76.833 16.167 -110.5 34.5s-62.834 41.666 -87.501 69.999s-44 61 -58 98s-21 76.833 -21 119.5c0 46 8.16699 88.833 24.5 128.5s39 74 68 103s62.833 51.833 101.5 68.5s80.667 25 126 25
c38.667 0 74.834 -6.83301 108.501 -20.5s63.667 -31.667 90 -54s48.333 -47.5 66 -75.5s29.5 -56.333 35.5 -85l-180 -15c-6 14.667 -14.667 28 -26 40c-9.33301 10 -21.666 19.167 -36.999 27.5s-34.333 12.5 -57 12.5c-20 0 -38.833 -3.83301 -56.5 -11.5
s-33 -18.334 -46 -32.001s-23.333 -30 -31 -49s-11.5 -39.833 -11.5 -62.5s3.83301 -43.5 11.5 -62.5s18 -35.333 31 -49s28.333 -24.334 46 -32.001s36.5 -11.5 56.5 -11.5z" />
    <glyph glyph-name="Egrave" unicode="&#xc8;" horiz-adv-x="570" 
d="M55 630h470v-155h-295v-80h270v-150h-270v-90h305v-155h-480v630zM375 695h-130l-100 140h165z" />
    <glyph glyph-name="Eacute" unicode="&#xc9;" horiz-adv-x="570" 
d="M55 630h470v-155h-295v-80h270v-150h-270v-90h305v-155h-480v630zM290 835h165l-100 -140h-130z" />
    <glyph glyph-name="Ecircumflex" unicode="&#xca;" horiz-adv-x="570" 
d="M55 630h470v-155h-295v-80h270v-150h-270v-90h305v-155h-480v630zM290 755l-45 -60h-130l105 140h140l105 -140h-130z" />
    <glyph glyph-name="Edieresis" unicode="&#xcb;" horiz-adv-x="570" 
d="M55 630h470v-155h-295v-80h270v-150h-270v-90h305v-155h-480v630zM290 760c0 -22.667 -7.66699 -41.667 -23 -57s-34.333 -23 -57 -23s-41.667 7.66699 -57 23s-23 34.333 -23 57s7.66699 41.667 23 57s34.333 23 57 23s41.667 -7.66699 57 -23s23 -34.333 23 -57z
M480 760c0 -22.667 -7.66699 -41.667 -23 -57s-34.333 -23 -57 -23s-41.667 7.66699 -57 23s-23 34.333 -23 57s7.66699 41.667 23 57s34.333 23 57 23s41.667 -7.66699 57 -23s23 -34.333 23 -57z" />
    <glyph glyph-name="Igrave" unicode="&#xcc;" horiz-adv-x="285" 
d="M230 0h-175v630h175v-630zM210 695h-130l-100 140h165z" />
    <glyph glyph-name="Iacute" unicode="&#xcd;" horiz-adv-x="285" 
d="M230 0h-175v630h175v-630zM135 835h165l-100 -140h-130z" />
    <glyph glyph-name="Icircumflex" unicode="&#xce;" horiz-adv-x="285" 
d="M230 0h-175v630h175v-630zM145 755l-45 -60h-130l105 140h140l105 -140h-130z" />
    <glyph glyph-name="Idieresis" unicode="&#xcf;" horiz-adv-x="285" 
d="M230 0h-175v630h175v-630zM130 760c0 -22.667 -7.66699 -41.667 -23 -57s-34.333 -23 -57 -23s-41.667 7.66699 -57 23s-23 34.333 -23 57s7.66699 41.667 23 57s34.333 23 57 23s41.667 -7.66699 57 -23s23 -34.333 23 -57zM320 760c0 -22.667 -7.66699 -41.667 -23 -57
s-34.333 -23 -57 -23s-41.667 7.66699 -57 23s-23 34.333 -23 57s7.66699 41.667 23 57s34.333 23 57 23s41.667 -7.66699 57 -23s23 -34.333 23 -57z" />
    <glyph glyph-name="Eth" unicode="&#xd0;" horiz-adv-x="660" 
d="M80 240h-60v140h60v250h230c46 0 88.667 -8 128 -24s73.166 -38 101.499 -66s50.5 -61.333 66.5 -100s24 -80.334 24 -125.001c0 -45.333 -8 -87.166 -24 -125.499s-38.167 -71.5 -66.5 -99.5s-62.166 -50 -101.499 -66s-82 -24 -128 -24h-230v240zM310 160
c20 0 38.833 3.83105 56.5 11.498s33 18.334 46 32.001s23.333 30 31 49s11.5 39.833 11.5 62.5s-3.83301 43.5 -11.5 62.5s-18 35.333 -31 49s-28.333 24.334 -46 32.001s-36.5 11.5 -56.5 11.5h-55v-90h85v-140h-85v-80h55z" />
    <glyph glyph-name="Ntilde" unicode="&#xd1;" horiz-adv-x="675" 
d="M620 630v-630h-160l-230 325v-325h-175v630h160l230 -325v325h175zM190 705c0 47.333 8.66895 81.667 26.002 103s38.666 32 63.999 32c14 0 25.833 -2.16699 35.5 -6.5s18.167 -9 25.5 -14l20.5 -13.5c6.33301 -4 12.5 -6 18.5 -6c20 0 30 11.667 30 35l95 -10
c0 -24 -2.33301 -44.5 -7 -61.5s-11 -31 -19 -42s-17.5 -19 -28.5 -24s-22.833 -7.5 -35.5 -7.5c-14 0 -25.833 2 -35.5 6s-18.334 8.5 -26.001 13.5s-14.5 9.66699 -20.5 14s-12 6.5 -18 6.5c-20 0 -30 -11.667 -30 -35z" />
    <glyph glyph-name="Ograve" unicode="&#xd2;" horiz-adv-x="700" 
d="M205 315c0 -22.667 3.83301 -43.5 11.5 -62.5s18 -35.333 31 -49s28.333 -24.334 46 -32.001s36.5 -11.5 56.5 -11.5s38.833 3.83301 56.5 11.5s33 18.334 46 32.001s23.333 30 31 49s11.5 39.833 11.5 62.5s-3.83301 43.5 -11.5 62.5s-18 35.333 -31 49
s-28.333 24.334 -46 32.001s-36.5 11.5 -56.5 11.5s-38.833 -3.83301 -56.5 -11.5s-33 -18.334 -46 -32.001s-23.333 -30 -31 -49s-11.5 -39.833 -11.5 -62.5zM670 315c0 -46 -8.16699 -88.833 -24.5 -128.5s-39 -74 -68 -103s-63 -51.833 -102 -68.5
s-80.833 -25 -125.5 -25c-45.333 0 -87.333 8.33301 -126 25s-72.5 39.5 -101.5 68.5s-51.667 63.333 -68 103s-24.5 82.5 -24.5 128.5s8.16699 88.833 24.5 128.5s39 74 68 103s62.833 51.833 101.5 68.5s80.667 25 126 25c44.667 0 86.5 -8.33301 125.5 -25
s73 -39.5 102 -68.5s51.667 -63.333 68 -103s24.5 -82.5 24.5 -128.5zM420 695h-130l-100 140h165z" />
    <glyph glyph-name="Oacute" unicode="&#xd3;" horiz-adv-x="700" 
d="M205 315c0 -22.667 3.83301 -43.5 11.5 -62.5s18 -35.333 31 -49s28.333 -24.334 46 -32.001s36.5 -11.5 56.5 -11.5s38.833 3.83301 56.5 11.5s33 18.334 46 32.001s23.333 30 31 49s11.5 39.833 11.5 62.5s-3.83301 43.5 -11.5 62.5s-18 35.333 -31 49
s-28.333 24.334 -46 32.001s-36.5 11.5 -56.5 11.5s-38.833 -3.83301 -56.5 -11.5s-33 -18.334 -46 -32.001s-23.333 -30 -31 -49s-11.5 -39.833 -11.5 -62.5zM670 315c0 -46 -8.16699 -88.833 -24.5 -128.5s-39 -74 -68 -103s-63 -51.833 -102 -68.5
s-80.833 -25 -125.5 -25c-45.333 0 -87.333 8.33301 -126 25s-72.5 39.5 -101.5 68.5s-51.667 63.333 -68 103s-24.5 82.5 -24.5 128.5s8.16699 88.833 24.5 128.5s39 74 68 103s62.833 51.833 101.5 68.5s80.667 25 126 25c44.667 0 86.5 -8.33301 125.5 -25
s73 -39.5 102 -68.5s51.667 -63.333 68 -103s24.5 -82.5 24.5 -128.5zM355 835h165l-100 -140h-130z" />
    <glyph glyph-name="Ocircumflex" unicode="&#xd4;" horiz-adv-x="700" 
d="M205 315c0 -22.667 3.83301 -43.5 11.5 -62.5s18 -35.333 31 -49s28.333 -24.334 46 -32.001s36.5 -11.5 56.5 -11.5s38.833 3.83301 56.5 11.5s33 18.334 46 32.001s23.333 30 31 49s11.5 39.833 11.5 62.5s-3.83301 43.5 -11.5 62.5s-18 35.333 -31 49
s-28.333 24.334 -46 32.001s-36.5 11.5 -56.5 11.5s-38.833 -3.83301 -56.5 -11.5s-33 -18.334 -46 -32.001s-23.333 -30 -31 -49s-11.5 -39.833 -11.5 -62.5zM670 315c0 -46 -8.16699 -88.833 -24.5 -128.5s-39 -74 -68 -103s-63 -51.833 -102 -68.5
s-80.833 -25 -125.5 -25c-45.333 0 -87.333 8.33301 -126 25s-72.5 39.5 -101.5 68.5s-51.667 63.333 -68 103s-24.5 82.5 -24.5 128.5s8.16699 88.833 24.5 128.5s39 74 68 103s62.833 51.833 101.5 68.5s80.667 25 126 25c44.667 0 86.5 -8.33301 125.5 -25
s73 -39.5 102 -68.5s51.667 -63.333 68 -103s24.5 -82.5 24.5 -128.5zM350 755l-45 -60h-130l105 140h140l105 -140h-130z" />
    <glyph glyph-name="Otilde" unicode="&#xd5;" horiz-adv-x="700" 
d="M205 315c0 -22.667 3.83301 -43.5 11.5 -62.5s18 -35.333 31 -49s28.333 -24.334 46 -32.001s36.5 -11.5 56.5 -11.5s38.833 3.83301 56.5 11.5s33 18.334 46 32.001s23.333 30 31 49s11.5 39.833 11.5 62.5s-3.83301 43.5 -11.5 62.5s-18 35.333 -31 49
s-28.333 24.334 -46 32.001s-36.5 11.5 -56.5 11.5s-38.833 -3.83301 -56.5 -11.5s-33 -18.334 -46 -32.001s-23.333 -30 -31 -49s-11.5 -39.833 -11.5 -62.5zM670 315c0 -46 -8.16699 -88.833 -24.5 -128.5s-39 -74 -68 -103s-63 -51.833 -102 -68.5
s-80.833 -25 -125.5 -25c-45.333 0 -87.333 8.33301 -126 25s-72.5 39.5 -101.5 68.5s-51.667 63.333 -68 103s-24.5 82.5 -24.5 128.5s8.16699 88.833 24.5 128.5s39 74 68 103s62.833 51.833 101.5 68.5s80.667 25 126 25c44.667 0 86.5 -8.33301 125.5 -25
s73 -39.5 102 -68.5s51.667 -63.333 68 -103s24.5 -82.5 24.5 -128.5zM195 695c0 47.333 8.66895 81.667 26.002 103s38.666 32 63.999 32c14 0 25.833 -2.16699 35.5 -6.5s18.167 -9 25.5 -14l20.5 -13.5c6.33301 -4 12.5 -6 18.5 -6c20 0 30 11.667 30 35l95 -10
c0 -24 -2.33301 -44.5 -7 -61.5s-11 -31 -19 -42s-17.5 -19 -28.5 -24s-22.833 -7.5 -35.5 -7.5c-14 0 -25.833 2 -35.5 6s-18.334 8.5 -26.001 13.5s-14.5 9.66699 -20.5 14s-12 6.5 -18 6.5c-20 0 -30 -11.667 -30 -35z" />
    <glyph glyph-name="Odieresis" unicode="&#xd6;" horiz-adv-x="700" 
d="M205 315c0 -22.667 3.83301 -43.5 11.5 -62.5s18 -35.333 31 -49s28.333 -24.334 46 -32.001s36.5 -11.5 56.5 -11.5s38.833 3.83301 56.5 11.5s33 18.334 46 32.001s23.333 30 31 49s11.5 39.833 11.5 62.5s-3.83301 43.5 -11.5 62.5s-18 35.333 -31 49
s-28.333 24.334 -46 32.001s-36.5 11.5 -56.5 11.5s-38.833 -3.83301 -56.5 -11.5s-33 -18.334 -46 -32.001s-23.333 -30 -31 -49s-11.5 -39.833 -11.5 -62.5zM670 315c0 -46 -8.16699 -88.833 -24.5 -128.5s-39 -74 -68 -103s-63 -51.833 -102 -68.5
s-80.833 -25 -125.5 -25c-45.333 0 -87.333 8.33301 -126 25s-72.5 39.5 -101.5 68.5s-51.667 63.333 -68 103s-24.5 82.5 -24.5 128.5s8.16699 88.833 24.5 128.5s39 74 68 103s62.833 51.833 101.5 68.5s80.667 25 126 25c44.667 0 86.5 -8.33301 125.5 -25
s73 -39.5 102 -68.5s51.667 -63.333 68 -103s24.5 -82.5 24.5 -128.5zM340 760c0 -22.667 -7.66699 -41.667 -23 -57s-34.333 -23 -57 -23s-41.667 7.66699 -57 23s-23 34.333 -23 57s7.66699 41.667 23 57s34.333 23 57 23s41.667 -7.66699 57 -23s23 -34.333 23 -57z
M530 760c0 -22.667 -7.66699 -41.667 -23 -57s-34.333 -23 -57 -23s-41.667 7.66699 -57 23s-23 34.333 -23 57s7.66699 41.667 23 57s34.333 23 57 23s41.667 -7.66699 57 -23s23 -34.333 23 -57z" />
    <glyph glyph-name="multiply" unicode="&#xd7;" horiz-adv-x="490" 
d="M340 255l105 -100l-100 -95l-100 100l-100 -100l-100 95l105 100l-105 100l100 95l100 -100l100 100l100 -95z" />
    <glyph glyph-name="Oslash" unicode="&#xd8;" horiz-adv-x="700" 
d="M65 165c-6.66699 10.667 -12.668 23.6641 -18.001 38.9971c-4.66699 13.333 -8.66699 29.166 -12 47.499s-5 39.5 -5 63.5c0 46 8.16699 88.833 24.5 128.5s39 74 68 103s62.833 51.833 101.5 68.5s80.667 25 126 25c26 0 49.333 -2.5 70 -7.5s38 -10.167 52 -15.5
c16.667 -6.66699 31 -14 43 -22l40 40l125 -125l-45 -45c6 -11.333 11.667 -24.666 17 -39.999c4.66699 -13.333 8.83398 -29.166 12.501 -47.499s5.5 -39.166 5.5 -62.499c0 -46 -8.16699 -88.833 -24.5 -128.5s-39 -74 -68 -103s-63 -51.833 -102 -68.5
s-80.833 -25 -125.5 -25c-26.667 0 -50.167 2.33301 -70.5 7s-37.5 9.66699 -51.5 15c-16.667 6.66699 -31 14.334 -43 23.001l-40 -40l-125 125zM494.999 349.997l-185.001 -185.001c3.33301 -1.33301 7 -2.33301 11 -3c3.33301 -0.666992 7.33301 -1.16699 12 -1.5
s10.334 -0.5 17.001 -0.5c20 0 38.833 3.83301 56.5 11.5s33 18.334 46 32.001s23.333 30 31 49s11.5 39.833 11.5 62.5v35zM204.998 279.996l185 184.999c-3.33301 0.666992 -7 1.33398 -11 2.00098c-3.33301 0.666992 -7.5 1.33398 -12.5 2.00098s-10.5 1 -16.5 1
c-20 0 -38.833 -3.83301 -56.5 -11.5s-33 -18.334 -46 -32.001s-23.333 -30 -31 -49s-11.5 -39.833 -11.5 -62.5v-35z" />
    <glyph glyph-name="Ugrave" unicode="&#xd9;" horiz-adv-x="650" 
d="M225 630l0.00195312 -365c0 -32.667 9.16699 -58.334 27.5 -77.001s42.5 -28 72.5 -28s54.167 9.33301 72.5 28s27.5 44.334 27.5 77.001v365h175v-365c0 -42.667 -6.33301 -81 -19 -115s-30.834 -62.833 -54.501 -86.5s-52.5 -41.834 -86.5 -54.501
s-72.333 -19 -115 -19s-81 6.33301 -115 19s-62.833 30.834 -86.5 54.501s-41.834 52.5 -54.501 86.5s-19 72.333 -19 115v365h175zM400.002 695h-130l-100 140h165z" />
    <glyph glyph-name="Uacute" unicode="&#xda;" horiz-adv-x="650" 
d="M225 630l0.00195312 -365c0 -32.667 9.16699 -58.334 27.5 -77.001s42.5 -28 72.5 -28s54.167 9.33301 72.5 28s27.5 44.334 27.5 77.001v365h175v-365c0 -42.667 -6.33301 -81 -19 -115s-30.834 -62.833 -54.501 -86.5s-52.5 -41.834 -86.5 -54.501
s-72.333 -19 -115 -19s-81 6.33301 -115 19s-62.833 30.834 -86.5 54.501s-41.834 52.5 -54.501 86.5s-19 72.333 -19 115v365h175zM325.002 835h165l-100 -140h-130z" />
    <glyph glyph-name="Ucircumflex" unicode="&#xdb;" horiz-adv-x="650" 
d="M225 630l0.00195312 -365c0 -32.667 9.16699 -58.334 27.5 -77.001s42.5 -28 72.5 -28s54.167 9.33301 72.5 28s27.5 44.334 27.5 77.001v365h175v-365c0 -42.667 -6.33301 -81 -19 -115s-30.834 -62.833 -54.501 -86.5s-52.5 -41.834 -86.5 -54.501
s-72.333 -19 -115 -19s-81 6.33301 -115 19s-62.833 30.834 -86.5 54.501s-41.834 52.5 -54.501 86.5s-19 72.333 -19 115v365h175zM325.002 755l-45 -60h-130l105 140h140l105 -140h-130z" />
    <glyph glyph-name="Udieresis" unicode="&#xdc;" horiz-adv-x="650" 
d="M225 630l0.00195312 -365c0 -32.667 9.16699 -58.334 27.5 -77.001s42.5 -28 72.5 -28s54.167 9.33301 72.5 28s27.5 44.334 27.5 77.001v365h175v-365c0 -42.667 -6.33301 -81 -19 -115s-30.834 -62.833 -54.501 -86.5s-52.5 -41.834 -86.5 -54.501
s-72.333 -19 -115 -19s-81 6.33301 -115 19s-62.833 30.834 -86.5 54.501s-41.834 52.5 -54.501 86.5s-19 72.333 -19 115v365h175zM310.002 760c0 -22.667 -7.66699 -41.667 -23 -57s-34.333 -23 -57 -23s-41.667 7.66699 -57 23s-23 34.333 -23 57s7.66699 41.667 23 57
s34.333 23 57 23s41.667 -7.66699 57 -23s23 -34.333 23 -57zM500.002 760c0 -22.667 -7.66699 -41.667 -23 -57s-34.333 -23 -57 -23s-41.667 7.66699 -57 23s-23 34.333 -23 57s7.66699 41.667 23 57s34.333 23 57 23s41.667 -7.66699 57 -23s23 -34.333 23 -57z" />
    <glyph glyph-name="Yacute" unicode="&#xdd;" horiz-adv-x="595" 
d="M210 230l-215 400h190l113 -230l112 230h190l-215 -400v-230h-175v230zM300 835h165l-100 -140h-130z" />
    <glyph glyph-name="Thorn" unicode="&#xde;" horiz-adv-x="630" 
d="M230 630v-90h140c34.667 0 66.5 -5.5 95.5 -16.5s53.833 -26.333 74.5 -46s36.667 -42.5 48 -68.5s17 -54 17 -84s-5.66699 -58 -17 -84s-27.333 -48.833 -48 -68.5s-45.5 -35 -74.5 -46s-60.833 -16.5 -95.5 -16.5h-140v-110h-175v630h175zM355 270
c22.667 0 40 5.33301 52 16s18 23.667 18 39s-6 28.333 -18 39s-29.333 16 -52 16h-125v-110h125z" />
    <glyph glyph-name="germandbls" unicode="&#xdf;" horiz-adv-x="550" 
d="M425 340c18.667 -8.66699 35.333 -20.3369 50 -35.0039c12.667 -12.667 24.167 -29.167 34.5 -49.5s15.5 -45.5 15.5 -75.5c0 -25.333 -4.83301 -48.833 -14.5 -70.5s-23 -40.667 -40 -57s-37.5 -29.166 -61.5 -38.499s-50.333 -14 -79 -14h-70v145h50
c17.333 0 30.833 4.5 40.5 13.5s14.5 21.167 14.5 36.5s-4.83301 27.5 -14.5 36.5s-23.167 13.5 -40.5 13.5h-50v140c40 0 60 18.333 60 55c0 17.333 -5.33301 30.833 -16 40.5s-23.667 14.5 -39 14.5s-28.333 -5.66699 -39 -17s-16 -25.666 -16 -42.999v-435h-160v435
c0 28.667 5.33301 55.5 16 80.5s25.667 46.667 45 65s42.5 32.833 69.5 43.5s56.833 16 89.5 16s62 -4.66699 88 -14s48 -22.166 66 -38.499s31.833 -35.5 41.5 -57.5s14.5 -45.333 14.5 -70c0 -19.333 -2.83301 -36.166 -8.5 -50.499s-12.167 -26.833 -19.5 -37.5
c-8 -12 -17 -22.667 -27 -32z" />
    <glyph glyph-name="agrave" unicode="&#xe0;" horiz-adv-x="490" 
d="M250 470c30 0 57.3398 -4.66602 82.0068 -13.999s45.667 -22.5 63 -39.5s30.833 -37.167 40.5 -60.5s14.5 -48.666 14.5 -75.999v-280h-115c-4 6 -7.33301 11.667 -10 17l-8 14.5l-7 13.5c-12 -10.667 -25 -20 -39 -28c-12 -7.33301 -26.333 -13.666 -43 -18.999
s-34.334 -8 -53.001 -8c-24 0 -45.5 3.5 -64.5 10.5s-35.167 16.667 -48.5 29s-23.666 26.666 -30.999 42.999s-11 33.833 -11 52.5c0 21.333 4.66699 41.333 14 60s24.666 35 45.999 49s49.166 25.167 83.499 33.5s76.5 12.5 126.5 12.5c0 17.333 -4.33301 30.833 -13 40.5
s-19.334 14.5 -32.001 14.5c-10 0 -18.333 -1.83301 -25 -5.5s-11.667 -7.83398 -15 -12.501c-4.66699 -5.33301 -8 -11 -10 -17l-155 15c5.33301 28.667 16.666 54.334 33.999 77.001c7.33301 10 16.166 19.667 26.499 29s22.666 17.666 36.999 24.999
s30.666 13.166 48.999 17.499s39.5 6.5 63.5 6.5zM225.007 110.001c17.333 0 32.501 6.66406 45.501 19.9971s19.5 30 19.5 50v15c-22.667 0 -41.167 -1.16699 -55.5 -3.5s-25.5 -5.66602 -33.5 -9.99902s-13.5 -9.66602 -16.5 -15.999s-4.5 -13.166 -4.5 -20.499
c0 -10 3.66699 -18.333 11 -25s18.666 -10 33.999 -10zM325.008 514.998h-130l-100 140h165z" />
    <glyph glyph-name="aacute" unicode="&#xe1;" horiz-adv-x="490" 
d="M250 470c30 0 57.3398 -4.66602 82.0068 -13.999s45.667 -22.5 63 -39.5s30.833 -37.167 40.5 -60.5s14.5 -48.666 14.5 -75.999v-280h-115c-4 6 -7.33301 11.667 -10 17l-8 14.5l-7 13.5c-12 -10.667 -25 -20 -39 -28c-12 -7.33301 -26.333 -13.666 -43 -18.999
s-34.334 -8 -53.001 -8c-24 0 -45.5 3.5 -64.5 10.5s-35.167 16.667 -48.5 29s-23.666 26.666 -30.999 42.999s-11 33.833 -11 52.5c0 21.333 4.66699 41.333 14 60s24.666 35 45.999 49s49.166 25.167 83.499 33.5s76.5 12.5 126.5 12.5c0 17.333 -4.33301 30.833 -13 40.5
s-19.334 14.5 -32.001 14.5c-10 0 -18.333 -1.83301 -25 -5.5s-11.667 -7.83398 -15 -12.501c-4.66699 -5.33301 -8 -11 -10 -17l-155 15c5.33301 28.667 16.666 54.334 33.999 77.001c7.33301 10 16.166 19.667 26.499 29s22.666 17.666 36.999 24.999
s30.666 13.166 48.999 17.499s39.5 6.5 63.5 6.5zM225.007 110.001c17.333 0 32.501 6.66406 45.501 19.9971s19.5 30 19.5 50v15c-22.667 0 -41.167 -1.16699 -55.5 -3.5s-25.5 -5.66602 -33.5 -9.99902s-13.5 -9.66602 -16.5 -15.999s-4.5 -13.166 -4.5 -20.499
c0 -10 3.66699 -18.333 11 -25s18.666 -10 33.999 -10zM250.008 654.998h165l-100 -140h-130z" />
    <glyph glyph-name="acircumflex" unicode="&#xe2;" horiz-adv-x="490" 
d="M250 470c30 0 57.3398 -4.66602 82.0068 -13.999s45.667 -22.5 63 -39.5s30.833 -37.167 40.5 -60.5s14.5 -48.666 14.5 -75.999v-280h-115c-4 6 -7.33301 11.667 -10 17l-8 14.5l-7 13.5c-12 -10.667 -25 -20 -39 -28c-12 -7.33301 -26.333 -13.666 -43 -18.999
s-34.334 -8 -53.001 -8c-24 0 -45.5 3.5 -64.5 10.5s-35.167 16.667 -48.5 29s-23.666 26.666 -30.999 42.999s-11 33.833 -11 52.5c0 21.333 4.66699 41.333 14 60s24.666 35 45.999 49s49.166 25.167 83.499 33.5s76.5 12.5 126.5 12.5c0 17.333 -4.33301 30.833 -13 40.5
s-19.334 14.5 -32.001 14.5c-10 0 -18.333 -1.83301 -25 -5.5s-11.667 -7.83398 -15 -12.501c-4.66699 -5.33301 -8 -11 -10 -17l-155 15c5.33301 28.667 16.666 54.334 33.999 77.001c7.33301 10 16.166 19.667 26.499 29s22.666 17.666 36.999 24.999
s30.666 13.166 48.999 17.499s39.5 6.5 63.5 6.5zM225.007 110.001c17.333 0 32.501 6.66406 45.501 19.9971s19.5 30 19.5 50v15c-22.667 0 -41.167 -1.16699 -55.5 -3.5s-25.5 -5.66602 -33.5 -9.99902s-13.5 -9.66602 -16.5 -15.999s-4.5 -13.166 -4.5 -20.499
c0 -10 3.66699 -18.333 11 -25s18.666 -10 33.999 -10zM255.008 574.998l-45 -60h-130l105 140h140l105 -140h-130z" />
    <glyph glyph-name="atilde" unicode="&#xe3;" horiz-adv-x="490" 
d="M250 470c30 0 57.3398 -4.66602 82.0068 -13.999s45.667 -22.5 63 -39.5s30.833 -37.167 40.5 -60.5s14.5 -48.666 14.5 -75.999v-280h-115c-4 6 -7.33301 11.667 -10 17l-8 14.5l-7 13.5c-12 -10.667 -25 -20 -39 -28c-12 -7.33301 -26.333 -13.666 -43 -18.999
s-34.334 -8 -53.001 -8c-24 0 -45.5 3.5 -64.5 10.5s-35.167 16.667 -48.5 29s-23.666 26.666 -30.999 42.999s-11 33.833 -11 52.5c0 21.333 4.66699 41.333 14 60s24.666 35 45.999 49s49.166 25.167 83.499 33.5s76.5 12.5 126.5 12.5c0 17.333 -4.33301 30.833 -13 40.5
s-19.334 14.5 -32.001 14.5c-10 0 -18.333 -1.83301 -25 -5.5s-11.667 -7.83398 -15 -12.501c-4.66699 -5.33301 -8 -11 -10 -17l-155 15c5.33301 28.667 16.666 54.334 33.999 77.001c7.33301 10 16.166 19.667 26.499 29s22.666 17.666 36.999 24.999
s30.666 13.166 48.999 17.499s39.5 6.5 63.5 6.5zM225.007 110.001c17.333 0 32.501 6.66406 45.501 19.9971s19.5 30 19.5 50v15c-22.667 0 -41.167 -1.16699 -55.5 -3.5s-25.5 -5.66602 -33.5 -9.99902s-13.5 -9.66602 -16.5 -15.999s-4.5 -13.166 -4.5 -20.499
c0 -10 3.66699 -18.333 11 -25s18.666 -10 33.999 -10zM100.008 514.998c0 47.333 8.66895 81.667 26.002 103s38.666 32 63.999 32c14 0 25.833 -2.16699 35.5 -6.5s18.167 -9 25.5 -14l20.5 -13.5c6.33301 -4 12.5 -6 18.5 -6c20 0 30 11.667 30 35l95 -10
c0 -24 -2.33301 -44.5 -7 -61.5s-11 -31 -19 -42s-17.5 -19 -28.5 -24s-22.833 -7.5 -35.5 -7.5c-14 0 -25.833 2 -35.5 6s-18.334 8.5 -26.001 13.5s-14.5 9.66699 -20.5 14s-12 6.5 -18 6.5c-20 0 -30 -11.667 -30 -35z" />
    <glyph glyph-name="adieresis" unicode="&#xe4;" horiz-adv-x="490" 
d="M250 470c30 0 57.3398 -4.66602 82.0068 -13.999s45.667 -22.5 63 -39.5s30.833 -37.167 40.5 -60.5s14.5 -48.666 14.5 -75.999v-280h-115c-4 6 -7.33301 11.667 -10 17l-8 14.5l-7 13.5c-12 -10.667 -25 -20 -39 -28c-12 -7.33301 -26.333 -13.666 -43 -18.999
s-34.334 -8 -53.001 -8c-24 0 -45.5 3.5 -64.5 10.5s-35.167 16.667 -48.5 29s-23.666 26.666 -30.999 42.999s-11 33.833 -11 52.5c0 21.333 4.66699 41.333 14 60s24.666 35 45.999 49s49.166 25.167 83.499 33.5s76.5 12.5 126.5 12.5c0 17.333 -4.33301 30.833 -13 40.5
s-19.334 14.5 -32.001 14.5c-10 0 -18.333 -1.83301 -25 -5.5s-11.667 -7.83398 -15 -12.501c-4.66699 -5.33301 -8 -11 -10 -17l-155 15c5.33301 28.667 16.666 54.334 33.999 77.001c7.33301 10 16.166 19.667 26.499 29s22.666 17.666 36.999 24.999
s30.666 13.166 48.999 17.499s39.5 6.5 63.5 6.5zM225.007 110.001c17.333 0 32.501 6.66406 45.501 19.9971s19.5 30 19.5 50v15c-22.667 0 -41.167 -1.16699 -55.5 -3.5s-25.5 -5.66602 -33.5 -9.99902s-13.5 -9.66602 -16.5 -15.999s-4.5 -13.166 -4.5 -20.499
c0 -10 3.66699 -18.333 11 -25s18.666 -10 33.999 -10zM240.008 584.998c0 -22.667 -7.66699 -41.667 -23 -57s-34.333 -23 -57 -23s-41.667 7.66699 -57 23s-23 34.333 -23 57s7.66699 41.667 23 57s34.333 23 57 23s41.667 -7.66699 57 -23s23 -34.333 23 -57z
M430.008 584.998c0 -22.667 -7.66699 -41.667 -23 -57s-34.333 -23 -57 -23s-41.667 7.66699 -57 23s-23 34.333 -23 57s7.66699 41.667 23 57s34.333 23 57 23s41.667 -7.66699 57 -23s23 -34.333 23 -57z" />
    <glyph glyph-name="aring" unicode="&#xe5;" horiz-adv-x="490" 
d="M250 470c30 0 57.3398 -4.66602 82.0068 -13.999s45.667 -22.5 63 -39.5s30.833 -37.167 40.5 -60.5s14.5 -48.666 14.5 -75.999v-280h-115c-4 6 -7.33301 11.667 -10 17l-8 14.5l-7 13.5c-12 -10.667 -25 -20 -39 -28c-12 -7.33301 -26.333 -13.666 -43 -18.999
s-34.334 -8 -53.001 -8c-24 0 -45.5 3.5 -64.5 10.5s-35.167 16.667 -48.5 29s-23.666 26.666 -30.999 42.999s-11 33.833 -11 52.5c0 21.333 4.66699 41.333 14 60s24.666 35 45.999 49s49.166 25.167 83.499 33.5s76.5 12.5 126.5 12.5c0 17.333 -4.33301 30.833 -13 40.5
s-19.334 14.5 -32.001 14.5c-10 0 -18.333 -1.83301 -25 -5.5s-11.667 -7.83398 -15 -12.501c-4.66699 -5.33301 -8 -11 -10 -17l-155 15c5.33301 28.667 16.666 54.334 33.999 77.001c7.33301 10 16.166 19.667 26.499 29s22.666 17.666 36.999 24.999
s30.666 13.166 48.999 17.499s39.5 6.5 63.5 6.5zM225.007 110.001c17.333 0 32.501 6.66406 45.501 19.9971s19.5 30 19.5 50v15c-22.667 0 -41.167 -1.16699 -55.5 -3.5s-25.5 -5.66602 -33.5 -9.99902s-13.5 -9.66602 -16.5 -15.999s-4.5 -13.166 -4.5 -20.499
c0 -10 3.66699 -18.333 11 -25s18.666 -10 33.999 -10zM285.008 599.998c0 10 -3.33301 18.333 -10 25s-15 10 -25 10s-18.333 -3.33301 -25 -10s-10 -15 -10 -25s3.33301 -18.333 10 -25s15 -10 25 -10s18.333 3.33301 25 10s10 15 10 25zM355.008 599.998
c0 -30 -9.33301 -54.167 -28 -72.5s-44.334 -27.5 -77.001 -27.5s-58.334 9.16699 -77.001 27.5s-28 42.5 -28 72.5s9.33301 54.167 28 72.5s44.334 27.5 77.001 27.5s58.334 -9.16699 77.001 -27.5s28 -42.5 28 -72.5z" />
    <glyph glyph-name="ae" unicode="&#xe6;" horiz-adv-x="780" 
d="M740 140c-6 -18.667 -14.9912 -36.9961 -26.9912 -54.9961s-27 -34 -45 -48s-39.333 -25.333 -64 -34s-52.667 -13 -84 -13c-25.333 0 -47 3.16699 -65 9.5s-33 13.166 -45 20.499c-14 8.66699 -25.667 18.667 -35 30c-11.333 -11.333 -25.666 -21.333 -42.999 -30
c-14.667 -7.33301 -33.334 -14.166 -56.001 -20.499s-49.667 -9.5 -81 -9.5c-28.667 0 -54 3.5 -76 10.5s-40.333 16.667 -55 29s-25.667 26.666 -33 42.999s-11 33.833 -11 52.5c0 21.333 4.66699 41.333 14 60s24.666 35 45.999 49s49.166 25.167 83.499 33.5
s76.5 12.5 126.5 12.5c0 17.333 -4.33301 30.833 -13 40.5s-19.334 14.5 -32.001 14.5c-10 0 -18.333 -1.83301 -25 -5.5s-11.667 -7.83398 -15 -12.501c-4.66699 -5.33301 -8 -11 -10 -17l-155 15c5.33301 28.667 16.666 54.334 33.999 77.001
c7.33301 10 16.166 19.667 26.499 29s22.666 17.666 36.999 24.999s30.666 13.166 48.999 17.499s39.5 6.5 63.5 6.5s44.333 -2.66699 61 -8s30.667 -11 42 -17c12.667 -7.33301 23.334 -15.666 32.001 -24.999c10.667 9.33301 22.667 17.666 36 24.999
c11.333 6 25.333 11.667 42 17s35.667 8 57 8c32.667 0 63.167 -5.83301 91.5 -17.5s53.166 -28 74.499 -49s38.166 -45.833 50.499 -74.5s18.5 -60 18.5 -94c0 -6.66699 -0.333008 -12.834 -1 -18.501s-1.33398 -10.834 -2.00098 -15.501l-2 -16h-305
c3.33301 -11.333 8.33301 -21.333 15 -30c5.33301 -7.33301 12.833 -14.166 22.5 -20.499s22.167 -9.5 37.5 -9.5c11.333 0 20.833 1.5 28.5 4.5s13.834 6.5 18.501 10.5c5.33301 4 9.66602 9 12.999 15zM515.009 340.004c-20 0 -36.8311 -6.5 -50.498 -19.5
s-21.834 -28.167 -24.501 -45.5h150c-2.66699 17.333 -10.834 32.5 -24.501 45.5s-30.5 19.5 -50.5 19.5zM225.011 110.004c17.333 0 32.501 6.66406 45.501 19.9971s19.5 30 19.5 50v15c-22.667 0 -41.167 -1.16699 -55.5 -3.5s-25.5 -5.66602 -33.5 -9.99902
s-13.5 -9.66602 -16.5 -15.999s-4.5 -13.166 -4.5 -20.499c0 -10 3.66699 -18.333 11 -25s18.666 -10 33.999 -10z" />
    <glyph glyph-name="ccedilla" unicode="&#xe7;" horiz-adv-x="520" 
d="M270 470c24.667 0 46.998 -2.66797 66.998 -8.00098s37.667 -12.333 53 -21s28.833 -18.667 40.5 -30s21.5 -22.666 29.5 -33.999c18.667 -26.667 32 -57.334 40 -92.001l-155 -15c-4 9.33301 -9.66699 17.666 -17 24.999c-6 6 -13.833 11.667 -23.5 17
s-21.167 8 -34.5 8c-22.667 0 -42.5 -8.66699 -59.5 -26s-25.5 -38.666 -25.5 -63.999s8.5 -46.666 25.5 -63.999s36.833 -26 59.5 -26c13.333 0 24.833 2.5 34.5 7.5s17.5 10.833 23.5 17.5c7.33301 7.33301 13 15.666 17 24.999l155 -15
c-6.66699 -31.333 -18.334 -59.666 -35.001 -84.999c-14 -22 -34 -42.667 -60 -62s-60.667 -31.333 -104 -36l-16 -32c18.667 -2 35.334 -6.66699 50.001 -14c12.667 -6 24.167 -14.667 34.5 -26s15.5 -26.333 15.5 -45c0 -25.333 -11.167 -46.666 -33.5 -63.999
s-56.166 -26 -101.499 -26c-20 0 -36.667 1.66699 -50 5c-7.33301 1.33301 -14 3 -20 5v55c3.33301 -1.33301 7.33301 -2.33301 12 -3c3.33301 -0.666992 7.5 -1.16699 12.5 -1.5s10.167 -0.5 15.5 -0.5c20 0 34.167 3.5 42.5 10.5s12.5 16.833 12.5 29.5
c0 7.33301 -3.66699 14.166 -11 20.499s-18.666 9.5 -33.999 9.5c-7.33301 0 -13.166 -0.833008 -17.499 -2.5s-6.83301 -2.5 -7.5 -2.5l32 82c-30.667 4 -59 12.833 -85 26.5s-48.333 31 -67 52s-33.334 45 -44.001 72s-16 56.167 -16 87.5c0 34 6.16699 65.5 18.5 94.5
s29.5 54.333 51.5 76s47.833 38.667 77.5 51s62.167 18.5 97.5 18.5z" />
    <glyph glyph-name="egrave" unicode="&#xe8;" 
d="M490 140c-6 -18.667 -14.9971 -36.999 -26.9971 -54.999s-27 -34 -45 -48s-39.333 -25.333 -64 -34s-52.667 -13 -84 -13c-35.333 0 -67.833 6.16699 -97.5 18.5s-55.5 29.333 -77.5 51s-39.167 47 -51.5 76s-18.5 60.5 -18.5 94.5s6.16699 65.5 18.5 94.5
s29.5 54.333 51.5 76s47.833 38.667 77.5 51s62.167 18.5 97.5 18.5c32.667 0 63.167 -5.83301 91.5 -17.5s53.166 -28 74.499 -49s38.166 -45.833 50.499 -74.5s18.5 -60 18.5 -94c0 -6.66699 -0.333008 -12.834 -1 -18.501s-1.33398 -10.834 -2.00098 -15.501l-2 -16h-305
c3.33301 -11.333 8.33301 -21.333 15 -30c5.33301 -7.33301 12.833 -14.166 22.5 -20.499s22.167 -9.5 37.5 -9.5c11.333 0 20.833 1.5 28.5 4.5s13.834 6.5 18.501 10.5c5.33301 4 9.66602 9 12.999 15zM270.003 340.001c-20 0 -36.8311 -6.5 -50.498 -19.5
s-21.834 -28.167 -24.501 -45.5h150c-2.66699 17.333 -10.834 32.5 -24.501 45.5s-30.5 19.5 -50.5 19.5zM340.005 515.001h-130l-100 140h165z" />
    <glyph glyph-name="eacute" unicode="&#xe9;" 
d="M490 140c-6 -18.667 -14.9971 -36.999 -26.9971 -54.999s-27 -34 -45 -48s-39.333 -25.333 -64 -34s-52.667 -13 -84 -13c-35.333 0 -67.833 6.16699 -97.5 18.5s-55.5 29.333 -77.5 51s-39.167 47 -51.5 76s-18.5 60.5 -18.5 94.5s6.16699 65.5 18.5 94.5
s29.5 54.333 51.5 76s47.833 38.667 77.5 51s62.167 18.5 97.5 18.5c32.667 0 63.167 -5.83301 91.5 -17.5s53.166 -28 74.499 -49s38.166 -45.833 50.499 -74.5s18.5 -60 18.5 -94c0 -6.66699 -0.333008 -12.834 -1 -18.501s-1.33398 -10.834 -2.00098 -15.501l-2 -16h-305
c3.33301 -11.333 8.33301 -21.333 15 -30c5.33301 -7.33301 12.833 -14.166 22.5 -20.499s22.167 -9.5 37.5 -9.5c11.333 0 20.833 1.5 28.5 4.5s13.834 6.5 18.501 10.5c5.33301 4 9.66602 9 12.999 15zM270.003 340.001c-20 0 -36.8311 -6.5 -50.498 -19.5
s-21.834 -28.167 -24.501 -45.5h150c-2.66699 17.333 -10.834 32.5 -24.501 45.5s-30.5 19.5 -50.5 19.5zM265.005 655.001h165l-100 -140h-130z" />
    <glyph glyph-name="ecircumflex" unicode="&#xea;" 
d="M490 140c-6 -18.667 -14.9971 -36.999 -26.9971 -54.999s-27 -34 -45 -48s-39.333 -25.333 -64 -34s-52.667 -13 -84 -13c-35.333 0 -67.833 6.16699 -97.5 18.5s-55.5 29.333 -77.5 51s-39.167 47 -51.5 76s-18.5 60.5 -18.5 94.5s6.16699 65.5 18.5 94.5
s29.5 54.333 51.5 76s47.833 38.667 77.5 51s62.167 18.5 97.5 18.5c32.667 0 63.167 -5.83301 91.5 -17.5s53.166 -28 74.499 -49s38.166 -45.833 50.499 -74.5s18.5 -60 18.5 -94c0 -6.66699 -0.333008 -12.834 -1 -18.501s-1.33398 -10.834 -2.00098 -15.501l-2 -16h-305
c3.33301 -11.333 8.33301 -21.333 15 -30c5.33301 -7.33301 12.833 -14.166 22.5 -20.499s22.167 -9.5 37.5 -9.5c11.333 0 20.833 1.5 28.5 4.5s13.834 6.5 18.501 10.5c5.33301 4 9.66602 9 12.999 15zM270.003 340.001c-20 0 -36.8311 -6.5 -50.498 -19.5
s-21.834 -28.167 -24.501 -45.5h150c-2.66699 17.333 -10.834 32.5 -24.501 45.5s-30.5 19.5 -50.5 19.5zM270.005 575.001l-45 -60h-130l105 140h140l105 -140h-130z" />
    <glyph glyph-name="edieresis" unicode="&#xeb;" 
d="M490 140c-6 -18.667 -14.9971 -36.999 -26.9971 -54.999s-27 -34 -45 -48s-39.333 -25.333 -64 -34s-52.667 -13 -84 -13c-35.333 0 -67.833 6.16699 -97.5 18.5s-55.5 29.333 -77.5 51s-39.167 47 -51.5 76s-18.5 60.5 -18.5 94.5s6.16699 65.5 18.5 94.5
s29.5 54.333 51.5 76s47.833 38.667 77.5 51s62.167 18.5 97.5 18.5c32.667 0 63.167 -5.83301 91.5 -17.5s53.166 -28 74.499 -49s38.166 -45.833 50.499 -74.5s18.5 -60 18.5 -94c0 -6.66699 -0.333008 -12.834 -1 -18.501s-1.33398 -10.834 -2.00098 -15.501l-2 -16h-305
c3.33301 -11.333 8.33301 -21.333 15 -30c5.33301 -7.33301 12.833 -14.166 22.5 -20.499s22.167 -9.5 37.5 -9.5c11.333 0 20.833 1.5 28.5 4.5s13.834 6.5 18.501 10.5c5.33301 4 9.66602 9 12.999 15zM270.003 340.001c-20 0 -36.8311 -6.5 -50.498 -19.5
s-21.834 -28.167 -24.501 -45.5h150c-2.66699 17.333 -10.834 32.5 -24.501 45.5s-30.5 19.5 -50.5 19.5zM265.005 585.001c0 -22.667 -7.66699 -41.667 -23 -57s-34.333 -23 -57 -23s-41.667 7.66699 -57 23s-23 34.333 -23 57s7.66699 41.667 23 57s34.333 23 57 23
s41.667 -7.66699 57 -23s23 -34.333 23 -57zM455.005 585.001c0 -22.667 -7.66699 -41.667 -23 -57s-34.333 -23 -57 -23s-41.667 7.66699 -57 23s-23 34.333 -23 57s7.66699 41.667 23 57s34.333 23 57 23s41.667 -7.66699 57 -23s23 -34.333 23 -57z" />
    <glyph glyph-name="igrave" unicode="&#xec;" horiz-adv-x="250" 
d="M195 510h-130l-100 140h165zM205 0h-160v460h160v-460z" />
    <glyph glyph-name="iacute" unicode="&#xed;" horiz-adv-x="250" 
d="M125 650h165l-100 -140h-130zM205 0h-160v460h160v-460z" />
    <glyph glyph-name="icircumflex" unicode="&#xee;" horiz-adv-x="250" 
d="M205 0h-160v460h160v-460zM125 575l-45 -60h-130l105 140h140l105 -140h-130z" />
    <glyph glyph-name="idieresis" unicode="&#xef;" horiz-adv-x="250" 
d="M110 585c0 -22.667 -7.66699 -41.667 -23 -57s-34.333 -23 -57 -23s-41.667 7.66699 -57 23s-23 34.333 -23 57s7.66699 41.667 23 57s34.333 23 57 23s41.667 -7.66699 57 -23s23 -34.333 23 -57zM300 585c0 -22.667 -7.66699 -41.667 -23 -57s-34.333 -23 -57 -23
s-41.667 7.66699 -57 23s-23 34.333 -23 57s7.66699 41.667 23 57s34.333 23 57 23s41.667 -7.66699 57 -23s23 -34.333 23 -57zM205 0h-160v460h160v-460z" />
    <glyph glyph-name="eth" unicode="&#xf0;" horiz-adv-x="565" 
d="M235 465l-54.999 80.001l20 15c-4.66699 2.66699 -10.334 5.33398 -17.001 8.00098c-5.33301 2 -11.666 4.16699 -18.999 6.5s-15.333 4.16602 -24 5.49902l40 115c21.333 -2.66699 40.666 -6.83398 57.999 -12.501s32 -11.167 44 -16.5
c14 -6.66699 26.667 -13.667 38 -21l75 55l55 -80l-50 -35c24 -23.333 45.667 -50.333 65 -81c16 -26.667 30.833 -58.667 44.5 -96s20.5 -80 20.5 -128c0 -45.333 -6.5 -85.833 -19.5 -121.5s-30.833 -66 -53.5 -91s-49.667 -44.167 -81 -57.5s-65 -20 -101 -20
s-69.333 6.16699 -100 18.5s-57.167 29 -79.5 50s-39.666 45.333 -51.999 73s-18.5 57.167 -18.5 88.5s6.16699 60.833 18.5 88.5s28.666 52 48.999 73s44.166 37.667 71.499 50s56 18.5 86 18.5c18.667 0 35.334 -2 50.001 -6s26.667 -8.66699 36 -14
c11.333 -6 21 -12.667 29 -20c-5.33301 15.333 -12 28.833 -20 40.5s-15.667 22.167 -23 31.5c-8.66699 10 -17.667 19.333 -27 28zM185.001 220.001c0 -22.667 8 -41.667 24 -57s38 -23 66 -23s50 7.66699 66 23s24 34.333 24 57s-8 41.667 -24 57s-38 23 -66 23
s-50 -7.66699 -66 -23s-24 -34.333 -24 -57z" />
    <glyph glyph-name="ntilde" unicode="&#xf1;" horiz-adv-x="545" 
d="M320 470c27.333 0 52.333 -4.5 75 -13.5s42.167 -22.167 58.5 -39.5s29 -38.333 38 -63s13.5 -52.667 13.5 -84v-270h-160v240c0 25.333 -6.66699 45 -20 59s-30 21 -50 21s-36.667 -7 -50 -21s-20 -33.667 -20 -59v-240h-160v460h115l25 -45c10.667 10 22.667 19 36 27
c11.333 7.33301 25.333 13.833 42 19.5s35.667 8.5 57 8.5zM120 525c0 47.333 8.66895 81.667 26.002 103s38.666 32 63.999 32c14 0 25.833 -2.16699 35.5 -6.5s18.167 -9 25.5 -14l20.5 -13.5c6.33301 -4 12.5 -6 18.5 -6c20 0 30 11.667 30 35l95 -10
c0 -24 -2.33301 -44.5 -7 -61.5s-11 -31 -19 -42s-17.5 -19 -28.5 -24s-22.833 -7.5 -35.5 -7.5c-14 0 -25.833 2 -35.5 6s-18.334 8.5 -26.001 13.5s-14.5 9.66699 -20.5 14s-12 6.5 -18 6.5c-20 0 -30 -11.667 -30 -35z" />
    <glyph glyph-name="ograve" unicode="&#xf2;" horiz-adv-x="540" 
d="M185 230c0 -25.333 8.5 -46.666 25.5 -63.999s36.833 -26 59.5 -26s42.5 8.66699 59.5 26s25.5 38.666 25.5 63.999s-8.5 46.666 -25.5 63.999s-36.833 26 -59.5 26s-42.5 -8.66699 -59.5 -26s-25.5 -38.666 -25.5 -63.999zM515 230c0 -34 -6.16699 -65.5 -18.5 -94.5
s-29.5 -54.333 -51.5 -76s-48 -38.667 -78 -51s-62.333 -18.5 -97 -18.5c-35.333 0 -67.833 6.16699 -97.5 18.5s-55.5 29.333 -77.5 51s-39.167 47 -51.5 76s-18.5 60.5 -18.5 94.5s6.16699 65.5 18.5 94.5s29.5 54.333 51.5 76s47.833 38.667 77.5 51
s62.167 18.5 97.5 18.5c34.667 0 67 -6.16699 97 -18.5s56 -29.333 78 -51s39.167 -47 51.5 -76s18.5 -60.5 18.5 -94.5zM345 510h-130l-100 140h165z" />
    <glyph glyph-name="oacute" unicode="&#xf3;" horiz-adv-x="540" 
d="M185 230c0 -25.333 8.5 -46.666 25.5 -63.999s36.833 -26 59.5 -26s42.5 8.66699 59.5 26s25.5 38.666 25.5 63.999s-8.5 46.666 -25.5 63.999s-36.833 26 -59.5 26s-42.5 -8.66699 -59.5 -26s-25.5 -38.666 -25.5 -63.999zM515 230c0 -34 -6.16699 -65.5 -18.5 -94.5
s-29.5 -54.333 -51.5 -76s-48 -38.667 -78 -51s-62.333 -18.5 -97 -18.5c-35.333 0 -67.833 6.16699 -97.5 18.5s-55.5 29.333 -77.5 51s-39.167 47 -51.5 76s-18.5 60.5 -18.5 94.5s6.16699 65.5 18.5 94.5s29.5 54.333 51.5 76s47.833 38.667 77.5 51
s62.167 18.5 97.5 18.5c34.667 0 67 -6.16699 97 -18.5s56 -29.333 78 -51s39.167 -47 51.5 -76s18.5 -60.5 18.5 -94.5zM275 650h165l-100 -140h-130z" />
    <glyph glyph-name="ocircumflex" unicode="&#xf4;" horiz-adv-x="540" 
d="M185 230c0 -25.333 8.5 -46.666 25.5 -63.999s36.833 -26 59.5 -26s42.5 8.66699 59.5 26s25.5 38.666 25.5 63.999s-8.5 46.666 -25.5 63.999s-36.833 26 -59.5 26s-42.5 -8.66699 -59.5 -26s-25.5 -38.666 -25.5 -63.999zM515 230c0 -34 -6.16699 -65.5 -18.5 -94.5
s-29.5 -54.333 -51.5 -76s-48 -38.667 -78 -51s-62.333 -18.5 -97 -18.5c-35.333 0 -67.833 6.16699 -97.5 18.5s-55.5 29.333 -77.5 51s-39.167 47 -51.5 76s-18.5 60.5 -18.5 94.5s6.16699 65.5 18.5 94.5s29.5 54.333 51.5 76s47.833 38.667 77.5 51
s62.167 18.5 97.5 18.5c34.667 0 67 -6.16699 97 -18.5s56 -29.333 78 -51s39.167 -47 51.5 -76s18.5 -60.5 18.5 -94.5zM270 575l-45 -60h-130l105 140h140l105 -140h-130z" />
    <glyph glyph-name="otilde" unicode="&#xf5;" horiz-adv-x="540" 
d="M185 230c0 -25.333 8.5 -46.666 25.5 -63.999s36.833 -26 59.5 -26s42.5 8.66699 59.5 26s25.5 38.666 25.5 63.999s-8.5 46.666 -25.5 63.999s-36.833 26 -59.5 26s-42.5 -8.66699 -59.5 -26s-25.5 -38.666 -25.5 -63.999zM515 230c0 -34 -6.16699 -65.5 -18.5 -94.5
s-29.5 -54.333 -51.5 -76s-48 -38.667 -78 -51s-62.333 -18.5 -97 -18.5c-35.333 0 -67.833 6.16699 -97.5 18.5s-55.5 29.333 -77.5 51s-39.167 47 -51.5 76s-18.5 60.5 -18.5 94.5s6.16699 65.5 18.5 94.5s29.5 54.333 51.5 76s47.833 38.667 77.5 51
s62.167 18.5 97.5 18.5c34.667 0 67 -6.16699 97 -18.5s56 -29.333 78 -51s39.167 -47 51.5 -76s18.5 -60.5 18.5 -94.5zM115 520c0 47.333 8.66895 81.667 26.002 103s38.666 32 63.999 32c14 0 25.833 -2.16699 35.5 -6.5s18.167 -9 25.5 -14l20.5 -13.5
c6.33301 -4 12.5 -6 18.5 -6c20 0 30 11.667 30 35l95 -10c0 -24 -2.33301 -44.5 -7 -61.5s-11 -31 -19 -42s-17.5 -19 -28.5 -24s-22.833 -7.5 -35.5 -7.5c-14 0 -25.833 2 -35.5 6s-18.334 8.5 -26.001 13.5s-14.5 9.66699 -20.5 14s-12 6.5 -18 6.5
c-20 0 -30 -11.667 -30 -35z" />
    <glyph glyph-name="odieresis" unicode="&#xf6;" horiz-adv-x="540" 
d="M185 230c0 -25.333 8.5 -46.666 25.5 -63.999s36.833 -26 59.5 -26s42.5 8.66699 59.5 26s25.5 38.666 25.5 63.999s-8.5 46.666 -25.5 63.999s-36.833 26 -59.5 26s-42.5 -8.66699 -59.5 -26s-25.5 -38.666 -25.5 -63.999zM515 230c0 -34 -6.16699 -65.5 -18.5 -94.5
s-29.5 -54.333 -51.5 -76s-48 -38.667 -78 -51s-62.333 -18.5 -97 -18.5c-35.333 0 -67.833 6.16699 -97.5 18.5s-55.5 29.333 -77.5 51s-39.167 47 -51.5 76s-18.5 60.5 -18.5 94.5s6.16699 65.5 18.5 94.5s29.5 54.333 51.5 76s47.833 38.667 77.5 51
s62.167 18.5 97.5 18.5c34.667 0 67 -6.16699 97 -18.5s56 -29.333 78 -51s39.167 -47 51.5 -76s18.5 -60.5 18.5 -94.5zM255 585c0 -22.667 -7.66699 -41.667 -23 -57s-34.333 -23 -57 -23s-41.667 7.66699 -57 23s-23 34.333 -23 57s7.66699 41.667 23 57s34.333 23 57 23
s41.667 -7.66699 57 -23s23 -34.333 23 -57zM445 585c0 -22.667 -7.66699 -41.667 -23 -57s-34.333 -23 -57 -23s-41.667 7.66699 -57 23s-23 34.333 -23 57s7.66699 41.667 23 57s34.333 23 57 23s41.667 -7.66699 57 -23s23 -34.333 23 -57z" />
    <glyph glyph-name="divide" unicode="&#xf7;" horiz-adv-x="480" 
d="M240 500c22.667 0 41.667 -7.5 57 -22.5s23 -32.5 23 -52.5s-7.66699 -37.5 -23 -52.5s-34.333 -22.5 -57 -22.5s-41.667 7.5 -57 22.5s-23 32.5 -23 52.5s7.66699 37.5 23 52.5s34.333 22.5 57 22.5zM40 315h400v-125h-400v125zM240 5c-22.667 0 -41.667 7.5 -57 22.5
s-23 32.5 -23 52.5s7.66699 37.5 23 52.5s34.333 22.5 57 22.5s41.667 -7.5 57 -22.5s23 -32.5 23 -52.5s-7.66699 -37.5 -23 -52.5s-34.333 -22.5 -57 -22.5z" />
    <glyph glyph-name="oslash" unicode="&#xf8;" horiz-adv-x="540" 
d="M515 230c0 -34 -6.16602 -65.5 -18.499 -94.5s-29.5 -54.333 -51.5 -76s-48 -38.667 -78 -51s-62.333 -18.5 -97 -18.5c-21.333 0 -40.666 2 -57.999 6s-32 8.66699 -44 14c-14 6 -26.667 12.667 -38 20l-35 -30l-75 80l35 30c-6 10.667 -11 22 -15 34
c-4 10.667 -7.5 23.334 -10.5 38.001s-4.5 30.667 -4.5 48c0 34 6.16699 65.5 18.5 94.5s29.5 54.333 51.5 76s47.833 38.667 77.5 51s62.167 18.5 97.5 18.5c21.333 0 40.666 -2 57.999 -6s32 -8.66699 44 -14c14 -6 26.667 -12.667 38 -20l35 30l75 -80l-35 -30
c5.33301 -10.667 10.333 -22 15 -34c3.33301 -10.667 6.66602 -23.334 9.99902 -38.001s5 -30.667 5 -48zM305.001 330l-10 1.99805c-3.33301 0.666992 -7 1.33398 -11 2.00098s-8.66699 1 -14 1c-14 0 -27 -2.66699 -39 -8s-22.5 -12.666 -31.5 -21.999
s-16.167 -20.5 -21.5 -33.5s-8 -26.833 -8 -41.5v-20zM235.001 129.998c3.33301 -1.33301 6.66699 -2.33203 10 -2.99902s7 -1.16699 11 -1.5s8.66699 -0.5 14 -0.5c14 0 27 2.66699 39 8s22.5 12.666 31.5 21.999s16.167 20.333 21.5 33s8 26.667 8 42v20z" />
    <glyph glyph-name="ugrave" unicode="&#xf9;" horiz-adv-x="550" 
d="M230 -10c-27.333 0 -52.333 4.49902 -75 13.499s-42.167 22.167 -58.5 39.5s-29 38.333 -38 63s-13.5 52.667 -13.5 84v270h160v-240c0 -25.333 6.66699 -45 20 -59s30 -21 50 -21s36.667 7 50 21s20 33.667 20 59v240h160v-460h-115l-25 45
c-10.667 -10.667 -22.667 -20 -36 -28c-11.333 -7.33301 -25.333 -13.666 -42 -18.999s-35.667 -8 -57 -8zM355 514.999h-130l-100 140h165z" />
    <glyph glyph-name="uacute" unicode="&#xfa;" horiz-adv-x="550" 
d="M230 -10c-27.333 0 -52.333 4.49902 -75 13.499s-42.167 22.167 -58.5 39.5s-29 38.333 -38 63s-13.5 52.667 -13.5 84v270h160v-240c0 -25.333 6.66699 -45 20 -59s30 -21 50 -21s36.667 7 50 21s20 33.667 20 59v240h160v-460h-115l-25 45
c-10.667 -10.667 -22.667 -20 -36 -28c-11.333 -7.33301 -25.333 -13.666 -42 -18.999s-35.667 -8 -57 -8zM275 654.999h165l-100 -140h-130z" />
    <glyph glyph-name="ucircumflex" unicode="&#xfb;" horiz-adv-x="550" 
d="M230 -10c-27.333 0 -52.333 4.49902 -75 13.499s-42.167 22.167 -58.5 39.5s-29 38.333 -38 63s-13.5 52.667 -13.5 84v270h160v-240c0 -25.333 6.66699 -45 20 -59s30 -21 50 -21s36.667 7 50 21s20 33.667 20 59v240h160v-460h-115l-25 45
c-10.667 -10.667 -22.667 -20 -36 -28c-11.333 -7.33301 -25.333 -13.666 -42 -18.999s-35.667 -8 -57 -8zM275 574.999l-45 -60h-130l105 140h140l105 -140h-130z" />
    <glyph glyph-name="udieresis" unicode="&#xfc;" horiz-adv-x="550" 
d="M230 -10c-27.333 0 -52.333 4.49902 -75 13.499s-42.167 22.167 -58.5 39.5s-29 38.333 -38 63s-13.5 52.667 -13.5 84v270h160v-240c0 -25.333 6.66699 -45 20 -59s30 -21 50 -21s36.667 7 50 21s20 33.667 20 59v240h160v-460h-115l-25 45
c-10.667 -10.667 -22.667 -20 -36 -28c-11.333 -7.33301 -25.333 -13.666 -42 -18.999s-35.667 -8 -57 -8zM260 584.999c0 -22.667 -7.66699 -41.667 -23 -57s-34.333 -23 -57 -23s-41.667 7.66699 -57 23s-23 34.333 -23 57s7.66699 41.667 23 57s34.333 23 57 23
s41.667 -7.66699 57 -23s23 -34.333 23 -57zM450 584.999c0 -22.667 -7.66699 -41.667 -23 -57s-34.333 -23 -57 -23s-41.667 7.66699 -57 23s-23 34.333 -23 57s7.66699 41.667 23 57s34.333 23 57 23s41.667 -7.66699 57 -23s23 -34.333 23 -57z" />
    <glyph glyph-name="yacute" unicode="&#xfd;" horiz-adv-x="500" 
d="M-5 460l170 -0.000976562l85 -260l85 260h170l-180 -460c-20.667 -52.667 -47 -94.167 -79 -124.5s-70.667 -45.5 -116 -45.5c-15.333 0 -29 1.66699 -41 5c-6.66699 1.33301 -13 3 -19 5v140h25c15.333 0 27.333 2.33301 36 7s15.667 9.66699 21 15
c6 6.66699 10.333 14.334 13 23.001zM250 654.999h165l-100 -140h-130z" />
    <glyph glyph-name="thorn" unicode="&#xfe;" horiz-adv-x="555" 
d="M320 -10c-16.667 0 -31.834 2 -45.501 6s-25.834 8.66699 -36.501 14c-12 6 -23 12.667 -33 20v-190h-160v790h160v-200c10 7.33301 21 14 33 20c10.667 5.33301 22.834 10 36.501 14s28.834 6 45.501 6c26 0 51.667 -6.16699 77 -18.5s47.833 -29.333 67.5 -51
s35.5 -47 47.5 -76s18 -60.5 18 -94.5s-6 -65.5 -18 -94.5s-27.833 -54.333 -47.5 -76s-42.167 -38.667 -67.5 -51s-51 -18.5 -77 -18.5zM200 230c0 -25.333 8.5 -46.666 25.5 -63.999s36.833 -26 59.5 -26s42.5 8.66699 59.5 26s25.5 38.666 25.5 63.999
s-8.5 46.666 -25.5 63.999s-36.833 26 -59.5 26s-42.5 -8.66699 -59.5 -26s-25.5 -38.666 -25.5 -63.999z" />
    <glyph glyph-name="ydieresis" unicode="&#xff;" horiz-adv-x="500" 
d="M-5 460l170 -0.000976562l85 -260l85 260h170l-180 -460c-20.667 -52.667 -47 -94.167 -79 -124.5s-70.667 -45.5 -116 -45.5c-15.333 0 -29 1.66699 -41 5c-6.66699 1.33301 -13 3 -19 5v140h25c15.333 0 27.333 2.33301 36 7s15.667 9.66699 21 15
c6 6.66699 10.333 14.334 13 23.001zM240 584.999c0 -22.667 -7.66699 -41.667 -23 -57s-34.333 -23 -57 -23s-41.667 7.66699 -57 23s-23 34.333 -23 57s7.66699 41.667 23 57s34.333 23 57 23s41.667 -7.66699 57 -23s23 -34.333 23 -57zM430 584.999
c0 -22.667 -7.66699 -41.667 -23 -57s-34.333 -23 -57 -23s-41.667 7.66699 -57 23s-23 34.333 -23 57s7.66699 41.667 23 57s34.333 23 57 23s41.667 -7.66699 57 -23s23 -34.333 23 -57z" />
    <glyph glyph-name="Amacron" unicode="&#x100;" horiz-adv-x="620" 
d="M310 435l-55 -180h110zM215 115l-35 -115h-185l215 630h200l215 -630h-185l-35 115h-190zM450 695h-280v120h280v-120z" />
    <glyph glyph-name="amacron" unicode="&#x101;" horiz-adv-x="490" 
d="M250 470c30 0 57.3398 -4.66602 82.0068 -13.999s45.667 -22.5 63 -39.5s30.833 -37.167 40.5 -60.5s14.5 -48.666 14.5 -75.999v-280h-115c-4 6 -7.33301 11.667 -10 17l-8 14.5l-7 13.5c-12 -10.667 -25 -20 -39 -28c-12 -7.33301 -26.333 -13.666 -43 -18.999
s-34.334 -8 -53.001 -8c-24 0 -45.5 3.5 -64.5 10.5s-35.167 16.667 -48.5 29s-23.666 26.666 -30.999 42.999s-11 33.833 -11 52.5c0 21.333 4.66699 41.333 14 60s24.666 35 45.999 49s49.166 25.167 83.499 33.5s76.5 12.5 126.5 12.5c0 17.333 -4.33301 30.833 -13 40.5
s-19.334 14.5 -32.001 14.5c-10 0 -18.333 -1.83301 -25 -5.5s-11.667 -7.83398 -15 -12.501c-4.66699 -5.33301 -8 -11 -10 -17l-155 15c5.33301 28.667 16.666 54.334 33.999 77.001c7.33301 10 16.166 19.667 26.499 29s22.666 17.666 36.999 24.999
s30.666 13.166 48.999 17.499s39.5 6.5 63.5 6.5zM225.007 110.001c17.333 0 32.501 6.66406 45.501 19.9971s19.5 30 19.5 50v15c-22.667 0 -41.167 -1.16699 -55.5 -3.5s-25.5 -5.66602 -33.5 -9.99902s-13.5 -9.66602 -16.5 -15.999s-4.5 -13.166 -4.5 -20.499
c0 -10 3.66699 -18.333 11 -25s18.666 -10 33.999 -10zM395.008 519.998h-280v120h280v-120z" />
    <glyph glyph-name="Abreve" unicode="&#x102;" horiz-adv-x="620" 
d="M310 435l-55 -180h110zM215 115l-35 -115h-185l215 630h200l215 -630h-185l-35 115h-190zM310 775c10 0 17.8301 2.33301 23.4971 7s10.167 9.66699 13.5 15c3.33301 6.66699 6 14.334 8 23.001h110c-1.33301 -18.667 -6.16602 -36.5 -14.499 -53.5
s-19.333 -31.833 -33 -44.5s-29.667 -22.834 -48 -30.501s-38.166 -11.5 -59.499 -11.5s-41.166 3.83301 -59.499 11.5s-34.333 17.834 -48 30.501s-24.667 27.5 -33 44.5s-13.166 34.833 -14.499 53.5h110c1.33301 -8.66699 3.66602 -16.334 6.99902 -23.001
c3.33301 -5.33301 8 -10.333 14 -15s14 -7 24 -7z" />
    <glyph glyph-name="abreve" unicode="&#x103;" horiz-adv-x="490" 
d="M250 470c30 0 57.3398 -4.66602 82.0068 -13.999s45.667 -22.5 63 -39.5s30.833 -37.167 40.5 -60.5s14.5 -48.666 14.5 -75.999v-280h-115c-4 6 -7.33301 11.667 -10 17l-8 14.5l-7 13.5c-12 -10.667 -25 -20 -39 -28c-12 -7.33301 -26.333 -13.666 -43 -18.999
s-34.334 -8 -53.001 -8c-24 0 -45.5 3.5 -64.5 10.5s-35.167 16.667 -48.5 29s-23.666 26.666 -30.999 42.999s-11 33.833 -11 52.5c0 21.333 4.66699 41.333 14 60s24.666 35 45.999 49s49.166 25.167 83.499 33.5s76.5 12.5 126.5 12.5c0 17.333 -4.33301 30.833 -13 40.5
s-19.334 14.5 -32.001 14.5c-10 0 -18.333 -1.83301 -25 -5.5s-11.667 -7.83398 -15 -12.501c-4.66699 -5.33301 -8 -11 -10 -17l-155 15c5.33301 28.667 16.666 54.334 33.999 77.001c7.33301 10 16.166 19.667 26.499 29s22.666 17.666 36.999 24.999
s30.666 13.166 48.999 17.499s39.5 6.5 63.5 6.5zM225.007 110.001c17.333 0 32.501 6.66406 45.501 19.9971s19.5 30 19.5 50v15c-22.667 0 -41.167 -1.16699 -55.5 -3.5s-25.5 -5.66602 -33.5 -9.99902s-13.5 -9.66602 -16.5 -15.999s-4.5 -13.166 -4.5 -20.499
c0 -10 3.66699 -18.333 11 -25s18.666 -10 33.999 -10zM255.008 599.998c10 0 17.8301 2.33301 23.4971 7s10.167 9.66699 13.5 15c3.33301 6.66699 6 14.334 8 23.001h110c-1.33301 -18.667 -6.16602 -36.5 -14.499 -53.5s-19.333 -31.833 -33 -44.5
s-29.667 -22.834 -48 -30.501s-38.166 -11.5 -59.499 -11.5s-41.166 3.83301 -59.499 11.5s-34.333 17.834 -48 30.501s-24.667 27.5 -33 44.5s-13.166 34.833 -14.499 53.5h110c1.33301 -8.66699 3.66602 -16.334 6.99902 -23.001c3.33301 -5.33301 8 -10.333 14 -15
s14 -7 24 -7z" />
    <glyph glyph-name="Aogonek" unicode="&#x104;" horiz-adv-x="620" 
d="M405 115l-190 0.00195312l-35 -115h-185l215 630h200l215 -630h-105c-6 -8 -11 -16 -15 -24c-4 -7.33301 -7.5 -15.5 -10.5 -24.5s-4.5 -17.833 -4.5 -26.5c0 -12.667 4.33301 -23.334 13 -32.001s19.334 -13 32.001 -13c6 0 11.5 0.166992 16.5 0.5
s9.16699 0.833008 12.5 1.5c4 0.666992 7.66699 1.66699 11 3v-70c-6 -2.66699 -12.667 -5.33398 -20 -8.00098c-6.66699 -2 -14.5 -3.66699 -23.5 -5s-18.833 -2 -29.5 -2c-36 0 -63.667 8.83301 -83 26.5s-29 40.5 -29 68.5c0 15.333 2.5 29.333 7.5 42
s10.833 23.667 17.5 33c7.33301 11.333 15.666 21.333 24.999 30zM310 435.002l-55 -180h110z" />
    <glyph glyph-name="aogonek" unicode="&#x105;" horiz-adv-x="490" 
d="M335 0c-4 6 -7.32617 11.6699 -9.99316 17.0029l-8 14.5l-7 13.5c-12 -10.667 -25 -20 -39 -28c-12 -7.33301 -26.333 -13.666 -43 -18.999s-34.334 -8 -53.001 -8c-24 0 -45.5 3.5 -64.5 10.5s-35.167 16.667 -48.5 29s-23.666 26.666 -30.999 42.999
s-11 33.833 -11 52.5c0 21.333 4.66699 41.333 14 60s24.666 35 45.999 49s49.166 25.167 83.499 33.5s76.5 12.5 126.5 12.5c0 17.333 -4.33301 30.833 -13 40.5s-19.334 14.5 -32.001 14.5c-10 0 -18.333 -1.83301 -25 -5.5s-11.667 -7.83398 -15 -12.501
c-4.66699 -5.33301 -8 -11 -10 -17l-155 15c5.33301 28.667 16.666 54.334 33.999 77.001c7.33301 10 16.166 19.667 26.499 29s22.666 17.666 36.999 24.999s30.666 13.166 48.999 17.499s39.5 6.5 63.5 6.5c30 0 57.333 -4.66699 82 -14s45.667 -22.5 63 -39.5
s30.833 -37.167 40.5 -60.5s14.5 -48.666 14.5 -75.999v-280h-35c-6 -8 -11 -16 -15 -24c-4 -7.33301 -7.5 -15.5 -10.5 -24.5s-4.5 -17.833 -4.5 -26.5c0 -12.667 4.33301 -23.334 13 -32.001s19.334 -13 32.001 -13c6 0 11.5 0.166992 16.5 0.5s9.16699 0.833008 12.5 1.5
c4 0.666992 7.66699 1.66699 11 3v-70c-6 -2.66699 -12.667 -5.33398 -20 -8.00098c-6.66699 -2 -14.5 -3.66699 -23.5 -5s-18.833 -2 -29.5 -2c-36 0 -63.667 8.83301 -83 26.5s-29 40.5 -29 68.5c0 15.333 2.5 29.333 7.5 42s10.833 23.667 17.5 33
c7.33301 11.333 15.666 21.333 24.999 30zM225.007 110.003c17.333 0 32.501 6.66406 45.501 19.9971s19.5 30 19.5 50v15c-22.667 0 -41.167 -1.16699 -55.5 -3.5s-25.5 -5.66602 -33.5 -9.99902s-13.5 -9.66602 -16.5 -15.999s-4.5 -13.166 -4.5 -20.499
c0 -10 3.66699 -18.333 11 -25s18.666 -10 33.999 -10z" />
    <glyph glyph-name="Cacute" unicode="&#x106;" horiz-adv-x="670" 
d="M350 160c22.667 0 41.667 4.16895 57 12.502s27.666 17.5 36.999 27.5c11.333 12 20 25.333 26 40l180 -15c-6 -28.667 -17.833 -57 -35.5 -85s-39.667 -53.167 -66 -75.5s-56.333 -40.333 -90 -54s-69.834 -20.5 -108.501 -20.5c-45.333 0 -87.333 8.33301 -126 25
s-72.5 39.5 -101.5 68.5s-51.667 63.333 -68 103s-24.5 82.5 -24.5 128.5s8.16699 88.833 24.5 128.5s39 74 68 103s62.833 51.833 101.5 68.5s80.667 25 126 25c38.667 0 74.834 -6.83301 108.501 -20.5s63.667 -31.667 90 -54s48.333 -47.5 66 -75.5
s29.5 -56.333 35.5 -85l-180 -15c-6 14.667 -14.667 28 -26 40c-9.33301 10 -21.666 19.167 -36.999 27.5s-34.333 12.5 -57 12.5c-20 0 -38.833 -3.83301 -56.5 -11.5s-33 -18.334 -46 -32.001s-23.333 -30 -31 -49s-11.5 -39.833 -11.5 -62.5s3.83301 -43.5 11.5 -62.5
s18 -35.333 31 -49s28.333 -24.334 46 -32.001s36.5 -11.5 56.5 -11.5zM350 835.002h165l-100 -140h-130z" />
    <glyph glyph-name="cacute" unicode="&#x107;" horiz-adv-x="520" 
d="M270 470c24.667 0 47 -2.66699 67 -8s37.667 -12.333 53 -21s28.833 -18.667 40.5 -30s21.5 -22.666 29.5 -33.999c18.667 -26.667 32 -57.334 40 -92.001l-155 -15c-4 9.33301 -9.66699 17.666 -17 24.999c-6 6 -13.833 11.667 -23.5 17s-21.167 8 -34.5 8
c-22.667 0 -42.5 -8.66699 -59.5 -26s-25.5 -38.666 -25.5 -63.999s8.5 -46.666 25.5 -63.999s36.833 -26 59.5 -26c13.333 0 24.833 2.5 34.5 7.5s17.5 10.833 23.5 17.5c7.33301 7.33301 13 15.666 17 24.999l155 -15c-8 -35.333 -21.333 -66.333 -40 -93
c-8 -11.333 -17.833 -22.5 -29.5 -33.5s-25.167 -20.833 -40.5 -29.5s-33 -15.667 -53 -21s-42.333 -8 -67 -8c-35.333 0 -67.833 6.16699 -97.5 18.5s-55.5 29.333 -77.5 51s-39.167 47 -51.5 76s-18.5 60.5 -18.5 94.5s6.16699 65.5 18.5 94.5s29.5 54.333 51.5 76
s47.833 38.667 77.5 51s62.167 18.5 97.5 18.5zM270 655h165l-100 -140h-130z" />
    <glyph glyph-name="Ccircumflex" unicode="&#x108;" horiz-adv-x="670" 
d="M350 160c22.667 0 41.667 4.16895 57 12.502s27.666 17.5 36.999 27.5c11.333 12 20 25.333 26 40l180 -15c-6 -28.667 -17.833 -57 -35.5 -85s-39.667 -53.167 -66 -75.5s-56.333 -40.333 -90 -54s-69.834 -20.5 -108.501 -20.5c-45.333 0 -87.333 8.33301 -126 25
s-72.5 39.5 -101.5 68.5s-51.667 63.333 -68 103s-24.5 82.5 -24.5 128.5s8.16699 88.833 24.5 128.5s39 74 68 103s62.833 51.833 101.5 68.5s80.667 25 126 25c38.667 0 74.834 -6.83301 108.501 -20.5s63.667 -31.667 90 -54s48.333 -47.5 66 -75.5
s29.5 -56.333 35.5 -85l-180 -15c-6 14.667 -14.667 28 -26 40c-9.33301 10 -21.666 19.167 -36.999 27.5s-34.333 12.5 -57 12.5c-20 0 -38.833 -3.83301 -56.5 -11.5s-33 -18.334 -46 -32.001s-23.333 -30 -31 -49s-11.5 -39.833 -11.5 -62.5s3.83301 -43.5 11.5 -62.5
s18 -35.333 31 -49s28.333 -24.334 46 -32.001s36.5 -11.5 56.5 -11.5zM355 755.002l-45 -60h-130l105 140h140l105 -140h-130z" />
    <glyph glyph-name="ccircumflex" unicode="&#x109;" horiz-adv-x="520" 
d="M270 470c24.667 0 47 -2.66699 67 -8s37.667 -12.333 53 -21s28.833 -18.667 40.5 -30s21.5 -22.666 29.5 -33.999c18.667 -26.667 32 -57.334 40 -92.001l-155 -15c-4 9.33301 -9.66699 17.666 -17 24.999c-6 6 -13.833 11.667 -23.5 17s-21.167 8 -34.5 8
c-22.667 0 -42.5 -8.66699 -59.5 -26s-25.5 -38.666 -25.5 -63.999s8.5 -46.666 25.5 -63.999s36.833 -26 59.5 -26c13.333 0 24.833 2.5 34.5 7.5s17.5 10.833 23.5 17.5c7.33301 7.33301 13 15.666 17 24.999l155 -15c-8 -35.333 -21.333 -66.333 -40 -93
c-8 -11.333 -17.833 -22.5 -29.5 -33.5s-25.167 -20.833 -40.5 -29.5s-33 -15.667 -53 -21s-42.333 -8 -67 -8c-35.333 0 -67.833 6.16699 -97.5 18.5s-55.5 29.333 -77.5 51s-39.167 47 -51.5 76s-18.5 60.5 -18.5 94.5s6.16699 65.5 18.5 94.5s29.5 54.333 51.5 76
s47.833 38.667 77.5 51s62.167 18.5 97.5 18.5zM270 575l-45 -60h-130l105 140h140l105 -140h-130z" />
    <glyph glyph-name="Ccaron" unicode="&#x10c;" horiz-adv-x="670" 
d="M350 160c22.667 0 41.667 4.16895 57 12.502s27.666 17.5 36.999 27.5c11.333 12 20 25.333 26 40l180 -15c-6 -28.667 -17.833 -57 -35.5 -85s-39.667 -53.167 -66 -75.5s-56.333 -40.333 -90 -54s-69.834 -20.5 -108.501 -20.5c-45.333 0 -87.333 8.33301 -126 25
s-72.5 39.5 -101.5 68.5s-51.667 63.333 -68 103s-24.5 82.5 -24.5 128.5s8.16699 88.833 24.5 128.5s39 74 68 103s62.833 51.833 101.5 68.5s80.667 25 126 25c38.667 0 74.834 -6.83301 108.501 -20.5s63.667 -31.667 90 -54s48.333 -47.5 66 -75.5
s29.5 -56.333 35.5 -85l-180 -15c-6 14.667 -14.667 28 -26 40c-9.33301 10 -21.666 19.167 -36.999 27.5s-34.333 12.5 -57 12.5c-20 0 -38.833 -3.83301 -56.5 -11.5s-33 -18.334 -46 -32.001s-23.333 -30 -31 -49s-11.5 -39.833 -11.5 -62.5s3.83301 -43.5 11.5 -62.5
s18 -35.333 31 -49s28.333 -24.334 46 -32.001s36.5 -11.5 56.5 -11.5zM400 835.002h130l-105 -140h-140l-105 140h130l45 -60z" />
    <glyph glyph-name="ccaron" unicode="&#x10d;" horiz-adv-x="520" 
d="M270 470c24.667 0 47 -2.66699 67 -8s37.667 -12.333 53 -21s28.833 -18.667 40.5 -30s21.5 -22.666 29.5 -33.999c18.667 -26.667 32 -57.334 40 -92.001l-155 -15c-4 9.33301 -9.66699 17.666 -17 24.999c-6 6 -13.833 11.667 -23.5 17s-21.167 8 -34.5 8
c-22.667 0 -42.5 -8.66699 -59.5 -26s-25.5 -38.666 -25.5 -63.999s8.5 -46.666 25.5 -63.999s36.833 -26 59.5 -26c13.333 0 24.833 2.5 34.5 7.5s17.5 10.833 23.5 17.5c7.33301 7.33301 13 15.666 17 24.999l155 -15c-8 -35.333 -21.333 -66.333 -40 -93
c-8 -11.333 -17.833 -22.5 -29.5 -33.5s-25.167 -20.833 -40.5 -29.5s-33 -15.667 -53 -21s-42.333 -8 -67 -8c-35.333 0 -67.833 6.16699 -97.5 18.5s-55.5 29.333 -77.5 51s-39.167 47 -51.5 76s-18.5 60.5 -18.5 94.5s6.16699 65.5 18.5 94.5s29.5 54.333 51.5 76
s47.833 38.667 77.5 51s62.167 18.5 97.5 18.5zM320 655h130l-105 -140h-140l-105 140h130l45 -60z" />
    <glyph glyph-name="Dcaron" unicode="&#x10e;" horiz-adv-x="635" 
d="M285 160c20 0 38.833 3.83105 56.5 11.498s33 18.334 46 32.001s23.333 30 31 49s11.5 39.833 11.5 62.5s-3.83301 43.5 -11.5 62.5s-18 35.333 -31 49s-28.333 24.334 -46 32.001s-36.5 11.5 -56.5 11.5h-55v-310h55zM55 629.998h230c46 0 88.667 -8 128 -24
s73.166 -38 101.499 -66s50.5 -61.333 66.5 -100s24 -80.334 24 -125.001c0 -45.333 -8 -87.166 -24 -125.499s-38.167 -71.5 -66.5 -99.5s-62.166 -50 -101.499 -66s-82 -24 -128 -24h-230v630zM355 834.998h130l-105 -140h-140l-105 140h130l45 -60z" />
    <glyph glyph-name="dcaron" unicode="&#x10f;" horiz-adv-x="680" 
d="M585 630h155l-70 -140h-120zM235 -10c-26 0 -51.666 6.16602 -76.999 18.499s-47.833 29.333 -67.5 51s-35.5 47 -47.5 76s-18 60.5 -18 94.5s6 65.5 18 94.5s27.833 54.333 47.5 76s42.167 38.667 67.5 51s51 18.5 77 18.5c17.333 0 33.166 -2 47.499 -6
s26.5 -8.66699 36.5 -14c12 -6 22.333 -12.667 31 -20v190h160v-620h-115l-25 45c-11.333 -10.667 -24 -20 -38 -28c-12 -7.33301 -26.167 -13.666 -42.5 -18.999s-34.5 -8 -54.5 -8zM355.001 229.999c0 25.333 -8.5 46.666 -25.5 63.999s-36.833 26 -59.5 26
s-42.5 -8.66699 -59.5 -26s-25.5 -38.666 -25.5 -63.999s8.5 -46.666 25.5 -63.999s36.833 -26 59.5 -26s42.5 8.66699 59.5 26s25.5 38.666 25.5 63.999z" />
    <glyph glyph-name="Dcroat" unicode="&#x110;" horiz-adv-x="660" 
d="M80 240h-60v140h60v250h230c46 0 88.667 -8 128 -24s73.166 -38 101.499 -66s50.5 -61.333 66.5 -100s24 -80.334 24 -125.001c0 -45.333 -8 -87.166 -24 -125.499s-38.167 -71.5 -66.5 -99.5s-62.166 -50 -101.499 -66s-82 -24 -128 -24h-230v240zM310 160
c20 0 38.833 3.83105 56.5 11.498s33 18.334 46 32.001s23.333 30 31 49s11.5 39.833 11.5 62.5s-3.83301 43.5 -11.5 62.5s-18 35.333 -31 49s-28.333 24.334 -46 32.001s-36.5 11.5 -56.5 11.5h-55v-90h85v-140h-85v-80h55z" />
    <glyph glyph-name="dcroat" unicode="&#x111;" horiz-adv-x="580" 
d="M235 -10c-28.667 0 -55.832 5.66406 -81.499 16.9971s-48 26.833 -67 46.5s-34 42.834 -45 69.501s-16.5 55.667 -16.5 87s5.5 60.333 16.5 87s26 49.834 45 69.501s41.333 35.167 67 46.5s52.834 17 81.501 17c17.333 0 33.166 -2.5 47.499 -7.5
s26.5 -10.167 36.5 -15.5c12 -6.66699 22.333 -14 31 -22v65h-100v130h100v50h160v-50h60v-130h-60v-450h-115l-25 45c-12 -10.667 -25 -20 -39 -28c-12 -7.33301 -26.333 -13.666 -43 -18.999s-34.334 -8 -53.001 -8zM185.002 209.997c0 -22.667 7.83301 -41.667 23.5 -57
s36.167 -23 61.5 -23s45.833 7.66699 61.5 23s23.5 34.333 23.5 57s-7.83301 41.667 -23.5 57s-36.167 23 -61.5 23s-45.833 -7.66699 -61.5 -23s-23.5 -34.333 -23.5 -57z" />
    <glyph glyph-name="Emacron" unicode="&#x112;" horiz-adv-x="570" 
d="M55 630h470v-155h-295v-80h270v-150h-270v-90h305v-155h-480v630zM440 695h-280v120h280v-120z" />
    <glyph glyph-name="emacron" unicode="&#x113;" 
d="M490 140c-6 -18.667 -14.9971 -36.999 -26.9971 -54.999s-27 -34 -45 -48s-39.333 -25.333 -64 -34s-52.667 -13 -84 -13c-35.333 0 -67.833 6.16699 -97.5 18.5s-55.5 29.333 -77.5 51s-39.167 47 -51.5 76s-18.5 60.5 -18.5 94.5s6.16699 65.5 18.5 94.5
s29.5 54.333 51.5 76s47.833 38.667 77.5 51s62.167 18.5 97.5 18.5c32.667 0 63.167 -5.83301 91.5 -17.5s53.166 -28 74.499 -49s38.166 -45.833 50.499 -74.5s18.5 -60 18.5 -94c0 -6.66699 -0.333008 -12.834 -1 -18.501s-1.33398 -10.834 -2.00098 -15.501l-2 -16h-305
c3.33301 -11.333 8.33301 -21.333 15 -30c5.33301 -7.33301 12.833 -14.166 22.5 -20.499s22.167 -9.5 37.5 -9.5c11.333 0 20.833 1.5 28.5 4.5s13.834 6.5 18.501 10.5c5.33301 4 9.66602 9 12.999 15zM270.003 340.001c-20 0 -36.8311 -6.5 -50.498 -19.5
s-21.834 -28.167 -24.501 -45.5h150c-2.66699 17.333 -10.834 32.5 -24.501 45.5s-30.5 19.5 -50.5 19.5zM415.005 520.001h-280v120h280v-120z" />
    <glyph glyph-name="Edotaccent" unicode="&#x116;" horiz-adv-x="570" 
d="M55 630h470v-155h-295v-80h270v-150h-270v-90h305v-155h-480v630zM385 760c0 -11.333 -2.33301 -22.166 -7 -32.499s-10.834 -19.333 -18.501 -27s-16.667 -13.834 -27 -18.501s-21.166 -7 -32.499 -7s-22.166 2.33301 -32.499 7s-19.333 10.834 -27 18.501
s-13.834 16.667 -18.501 27s-7 21.166 -7 32.499s2.33301 22.166 7 32.499s10.834 19.333 18.501 27s16.667 13.834 27 18.501s21.166 7 32.499 7s22.166 -2.33301 32.499 -7s19.333 -10.834 27 -18.501s13.834 -16.667 18.501 -27s7 -21.166 7 -32.499z" />
    <glyph glyph-name="edotaccent" unicode="&#x117;" 
d="M490 140c-6 -18.667 -14.9971 -36.999 -26.9971 -54.999s-27 -34 -45 -48s-39.333 -25.333 -64 -34s-52.667 -13 -84 -13c-35.333 0 -67.833 6.16699 -97.5 18.5s-55.5 29.333 -77.5 51s-39.167 47 -51.5 76s-18.5 60.5 -18.5 94.5s6.16699 65.5 18.5 94.5
s29.5 54.333 51.5 76s47.833 38.667 77.5 51s62.167 18.5 97.5 18.5c32.667 0 63.167 -5.83301 91.5 -17.5s53.166 -28 74.499 -49s38.166 -45.833 50.499 -74.5s18.5 -60 18.5 -94c0 -6.66699 -0.333008 -12.834 -1 -18.501s-1.33398 -10.834 -2.00098 -15.501l-2 -16h-305
c3.33301 -11.333 8.33301 -21.333 15 -30c5.33301 -7.33301 12.833 -14.166 22.5 -20.499s22.167 -9.5 37.5 -9.5c11.333 0 20.833 1.5 28.5 4.5s13.834 6.5 18.501 10.5c5.33301 4 9.66602 9 12.999 15zM270.003 340.001c-20 0 -36.8311 -6.5 -50.498 -19.5
s-21.834 -28.167 -24.501 -45.5h150c-2.66699 17.333 -10.834 32.5 -24.501 45.5s-30.5 19.5 -50.5 19.5zM365.005 590.001c0 -11.333 -2.33301 -22.166 -7 -32.499s-10.834 -19.333 -18.501 -27s-16.667 -13.834 -27 -18.501s-21.166 -7 -32.499 -7
s-22.166 2.33301 -32.499 7s-19.333 10.834 -27 18.501s-13.834 16.667 -18.501 27s-7 21.166 -7 32.499s2.33301 22.166 7 32.499s10.834 19.333 18.501 27s16.667 13.834 27 18.501s21.166 7 32.499 7s22.166 -2.33301 32.499 -7s19.333 -10.834 27 -18.501
s13.834 -16.667 18.501 -27s7 -21.166 7 -32.499z" />
    <glyph glyph-name="Eogonek" unicode="&#x118;" horiz-adv-x="570" 
d="M55 630l470 0.00195312v-155h-295v-80h270v-150h-270v-90h305v-155c-6 -8 -11 -16 -15 -24c-4 -7.33301 -7.5 -15.5 -10.5 -24.5s-4.5 -17.833 -4.5 -26.5c0 -12.667 4.33301 -23.334 13 -32.001s19.334 -13 32.001 -13c6 0 11.5 0.166992 16.5 0.5
s9.16699 0.833008 12.5 1.5c4 0.666992 7.66699 1.66699 11 3v-70c-6 -2.66699 -12.667 -5.33398 -20 -8.00098c-6.66699 -2 -14.5 -3.66699 -23.5 -5s-18.833 -2 -29.5 -2c-36 0 -63.667 8.83301 -83 26.5s-29 40.5 -29 68.5c0 15.333 2.5 29.333 7.5 42
s10.833 23.667 17.5 33c7.33301 11.333 15.666 21.333 24.999 30h-400v630z" />
    <glyph glyph-name="eogonek" unicode="&#x119;" 
d="M490 140c-5.33301 -16.667 -12.998 -33.1641 -22.998 -49.4971s-22.5 -31.166 -37.5 -44.499s-32.333 -24.666 -52 -33.999s-42.167 -15.666 -67.5 -18.999c-4.66699 -6.66699 -10 -16.334 -16 -29.001s-9 -25.667 -9 -39c0 -12.667 4.33301 -23.334 13 -32.001
s19.334 -13 32.001 -13c6 0 11.5 0.166992 16.5 0.5s9.16699 0.833008 12.5 1.5c4 0.666992 7.66699 1.66699 11 3v-70c-6 -2.66699 -12.667 -5.33398 -20 -8.00098c-6.66699 -2 -14.5 -3.66699 -23.5 -5s-18.833 -2 -29.5 -2c-36 0 -63.667 8.83301 -83 26.5
s-29 40.5 -29 68.5c0 12 1.5 23.167 4.5 33.5s6.83301 19.666 11.5 27.999s9.5 15.666 14.5 21.999s9.16699 11.166 12.5 14.499c-30 4.66699 -57.333 13.834 -82 27.501s-46 31 -64 52s-32 45 -42 72s-15 55.5 -15 85.5c0 34 6.16699 65.5 18.5 94.5s29.5 54.333 51.5 76
s47.833 38.667 77.5 51s62.167 18.5 97.5 18.5c32.667 0 63.167 -5.83301 91.5 -17.5s53.166 -28 74.499 -49s38.166 -45.833 50.499 -74.5s18.5 -60 18.5 -94c0 -6.66699 -0.333008 -12.834 -1 -18.501s-1.33398 -10.834 -2.00098 -15.501l-2 -16h-305
c3.33301 -11.333 8.33301 -21.333 15 -30c5.33301 -7.33301 12.833 -14.166 22.5 -20.499s22.167 -9.5 37.5 -9.5c11.333 0 20.833 1.5 28.5 4.5s13.834 6.5 18.501 10.5c5.33301 4 9.66602 9 12.999 15zM270.002 340.003c-20 0 -36.8311 -6.5 -50.498 -19.5
s-21.834 -28.167 -24.501 -45.5h150c-2.66699 17.333 -10.834 32.5 -24.501 45.5s-30.5 19.5 -50.5 19.5z" />
    <glyph glyph-name="Ecaron" unicode="&#x11a;" horiz-adv-x="570" 
d="M55 630h470v-155h-295v-80h270v-150h-270v-90h305v-155h-480v630zM340 835h130l-105 -140h-140l-105 140h130l45 -60z" />
    <glyph glyph-name="ecaron" unicode="&#x11b;" 
d="M490 140c-6 -18.667 -14.9971 -36.999 -26.9971 -54.999s-27 -34 -45 -48s-39.333 -25.333 -64 -34s-52.667 -13 -84 -13c-35.333 0 -67.833 6.16699 -97.5 18.5s-55.5 29.333 -77.5 51s-39.167 47 -51.5 76s-18.5 60.5 -18.5 94.5s6.16699 65.5 18.5 94.5
s29.5 54.333 51.5 76s47.833 38.667 77.5 51s62.167 18.5 97.5 18.5c32.667 0 63.167 -5.83301 91.5 -17.5s53.166 -28 74.499 -49s38.166 -45.833 50.499 -74.5s18.5 -60 18.5 -94c0 -6.66699 -0.333008 -12.834 -1 -18.501s-1.33398 -10.834 -2.00098 -15.501l-2 -16h-305
c3.33301 -11.333 8.33301 -21.333 15 -30c5.33301 -7.33301 12.833 -14.166 22.5 -20.499s22.167 -9.5 37.5 -9.5c11.333 0 20.833 1.5 28.5 4.5s13.834 6.5 18.501 10.5c5.33301 4 9.66602 9 12.999 15zM270.003 340.001c-20 0 -36.8311 -6.5 -50.498 -19.5
s-21.834 -28.167 -24.501 -45.5h150c-2.66699 17.333 -10.834 32.5 -24.501 45.5s-30.5 19.5 -50.5 19.5zM310.005 655.001h130l-105 -140h-140l-105 140h130l45 -60z" />
    <glyph glyph-name="Gbreve" unicode="&#x11e;" horiz-adv-x="705" 
d="M345 340l315 0.00195312v-340h-115l-25 60c-13.333 -13.333 -29 -25 -47 -35c-15.333 -9.33301 -34.166 -17.5 -56.499 -24.5s-47.833 -10.5 -76.5 -10.5c-42.667 0 -82.834 8.33301 -120.501 25s-70.5 39.5 -98.5 68.5s-50.167 63.333 -66.5 103s-24.5 82.5 -24.5 128.5
s8.16699 88.833 24.5 128.5s39 74 68 103s62.833 51.833 101.5 68.5s80.667 25 126 25c30 0 57.333 -3.33301 82 -10s46.834 -15.167 66.501 -25.5s37 -22.333 52 -36s28.167 -27.5 39.5 -41.5c26.667 -32.667 46.667 -70 60 -112l-180 -15
c-6 12.667 -14.667 24.334 -26 35.001c-9.33301 8.66699 -21.666 16.667 -36.999 24s-34.333 11 -57 11c-20 0 -38.833 -3.83301 -56.5 -11.5s-33 -18.334 -46 -32.001s-23.333 -30 -31 -49s-11.5 -39.833 -11.5 -62.5s3.83301 -43.5 11.5 -62.5s18.167 -35.333 31.5 -49
s28.666 -24.334 45.999 -32.001s36 -11.5 56 -11.5c22.667 0 41.667 3.16699 57 9.5s27.666 13.166 36.999 20.499c11.333 8.66699 20 18.667 26 30h-125v120zM360 780.002c10 0 17.8301 2.33301 23.4971 7s10.167 9.66699 13.5 15c3.33301 6.66699 6 14.334 8 23.001h110
c-1.33301 -18.667 -6.16602 -36.5 -14.499 -53.5s-19.333 -31.833 -33 -44.5s-29.667 -22.834 -48 -30.501s-38.166 -11.5 -59.499 -11.5s-41.166 3.83301 -59.499 11.5s-34.333 17.834 -48 30.501s-24.667 27.5 -33 44.5s-13.166 34.833 -14.499 53.5h110
c1.33301 -8.66699 3.66602 -16.334 6.99902 -23.001c3.33301 -5.33301 8 -10.333 14 -15s14 -7 24 -7z" />
    <glyph glyph-name="gbreve" unicode="&#x11f;" horiz-adv-x="560" 
d="M345 250c0 25.333 -7.66699 45.833 -23 61.5s-34.333 23.5 -57 23.5s-41.667 -7.83301 -57 -23.5s-23 -36.167 -23 -61.5s7.66699 -45.833 23 -61.5s34.333 -23.5 57 -23.5s41.667 7.83301 57 23.5s23 36.167 23 61.5zM345 70
c-8 -7.33301 -17.6689 -14.002 -29.002 -20.002c-9.33301 -5.33301 -21.333 -10 -36 -14s-31.334 -6 -50.001 -6c-27.333 0 -53.5 5.66699 -78.5 17s-46.833 26.833 -65.5 46.5s-33.5 42.834 -44.5 69.501s-16.5 55.667 -16.5 87s5.5 60.333 16.5 87
s25.833 49.834 44.5 69.501s40.5 35.167 65.5 46.5s51.167 17 78.5 17c20 0 38.167 -2.83301 54.5 -8.5s30.5 -12.167 42.5 -19.5c14 -8 26.667 -17 38 -27l25 45h115v-415c0 -30 -5.66699 -58 -17 -84s-27.333 -48.833 -48 -68.5s-45.5 -35 -74.5 -46
s-60.833 -16.5 -95.5 -16.5c-24.667 0 -46.667 2.33301 -66 7s-36.666 10.667 -51.999 18s-28.833 15.833 -40.5 25.5s-21.5 19.5 -29.5 29.5c-19.333 23.333 -33.333 50 -42 80l160 15c2.66699 -7.33301 7.33398 -14 14.001 -20c5.33301 -5.33301 12.5 -10 21.5 -14
s20.5 -6 34.5 -6c22.667 0 40.834 7 54.501 21s20.5 33.667 20.5 59v25zM269.998 599.998c10 0 17.8301 2.33301 23.4971 7s10.167 9.66699 13.5 15c3.33301 6.66699 6 14.334 8 23.001h110c-1.33301 -18.667 -6.16602 -36.5 -14.499 -53.5s-19.333 -31.833 -33 -44.5
s-29.667 -22.834 -48 -30.501s-38.166 -11.5 -59.499 -11.5s-41.166 3.83301 -59.499 11.5s-34.333 17.834 -48 30.501s-24.667 27.5 -33 44.5s-13.166 34.833 -14.499 53.5h110c1.33301 -8.66699 3.66602 -16.334 6.99902 -23.001c3.33301 -5.33301 8 -10.333 14 -15
s14 -7 24 -7z" />
    <glyph glyph-name="Gcommaaccent" unicode="&#x122;" horiz-adv-x="705" 
d="M345 340l315 0.00195312v-340h-115l-25 60c-13.333 -13.333 -29 -25 -47 -35c-15.333 -9.33301 -34.166 -17.5 -56.499 -24.5s-47.833 -10.5 -76.5 -10.5c-42.667 0 -82.834 8.33301 -120.501 25s-70.5 39.5 -98.5 68.5s-50.167 63.333 -66.5 103s-24.5 82.5 -24.5 128.5
s8.16699 88.833 24.5 128.5s39 74 68 103s62.833 51.833 101.5 68.5s80.667 25 126 25c30 0 57.333 -3.33301 82 -10s46.834 -15.167 66.501 -25.5s37 -22.333 52 -36s28.167 -27.5 39.5 -41.5c26.667 -32.667 46.667 -70 60 -112l-180 -15
c-6 12.667 -14.667 24.334 -26 35.001c-9.33301 8.66699 -21.666 16.667 -36.999 24s-34.333 11 -57 11c-20 0 -38.833 -3.83301 -56.5 -11.5s-33 -18.334 -46 -32.001s-23.333 -30 -31 -49s-11.5 -39.833 -11.5 -62.5s3.83301 -43.5 11.5 -62.5s18.167 -35.333 31.5 -49
s28.666 -24.334 45.999 -32.001s36 -11.5 56 -11.5c22.667 0 41.667 3.16699 57 9.5s27.666 13.166 36.999 20.499c11.333 8.66699 20 18.667 26 30h-125v120zM300 -259.998c7.33301 4 14.333 9 21 15c5.33301 5.33301 10.833 11.666 16.5 18.999s9.83398 16 12.501 26
c-50 4.66699 -75 29.667 -75 75c0 20 7.5 37.5 22.5 52.5s32.5 22.5 52.5 22.5s37.5 -7.83301 52.5 -23.5s22.5 -36.167 22.5 -61.5c0 -30 -5.16699 -55.5 -15.5 -76.5s-21.833 -38.167 -34.5 -51.5c-14.667 -15.333 -31.334 -27.666 -50.001 -36.999z" />
    <glyph glyph-name="gcommaaccent" unicode="&#x123;" horiz-adv-x="560" 
d="M325 715c-7.33301 -4 -14.333 -9.00098 -21 -15.001c-5.33301 -5.33301 -10.833 -11.666 -16.5 -18.999s-9.83398 -16 -12.501 -26c50 -5.33301 75 -30.333 75 -75c0 -20 -7.5 -37.5 -22.5 -52.5s-32.5 -22.5 -52.5 -22.5s-37.5 7.83301 -52.5 23.5
s-22.5 36.167 -22.5 61.5c0 30 5.16699 55.333 15.5 76s21.833 37.667 34.5 51c14.667 15.333 31.334 28 50.001 38zM345 249.999c0 25.333 -7.66699 45.833 -23 61.5s-34.333 23.5 -57 23.5s-41.667 -7.83301 -57 -23.5s-23 -36.167 -23 -61.5s7.66699 -45.833 23 -61.5
s34.333 -23.5 57 -23.5s41.667 7.83301 57 23.5s23 36.167 23 61.5zM345 69.999c-8 -7.33301 -17.6689 -14.002 -29.002 -20.002c-9.33301 -5.33301 -21.333 -10 -36 -14s-31.334 -6 -50.001 -6c-27.333 0 -53.5 5.66699 -78.5 17s-46.833 26.833 -65.5 46.5
s-33.5 42.834 -44.5 69.501s-16.5 55.667 -16.5 87s5.5 60.333 16.5 87s25.833 49.834 44.5 69.501s40.5 35.167 65.5 46.5s51.167 17 78.5 17c20 0 38.167 -2.83301 54.5 -8.5s30.5 -12.167 42.5 -19.5c14 -8 26.667 -17 38 -27l25 45h115v-415c0 -30 -5.66699 -58 -17 -84
s-27.333 -48.833 -48 -68.5s-45.5 -35 -74.5 -46s-60.833 -16.5 -95.5 -16.5c-24.667 0 -46.667 2.33301 -66 7s-36.666 10.667 -51.999 18s-28.833 15.833 -40.5 25.5s-21.5 19.5 -29.5 29.5c-19.333 23.333 -33.333 50 -42 80l160 15
c2.66699 -7.33301 7.33398 -14 14.001 -20c5.33301 -5.33301 12.5 -10 21.5 -14s20.5 -6 34.5 -6c22.667 0 40.834 7 54.501 21s20.5 33.667 20.5 59v25z" />
    <glyph glyph-name="Imacron" unicode="&#x12a;" horiz-adv-x="285" 
d="M230 0h-175v630h175v-630zM285 690h-280v120h280v-120z" />
    <glyph glyph-name="imacron" unicode="&#x12b;" horiz-adv-x="250" 
d="M265 520h-280v120h280v-120zM205 0h-160v460h160v-460z" />
    <glyph glyph-name="Iogonek" unicode="&#x12e;" horiz-adv-x="285" 
d="M55 630l175 0.00195312v-630h-95c-6 -8 -11 -16 -15 -24c-4 -7.33301 -7.5 -15.5 -10.5 -24.5s-4.5 -17.833 -4.5 -26.5c0 -12.667 4.33301 -23.334 13 -32.001s19.334 -13 32.001 -13c6 0 11.5 0.166992 16.5 0.5s9.16699 0.833008 12.5 1.5
c4 0.666992 7.66699 1.66699 11 3v-70c-6 -2.66699 -12.667 -5.33398 -20 -8.00098c-6.66699 -2 -14.5 -3.66699 -23.5 -5s-18.833 -2 -29.5 -2c-36 0 -63.667 8.83301 -83 26.5s-29 40.5 -29 68.5c0 15.333 2.5 29.333 7.5 42s10.833 23.667 17.5 33
c7.33301 11.333 15.666 21.333 24.999 30v630z" />
    <glyph glyph-name="iogonek" unicode="&#x12f;" horiz-adv-x="250" 
d="M45 460l160 0.00195312v-460h-80c-6 -8 -11 -16 -15 -24c-4 -7.33301 -7.5 -15.5 -10.5 -24.5s-4.5 -17.833 -4.5 -26.5c0 -12.667 4.33301 -23.334 13 -32.001s19.334 -13 32.001 -13c6 0 11.5 0.166992 16.5 0.5s9.16699 0.833008 12.5 1.5
c4 0.666992 7.66699 1.66699 11 3v-70c-6 -2.66699 -12.667 -5.33398 -20 -8.00098c-6.66699 -2 -14.5 -3.66699 -23.5 -5s-18.833 -2 -29.5 -2c-36 0 -63.667 8.83301 -83 26.5s-29 40.5 -29 68.5c0 15.333 2.5 29.333 7.5 42s10.833 23.667 17.5 33
c7.33301 11.333 15.666 21.333 24.999 30v460zM40 585.002c0 22.667 7.83301 41.667 23.5 57s36.167 23 61.5 23s45.833 -7.66699 61.5 -23s23.5 -34.333 23.5 -57s-7.83301 -41.667 -23.5 -57s-36.167 -23 -61.5 -23s-45.833 7.66699 -61.5 23s-23.5 34.333 -23.5 57z" />
    <glyph glyph-name="Idotaccent" unicode="&#x130;" horiz-adv-x="285" 
d="M230 0h-175v630h175v-630zM230 760c0 -11.333 -2.33301 -22.166 -7 -32.499s-10.834 -19.333 -18.501 -27s-16.667 -13.834 -27 -18.501s-21.166 -7 -32.499 -7s-22.166 2.33301 -32.499 7s-19.333 10.834 -27 18.501s-13.834 16.667 -18.501 27s-7 21.166 -7 32.499
s2.33301 22.166 7 32.499s10.834 19.333 18.501 27s16.667 13.834 27 18.501s21.166 7 32.499 7s22.166 -2.33301 32.499 -7s19.333 -10.834 27 -18.501s13.834 -16.667 18.501 -27s7 -21.166 7 -32.499z" />
    <glyph glyph-name="dotlessi" unicode="&#x131;" horiz-adv-x="250" 
d="M205 0h-160v460h160v-460z" />
    <glyph glyph-name="ij" unicode="&#x133;" horiz-adv-x="505" 
d="M460 10c0 -58 -15.334 -102.503 -46.001 -133.503s-73.667 -46.5 -129 -46.5c-10 0 -19.5 0.666992 -28.5 2s-17.167 3 -24.5 5c-8 2.66699 -15.333 5.33398 -22 8.00098v140c2 -1.33301 4.33301 -2.33301 7 -3c6.66699 -1.33301 14.334 -2 23.001 -2
c17.333 0 31.666 6 42.999 18s17 29.333 17 52c-6.66699 -5.33301 -14.667 -9.66602 -24 -12.999c-8 -3.33301 -17.667 -6.16602 -29 -8.49902s-23.666 -3.5 -36.999 -3.5c-24 0 -46 4 -66 12s-37.333 19.5 -52 34.5s-26.167 33.333 -34.5 55s-12.5 46.167 -12.5 73.5v260
h160v-230c0 -40 18.333 -60 55 -60c14 0 24.333 1.66699 31 5c3.33301 1.33301 6.33301 3 9 5v280h160v-450zM39.999 584.997c0 22.667 7.83301 41.667 23.5 57s36.167 23 61.5 23s45.833 -7.66699 61.5 -23s23.5 -34.333 23.5 -57s-7.83301 -41.667 -23.5 -57
s-36.167 -23 -61.5 -23s-45.833 7.66699 -61.5 23s-23.5 34.333 -23.5 57zM464.999 584.997c0 -22.667 -7.83301 -41.667 -23.5 -57s-36.167 -23 -61.5 -23s-45.833 7.66699 -61.5 23s-23.5 34.333 -23.5 57s7.83301 41.667 23.5 57s36.167 23 61.5 23
s45.833 -7.66699 61.5 -23s23.5 -34.333 23.5 -57z" />
    <glyph glyph-name="Kcommaaccent" unicode="&#x136;" horiz-adv-x="595" 
d="M405 0l-175 275v-275h-175v630h175v-267l160 267h195l-200 -310l220 -320h-200zM260 -260c7.33301 4 14.333 9 21 15c5.33301 5.33301 10.833 11.666 16.5 18.999s9.83398 16 12.501 26c-50 4.66699 -75 29.667 -75 75c0 20 7.5 37.5 22.5 52.5s32.5 22.5 52.5 22.5
s37.5 -7.83301 52.5 -23.5s22.5 -36.167 22.5 -61.5c0 -30 -5.16699 -55.5 -15.5 -76.5s-21.833 -38.167 -34.5 -51.5c-14.667 -15.333 -31.334 -27.666 -50.001 -36.999z" />
    <glyph glyph-name="kcommaaccent" unicode="&#x137;" horiz-adv-x="500" 
d="M325 0l-120 195v-195h-160v630h160v-350l105 180h180l-140 -220l155 -240h-180zM205 -260c7.33301 4 14.333 9 21 15c5.33301 5.33301 10.833 11.666 16.5 18.999s9.83398 16 12.501 26c-50 4.66699 -75 29.667 -75 75c0 20 7.5 37.5 22.5 52.5s32.5 22.5 52.5 22.5
s37.5 -7.83301 52.5 -23.5s22.5 -36.167 22.5 -61.5c0 -30 -5.16699 -55.5 -15.5 -76.5s-21.833 -38.167 -34.5 -51.5c-14.667 -15.333 -31.334 -27.666 -50.001 -36.999z" />
    <glyph glyph-name="Lacute" unicode="&#x139;" horiz-adv-x="515" 
d="M55 630h175v-460h275v-170h-450v630zM135 835h165l-100 -140h-130z" />
    <glyph glyph-name="lacute" unicode="&#x13a;" horiz-adv-x="265" 
d="M205 0h-160v630h160v-630zM120 835h165l-100 -140h-130z" />
    <glyph glyph-name="Lcommaaccent" unicode="&#x13b;" horiz-adv-x="515" 
d="M55 630h175v-460h275v-170h-450v630zM240 -260c7.33301 4 14.333 9 21 15c5.33301 5.33301 10.833 11.666 16.5 18.999s9.83398 16 12.501 26c-50 4.66699 -75 29.667 -75 75c0 20 7.5 37.5 22.5 52.5s32.5 22.5 52.5 22.5s37.5 -7.83301 52.5 -23.5
s22.5 -36.167 22.5 -61.5c0 -30 -5.16699 -55.5 -15.5 -76.5s-21.833 -38.167 -34.5 -51.5c-14.667 -15.333 -31.334 -27.666 -50.001 -36.999z" />
    <glyph glyph-name="lcommaaccent" unicode="&#x13c;" horiz-adv-x="250" 
d="M205 0h-160v630h160v-630zM75 -260c7.33301 4 14.333 9 21 15c5.33301 5.33301 10.833 11.666 16.5 18.999s9.83398 16 12.501 26c-50 4.66699 -75 29.667 -75 75c0 20 7.5 37.5 22.5 52.5s32.5 22.5 52.5 22.5s37.5 -7.83301 52.5 -23.5s22.5 -36.167 22.5 -61.5
c0 -30 -5.16699 -55.5 -15.5 -76.5s-21.833 -38.167 -34.5 -51.5c-14.667 -15.333 -31.334 -27.666 -50.001 -36.999z" />
    <glyph glyph-name="Lcaron" unicode="&#x13d;" horiz-adv-x="515" 
d="M305 630h155l-70 -140h-120zM55 630h175v-460h275v-170h-450v630z" />
    <glyph glyph-name="lcaron" unicode="&#x13e;" horiz-adv-x="375" 
d="M280 630h155l-70 -140h-120zM205 0h-160v630h160v-630z" />
    <glyph glyph-name="Lslash" unicode="&#x141;" horiz-adv-x="540" 
d="M80 155l-70 -45v155l70 45v320h175v-215l105 65v-155l-105 -65v-90h275v-170h-450v155z" />
    <glyph glyph-name="lslash" unicode="&#x142;" horiz-adv-x="320" 
d="M10 300l65 45v285h160v-175l75 50v-155l-75 -50v-300h-160v190l-65 -45v155z" />
    <glyph glyph-name="Nacute" unicode="&#x143;" horiz-adv-x="675" 
d="M620 630v-630h-160l-230 325v-325h-175v630h160l230 -325v325h175zM335 835h165l-100 -140h-130z" />
    <glyph glyph-name="nacute" unicode="&#x144;" horiz-adv-x="545" 
d="M320 470c27.333 0 52.333 -4.5 75 -13.5s42.167 -22.167 58.5 -39.5s29 -38.333 38 -63s13.5 -52.667 13.5 -84v-270h-160v240c0 25.333 -6.66699 45 -20 59s-30 21 -50 21s-36.667 -7 -50 -21s-20 -33.667 -20 -59v-240h-160v460h115l25 -45c10.667 10 22.667 19 36 27
c11.333 7.33301 25.333 13.833 42 19.5s35.667 8.5 57 8.5zM275 655h165l-100 -140h-130z" />
    <glyph glyph-name="Ncommaaccent" unicode="&#x145;" horiz-adv-x="675" 
d="M620 630v-630h-160l-230 325v-325h-175v630h160l230 -325v325h175zM295 -260c7.33301 4 14.333 9 21 15c5.33301 5.33301 10.833 11.666 16.5 18.999s9.83398 16 12.501 26c-50 4.66699 -75 29.667 -75 75c0 20 7.5 37.5 22.5 52.5s32.5 22.5 52.5 22.5
s37.5 -7.83301 52.5 -23.5s22.5 -36.167 22.5 -61.5c0 -30 -5.16699 -55.5 -15.5 -76.5s-21.833 -38.167 -34.5 -51.5c-14.667 -15.333 -31.334 -27.666 -50.001 -36.999z" />
    <glyph glyph-name="ncommaaccent" unicode="&#x146;" horiz-adv-x="545" 
d="M320 470c27.333 0 52.333 -4.5 75 -13.5s42.167 -22.167 58.5 -39.5s29 -38.333 38 -63s13.5 -52.667 13.5 -84v-270h-160v240c0 25.333 -6.66699 45 -20 59s-30 21 -50 21s-36.667 -7 -50 -21s-20 -33.667 -20 -59v-240h-160v460h115l25 -45c10.667 10 22.667 19 36 27
c11.333 7.33301 25.333 13.833 42 19.5s35.667 8.5 57 8.5zM225 -260c7.33301 4 14.333 9 21 15c5.33301 5.33301 10.833 11.666 16.5 18.999s9.83398 16 12.501 26c-50 4.66699 -75 29.667 -75 75c0 20 7.5 37.5 22.5 52.5s32.5 22.5 52.5 22.5s37.5 -7.83301 52.5 -23.5
s22.5 -36.167 22.5 -61.5c0 -30 -5.16699 -55.5 -15.5 -76.5s-21.833 -38.167 -34.5 -51.5c-14.667 -15.333 -31.334 -27.666 -50.001 -36.999z" />
    <glyph glyph-name="Ncaron" unicode="&#x147;" horiz-adv-x="675" 
d="M620 630v-630h-160l-230 325v-325h-175v630h160l230 -325v325h175zM385 835h130l-105 -140h-140l-105 140h130l45 -60z" />
    <glyph glyph-name="ncaron" unicode="&#x148;" horiz-adv-x="545" 
d="M320 470c27.333 0 52.333 -4.5 75 -13.5s42.167 -22.167 58.5 -39.5s29 -38.333 38 -63s13.5 -52.667 13.5 -84v-270h-160v240c0 25.333 -6.66699 45 -20 59s-30 21 -50 21s-36.667 -7 -50 -21s-20 -33.667 -20 -59v-240h-160v460h115l25 -45c10.667 10 22.667 19 36 27
c11.333 7.33301 25.333 13.833 42 19.5s35.667 8.5 57 8.5zM325 655h130l-105 -140h-140l-105 140h130l45 -60z" />
    <glyph glyph-name="Omacron" unicode="&#x14c;" horiz-adv-x="700" 
d="M205 315c0 -22.667 3.83301 -43.5 11.5 -62.5s18 -35.333 31 -49s28.333 -24.334 46 -32.001s36.5 -11.5 56.5 -11.5s38.833 3.83301 56.5 11.5s33 18.334 46 32.001s23.333 30 31 49s11.5 39.833 11.5 62.5s-3.83301 43.5 -11.5 62.5s-18 35.333 -31 49
s-28.333 24.334 -46 32.001s-36.5 11.5 -56.5 11.5s-38.833 -3.83301 -56.5 -11.5s-33 -18.334 -46 -32.001s-23.333 -30 -31 -49s-11.5 -39.833 -11.5 -62.5zM670 315c0 -46 -8.16699 -88.833 -24.5 -128.5s-39 -74 -68 -103s-63 -51.833 -102 -68.5
s-80.833 -25 -125.5 -25c-45.333 0 -87.333 8.33301 -126 25s-72.5 39.5 -101.5 68.5s-51.667 63.333 -68 103s-24.5 82.5 -24.5 128.5s8.16699 88.833 24.5 128.5s39 74 68 103s62.833 51.833 101.5 68.5s80.667 25 126 25c44.667 0 86.5 -8.33301 125.5 -25
s73 -39.5 102 -68.5s51.667 -63.333 68 -103s24.5 -82.5 24.5 -128.5zM495 690h-280v120h280v-120z" />
    <glyph glyph-name="omacron" unicode="&#x14d;" horiz-adv-x="540" 
d="M185 230c0 -25.333 8.5 -46.666 25.5 -63.999s36.833 -26 59.5 -26s42.5 8.66699 59.5 26s25.5 38.666 25.5 63.999s-8.5 46.666 -25.5 63.999s-36.833 26 -59.5 26s-42.5 -8.66699 -59.5 -26s-25.5 -38.666 -25.5 -63.999zM515 230c0 -34 -6.16699 -65.5 -18.5 -94.5
s-29.5 -54.333 -51.5 -76s-48 -38.667 -78 -51s-62.333 -18.5 -97 -18.5c-35.333 0 -67.833 6.16699 -97.5 18.5s-55.5 29.333 -77.5 51s-39.167 47 -51.5 76s-18.5 60.5 -18.5 94.5s6.16699 65.5 18.5 94.5s29.5 54.333 51.5 76s47.833 38.667 77.5 51
s62.167 18.5 97.5 18.5c34.667 0 67 -6.16699 97 -18.5s56 -29.333 78 -51s39.167 -47 51.5 -76s18.5 -60.5 18.5 -94.5zM415 520h-280v120h280v-120z" />
    <glyph glyph-name="Ohungarumlaut" unicode="&#x150;" horiz-adv-x="700" 
d="M205 315c0 -22.667 3.83301 -43.5 11.5 -62.5s18 -35.333 31 -49s28.333 -24.334 46 -32.001s36.5 -11.5 56.5 -11.5s38.833 3.83301 56.5 11.5s33 18.334 46 32.001s23.333 30 31 49s11.5 39.833 11.5 62.5s-3.83301 43.5 -11.5 62.5s-18 35.333 -31 49
s-28.333 24.334 -46 32.001s-36.5 11.5 -56.5 11.5s-38.833 -3.83301 -56.5 -11.5s-33 -18.334 -46 -32.001s-23.333 -30 -31 -49s-11.5 -39.833 -11.5 -62.5zM670 315c0 -46 -8.16699 -88.833 -24.5 -128.5s-39 -74 -68 -103s-63 -51.833 -102 -68.5
s-80.833 -25 -125.5 -25c-45.333 0 -87.333 8.33301 -126 25s-72.5 39.5 -101.5 68.5s-51.667 63.333 -68 103s-24.5 82.5 -24.5 128.5s8.16699 88.833 24.5 128.5s39 74 68 103s62.833 51.833 101.5 68.5s80.667 25 126 25c44.667 0 86.5 -8.33301 125.5 -25
s73 -39.5 102 -68.5s51.667 -63.333 68 -103s24.5 -82.5 24.5 -128.5zM275 835h150l-110 -140h-115zM465 835h150l-110 -140h-115z" />
    <glyph glyph-name="ohungarumlaut" unicode="&#x151;" horiz-adv-x="540" 
d="M185 230c0 -25.333 8.5 -46.666 25.5 -63.999s36.833 -26 59.5 -26s42.5 8.66699 59.5 26s25.5 38.666 25.5 63.999s-8.5 46.666 -25.5 63.999s-36.833 26 -59.5 26s-42.5 -8.66699 -59.5 -26s-25.5 -38.666 -25.5 -63.999zM515 230c0 -34 -6.16699 -65.5 -18.5 -94.5
s-29.5 -54.333 -51.5 -76s-48 -38.667 -78 -51s-62.333 -18.5 -97 -18.5c-35.333 0 -67.833 6.16699 -97.5 18.5s-55.5 29.333 -77.5 51s-39.167 47 -51.5 76s-18.5 60.5 -18.5 94.5s6.16699 65.5 18.5 94.5s29.5 54.333 51.5 76s47.833 38.667 77.5 51
s62.167 18.5 97.5 18.5c34.667 0 67 -6.16699 97 -18.5s56 -29.333 78 -51s39.167 -47 51.5 -76s18.5 -60.5 18.5 -94.5zM195 650h150l-110 -140h-115zM385 650h150l-110 -140h-115z" />
    <glyph glyph-name="OE" unicode="&#x152;" horiz-adv-x="875" 
d="M350 0c-46 0 -88.667 8 -128 24s-73.166 38 -101.499 66s-50.5 61.167 -66.5 99.5s-24 80.166 -24 125.499c0 44.667 8 86.334 24 125.001s38.167 72 66.5 100s62.166 50 101.499 66s82 24 128 24h480v-155h-265v-80h240v-150h-240v-90h275v-155h-490zM390 160v310.002
h-40c-20 0 -38.833 -3.83301 -56.5 -11.5s-33 -18.334 -46 -32.001s-23.333 -30 -31 -49s-11.5 -39.833 -11.5 -62.5s3.83301 -43.5 11.5 -62.5s18 -35.333 31 -49s28.333 -24.334 46 -32.001s36.5 -11.5 56.5 -11.5h40z" />
    <glyph glyph-name="oe" unicode="&#x153;" horiz-adv-x="845" 
d="M805 140c-6 -18.667 -14.9961 -36.999 -26.9961 -54.999s-27 -34 -45 -48s-39.333 -25.333 -64 -34s-52.667 -13 -84 -13c-26.667 0 -49.5 3.83301 -68.5 11.5s-35.167 16.167 -48.5 25.5c-15.333 11.333 -28 24 -38 38c-12 -14 -26.667 -26.667 -44 -38
c-14.667 -9.33301 -32.334 -17.833 -53.001 -25.5s-45 -11.5 -73 -11.5c-32.667 0 -63.167 6.16699 -91.5 18.5s-53.166 29.333 -74.499 51s-38.166 47 -50.499 76s-18.5 60.5 -18.5 94.5s6.16699 65.5 18.5 94.5s29.166 54.333 50.499 76s46.166 38.667 74.499 51
s58.833 18.5 91.5 18.5c28.667 0 53.667 -4 75 -12s39 -16.667 53 -26c16.667 -11.333 30.667 -23.666 42 -36.999c10 13.333 22.667 25.666 38 36.999c13.333 9.33301 29.5 18 48.5 26s41.833 12 68.5 12c32.667 0 63.167 -5.83301 91.5 -17.5s53.166 -28 74.499 -49
s38.166 -45.833 50.499 -74.5s18.5 -60 18.5 -94c0 -6.66699 -0.333008 -12.834 -1 -18.501s-1.33398 -10.834 -2.00098 -15.501l-2 -16h-305c3.33301 -11.333 8.33301 -21.333 15 -30c5.33301 -7.33301 12.833 -14.166 22.5 -20.499s22.167 -9.5 37.5 -9.5
c11.333 0 20.833 1.5 28.5 4.5s13.834 6.5 18.501 10.5c5.33301 4 9.66602 9 12.999 15zM180.004 230.001c0 -14 2.33301 -26.667 7 -38s10.667 -21.333 18 -30s15.833 -15.334 25.5 -20.001s19.5 -7 29.5 -7s19.833 2.33301 29.5 7s18.167 11.334 25.5 20.001
s13.333 18.667 18 30s7 24 7 38s-2.33301 26.667 -7 38s-10.667 21.333 -18 30s-15.833 15.334 -25.5 20.001s-19.5 7 -29.5 7s-19.833 -2.33301 -29.5 -7s-18.167 -11.334 -25.5 -20.001s-13.333 -18.667 -18 -30s-7 -24 -7 -38zM580.004 340.001
c-20 0 -36.8311 -6.5 -50.498 -19.5s-21.834 -28.167 -24.501 -45.5h150c-2.66699 17.333 -10.834 32.5 -24.501 45.5s-30.5 19.5 -50.5 19.5z" />
    <glyph glyph-name="Racute" unicode="&#x154;" horiz-adv-x="600" 
d="M400 0l-31.5 59.001l-34.5 66l-39 75h-65v-200h-175v630h275c34.667 0 66.5 -5.5 95.5 -16.5s53.833 -26.333 74.5 -46s36.667 -42.5 48 -68.5s17 -54 17 -84c0 -32 -5.83301 -58.833 -17.5 -80.5s-24.167 -39.5 -37.5 -53.5c-16.667 -16.667 -35 -30.334 -55 -41.001
l140 -240h-195zM320 360.001c20 0 35.833 5.33301 47.5 16s17.5 23.667 17.5 39s-5.83301 28.333 -17.5 39s-27.5 16 -47.5 16h-90v-110h90zM290 835.001h165l-100 -140h-130z" />
    <glyph glyph-name="racute" unicode="&#x155;" horiz-adv-x="360" 
d="M290 470c7.33301 0 13.999 -0.5 19.999 -1.5s11.333 -2.16699 16 -3.5c5.33301 -2 10 -3.66699 14 -5v-165c-4.66699 1.33301 -10 3 -16 5c-5.33301 1.33301 -11.333 2.5 -18 3.5s-13.667 1.5 -21 1.5c-22.667 0 -41.667 -8 -57 -24s-23 -38 -23 -66v-215h-160v460h115
l25 -45c8 10 17.333 19 28 27c9.33301 7.33301 20.333 13.833 33 19.5s27.334 8.5 44.001 8.5zM189.999 650h165l-100 -140h-130z" />
    <glyph glyph-name="Rcommaaccent" unicode="&#x156;" horiz-adv-x="600" 
d="M400 0l-31.5 59.001l-34.5 66l-39 75h-65v-200h-175v630h275c34.667 0 66.5 -5.5 95.5 -16.5s53.833 -26.333 74.5 -46s36.667 -42.5 48 -68.5s17 -54 17 -84c0 -32 -5.83301 -58.833 -17.5 -80.5s-24.167 -39.5 -37.5 -53.5c-16.667 -16.667 -35 -30.334 -55 -41.001
l140 -240h-195zM320 360.001c20 0 35.833 5.33301 47.5 16s17.5 23.667 17.5 39s-5.83301 28.333 -17.5 39s-27.5 16 -47.5 16h-90v-110h90zM260 -259.999c7.33301 4 14.333 9 21 15c5.33301 5.33301 10.833 11.666 16.5 18.999s9.83398 16 12.501 26
c-50 4.66699 -75 29.667 -75 75c0 20 7.5 37.5 22.5 52.5s32.5 22.5 52.5 22.5s37.5 -7.83301 52.5 -23.5s22.5 -36.167 22.5 -61.5c0 -30 -5.16699 -55.5 -15.5 -76.5s-21.833 -38.167 -34.5 -51.5c-14.667 -15.333 -31.334 -27.666 -50.001 -36.999z" />
    <glyph glyph-name="rcommaaccent" unicode="&#x157;" horiz-adv-x="360" 
d="M290 470c7.33301 0 13.999 -0.5 19.999 -1.5s11.333 -2.16699 16 -3.5c5.33301 -2 10 -3.66699 14 -5v-165c-4.66699 1.33301 -10 3 -16 5c-5.33301 1.33301 -11.333 2.5 -18 3.5s-13.667 1.5 -21 1.5c-22.667 0 -41.667 -8 -57 -24s-23 -38 -23 -66v-215h-160v460h115
l25 -45c8 10 17.333 19 28 27c9.33301 7.33301 20.333 13.833 33 19.5s27.334 8.5 44.001 8.5zM74.999 -260c7.33301 4 14.333 9 21 15c5.33301 5.33301 10.833 11.666 16.5 18.999s9.83398 16 12.501 26c-50 4.66699 -75 29.667 -75 75c0 20 7.5 37.5 22.5 52.5
s32.5 22.5 52.5 22.5s37.5 -7.83301 52.5 -23.5s22.5 -36.167 22.5 -61.5c0 -30 -5.16699 -55.5 -15.5 -76.5s-21.833 -38.167 -34.5 -51.5c-14.667 -15.333 -31.334 -27.666 -50.001 -36.999z" />
    <glyph glyph-name="Rcaron" unicode="&#x158;" horiz-adv-x="600" 
d="M400 0l-31.5 59.001l-34.5 66l-39 75h-65v-200h-175v630h275c34.667 0 66.5 -5.5 95.5 -16.5s53.833 -26.333 74.5 -46s36.667 -42.5 48 -68.5s17 -54 17 -84c0 -32 -5.83301 -58.833 -17.5 -80.5s-24.167 -39.5 -37.5 -53.5c-16.667 -16.667 -35 -30.334 -55 -41.001
l140 -240h-195zM320 360.001c20 0 35.833 5.33301 47.5 16s17.5 23.667 17.5 39s-5.83301 28.333 -17.5 39s-27.5 16 -47.5 16h-90v-110h90zM345 835.001h130l-105 -140h-140l-105 140h130l45 -60z" />
    <glyph glyph-name="rcaron" unicode="&#x159;" horiz-adv-x="360" 
d="M290 470c7.33301 0 13.999 -0.5 19.999 -1.5s11.333 -2.16699 16 -3.5c5.33301 -2 10 -3.66699 14 -5v-165c-4.66699 1.33301 -10 3 -16 5c-5.33301 1.33301 -11.333 2.5 -18 3.5s-13.667 1.5 -21 1.5c-22.667 0 -41.667 -8 -57 -24s-23 -38 -23 -66v-215h-160v460h115
l25 -45c8 10 17.333 19 28 27c9.33301 7.33301 20.333 13.833 33 19.5s27.334 8.5 44.001 8.5zM239.999 655h130l-105 -140h-140l-105 140h130l45 -60z" />
    <glyph glyph-name="Sacute" unicode="&#x15a;" horiz-adv-x="545" 
d="M30 455c0 24.667 5.16602 48.3311 15.499 70.998s25.333 42.334 45 59.001s43.834 30 72.501 40s61 15 97 15c37.333 0 71.166 -5.5 101.499 -16.5s56.166 -26 77.499 -45s37.666 -41.333 48.999 -67s17 -52.834 17 -81.501l-170 -15c0 20 -6.5 35.833 -19.5 47.5
s-28.167 17.5 -45.5 17.5c-15.333 0 -27.5 -4.16699 -36.5 -12.5s-13.5 -17.5 -13.5 -27.5c0 -12.667 7.33301 -22.5 22 -29.5s32.834 -13.833 54.501 -20.5l71 -22.5c25.667 -8.33301 49.334 -20 71.001 -35s39.834 -34.167 54.501 -57.5s22 -53.333 22 -90
c0 -25.333 -5.66699 -49.666 -17 -72.999s-27.666 -44 -48.999 -62s-47.166 -32.5 -77.499 -43.5s-64.166 -16.5 -101.499 -16.5c-38.667 0 -73.5 5.5 -104.5 16.5s-57.167 26.333 -78.5 46s-37.833 42.5 -49.5 68.5s-17.5 54 -17.5 84l170 15c0 -20 6.66699 -36.667 20 -50
s30 -20 50 -20c22.667 0 39.167 5 49.5 15s15.5 20 15.5 30c0 12.667 -7.33301 22.667 -22 30s-32.834 14.5 -54.501 21.5l-71 24c-25.667 9 -49.334 21 -71.001 36s-39.834 34.333 -54.501 58s-22 53.834 -22 90.501zM269.999 834.997h165l-100 -140h-130z" />
    <glyph glyph-name="sacute" unicode="&#x15b;" horiz-adv-x="455" 
d="M170 155c2 -7.33301 5.33301 -14.001 10 -20.001c3.33301 -5.33301 8.33301 -10 15 -14s15 -6 25 -6c15.333 0 26.666 3.16699 33.999 9.5s11 13.166 11 20.499c0 6.66699 -5.83301 12.167 -17.5 16.5s-26.167 8.83301 -43.5 13.5s-36.166 10.334 -56.499 17.001
s-39.166 15.5 -56.499 26.5s-31.833 25 -43.5 42s-17.5 38.5 -17.5 64.5c0 18.667 4.33301 36.667 13 54s21 32.833 37 46.5s35.833 24.5 59.5 32.5s50.5 12 80.5 12c64.667 0 113.334 -13.5 146.001 -40.5s54 -61.833 64 -104.5l-150 -15c-2 6 -4.66699 11.667 -8 17
c-3.33301 4.66699 -7.83301 8.83398 -13.5 12.501s-13.5 5.5 -23.5 5.5c-23.333 0 -35 -8.33301 -35 -25c0 -6.66699 5.83301 -12 17.5 -16s26.167 -8.33301 43.5 -13l56.5 -16c20.333 -6 39.166 -14.667 56.499 -26s31.833 -25.666 43.5 -42.999s17.5 -39.333 17.5 -66
c0 -20 -4.33301 -39 -13 -57s-21.5 -34 -38.5 -48s-37.833 -25 -62.5 -33s-53.334 -12 -86.001 -12c-67.333 0 -117.5 13.667 -150.5 41s-54.5 63.666 -64.5 108.999zM225 649.999h165l-100 -140h-130z" />
    <glyph glyph-name="Scedilla" unicode="&#x15e;" horiz-adv-x="545" 
d="M30 455c0 24.667 5.16797 48.332 15.501 70.999s25.333 42.334 45 59.001s43.834 30 72.501 40s61 15 97 15c37.333 0 71.166 -5.5 101.499 -16.5s56.166 -26 77.499 -45s37.666 -41.333 48.999 -67s17 -52.834 17 -81.501l-170 -15c0 20 -6.5 35.833 -19.5 47.5
s-28.167 17.5 -45.5 17.5c-15.333 0 -27.5 -4.16699 -36.5 -12.5s-13.5 -17.5 -13.5 -27.5c0 -12.667 7.33301 -22.5 22 -29.5s32.834 -13.833 54.501 -20.5l71 -22.5c25.667 -8.33301 49.334 -20 71.001 -35s39.834 -34.167 54.501 -57.5s22 -53.333 22 -90
c0 -24 -5.33301 -47.167 -16 -69.5s-25.667 -42.5 -45 -60.5s-42.833 -32.667 -70.5 -44s-58.834 -18 -93.501 -20l-15 -31c18.667 -2 35.334 -6.66699 50.001 -14c12.667 -6 24.167 -14.667 34.5 -26s15.5 -26.333 15.5 -45c0 -25.333 -11.167 -46.666 -33.5 -63.999
s-56.166 -26 -101.499 -26c-20 0 -36.667 1.66699 -50 5c-7.33301 1.33301 -14 3 -20 5v55c3.33301 -1.33301 7.33301 -2.33301 12 -3c3.33301 -0.666992 7.5 -1.16699 12.5 -1.5s10.167 -0.5 15.5 -0.5c20 0 34.167 3.5 42.5 10.5s12.5 16.833 12.5 29.5
c0 7.33301 -3.66699 14.166 -11 20.499s-18.666 9.5 -33.999 9.5c-7.33301 0 -13.166 -0.833008 -17.499 -2.5s-6.83301 -2.5 -7.5 -2.5l32 83c-32.667 4 -61.834 12.167 -87.501 24.5s-47.334 27.833 -65.001 46.5s-31.167 40 -40.5 64s-14 49.667 -14 77l170 15
c0 -20 6.66699 -36.667 20 -50s30 -20 50 -20c22.667 0 39.167 5 49.5 15s15.5 20 15.5 30c0 12.667 -7.33301 22.667 -22 30s-32.834 14.5 -54.501 21.5l-71 24c-25.667 9 -49.334 21 -71.001 36s-39.834 34.333 -54.501 58s-22 53.834 -22 90.501z" />
    <glyph glyph-name="scedilla" unicode="&#x15f;" horiz-adv-x="455" 
d="M170 155c2 -7.33301 5.32812 -14.001 9.99512 -20.001c3.33301 -5.33301 8.33301 -10 15 -14s15 -6 25 -6c15.333 0 26.666 3.16699 33.999 9.5s11 13.166 11 20.499c0 6.66699 -5.83301 12.167 -17.5 16.5s-26.167 8.83301 -43.5 13.5s-36.166 10.334 -56.499 17.001
s-39.166 15.5 -56.499 26.5s-31.833 25 -43.5 42s-17.5 38.5 -17.5 64.5c0 18.667 4.33301 36.667 13 54s21 32.833 37 46.5s35.833 24.5 59.5 32.5s50.5 12 80.5 12c64.667 0 113.334 -13.5 146.001 -40.5s54 -61.833 64 -104.5l-150 -15c-2 6 -4.66699 11.667 -8 17
c-3.33301 4.66699 -7.83301 8.83398 -13.5 12.501s-13.5 5.5 -23.5 5.5c-23.333 0 -35 -8.33301 -35 -25c0 -6.66699 5.83301 -12 17.5 -16s26.167 -8.33301 43.5 -13l56.5 -16c20.333 -6 39.166 -14.667 56.499 -26s31.833 -25.666 43.5 -42.999s17.5 -39.333 17.5 -66
c0 -19.333 -3.83301 -37.5 -11.5 -54.5s-19.167 -32.333 -34.5 -46s-34.166 -24.667 -56.499 -33s-48.166 -13.5 -77.499 -15.5l-15 -31c18.667 -2 35.334 -6.66699 50.001 -14c12.667 -6 24.167 -14.667 34.5 -26s15.5 -26.333 15.5 -45
c0 -25.333 -11.167 -46.666 -33.5 -63.999s-56.166 -26 -101.499 -26c-20 0 -36.667 1.66699 -50 5c-7.33301 1.33301 -14 3 -20 5v55c3.33301 -1.33301 7.33301 -2.33301 12 -3c3.33301 -0.666992 7.5 -1.16699 12.5 -1.5s10.167 -0.5 15.5 -0.5c20 0 34.167 3.5 42.5 10.5
s12.5 16.833 12.5 29.5c0 7.33301 -3.66699 14.166 -11 20.499s-18.666 9.5 -33.999 9.5c-7.33301 0 -13.166 -0.833008 -17.499 -2.5s-6.83301 -2.5 -7.5 -2.5l32 83c-52.667 5.33301 -92.334 21.166 -119.001 47.499s-44.334 59.5 -53.001 99.5z" />
    <glyph glyph-name="Scaron" unicode="&#x160;" horiz-adv-x="545" 
d="M30 455c0 24.667 5.16602 48.3311 15.499 70.998s25.333 42.334 45 59.001s43.834 30 72.501 40s61 15 97 15c37.333 0 71.166 -5.5 101.499 -16.5s56.166 -26 77.499 -45s37.666 -41.333 48.999 -67s17 -52.834 17 -81.501l-170 -15c0 20 -6.5 35.833 -19.5 47.5
s-28.167 17.5 -45.5 17.5c-15.333 0 -27.5 -4.16699 -36.5 -12.5s-13.5 -17.5 -13.5 -27.5c0 -12.667 7.33301 -22.5 22 -29.5s32.834 -13.833 54.501 -20.5l71 -22.5c25.667 -8.33301 49.334 -20 71.001 -35s39.834 -34.167 54.501 -57.5s22 -53.333 22 -90
c0 -25.333 -5.66699 -49.666 -17 -72.999s-27.666 -44 -48.999 -62s-47.166 -32.5 -77.499 -43.5s-64.166 -16.5 -101.499 -16.5c-38.667 0 -73.5 5.5 -104.5 16.5s-57.167 26.333 -78.5 46s-37.833 42.5 -49.5 68.5s-17.5 54 -17.5 84l170 15c0 -20 6.66699 -36.667 20 -50
s30 -20 50 -20c22.667 0 39.167 5 49.5 15s15.5 20 15.5 30c0 12.667 -7.33301 22.667 -22 30s-32.834 14.5 -54.501 21.5l-71 24c-25.667 9 -49.334 21 -71.001 36s-39.834 34.333 -54.501 58s-22 53.834 -22 90.501zM309.999 834.997h130l-105 -140h-140l-105 140h130
l45 -60z" />
    <glyph glyph-name="scaron" unicode="&#x161;" horiz-adv-x="455" 
d="M170 155c2 -7.33301 5.33301 -14.001 10 -20.001c3.33301 -5.33301 8.33301 -10 15 -14s15 -6 25 -6c15.333 0 26.666 3.16699 33.999 9.5s11 13.166 11 20.499c0 6.66699 -5.83301 12.167 -17.5 16.5s-26.167 8.83301 -43.5 13.5s-36.166 10.334 -56.499 17.001
s-39.166 15.5 -56.499 26.5s-31.833 25 -43.5 42s-17.5 38.5 -17.5 64.5c0 18.667 4.33301 36.667 13 54s21 32.833 37 46.5s35.833 24.5 59.5 32.5s50.5 12 80.5 12c64.667 0 113.334 -13.5 146.001 -40.5s54 -61.833 64 -104.5l-150 -15c-2 6 -4.66699 11.667 -8 17
c-3.33301 4.66699 -7.83301 8.83398 -13.5 12.501s-13.5 5.5 -23.5 5.5c-23.333 0 -35 -8.33301 -35 -25c0 -6.66699 5.83301 -12 17.5 -16s26.167 -8.33301 43.5 -13l56.5 -16c20.333 -6 39.166 -14.667 56.499 -26s31.833 -25.666 43.5 -42.999s17.5 -39.333 17.5 -66
c0 -20 -4.33301 -39 -13 -57s-21.5 -34 -38.5 -48s-37.833 -25 -62.5 -33s-53.334 -12 -86.001 -12c-67.333 0 -117.5 13.667 -150.5 41s-54.5 63.666 -64.5 108.999zM275 654.999h130l-105 -140h-140l-105 140h130l45 -60z" />
    <glyph glyph-name="Tcommaaccent" unicode="&#x162;" horiz-adv-x="545" 
d="M360 0h-175v460h-170v170h515v-170h-170v-460zM225 -260c7.33301 4 14.333 9 21 15c5.33301 5.33301 10.833 11.666 16.5 18.999s9.83398 16 12.501 26c-50 4.66699 -75 29.667 -75 75c0 20 7.5 37.5 22.5 52.5s32.5 22.5 52.5 22.5s37.5 -7.83301 52.5 -23.5
s22.5 -36.167 22.5 -61.5c0 -30 -5.16699 -55.5 -15.5 -76.5s-21.833 -38.167 -34.5 -51.5c-14.667 -15.333 -31.334 -27.666 -50.001 -36.999z" />
    <glyph glyph-name="tcommaaccent" unicode="&#x163;" horiz-adv-x="385" 
d="M85 315h-64.999v135h30c36.667 0 55 18.333 55 55v65h140v-110h95v-145h-95v-110c0 -20 5.33301 -35.833 16 -47.5s23.667 -17.5 39 -17.5c5.33301 0 10 0.166992 14 0.5s7.66699 0.833008 11 1.5s6.66602 1.66699 9.99902 3v-140l-23 -8
c-7.33301 -2 -15.333 -3.66699 -24 -5s-18 -2 -28 -2c-55.333 0 -98.333 15.5 -129 46.5s-46 75.5 -46 133.5v145zM170.001 -260c7.33301 4 14.333 9 21 15c5.33301 5.33301 10.833 11.666 16.5 18.999s9.83398 16 12.501 26c-50 4.66699 -75 29.667 -75 75
c0 20 7.5 37.5 22.5 52.5s32.5 22.5 52.5 22.5s37.5 -7.83301 52.5 -23.5s22.5 -36.167 22.5 -61.5c0 -30 -5.16699 -55.5 -15.5 -76.5s-21.833 -38.167 -34.5 -51.5c-14.667 -15.333 -31.334 -27.666 -50.001 -36.999z" />
    <glyph glyph-name="Tcaron" unicode="&#x164;" horiz-adv-x="545" 
d="M360 0h-175v460h-170v170h515v-170h-170v-460zM315 835h130l-105 -140h-140l-105 140h130l45 -60z" />
    <glyph glyph-name="tcaron" unicode="&#x165;" horiz-adv-x="425" 
d="M335 630h155l-70 -140h-120zM85 315h-64.999v135h30c36.667 0 55 18.333 55 55v65h140v-110h95v-145h-95v-110c0 -20 5.33301 -35.833 16 -47.5s23.667 -17.5 39 -17.5c5.33301 0 10 0.166992 14 0.5s7.66699 0.833008 11 1.5s6.66602 1.66699 9.99902 3v-140l-23 -8
c-7.33301 -2 -15.333 -3.66699 -24 -5s-18 -2 -28 -2c-55.333 0 -98.333 15.5 -129 46.5s-46 75.5 -46 133.5v145z" />
    <glyph glyph-name="Umacron" unicode="&#x16a;" horiz-adv-x="650" 
d="M225 630l0.00195312 -365c0 -32.667 9.16699 -58.334 27.5 -77.001s42.5 -28 72.5 -28s54.167 9.33301 72.5 28s27.5 44.334 27.5 77.001v365h175v-365c0 -42.667 -6.33301 -81 -19 -115s-30.834 -62.833 -54.501 -86.5s-52.5 -41.834 -86.5 -54.501
s-72.333 -19 -115 -19s-81 6.33301 -115 19s-62.833 30.834 -86.5 54.501s-41.834 52.5 -54.501 86.5s-19 72.333 -19 115v365h175zM470.002 690h-280v120h280v-120z" />
    <glyph glyph-name="umacron" unicode="&#x16b;" horiz-adv-x="550" 
d="M230 -10c-27.333 0 -52.333 4.49902 -75 13.499s-42.167 22.167 -58.5 39.5s-29 38.333 -38 63s-13.5 52.667 -13.5 84v270h160v-240c0 -25.333 6.66699 -45 20 -59s30 -21 50 -21s36.667 7 50 21s20 33.667 20 59v240h160v-460h-115l-25 45
c-10.667 -10.667 -22.667 -20 -36 -28c-11.333 -7.33301 -25.333 -13.666 -42 -18.999s-35.667 -8 -57 -8zM415 519.999h-280v120h280v-120z" />
    <glyph glyph-name="Uring" unicode="&#x16e;" horiz-adv-x="650" 
d="M225 630l0.00195312 -365c0 -32.667 9.16699 -58.334 27.5 -77.001s42.5 -28 72.5 -28s54.167 9.33301 72.5 28s27.5 44.334 27.5 77.001v365h175v-365c0 -42.667 -6.33301 -81 -19 -115s-30.834 -62.833 -54.501 -86.5s-52.5 -41.834 -86.5 -54.501
s-72.333 -19 -115 -19s-81 6.33301 -115 19s-62.833 30.834 -86.5 54.501s-41.834 52.5 -54.501 86.5s-19 72.333 -19 115v365h175zM360.002 770c0 10 -3.33301 18.333 -10 25s-15 10 -25 10s-18.333 -3.33301 -25 -10s-10 -15 -10 -25s3.33301 -18.333 10 -25
s15 -10 25 -10s18.333 3.33301 25 10s10 15 10 25zM430.002 770c0 -30 -9.33301 -54.167 -28 -72.5s-44.334 -27.5 -77.001 -27.5s-58.334 9.16699 -77.001 27.5s-28 42.5 -28 72.5s9.33301 54.167 28 72.5s44.334 27.5 77.001 27.5s58.334 -9.16699 77.001 -27.5
s28 -42.5 28 -72.5z" />
    <glyph glyph-name="uring" unicode="&#x16f;" horiz-adv-x="550" 
d="M230 -10c-27.333 0 -52.333 4.49902 -75 13.499s-42.167 22.167 -58.5 39.5s-29 38.333 -38 63s-13.5 52.667 -13.5 84v270h160v-240c0 -25.333 6.66699 -45 20 -59s30 -21 50 -21s36.667 7 50 21s20 33.667 20 59v240h160v-460h-115l-25 45
c-10.667 -10.667 -22.667 -20 -36 -28c-11.333 -7.33301 -25.333 -13.666 -42 -18.999s-35.667 -8 -57 -8zM310 595.999c0 10 -3.33301 18.333 -10 25s-15 10 -25 10s-18.333 -3.33301 -25 -10s-10 -15 -10 -25s3.33301 -18.333 10 -25s15 -10 25 -10s18.333 3.33301 25 10
s10 15 10 25zM380 595.999c0 -30 -9.33301 -54.167 -28 -72.5s-44.334 -27.5 -77.001 -27.5s-58.334 9.16699 -77.001 27.5s-28 42.5 -28 72.5s9.33301 54.167 28 72.5s44.334 27.5 77.001 27.5s58.334 -9.16699 77.001 -27.5s28 -42.5 28 -72.5z" />
    <glyph glyph-name="Uhungarumlaut" unicode="&#x170;" horiz-adv-x="650" 
d="M225 630l0.00195312 -365c0 -32.667 9.16699 -58.334 27.5 -77.001s42.5 -28 72.5 -28s54.167 9.33301 72.5 28s27.5 44.334 27.5 77.001v365h175v-365c0 -42.667 -6.33301 -81 -19 -115s-30.834 -62.833 -54.501 -86.5s-52.5 -41.834 -86.5 -54.501
s-72.333 -19 -115 -19s-81 6.33301 -115 19s-62.833 30.834 -86.5 54.501s-41.834 52.5 -54.501 86.5s-19 72.333 -19 115v365h175zM245.002 835h150l-110 -140h-115zM435.002 835h150l-110 -140h-115z" />
    <glyph glyph-name="uhungarumlaut" unicode="&#x171;" horiz-adv-x="550" 
d="M230 -10c-27.333 0 -52.333 4.49902 -75 13.499s-42.167 22.167 -58.5 39.5s-29 38.333 -38 63s-13.5 52.667 -13.5 84v270h160v-240c0 -25.333 6.66699 -45 20 -59s30 -21 50 -21s36.667 7 50 21s20 33.667 20 59v240h160v-460h-115l-25 45
c-10.667 -10.667 -22.667 -20 -36 -28c-11.333 -7.33301 -25.333 -13.666 -42 -18.999s-35.667 -8 -57 -8zM195 654.999h150l-110 -140h-115zM385 654.999h150l-110 -140h-115z" />
    <glyph glyph-name="Uogonek" unicode="&#x172;" horiz-adv-x="650" 
d="M225 630v-364.993c0 -32.667 9.16699 -58.334 27.5 -77.001s42.5 -28 72.5 -28s54.167 9.33301 72.5 28s27.5 44.334 27.5 77.001v365h175v-365c0 -78 -20.333 -140.833 -61 -188.5s-97 -75.5 -169 -83.5c-4.66699 -6.66699 -10 -16.334 -16 -29.001s-9 -25.667 -9 -39
c0 -12.667 4.33301 -23.334 13 -32.001s19.334 -13 32.001 -13c6 0 11.5 0.166992 16.5 0.5s9.16699 0.833008 12.5 1.5c4 0.666992 7.66699 1.66699 11 3v-70c-6 -2.66699 -12.667 -5.33398 -20 -8.00098c-6.66699 -2 -14.5 -3.66699 -23.5 -5s-18.833 -2 -29.5 -2
c-36 0 -63.667 8.83301 -83 26.5s-29 40.5 -29 68.5c0 11.333 1.5 22.166 4.5 32.499s6.66699 19.666 11 27.999s9 15.5 14 21.5l12.5 15c-37.333 3.33301 -70.5 12.166 -99.5 26.499s-53.833 33.166 -74.5 56.499s-36.334 51 -47.001 83s-16 67.667 -16 107v365h175z" />
    <glyph glyph-name="uogonek" unicode="&#x173;" horiz-adv-x="550" 
d="M365 45c-10.667 -10.667 -22.667 -19.999 -36 -27.999c-11.333 -7.33301 -25.333 -13.666 -42 -18.999s-35.667 -8 -57 -8c-27.333 0 -52.333 4.5 -75 13.5s-42.167 22.167 -58.5 39.5s-29 38.333 -38 63s-13.5 52.667 -13.5 84v270h160v-240
c0 -25.333 6.66699 -45 20 -59s30 -21 50 -21s36.667 7 50 21s20 33.667 20 59v240h160v-460h-35c-6 -8 -11 -16 -15 -24c-4 -7.33301 -7.5 -15.5 -10.5 -24.5s-4.5 -17.833 -4.5 -26.5c0 -12.667 4.33301 -23.334 13 -32.001s19.334 -13 32.001 -13
c6 0 11.5 0.166992 16.5 0.5s9.16699 0.833008 12.5 1.5c4 0.666992 7.66699 1.66699 11 3v-70c-6 -2.66699 -12.667 -5.33398 -20 -8.00098c-6.66699 -2 -14.5 -3.66699 -23.5 -5s-18.833 -2 -29.5 -2c-36 0 -63.667 8.83301 -83 26.5s-29 40.5 -29 68.5
c0 15.333 2.5 29.333 7.5 42s10.833 23.667 17.5 33c7.33301 11.333 15.666 21.333 24.999 30z" />
    <glyph glyph-name="Ydieresis" unicode="&#x178;" horiz-adv-x="595" 
d="M210 230l-215 400h190l113 -230l112 230h190l-215 -400v-230h-175v230zM285 760c0 -22.667 -7.66699 -41.667 -23 -57s-34.333 -23 -57 -23s-41.667 7.66699 -57 23s-23 34.333 -23 57s7.66699 41.667 23 57s34.333 23 57 23s41.667 -7.66699 57 -23s23 -34.333 23 -57z
M475 760c0 -22.667 -7.66699 -41.667 -23 -57s-34.333 -23 -57 -23s-41.667 7.66699 -57 23s-23 34.333 -23 57s7.66699 41.667 23 57s34.333 23 57 23s41.667 -7.66699 57 -23s23 -34.333 23 -57z" />
    <glyph glyph-name="Zacute" unicode="&#x179;" horiz-adv-x="560" 
d="M265 170h270v-170h-500v150l250 310h-240v170h470v-150zM285 835h165l-100 -140h-130z" />
    <glyph glyph-name="zacute" unicode="&#x17a;" horiz-adv-x="460" 
d="M210 310h-175v150h385v-130l-175 -180h185v-150h-395v130zM230 655h165l-100 -140h-130z" />
    <glyph glyph-name="Zdotaccent" unicode="&#x17b;" horiz-adv-x="560" 
d="M265 170h270v-170h-500v150l250 310h-240v170h470v-150zM370 765c0 -11.333 -2.33301 -22.166 -7 -32.499s-10.834 -19.333 -18.501 -27s-16.667 -13.834 -27 -18.501s-21.166 -7 -32.499 -7s-22.166 2.33301 -32.499 7s-19.333 10.834 -27 18.501
s-13.834 16.667 -18.501 27s-7 21.166 -7 32.499s2.33301 22.166 7 32.499s10.834 19.333 18.501 27s16.667 13.834 27 18.501s21.166 7 32.499 7s22.166 -2.33301 32.499 -7s19.333 -10.834 27 -18.501s13.834 -16.667 18.501 -27s7 -21.166 7 -32.499z" />
    <glyph glyph-name="zdotaccent" unicode="&#x17c;" horiz-adv-x="460" 
d="M210 310h-175v150h385v-130l-175 -180h185v-150h-395v130zM320 595c0 -11.333 -2.33301 -22.166 -7 -32.499s-10.834 -19.333 -18.501 -27s-16.667 -13.834 -27 -18.501s-21.166 -7 -32.499 -7s-22.166 2.33301 -32.499 7s-19.333 10.834 -27 18.501
s-13.834 16.667 -18.501 27s-7 21.166 -7 32.499s2.33301 22.166 7 32.499s10.834 19.333 18.501 27s16.667 13.834 27 18.501s21.166 7 32.499 7s22.166 -2.33301 32.499 -7s19.333 -10.834 27 -18.501s13.834 -16.667 18.501 -27s7 -21.166 7 -32.499z" />
    <glyph glyph-name="Zcaron" unicode="&#x17d;" horiz-adv-x="560" 
d="M265 170h270v-170h-500v150l250 310h-240v170h470v-150zM330 835h130l-105 -140h-140l-105 140h130l45 -60z" />
    <glyph glyph-name="zcaron" unicode="&#x17e;" horiz-adv-x="460" 
d="M210 310h-175v150h385v-130l-175 -180h185v-150h-395v130zM275 655h130l-105 -140h-140l-105 140h130l45 -60z" />
    <glyph glyph-name="florin" unicode="&#x192;" horiz-adv-x="410" 
d="M220 -10c-8.66699 -50 -28.5 -89.1689 -59.5 -117.502s-72.833 -42.5 -125.5 -42.5c-11.333 0 -22.333 0.666992 -33 2s-20.334 3 -29.001 5c-10 2.66699 -19.333 5.33398 -28 8.00098l35 140c4 -1.33301 8 -2.33301 12 -3c3.33301 -0.666992 7 -1.16699 11 -1.5
s8 -0.5 12 -0.5c17.333 0 31.333 5.33301 42 16s18.334 28.667 23.001 54l35 200h-75l30 150h70l15 80c9.33301 50 29.5 89.167 60.5 117.5s74.167 42.5 129.5 42.5c11.333 0 22 -0.833008 32 -2.5s19 -3.5 27 -5.5c9.33301 -2.66699 18 -5 26 -7l-35 -140l-12 2
c-3.33301 0.666992 -7.16602 1.33398 -11.499 2.00098s-8.16602 1 -11.499 1c-34 0 -55.333 -20 -64 -60c-0.666992 -2.66699 -1.33398 -5.5 -2.00098 -8.5s-1.33398 -6.16699 -2.00098 -9.5l-2 -12h100l-30 -150h-95z" />
    <glyph glyph-name="Scommaaccent" unicode="&#x218;" horiz-adv-x="545" 
d="M30 455c0 24.667 5.16602 48.3311 15.499 70.998s25.333 42.334 45 59.001s43.834 30 72.501 40s61 15 97 15c37.333 0 71.166 -5.5 101.499 -16.5s56.166 -26 77.499 -45s37.666 -41.333 48.999 -67s17 -52.834 17 -81.501l-170 -15c0 20 -6.5 35.833 -19.5 47.5
s-28.167 17.5 -45.5 17.5c-15.333 0 -27.5 -4.16699 -36.5 -12.5s-13.5 -17.5 -13.5 -27.5c0 -12.667 7.33301 -22.5 22 -29.5s32.834 -13.833 54.501 -20.5l71 -22.5c25.667 -8.33301 49.334 -20 71.001 -35s39.834 -34.167 54.501 -57.5s22 -53.333 22 -90
c0 -25.333 -5.66699 -49.666 -17 -72.999s-27.666 -44 -48.999 -62s-47.166 -32.5 -77.499 -43.5s-64.166 -16.5 -101.499 -16.5c-38.667 0 -73.5 5.5 -104.5 16.5s-57.167 26.333 -78.5 46s-37.833 42.5 -49.5 68.5s-17.5 54 -17.5 84l170 15c0 -20 6.66699 -36.667 20 -50
s30 -20 50 -20c22.667 0 39.167 5 49.5 15s15.5 20 15.5 30c0 12.667 -7.33301 22.667 -22 30s-32.834 14.5 -54.501 21.5l-71 24c-25.667 9 -49.334 21 -71.001 36s-39.834 34.333 -54.501 58s-22 53.834 -22 90.501zM219.999 -260.003c7.33301 4 14.333 9 21 15
c5.33301 5.33301 10.833 11.666 16.5 18.999s9.83398 16 12.501 26c-50 4.66699 -75 29.667 -75 75c0 20 7.5 37.5 22.5 52.5s32.5 22.5 52.5 22.5s37.5 -7.83301 52.5 -23.5s22.5 -36.167 22.5 -61.5c0 -30 -5.16699 -55.5 -15.5 -76.5s-21.833 -38.167 -34.5 -51.5
c-14.667 -15.333 -31.334 -27.666 -50.001 -36.999z" />
    <glyph glyph-name="scommaaccent" unicode="&#x219;" horiz-adv-x="455" 
d="M170 155c2 -7.33301 5.33301 -14.001 10 -20.001c3.33301 -5.33301 8.33301 -10 15 -14s15 -6 25 -6c15.333 0 26.666 3.16699 33.999 9.5s11 13.166 11 20.499c0 6.66699 -5.83301 12.167 -17.5 16.5s-26.167 8.83301 -43.5 13.5s-36.166 10.334 -56.499 17.001
s-39.166 15.5 -56.499 26.5s-31.833 25 -43.5 42s-17.5 38.5 -17.5 64.5c0 18.667 4.33301 36.667 13 54s21 32.833 37 46.5s35.833 24.5 59.5 32.5s50.5 12 80.5 12c64.667 0 113.334 -13.5 146.001 -40.5s54 -61.833 64 -104.5l-150 -15c-2 6 -4.66699 11.667 -8 17
c-3.33301 4.66699 -7.83301 8.83398 -13.5 12.501s-13.5 5.5 -23.5 5.5c-23.333 0 -35 -8.33301 -35 -25c0 -6.66699 5.83301 -12 17.5 -16s26.167 -8.33301 43.5 -13l56.5 -16c20.333 -6 39.166 -14.667 56.499 -26s31.833 -25.666 43.5 -42.999s17.5 -39.333 17.5 -66
c0 -20 -4.33301 -39 -13 -57s-21.5 -34 -38.5 -48s-37.833 -25 -62.5 -33s-53.334 -12 -86.001 -12c-67.333 0 -117.5 13.667 -150.5 41s-54.5 63.666 -64.5 108.999zM180 -260.001c7.33301 4 14.333 9 21 15c5.33301 5.33301 10.833 11.666 16.5 18.999
s9.83398 16 12.501 26c-50 4.66699 -75 29.667 -75 75c0 20 7.5 37.5 22.5 52.5s32.5 22.5 52.5 22.5s37.5 -7.83301 52.5 -23.5s22.5 -36.167 22.5 -61.5c0 -30 -5.16699 -55.5 -15.5 -76.5s-21.833 -38.167 -34.5 -51.5c-14.667 -15.333 -31.334 -27.666 -50.001 -36.999z
" />
    <glyph glyph-name="uni021A" unicode="&#x21a;" horiz-adv-x="545" 
d="M360 0h-175v460h-170v170h515v-170h-170v-460zM225 -260c7.33301 4 14.333 9 21 15c5.33301 5.33301 10.833 11.666 16.5 18.999s9.83398 16 12.501 26c-50 4.66699 -75 29.667 -75 75c0 20 7.5 37.5 22.5 52.5s32.5 22.5 52.5 22.5s37.5 -7.83301 52.5 -23.5
s22.5 -36.167 22.5 -61.5c0 -30 -5.16699 -55.5 -15.5 -76.5s-21.833 -38.167 -34.5 -51.5c-14.667 -15.333 -31.334 -27.666 -50.001 -36.999z" />
    <glyph glyph-name="uni021B" unicode="&#x21b;" horiz-adv-x="385" 
d="M85 315h-64.999v135h30c36.667 0 55 18.333 55 55v65h140v-110h95v-145h-95v-110c0 -20 5.33301 -35.833 16 -47.5s23.667 -17.5 39 -17.5c5.33301 0 10 0.166992 14 0.5s7.66699 0.833008 11 1.5s6.66602 1.66699 9.99902 3v-140l-23 -8
c-7.33301 -2 -15.333 -3.66699 -24 -5s-18 -2 -28 -2c-55.333 0 -98.333 15.5 -129 46.5s-46 75.5 -46 133.5v145zM165.001 -260c7.33301 4 14.333 9 21 15c5.33301 5.33301 10.833 11.666 16.5 18.999s9.83398 16 12.501 26c-50 4.66699 -75 29.667 -75 75
c0 20 7.5 37.5 22.5 52.5s32.5 22.5 52.5 22.5s37.5 -7.83301 52.5 -23.5s22.5 -36.167 22.5 -61.5c0 -30 -5.16699 -55.5 -15.5 -76.5s-21.833 -38.167 -34.5 -51.5c-14.667 -15.333 -31.334 -27.666 -50.001 -36.999z" />
    <glyph glyph-name="afii57929" unicode="&#x2bc;" horiz-adv-x="210" 
d="M55 430c7.33301 4 14.333 9 21 15c5.33301 5.33301 10.833 11.666 16.5 18.999s9.83398 16 12.501 26c-50 4.66699 -75 29.667 -75 75c0 20 7.5 37.5 22.5 52.5s32.5 22.5 52.5 22.5s37.5 -7.83301 52.5 -23.5s22.5 -36.167 22.5 -61.5c0 -30 -5.16699 -55.5 -15.5 -76.5
s-21.833 -38.167 -34.5 -51.5c-14.667 -15.333 -31.334 -27.666 -50.001 -36.999z" />
    <glyph glyph-name="circumflex" unicode="&#x2c6;" horiz-adv-x="410" 
d="M205 560l-45 -60h-130l105 140h140l105 -140h-130z" />
    <glyph glyph-name="caron" unicode="&#x2c7;" horiz-adv-x="410" 
d="M250 640h130l-105 -140h-140l-105 140h130l45 -60z" />
    <glyph glyph-name="breve" unicode="&#x2d8;" horiz-adv-x="370" 
d="M185 595c10 0 17.8301 2.33301 23.4971 7s10.167 9.66699 13.5 15c3.33301 6.66699 6 14.334 8 23.001h110c-1.33301 -18.667 -6.16602 -36.5 -14.499 -53.5s-19.333 -31.833 -33 -44.5s-29.667 -22.834 -48 -30.501s-38.166 -11.5 -59.499 -11.5
s-41.166 3.83301 -59.499 11.5s-34.333 17.834 -48 30.501s-24.667 27.5 -33 44.5s-13.166 34.833 -14.499 53.5h110c1.33301 -8.66699 3.66602 -16.334 6.99902 -23.001c3.33301 -5.33301 8 -10.333 14 -15s14 -7 24 -7z" />
    <glyph glyph-name="dotaccent" unicode="&#x2d9;" horiz-adv-x="230" 
d="M200 580c0 -11.333 -2.33301 -22.166 -7 -32.499s-10.834 -19.333 -18.501 -27s-16.667 -13.834 -27 -18.501s-21.166 -7 -32.499 -7s-22.166 2.33301 -32.499 7s-19.333 10.834 -27 18.501s-13.834 16.667 -18.501 27s-7 21.166 -7 32.499s2.33301 22.166 7 32.499
s10.834 19.333 18.501 27s16.667 13.834 27 18.501s21.166 7 32.499 7s22.166 -2.33301 32.499 -7s19.333 -10.834 27 -18.501s13.834 -16.667 18.501 -27s7 -21.166 7 -32.499z" />
    <glyph glyph-name="ring" unicode="&#x2da;" horiz-adv-x="270" 
d="M170 585c0 10 -3.33301 18.333 -10 25s-15 10 -25 10s-18.333 -3.33301 -25 -10s-10 -15 -10 -25s3.33301 -18.333 10 -25s15 -10 25 -10s18.333 3.33301 25 10s10 15 10 25zM240 585c0 -30 -9.33301 -54.167 -28 -72.5s-44.334 -27.5 -77.001 -27.5
s-58.334 9.16699 -77.001 27.5s-28 42.5 -28 72.5s9.33301 54.167 28 72.5s44.334 27.5 77.001 27.5s58.334 -9.16699 77.001 -27.5s28 -42.5 28 -72.5z" />
    <glyph glyph-name="ogonek" unicode="&#x2db;" horiz-adv-x="245" 
d="M160 0c-6 -8 -11 -15.998 -15 -23.998c-4 -7.33301 -7.5 -15.5 -10.5 -24.5s-4.5 -17.833 -4.5 -26.5c0 -12.667 4.33301 -23.334 13 -32.001s19.334 -13 32.001 -13c6 0 11.5 0.166992 16.5 0.5s9.16699 0.833008 12.5 1.5c4 0.666992 7.66699 1.66699 11 3v-70
c-6 -2.66699 -12.667 -5.33398 -20 -8.00098c-6.66699 -2 -14.5 -3.66699 -23.5 -5s-18.833 -2 -29.5 -2c-36 0 -63.667 8.83301 -83 26.5s-29 40.5 -29 68.5c0 15.333 2.5 29.333 7.5 42s10.833 23.667 17.5 33c7.33301 11.333 15.666 21.333 24.999 30h80z" />
    <glyph glyph-name="tilde" unicode="&#x2dc;" horiz-adv-x="375" 
d="M30 510c0 47.333 8.66895 81.667 26.002 103s38.666 32 63.999 32c14 0 25.833 -2.16699 35.5 -6.5s18.167 -9 25.5 -14l20.5 -13.5c6.33301 -4 12.5 -6 18.5 -6c20 0 30 11.667 30 35l95 -10c0 -24 -2.33301 -44.5 -7 -61.5s-11 -31 -19 -42s-17.5 -19 -28.5 -24
s-22.833 -7.5 -35.5 -7.5c-14 0 -25.833 2 -35.5 6s-18.334 8.5 -26.001 13.5s-14.5 9.66699 -20.5 14s-12 6.5 -18 6.5c-20 0 -30 -11.667 -30 -35z" />
    <glyph glyph-name="hungarumlaut" unicode="&#x2dd;" horiz-adv-x="475" 
d="M105 640h150l-110 -140h-115zM295 640h150l-110 -140h-115z" />
    <glyph glyph-name="afii10023" unicode="&#x401;" horiz-adv-x="570" 
d="M55 630h470v-155h-295v-80h270v-150h-270v-90h305v-155h-480v630zM280 760c0 -22.667 -7.66699 -41.667 -23 -57s-34.333 -23 -57 -23s-41.667 7.66699 -57 23s-23 34.333 -23 57s7.66699 41.667 23 57s34.333 23 57 23s41.667 -7.66699 57 -23s23 -34.333 23 -57z
M470 760c0 -22.667 -7.66699 -41.667 -23 -57s-34.333 -23 -57 -23s-41.667 7.66699 -57 23s-23 34.333 -23 57s7.66699 41.667 23 57s34.333 23 57 23s41.667 -7.66699 57 -23s23 -34.333 23 -57z" />
    <glyph glyph-name="afii10051" unicode="&#x402;" horiz-adv-x="670" 
d="M440 420c30 0 57.5039 -5.16699 82.5039 -15.5s46.667 -25.333 65 -45s32.5 -43.834 42.5 -72.501s15 -61 15 -97s-5.83301 -68.833 -17.5 -98.5s-28.834 -55 -51.501 -76s-50.334 -37.167 -83.001 -48.5s-70.334 -17 -113.001 -17v160c28 0 49.167 7 63.5 21
s21.5 33.667 21.5 59c0 22.667 -6.83301 40.834 -20.5 54.501s-31.834 20.5 -54.501 20.5s-41.667 -8 -57 -24s-23 -38 -23 -66v-175h-175v470h-125v160h435v-160h-135v-105c10 10 21.667 19 35 27c11.333 7.33301 25 13.833 41 19.5s34 8.5 54 8.5z" />
    <glyph glyph-name="afii10052" unicode="&#x403;" horiz-adv-x="500" 
d="M265 835h165l-100 -140h-130zM55 630h430v-170h-255v-460h-175v630z" />
    <glyph glyph-name="afii10053" unicode="&#x404;" horiz-adv-x="671" 
d="M408 245l-192.999 -0.00195312l6 -14c4 -9.33301 11.167 -19.666 21.5 -30.999s24.333 -21.666 42 -30.999s39.5 -14 65.5 -14c21.333 0 39.666 3.5 54.999 10.5s27.666 15.167 36.999 24.5c11.333 10 20.666 21.667 27.999 35l181 -15
c-6.66699 -25.333 -18.834 -51 -36.501 -77s-39.667 -49.5 -66 -70.5s-56.333 -38.333 -90 -52s-69.834 -20.5 -108.501 -20.5c-45.333 0 -87.333 8.33301 -126 25s-72.5 39.5 -101.5 68.5s-51.667 63.333 -68 103s-24.5 82.5 -24.5 128.5s8.16699 88.833 24.5 128.5
s39 74 68 103s62.833 51.833 101.5 68.5s80.667 25 126 25c38.667 0 74.834 -6.83301 108.501 -20.5s63.667 -31.167 90 -52.5s48.333 -45.5 66 -72.5s29.5 -53.5 35.5 -79.5l-180 -15c-7.33301 13.333 -16.666 25.666 -27.999 36.999
c-9.33301 9.33301 -21.666 18 -36.999 26s-33.666 12 -54.999 12c-26.667 0 -48.5 -4.66699 -65.5 -14s-30.833 -19.666 -41.5 -30.999c-12 -13.333 -21.333 -28.333 -28 -45h193v-140z" />
    <glyph glyph-name="afii10054" unicode="&#x405;" horiz-adv-x="545" 
d="M30 455c0 24.667 5.16602 48.3311 15.499 70.998s25.333 42.334 45 59.001s43.834 30 72.501 40s61 15 97 15c37.333 0 71.166 -5.5 101.499 -16.5s56.166 -26 77.499 -45s37.666 -41.333 48.999 -67s17 -52.834 17 -81.501l-170 -15c0 20 -6.5 35.833 -19.5 47.5
s-28.167 17.5 -45.5 17.5c-15.333 0 -27.5 -4.16699 -36.5 -12.5s-13.5 -17.5 -13.5 -27.5c0 -12.667 7.33301 -22.5 22 -29.5s32.834 -13.833 54.501 -20.5l71 -22.5c25.667 -8.33301 49.334 -20 71.001 -35s39.834 -34.167 54.501 -57.5s22 -53.333 22 -90
c0 -25.333 -5.66699 -49.666 -17 -72.999s-27.666 -44 -48.999 -62s-47.166 -32.5 -77.499 -43.5s-64.166 -16.5 -101.499 -16.5c-38.667 0 -73.5 5.5 -104.5 16.5s-57.167 26.333 -78.5 46s-37.833 42.5 -49.5 68.5s-17.5 54 -17.5 84l170 15c0 -20 6.66699 -36.667 20 -50
s30 -20 50 -20c22.667 0 39.167 5 49.5 15s15.5 20 15.5 30c0 12.667 -7.33301 22.667 -22 30s-32.834 14.5 -54.501 21.5l-71 24c-25.667 9 -49.334 21 -71.001 36s-39.834 34.333 -54.501 58s-22 53.834 -22 90.501z" />
    <glyph glyph-name="afii10055" unicode="&#x406;" horiz-adv-x="285" 
d="M230 0h-175v630h175v-630z" />
    <glyph glyph-name="afii10056" unicode="&#x407;" horiz-adv-x="285" 
d="M230 0h-175v630h175v-630zM130 770c0 -22.667 -7.66699 -41.667 -23 -57s-34.333 -23 -57 -23s-41.667 7.66699 -57 23s-23 34.333 -23 57s7.66699 41.667 23 57s34.333 23 57 23s41.667 -7.66699 57 -23s23 -34.333 23 -57zM320 770c0 -22.667 -7.66699 -41.667 -23 -57
s-34.333 -23 -57 -23s-41.667 7.66699 -57 23s-23 34.333 -23 57s7.66699 41.667 23 57s34.333 23 57 23s41.667 -7.66699 57 -23s23 -34.333 23 -57z" />
    <glyph glyph-name="afii10057" unicode="&#x408;" horiz-adv-x="515" 
d="M460 630l-0.000976562 -410.001c0 -35.333 -5.5 -67.166 -16.5 -95.499s-26.5 -52.5 -46.5 -72.5s-44.167 -35.333 -72.5 -46s-59.833 -16 -94.5 -16c-34 0 -65 5.5 -93 16.5s-52.167 26.333 -72.5 46s-36.166 42.5 -47.499 68.5s-17 54 -17 84l175 15
c0 -17.333 5.33301 -31.666 16 -42.999s23.667 -17 39 -17s28.333 5.66699 39 17s16 25.666 16 42.999v410h175z" />
    <glyph glyph-name="afii10058" unicode="&#x409;" horiz-adv-x="930" 
d="M415 0l-0.000976562 460h-125l-20 -270c-5.33301 -62.667 -25.333 -111.667 -60 -147s-79.667 -53 -135 -53c-17.333 0 -33.333 1.66699 -48 5c-7.33301 1.33301 -14.666 3 -21.999 5v155h20c49.333 0 76 26.667 80 80l30 395h455v-180h85
c34.667 0 66.5 -5.66699 95.5 -17s53.833 -27 74.5 -47s36.667 -43.667 48 -71s17 -57.333 17 -90s-5.66699 -62.667 -17 -90s-27.333 -51 -48 -71s-45.5 -35.667 -74.5 -47s-60.833 -17 -95.5 -17h-260zM589.999 290v-130h70c20 0 36.667 6.5 50 19.5s20 28.167 20 45.5
s-6.66699 32.5 -20 45.5s-30 19.5 -50 19.5h-70z" />
    <glyph glyph-name="afii10059" unicode="&#x40a;" horiz-adv-x="940" 
d="M425 0v270.002h-195v-270h-175v630h175v-190h195v190h175v-190h85c34.667 0 66.5 -5.66699 95.5 -17s53.833 -26.833 74.5 -46.5s36.667 -42.834 48 -69.501s17 -55.667 17 -87s-5.66699 -60.333 -17 -87s-27.333 -49.834 -48 -69.501s-45.5 -35.167 -74.5 -46.5
s-60.833 -17 -95.5 -17h-260zM600 280.002v-119.998h70c22.667 0 40 5.66699 52 17s18 25.666 18 42.999s-6 31.666 -18 42.999s-29.333 17 -52 17h-70z" />
    <glyph glyph-name="afii10060" unicode="&#x40b;" horiz-adv-x="680" 
d="M470 180c0 25.333 -7.66699 45.832 -23 61.499s-34.333 23.5 -57 23.5s-41.667 -7.83301 -57 -23.5s-23 -36.167 -23 -61.5v-180h-175v470h-125v160h435v-160h-135v-105c10.667 10 22.667 19 36 27c11.333 7.33301 25.333 13.833 42 19.5s35.667 8.5 57 8.5
c28.667 0 55.167 -5.16699 79.5 -15.5s45.5 -25.666 63.5 -45.999s32 -45.5 42 -75.5s15 -64.333 15 -103v-180h-175v180z" />
    <glyph glyph-name="afii10061" unicode="&#x40c;" horiz-adv-x="595" 
d="M405 0l-175 275v-275h-175v630h175v-267l160 267h195l-200 -310l220 -320h-200zM305 835h165l-100 -140h-130z" />
    <glyph glyph-name="afii10062" unicode="&#x40e;" horiz-adv-x="580" 
d="M295 775c10 0 17.8301 2.33301 23.4971 7s10.167 9.66699 13.5 15c3.33301 6.66699 6 14.334 8 23.001h110c-1.33301 -18.667 -6.16602 -36.5 -14.499 -53.5s-19.333 -31.833 -33 -44.5s-29.667 -22.834 -48 -30.501s-38.166 -11.5 -59.499 -11.5
s-41.166 3.83301 -59.499 11.5s-34.333 17.834 -48 30.501s-24.667 27.5 -33 44.5s-13.166 34.833 -14.499 53.5h110c1.33301 -8.66699 3.66602 -16.334 6.99902 -23.001c3.33301 -5.33301 8 -10.333 14 -15s14 -7 24 -7zM589.997 630l-209.999 -459.999
c-14 -31.333 -28.5 -58.333 -43.5 -81s-31.167 -41.334 -48.5 -56.001s-36.5 -25.5 -57.5 -32.5s-44.5 -10.5 -70.5 -10.5c-20 0 -37.667 1.66699 -53 5c-8 1.33301 -15.333 3 -22 5v160c4 -1.33301 8.33301 -2.33301 13 -3c4 -0.666992 8.66699 -1.16699 14 -1.5
s11 -0.5 17 -0.5c12.667 0 23.667 1.66699 33 5s16.666 7.33301 21.999 12c6.66699 5.33301 12 11.333 16 18l-200 440h185l110 -250l110 250h185z" />
    <glyph glyph-name="afii10145" unicode="&#x40f;" horiz-adv-x="670" 
d="M420 -115h-170v115h-195v630h175v-460h210v460h175v-630h-195v-115z" />
    <glyph glyph-name="afii10017" unicode="&#x410;" horiz-adv-x="620" 
d="M310 435l-55 -180h110zM215 115l-35 -115h-185l215 630h200l215 -630h-185l-35 115h-190z" />
    <glyph glyph-name="afii10018" unicode="&#x411;" horiz-adv-x="595" 
d="M345 410c34 0 64.833 -5.33301 92.5 -16s51.334 -25.167 71.001 -43.5s34.834 -40 45.501 -65s16 -51.833 16 -80.5s-5.33301 -55.5 -16 -80.5s-25.834 -46.667 -45.501 -65s-43.334 -32.833 -71.001 -43.5s-58.5 -16 -92.5 -16h-290v630h460v-155h-285v-65h115zM330 150
c17.333 0 31.666 5.33301 42.999 16s17 23.667 17 39s-5.66699 28.333 -17 39s-25.666 16 -42.999 16h-100v-110h100z" />
    <glyph glyph-name="afii10019" unicode="&#x412;" horiz-adv-x="600" 
d="M465 335c20 -8 38.335 -19.002 55.002 -33.002c13.333 -12 25.833 -27.833 37.5 -47.5s17.5 -44.5 17.5 -74.5c0 -25.333 -4.83301 -48.833 -14.5 -70.5s-23.5 -40.667 -41.5 -57s-40 -29.166 -66 -38.499s-55.333 -14 -88 -14h-310v630h290
c32.667 0 61.667 -4.33301 87 -13s46.666 -20.5 63.999 -35.5s30.666 -32.5 39.999 -52.5s14 -41.333 14 -64c0 -23.333 -4.5 -43.166 -13.5 -59.499s-18.833 -29.833 -29.5 -40.5c-12 -12 -26 -22 -42 -30zM230.002 384.998h80c17.333 0 31.666 5.33301 42.999 16
s17 23.667 17 39s-5.66699 28.333 -17 39s-25.666 16 -42.999 16h-80v-110zM325.002 134.998c20 0 36.667 6.5 50 19.5s20 28.167 20 45.5s-6.66699 32.5 -20 45.5s-30 19.5 -50 19.5h-95v-130h95z" />
    <glyph glyph-name="afii10020" unicode="&#x413;" horiz-adv-x="500" 
d="M55 630h430v-170h-255v-460h-175v630z" />
    <glyph glyph-name="afii10021" unicode="&#x414;" horiz-adv-x="670" 
d="M660 170l-0.00195312 -284.998h-175v115h-310v-115h-175v285h40c8.66699 4.66699 16.667 11 24 19c6.66699 7.33301 12.834 16.666 18.501 27.999s9.83398 25.666 12.501 42.999l45 370h450v-460h70zM414.998 460.002l-129.999 -0.00195312l-25 -200
c-2.66699 -17.333 -6.33398 -31.666 -11.001 -42.999s-9.66699 -20.666 -15 -27.999c-6 -8 -12.333 -14.333 -19 -19h200v290z" />
    <glyph glyph-name="afii10022" unicode="&#x415;" horiz-adv-x="570" 
d="M55 630h470v-155h-295v-80h270v-150h-270v-90h305v-155h-480v630z" />
    <glyph glyph-name="afii10024" unicode="&#x416;" horiz-adv-x="865" 
d="M520 630v-265l135 265h200l-175 -310l195 -320h-200l-155 270v-270h-175v270l-155 -270h-200l195 320l-175 310h200l135 -265v265h175z" />
    <glyph glyph-name="afii10025" unicode="&#x417;" horiz-adv-x="540" 
d="M25 440c1.33301 27.333 7.83496 53.166 19.502 77.499s27.667 45.5 48 63.5s45.166 32.333 74.499 43s62 16 98 16c37.333 0 70.666 -5 99.999 -15s54 -23.167 74 -39.5s35.167 -35.333 45.5 -57s15.5 -44.5 15.5 -68.5c0 -22.667 -4.66699 -42.167 -14 -58.5
s-19.666 -29.833 -30.999 -40.5c-13.333 -12 -28.333 -22.333 -45 -31c19.333 -10 36.666 -22 51.999 -36c13.333 -12 25.5 -27.5 36.5 -46.5s16.5 -41.5 16.5 -67.5s-5.16699 -50.667 -15.5 -74s-25.666 -43.5 -45.999 -60.5s-45.5 -30.5 -75.5 -40.5s-64.333 -15 -103 -15
c-40 0 -75.5 5.33301 -106.5 16s-57.5 25.167 -79.5 43.5s-39.167 40 -51.5 65s-19.833 51.833 -22.5 80.5l175 15c3.33301 -11.333 8.33301 -21.333 15 -30c5.33301 -7.33301 12.833 -14.166 22.5 -20.499s22.167 -9.5 37.5 -9.5c17.333 0 31.666 5.33301 42.999 16
s17 23.667 17 39s-5 27.5 -15 36.5s-25 13.5 -45 13.5h-70v135h65c17.333 0 30.833 4.33301 40.5 13s14.5 19 14.5 31c0 13.333 -4.83301 24.333 -14.5 33s-23.167 13 -40.5 13c-14 0 -25 -2.83301 -33 -8.5s-14 -12.167 -18 -19.5c-4.66699 -8 -7.66699 -17 -9 -27z" />
    <glyph glyph-name="afii10026" unicode="&#x418;" horiz-adv-x="675" 
d="M230 630v-345l235 345h155v-630h-175v345l-235 -345h-155v630h175z" />
    <glyph glyph-name="afii10027" unicode="&#x419;" horiz-adv-x="675" 
d="M230 630v-345l235 345h155v-630h-175v345l-235 -345h-155v630h175zM337 775c10 0 17.8301 2.33301 23.4971 7s10.167 9.66699 13.5 15c3.33301 6.66699 6 14.334 8 23.001h110c-1.33301 -18.667 -6.16602 -36.5 -14.499 -53.5s-19.333 -31.833 -33 -44.5
s-29.667 -22.834 -48 -30.501s-38.166 -11.5 -59.499 -11.5s-41.166 3.83301 -59.499 11.5s-34.333 17.834 -48 30.501s-24.667 27.5 -33 44.5s-13.166 34.833 -14.499 53.5h110c1.33301 -8.66699 3.66602 -16.334 6.99902 -23.001c3.33301 -5.33301 8 -10.333 14 -15
s14 -7 24 -7z" />
    <glyph glyph-name="afii10028" unicode="&#x41a;" horiz-adv-x="595" 
d="M405 0l-175 275v-275h-175v630h175v-267l160 267h195l-200 -310l220 -320h-200z" />
    <glyph glyph-name="afii10029" unicode="&#x41b;" horiz-adv-x="660" 
d="M605 630l-0.000976562 -630h-175v460h-140l-20 -270c-5.33301 -62.667 -25.333 -111.667 -60 -147s-79.667 -53 -135 -53c-17.333 0 -33.333 1.66699 -48 5c-7.33301 1.33301 -14.666 3 -21.999 5v155h20c49.333 0 76 26.667 80 80l30 395h470z" />
    <glyph glyph-name="afii10030" unicode="&#x41c;" horiz-adv-x="810" 
d="M230 300v-300h-175v630h170l180 -380l180 380h170v-630h-175v300l-140 -300h-70z" />
    <glyph glyph-name="afii10031" unicode="&#x41d;" horiz-adv-x="675" 
d="M620 630v-630h-175v235h-215v-235h-175v630h175v-225h215v225h175z" />
    <glyph glyph-name="afii10032" unicode="&#x41e;" horiz-adv-x="700" 
d="M205 315c0 -22.667 3.83301 -43.5 11.5 -62.5s18 -35.333 31 -49s28.333 -24.334 46 -32.001s36.5 -11.5 56.5 -11.5s38.833 3.83301 56.5 11.5s33 18.334 46 32.001s23.333 30 31 49s11.5 39.833 11.5 62.5s-3.83301 43.5 -11.5 62.5s-18 35.333 -31 49
s-28.333 24.334 -46 32.001s-36.5 11.5 -56.5 11.5s-38.833 -3.83301 -56.5 -11.5s-33 -18.334 -46 -32.001s-23.333 -30 -31 -49s-11.5 -39.833 -11.5 -62.5zM670 315c0 -46 -8.16699 -88.833 -24.5 -128.5s-39 -74 -68 -103s-63 -51.833 -102 -68.5
s-80.833 -25 -125.5 -25c-45.333 0 -87.333 8.33301 -126 25s-72.5 39.5 -101.5 68.5s-51.667 63.333 -68 103s-24.5 82.5 -24.5 128.5s8.16699 88.833 24.5 128.5s39 74 68 103s62.833 51.833 101.5 68.5s80.667 25 126 25c44.667 0 86.5 -8.33301 125.5 -25
s73 -39.5 102 -68.5s51.667 -63.333 68 -103s24.5 -82.5 24.5 -128.5z" />
    <glyph glyph-name="afii10033" unicode="&#x41f;" horiz-adv-x="675" 
d="M620 630v-630h-175v460h-215v-460h-175v630h565z" />
    <glyph glyph-name="afii10034" unicode="&#x420;" horiz-adv-x="580" 
d="M320 630c34.667 0 66.5 -5.66699 95.5 -17s53.833 -27 74.5 -47s36.667 -43.667 48 -71s17 -57.333 17 -90s-5.66699 -62.667 -17 -90s-27.333 -51 -48 -71s-45.5 -35.667 -74.5 -47s-60.833 -17 -95.5 -17h-90v-180h-175v630h265zM305 340c20 0 36.667 6.5 50 19.5
s20 28.167 20 45.5s-6.66699 32.5 -20 45.5s-30 19.5 -50 19.5h-75v-130h75z" />
    <glyph glyph-name="afii10035" unicode="&#x421;" horiz-adv-x="670" 
d="M350 160c22.667 0 41.667 4.16895 57 12.502s27.666 17.5 36.999 27.5c11.333 12 20 25.333 26 40l180 -15c-6 -28.667 -17.833 -57 -35.5 -85s-39.667 -53.167 -66 -75.5s-56.333 -40.333 -90 -54s-69.834 -20.5 -108.501 -20.5c-45.333 0 -87.333 8.33301 -126 25
s-72.5 39.5 -101.5 68.5s-51.667 63.333 -68 103s-24.5 82.5 -24.5 128.5s8.16699 88.833 24.5 128.5s39 74 68 103s62.833 51.833 101.5 68.5s80.667 25 126 25c38.667 0 74.834 -6.83301 108.501 -20.5s63.667 -31.667 90 -54s48.333 -47.5 66 -75.5
s29.5 -56.333 35.5 -85l-180 -15c-6 14.667 -14.667 28 -26 40c-9.33301 10 -21.666 19.167 -36.999 27.5s-34.333 12.5 -57 12.5c-20 0 -38.833 -3.83301 -56.5 -11.5s-33 -18.334 -46 -32.001s-23.333 -30 -31 -49s-11.5 -39.833 -11.5 -62.5s3.83301 -43.5 11.5 -62.5
s18 -35.333 31 -49s28.333 -24.334 46 -32.001s36.5 -11.5 56.5 -11.5z" />
    <glyph glyph-name="afii10036" unicode="&#x422;" horiz-adv-x="545" 
d="M360 0h-175v460h-170v170h515v-170h-170v-460z" />
    <glyph glyph-name="afii10037" unicode="&#x423;" horiz-adv-x="580" 
d="M590 630l-209.999 -459.999c-14 -31.333 -28.5 -58.333 -43.5 -81s-31.167 -41.334 -48.5 -56.001s-36.5 -25.5 -57.5 -32.5s-44.5 -10.5 -70.5 -10.5c-20 0 -37.667 1.66699 -53 5c-8 1.33301 -15.333 3 -22 5v160c4 -1.33301 8.33301 -2.33301 13 -3
c4 -0.666992 8.66699 -1.16699 14 -1.5s11 -0.5 17 -0.5c12.667 0 23.667 1.66699 33 5s16.666 7.33301 21.999 12c6.66699 5.33301 12 11.333 16 18l-200 440h185l110 -250l110 250h185z" />
    <glyph glyph-name="afii10038" unicode="&#x424;" horiz-adv-x="785" 
d="M305 60c-42.667 2.66699 -81.167 11.167 -115.5 25.5s-63.666 33 -87.999 56s-43.166 49.667 -56.499 80s-20 63.166 -20 98.499c0 34.667 6.66699 67.334 20 98.001s32.166 57.5 56.499 80.5s53.666 41.667 87.999 56s72.833 22.833 115.5 25.5v60h175v-60
c42.667 -2.66699 81.167 -11.167 115.5 -25.5s63.666 -33 87.999 -56s43.166 -49.833 56.499 -80.5s20 -63.334 20 -98.001c0 -35.333 -6.66699 -68.166 -20 -98.499s-32.166 -57 -56.499 -80s-53.666 -41.667 -87.999 -56s-72.833 -22.833 -115.5 -25.5v-65h-175v65z
M305 425c-30 -2.66699 -55 -13.832 -75 -33.499s-30 -43.5 -30 -71.5s10 -51.833 30 -71.5s45 -30.834 75 -33.501v210zM480 215.002c30 2.66699 55 13.832 75 33.499s30 43.5 30 71.5s-10 51.833 -30 71.5s-45 30.834 -75 33.501v-210z" />
    <glyph glyph-name="afii10039" unicode="&#x425;" horiz-adv-x="600" 
d="M595 630l-185 -310l195 -320h-195l-110 190l-110 -190h-195l195 320l-185 310h195l100 -180l100 180h195z" />
    <glyph glyph-name="afii10040" unicode="&#x426;" horiz-adv-x="685" 
d="M495 0h-440v630h175v-460h195v460h175v-460h70v-285h-175v115z" />
    <glyph glyph-name="afii10041" unicode="&#x427;" horiz-adv-x="635" 
d="M580 630v-629.998h-175v195c-12 -6 -24.667 -11 -38 -15c-11.333 -4 -24.666 -7.5 -39.999 -10.5s-31 -4.5 -47 -4.5c-34 0 -65.333 5.83301 -94 17.5s-53.5 28 -74.5 49s-37.333 45.833 -49 74.5s-17.5 60 -17.5 94v230h175v-205c0 -66.667 31.667 -100 95 -100
c13.333 0 25.666 1.16699 36.999 3.5s21 5.16602 29 8.49902c9.33301 3.33301 17.333 7.66602 24 12.999v280h175z" />
    </font>
</defs>
</svg>
