<?xml version="1.0" standalone="no"?>
<!DOCTYPE svg PUBLIC "-//W3C//DTD SVG 1.1//EN" "http://www.w3.org/Graphics/SVG/1.1/DTD/svg11.dtd" >
<svg>
<metadata>
Created by FontForge 20090914 at Wed Sep  4 07:53:37 2019
 By www-data
Copyright (c) 2018 by TypeType. Designers Ivan Gladkikh, Pavel Emelyanov. Technical designers Marina Khodak, Vika Usmanova, Nadyr Rakhimov. All rights reserved.
</metadata>
<defs>
<font id="TTCommons-Thin" horiz-adv-x="1024" >
  <font-face 
    font-family="TT Commons Thin"
    font-weight="200"
    font-stretch="normal"
    units-per-em="2048"
    panose-1="2 0 5 6 2 0 0 2 0 3"
    ascent="1434"
    descent="-614"
    x-height="901"
    cap-height="1290"
    bbox="-328 -430 2945 1741"
    underline-thickness="0"
    underline-position="0"
    unicode-range="U+000D-U+FB06"
  />
<missing-glyph horiz-adv-x="0" 
 />
    <glyph glyph-name="uniFB00" unicode="ff" horiz-adv-x="983" 
d="M952 850l-235.002 0.000976562v-850h-51v850h-410v-850h-51v850h-164v51h164v123c0 72.667 20.833 130.167 62.5 172.5s95.834 63.5 162.501 63.5c10.667 0 20.167 -0.833008 28.5 -2.5l22.5 -4.5l21 -4v-51l-21 4c-6.66699 1.33301 -14.167 2.66602 -22.5 3.99902
s-17.833 2 -28.5 2c-52 0 -94 -16.333 -126 -49s-48 -77.667 -48 -135v-123h410v164c0 72.667 20.833 130 62.5 172s95.834 63 162.501 63c10.667 0 20.167 -0.666992 28.5 -2s15.833 -2.66602 22.5 -3.99902l21 -4v-51l-21 4
c-6.66699 1.33301 -14.167 2.66602 -22.5 3.99902s-17.833 2 -28.5 2c-52 0 -94 -16.333 -126 -49s-48 -77.667 -48 -135v-164h235v-51z" />
    <glyph glyph-name="uniFB01" unicode="fi" horiz-adv-x="860" 
d="M666 850h-410.001v-850h-51v850h-164v51h164v164c0 72.667 20.833 130 62.5 172s95.834 63 162.501 63c10.667 0 20.167 -0.666992 28.5 -2s15.833 -2.66602 22.5 -3.99902l21 -4v-51l-21 4c-6.66699 1.33301 -14.167 2.66602 -22.5 3.99902s-17.833 2 -28.5 2
c-52 0 -94 -16.333 -126 -49s-48 -77.667 -48 -135v-164h461v-901h-51v850zM736.999 1184c0 -13.333 -4.33301 -24.5 -13 -33.5s-20 -13.5 -34 -13.5c-12 0 -22.5 4.33301 -31.5 13s-13.5 20 -13.5 34c0 12 4.5 22.5 13.5 31.5s19.5 13.5 31.5 13.5
c13.333 0 24.5 -4.5 33.5 -13.5s13.5 -19.5 13.5 -31.5z" />
    <glyph glyph-name="uniFB02" unicode="fl" horiz-adv-x="860" 
d="M666 1229l-41.001 10c-13.333 2.66699 -28.666 5 -45.999 7s-36.333 3 -57 3c-82 0 -146.833 -24.5 -194.5 -73.5s-71.5 -119.833 -71.5 -212.5v-62h236v-51h-236v-850h-51v850h-164v51h164v62c0 108 28.333 191.167 85 249.5s134 87.5 232 87.5
c20.667 0 39.5 -1 56.5 -3s32.5 -4.33301 46.5 -7l41 -10h51v-1280h-51v1229z" />
    <glyph glyph-name="uniFB03" unicode="ffi" horiz-adv-x="1320" 
d="M1126 850l-409.002 0.000976562v-850h-51v850h-410v-850h-51v850h-164v51h164v123c0 72.667 20.833 130.167 62.5 172.5s95.834 63.5 162.501 63.5c10.667 0 20.167 -0.833008 28.5 -2.5l22.5 -4.5l21 -4v-51l-21 4c-6.66699 1.33301 -14.167 2.66602 -22.5 3.99902
s-17.833 2 -28.5 2c-52 0 -94 -16.333 -126 -49s-48 -77.667 -48 -135v-123h410v164c0 72.667 20.833 130 62.5 172s95.834 63 162.501 63c10.667 0 20.167 -0.666992 28.5 -2s15.833 -2.66602 22.5 -3.99902l21 -4v-51l-21 4
c-6.66699 1.33301 -14.167 2.66602 -22.5 3.99902s-17.833 2 -28.5 2c-52 0 -94 -16.333 -126 -49s-48 -77.667 -48 -135v-164h461v-901h-52v850zM1198 1184c0 -13.333 -4.5 -24.5 -13.5 -33.5s-20.167 -13.5 -33.5 -13.5c-12 0 -22.5 4.33301 -31.5 13s-13.5 20 -13.5 34
c0 12 4.5 22.5 13.5 31.5s19.5 13.5 31.5 13.5c13.333 0 24.5 -4.5 33.5 -13.5s13.5 -19.5 13.5 -31.5z" />
    <glyph glyph-name="uniFB04" unicode="ffl" horiz-adv-x="1320" 
d="M1126 1229l-41.001 10.001c-13.333 2.66699 -28.5 5 -45.5 7s-35.833 3 -56.5 3c-82 0 -146.833 -24.5 -194.5 -73.5s-71.5 -119.833 -71.5 -212.5v-62h235v-51h-235v-850h-51v850h-410v-850h-51v850h-164v51h164v123c0 72.667 20.833 130.167 62.5 172.5
s95.834 63.5 162.501 63.5c10.667 0 20.167 -0.833008 28.5 -2.5l22.5 -4.5l21 -4v-51l-21 4c-6.66699 1.33301 -14.167 2.66602 -22.5 3.99902s-17.833 2 -28.5 2c-52 0 -94 -16.333 -126 -49s-48 -77.667 -48 -135v-123h410v62c0 108 28.333 191.167 85 249.5
s134 87.5 232 87.5c20.667 0 39.5 -1 56.5 -3s32.167 -4.33301 45.5 -7l41 -10h52v-1280h-52v1229z" />
    <glyph glyph-name="f_f_j.liga" unicode="ffj" horiz-adv-x="1320" 
d="M1126 850l-409.002 0.000976562v-850h-51v850h-410v-850h-51v850h-164v51h164v123c0 72.667 20.833 130.167 62.5 172.5s95.834 63.5 162.501 63.5c10.667 0 20.167 -0.833008 28.5 -2.5l22.5 -4.5l21 -4v-51l-21 4c-6.66699 1.33301 -14.167 2.66602 -22.5 3.99902
s-17.833 2 -28.5 2c-52 0 -94 -16.333 -126 -49s-48 -77.667 -48 -135v-123h410v164c0 72.667 20.833 130 62.5 172s95.834 63 162.501 63c10.667 0 20.167 -0.666992 28.5 -2s15.833 -2.66602 22.5 -3.99902l21 -4v-51l-21 4
c-6.66699 1.33301 -14.167 2.66602 -22.5 3.99902s-17.833 2 -28.5 2c-52 0 -94 -16.333 -126 -49s-48 -77.667 -48 -135v-164h461v-1003c0 -72.667 -20.833 -130.167 -62.5 -172.5s-96.167 -63.5 -163.5 -63.5c-10.667 0 -20.167 0.333008 -28.5 1s-15.833 1.66699 -22.5 3
s-13.334 3.33301 -20.001 6v52c6.66699 -2.66699 13.334 -5 20.001 -7c6.66699 -1.33301 14.167 -2.33301 22.5 -3s17.833 -1 28.5 -1c52 0 94 16.5 126 49.5s48 78.167 48 135.5v952zM1198 1184c0 -13.333 -4.5 -24.5 -13.5 -33.5s-20.167 -13.5 -33.5 -13.5
c-12 0 -22.5 4.33301 -31.5 13s-13.5 20 -13.5 34c0 12 4.5 22.5 13.5 31.5s19.5 13.5 31.5 13.5c13.333 0 24.5 -4.5 33.5 -13.5s13.5 -19.5 13.5 -31.5z" />
    <glyph glyph-name="f_j.liga" unicode="fj" horiz-adv-x="860" 
d="M666 850h-410v-850h-51v850h-164v51h164v164c0 72.667 20.833 130 62.5 172s95.834 63 162.501 63c10.667 0 20.167 -0.666992 28.5 -2s15.833 -2.66602 22.5 -3.99902l21 -4v-51l-21 4c-6.66699 1.33301 -14.167 2.66602 -22.5 3.99902s-17.833 2 -28.5 2
c-52 0 -94 -16.333 -126 -49s-48 -77.667 -48 -135v-164h461v-1003c0 -72.667 -20.833 -130.167 -62.5 -172.5s-95.834 -63.5 -162.501 -63.5c-10.667 0 -20.167 0.333008 -28.5 1s-16.166 1.66699 -23.499 3c-6.66699 1.33301 -13.334 3.33301 -20.001 6v52
c6.66699 -2.66699 13.334 -5 20.001 -7c6.66699 -1.33301 14.167 -2.33301 22.5 -3s18.166 -1 29.499 -1c52 0 94 16.5 126 49.5s48 78.167 48 135.5v952zM737 1184c0 -13.333 -4.33301 -24.5 -13 -33.5s-20 -13.5 -34 -13.5c-12 0 -22.5 4.33301 -31.5 13
s-13.5 20 -13.5 34c0 12 4.5 22.5 13.5 31.5s19.5 13.5 31.5 13.5c13.333 0 24.5 -4.5 33.5 -13.5s13.5 -19.5 13.5 -31.5z" />
    <glyph glyph-name="f_t.liga" unicode="ft" horiz-adv-x="1044" 
d="M666 850h-410v-850h-51v850h-164v51h164v164c0 72.667 20.833 130 62.5 172s95.834 63 162.501 63c10.667 0 20.167 -0.666992 28.5 -2s15.833 -2.66602 22.5 -3.99902l21 -4v-51l-21 4c-6.66699 1.33301 -14.167 2.66602 -22.5 3.99902s-17.833 2 -28.5 2
c-52 0 -94 -16.333 -126 -49s-48 -77.667 -48 -135v-164h317c61.333 0 92.333 30.667 93 92v174h51v-266h235v-51h-235v-625c0 -57.333 16 -102.333 48 -135s74 -49 126 -49c10.667 0 20.167 0.333008 28.5 1s15.833 1.66699 22.5 3s13.667 3.33301 21 6v-51
c-6.66699 -2.66699 -13.667 -4.66699 -21 -6c-6.66699 -1.33301 -14.167 -2.33301 -22.5 -3s-17.833 -1 -28.5 -1c-66.667 0 -120.834 21.167 -162.501 63.5s-62.5 99.5 -62.5 171.5v625z" />
    <glyph glyph-name="f_h.liga" unicode="fh" horiz-adv-x="1525" 
d="M1034 911c50.667 0 98.166 -9.16797 142.499 -27.501s82.166 -44.166 113.499 -77.499s56.333 -73.333 75 -120s28 -98 28 -154v-532h-52v532c0 49.333 -7.83301 94.166 -23.5 134.499s-37.167 74.833 -64.5 103.5s-59.666 50.834 -96.999 66.501s-78 23.5 -122 23.5
s-85 -7.83301 -123 -23.5s-71.333 -37.834 -100 -66.501s-51.5 -63.167 -68.5 -103.5s-25.5 -85.166 -25.5 -134.499v-532h-51v1229l-41 10c-13.333 2.66699 -28.666 5 -45.999 7s-36.333 3 -57 3c-82 0 -146.833 -24.5 -194.5 -73.5s-71.5 -119.833 -71.5 -212.5v-62h236
v-51h-236v-850h-51v850h-164v51h164v62c0 108 28.333 191.167 85 249.5s134 87.5 232 87.5c20.667 0 39.5 -1 56.5 -3s32.5 -4.33301 46.5 -7l41 -10h51v-563h10c18 35.333 41.333 67.333 70 96c24.667 24.667 56 47.167 94 67.5s85.667 30.5 143 30.5z" />
    <glyph glyph-name="f_k.liga" unicode="fk" horiz-adv-x="1310" 
d="M717 471l-0.000976562 -471h-51v1229l-41 10c-13.333 2.66699 -28.666 5 -45.999 7s-36.333 3 -57 3c-82 0 -146.833 -24.5 -194.5 -73.5s-71.5 -119.833 -71.5 -212.5v-62h236v-51h-236v-850h-51v850h-164v51h164v62c0 108 28.333 191.167 85 249.5s134 87.5 232 87.5
c20.667 0 39.5 -1 56.5 -3s32.5 -4.33301 46.5 -7l41 -10h51v-809l461 430h71l-461 -430l502 -471h-71z" />
    <glyph glyph-name="f_b.liga" unicode="fb" horiz-adv-x="1597" 
d="M666 1229l-41.002 10.001c-13.333 2.66699 -28.666 5 -45.999 7s-36.333 3 -57 3c-82 0 -146.833 -24.5 -194.5 -73.5s-71.5 -119.833 -71.5 -212.5v-62h236v-51h-236v-850h-51v850h-164v51h164v62c0 108 28.333 191.167 85 249.5s134 87.5 232 87.5
c20.667 0 39.5 -1 56.5 -3s32.5 -4.33301 46.5 -7l41 -10h51v-614h10l21 38c13.333 26 34.333 54.5 63 85.5s65.5 59 110.5 84s99.5 37.5 163.5 37.5c56 0 109.667 -11.5 161 -34.5s96.166 -55 134.499 -96s68.666 -89.5 90.999 -145.5s33.5 -117.333 33.5 -184
s-11.167 -128.167 -33.5 -184.5s-52.666 -105 -90.999 -146s-83.166 -73 -134.499 -96s-105 -34.5 -161 -34.5c-65.333 0 -120.166 12.667 -164.499 38s-80.833 53.666 -109.5 84.999c-34 35.333 -62 76.333 -84 123h-10l-10 -236h-41v1229zM1454 451.001
c0 58.667 -10.167 112.834 -30.5 162.501s-47.333 93 -81 130s-72.667 65.667 -117 86s-91.166 30.5 -140.499 30.5s-96 -10.167 -140 -30.5s-82.833 -49 -116.5 -86s-60.667 -80.333 -81 -130s-30.5 -103.834 -30.5 -162.501s10.167 -113 30.5 -163s47.333 -93.5 81 -130.5
s72.667 -65.667 117 -86s90.833 -30.5 139.5 -30.5c49.333 0 96.166 10.167 140.499 30.5s83.333 49 117 86s60.667 80.5 81 130.5s30.5 104.333 30.5 163z" />
    <glyph glyph-name="f_f_h.liga" unicode="ffh" horiz-adv-x="1986" 
d="M1126 1229l-40.999 10c-13.333 2.66699 -28.5 5 -45.5 7s-35.833 3 -56.5 3c-82 0 -146.833 -24.5 -194.5 -73.5s-71.5 -119.833 -71.5 -212.5v-62h235v-51h-235v-850h-51v850h-410v-850h-51v850h-164v51h164v123c0 72.667 20.833 130.167 62.5 172.5
s95.834 63.5 162.501 63.5c10.667 0 20.167 -0.833008 28.5 -2.5l22.5 -4.5l21 -4v-51l-21 4c-6.66699 1.33301 -14.167 2.66602 -22.5 3.99902s-17.833 2 -28.5 2c-52 0 -94 -16.333 -126 -49s-48 -77.667 -48 -135v-123h410v62c0 108 28.333 191.167 85 249.5
s134 87.5 232 87.5c20.667 0 39.5 -1 56.5 -3s32.167 -4.33301 45.5 -7l41 -10h52v-563h10c18 35.333 41 67.333 69 96c24.667 24.667 56.167 47.167 94.5 67.5s86.166 30.5 143.499 30.5c50.667 0 98.167 -9.16699 142.5 -27.5s82.166 -44.166 113.499 -77.499
s56.166 -73.333 74.499 -120s27.5 -98 27.5 -154v-532h-51v532c0 49.333 -7.83301 94.166 -23.5 134.499s-37.167 74.833 -64.5 103.5s-59.666 50.834 -96.999 66.501s-78 23.5 -122 23.5s-85 -7.83301 -123 -23.5s-71.333 -37.834 -100 -66.501s-51.5 -63.167 -68.5 -103.5
s-25.5 -85.166 -25.5 -134.499v-532h-52v1229z" />
    <glyph glyph-name="f_f_k.liga" unicode="ffk" horiz-adv-x="1771" 
d="M1178 471l-0.000976562 -470.999h-52v1229l-41 10c-13.333 2.66699 -28.5 5 -45.5 7s-35.833 3 -56.5 3c-82 0 -146.833 -24.5 -194.5 -73.5s-71.5 -119.833 -71.5 -212.5v-62h235v-51h-235v-850h-51v850h-410v-850h-51v850h-164v51h164v123
c0 72.667 20.833 130.167 62.5 172.5s95.834 63.5 162.501 63.5c10.667 0 20.167 -0.833008 28.5 -2.5l22.5 -4.5l21 -4v-51l-21 4c-6.66699 1.33301 -14.167 2.66602 -22.5 3.99902s-17.833 2 -28.5 2c-52 0 -94 -16.333 -126 -49s-48 -77.667 -48 -135v-123h410v62
c0 108 28.333 191.167 85 249.5s134 87.5 232 87.5c20.667 0 39.5 -1 56.5 -3s32.167 -4.33301 45.5 -7l41 -10h52v-809l460 430h72l-461 -430l502 -471h-72z" />
    <glyph glyph-name="f_f_b.liga" unicode="ffb" horiz-adv-x="2058" 
d="M1126 1229l-41.002 10.002c-13.333 2.66699 -28.5 5 -45.5 7s-35.833 3 -56.5 3c-82 0 -146.833 -24.5 -194.5 -73.5s-71.5 -119.833 -71.5 -212.5v-62h235v-51h-235v-850h-51v850h-410v-850h-51v850h-164v51h164v123c0 72.667 20.833 130.167 62.5 172.5
s95.834 63.5 162.501 63.5c10.667 0 20.167 -0.833008 28.5 -2.5l22.5 -4.5l21 -4v-51l-21 4c-6.66699 1.33301 -14.167 2.66602 -22.5 3.99902s-17.833 2 -28.5 2c-52 0 -94 -16.333 -126 -49s-48 -77.667 -48 -135v-123h410v62c0 108 28.333 191.167 85 249.5
s134 87.5 232 87.5c20.667 0 39.5 -1 56.5 -3s32.167 -4.33301 45.5 -7l41 -10h52v-614h10l20 38c14 26 35.333 54.5 64 85.5s65.5 59 110.5 84s99.5 37.5 163.5 37.5c56 0 109.667 -11.5 161 -34.5s96 -55 134 -96s68.333 -89.5 91 -145.5s34 -117.333 34 -184
s-11.333 -128.167 -34 -184.5s-53 -105 -91 -146s-82.667 -73 -134 -96s-105 -34.5 -161 -34.5c-65.333 0 -120.166 12.667 -164.499 38s-80.833 53.666 -109.5 84.999c-34 35.333 -62 76.333 -84 123h-10l-11 -236h-41v1229zM1915 451.002
c0 58.667 -10.3359 112.834 -31.0029 162.501s-47.667 93 -81 130s-72.166 65.667 -116.499 86s-91.166 30.5 -140.499 30.5s-96.166 -10.167 -140.499 -30.5s-83.166 -49 -116.499 -86s-60.166 -80.333 -80.499 -130s-30.5 -103.834 -30.5 -162.501s10.167 -113 30.5 -163
s47.166 -93.5 80.499 -130.5s72.333 -65.667 117 -86s91.334 -30.5 140.001 -30.5c49.333 0 96.166 10.167 140.499 30.5s83.166 49 116.499 86s60.333 80.5 81 130.5s31 104.333 31 163z" />
    <glyph glyph-name=".notdef" horiz-adv-x="0" 
 />
    <glyph glyph-name="glyph1" horiz-adv-x="0" 
 />
    <glyph glyph-name="glyph1" horiz-adv-x="0" 
 />
    <glyph glyph-name="uni000D" unicode="&#xd;" horiz-adv-x="0" 
 />
    <glyph glyph-name="space" unicode=" " horiz-adv-x="409" 
 />
    <glyph glyph-name="exclam" unicode="!" horiz-adv-x="460" 
d="M184 45c0 13.333 4.50098 24.5 13.501 33.5s20.167 13.5 33.5 13.5c12 0 22.5 -4.33301 31.5 -13s13.5 -20 13.5 -34c0 -12 -4.33301 -22.5 -13 -31.5s-19.334 -13.5 -32.001 -13.5c-13.333 0 -24.5 4.5 -33.5 13.5s-13.5 19.5 -13.5 31.5zM205.001 1290h51v-962h-51v962
z" />
    <glyph glyph-name="quotedbl" unicode="&#x22;" horiz-adv-x="624" 
d="M461 911h-51v379h51v-379zM215 911h-51v379h51v-379z" />
    <glyph glyph-name="numbersign" unicode="#" horiz-adv-x="1198" 
d="M748 410h-390l-82 -410h-51l82 410h-266l10 51h266l72 368h-256l10 52h256l82 409h51l-81 -409h389l82 409h51l-82 -409h266l-10 -52h-266l-72 -368h256l-10 -51h-256l-82 -410h-51zM369 461h389l71 368h-389z" />
    <glyph glyph-name="dollar" unicode="$" 
d="M481 -10c-108 5.33301 -196.999 40.8252 -266.999 106.492s-110.667 149.5 -122 251.5h51c5.33301 -44 17.333 -84.667 36 -122s43.334 -69.666 74.001 -96.999s66.834 -48.833 108.501 -64.5s88.5 -23.5 140.5 -23.5c56 0 106.167 7.83301 150.5 23.5
s81.833 37.167 112.5 64.5s54.167 59.833 70.5 97.5s24.5 78.167 24.5 121.5c0 52 -10.5 95.333 -31.5 130s-48.333 63.334 -82 86.001s-72.334 41.5 -116.001 56.5s-88.334 29 -134.001 42s-90.334 27 -134.001 42s-82.167 34.167 -115.5 57.5
s-60.666 52.666 -81.999 87.999s-32 79.666 -32 132.999c0 40.667 8.16699 79.834 24.5 117.501s39.5 70.834 69.5 99.501s66.5 51.834 109.5 69.501s91.167 27.834 144.5 30.501v195h51v-195c102.667 -10.667 185.334 -47.667 248.001 -111s99.667 -138.666 111 -225.999
h-51c-5.33301 38 -17.333 74.333 -36 109s-42.334 65 -71.001 91s-61.667 46.833 -99 62.5s-78 23.5 -122 23.5c-52 0 -98.167 -7.16699 -138.5 -21.5s-74.5 -33.666 -102.5 -57.999s-49.5 -52.666 -64.5 -84.999s-22.5 -66.166 -22.5 -101.499c0 -48 10.667 -87 32 -117
s48.666 -55.167 81.999 -75.5s71.833 -37.333 115.5 -51l134 -40c45.667 -13 90.5 -27.667 134.5 -44s82.667 -37.5 116 -63.5s60.5 -58.5 81.5 -97.5s31.5 -87.833 31.5 -146.5c0 -98 -32 -179.5 -96 -244.5s-158.333 -102.833 -283 -113.5v-195h-51v195z" />
    <glyph glyph-name="percent" unicode="%" horiz-adv-x="1249" 
d="M266 0h-61l778 1290h61zM1116 256c0 26 -4.83301 51.333 -14.5 76s-23.334 46.5 -41.001 65.5s-38 34.333 -61 46s-48.833 17.5 -77.5 17.5s-54.667 -5.83301 -78 -17.5s-43.833 -27 -61.5 -46s-31.334 -40.833 -41.001 -65.5s-14.5 -50 -14.5 -76
s4.83301 -51.333 14.5 -76s23.334 -46.5 41.001 -65.5s38.167 -34.333 61.5 -46s49.333 -17.5 78 -17.5s54.5 5.83301 77.5 17.5s43.333 27 61 46s31.334 40.833 41.001 65.5s14.5 50 14.5 76zM1167 256c0 -35.333 -6.50098 -68.666 -19.501 -99.999
s-30.667 -58.666 -53 -81.999s-48.5 -41.5 -78.5 -54.5s-61.333 -19.5 -94 -19.5s-64.167 6.5 -94.5 19.5s-56.666 31.167 -78.999 54.5s-40 50.666 -53 81.999s-19.5 64.666 -19.5 99.999s6.5 68.666 19.5 99.999s30.667 58.666 53 81.999s48.5 41.5 78.5 54.5
s61.667 19.5 95 19.5c32.667 0 64 -6.5 94 -19.5s56.167 -31.167 78.5 -54.5s40 -50.666 53 -81.999s19.5 -64.666 19.5 -99.999zM132.999 1034c0 -26 4.83301 -51.167 14.5 -75.5s23.334 -46.166 41.001 -65.499s38.167 -34.833 61.5 -46.5s49.333 -17.5 78 -17.5
s54.5 5.83301 77.5 17.5s43.5 27.167 61.5 46.5s31.667 41.166 41 65.499s14 49.5 14 75.5s-4.66699 51.333 -14 76s-23 46.5 -41 65.5s-38.5 34.333 -61.5 46s-48.833 17.5 -77.5 17.5s-54.667 -5.83301 -78 -17.5s-43.833 -27 -61.5 -46s-31.334 -40.833 -41.001 -65.5
s-14.5 -50 -14.5 -76zM81.999 1034c0 35.333 6.5 68.833 19.5 100.5s30.667 59 53 82s48.666 41 78.999 54s61.833 19.5 94.5 19.5s64 -6.5 94 -19.5s56.333 -31 79 -54s40.334 -50.333 53.001 -82s19 -65.167 19 -100.5s-6.33301 -68.666 -19 -99.999
s-30.334 -58.666 -53.001 -81.999s-49 -41.5 -79 -54.5s-61.333 -19.5 -94 -19.5s-64.167 6.5 -94.5 19.5s-56.666 31.167 -78.999 54.5s-40 50.666 -53 81.999s-19.5 64.666 -19.5 99.999z" />
    <glyph glyph-name="ampersand" unicode="&#x26;" horiz-adv-x="1075" 
d="M113 276c0 35.333 5.00391 68.166 15.0039 98.499s24 58.833 42 85.5s38.833 51.5 62.5 74.5l74.5 69.5l82 72l-51 51c-46.667 46.667 -87.334 92.5 -122.001 137.5s-52 98.167 -52 159.5c0 38 7.16699 73.833 21.5 107.5s34.166 63 59.499 88s54.666 44.667 87.999 59
s69 21.5 107 21.5s73.833 -7.16699 107.5 -21.5s63.167 -34 88.5 -59s45.166 -54.333 59.499 -88s21.5 -69.5 21.5 -107.5c0 -31.333 -5.83301 -60.333 -17.5 -87s-26 -51.667 -43 -75s-35.833 -44.5 -56.5 -63.5l-57 -50.5l-82 -72l358 -359l174 256h51l-194 -286l287 -287
h-72l-246 246c-32.667 -49.333 -69.334 -92.333 -110.001 -129c-35.333 -31.333 -77.666 -60.333 -126.999 -87s-103.333 -40 -162 -40c-46.667 0 -88.667 7.16699 -126 21.5s-69.333 34.5 -96 60.5s-47.5 56.333 -62.5 91s-22.5 72.334 -22.5 113.001zM430.004 707
l81.9971 71l49.5 45c17.667 16.667 34.334 35.167 50.001 55.5s28.667 42.833 39 67.5s15.5 50.667 15.5 78c0 30 -6.16699 58.667 -18.5 86s-28.833 51.166 -49.5 71.499s-44.667 36.666 -72 48.999s-56 18.5 -86 18.5c-31.333 0 -60.666 -6.16699 -87.999 -18.5
s-51.166 -28.666 -71.499 -48.999s-36.333 -44.166 -48 -71.499s-17.5 -56 -17.5 -86c0 -52 15.667 -97.833 47 -137.5s70.333 -82.5 117 -128.5zM164.001 276c0 -66.667 23.168 -122.499 69.501 -167.499s108.5 -67.5 186.5 -67.5c53.333 0 102.5 12 147.5 36
s83.833 51 116.5 81c38 35.333 72.667 74.666 104 117.999l-368 369l-82 -72c-23.333 -20.667 -45.5 -41.5 -66.5 -62.5s-39.333 -43 -55 -66s-28.334 -48.667 -38.001 -77s-14.5 -58.833 -14.5 -91.5z" />
    <glyph glyph-name="quotesingle" unicode="'" horiz-adv-x="378" 
d="M164 1290h51v-379h-51v379z" />
    <glyph glyph-name="parenleft" unicode="(" horiz-adv-x="542" 
d="M195 461c0 -110.667 12.501 -214.832 37.501 -312.499s53.167 -183.5 84.5 -257.5c35.333 -86 76.333 -165.667 123 -239l-30 -31c-50.667 78 -95.334 162.667 -134.001 254c-34 78 -64.667 167.5 -92 268.5s-41 206.833 -41 317.5s13.667 216.5 41 317.5
s58 190.5 92 268.5c38 91.333 82.667 175.666 134 252.999l30 -30c-46.667 -74 -87.667 -154 -123 -240c-31.333 -74 -59.5 -159.667 -84.5 -257s-37.5 -201.333 -37.5 -312z" />
    <glyph glyph-name="parenright" unicode=")" horiz-adv-x="542" 
d="M348 461c0 110.667 -12.667 214.832 -38 312.499s-53.666 183.167 -84.999 256.5c-35.333 86 -76.333 166 -123 240l31 30c49.333 -78 93.666 -162.333 132.999 -253c32.667 -78 63 -167.5 91 -268.5s42 -206.833 42 -317.5s-14 -216.5 -42 -317.5
s-58.333 -190.5 -91 -268.5c-39.333 -91.333 -83.666 -176 -132.999 -254l-31 31c46.667 74 87.667 153.667 123 239c31.333 74 59.666 159.833 84.999 257.5s38 201.834 38 312.501z" />
    <glyph glyph-name="asterisk" unicode="*" horiz-adv-x="675" 
d="M338 973l-133 -205l-41 31l133 194l-215 62l20 51l215 -72l-10 256h62l-11 -256l215 72l21 -51l-215 -62l133 -194l-41 -31z" />
    <glyph glyph-name="plus" unicode="+" horiz-adv-x="890" 
d="M471 911v-358h358v-51h-358v-359h-51v359h-359v51h359v358h51z" />
    <glyph glyph-name="comma" unicode="," horiz-adv-x="337" 
d="M123 45c0 13.333 4.50293 24.501 13.5029 33.501s19.5 13.5 31.5 13.5c13.333 0 24.5 -4.83301 33.5 -14.5s13.5 -23.834 13.5 -42.501c0 -30 -5.83301 -57.333 -17.5 -82s-24.834 -46.667 -39.501 -66c-16.667 -22 -35.334 -42.333 -56.001 -61l-10 10
c13.333 15.333 25.666 31 36.999 47c9.33301 15.333 17.833 32.833 25.5 52.5s12.167 41.167 13.5 64.5c-12 0 -22.5 4.5 -31.5 13.5s-13.5 19.5 -13.5 31.5z" />
    <glyph glyph-name="hyphen" unicode="-" horiz-adv-x="675" 
d="M614 502h-553v51h553v-51z" />
    <glyph glyph-name="period" unicode="." horiz-adv-x="337" 
d="M215 45c0 -12 -4.5 -22.5 -13.5 -31.5s-20.167 -13.5 -33.5 -13.5c-12 0 -22.5 4.5 -31.5 13.5s-13.5 19.5 -13.5 31.5c0 13.333 4.5 24.5 13.5 33.5s19.5 13.5 31.5 13.5c13.333 0 24.5 -4.5 33.5 -13.5s13.5 -20.167 13.5 -33.5z" />
    <glyph glyph-name="slash" unicode="/" horiz-adv-x="583" 
d="M51 -369h-51l532 1659h52z" />
    <glyph glyph-name="zero" unicode="0" horiz-adv-x="1208" 
d="M174 645c0 -96.667 12.333 -182.667 37 -258s57.167 -138.5 97.5 -189.5s86.333 -89.833 138 -116.5s104.167 -40 157.5 -40s106 13.333 158 40s98.167 65.5 138.5 116.5s72.666 114.167 96.999 189.5s36.5 161.333 36.5 258s-12.167 182.667 -36.5 258
s-56.666 138.5 -96.999 189.5s-86.5 89.833 -138.5 116.5s-104.667 40 -158 40s-105.833 -13.333 -157.5 -40s-97.667 -65.5 -138 -116.5s-72.833 -114.167 -97.5 -189.5s-37 -161.333 -37 -258zM1085 645c0 -105.333 -13.5 -198.5 -40.5 -279.5
s-62.833 -149.5 -107.5 -205.5s-96 -98.333 -154 -127s-117.667 -43 -179 -43s-121 14.333 -179 43s-109.167 71 -153.5 127s-80.166 124.5 -107.499 205.5s-41 174.167 -41 279.5s13.667 198.666 41 279.999s63.166 149.833 107.499 205.5s95.5 97.834 153.5 126.501
s117.667 43 179 43s121 -14.333 179 -43s109.333 -70.834 154 -126.501s80.5 -124.167 107.5 -205.5s40.5 -174.666 40.5 -279.999z" />
    <glyph glyph-name="one" unicode="1" horiz-adv-x="604" 
d="M420 1290v-1290h-51v1229l-277 -195l-31 41l308 215h51z" />
    <glyph glyph-name="two" unicode="2" horiz-adv-x="962" 
d="M850 51l0.00292969 -50.998h-748v51l512 543c32.667 32.667 61.334 67.334 86.001 104.001c22 31.333 42.167 68.166 60.5 110.499s27.5 86.833 27.5 133.5c0 44 -7.83301 84.667 -23.5 122s-37.167 69.666 -64.5 96.999s-59.666 48.833 -96.999 64.5s-78 23.5 -122 23.5
c-46.667 0 -89.334 -7.83301 -128.001 -23.5s-73 -36.834 -103 -63.501s-54.167 -58 -72.5 -94s-29.833 -74.667 -34.5 -116h-51c5.33301 49.333 18.666 95.166 39.999 137.499s48.666 79.166 81.999 110.499s72.833 55.833 118.5 73.5s95.167 26.5 148.5 26.5
c50.667 0 98.167 -9.16699 142.5 -27.5s82.166 -43.166 113.499 -74.499s56.333 -69.166 75 -113.499s28 -91.833 28 -142.5c0 -52 -10.333 -101.5 -31 -148.5s-43.334 -88.167 -68.001 -123.5c-28.667 -42 -60.667 -81 -96 -117l-481 -502h686z" />
    <glyph glyph-name="three" unicode="3" horiz-adv-x="1003" 
d="M113 983c2.66699 40.667 13.498 80.166 32.498 118.499s44.833 72.166 77.5 101.499s70.834 52.833 114.501 70.5s91.5 26.5 143.5 26.5c58.667 0 111.667 -8.5 159 -25.5s87.333 -40.5 120 -70.5s57.5 -65.5 74.5 -106.5s25.5 -85.833 25.5 -134.5
c0 -61.333 -12.667 -111.5 -38 -150.5s-53.666 -69.5 -84.999 -91.5c-35.333 -24.667 -76.333 -43 -123 -55c50.667 -13.333 96.667 -34.666 138 -63.999c35.333 -24.667 67.333 -58.167 96 -100.5s43 -96.833 43 -163.5c0 -49.333 -9.16699 -95.166 -27.5 -137.499
s-45.333 -79.166 -81 -110.499s-78.667 -55.833 -129 -73.5s-107.833 -26.5 -172.5 -26.5c-56 0 -106.833 8.5 -152.5 25.5s-85.5 39.833 -119.5 68.5s-61.667 62.167 -83 100.5s-36 79.166 -44 122.499h51c8 -35.333 21.333 -69 40 -101s43 -60.333 73 -85
s64.5 -44.167 103.5 -58.5s82.833 -21.5 131.5 -21.5c56 0 106.167 7.83301 150.5 23.5s82 36.834 113 63.501s54.667 58 71 94s24.5 74.667 24.5 116c0 40.667 -8.16699 79.167 -24.5 115.5s-40 67.833 -71 94.5s-68.667 47.834 -113 63.501s-94.5 23.5 -150.5 23.5h-82v51
h82c50.667 0 96.5 7.16699 137.5 21.5s75.5 34.166 103.5 59.499s49.5 54.666 64.5 87.999s22.5 69.333 22.5 108c0 82 -29 150.167 -87 204.5s-138.333 81.5 -241 81.5c-44 0 -84.667 -7.5 -122 -22.5s-70 -35.167 -98 -60.5s-50.5 -54 -67.5 -86
s-26.833 -64.333 -29.5 -97h-51z" />
    <glyph glyph-name="four" unicode="4" horiz-adv-x="942" 
d="M881 328h-154v-328h-51v328h-635v51l625 911h61v-911h154v-51zM676 379v840l-574 -840h574z" />
    <glyph glyph-name="five" unicode="5" 
d="M532 829c53.333 0 104.332 -10.832 152.999 -32.499s91.334 -51.334 128.001 -89.001s65.667 -82 87 -133s32 -105.833 32 -164.5s-11 -113.667 -33 -165s-51.333 -95.833 -88 -133.5s-80 -67.334 -130 -89.001s-103 -32.5 -159 -32.5s-106.833 8.5 -152.5 25.5
s-85.5 40.167 -119.5 69.5s-61.667 63.833 -83 103.5s-36 82.5 -44 128.5h51c8 -38 21.333 -73.667 40 -107s43 -62.666 73 -87.999s64.5 -45.166 103.5 -59.499s82.833 -21.5 131.5 -21.5c49.333 0 95.5 9.5 138.5 28.5s80.833 45.333 113.5 79s58.667 72.667 78 117
s29 92.5 29 144.5c0 50.667 -9.66699 98.5 -29 143.5s-45 84.167 -77 117.5s-68.833 59.5 -110.5 78.5s-85.834 28.5 -132.501 28.5c-61.333 0 -112.833 -10.5 -154.5 -31.5s-75.5 -44.5 -101.5 -70.5c-30 -30 -53.667 -64.333 -71 -103h-51l82 717h604v-51h-564l-61 -563
c20.667 27.333 46.667 52.666 78 75.999c27.333 19.333 60.333 37 99 53s85.334 24 140.001 24z" />
    <glyph glyph-name="six" unicode="6" horiz-adv-x="1013" 
d="M512 -10c-56 0 -108.832 10.835 -158.499 32.502s-93 51.334 -130 89.001s-66.5 82.167 -88.5 133.5s-33 106.333 -33 165c0 44 6.5 86 19.5 126s27.167 75.667 42.5 107c18 36.667 38.333 71.667 61 105l359 542h61l-369 -542c18 15.333 39.333 28.666 64 39.999
c20.667 10.667 45.667 20.167 75 28.5s61.666 12.5 96.999 12.5c56 0 108.833 -10.833 158.5 -32.5s93 -51.334 130 -89.001s66.5 -82 88.5 -133s33 -105.833 33 -164.5s-11 -113.667 -33 -165s-51.5 -95.833 -88.5 -133.5s-80.333 -67.334 -130 -89.001
s-102.5 -32.5 -158.5 -32.5zM154.001 410.002c0 -52 9.5 -100.167 28.5 -144.5s44.833 -83.333 77.5 -117s70.5 -60 113.5 -79s89.167 -28.5 138.5 -28.5s95.5 9.5 138.5 28.5s80.833 45.333 113.5 79s58.5 72.667 77.5 117s28.5 92.5 28.5 144.5
c0 50.667 -9.5 98.5 -28.5 143.5s-44.833 84.167 -77.5 117.5s-70.5 59.5 -113.5 78.5s-89.167 28.5 -138.5 28.5s-95.5 -9.5 -138.5 -28.5s-80.833 -45.167 -113.5 -78.5s-58.5 -72.5 -77.5 -117.5s-28.5 -92.833 -28.5 -143.5z" />
    <glyph glyph-name="seven" unicode="7" horiz-adv-x="849" 
d="M799 1290v-51l-566 -1239h-59l574 1239h-687v51h738z" />
    <glyph glyph-name="eight" unicode="8" 
d="M512 -10c-58.667 0 -112.665 9.5 -161.998 28.5s-91.333 44.833 -126 77.5s-61.834 70.5 -81.501 113.5s-29.5 89.167 -29.5 138.5c0 69.333 15 126 45 170s62.667 78.333 98 103c42 28.667 89.667 50.334 143 65.001c-44 12 -83.333 30.333 -118 55
c-30 22 -57 52.5 -81 91.5s-36 89.167 -36 150.5c0 44 8.5 85 25.5 123s40.833 71.333 71.5 100s67.167 51.5 109.5 68.5s89.5 25.5 141.5 25.5c50.667 0 97.5 -8.5 140.5 -25.5s79.833 -39.833 110.5 -68.5s54.5 -62 71.5 -100s25.5 -79 25.5 -123
c0 -61.333 -12.333 -111.5 -37 -150.5s-52 -69.5 -82 -91.5c-35.333 -24.667 -74 -43 -116 -55c53.333 -15.333 101 -37 143 -65c35.333 -24.667 68 -58.834 98 -102.501s45 -100.5 45 -170.5c0 -49.333 -9.83301 -95.5 -29.5 -138.5s-46.834 -80.833 -81.501 -113.5
s-76.667 -58.5 -126 -77.5s-103.333 -28.5 -162 -28.5zM512.002 655c-52 0 -99.167 -8.16602 -141.5 -24.499s-78.833 -38.833 -109.5 -67.5s-54.5 -61.334 -71.5 -98.001s-25.5 -75.667 -25.5 -117c0 -40.667 8.5 -79.5 25.5 -116.5s40.833 -69.833 71.5 -98.5
s67.167 -51.167 109.5 -67.5s89.5 -24.5 141.5 -24.5c50.667 0 97.5 8.16699 140.5 24.5s79.833 38.833 110.5 67.5s54.5 61.5 71.5 98.5s25.5 75.833 25.5 116.5s-8.5 79.5 -25.5 116.5s-40.833 69.833 -71.5 98.5s-67.5 51.167 -110.5 67.5s-89.833 24.5 -140.5 24.5z
M512.002 1249c-44 0 -84 -7.16699 -120 -21.5s-67.333 -33.666 -94 -57.999s-47.167 -52.666 -61.5 -84.999s-21.5 -66.166 -21.5 -101.499c0 -38 7.16699 -73.833 21.5 -107.5s34.833 -63 61.5 -88s58 -44.667 94 -59s76 -21.5 120 -21.5s84 7.16699 120 21.5
s67.333 34 94 59s47.167 54.333 61.5 88s21.5 69.5 21.5 107.5c0 35.333 -7.16699 69.166 -21.5 101.499s-34.833 60.666 -61.5 84.999s-58 43.666 -94 57.999s-76 21.5 -120 21.5z" />
    <glyph glyph-name="nine" unicode="9" horiz-adv-x="1013" 
d="M502 1300c56 0 108.832 -10.834 158.499 -32.501s93 -51.334 130 -89.001s66.333 -82 88 -133s32.5 -105.833 32.5 -164.5c0 -44 -6.5 -86.167 -19.5 -126.5s-26.833 -76.166 -41.5 -107.499c-18 -36.667 -38.667 -71.334 -62 -104.001l-358 -543h-61l368 543
c-18 -15.333 -39 -29 -63 -41c-20.667 -10.667 -45.667 -20.167 -75 -28.5s-61.666 -12.5 -96.999 -12.5c-56 0 -109 10.833 -159 32.5s-93.333 51.334 -130 89.001s-66 82.167 -88 133.5s-33 106.333 -33 165s11 113.5 33 164.5s51.333 95.333 88 133s80 67.334 130 89.001
s103 32.5 159 32.5zM859.999 880.999c0 50.667 -9.5 98.499 -28.5 143.499s-44.833 84.167 -77.5 117.5s-70.667 59.5 -114 78.5s-89.333 28.5 -138 28.5c-49.333 0 -95.5 -9.5 -138.5 -28.5s-80.833 -45.167 -113.5 -78.5s-58.667 -72.666 -78 -117.999s-29 -93 -29 -143
c0 -52 9.66699 -100.167 29 -144.5s45.333 -83.333 78 -117s70.5 -60 113.5 -79s89.167 -28.5 138.5 -28.5s95.5 9.5 138.5 28.5s80.833 45.333 113.5 79s58.5 72.667 77.5 117s28.5 92.5 28.5 144.5z" />
    <glyph glyph-name="colon" unicode=":" horiz-adv-x="337" 
d="M215 45c0 -12 -4.5 -22.5 -13.5 -31.5s-20.167 -13.5 -33.5 -13.5c-12 0 -22.5 4.5 -31.5 13.5s-13.5 19.5 -13.5 31.5c0 13.333 4.5 24.5 13.5 33.5s19.5 13.5 31.5 13.5c13.333 0 24.5 -4.5 33.5 -13.5s13.5 -20.167 13.5 -33.5zM215 854c0 -12 -4.5 -22.5 -13.5 -31.5
s-20.167 -13.5 -33.5 -13.5c-12 0 -22.5 4.5 -31.5 13.5s-13.5 19.5 -13.5 31.5c0 13.333 4.5 24.5 13.5 33.5s19.5 13.5 31.5 13.5c13.333 0 24.5 -4.5 33.5 -13.5s13.5 -20.167 13.5 -33.5z" />
    <glyph glyph-name="semicolon" unicode=";" horiz-adv-x="337" 
d="M215 854c0 -12 -4.5 -22.5 -13.5 -31.5s-20.167 -13.5 -33.5 -13.5c-12 0 -22.5 4.5 -31.5 13.5s-13.5 19.5 -13.5 31.5c0 13.333 4.5 24.5 13.5 33.5s19.5 13.5 31.5 13.5c13.333 0 24.5 -4.5 33.5 -13.5s13.5 -20.167 13.5 -33.5zM123 45
c0 13.333 4.50293 24.501 13.5029 33.501s19.5 13.5 31.5 13.5c13.333 0 24.5 -4.83301 33.5 -14.5s13.5 -23.834 13.5 -42.501c0 -30 -5.83301 -57.333 -17.5 -82s-24.834 -46.667 -39.501 -66c-16.667 -22 -35.334 -42.333 -56.001 -61l-10 10
c13.333 15.333 25.666 31 36.999 47c9.33301 15.333 17.833 32.833 25.5 52.5s12.167 41.167 13.5 64.5c-12 0 -22.5 4.5 -31.5 13.5s-13.5 19.5 -13.5 31.5z" />
    <glyph glyph-name="less" unicode="&#x3c;" horiz-adv-x="870" 
d="M133 451l655 -359v-51l-706 389v41l706 389v-51z" />
    <glyph glyph-name="equal" unicode="=" horiz-adv-x="880" 
d="M61 358h758v-51h-758v51zM819 737v-51h-758v51h758z" />
    <glyph glyph-name="greater" unicode="&#x3e;" horiz-adv-x="870" 
d="M82 809v51l706 -389v-41l-706 -389v51l655 359z" />
    <glyph glyph-name="question" unicode="?" horiz-adv-x="870" 
d="M768 983c0 -54.667 -8.17285 -100.825 -24.5059 -138.492s-36.5 -70.834 -60.5 -99.501s-50.333 -55.167 -79 -79.5s-55 -50.833 -79 -79.5s-44.167 -61.834 -60.5 -99.501s-24.5 -83.834 -24.5 -138.501v-20h-51v20c0 57.333 8.16699 106.166 24.5 146.499
s36.5 75.5 60.5 105.5s50.333 57 79 81s55 50 79 78s44.167 59.333 60.5 94s24.5 78 24.5 130c0 35.333 -7.16699 69.166 -21.5 101.499s-34.166 60.666 -59.499 84.999s-54.666 43.666 -87.999 57.999s-69.333 21.5 -108 21.5c-39.333 0 -77.166 -7.83301 -113.499 -23.5
s-68.166 -37.167 -95.499 -64.5s-48.833 -59.666 -64.5 -96.999s-23.5 -78 -23.5 -122v-41h-51v41c0 50.667 8.83301 98.167 26.5 142.5s42.334 82.166 74.001 113.499s68.667 56.166 111 74.499s87.833 27.5 136.5 27.5c46.667 0 89.834 -8.5 129.501 -25.5
s74.167 -39.833 103.5 -68.5s52.5 -62 69.5 -100s25.5 -79 25.5 -123zM460.994 45.0088c0 -12 -4.50098 -22.5 -13.501 -31.5s-20.167 -13.5 -33.5 -13.5c-12 0 -22.5 4.5 -31.5 13.5s-13.5 19.5 -13.5 31.5c0 13.333 4.33301 24.5 13 33.5s19.334 13.5 32.001 13.5
c13.333 0 24.5 -4.5 33.5 -13.5s13.5 -20.167 13.5 -33.5z" />
    <glyph glyph-name="at" unicode="@" horiz-adv-x="1536" 
d="M1014 297c-15.333 -30 -35.335 -57.3359 -60.002 -82.0029c-20.667 -20.667 -47 -39.5 -79 -56.5s-71 -25.5 -117 -25.5c-44 0 -84.667 7.83301 -122 23.5s-69.666 37.834 -96.999 66.501s-48.833 63.167 -64.5 103.5s-23.5 85.166 -23.5 134.499s7.83301 94 23.5 134
s37.167 74.333 64.5 103s59.666 50.834 96.999 66.501s78 23.5 122 23.5c46.667 0 86 -8.5 118 -25.5s58.167 -35.667 78.5 -56s35.5 -39.166 45.5 -56.499l14 -27h10l10 155h31v-409c0 -57.333 15.333 -102.5 46 -135.5s66.667 -49.5 108 -49.5
c23.333 0 45.833 5.83301 67.5 17.5s41.334 29.834 59.001 54.501s31.667 55.334 42 92.001s15.5 81 15.5 133c0 82 -15.667 159.167 -47 231.5s-74.666 135.166 -129.999 188.499s-120.166 95.666 -194.499 126.999s-155.5 47 -243.5 47
c-87.333 0 -169.5 -16.667 -246.5 -50s-144.167 -78 -201.5 -134s-102.666 -121.167 -135.999 -195.5s-50 -152.5 -50 -234.5s16.667 -160.167 50 -234.5s78.666 -139.5 135.999 -195.5s124.5 -100.833 201.5 -134.5s159.167 -50.5 246.5 -50.5
c44 0 85.167 5.16699 123.5 15.5s71.833 22.5 100.5 36.5c34 15.333 65.333 32.333 94 51l31 -41c-30 -22 -63.667 -41.333 -101 -58c-31.333 -15.333 -68.5 -28.333 -111.5 -39s-88.5 -16 -136.5 -16c-94 0 -182.667 17.833 -266 53.5s-156 83.834 -218 144.501
s-111.167 131.334 -147.5 212.001s-54.5 166 -54.5 256s18.167 175.333 54.5 256s85.5 151.334 147.5 212.001s134.667 108.667 218 144s172 53 266 53s181.833 -16.667 263.5 -50s152.167 -79.333 211.5 -138s106 -127 140 -205s51 -162 51 -252
c0 -58.667 -6.5 -109.834 -19.5 -153.501s-30.333 -79.834 -52 -108.501s-46.834 -50.167 -75.501 -64.5s-58 -21.5 -88 -21.5c-39.333 0 -71.5 8.5 -96.5 25.5s-44.833 35.833 -59.5 56.5c-16.667 24.667 -29.667 52 -39 82h-10zM501.998 460.997
c0 -40.667 6.5 -78.167 19.5 -112.5s31 -63.5 54 -87.5s50.333 -42.833 82 -56.5s65.167 -20.5 100.5 -20.5s68.666 6.83301 99.999 20.5s58.666 32.5 81.999 56.5s41.5 53 54.5 87s19.5 71.667 19.5 113c0 40.667 -6.5 78.167 -19.5 112.5s-31.167 63.333 -54.5 87
s-50.666 42.334 -81.999 56.001s-64.666 20.5 -99.999 20.5s-68.833 -6.83301 -100.5 -20.5s-59 -32.334 -82 -56.001s-41 -52.667 -54 -87s-19.5 -71.833 -19.5 -112.5z" />
    <glyph glyph-name="A" unicode="A" horiz-adv-x="1146" 
d="M553 1290h41l491 -1290h-51l-133 358h-655l-133 -358h-52zM266 410h615l-308 798z" />
    <glyph glyph-name="B" unicode="B" horiz-adv-x="1136" 
d="M739 696c52 -15.333 99.333 -37.001 142 -65.001c35.333 -24.667 68 -58.834 98 -102.501s45 -100.5 45 -170.5c0 -49.333 -9.5 -95.333 -28.5 -138s-46 -80.5 -81 -113.5s-76.333 -59 -124 -78s-99.5 -28.5 -155.5 -28.5h-451v1290h430c50.667 0 97.5 -8.5 140.5 -25.5
s79.833 -39.833 110.5 -68.5s54.667 -62.167 72 -100.5s26 -79.166 26 -122.499c0 -54.667 -12 -99.5 -36 -134.5s-49.667 -63.167 -77 -84.5c-33.333 -25.333 -70.333 -44.666 -111 -57.999zM236 665.999v-615.001h399c49.333 0 94.333 8.16699 135 24.5
s76.167 38.833 106.5 67.5s54 61.5 71 98.5s25.5 75.833 25.5 116.5s-8.5 79.5 -25.5 116.5s-40.667 69.833 -71 98.5s-65.833 51.334 -106.5 68.001s-85.667 25 -135 25h-399zM236 716.998l378 -0.000976562c44 0 84 7.16699 120 21.5s67.333 33 94 56
s47.167 50.333 61.5 82s21.5 63.834 21.5 96.501c0 35.333 -7.16699 69 -21.5 101s-34.833 60.333 -61.5 85s-58 44.167 -94 58.5s-76 21.5 -120 21.5h-378v-522z" />
    <glyph glyph-name="C" unicode="C" horiz-adv-x="1310" 
d="M686 1249c-66.667 0 -131.497 -15.002 -194.497 -45.002s-118.667 -72 -167 -126s-87.166 -117.833 -116.499 -191.5s-44 -154.167 -44 -241.5s14.667 -167.833 44 -241.5s68.166 -137.5 116.499 -191.5s104 -96 167 -126s127.833 -45 194.5 -45
c117.333 0 215 34.833 293 104.5s137.333 161.167 178 274.5h51c-20.667 -64 -47 -122.333 -79 -175s-69.833 -98.167 -113.5 -136.5s-92.834 -67.666 -147.501 -87.999s-115.334 -30.5 -182.001 -30.5c-74 0 -145.333 16.333 -214 49s-129.667 78 -183 136
s-96 127.333 -128 208s-48 168 -48 262s16 181.333 48 262s74.667 150 128 208s114.333 103.333 183 136s140 49 214 49c66.667 0 127.334 -10.167 182.001 -30.5s103.5 -49.666 146.5 -87.999s79.833 -83.666 110.5 -135.999s55 -110.833 73 -175.5h-51
c-18 56 -41 107.333 -69 154s-61.333 86.667 -100 120s-82.334 59.166 -131.001 77.499s-102.334 27.5 -161.001 27.5z" />
    <glyph glyph-name="D" unicode="D" horiz-adv-x="1198" 
d="M451 51c82 0 158.332 15.002 228.999 45.002s132.334 71.667 185.001 125s94 116.166 124 188.499s45 150.833 45 235.5s-15 163.167 -45 235.5s-71.333 135.166 -124 188.499s-114.5 95 -185.5 125s-147.167 45 -228.5 45h-215v-1188h215zM1085 645.002
c0 -92.667 -16.333 -178.335 -49 -257.002s-77.334 -146.667 -134.001 -204s-123.5 -102.333 -200.5 -135s-160.5 -49 -250.5 -49h-267v1290h267c90 0 173.5 -16.333 250.5 -49s143.833 -77.667 200.5 -135s101.334 -125.666 134.001 -204.999s49 -164.666 49 -255.999z" />
    <glyph glyph-name="E" unicode="E" horiz-adv-x="1054" 
d="M952 51v-51h-768v1290h748v-51h-696v-543h645v-51h-645v-594h716z" />
    <glyph glyph-name="F" unicode="F" horiz-adv-x="972" 
d="M184 0v1290h727v-51h-675v-563h563v-51h-563v-625h-52z" />
    <glyph glyph-name="G" unicode="G" horiz-adv-x="1361" 
d="M727 604l480.999 0.000976562v-604h-41l-10 328c-27.333 -64 -63.333 -120.667 -108 -170c-38 -42 -86.833 -80.5 -146.5 -115.5s-131.834 -52.5 -216.501 -52.5c-74 0 -145.333 16.333 -214 49s-129.667 78 -183 136s-96 127.333 -128 208s-48 168 -48 262
s16 181.333 48 262s74.667 150 128 208s114.333 103.333 183 136s140 49 214 49c64 0 122.333 -9.5 175 -28.5s99.5 -45.5 140.5 -79.5s76.167 -74.333 105.5 -121s53 -96.334 71 -149.001h-52c-18 46.667 -40.5 89.667 -67.5 129s-58.667 73.666 -95 102.999
s-77.666 52.5 -123.999 69.5s-97.5 25.5 -153.5 25.5c-66.667 0 -131.5 -15 -194.5 -45s-118.667 -72 -167 -126s-87.166 -117.833 -116.499 -191.5s-44 -154.167 -44 -241.5s14.667 -167.833 44 -241.5s68.166 -137.5 116.499 -191.5s104 -96 167 -126
s127.833 -45 194.5 -45c61.333 0 120.333 13.333 177 40s106.834 62.834 150.501 108.501s78.5 99.5 104.5 161.5s39 129.333 39 202h-430v51z" />
    <glyph glyph-name="H" unicode="H" horiz-adv-x="1218" 
d="M236 1290v-604h747v604h51v-1290h-51v635h-747v-635h-52v1290h52z" />
    <glyph glyph-name="I" unicode="I" horiz-adv-x="419" 
d="M236 0h-52v1290h52v-1290z" />
    <glyph glyph-name="J" unicode="J" horiz-adv-x="983" 
d="M809 1290v-870.001c0 -139.333 -34.833 -245.833 -104.5 -319.5s-161.167 -110.5 -274.5 -110.5c-53.333 0 -102.5 8.83301 -147.5 26.5s-83.833 41.834 -116.5 72.501s-58.334 66.5 -77.001 107.5s-28 84.833 -28 131.5h52c0 -38 7.83301 -74.5 23.5 -109.5
s37.5 -65.5 65.5 -91.5s61.333 -46.833 100 -62.5s81.334 -23.5 128.001 -23.5c98 0 177.167 32 237.5 96s90.5 158.333 90.5 283v870h51z" />
    <glyph glyph-name="K" unicode="K" horiz-adv-x="972" 
d="M236 655v-655h-52v1290h52v-635l624 635h72l-635 -635l655 -655h-71z" />
    <glyph glyph-name="L" unicode="L" horiz-adv-x="942" 
d="M901 51v-51h-717v1290h52v-1239h665z" />
    <glyph glyph-name="M" unicode="M" horiz-adv-x="1515" 
d="M1270 1290h61v-1290h-51v1198l-502 -1198h-41l-501 1198v-1198h-52v1290h62l512 -1218z" />
    <glyph glyph-name="N" unicode="N" horiz-adv-x="1228" 
d="M1044 1290v-1290h-40l-768 1188v-1188h-52v1290h41l768 -1188v1188h51z" />
    <glyph glyph-name="O" unicode="O" horiz-adv-x="1372" 
d="M1208 645c0 87.333 -14.667 167.833 -44 241.5s-68.166 137.5 -116.499 191.5s-104 96 -167 126s-127.833 45 -194.5 45s-131.5 -15 -194.5 -45s-118.667 -72 -167 -126s-87.166 -117.833 -116.499 -191.5s-44 -154.167 -44 -241.5s14.667 -167.833 44 -241.5
s68.166 -137.5 116.499 -191.5s104 -96 167 -126s127.833 -45 194.5 -45s131.5 15 194.5 45s118.667 72 167 126s87.166 117.833 116.499 191.5s44 154.167 44 241.5zM1260 645c0 -94 -16.167 -181.333 -48.5 -262s-75 -150 -128 -208s-114 -103.333 -183 -136
s-140.5 -49 -214.5 -49s-145.333 16.333 -214 49s-129.667 78 -183 136s-96 127.333 -128 208s-48 168 -48 262s16 181.333 48 262s74.667 150 128 208s114.333 103.333 183 136s140 49 214 49s145.5 -16.333 214.5 -49s130 -78 183 -136s95.667 -127.333 128 -208
s48.5 -168 48.5 -262z" />
    <glyph glyph-name="P" unicode="P" horiz-adv-x="1064" 
d="M573 1290c56 0 108 -9.50293 156 -28.5029s89.333 -45.667 124 -80s61.667 -74.666 81 -120.999s29 -96.166 29 -149.499s-9.66699 -103.166 -29 -149.499s-46.333 -86.5 -81 -120.5s-76 -60.667 -124 -80s-100 -29 -156 -29h-337v-532h-52v1290h389zM573 583.997
c49.333 0 94.5 8.49902 135.5 25.499s76.5 40.167 106.5 69.5s53.5 63.833 70.5 103.5s25.5 82.5 25.5 128.5c0 46.667 -8.5 89.834 -25.5 129.501s-40.5 74.167 -70.5 103.5s-65.5 52.5 -106.5 69.5s-86.167 25.5 -135.5 25.5h-337v-655h337z" />
    <glyph glyph-name="Q" unicode="Q" horiz-adv-x="1372" 
d="M1044 133c-28.667 -27.333 -61.3359 -51.333 -98.0029 -72c-31.333 -19.333 -69.166 -36 -113.499 -50s-93.166 -21 -146.499 -21c-74 0 -145.333 16.333 -214 49s-129.667 78 -183 136s-96 127.333 -128 208s-48 168 -48 262s16 181.333 48 262s74.667 150 128 208
s114.333 103.333 183 136s140 49 214 49s145.5 -16.333 214.5 -49s130 -78 183 -136s95.667 -127.333 128 -208s48.5 -168 48.5 -262c0 -78 -9.66699 -146.667 -29 -206s-40.666 -109.333 -63.999 -150c-27.333 -48 -58 -89.667 -92 -125l205 -195l-31 -30zM163.998 645
c0 -87.333 14.666 -167.832 43.999 -241.499s68.166 -137.5 116.499 -191.5s104 -96 167 -126s127.833 -45 194.5 -45c48 0 92.5 6.83301 133.5 20.5s75.833 28.5 104.5 44.5c34 19.333 64 42 90 68l-185 174l31 31l184 -174c30 31.333 57.333 68.666 82 111.999
c20.667 36.667 39.5 82.5 56.5 137.5s25.5 118.5 25.5 190.5c0 87.333 -14.667 167.833 -44 241.5s-68.166 137.5 -116.499 191.5s-104 96 -167 126s-127.833 45 -194.5 45s-131.5 -15 -194.5 -45s-118.667 -72 -167 -126s-87.166 -117.833 -116.499 -191.5
s-44 -154.167 -44 -241.5z" />
    <glyph glyph-name="R" unicode="R" horiz-adv-x="1116" 
d="M236 625l386.998 0.00195312c46.667 0 89.334 7.83301 128.001 23.5s72.334 37.167 101.001 64.5s50.834 59.666 66.501 96.999s23.5 78 23.5 122s-7.83301 84.667 -23.5 122s-37.834 69.666 -66.501 96.999s-62.5 48.833 -101.5 64.5s-81.5 23.5 -127.5 23.5h-387v-614z
M1024 0.00195312l-61 -0.00390625l-338 573h-389v-573h-52v1290h439c54.667 0 104.5 -9.16699 149.5 -27.5s83.833 -43.166 116.5 -74.499s58.167 -69.166 76.5 -113.499s27.5 -91.833 27.5 -142.5c0 -49.333 -7.83301 -94.166 -23.5 -134.499s-37.5 -75.5 -65.5 -105.5
s-61.5 -54.167 -100.5 -72.5s-81.5 -30.166 -127.5 -35.499z" />
    <glyph glyph-name="S" unicode="S" 
d="M133 983c0 44 8.50293 84.998 25.5029 122.998s42 71.333 75 100s73 51.5 120 68.5s99.833 25.5 158.5 25.5c50.667 0 98.167 -8.83301 142.5 -26.5s83.166 -41.834 116.499 -72.501s60.333 -66.5 81 -107.5s33.667 -84.5 39 -130.5h-51
c-5.33301 38 -17.333 74.333 -36 109s-42.334 65 -71.001 91s-61.667 46.833 -99 62.5s-78 23.5 -122 23.5c-52 0 -98.167 -7.16699 -138.5 -21.5s-74.5 -33.666 -102.5 -57.999s-49.5 -52.666 -64.5 -84.999s-22.5 -66.166 -22.5 -101.499c0 -48 10.667 -87 32 -117
s48.666 -55.167 81.999 -75.5s71.833 -37.333 115.5 -51l134 -40c45.667 -13 90.5 -27.667 134.5 -44s82.667 -37.5 116 -63.5s60.5 -58.5 81.5 -97.5s31.5 -87.833 31.5 -146.5c0 -52 -9.16699 -99.833 -27.5 -143.5s-45.166 -81.167 -80.499 -112.5
s-78.333 -56.166 -129 -74.499s-108 -27.5 -172 -27.5c-58.667 0 -112.334 9.16699 -161.001 27.5s-90.334 43.166 -125.001 74.499s-62.667 68.833 -84 112.5s-34.666 91.5 -39.999 143.5h51c5.33301 -44 17.333 -84.667 36 -122s43.334 -69.666 74.001 -96.999
s66.834 -48.833 108.501 -64.5s88.5 -23.5 140.5 -23.5c56 0 106.167 7.83301 150.5 23.5s81.833 37.167 112.5 64.5s54.167 59.833 70.5 97.5s24.5 78.167 24.5 121.5c0 52 -10.5 95.333 -31.5 130s-48.333 63.334 -82 86.001s-72.334 41.5 -116.001 56.5
s-88.334 29 -134.001 42s-90.334 27 -134.001 42s-82.167 34.167 -115.5 57.5s-60.666 52.666 -81.999 87.999s-32 79.666 -32 132.999z" />
    <glyph glyph-name="T" unicode="T" horiz-adv-x="993" 
d="M932 1239h-410v-1239h-51v1239h-410v51h871v-51z" />
    <glyph glyph-name="U" unicode="U" horiz-adv-x="1249" 
d="M625 -10c-66.667 0 -127.832 11.167 -183.499 33.5s-103.167 55 -142.5 98s-70 95.667 -92 158s-33 133.166 -33 212.499v798h51v-798c0 -72.667 10 -136.667 30 -192s47.333 -102.5 82 -141.5s76.667 -68.333 126 -88s103.333 -29.5 162 -29.5s112.5 9.83301 161.5 29.5
s91 49 126 88s62.333 86.167 82 141.5s29.5 119.333 29.5 192v798h51v-798c0 -79.333 -10.833 -150.166 -32.5 -212.499s-52.334 -115 -92.001 -158s-87.167 -75.667 -142.5 -98s-116.333 -33.5 -183 -33.5z" />
    <glyph glyph-name="V" unicode="V" horiz-adv-x="1126" 
d="M584 0h-41l-482 1290h52l450 -1208l451 1208h51z" />
    <glyph glyph-name="W" unicode="W" horiz-adv-x="1638" 
d="M840 1290l338 -1188l338 1188h51l-369 -1290h-41l-338 1178l-338 -1178h-41l-368 1290h51l338 -1188l338 1188h41z" />
    <glyph glyph-name="X" unicode="X" 
d="M72 1290h61l379 -594l379 594h61l-409 -635l420 -655h-62l-389 614l-389 -614h-62l420 655z" />
    <glyph glyph-name="Y" unicode="Y" horiz-adv-x="1054" 
d="M61 1290h62l399 -706h10l400 706h61l-440 -768v-522h-51v522z" />
    <glyph glyph-name="Z" unicode="Z" horiz-adv-x="983" 
d="M113 1290h788v-30l-747 -1209h747v-51h-819v31l747 1208h-716v51z" />
    <glyph glyph-name="bracketleft" unicode="[" horiz-adv-x="573" 
d="M256 -317h256v-52h-307v1659h307v-51h-256v-1556z" />
    <glyph glyph-name="backslash" unicode="\" horiz-adv-x="583" 
d="M0 1290h51l533 -1659h-52z" />
    <glyph glyph-name="bracketright" unicode="]" horiz-adv-x="573" 
d="M317 1239h-256v51h308v-1659h-308v52h256v1556z" />
    <glyph glyph-name="asciicircum" unicode="^" horiz-adv-x="798" 
d="M645 696l-246 512l-245 -512h-52l277 574h41l276 -574h-51z" />
    <glyph glyph-name="underscore" unicode="_" horiz-adv-x="563" 
d="M604 -297h-645v51h645v-51z" />
    <glyph glyph-name="grave" unicode="`" horiz-adv-x="327" 
d="M266 1044h-30l-175 246h82z" />
    <glyph glyph-name="a" unicode="a" horiz-adv-x="911" 
d="M410 41c44 0 85.001 7.83105 123.001 23.498s71.333 37.834 100 66.501s51.5 63.167 68.5 103.5s25.5 85.166 25.5 134.499v102h-102c-94 0 -172.167 -6.16699 -234.5 -18.5s-112 -28.666 -149 -48.999s-62.667 -44.166 -77 -71.499s-21.5 -56 -21.5 -86
c0 -57.333 22.667 -105.833 68 -145.5s111.666 -59.5 198.999 -59.5zM461.001 910.998c46.667 0 89.335 -7.8291 128.002 -23.4961s72 -37.834 100 -66.501s49.833 -63.167 65.5 -103.5s23.5 -84.833 23.5 -133.5v-584h-41l-10 184h-10
c-18 -36.667 -41.333 -69.334 -70 -98.001c-24.667 -24.667 -56 -46.834 -94 -66.501s-85.667 -29.5 -143 -29.5c-102.667 0 -181.334 24.5 -236.001 73.5s-82 109.833 -82 182.5c0 38 8.5 73.667 25.5 107s46 62.666 87 87.999s95.667 45.166 164 59.499
s153.833 21.5 256.5 21.5h102v62c0 40.667 -6.83301 78.167 -20.5 112.5s-32.167 63.333 -55.5 87s-51.333 42.334 -84 56.001s-68 20.5 -106 20.5c-78 0 -138.5 -18.667 -181.5 -56s-74.833 -87 -95.5 -149h-51c15.333 72.667 50.666 133.5 105.999 182.5
s129.333 73.5 222 73.5z" />
    <glyph glyph-name="b" unicode="b" horiz-adv-x="1085" 
d="M154 1290l50.999 0.000976562v-624h10l21 38c13.333 26 34.333 54.5 63 85.5s65.5 59 110.5 84s99.5 37.5 163.5 37.5c56 0 109.667 -11.5 161 -34.5s96.166 -55 134.499 -96s68.666 -89.5 90.999 -145.5s33.5 -117.333 33.5 -184s-11.167 -128.167 -33.5 -184.5
s-52.666 -105 -90.999 -146s-83.166 -73 -134.499 -96s-105 -34.5 -161 -34.5c-65.333 0 -120.166 12.667 -164.499 38s-80.833 53.666 -109.5 84.999c-34 35.333 -62 76.333 -84 123h-10l-10 -236h-41v1290zM941.999 451.001c0 58.667 -10.167 112.834 -30.5 162.501
s-47.333 93 -81 130s-72.667 65.667 -117 86s-91.166 30.5 -140.499 30.5s-96 -10.167 -140 -30.5s-82.833 -49 -116.5 -86s-60.667 -80.333 -81 -130s-30.5 -103.834 -30.5 -162.501s10.167 -113 30.5 -163s47.333 -93.5 81 -130.5s72.667 -65.667 117 -86
s90.833 -30.5 139.5 -30.5c49.333 0 96.166 10.167 140.499 30.5s83.333 49 117 86s60.667 80.5 81 130.5s30.5 104.333 30.5 163z" />
    <glyph glyph-name="c" unicode="c" horiz-adv-x="972" 
d="M512 860c-49.333 0 -96.166 -10.1631 -140.499 -30.4961s-83.166 -49 -116.499 -86s-60.333 -80.333 -81 -130s-31 -103.834 -31 -162.501s10.333 -113 31 -163s47.667 -93.5 81 -130.5s72.166 -65.667 116.499 -86s91.166 -30.5 140.499 -30.5
c40.667 0 78.834 7.16699 114.501 21.5s67.5 32.833 95.5 55.5s51.833 48.667 71.5 78s35.167 59.666 46.5 90.999h51c-8 -35.333 -23 -70.833 -45 -106.5s-49.667 -67.5 -83 -95.5s-71.166 -50.833 -113.499 -68.5s-88.166 -26.5 -137.499 -26.5
c-56 0 -109.667 11.5 -161 34.5s-96 55 -134 96s-68.333 89.5 -91 145.5s-34 117.667 -34 185c0 66.667 11.333 128 34 184s53 104.5 91 145.5s82.667 73 134 96s105 34.5 161 34.5c49.333 0 95.166 -8.83301 137.499 -26.5s80.166 -40.834 113.499 -69.501
s61 -61.334 83 -98.001s37 -74.334 45 -113.001h-51c-10.667 32.667 -26 64.834 -46 96.501s-44 59 -72 82s-59.833 41.667 -95.5 56s-73.834 21.5 -114.501 21.5z" />
    <glyph glyph-name="d" unicode="d" horiz-adv-x="1085" 
d="M932 0l-41 -0.000976562l-10 236h-11c-22 -46.667 -50 -87.667 -84 -123c-28.667 -31.333 -65.5 -59.666 -110.5 -84.999s-99.5 -38 -163.5 -38c-56 0 -109.667 11.5 -161 34.5s-96 55 -134 96s-68.333 89.5 -91 145.5s-34 117.667 -34 185c0 66.667 11.333 128 34 184
s53 104.5 91 145.5s82.667 73 134 96s105 34.5 161 34.5c64 0 118.5 -12.5 163.5 -37.5s81.833 -53 110.5 -84s50 -59.5 64 -85.5l20 -38h11v624h51v-1290zM143 450.999c0 -58.667 10.333 -113 31 -163s47.667 -93.5 81 -130.5s72.166 -65.667 116.499 -86
s91.166 -30.5 140.499 -30.5s96.166 10.167 140.499 30.5s83.166 49 116.499 86s60.333 80.333 81 130s31 104.167 31 163.5c0 58.667 -10.333 112.834 -31 162.501s-47.667 93 -81 130s-72.166 65.667 -116.499 86s-91.166 30.5 -140.499 30.5
s-96.166 -10.167 -140.499 -30.5s-83.166 -49 -116.499 -86s-60.333 -80.333 -81 -130s-31 -103.834 -31 -162.501z" />
    <glyph glyph-name="e" unicode="e" horiz-adv-x="1003" 
d="M881 215c-12 -26 -28.9961 -52.3301 -50.9961 -78.9971s-48 -50.834 -78 -72.501s-64.167 -39.334 -102.5 -53.001s-80.833 -20.5 -127.5 -20.5c-58.667 0 -114.334 11.5 -167.001 34.5s-98.334 55 -137.001 96s-69.334 89.5 -92.001 145.5s-34 117.667 -34 185
c0 66.667 11.333 128 34 184s53 104.5 91 145.5s82.667 73 134 96s105 34.5 161 34.5c53.333 0 104.166 -10.833 152.499 -32.5s91 -51.334 128 -89.001s66 -82 87 -133s31.5 -105.833 31.5 -164.5c0 -8 -0.666992 -15.5 -2 -22.5l-4 -20.5
c-1.33301 -6.66699 -2.66602 -13 -3.99902 -19h-758c5.33301 -58.667 18.333 -111.834 39 -159.501s47.667 -88.667 81 -123s71.833 -60.666 115.5 -78.999s91.5 -27.5 143.5 -27.5c38 0 73.167 5.83301 105.5 17.5s61.166 26 86.499 43s47.833 35.667 67.5 56
s35.5 39.5 47.5 57.5h52zM512.004 860.003c-49.333 0 -95.166 -9.5 -137.499 -28.5s-79.833 -45.667 -112.5 -80s-59.167 -74.666 -79.5 -120.999s-33.5 -96.166 -39.5 -149.499h717c0 53.333 -9.5 103.166 -28.5 149.499s-44.5 86.666 -76.5 120.999s-68.833 61 -110.5 80
s-85.834 28.5 -132.501 28.5z" />
    <glyph glyph-name="f" unicode="f" horiz-adv-x="522" 
d="M492 850h-236.001v-850h-51v850h-164v51h164v164c0 72.667 20.833 130 62.5 172s95.834 63 162.501 63c10.667 0 20.167 -0.666992 28.5 -2s15.833 -2.66602 22.5 -3.99902l21 -4v-51l-21 4c-6.66699 1.33301 -14.167 2.66602 -22.5 3.99902s-17.833 2 -28.5 2
c-52 0 -94 -16.333 -126 -49s-48 -77.667 -48 -135v-164h236v-51z" />
    <glyph glyph-name="g" unicode="g" horiz-adv-x="1034" 
d="M195 -72c20.667 -66.667 56.1689 -120.831 106.502 -162.498s123.833 -62.5 220.5 -62.5c44 0 85 8.5 123 25.5s71.333 40.5 100 70.5s51.667 65.5 69 106.5s26 86.167 26 135.5v215h-11c-20.667 -42 -47 -79.667 -79 -113c-27.333 -28.667 -62.5 -54.5 -105.5 -77.5
s-93.833 -34.5 -152.5 -34.5c-53.333 0 -104.333 10.833 -153 32.5s-91.334 52 -128.001 91s-65.667 85.5 -87 139.5s-32 113 -32 177s10.667 123 32 177s50.333 100.5 87 139.5s79.334 69.333 128.001 91s99.667 32.5 153 32.5c61.333 0 113.166 -11.833 155.499 -35.5
s77.166 -49.167 104.499 -76.5c31.333 -34 57 -71.667 77 -113h11l10 215h41v-860c0 -56 -9.5 -107.833 -28.5 -155.5s-45.333 -89 -79 -124s-73 -62 -118 -81s-92.833 -28.5 -143.5 -28.5c-56 0 -105.833 7.16699 -149.5 21.5s-81.167 34.166 -112.5 59.499
s-56.5 54.666 -75.5 87.999s-32.833 69 -41.5 107h52zM143.002 471.003c0 -56 9.66699 -107.833 29 -155.5s45 -89 77 -124s68.833 -62 110.5 -81s85.834 -28.5 132.501 -28.5s90.667 9.5 132 28.5s78 46 110 81s57.667 76.333 77 124s29 99.5 29 155.5
s-9.66699 107.833 -29 155.5s-45 89 -77 124s-68.833 62 -110.5 81s-85.5 28.5 -131.5 28.5c-46.667 0 -90.834 -9.5 -132.501 -28.5s-78.5 -46 -110.5 -81s-57.667 -76.333 -77 -124s-29 -99.5 -29 -155.5z" />
    <glyph glyph-name="h" unicode="h" horiz-adv-x="1013" 
d="M522 911c50.667 0 98.167 -9.16797 142.5 -27.501s82.166 -44.166 113.499 -77.499s56.333 -73.333 75 -120s28 -98 28 -154v-532h-52v532c0 49.333 -7.83301 94.166 -23.5 134.499s-37.167 74.833 -64.5 103.5s-59.666 50.834 -96.999 66.501s-78 23.5 -122 23.5
s-85 -7.83301 -123 -23.5s-71.333 -37.834 -100 -66.501s-51.5 -63.167 -68.5 -103.5s-25.5 -85.166 -25.5 -134.499v-532h-51v1290h51v-573h10c18 35.333 41.333 67.333 70 96c24.667 24.667 56 47.167 94 67.5s85.667 30.5 143 30.5z" />
    <glyph glyph-name="i" unicode="i" horiz-adv-x="337" 
d="M143 901h52v-901h-52v901zM215 1184c0 -13.333 -4.5 -24.5 -13.5 -33.5s-20.167 -13.5 -33.5 -13.5c-12 0 -22.5 4.33301 -31.5 13s-13.5 20 -13.5 34c0 12 4.5 22.5 13.5 31.5s19.5 13.5 31.5 13.5c13.333 0 24.5 -4.5 33.5 -13.5s13.5 -19.5 13.5 -31.5z" />
    <glyph glyph-name="j" unicode="j" horiz-adv-x="337" 
d="M143 901h52v-1003c0 -72.667 -20.833 -130.167 -62.5 -172.5s-96.167 -63.5 -163.5 -63.5c-10.667 0 -20.167 0.333008 -28.5 1s-15.833 1.66699 -22.5 3s-13.334 3.33301 -20.001 6v52c6.66699 -2.66699 13.334 -5 20.001 -7c6.66699 -1.33301 14.167 -2.33301 22.5 -3
s17.833 -1 28.5 -1c52 0 94 16.5 126 49.5s48 78.167 48 135.5v1003zM215 1184c0 -13.333 -4.5 -24.5 -13.5 -33.5s-20.167 -13.5 -33.5 -13.5c-12 0 -22.5 4.33301 -31.5 13s-13.5 20 -13.5 34c0 12 4.5 22.5 13.5 31.5s19.5 13.5 31.5 13.5c13.333 0 24.5 -4.5 33.5 -13.5
s13.5 -19.5 13.5 -31.5z" />
    <glyph glyph-name="k" unicode="k" horiz-adv-x="819" 
d="M205 471v-471h-51v1290h51v-819l481 430h72l-482 -430l523 -471h-72z" />
    <glyph glyph-name="l" unicode="l" horiz-adv-x="358" 
d="M205 0h-51v1290h51v-1290z" />
    <glyph glyph-name="m" unicode="m" horiz-adv-x="1454" 
d="M1024 911c38 0 74.8281 -8.50391 110.495 -25.5039s67.5 -41.167 95.5 -72.5s50.167 -69.166 66.5 -113.499s24.5 -93.166 24.5 -146.499v-553h-51v553c0 46.667 -7.16699 88.667 -21.5 126s-32.833 69.333 -55.5 96s-49 47.5 -79 62.5s-60 22.5 -90 22.5
c-35.333 0 -69.166 -7.5 -101.499 -22.5s-60.666 -35.833 -84.999 -62.5s-43.666 -58.667 -57.999 -96s-21.5 -79.333 -21.5 -126v-553h-51v553c0 46.667 -7.16699 88.667 -21.5 126s-32.833 69.333 -55.5 96s-49 47.5 -79 62.5s-60 22.5 -90 22.5
c-35.333 0 -69.166 -7.5 -101.499 -22.5s-60.666 -35.833 -84.999 -62.5s-43.666 -58.667 -57.999 -96s-21.5 -79.333 -21.5 -126v-553h-52v901h41l11 -164h10c15.333 32.667 35 61.334 59 86.001c20.667 22 47 42.167 79 60.5s71.333 27.5 118 27.5
c52 0 95.333 -11.833 130 -35.5s63 -49.167 85 -76.5c24.667 -34 45 -71.667 61 -113c16.667 40.667 38 78.334 64 113.001c23.333 27.333 52.666 52.833 87.999 76.5s80.333 35.5 135 35.5z" />
    <glyph glyph-name="n" unicode="n" horiz-adv-x="1003" 
d="M512 911c50.667 0 98.1689 -9.16797 142.502 -27.501s82.166 -44.166 113.499 -77.499s56.166 -73.333 74.499 -120s27.5 -98 27.5 -154v-532h-51v532c0 49.333 -7.83301 94.166 -23.5 134.499s-37.167 74.833 -64.5 103.5s-59.666 50.834 -96.999 66.501
s-78 23.5 -122 23.5s-85 -7.83301 -123 -23.5s-71.333 -37.834 -100 -66.501s-51.5 -63.167 -68.5 -103.5s-25.5 -85.166 -25.5 -134.499v-532h-52v901h41l11 -184h10c18 35.333 41 67.333 69 96c24.667 24.667 56.167 47.167 94.5 67.5s86.166 30.5 143.499 30.5z" />
    <glyph glyph-name="o" unicode="o" 
d="M143 451c0 -58.667 10.333 -113 31 -163s47.667 -93.5 81 -130.5s72.166 -65.667 116.499 -86s91.166 -30.5 140.499 -30.5s96.166 10.167 140.499 30.5s83.166 49 116.499 86s60.333 80.333 81 130s31 104.167 31 163.5c0 58.667 -10.333 112.834 -31 162.501
s-47.667 93 -81 130s-72.166 65.667 -116.499 86s-91.166 30.5 -140.499 30.5s-96.166 -10.167 -140.499 -30.5s-83.166 -49 -116.499 -86s-60.333 -80.333 -81 -130s-31 -103.834 -31 -162.501zM92 451c0 66.667 11.333 128 34 184s53 104.5 91 145.5s82.667 73 134 96
s105 34.5 161 34.5s109.667 -11.5 161 -34.5s96 -55 134 -96s68.333 -89.5 91 -145.5s34 -117.333 34 -184s-11.333 -128.167 -34 -184.5s-53 -105 -91 -146s-82.667 -73 -134 -96s-105 -34.5 -161 -34.5s-109.667 11.5 -161 34.5s-96 55 -134 96s-68.333 89.667 -91 146
s-34 117.833 -34 184.5z" />
    <glyph glyph-name="p" unicode="p" horiz-adv-x="1075" 
d="M143 901h41.001l11 -235h10c22 46.667 50 87.334 84 122.001c28.667 31.333 65.167 59.666 109.5 84.999s99.166 38 164.499 38c56 0 109.667 -11.5 161 -34.5s96 -55 134 -96s68.333 -89.5 91 -145.5s34 -117.333 34 -184s-11.333 -128.167 -34 -184.5
s-53 -105 -91 -146s-82.667 -73 -134 -96s-105 -34.5 -161 -34.5c-64 0 -118.5 12.667 -163.5 38s-81.833 53.333 -110.5 84s-49.667 59 -63 85l-21 39h-10v-564h-52v1229zM932.001 451c0 58.667 -10.333 112.834 -31 162.501s-47.667 93 -81 130
s-72.166 65.667 -116.499 86s-91.166 30.5 -140.499 30.5s-96.166 -10.167 -140.499 -30.5s-83.166 -49 -116.499 -86s-60.166 -80.333 -80.499 -130s-30.5 -103.834 -30.5 -162.501s10.167 -113 30.5 -163s47.166 -93.5 80.499 -130.5s72.166 -65.667 116.499 -86
s91.166 -30.5 140.499 -30.5s96.166 10.167 140.499 30.5s83.166 49 116.499 86s60.333 80.5 81 130.5s31 104.333 31 163z" />
    <glyph glyph-name="q" unicode="q" horiz-adv-x="1075" 
d="M932 -328h-51v564h-11l-20 -39c-14 -26 -35.333 -54.333 -64 -85s-65.5 -58.667 -110.5 -84s-99.5 -38 -163.5 -38c-56 0 -109.667 11.5 -161 34.5s-96 55 -134 96s-68.333 89.5 -91 145.5s-34 117.667 -34 185c0 66.667 11.333 128 34 184s53 104.5 91 145.5
s82.667 73 134 96s105 34.5 161 34.5c64 0 118.5 -12.5 163.5 -37.5s81.833 -53.5 110.5 -85.5c34 -35.333 62 -76 84 -122h11l10 235h41v-1229zM143 451c0 -58.667 10.333 -113 31 -163s47.667 -93.5 81 -130.5s72.166 -65.667 116.499 -86s91.166 -30.5 140.499 -30.5
s96.166 10.167 140.499 30.5s83.166 49 116.499 86s60.333 80.333 81 130s31 104.167 31 163.5c0 58.667 -10.333 112.834 -31 162.501s-47.667 93 -81 130s-72.166 65.667 -116.499 86s-91.166 30.5 -140.499 30.5s-96.166 -10.167 -140.499 -30.5
s-83.166 -49 -116.499 -86s-60.333 -80.333 -81 -130s-31 -103.834 -31 -162.501z" />
    <glyph glyph-name="r" unicode="r" horiz-adv-x="593" 
d="M553 911v-51h-61c-38 0 -74.833 -7.83301 -110.5 -23.5s-67.5 -37.834 -95.5 -66.501s-50.167 -63.167 -66.5 -103.5s-24.5 -85.166 -24.5 -134.499v-532h-52v901h41l11 -184h10c16.667 35.333 38.334 67.333 65.001 96c23.333 24.667 53.166 47.167 89.499 67.5
s80.5 30.5 132.5 30.5h61z" />
    <glyph glyph-name="s" unicode="s" horiz-adv-x="808" 
d="M707 236c0 -32.667 -6.83203 -64.1738 -20.499 -94.5068s-33.5 -56.666 -59.5 -78.999s-57.167 -40 -93.5 -53s-77.5 -19.5 -123.5 -19.5c-46.667 0 -89.5 7.5 -128.5 22.5s-72.5 35.5 -100.5 61.5s-49.833 55.667 -65.5 89s-23.5 67.666 -23.5 102.999h51
c5.33301 -61.333 31.666 -114.166 78.999 -158.499s110 -66.5 188 -66.5s138.333 19.5 181 58.5s64 84.5 64 136.5c0 48 -13.333 84.833 -40 110.5s-60 46.334 -100 62.001s-83.667 28.667 -131 39s-91 24 -131 41s-73.333 39.5 -100 67.5s-40 68 -40 120
c0 30 6.83301 59.333 20.5 88s32.667 53.834 57 75.501s54.333 39 90 52s75.167 19.5 118.5 19.5c44 0 84 -7.16699 120 -21.5s67.667 -33.666 95 -57.999s48.833 -52.666 64.5 -84.999s25.167 -66.166 28.5 -101.499h-52c-10.667 61.333 -37.834 112.5 -81.501 153.5
s-101.834 61.5 -174.501 61.5c-35.333 0 -67.666 -5.16699 -96.999 -15.5s-54.166 -24.333 -74.499 -42s-36 -37.334 -47 -59.001s-16.5 -44.167 -16.5 -67.5c0 -42 13.333 -74.333 40 -97s60.167 -41.167 100.5 -55.5s84 -26.666 131 -36.999s90.667 -24.666 131 -42.999
s73.833 -43.5 100.5 -75.5s40 -76 40 -132z" />
    <glyph glyph-name="t" unicode="t" horiz-adv-x="604" 
d="M225 850h-184v51h92c61.333 0 92 30.667 92 92v174h51v-266h236v-51h-236v-625c0 -57.333 16.167 -102.333 48.5 -135s74.5 -49 126.5 -49c10.667 0 20.167 0.333008 28.5 1s15.833 1.66699 22.5 3s13.334 3.33301 20.001 6v-51
c-6.66699 -2.66699 -13.334 -4.66699 -20.001 -6s-14.167 -2.33301 -22.5 -3s-17.833 -1 -28.5 -1c-66.667 0 -121 21.167 -163 63.5s-63 99.5 -63 171.5v625z" />
    <glyph glyph-name="u" unicode="u" horiz-adv-x="1013" 
d="M502 -10c-52 0 -99.832 9.16992 -143.499 27.5029s-81.167 44.166 -112.5 77.499s-56.333 73.333 -75 120s-28 98 -28 154v532h52v-532c0 -49.333 7.83301 -94.166 23.5 -134.499s37.167 -74.833 64.5 -103.5s59.666 -50.834 96.999 -66.501s78 -23.5 122 -23.5
s85 7.83301 123 23.5s71.333 37.834 100 66.501s51.5 63.167 68.5 103.5s25.5 85.166 25.5 134.499v532h51v-901h-41l-10 184h-10c-18 -36.667 -41.333 -69.334 -70 -98.001c-24.667 -24.667 -56 -46.834 -94 -66.501s-85.667 -29.5 -143 -29.5z" />
    <glyph glyph-name="v" unicode="v" horiz-adv-x="880" 
d="M829 901l-368 -901h-41l-369 901h51l338 -829l338 829h51z" />
    <glyph glyph-name="w" unicode="w" horiz-adv-x="1290" 
d="M389 0h-41l-287 901h52l256 -809l256 809h41l256 -809l256 809h51l-287 -901h-41l-256 809z" />
    <glyph glyph-name="x" unicode="x" horiz-adv-x="819" 
d="M72 901h61l277 -399l276 399h62l-308 -440l328 -461h-61l-297 420l-297 -420h-62l328 461z" />
    <glyph glyph-name="y" unicode="y" horiz-adv-x="880" 
d="M829 901l-419.002 -1044c-27.333 -66.667 -58.833 -115.834 -94.5 -147.501s-79.5 -47.5 -131.5 -47.5c-8 0 -18.667 1.33301 -32 4c-5.33301 1.33301 -11.666 3.33301 -18.999 6v52c6.66699 -2.66699 13 -5 19 -7c13.333 -2.66699 24 -4 32 -4
c40.667 0 74.834 11 102.501 33s51.5 59 71.5 111l82 204l-389 840h51l359 -778h10l307 778h51z" />
    <glyph glyph-name="z" unicode="z" horiz-adv-x="788" 
d="M645 850h-553v51h625v-31l-574 -819h574v-51h-645v31z" />
    <glyph glyph-name="braceleft" unicode="{" horiz-adv-x="624" 
d="M123 481c52 0 92.333 14.668 121 44.001s43 72.666 43 129.999v400c0 78 19.333 136.667 58 176s94.334 59 167.001 59h51v-51h-51c-116 0 -174 -61.333 -174 -184v-400c0 -44 -7.5 -78.5 -22.5 -103.5s-31.5 -44.167 -49.5 -57.5c-22 -15.333 -45.667 -26.333 -71 -33
c26 -6.66699 49.667 -17.667 71 -33c18 -13.333 34.5 -32.666 49.5 -57.999s22.5 -60 22.5 -104v-399c0 -122.667 58 -184 174 -184h51v-52h-51c-72.667 0 -128.334 19.833 -167.001 59.5s-58 98.5 -58 176.5v399c0 57.333 -14.333 100.666 -43 129.999s-69 44 -121 44v41z
" />
    <glyph glyph-name="bar" unicode="|" horiz-adv-x="542" 
d="M246 1290h51v-1618h-51v1618z" />
    <glyph glyph-name="braceright" unicode="}" horiz-adv-x="624" 
d="M502 440c-52 0 -92.334 -14.666 -121.001 -43.999s-43 -72.666 -43 -129.999v-399c0 -78 -19.5 -136.833 -58.5 -176.5s-94.5 -59.5 -166.5 -59.5h-52v52h52c116 0 174 61.333 174 184v399c0 44 7.16699 78.667 21.5 104s30.833 44.666 49.5 57.999
c20.667 15.333 44.667 26.333 72 33c-27.333 6.66699 -51.333 17.667 -72 33c-19.333 13.333 -36 32.666 -50 57.999s-21 59.666 -21 102.999v400c0 122.667 -58 184 -174 184h-52v51h52c72.667 0 128.334 -19.833 167.001 -59.5s58 -98.167 58 -175.5v-400
c0 -57.333 14.333 -100.666 43 -129.999s69 -44 121 -44v-41z" />
    <glyph glyph-name="asciitilde" unicode="~" horiz-adv-x="901" 
d="M246 625c-40.667 0 -76.5 -17.168 -107.5 -51.501s-46.5 -82.166 -46.5 -143.499h-51c0 78 19.833 138.5 59.5 181.5s88.167 64.5 145.5 64.5c40.667 0 78.834 -10.667 114.501 -32s69.834 -44.833 102.501 -70.5s64.667 -49.167 96 -70.5s63.333 -32 96 -32
c40.667 0 76.5 17 107.5 51s46.5 82 46.5 144h51c0 -78 -19.833 -138.5 -59.5 -181.5s-88.167 -64.5 -145.5 -64.5c-40.667 0 -78.834 10.5 -114.501 31.5s-69.834 44.5 -102.501 70.5s-64.667 49.667 -96 71s-63.333 32 -96 32z" />
    <glyph glyph-name="uni00A0" unicode="&#xa0;" horiz-adv-x="409" 
 />
    <glyph glyph-name="exclamdown" unicode="&#xa1;" horiz-adv-x="460" 
d="M256 -328h-51v901h51v-901zM276 856c0 -13.333 -4.33301 -24.5 -13 -33.5s-20 -13.5 -34 -13.5c-12 0 -22.5 4.5 -31.5 13.5s-13.5 20.167 -13.5 33.5c0 12 4.5 22.5 13.5 31.5s19.5 13.5 31.5 13.5c13.333 0 24.5 -4.5 33.5 -13.5s13.5 -19.5 13.5 -31.5z" />
    <glyph glyph-name="cent" unicode="&#xa2;" horiz-adv-x="972" 
d="M481 -10c-49.333 2.66699 -97.168 15.5059 -143.501 38.5059s-87.5 54.667 -123.5 95s-65.333 88.166 -88 143.499s-34 116.666 -34 183.999c0 66.667 11.333 127.667 34 183s52 103.166 88 143.499s77.333 72 124 95s94.334 35.833 143.001 38.5v215h51v-215
c46.667 -2.66699 90.167 -12.834 130.5 -30.501s76.166 -40.5 107.499 -68.5s57.333 -60 78 -96s35 -73.333 43 -112h-51c-10.667 32.667 -26 64.834 -46 96.501s-44 59 -72 82s-59.833 41.667 -95.5 56s-73.834 21.5 -114.501 21.5
c-49.333 0 -96.166 -10.167 -140.499 -30.5s-83.166 -49 -116.499 -86s-60.333 -80.333 -81 -130s-31 -103.834 -31 -162.501s10.333 -113 31 -163s47.667 -93.5 81 -130.5s72.166 -65.667 116.499 -86s91.166 -30.5 140.499 -30.5c40.667 0 78.834 7.16699 114.501 21.5
s67.5 32.833 95.5 55.5s51.833 48.667 71.5 78s35.167 59.666 46.5 90.999h51c-8 -35.333 -22.333 -70.5 -43 -105.5s-46.667 -66.167 -78 -93.5s-67.166 -49.833 -107.499 -67.5s-83.833 -27.834 -130.5 -30.501v-195h-51v195z" />
    <glyph glyph-name="sterling" unicode="&#xa3;" horiz-adv-x="993" 
d="M297 246c0 -35.333 -5.49902 -65.666 -16.499 -90.999s-22.5 -45.666 -34.5 -60.999c-15.333 -18 -32.333 -32.333 -51 -43h737v-51h-830v51c40.667 15.333 74.834 38.666 102.501 69.999s41.5 73 41.5 125v317h-144v51h144v328c0 50.667 8.83301 98.167 26.5 142.5
s42.167 82.166 73.5 113.499s68.166 56.166 110.499 74.499s88.166 27.5 137.499 27.5c92.667 0 169.334 -30.667 230.001 -92s96.667 -143 108 -245h-51c-10.667 87.333 -41.667 156.833 -93 208.5s-116 77.5 -194 77.5c-40.667 0 -79.167 -7.83301 -115.5 -23.5
s-67.833 -37.167 -94.5 -64.5s-47.834 -59.666 -63.501 -96.999s-23.5 -78 -23.5 -122v-328h379v-51h-379v-317z" />
    <glyph glyph-name="currency" unicode="&#xa4;" horiz-adv-x="1095" 
d="M625 625c46.667 0 89.334 7.66992 128.001 23.0029c38.667 16 72 37.667 100 65s50 59.666 66 96.999s23.667 78 23 122c0 44 -7.66699 84.667 -23 122c-16 37.333 -38 69.666 -66 96.999s-61.333 48.666 -100 63.999c-38.667 16 -81.334 24 -128.001 24h-349v-614h349z
M993 932.003c0 -52 -9 -100 -27 -144c-18.667 -44 -44.334 -81.333 -77.001 -112c-32.667 -31.333 -71.667 -56.333 -117 -75s-94.333 -28 -147 -28h-349v-215h461v-51h-461v-307h-51v307h-184v51h184v215h-184v52h184v665h400c53.333 0 102.333 -9 147 -27
c45.333 -18.667 84.333 -43.667 117 -75s58.334 -69.333 77.001 -114c18 -44 27 -91.333 27 -142z" />
    <glyph glyph-name="yen" unicode="&#xa5;" horiz-adv-x="1054" 
d="M860 573v-51h-307v-194h307v-52h-307v-276h-51v276h-307v52h307v194h-307v51h276l-410 717h62l399 -706h10l400 706h61l-409 -717h276z" />
    <glyph glyph-name="brokenbar" unicode="&#xa6;" horiz-adv-x="542" 
d="M246 307h51v-635h-51v635zM246 1290h51v-635h-51v635z" />
    <glyph glyph-name="section" unicode="&#xa7;" horiz-adv-x="972" 
d="M799 532c0 30 -5.49902 58.666 -16.499 85.999s-29.833 52.666 -56.5 75.999s-61.5 44.5 -104.5 63.5s-96.5 36.167 -160.5 51.5c-53.333 -19.333 -101.333 -42 -144 -68c-35.333 -23.333 -68 -52.666 -98 -87.999s-45 -79 -45 -131c0 -31.333 5.5 -60.333 16.5 -87
s29.833 -51.5 56.5 -74.5s61.5 -44.167 104.5 -63.5s96.5 -36.333 160.5 -51c53.333 16.667 101 38.334 143 65.001c35.333 23.333 68.166 53 98.499 89s45.5 80 45.5 132zM850.001 531.999c0 -54.667 -14.998 -101.003 -44.998 -139.003s-62.667 -69.333 -98 -94
c-42 -28.667 -90 -53.334 -144 -74.001c42 -13.333 81 -31 117 -53c30 -19.333 57.333 -43.666 82 -72.999s37 -65.666 37 -108.999c0 -31.333 -6.83301 -61 -20.5 -89s-33.834 -53 -60.501 -75s-58.834 -39.5 -96.501 -52.5s-80.834 -19.5 -129.501 -19.5
c-46.667 0 -88.834 7.16699 -126.501 21.5s-70.5 34.5 -98.5 60.5s-49.833 56.5 -65.5 91.5s-24.834 72.833 -27.501 113.5h51c5.33301 -66.667 31.666 -122.667 78.999 -168s110 -68 188 -68c40.667 0 77 5.16699 109 15.5s58.667 24.333 80 42s37.833 37.5 49.5 59.5
s17.5 44.667 17.5 68c0 46.667 -15.5 83.167 -46.5 109.5s-69.667 48.833 -116 67.5s-96.5 35.834 -150.5 51.501s-104.167 35.334 -150.5 59.001s-84.833 54.667 -115.5 93s-46 88.833 -46 151.5c0 53.333 15 99.5 45 138.5s62.667 70.833 98 95.5c42 28.667 90 53 144 73
c-40.667 13.333 -77 31.333 -109 54c-27.333 19.333 -51.833 43.5 -73.5 72.5s-32.5 65.5 -32.5 109.5c0 30 6.83301 59.333 20.5 88s32.667 54 57 76s54.333 39.333 90 52s75.167 19 118.5 19c40.667 0 78.5 -7.16699 113.5 -21.5s65.833 -34 92.5 -59
s47.834 -54.333 63.501 -88s24.834 -69.5 27.501 -107.5h-51c-2.66699 30 -10.834 58.667 -24.501 86s-31.167 51.166 -52.5 71.499s-46.666 36.666 -75.999 48.999s-60.333 18.5 -93 18.5c-35.333 0 -67.666 -5 -96.999 -15s-54.166 -24 -74.499 -42s-36 -37.833 -47 -59.5
s-16.5 -44.167 -16.5 -67.5c0 -46.667 15 -83.667 45 -111s67.167 -50.166 111.5 -68.499s92.833 -35.666 145.5 -51.999s101.167 -36.5 145.5 -60.5s81.5 -54.833 111.5 -92.5s45 -87.167 45 -148.5z" />
    <glyph glyph-name="dieresis" unicode="&#xa8;" horiz-adv-x="512" 
d="M154 1194c0 -13.333 -4.49902 -24.5 -13.499 -33.5s-20.5 -13.5 -34.5 -13.5c-12 0 -22.5 4.5 -31.5 13.5s-13.5 20.167 -13.5 33.5c0 12 4.5 22.5 13.5 31.5s19.5 13.5 31.5 13.5c13.333 0 24.666 -4.5 33.999 -13.5s14 -19.5 14 -31.5zM451.001 1194
c0 -13.333 -4.49902 -24.5 -13.499 -33.5s-20.5 -13.5 -34.5 -13.5c-12 0 -22.5 4.5 -31.5 13.5s-13.5 20.167 -13.5 33.5c0 12 4.5 22.5 13.5 31.5s19.5 13.5 31.5 13.5c13.333 0 24.666 -4.5 33.999 -13.5s14 -19.5 14 -31.5z" />
    <glyph glyph-name="copyright" unicode="&#xa9;" horiz-adv-x="1474" 
d="M1321 645c0 84.667 -15.333 163.834 -46 237.501s-72.667 137.5 -126 191.5s-115.5 96.667 -186.5 128s-146.167 47 -225.5 47s-154.333 -15.667 -225 -47s-132.667 -74 -186 -128s-95.333 -117.833 -126 -191.5s-46 -152.834 -46 -237.501s15.333 -163.834 46 -237.501
s72.667 -137.5 126 -191.5s115.333 -96.667 186 -128s145.667 -47 225 -47s154.5 15.667 225.5 47s133.167 74 186.5 128s95.333 117.833 126 191.5s46 152.834 46 237.501zM1372 645c0 -92.667 -16.667 -178.667 -50 -258s-78.666 -148.666 -135.999 -207.999
s-124.666 -105.666 -201.999 -138.999s-159.666 -50 -246.999 -50s-169.5 16.667 -246.5 50s-144.167 79.666 -201.5 138.999s-102.833 128.666 -136.5 207.999s-50.5 165.333 -50.5 258c0 91.333 16.833 177 50.5 257s79.167 149.667 136.5 209
s124.5 105.666 201.5 138.999s159.167 50 246.5 50s169.666 -16.667 246.999 -50s144.666 -79.666 201.999 -138.999s102.666 -129 135.999 -209s50 -165.667 50 -257zM492 645c0 -40.667 7.16699 -78.4971 21.5 -113.497s32.666 -65.5 54.999 -91.5
s48.166 -46.167 77.499 -60.5s59.666 -21.5 90.999 -21.5c61.333 0 110.833 14.667 148.5 44s66.834 72.666 87.501 129.999h51c-20.667 -72.667 -55.167 -128.334 -103.5 -167.001s-105.833 -58 -172.5 -58c-40.667 0 -79.667 8.5 -117 25.5s-70.333 40.667 -99 71
s-51.167 65.833 -67.5 106.5s-24.5 85.667 -24.5 135s8.16699 94.5 24.5 135.5s38.833 76.5 67.5 106.5s61.5 53.5 98.5 70.5s76.167 25.5 117.5 25.5c66.667 0 124.167 -19.5 172.5 -58.5s82.833 -94.5 103.5 -166.5h-51c-20.667 57.333 -49.834 100.666 -87.501 129.999
s-87.167 44 -148.5 44c-31.333 0 -61.666 -7.16699 -90.999 -21.5s-55.166 -34.5 -77.499 -60.5s-40.666 -56.5 -54.999 -91.5s-21.5 -72.833 -21.5 -113.5z" />
    <glyph glyph-name="ordfeminine" unicode="&#xaa;" horiz-adv-x="563" 
d="M246 799c52 0 95.666 18.667 130.999 56s53 87 53 149v10h-61c-52 0 -94.333 -3.16699 -127 -9.5s-58.667 -14.5 -78 -24.5s-32.666 -21.833 -39.999 -35.5s-11 -28.167 -11 -43.5c0 -26 12 -49.5 36 -70.5s56.333 -31.5 97 -31.5zM286.999 1300
c57.333 0 104.001 -18.0029 140.001 -54.0029s54 -82.667 54 -140v-348h-41l-10 100h-8c-12 -22 -26.333 -40.333 -43 -55c-15.333 -15.333 -33.5 -28.333 -54.5 -39s-47.167 -16 -78.5 -16c-57.333 0 -102.5 15.333 -135.5 46s-49.5 66.334 -49.5 107.001
c0 23.333 5.16699 44.833 15.5 64.5s27.166 37 50.499 52s54.833 26.667 94.5 35s88.834 12.5 147.501 12.5h61v41c0 40.667 -13.667 74.667 -41 102s-61.333 41 -102 41c-45.333 0 -79.5 -9.16699 -102.5 -27.5s-40.167 -43.166 -51.5 -74.499h-51
c10.667 40.667 33.167 76.334 67.5 107.001s80.166 46 137.499 46z" />
    <glyph glyph-name="guillemotleft" unicode="&#xab;" horiz-adv-x="737" 
d="M164 461l215 -307h-62l-215 307l215 307h62zM461 461l215 -307h-62l-215 307l215 307h62z" />
    <glyph glyph-name="logicalnot" unicode="&#xac;" horiz-adv-x="890" 
d="M829 748v-328h-51v276h-737v52h788z" />
    <glyph glyph-name="uni00AD" unicode="&#xad;" horiz-adv-x="675" 
d="M614 502h-553v51h553v-51z" />
    <glyph glyph-name="registered" unicode="&#xae;" horiz-adv-x="1474" 
d="M973 788c0 -40.667 -9.16504 -73.334 -27.498 -98.001s-38.5 -43 -60.5 -55c-24.667 -15.333 -53.334 -25.666 -86.001 -30.999l194 -287h-61l-195 287h-153v-287h-52v656h246c57.333 0 104.166 -17.833 140.499 -53.5s54.5 -79.5 54.5 -131.5zM778.002 655
c40.667 0 74.832 13.333 102.499 40s41.5 57.667 41.5 93s-13.667 66.5 -41 93.5s-61.666 40.5 -102.999 40.5h-194v-267h194zM1321 645c0 84.667 -15.333 163.834 -46 237.501s-72.667 137.5 -126 191.5s-115.5 96.667 -186.5 128s-146.167 47 -225.5 47
s-154.333 -15.667 -225 -47s-132.667 -74 -186 -128s-95.333 -117.833 -126 -191.5s-46 -152.834 -46 -237.501s15.333 -163.834 46 -237.501s72.667 -137.5 126 -191.5s115.333 -96.667 186 -128s145.667 -47 225 -47s154.5 15.667 225.5 47s133.167 74 186.5 128
s95.333 117.833 126 191.5s46 152.834 46 237.501zM1372 645c0 -92.667 -16.667 -178.667 -50 -258s-78.666 -148.666 -135.999 -207.999s-124.666 -105.666 -201.999 -138.999s-159.666 -50 -246.999 -50s-169.5 16.667 -246.5 50s-144.167 79.666 -201.5 138.999
s-102.833 128.666 -136.5 207.999s-50.5 165.333 -50.5 258c0 91.333 16.833 177 50.5 257s79.167 149.667 136.5 209s124.5 105.666 201.5 138.999s159.167 50 246.5 50s169.666 -16.667 246.999 -50s144.666 -79.666 201.999 -138.999s102.666 -129 135.999 -209
s50 -165.667 50 -257z" />
    <glyph glyph-name="macron" unicode="&#xaf;" horiz-adv-x="593" 
d="M532 1137h-471v51h471v-51z" />
    <glyph glyph-name="degree" unicode="&#xb0;" horiz-adv-x="655" 
d="M573 1044c0 -32.667 -6.33301 -64 -19 -94s-30.334 -56.167 -53.001 -78.5s-49 -40 -79 -53s-61.333 -19.5 -94 -19.5s-64.167 6.5 -94.5 19.5s-56.666 30.667 -78.999 53s-40 48.5 -53 78.5s-19.5 61.333 -19.5 94s6.5 64.167 19.5 94.5s30.667 56.666 53 78.999
s48.666 40 78.999 53s61.833 19.5 94.5 19.5s64 -6.5 94 -19.5s56.333 -30.667 79 -53s40.334 -48.666 53.001 -78.999s19 -61.833 19 -94.5zM133 1044c0 -26 5.5 -50.499 16.5 -73.499s25.333 -43.333 43 -61s38.167 -32 61.5 -43s48 -16.5 74 -16.5s50.5 5.5 73.5 16.5
s43.333 25.333 61 43s32 38.167 43 61.5s16.5 47.666 16.5 72.999c0 26 -5.5 50.667 -16.5 74s-25.333 43.833 -43 61.5s-38 32 -61 43s-47.5 16.5 -73.5 16.5s-50.667 -5.5 -74 -16.5s-43.833 -25.333 -61.5 -43s-32 -38.167 -43 -61.5s-16.5 -48 -16.5 -74z" />
    <glyph glyph-name="plusminus" unicode="&#xb1;" horiz-adv-x="890" 
d="M829 154v-52h-768v52h359v430h-359v51h359v358h51v-358h358v-51h-358v-430h358z" />
    <glyph glyph-name="uni00B2" unicode="&#xb2;" horiz-adv-x="501" 
d="M123 932l306.999 -0.00195312v-51h-369v51l236 237c15.333 16.667 29 33.334 41 50.001c10.667 15.333 20.167 31.333 28.5 48s12.5 34.667 12.5 54c0 31.333 -11.667 58 -35 80s-52.666 33 -87.999 33s-65 -11.667 -89 -35s-38.667 -52.666 -44 -87.999h-51
c5.33301 52 24.333 94 57 126s75 48 127 48s94 -15.667 126 -47s48 -70.333 48 -117c0 -23.333 -5.5 -45.5 -16.5 -66.5s-22.5 -40.5 -34.5 -58.5c-15.333 -20.667 -32.333 -39.667 -51 -57z" />
    <glyph glyph-name="uni00B3" unicode="&#xb3;" horiz-adv-x="522" 
d="M317 1198c24.667 -4 46.666 -12.999 65.999 -26.999c16.667 -10.667 32.167 -26.167 46.5 -46.5s21.5 -47.166 21.5 -80.499c0 -46.667 -18.167 -87.334 -54.5 -122.001s-83.166 -52 -140.499 -52s-102.666 16.167 -135.999 48.5s-53 74.166 -59 125.499h52
c5.33301 -35.333 20.333 -64.5 45 -87.5s57.334 -34.5 98.001 -34.5s74.667 12.5 102 37.5s41 53.167 41 84.5s-13.667 59.666 -41 84.999s-61.333 38 -102 38h-61v52h61c35.333 0 64.666 10.5 87.999 31.5s35 44.5 35 70.5c0 31.333 -11.667 58 -35 80
s-52.666 33 -87.999 33s-65 -11.667 -89 -35s-38.667 -52.666 -44 -87.999h-51c5.33301 52 24.333 94 57 126s75 48 127 48s94 -15.667 126 -47s48 -70.333 48 -117c0 -26 -5.83301 -46.833 -17.5 -62.5s-24.834 -28.167 -39.501 -37.5
c-16.667 -11.333 -35.334 -19 -56.001 -23z" />
    <glyph glyph-name="acute" unicode="&#xb4;" horiz-adv-x="327" 
d="M184 1290h82l-174 -246h-31z" />
    <glyph glyph-name="mu" unicode="&#xb5;" horiz-adv-x="1013" 
d="M143 901l52.001 0.00195312v-532c0 -49.333 7.83301 -94.166 23.5 -134.499s37.167 -74.833 64.5 -103.5s59.666 -50.834 96.999 -66.501s78 -23.5 122 -23.5s85 7.83301 123 23.5s71.333 37.834 100 66.501s51.5 63.167 68.5 103.5s25.5 85.166 25.5 134.499v532h51
v-901h-41l-10 184h-10c-18 -36.667 -41.333 -69.334 -70 -98.001c-24.667 -24.667 -56 -46.834 -94 -66.501s-85.667 -29.5 -143 -29.5c-70.667 0 -130 17.667 -178 53s-87.667 79 -119 131h-10v-502h-52v1229z" />
    <glyph glyph-name="paragraph" unicode="&#xb6;" horiz-adv-x="921" 
d="M737 1290v-1474h-51v1423h-225v-1423h-51v942c-87.333 0 -157 24.833 -209 74.5s-78 113.5 -78 191.5s26 141.833 78 191.5s121.667 74.5 209 74.5h327z" />
    <glyph glyph-name="periodcentered" unicode="&#xb7;" horiz-adv-x="409" 
d="M256 639c0 -12 -4.50098 -22.5 -13.501 -31.5s-20.167 -13.5 -33.5 -13.5c-12 0 -22.5 4.5 -31.5 13.5s-13.5 19.5 -13.5 31.5c0 13.333 4.33301 24.5 13 33.5s19.334 13.5 32.001 13.5c13.333 0 24.5 -4.5 33.5 -13.5s13.5 -20.167 13.5 -33.5z" />
    <glyph glyph-name="cedilla" unicode="&#xb8;" horiz-adv-x="348" 
d="M154 -82c40.667 0 72.9971 -12.6689 96.9971 -38.002s36 -53.666 36 -84.999s-12.667 -59.666 -38 -84.999s-64 -38 -116 -38c-10.667 0 -20.167 0.333008 -28.5 1s-15.833 1.66699 -22.5 3s-13.667 3.66602 -21 6.99902v41c6.66699 -2.66699 13.667 -5 21 -7
c6.66699 -1.33301 14.167 -2.33301 22.5 -3s17.833 -1 28.5 -1c35.333 0 61.333 8.5 78 25.5s25 35.833 25 56.5s-7.66699 39.5 -23 56.5s-38.666 25.5 -69.999 25.5c-5.33301 0 -10.666 -0.666992 -15.999 -2l-16 -4c-5.33301 -1.33301 -11.666 -2.66602 -18.999 -3.99902
l62 133h41z" />
    <glyph glyph-name="uni00B9" unicode="&#xb9;" horiz-adv-x="358" 
d="M195 1475h41v0v-594h-52v532l-143 -92l-21 41z" />
    <glyph glyph-name="ordmasculine" unicode="&#xba;" horiz-adv-x="655" 
d="M584 1024c0 -38 -7.16699 -73.833 -21.5 -107.5s-33.166 -63 -56.499 -88s-50.666 -44.667 -81.999 -59s-63.333 -21.5 -96 -21.5s-64.834 7.16699 -96.501 21.5s-59 34 -82 59s-41.667 54.333 -56 88s-21.5 69.5 -21.5 107.5s7.16699 73.833 21.5 107.5s33 63 56 88
s50.333 44.667 82 59s63.834 21.5 96.501 21.5s64.667 -7.16699 96 -21.5s58.666 -34 81.999 -59s42.166 -54.333 56.499 -88s21.5 -69.5 21.5 -107.5zM532 1024c0 30 -5.66699 58.667 -17 86s-26.666 51.166 -45.999 71.499s-41.166 36.666 -65.499 48.999
s-49.5 18.5 -75.5 18.5s-51.333 -6.16699 -76 -18.5s-46.5 -28.666 -65.5 -48.999s-34.333 -44.166 -46 -71.499s-17.5 -56 -17.5 -86c0 -31.333 5.83301 -60.666 17.5 -87.999s27 -51.166 46 -71.499s40.833 -36.333 65.5 -48s50 -17.5 76 -17.5s51.167 5.83301 75.5 17.5
s46.166 27.667 65.499 48s34.666 44.166 45.999 71.499s17 56.666 17 87.999z" />
    <glyph glyph-name="guillemotright" unicode="&#xbb;" horiz-adv-x="737" 
d="M358 768h62l215 -307l-215 -307h-62l215 307zM61 768h62l215 -307l-215 -307h-62l215 307z" />
    <glyph glyph-name="onequarter" unicode="&#xbc;" horiz-adv-x="1198" 
d="M1014 184h82v-51h-82v-133h-51v133h-277v51l266 410h62v-410zM963 184v348l-226 -348h226zM256 1290h41v0v-594h-51v533l-144 -92l-20 41zM225 0h-61l778 1290h62z" />
    <glyph glyph-name="onehalf" unicode="&#xbd;" horiz-adv-x="1239" 
d="M829 51l308.001 -0.000976562v-51h-369v51l236 238c15.333 16.667 28.666 33 39.999 49c10.667 15.333 20.334 31.333 29.001 48c8 17.333 12 35.333 12 54c0 31.333 -11.333 58 -34 80c-23.333 22 -52.666 33 -87.999 33s-65.333 -11.667 -90 -35
c-24 -23.333 -38.667 -52.666 -44 -87.999h-51c5.33301 52 24.666 94 57.999 126c32.667 32 75 48 127 48s94 -15.667 126 -47s48 -70.333 48 -117c0 -23.333 -5.66699 -45.333 -17 -66c-10.667 -21.333 -22.334 -41 -35.001 -59c-15.333 -20.667 -32.333 -39.667 -51 -57z
M256.001 1290h41v0v-594h-51v533l-144 -92l-20 41zM225.001 -0.000976562h-61l778 1290h62z" />
    <glyph glyph-name="threequarters" unicode="&#xbe;" horiz-adv-x="1310" 
d="M358 1014c24.667 -4 46.665 -12.9971 65.998 -26.9971c16.667 -10.667 32 -26.334 46 -47.001c14.667 -20.667 22 -47.334 22 -80.001c0 -46.667 -18.333 -87.334 -55 -122.001c-36 -34.667 -82.667 -52 -140 -52s-102.666 16 -135.999 48s-53 74 -59 126h52
c5.33301 -35.333 20.333 -64.666 45 -87.999s57.334 -35 98.001 -35s74.667 12.667 102 38s41 53.666 41 84.999s-13.667 59.666 -41 84.999s-61.333 38 -102 38h-61v51h61c35.333 0 64.666 10.667 87.999 32s35 45 35 71c0 31.333 -11.667 58 -35 80
s-52.666 32.667 -87.999 32c-35.333 0 -65 -11.667 -89 -35s-38.667 -52.666 -44 -87.999h-51c5.33301 52 24.333 94 57 126s75 48 127 48s94 -15.667 126 -47s48 -70 48 -116c0 -26 -5.66699 -47 -17 -63s-24.666 -28.667 -39.999 -38
c-16.667 -10.667 -35.334 -18 -56.001 -22zM1126 184.003h82v-51h-82v-133h-51v133h-276v51l266 410h61v-410zM1075 184.003v348l-225 -348h225zM337.998 0.00292969h-62l779 1290h61z" />
    <glyph glyph-name="questiondown" unicode="&#xbf;" horiz-adv-x="849" 
d="M102 -20c0 50.667 8.33008 93.998 24.9971 129.998s36.834 68 60.501 96s49.834 53.167 78.501 75.5s55 46.5 79 72.5s44.167 54.333 60.5 85s24.5 68.667 24.5 114v20h51v-20c0 -48 -8.16699 -88.667 -24.5 -122s-36.5 -63.333 -60.5 -90s-50.333 -51.667 -79 -75
s-54.834 -48.166 -78.501 -74.499s-43.667 -56.333 -60 -90s-24.5 -74.167 -24.5 -121.5c0 -35.333 7.16699 -69.166 21.5 -101.499s34 -60.833 59 -85.5s54.333 -44.167 88 -58.5s69.5 -21.5 107.5 -21.5c39.333 0 77.166 7.83301 113.499 23.5s68.166 37.167 95.499 64.5
s48.833 59.833 64.5 97.5s23.5 78.167 23.5 121.5v41h51v-41c0 -52 -8.83301 -99.667 -26.5 -143s-42.167 -80.833 -73.5 -112.5s-68.166 -56.667 -110.499 -75s-88.166 -27.5 -137.499 -27.5c-46.667 0 -89.667 8.5 -129 25.5s-73.666 39.833 -102.999 68.5
s-52.666 62.167 -69.999 100.5s-26 79.5 -26 123.5zM409.997 855.998c0 12 4.33301 22.5 13 31.5s20 13.5 34 13.5c12 0 22.5 -4.5 31.5 -13.5s13.5 -19.5 13.5 -31.5c0 -13.333 -4.5 -24.5 -13.5 -33.5s-19.5 -13.5 -31.5 -13.5c-13.333 0 -24.5 4.5 -33.5 13.5
s-13.5 20.167 -13.5 33.5z" />
    <glyph glyph-name="Agrave" unicode="&#xc0;" horiz-adv-x="1146" 
d="M553 1290h41l491 -1290h-51l-133 358h-655l-133 -358h-52zM266 410h615l-308 798zM584 1444h-31l-174 246h82z" />
    <glyph glyph-name="Aacute" unicode="&#xc1;" horiz-adv-x="1146" 
d="M686 1690h82l-174 -246h-31zM553 1290h41l491 -1290h-51l-133 358h-655l-133 -358h-52zM266 410h615l-308 798z" />
    <glyph glyph-name="Acircumflex" unicode="&#xc2;" horiz-adv-x="1146" 
d="M553 1669h41l205 -225h-62l-164 184l-163 -184h-62zM553 1290h41l491 -1290h-51l-133 358h-655l-133 -358h-52zM266 410h615l-308 798z" />
    <glyph glyph-name="Atilde" unicode="&#xc3;" horiz-adv-x="1146" 
d="M696 1487c26 0 47.999 10.333 65.999 31s26.667 51.334 26 92.001h52c0 -57.333 -13.667 -100.666 -41 -129.999s-61.666 -44 -102.999 -44c-26 0 -49.333 6.66699 -70 20c-21.333 13.333 -41.333 28.666 -60 45.999s-36.334 32.666 -53.001 45.999
c-17.333 13.333 -34.666 20.333 -51.999 21c-26 0 -48 -10.333 -66 -31s-26.667 -51.334 -26 -92.001h-52c0 57.333 13.667 100.666 41 129.999s61.666 44 102.999 44c26 0 49.333 -7 70 -21c21.333 -13.333 41.333 -28.666 60 -45.999s36.334 -32.666 53.001 -45.999
s34 -20 52 -20zM552.999 1290h41l491 -1290h-51l-133 358h-655l-133 -358h-52zM265.999 410h615l-308 798z" />
    <glyph glyph-name="Adieresis" unicode="&#xc4;" horiz-adv-x="1146" 
d="M471 1542c0 -13.333 -4.33301 -24.667 -13 -34c-8.66699 -8.66699 -20 -13 -34 -13c-12 0 -22.667 4.33301 -32 13c-8.66699 8.66699 -13 20 -13 34c0 12 4.33301 22.667 13 32c8.66699 8.66699 19.334 13 32.001 13c13.333 0 24.666 -4.33301 33.999 -13
c8.66699 -9.33301 13 -20 13 -32zM768 1542c0 -13.333 -4.33301 -24.667 -13 -34c-8.66699 -8.66699 -20 -13 -34 -13c-12 0 -22.667 4.33301 -32 13c-8.66699 8.66699 -13 20 -13 34c0 12 4.33301 22.667 13 32c8.66699 8.66699 19.334 13 32.001 13
c13.333 0 24.666 -4.33301 33.999 -13c8.66699 -9.33301 13 -20 13 -32zM553 1290h41l491 -1290h-51l-133 358h-655l-133 -358h-52zM266 409.998h615l-308 798z" />
    <glyph glyph-name="Aring" unicode="&#xc5;" horiz-adv-x="1146" 
d="M737 1567c0 -46.667 -15.666 -85.667 -46.999 -117s-70.333 -47 -117 -47s-85.334 15.667 -116.001 47c-31.333 31.333 -47 70.333 -47 117s15.667 85.334 47 116.001c31.333 31.333 70 47.333 116 48c46.667 0 85.667 -16 117 -48
c31.333 -30.667 47 -69.334 47 -116.001zM686.001 1567c0 31.333 -11.001 58 -33.001 80s-48.667 32.667 -80 32c-31.333 0 -57.666 -10.667 -78.999 -32c-22 -22 -33 -48.667 -33 -80s11 -58 33 -80s48.333 -33 79 -33c31.333 0 58 11 80 33s33 48.667 33 80zM553 1290h41
l491 -1290h-51l-133 358h-655l-133 -358h-52zM266 410h615l-308 798z" />
    <glyph glyph-name="AE" unicode="&#xc6;" horiz-adv-x="1607" 
d="M748 1290h737v-51h-635v-543h584v-51h-584v-594h655v-51h-706v369h-512l-205 -369h-62zM317 420h482v819h-21z" />
    <glyph glyph-name="Ccedilla" unicode="&#xc7;" horiz-adv-x="1310" 
d="M686 1249c-66.667 0 -131.5 -15.0039 -194.5 -45.0039s-118.667 -72 -167 -126s-87.166 -117.833 -116.499 -191.5s-44 -154.167 -44 -241.5s14.667 -167.833 44 -241.5s68.166 -137.5 116.499 -191.5s104 -96 167 -126s127.833 -45 194.5 -45
c117.333 0 215 34.833 293 104.5s137.333 161.167 178 274.5h51c-20.667 -64 -46.667 -122.333 -78 -175s-68.833 -97.834 -112.5 -135.501s-93.167 -67 -148.5 -88s-116.333 -31.5 -183 -31.5l-31 -72c40.667 0 73 -12.667 97 -38s36 -53.666 36 -84.999
s-12.5 -59.666 -37.5 -84.999s-63.5 -38 -115.5 -38c-10.667 0 -20.167 0.333008 -28.5 1s-15.833 1.66699 -22.5 3s-13.667 3.66602 -21 6.99902v41c6.66699 -2.66699 13.667 -5 21 -7c6.66699 -1.33301 14 -2.33301 22 -3s17.667 -1 29 -1
c35.333 0 61.166 8.5 77.499 25.5s24.5 35.833 24.5 56.5s-7.5 39.5 -22.5 56.5s-38.167 25.5 -69.5 25.5c-5.33301 0 -10.666 -0.666992 -15.999 -2s-11 -2.66602 -17 -3.99902c-5.33301 -1.33301 -11.333 -2.66602 -18 -3.99902l51 123c-69.333 8 -136.166 29 -200.499 63
s-121 79.667 -170 137s-88.167 124.333 -117.5 201s-44 161.334 -44 254.001c0 94 16 181.333 48 262s74.667 150 128 208s114.333 103.333 183 136s140 49 214 49c66.667 0 127.334 -10.167 182.001 -30.5s103.5 -49.666 146.5 -87.999s79.833 -83.666 110.5 -135.999
s55 -110.833 73 -175.5h-51c-18 56 -41 107.333 -69 154s-61.333 86.667 -100 120s-82.334 59.166 -131.001 77.499s-102.334 27.5 -161.001 27.5z" />
    <glyph glyph-name="Egrave" unicode="&#xc8;" horiz-adv-x="1054" 
d="M604 1444h-31l-174 246h82zM952 51v-51h-768v1290h748v-51h-696v-543h645v-51h-645v-594h716z" />
    <glyph glyph-name="Eacute" unicode="&#xc9;" horiz-adv-x="1054" 
d="M666 1690h82l-175 -246h-30zM952 51v-51h-768v1290h748v-51h-696v-543h645v-51h-645v-594h716z" />
    <glyph glyph-name="Ecircumflex" unicode="&#xca;" horiz-adv-x="1054" 
d="M553 1669h41l205 -225h-62l-164 184l-163 -184h-62zM952 51v-51h-768v1290h748v-51h-696v-543h645v-51h-645v-594h716z" />
    <glyph glyph-name="Edieresis" unicode="&#xcb;" horiz-adv-x="1054" 
d="M461 1542c0 -13.333 -4.66797 -24.667 -14.001 -34c-8.66699 -8.66699 -19.667 -13 -33 -13c-12 0 -22.667 4.33301 -32 13c-8.66699 8.66699 -13 20 -13 34c0 12 4.33301 22.667 13 32c8.66699 8.66699 19.334 13 32.001 13c13.333 0 24.333 -4.33301 33 -13
c9.33301 -9.33301 14 -20 14 -32zM757.999 1542c0 -13.333 -4.66797 -24.667 -14.001 -34c-8.66699 -8.66699 -19.667 -13 -33 -13c-12 0 -22.667 4.33301 -32 13c-8.66699 8.66699 -13 20 -13 34c0 12 4.33301 22.667 13 32c8.66699 8.66699 19.334 13 32.001 13
c13.333 0 24.333 -4.33301 33 -13c9.33301 -9.33301 14 -20 14 -32zM951.998 50.998v-51h-768v1290h748v-51h-696v-543h645v-51h-645v-594h716z" />
    <glyph glyph-name="Igrave" unicode="&#xcc;" horiz-adv-x="419" 
d="M225 1444h-30l-175 246h82zM236 0h-52v1290h52v-1290z" />
    <glyph glyph-name="Iacute" unicode="&#xcd;" horiz-adv-x="419" 
d="M317 1690h82l-174 -246h-30zM236 0h-52v1290h52v-1290z" />
    <glyph glyph-name="Icircumflex" unicode="&#xce;" horiz-adv-x="419" 
d="M195 1669h41l204 -225h-61l-164 184l-164 -184h-61zM236 0h-52v1290h52v-1290z" />
    <glyph glyph-name="Idieresis" unicode="&#xcf;" horiz-adv-x="419" 
d="M236 0h-52v1290h52v-1290zM113 1542c0 -13.333 -4.66699 -24.667 -14 -34c-8.66699 -8.66699 -19.667 -13 -33 -13c-12 0 -22.667 4.33301 -32 13c-8.66699 8.66699 -13.334 20 -14.001 34c0 12 4.66699 22.667 14 32c8.66699 8.66699 19.334 13 32.001 13
c13.333 0 24.333 -4.33301 33 -13c9.33301 -9.33301 14 -20 14 -32zM410 1542c0 -13.333 -4.66504 -24.667 -13.998 -34c-8.66699 -8.66699 -20 -13 -34 -13c-12 0 -22.333 4.33301 -31 13s-13.334 20 -14.001 34c0 12 4.66699 22.667 14 32c8.66699 8.66699 19 13 31 13
c13.333 0 24.666 -4.33301 33.999 -13c9.33301 -9.33301 14 -20 14 -32z" />
    <glyph glyph-name="Eth" unicode="&#xd0;" horiz-adv-x="1218" 
d="M20 666l185 -0.000976562v624h266c90 0 173.667 -16.333 251 -49s144.333 -77.667 201 -135s101.334 -125.666 134.001 -204.999s49 -164.666 49 -255.999c0 -92.667 -16.333 -178.334 -49 -257.001s-77.334 -146.667 -134.001 -204s-123.667 -102.333 -201 -135
s-161 -49 -251 -49h-266v614h-185v52zM471 50.999c82 0 158.333 14.998 229 44.998s132.667 71.667 186 125c52.667 53.333 94 116.333 124 189s45 151 45 235c0 84.667 -15 163.334 -45 236.001s-71.333 135.334 -124 188.001c-52.667 53.333 -114.667 95 -186 125
c-70.667 30 -147 45 -229 45h-215v-573h317v-52h-317v-563h215z" />
    <glyph glyph-name="Ntilde" unicode="&#xd1;" horiz-adv-x="1228" 
d="M737 1505c26 0 47.999 10.333 65.999 31s26.667 51.334 26 92.001h52c0 -57.333 -13.667 -100.666 -41 -129.999s-61.666 -44 -102.999 -44c-26 0 -49.333 7 -70 21c-21.333 13.333 -41.333 28.666 -60 45.999s-36.334 32.666 -53.001 45.999
c-17.333 13.333 -34.666 20 -51.999 20c-26 0 -48 -10.333 -66 -31s-26.667 -51.334 -26 -92.001h-52c0 57.333 13.667 100.666 41 129.999s61.666 44 102.999 44c26 0 49.333 -6.66699 70 -20c21.333 -13.333 41.333 -28.666 60 -45.999s36.334 -32.666 53.001 -45.999
c16.667 -14 34 -21 52 -21zM1044 1290v-1290h-40l-768 1188v-1188h-52v1290h41l768 -1188v1188h51z" />
    <glyph glyph-name="Ograve" unicode="&#xd2;" horiz-adv-x="1372" 
d="M707 1444h-31l-174 246h82zM1208 645c0 87.333 -14.668 168 -44.001 242s-68 137.667 -116 191c-48.667 54 -104.334 96 -167.001 126s-127.667 45 -195 45c-66.667 0 -131.334 -15 -194.001 -45s-118.334 -72 -167.001 -126s-87.667 -117.667 -117 -191
c-29.333 -74 -44 -154.667 -44 -242s14.667 -168 44 -242s68.333 -137.667 117 -191c48.667 -54 104.334 -96 167.001 -126s127.334 -45 194.001 -45s131.667 15 195 45c62.667 30 118.334 72 167.001 126s87.334 117.667 116.001 191c29.333 74 44 154.667 44 242z
M1260 645c0 -94 -16.333 -181.333 -49 -262c-32 -80.667 -74.667 -150 -128 -208s-114.333 -103.333 -183 -136s-140 -49 -214 -49s-145.333 16.333 -214 49s-129.667 78 -183 136s-96 127.333 -128 208s-48 168 -48 262s16 181.333 48 262s74.667 150 128 208
s114.333 103.333 183 136s140 49 214 49s145.333 -16.333 214 -49s129.667 -78 183 -136s96 -127.333 128 -208c32.667 -80.667 49 -168 49 -262z" />
    <glyph glyph-name="Oacute" unicode="&#xd3;" horiz-adv-x="1372" 
d="M799 1690h82l-174 -246h-31zM1208 645c0 87.333 -14.668 168 -44.001 242s-68 137.667 -116 191c-48.667 54 -104.334 96 -167.001 126s-127.667 45 -195 45c-66.667 0 -131.334 -15 -194.001 -45s-118.334 -72 -167.001 -126s-87.667 -117.667 -117 -191
c-29.333 -74 -44 -154.667 -44 -242s14.667 -168 44 -242s68.333 -137.667 117 -191c48.667 -54 104.334 -96 167.001 -126s127.334 -45 194.001 -45s131.667 15 195 45c62.667 30 118.334 72 167.001 126s87.334 117.667 116.001 191c29.333 74 44 154.667 44 242z
M1260 645c0 -94 -16.333 -181.333 -49 -262c-32 -80.667 -74.667 -150 -128 -208s-114.333 -103.333 -183 -136s-140 -49 -214 -49s-145.333 16.333 -214 49s-129.667 78 -183 136s-96 127.333 -128 208s-48 168 -48 262s16 181.333 48 262s74.667 150 128 208
s114.333 103.333 183 136s140 49 214 49s145.333 -16.333 214 -49s129.667 -78 183 -136s96 -127.333 128 -208c32.667 -80.667 49 -168 49 -262z" />
    <glyph glyph-name="Ocircumflex" unicode="&#xd4;" horiz-adv-x="1372" 
d="M666 1669h41l204 -225h-61l-164 184l-164 -184h-61zM1208 645c0 87.333 -14.668 168 -44.001 242s-68 137.667 -116 191c-48.667 54 -104.334 96 -167.001 126s-127.667 45 -195 45c-66.667 0 -131.334 -15 -194.001 -45s-118.334 -72 -167.001 -126
s-87.667 -117.667 -117 -191c-29.333 -74 -44 -154.667 -44 -242s14.667 -168 44 -242s68.333 -137.667 117 -191c48.667 -54 104.334 -96 167.001 -126s127.334 -45 194.001 -45s131.667 15 195 45c62.667 30 118.334 72 167.001 126s87.334 117.667 116.001 191
c29.333 74 44 154.667 44 242zM1260 645c0 -94 -16.333 -181.333 -49 -262c-32 -80.667 -74.667 -150 -128 -208s-114.333 -103.333 -183 -136s-140 -49 -214 -49s-145.333 16.333 -214 49s-129.667 78 -183 136s-96 127.333 -128 208s-48 168 -48 262s16 181.333 48 262
s74.667 150 128 208s114.333 103.333 183 136s140 49 214 49s145.333 -16.333 214 -49s129.667 -78 183 -136s96 -127.333 128 -208c32.667 -80.667 49 -168 49 -262z" />
    <glyph glyph-name="Otilde" unicode="&#xd5;" horiz-adv-x="1372" 
d="M809 1505c26 0 47.668 10.333 65.001 31c18 20.667 27 51.334 27 92.001h51c0 -57.333 -13.667 -100.666 -41 -129.999s-61.333 -44 -102 -44c-26 0 -49.667 7 -71 21c-21.333 13.333 -41 28.666 -59 45.999c-18.667 17.333 -36.334 32.666 -53.001 45.999
c-17.333 13.333 -35 20 -53 20c-26 0 -47.667 -10.333 -65 -31c-18 -20.667 -27 -51.334 -27 -92.001h-51c0 57.333 13.667 100.666 41 129.999s61.333 44 102 44c26 0 49.667 -6.66699 71 -20s41 -28.666 59 -45.999c18.667 -17.333 36.667 -32.666 54 -45.999
c16.667 -14 34 -21 52 -21zM1208 645c0 87.333 -14.668 168 -44.001 242s-68 137.667 -116 191c-48.667 54 -104.334 96 -167.001 126s-127.667 45 -195 45c-66.667 0 -131.334 -15 -194.001 -45s-118.334 -72 -167.001 -126s-87.667 -117.667 -117 -191
c-29.333 -74 -44 -154.667 -44 -242s14.667 -168 44 -242s68.333 -137.667 117 -191c48.667 -54 104.334 -96 167.001 -126s127.334 -45 194.001 -45s131.667 15 195 45c62.667 30 118.334 72 167.001 126s87.334 117.667 116.001 191c29.333 74 44 154.667 44 242z
M1260 645c0 -94 -16.333 -181.333 -49 -262c-32 -80.667 -74.667 -150 -128 -208s-114.333 -103.333 -183 -136s-140 -49 -214 -49s-145.333 16.333 -214 49s-129.667 78 -183 136s-96 127.333 -128 208s-48 168 -48 262s16 181.333 48 262s74.667 150 128 208
s114.333 103.333 183 136s140 49 214 49s145.333 -16.333 214 -49s129.667 -78 183 -136s96 -127.333 128 -208c32.667 -80.667 49 -168 49 -262z" />
    <glyph glyph-name="Odieresis" unicode="&#xd6;" horiz-adv-x="1372" 
d="M584 1542c0 -13.333 -4.66797 -24.667 -14.001 -34c-8.66699 -8.66699 -19.667 -13 -33 -13c-12 0 -22.667 4.33301 -32 13c-8.66699 8.66699 -13 20 -13 34c0 12 4.33301 22.667 13 32c8.66699 8.66699 19.334 13 32.001 13c13.333 0 24.333 -4.33301 33 -13
c9.33301 -9.33301 14 -20 14 -32zM880.999 1542c0 -13.333 -4.66699 -24.667 -14 -34c-8.66699 -8.66699 -19.667 -13 -33 -13c-12 0 -22.667 4.33301 -32 13c-8.66699 8.66699 -13.334 20 -14.001 34c0 12 4.66699 22.667 14 32c8.66699 8.66699 19.334 13 32.001 13
c13.333 0 24.333 -4.33301 33 -13c9.33301 -9.33301 14 -20 14 -32zM1208 644.998c0 87.333 -14.668 168 -44.001 242s-68 137.667 -116 191c-48.667 54 -104.334 96 -167.001 126s-127.667 45 -195 45c-66.667 0 -131.334 -15 -194.001 -45s-118.334 -72 -167.001 -126
s-87.667 -117.667 -117 -191c-29.333 -74 -44 -154.667 -44 -242s14.667 -168 44 -242s68.333 -137.667 117 -191c48.667 -54 104.334 -96 167.001 -126s127.334 -45 194.001 -45s131.667 15 195 45c62.667 30 118.334 72 167.001 126s87.334 117.667 116.001 191
c29.333 74 44 154.667 44 242zM1260 644.998c0 -94 -16.333 -181.333 -49 -262c-32 -80.667 -74.667 -150 -128 -208s-114.333 -103.333 -183 -136s-140 -49 -214 -49s-145.333 16.333 -214 49s-129.667 78 -183 136s-96 127.333 -128 208s-48 168 -48 262
s16 181.333 48 262s74.667 150 128 208s114.333 103.333 183 136s140 49 214 49s145.333 -16.333 214 -49s129.667 -78 183 -136s96 -127.333 128 -208c32.667 -80.667 49 -168 49 -262z" />
    <glyph glyph-name="multiply" unicode="&#xd7;" horiz-adv-x="860" 
d="M696 829l41 -30l-266 -277l266 -276l-41 -31l-266 277l-266 -277l-41 31l266 276l-266 277l41 30l266 -276z" />
    <glyph glyph-name="Oslash" unicode="&#xd8;" horiz-adv-x="1372" 
d="M1260 645c0 -94 -16.1689 -181.332 -48.502 -261.999s-75 -150 -128 -208s-114 -103.333 -183 -136s-140.5 -49 -214.5 -49c-82 0 -159.5 19 -232.5 57s-136.833 90.667 -191.5 158l-139 -133l-31 30l144 138c-38 56 -68 117.667 -90 185s-33 140.666 -33 219.999
c0 94 16 181.333 48 262s74.667 150 128 208s114.333 103.333 183 136s140 49 214 49c80.667 0 157.834 -19 231.501 -57s137.834 -91.333 192.501 -160l139 136l31 -31l-145 -139c38 -54.667 68.333 -116.167 91 -184.5s34 -141.5 34 -219.5zM163.998 645.001
c0 -70.667 9.83203 -137.167 29.499 -199.5s46.5 -118.833 80.5 -169.5l797 771c-49.333 64 -107.333 113.667 -174 149s-137 53 -211 53c-66.667 0 -131.5 -15 -194.5 -45s-118.667 -72 -167 -126s-87.166 -117.833 -116.499 -191.5s-44 -154.167 -44 -241.5zM1208 645.001
c0 70.667 -9.83301 136.833 -29.5 198.5s-46.5 117.834 -80.5 168.501l-799 -770c50.667 -62.667 109.334 -111.834 176.001 -147.501s137 -53.5 211 -53.5c66.667 0 131.5 15 194.5 45s118.667 72 167 126s87.166 117.833 116.499 191.5s44 154.167 44 241.5z" />
    <glyph glyph-name="Ugrave" unicode="&#xd9;" horiz-adv-x="1249" 
d="M645 1444h-31l-174 246h82zM625 -10c-66.667 0 -128.003 11.332 -184.003 33.999c-55.333 22.667 -102.666 55.334 -141.999 98.001c-39.333 43.333 -70 96 -92 158s-33 132.667 -33 212v798h51v-798c0 -72.667 10 -136.667 30 -192s47.333 -102.333 82 -141
s76.667 -68 126 -88s103.333 -30 162 -30s112.334 10 161.001 30c49.333 20 91.333 49.333 126 88s62 85.667 82 141s30 119.333 30 192v798h51v-798c0 -79.333 -11 -150 -33 -212s-52.667 -114.667 -92 -158s-86.666 -76 -141.999 -98
c-55.333 -22.667 -116.333 -34 -183 -34z" />
    <glyph glyph-name="Uacute" unicode="&#xda;" horiz-adv-x="1249" 
d="M727 1690h82l-174 -246h-31zM625 -10c-66.667 0 -128.003 11.332 -184.003 33.999c-55.333 22.667 -102.666 55.334 -141.999 98.001c-39.333 43.333 -70 96 -92 158s-33 132.667 -33 212v798h51v-798c0 -72.667 10 -136.667 30 -192s47.333 -102.333 82 -141
s76.667 -68 126 -88s103.333 -30 162 -30s112.334 10 161.001 30c49.333 20 91.333 49.333 126 88s62 85.667 82 141s30 119.333 30 192v798h51v-798c0 -79.333 -11 -150 -33 -212s-52.667 -114.667 -92 -158s-86.666 -76 -141.999 -98
c-55.333 -22.667 -116.333 -34 -183 -34z" />
    <glyph glyph-name="Ucircumflex" unicode="&#xdb;" horiz-adv-x="1249" 
d="M604 1659h41l205 -225h-62l-163 184l-164 -184h-62zM625 -10c-66.667 0 -128.003 11.332 -184.003 33.999c-55.333 22.667 -102.666 55.334 -141.999 98.001c-39.333 43.333 -70 96 -92 158s-33 132.667 -33 212v798h51v-798c0 -72.667 10 -136.667 30 -192
s47.333 -102.333 82 -141s76.667 -68 126 -88s103.333 -30 162 -30s112.334 10 161.001 30c49.333 20 91.333 49.333 126 88s62 85.667 82 141s30 119.333 30 192v798h51v-798c0 -79.333 -11 -150 -33 -212s-52.667 -114.667 -92 -158s-86.666 -76 -141.999 -98
c-55.333 -22.667 -116.333 -34 -183 -34z" />
    <glyph glyph-name="Udieresis" unicode="&#xdc;" horiz-adv-x="1249" 
d="M532 1542c0 -13.333 -4.33105 -24.667 -12.998 -34c-8.66699 -8.66699 -20 -13 -34 -13c-12 0 -22.333 4.33301 -31 13s-13.334 20 -14.001 34c0 12 4.66699 22.667 14 32c8.66699 8.66699 19 13 31 13c13.333 0 24.666 -4.33301 33.999 -13
c8.66699 -9.33301 13 -20 13 -32zM829.002 1542c0 -13.333 -4.33105 -24.667 -12.998 -34c-8.66699 -8.66699 -20 -13 -34 -13c-12 0 -22.333 4.33301 -31 13s-13.334 20 -14.001 34c0 12 4.66699 22.667 14 32c8.66699 8.66699 19 13 31 13
c13.333 0 24.666 -4.33301 33.999 -13c8.66699 -9.33301 13 -20 13 -32zM625.004 -10.002c-66.667 0 -128.003 11.332 -184.003 33.999c-55.333 22.667 -102.666 55.334 -141.999 98.001c-39.333 43.333 -70 96 -92 158s-33 132.667 -33 212v798h51v-798
c0 -72.667 10 -136.667 30 -192s47.333 -102.333 82 -141s76.667 -68 126 -88s103.333 -30 162 -30s112.334 10 161.001 30c49.333 20 91.333 49.333 126 88s62 85.667 82 141s30 119.333 30 192v798h51v-798c0 -79.333 -11 -150 -33 -212s-52.667 -114.667 -92 -158
s-86.666 -76 -141.999 -98c-55.333 -22.667 -116.333 -34 -183 -34z" />
    <glyph glyph-name="Yacute" unicode="&#xdd;" horiz-adv-x="1054" 
d="M645 1690h82l-174 -246h-31zM61 1290h62l399 -706h10l400 706h61l-440 -768v-522h-51v522z" />
    <glyph glyph-name="Thorn" unicode="&#xde;" horiz-adv-x="1208" 
d="M236 1290v-246.002h471c56 0 107.833 -9.5 155.5 -28.5s88.834 -45.167 123.501 -78.5s61.667 -72.5 81 -117.5s29 -92.833 29 -143.5c0 -52 -9.66699 -100.167 -29 -144.5s-46.333 -83.166 -81 -116.499s-75.834 -59.666 -123.501 -78.999s-99.5 -29 -155.5 -29h-471
v-307h-52v1290h52zM707 357.998c49.333 0 94.333 8.66699 135 26s76 40.333 106 69s53.5 62 70.5 100s25.5 79 25.5 123s-8.5 85 -25.5 123s-40.5 71.333 -70.5 100s-65.5 51.5 -106.5 68.5s-85.833 25.5 -134.5 25.5h-471v-635h471z" />
    <glyph glyph-name="germandbls" unicode="&#xdf;" horiz-adv-x="1034" 
d="M625 676c44 -5.33301 84.6689 -17.332 122.002 -35.999s69.666 -42.334 96.999 -71.001s48.833 -61.667 64.5 -99s23.5 -78 23.5 -122c0 -49.333 -8.83301 -95.166 -26.5 -137.499s-42.334 -79.166 -74.001 -110.499s-68.667 -55.833 -111 -73.5
s-87.833 -26.5 -136.5 -26.5h-133v51h133c40.667 0 79.167 7.83301 115.5 23.5s67.833 36.834 94.5 63.501s47.834 58.167 63.501 94.5s23.5 74.833 23.5 115.5c0 38 -7.83301 74.5 -23.5 109.5s-36.834 65.5 -63.501 91.5s-58.167 46.833 -94.5 62.5
s-74.833 23.5 -115.5 23.5h-82v51c38 0 73.667 7.16699 107 21.5s62.666 34.166 87.999 59.499s45.166 54.666 59.499 87.999s21.5 69.333 21.5 108c0 38 -7.16699 73.667 -21.5 107s-34.166 62.666 -59.499 87.999s-54.666 45.166 -87.999 59.499s-69 21.5 -107 21.5
c-44 0 -84.667 -7.83301 -122 -23.5s-69.666 -37.5 -96.999 -65.5s-48.833 -61.5 -64.5 -100.5s-23.5 -81.5 -23.5 -127.5v-922h-52v922c0 53.333 9.33301 102.5 28 147.5s43.667 83.833 75 116.5s68.833 58.167 112.5 76.5s91.5 27.5 143.5 27.5
c46.667 0 89.667 -8.5 129 -25.5s73.666 -40.167 102.999 -69.5s52.5 -63.833 69.5 -103.5s25.5 -82.5 25.5 -128.5c0 -57.333 -10.5 -104.166 -31.5 -140.499s-44.5 -65.5 -70.5 -87.5c-30 -24 -64 -43.667 -102 -59z" />
    <glyph glyph-name="agrave" unicode="&#xe0;" horiz-adv-x="911" 
d="M492 1073h-31l-174 246h82zM410 41c44 0 84.668 8.00098 122.001 24.001c38 16 71.667 38 101 66c28.667 28.667 51.334 63 68.001 103c17.333 40 26 85 26 135v102h-102c-94 0 -172.333 -6 -235 -18c-62 -12 -111.333 -28.667 -148 -50
c-36.667 -20.667 -62.334 -44.334 -77.001 -71.001c-14.667 -27.333 -22 -56 -22 -86c0 -57.333 22.667 -106 68 -146c45.333 -39.333 111.666 -59 198.999 -59zM461.001 911.001c46.667 0 89.334 -7.66504 128.001 -22.998c38.667 -16 72 -38.333 100 -67s50 -63 66 -103
s23.667 -84.667 23 -134v-584h-41l-10 184h-10c-18 -36.667 -41.333 -69.334 -70 -98.001c-24.667 -24.667 -56 -47 -94 -67s-85.667 -29.667 -143 -29c-102.667 0 -181.334 24.333 -236.001 73c-54.667 49.333 -82 110.333 -82 183c0 38 8.66699 73.667 26 107
s46.333 62.666 87 87.999s95.334 45.333 164.001 60c68 14.667 153.333 21.667 256 21h102v62c0 40.667 -6.66699 78 -20 112s-32 63 -56 87c-23.333 24 -51.333 43 -84 57c-32.667 13.333 -68 20 -106 20c-78 0 -138.333 -18.667 -181 -56
c-43.333 -37.333 -75.333 -87 -96 -149h-51c15.333 72.667 50.666 133.667 105.999 183c55.333 48.667 129.333 73 222 73z" />
    <glyph glyph-name="aacute" unicode="&#xe1;" horiz-adv-x="911" 
d="M563 1319h82l-174 -246h-31zM410 41c44 0 84.668 8.00098 122.001 24.001c38 16 71.667 38 101 66c28.667 28.667 51.334 63 68.001 103c17.333 40 26 85 26 135v102h-102c-94 0 -172.333 -6 -235 -18c-62 -12 -111.333 -28.667 -148 -50
c-36.667 -20.667 -62.334 -44.334 -77.001 -71.001c-14.667 -27.333 -22 -56 -22 -86c0 -57.333 22.667 -106 68 -146c45.333 -39.333 111.666 -59 198.999 -59zM461.001 911.001c46.667 0 89.334 -7.66504 128.001 -22.998c38.667 -16 72 -38.333 100 -67s50 -63 66 -103
s23.667 -84.667 23 -134v-584h-41l-10 184h-10c-18 -36.667 -41.333 -69.334 -70 -98.001c-24.667 -24.667 -56 -47 -94 -67s-85.667 -29.667 -143 -29c-102.667 0 -181.334 24.333 -236.001 73c-54.667 49.333 -82 110.333 -82 183c0 38 8.66699 73.667 26 107
s46.333 62.666 87 87.999s95.334 45.333 164.001 60c68 14.667 153.333 21.667 256 21h102v62c0 40.667 -6.66699 78 -20 112s-32 63 -56 87c-23.333 24 -51.333 43 -84 57c-32.667 13.333 -68 20 -106 20c-78 0 -138.333 -18.667 -181 -56
c-43.333 -37.333 -75.333 -87 -96 -149h-51c15.333 72.667 50.666 133.667 105.999 183c55.333 48.667 129.333 73 222 73z" />
    <glyph glyph-name="acircumflex" unicode="&#xe2;" horiz-adv-x="911" 
d="M440 1300h41l205 -225h-61l-164 185l-164 -185h-61zM410 41c44 0 84.668 8.00098 122.001 24.001c38 16 71.667 38 101 66c28.667 28.667 51.334 63 68.001 103c17.333 40 26 85 26 135v102h-102c-94 0 -172.333 -6 -235 -18c-62 -12 -111.333 -28.667 -148 -50
c-36.667 -20.667 -62.334 -44.334 -77.001 -71.001c-14.667 -27.333 -22 -56 -22 -86c0 -57.333 22.667 -106 68 -146c45.333 -39.333 111.666 -59 198.999 -59zM461.001 911.001c46.667 0 89.334 -7.66504 128.001 -22.998c38.667 -16 72 -38.333 100 -67s50 -63 66 -103
s23.667 -84.667 23 -134v-584h-41l-10 184h-10c-18 -36.667 -41.333 -69.334 -70 -98.001c-24.667 -24.667 -56 -47 -94 -67s-85.667 -29.667 -143 -29c-102.667 0 -181.334 24.333 -236.001 73c-54.667 49.333 -82 110.333 -82 183c0 38 8.66699 73.667 26 107
s46.333 62.666 87 87.999s95.334 45.333 164.001 60c68 14.667 153.333 21.667 256 21h102v62c0 40.667 -6.66699 78 -20 112s-32 63 -56 87c-23.333 24 -51.333 43 -84 57c-32.667 13.333 -68 20 -106 20c-78 0 -138.333 -18.667 -181 -56
c-43.333 -37.333 -75.333 -87 -96 -149h-51c15.333 72.667 50.666 133.667 105.999 183c55.333 48.667 129.333 73 222 73z" />
    <glyph glyph-name="atilde" unicode="&#xe3;" horiz-adv-x="911" 
d="M573 1116c26 0 47.998 10.332 65.998 30.999s27 51.334 27 92.001h51c0 -57.333 -13.667 -100.666 -41 -129.999s-61.666 -44 -102.999 -44c-26 0 -49.333 6.66699 -70 20c-21.333 13.333 -41.333 29 -60 47c-18.667 17.333 -36.334 32.666 -53.001 45.999
c-17.333 13.333 -34.666 20 -51.999 20c-26 0 -48 -10.333 -66 -31s-26.667 -51.334 -26 -92.001h-51c0 57.333 13.667 100.666 41 129.999s61.333 44 102 44c26 0 49.667 -6.66699 71 -20s41 -28.666 59 -45.999c18.667 -17.333 36.334 -32.666 53.001 -45.999
c16.667 -14 34 -21 52 -21zM409.998 40.999c44 0 84.668 8.00098 122.001 24.001c38 16 71.667 38 101 66c28.667 28.667 51.334 63 68.001 103c17.333 40 26 85 26 135v102h-102c-94 0 -172.333 -6 -235 -18c-62 -12 -111.333 -28.667 -148 -50
c-36.667 -20.667 -62.334 -44.334 -77.001 -71.001c-14.667 -27.333 -22 -56 -22 -86c0 -57.333 22.667 -106 68 -146c45.333 -39.333 111.666 -59 198.999 -59zM460.999 911c46.667 0 89.334 -7.66504 128.001 -22.998c38.667 -16 72 -38.333 100 -67s50 -63 66 -103
s23.667 -84.667 23 -134v-584h-41l-10 184h-10c-18 -36.667 -41.333 -69.334 -70 -98.001c-24.667 -24.667 -56 -47 -94 -67s-85.667 -29.667 -143 -29c-102.667 0 -181.334 24.333 -236.001 73c-54.667 49.333 -82 110.333 -82 183c0 38 8.66699 73.667 26 107
s46.333 62.666 87 87.999s95.334 45.333 164.001 60c68 14.667 153.333 21.667 256 21h102v62c0 40.667 -6.66699 78 -20 112s-32 63 -56 87c-23.333 24 -51.333 43 -84 57c-32.667 13.333 -68 20 -106 20c-78 0 -138.333 -18.667 -181 -56
c-43.333 -37.333 -75.333 -87 -96 -149h-51c15.333 72.667 50.666 133.667 105.999 183c55.333 48.667 129.333 73 222 73z" />
    <glyph glyph-name="adieresis" unicode="&#xe4;" horiz-adv-x="911" 
d="M358 1174c0 -13.333 -4.33105 -24.667 -12.998 -34c-8.66699 -8.66699 -20 -13.334 -34 -14.001c-12 0 -22.333 4.66699 -31 14c-8.66699 8.66699 -13.334 20 -14.001 34c0 12 4.66699 22.333 14 31c8.66699 8.66699 19 13.334 31 14.001
c13.333 0 24.666 -4.66699 33.999 -14c8.66699 -8.66699 13 -19 13 -31zM655.002 1174c0 -13.333 -4.33105 -24.667 -12.998 -34c-8.66699 -8.66699 -20 -13.334 -34 -14.001c-12 0 -22.333 4.66699 -31 14c-8.66699 8.66699 -13.334 20 -14.001 34
c0 12 4.66699 22.333 14 31c8.66699 8.66699 19 13.334 31 14.001c13.333 0 24.666 -4.66699 33.999 -14c8.66699 -8.66699 13 -19 13 -31zM410.004 40.998c44 0 84.668 8.00098 122.001 24.001c38 16 71.667 38 101 66c28.667 28.667 51.334 63 68.001 103
c17.333 40 26 85 26 135v102h-102c-94 0 -172.333 -6 -235 -18c-62 -12 -111.333 -28.667 -148 -50c-36.667 -20.667 -62.334 -44.334 -77.001 -71.001c-14.667 -27.333 -22 -56 -22 -86c0 -57.333 22.667 -106 68 -146c45.333 -39.333 111.666 -59 198.999 -59z
M461.005 910.999c46.667 0 89.334 -7.66504 128.001 -22.998c38.667 -16 72 -38.333 100 -67s50 -63 66 -103s23.667 -84.667 23 -134v-584h-41l-10 184h-10c-18 -36.667 -41.333 -69.334 -70 -98.001c-24.667 -24.667 -56 -47 -94 -67s-85.667 -29.667 -143 -29
c-102.667 0 -181.334 24.333 -236.001 73c-54.667 49.333 -82 110.333 -82 183c0 38 8.66699 73.667 26 107s46.333 62.666 87 87.999s95.334 45.333 164.001 60c68 14.667 153.333 21.667 256 21h102v62c0 40.667 -6.66699 78 -20 112s-32 63 -56 87
c-23.333 24 -51.333 43 -84 57c-32.667 13.333 -68 20 -106 20c-78 0 -138.333 -18.667 -181 -56c-43.333 -37.333 -75.333 -87 -96 -149h-51c15.333 72.667 50.666 133.667 105.999 183c55.333 48.667 129.333 73 222 73z" />
    <glyph glyph-name="aring" unicode="&#xe5;" horiz-adv-x="911" 
d="M625 1208c0 -46.667 -15.667 -85.333 -47 -116c-31.333 -31.333 -70.333 -47.333 -117 -48c-46.667 0 -85.667 16 -117 48c-31.333 31.333 -47 70 -47 116c0 46.667 15.667 85.667 47 117s70.333 47 117 47s85.667 -15.667 117 -47s47 -70.333 47 -117zM573 1208
c0 31.333 -10.667 58 -32 80c-22 22 -48.667 33 -80 33s-58 -11 -80 -33s-33 -48.667 -33 -80s11 -58 33 -80s48.667 -32.667 80 -32c31.333 0 58 10.667 80 32c21.333 22 32 48.667 32 80zM410 41.001c44 0 84.668 8.00098 122.001 24.001c38 16 71.667 38 101 66
c28.667 28.667 51.334 63 68.001 103c17.333 40 26 85 26 135v102h-102c-94 0 -172.333 -6 -235 -18c-62 -12 -111.333 -28.667 -148 -50c-36.667 -20.667 -62.334 -44.334 -77.001 -71.001c-14.667 -27.333 -22 -56 -22 -86c0 -57.333 22.667 -106 68 -146
c45.333 -39.333 111.666 -59 198.999 -59zM461.001 911.002c46.667 0 89.334 -7.66504 128.001 -22.998c38.667 -16 72 -38.333 100 -67s50 -63 66 -103s23.667 -84.667 23 -134v-584h-41l-10 184h-10c-18 -36.667 -41.333 -69.334 -70 -98.001
c-24.667 -24.667 -56 -47 -94 -67s-85.667 -29.667 -143 -29c-102.667 0 -181.334 24.333 -236.001 73c-54.667 49.333 -82 110.333 -82 183c0 38 8.66699 73.667 26 107s46.333 62.666 87 87.999s95.334 45.333 164.001 60c68 14.667 153.333 21.667 256 21h102v62
c0 40.667 -6.66699 78 -20 112s-32 63 -56 87c-23.333 24 -51.333 43 -84 57c-32.667 13.333 -68 20 -106 20c-78 0 -138.333 -18.667 -181 -56c-43.333 -37.333 -75.333 -87 -96 -149h-51c15.333 72.667 50.666 133.667 105.999 183c55.333 48.667 129.333 73 222 73z" />
    <glyph glyph-name="ae" unicode="&#xe6;" horiz-adv-x="1576" 
d="M1116 860c-44 0 -85.335 -9.16699 -124.002 -27.5s-73 -43.166 -103 -74.499s-54.667 -69.166 -74 -113.499s-31.666 -91.833 -36.999 -142.5h656c0 50.667 -9 98.167 -27 142.5s-41.667 82.166 -71 113.499s-63.166 56.166 -101.499 74.499s-77.833 27.5 -118.5 27.5z
M388.998 41c49.333 0 94.5 8.49902 135.5 25.499s76.5 40.167 106.5 69.5s53.5 63.833 70.5 103.5s25.5 82.834 25.5 129.501v82h-102c-94 0 -172.167 -6.16699 -234.5 -18.5s-112 -28.833 -149 -49.5s-62.667 -44.667 -77 -72s-21.5 -56 -21.5 -86
c0 -52 20.5 -95.667 61.5 -131s102.5 -53 184.5 -53zM757.998 265.999c-19.333 -52 -45.3301 -98.3359 -77.9971 -139.003c-28.667 -35.333 -66.167 -67 -112.5 -95s-105.833 -42 -178.5 -42c-98 0 -172 22.5 -222 67.5s-75 100.833 -75 167.5c0 38 8.5 73.833 25.5 107.5
s46 63.167 87 88.5s95.667 45.166 164 59.499s153.833 21.5 256.5 21.5h102v82c0 40.667 -6.83301 78.167 -20.5 112.5s-32.167 63.333 -55.5 87s-51.333 42.334 -84 56.001s-68 20.5 -106 20.5c-78 0 -138.5 -18.667 -181.5 -56s-74.833 -87 -95.5 -149h-51
c15.333 72.667 50.666 133.5 105.999 182.5s129.333 73.5 222 73.5c66.667 0 120.167 -13.667 160.5 -41s71.5 -56.666 93.5 -87.999c24.667 -36.667 42.334 -79 53.001 -127h10c19.333 48 44.666 90.333 75.999 127c27.333 31.333 62.5 60.666 105.5 87.999
s95.167 41 156.5 41c49.333 0 96.166 -10.167 140.499 -30.5s83.166 -48.666 116.499 -84.999s60.333 -78.666 81 -126.999s31 -100.5 31 -156.5c0 -8 -0.666992 -15.5 -2 -22.5l-4 -20.5c-1.33301 -6.66699 -2.66602 -12.667 -3.99902 -18h-697
c10.667 -134 48.167 -235.833 112.5 -305.5s142.833 -104.5 235.5 -104.5c32.667 0 63.5 5.16699 92.5 15.5s54.667 24.333 77 42s42.666 37.334 60.999 59.001s33.833 44.167 46.5 67.5h51c-12 -31.333 -28.333 -61 -49 -89s-45 -52.833 -73 -74.5s-59 -39 -93 -52
s-71.667 -19.5 -113 -19.5c-69.333 0 -126.833 14 -172.5 42s-82.167 59.667 -109.5 95c-32.667 40.667 -58 87 -76 139h-10z" />
    <glyph glyph-name="ccedilla" unicode="&#xe7;" horiz-adv-x="972" 
d="M512 860c-49.333 0 -96.1641 -10.165 -140.497 -30.498s-83.166 -49 -116.499 -86s-60.333 -80.333 -81 -130s-31 -103.834 -31 -162.501s10.333 -113 31 -163s47.667 -93.5 81 -130.5s72.166 -65.667 116.499 -86s91.166 -30.5 140.499 -30.5
c40.667 0 78.834 7.16699 114.501 21.5s67.5 32.833 95.5 55.5s51.833 48.667 71.5 78s35.167 59.666 46.5 90.999h51c-8 -35.333 -22.667 -70.5 -44 -105.5s-47.666 -66.167 -78.999 -93.5s-67.833 -49.833 -109.5 -67.5s-87.167 -27.834 -136.5 -30.501l-30 -72
c40.667 0 73 -12.667 97 -38s36 -53.666 36 -84.999s-12.667 -59.666 -38 -84.999s-64 -38 -116 -38c-10.667 0 -20.167 0.333008 -28.5 1s-15.833 1.66699 -22.5 3s-13.667 3.66602 -21 6.99902v41c6.66699 -2.66699 13.667 -5 21 -7
c6.66699 -1.33301 14.167 -2.33301 22.5 -3s17.833 -1 28.5 -1c35.333 0 61.166 8.5 77.499 25.5s24.5 35.833 24.5 56.5s-7.5 39.5 -22.5 56.5s-38.167 25.5 -69.5 25.5c-5.33301 0 -10.666 -0.666992 -15.999 -2l-16 -4
c-5.33301 -1.33301 -11.666 -2.66602 -18.999 -3.99902l51 123c-53.333 5.33301 -103.833 20.333 -151.5 45s-88.834 57.167 -123.501 97.5s-62.334 87.333 -83.001 141s-31 112.834 -31 177.501c0 66.667 11.333 128 34 184s53 104.5 91 145.5s82.667 73 134 96
s105 34.5 161 34.5c49.333 0 95.166 -8.83301 137.499 -26.5s80.166 -40.834 113.499 -69.501s61 -61.334 83 -98.001s37 -74.334 45 -113.001h-51c-10.667 32.667 -26 64.834 -46 96.501s-44 59 -72 82s-59.833 41.667 -95.5 56s-73.834 21.5 -114.501 21.5z" />
    <glyph glyph-name="egrave" unicode="&#xe8;" horiz-adv-x="1003" 
d="M532 1073h-30l-174 246h82zM881 215c-12 -26 -29.3301 -52.3311 -51.9971 -78.998c-22 -26.667 -47.667 -51 -77 -73c-30 -22 -64.333 -39.667 -103 -53c-38 -13.333 -80.333 -20 -127 -20c-58.667 0 -114.334 11.667 -167.001 35s-98.334 55.333 -137.001 96
s-69.334 89 -92.001 145s-34 117.667 -34 185c0 66.667 11.333 128 34 184s53 104.333 91 145s82.667 73 134 97c51.333 23.333 105 34.666 161 33.999c53.333 0 104.333 -10.667 153 -32c48.667 -22 91.334 -51.667 128.001 -89s65.667 -82 87 -134
c21.333 -51.333 31.666 -106 30.999 -164c0 -8 -0.666992 -15.667 -2 -23l-4 -20c-1.33301 -6.66699 -2.66602 -13 -3.99902 -19h-758c5.33301 -58.667 18.333 -112 39 -160s47.667 -89 81 -123s72 -60 116 -78c44 -18.667 91.667 -28 143 -28c38 0 73.333 5.66699 106 17
c32 11.333 60.667 25.666 86 42.999s47.666 36.333 66.999 57c20 20.667 36 39.667 48 57h52zM512.003 860.002c-49.333 0 -95 -9.66797 -137 -29.001s-79.667 -45.666 -113 -78.999c-32.667 -34 -59.334 -74.333 -80.001 -121s-33.667 -96.667 -39 -150h717
c0 53.333 -9.66699 103.333 -29 150s-44.666 87 -75.999 121c-32 34 -69 60.333 -111 79c-41.333 19.333 -85.333 29 -132 29z" />
    <glyph glyph-name="eacute" unicode="&#xe9;" horiz-adv-x="1003" 
d="M604 1319h82l-174 -246h-31zM881 215c-12 -26 -29.3301 -52.3311 -51.9971 -78.998c-22 -26.667 -47.667 -51 -77 -73c-30 -22 -64.333 -39.667 -103 -53c-38 -13.333 -80.333 -20 -127 -20c-58.667 0 -114.334 11.667 -167.001 35s-98.334 55.333 -137.001 96
s-69.334 89 -92.001 145s-34 117.667 -34 185c0 66.667 11.333 128 34 184s53 104.333 91 145s82.667 73 134 97c51.333 23.333 105 34.666 161 33.999c53.333 0 104.333 -10.667 153 -32c48.667 -22 91.334 -51.667 128.001 -89s65.667 -82 87 -134
c21.333 -51.333 31.666 -106 30.999 -164c0 -8 -0.666992 -15.667 -2 -23l-4 -20c-1.33301 -6.66699 -2.66602 -13 -3.99902 -19h-758c5.33301 -58.667 18.333 -112 39 -160s47.667 -89 81 -123s72 -60 116 -78c44 -18.667 91.667 -28 143 -28c38 0 73.333 5.66699 106 17
c32 11.333 60.667 25.666 86 42.999s47.666 36.333 66.999 57c20 20.667 36 39.667 48 57h52zM512.003 860.002c-49.333 0 -95 -9.66797 -137 -29.001s-79.667 -45.666 -113 -78.999c-32.667 -34 -59.334 -74.333 -80.001 -121s-33.667 -96.667 -39 -150h717
c0 53.333 -9.66699 103.333 -29 150s-44.666 87 -75.999 121c-32 34 -69 60.333 -111 79c-41.333 19.333 -85.333 29 -132 29z" />
    <glyph glyph-name="ecircumflex" unicode="&#xea;" horiz-adv-x="1003" 
d="M492 1300h40l205 -225h-61l-164 185l-164 -185h-61zM881 215c-12 -26 -29.3301 -52.3311 -51.9971 -78.998c-22 -26.667 -47.667 -51 -77 -73c-30 -22 -64.333 -39.667 -103 -53c-38 -13.333 -80.333 -20 -127 -20c-58.667 0 -114.334 11.667 -167.001 35
s-98.334 55.333 -137.001 96s-69.334 89 -92.001 145s-34 117.667 -34 185c0 66.667 11.333 128 34 184s53 104.333 91 145s82.667 73 134 97c51.333 23.333 105 34.666 161 33.999c53.333 0 104.333 -10.667 153 -32c48.667 -22 91.334 -51.667 128.001 -89
s65.667 -82 87 -134c21.333 -51.333 31.666 -106 30.999 -164c0 -8 -0.666992 -15.667 -2 -23l-4 -20c-1.33301 -6.66699 -2.66602 -13 -3.99902 -19h-758c5.33301 -58.667 18.333 -112 39 -160s47.667 -89 81 -123s72 -60 116 -78c44 -18.667 91.667 -28 143 -28
c38 0 73.333 5.66699 106 17c32 11.333 60.667 25.666 86 42.999s47.666 36.333 66.999 57c20 20.667 36 39.667 48 57h52zM512.003 860.002c-49.333 0 -95 -9.66797 -137 -29.001s-79.667 -45.666 -113 -78.999c-32.667 -34 -59.334 -74.333 -80.001 -121
s-33.667 -96.667 -39 -150h717c0 53.333 -9.66699 103.333 -29 150s-44.666 87 -75.999 121c-32 34 -69 60.333 -111 79c-41.333 19.333 -85.333 29 -132 29z" />
    <glyph glyph-name="edieresis" unicode="&#xeb;" horiz-adv-x="1003" 
d="M410 1174c0 -13.333 -4.66504 -24.667 -13.998 -34c-8.66699 -8.66699 -20 -13.334 -34 -14.001c-12 0 -22.333 4.66699 -31 14c-8.66699 8.66699 -13.334 20 -14.001 34c0 12 4.66699 22.333 14 31c8.66699 8.66699 19 13.334 31 14.001
c13.333 0 24.666 -4.66699 33.999 -14c9.33301 -8.66699 14 -19 14 -31zM707.002 1174c0 -13.333 -4.66504 -24.667 -13.998 -34c-8.66699 -8.66699 -20 -13.334 -34 -14.001c-12 0 -22.333 4.66699 -31 14c-8.66699 8.66699 -13.334 20 -14.001 34
c0 12 4.66699 22.333 14 31c8.66699 8.66699 19 13.334 31 14.001c13.333 0 24.666 -4.66699 33.999 -14c9.33301 -8.66699 14 -19 14 -31zM881.004 214.998c-12 -26 -29.3301 -52.3311 -51.9971 -78.998c-22 -26.667 -47.667 -51 -77 -73c-30 -22 -64.333 -39.667 -103 -53
c-38 -13.333 -80.333 -20 -127 -20c-58.667 0 -114.334 11.667 -167.001 35s-98.334 55.333 -137.001 96s-69.334 89 -92.001 145s-34 117.667 -34 185c0 66.667 11.333 128 34 184s53 104.333 91 145s82.667 73 134 97c51.333 23.333 105 34.666 161 33.999
c53.333 0 104.333 -10.667 153 -32c48.667 -22 91.334 -51.667 128.001 -89s65.667 -82 87 -134c21.333 -51.333 31.666 -106 30.999 -164c0 -8 -0.666992 -15.667 -2 -23l-4 -20c-1.33301 -6.66699 -2.66602 -13 -3.99902 -19h-758c5.33301 -58.667 18.333 -112 39 -160
s47.667 -89 81 -123s72 -60 116 -78c44 -18.667 91.667 -28 143 -28c38 0 73.333 5.66699 106 17c32 11.333 60.667 25.666 86 42.999s47.666 36.333 66.999 57c20 20.667 36 39.667 48 57h52zM512.007 860c-49.333 0 -95 -9.66797 -137 -29.001
s-79.667 -45.666 -113 -78.999c-32.667 -34 -59.334 -74.333 -80.001 -121s-33.667 -96.667 -39 -150h717c0 53.333 -9.66699 103.333 -29 150s-44.666 87 -75.999 121c-32 34 -69 60.333 -111 79c-41.333 19.333 -85.333 29 -132 29z" />
    <glyph glyph-name="igrave" unicode="&#xec;" horiz-adv-x="337" 
d="M184 1065h-30l-174 246h81zM195 0h-52v901h52v-901z" />
    <glyph glyph-name="iacute" unicode="&#xed;" horiz-adv-x="337" 
d="M276 1311h82l-174 -246h-30zM195 0h-52v901h52v-901z" />
    <glyph glyph-name="icircumflex" unicode="&#xee;" horiz-adv-x="337" 
d="M154 1300h41l204 -225h-61l-164 185l-164 -185h-61zM195 0h-52v901h52v-901z" />
    <glyph glyph-name="idieresis" unicode="&#xef;" horiz-adv-x="337" 
d="M72 1174c0 -13.333 -4.66797 -24.667 -14.001 -34c-8.66699 -8.66699 -19.667 -13.334 -33 -14.001c-12 0 -22.667 4.66699 -32 14c-8.66699 8.66699 -13 20 -13 34c0 12 4.33301 22.333 13 31s19.334 13.334 32.001 14.001c13.333 0 24.333 -4.66699 33 -14
c9.33301 -8.66699 14 -19 14 -31zM368.999 1174c0 -13.333 -4.66699 -24.667 -14 -34c-8.66699 -8.66699 -19.667 -13.334 -33 -14.001c-12 0 -22.667 4.66699 -32 14c-8.66699 8.66699 -13.334 20 -14.001 34c0 12 4.66699 22.333 14 31
c8.66699 8.66699 19.334 13.334 32.001 14.001c13.333 0 24.333 -4.66699 33 -14c9.33301 -8.66699 14 -19 14 -31zM194.999 -0.00195312h-52v901h52v-901z" />
    <glyph glyph-name="eth" unicode="&#xf0;" horiz-adv-x="1003" 
d="M369 1065l194.001 132.999c-31.333 23.333 -64 43.833 -98 61.5s-64.667 32.834 -92 45.501c-34 15.333 -66.333 27.333 -97 36l21 41c34 -10.667 68.667 -23.667 104 -39c30 -13.333 62.833 -29.166 98.5 -47.499s70.5 -40.5 104.5 -66.5l174 123l31 -41l-164 -113
c48 -44 90.333 -98.667 127 -164c31.333 -57.333 60.666 -129.333 87.999 -216s41 -192 41 -316c0 -82 -10.833 -154.833 -32.5 -218.5s-51 -117.334 -88 -161.001s-80.5 -76.667 -130.5 -99s-102.667 -33.5 -158 -33.5c-53.333 0 -104.333 10.833 -153 32.5
s-91.334 52 -128.001 91s-65.667 85.5 -87 139.5s-32 113 -32 177s10.667 123 32 177s50.333 100.5 87 139.5s79.334 69.333 128.001 91s99.667 32.5 153 32.5c66.667 0 122.167 -12.5 166.5 -37.5s80.166 -53.167 107.499 -84.5c31.333 -35.333 56 -76.333 74 -123h10
c-10.667 98 -29.667 181.167 -57 249.5s-54.666 124.166 -81.999 167.499c-34 50.667 -69.667 92.334 -107 125.001l-205 -143zM492.001 40.999c46.667 0 90.667 9.5 132 28.5s78 46 110 81s57.667 76.333 77 124s29 99.5 29 155.5s-9.66699 107.833 -29 155.5
s-45 89 -77 124s-68.833 62 -110.5 81s-85.5 28.5 -131.5 28.5c-46.667 0 -90.834 -9.5 -132.501 -28.5s-78.5 -46 -110.5 -81s-57.667 -76.333 -77 -124s-29 -99.5 -29 -155.5s9.66699 -107.833 29 -155.5s45 -89 77 -124s68.833 -62 110.5 -81s85.834 -28.5 132.501 -28.5
z" />
    <glyph glyph-name="ntilde" unicode="&#xf1;" horiz-adv-x="1003" 
d="M625 1137c26 0 47.665 10.002 64.998 30.002c18 20.667 27 51.667 27 93h51c0 -57.333 -13.667 -101 -41 -131c-27.333 -29.333 -61.333 -44 -102 -44c-26 0 -49.667 7 -71 21c-21.333 13.333 -41 28.666 -59 45.999c-18.667 17.333 -36.667 32.666 -54 45.999
s-34.666 20.333 -51.999 21c-26 0 -47.667 -10.333 -65 -31c-18 -20.667 -27 -51.334 -27 -92.001h-51c0 57.333 13.667 100.666 41 129.999s61.333 44 102 44c26 0 49.667 -7 71 -21c21.333 -13.333 41 -28.666 59 -45.999c18.667 -17.333 36.334 -32.666 53.001 -45.999
c17.333 -13.333 35 -20 53 -20zM511.998 911.002c50.667 0 97.9971 -9.00098 141.997 -27.001c44.667 -18.667 82.667 -44.667 114 -78s56.333 -73.333 75 -120s27.667 -98 27 -154v-532h-51v532c0 49.333 -7.66699 94.333 -23 135c-16 40 -37.667 74.333 -65 103
s-59.666 51 -96.999 67s-78 23.667 -122 23c-44 0 -85 -7.66699 -123 -23c-38 -16 -71.333 -38.333 -100 -67s-51.667 -63 -69 -103s-25.666 -85 -24.999 -135v-532h-52v901h41l11 -184h10c18 35.333 41 67.333 69 96c24.667 24.667 56.334 47.334 95.001 68.001
c38 20 85.667 30 143 30z" />
    <glyph glyph-name="ograve" unicode="&#xf2;" 
d="M543 1065h-31l-174 246h82zM143 451c0 -58.667 10.333 -113 31 -163s47.667 -93.333 81 -130s72.333 -65.334 117 -86.001s91.334 -31 140.001 -31c49.333 0 96 10.333 140 31c44.667 20.667 83.667 49.334 117 86.001s60.333 80 81 130s31 104.333 31 163
s-10.333 112.667 -31 162c-20.667 50 -47.667 93.333 -81 130s-72.333 65.334 -117 86.001s-91.334 31 -140.001 31c-49.333 0 -96 -10.333 -140 -31c-44.667 -20.667 -83.667 -49.334 -117 -86.001s-60.333 -80 -81 -130c-20.667 -49.333 -31 -103.333 -31 -162zM92 451
c0 66.667 11.333 128 34 184s53 104.333 91 145s82.667 73 134 97c51.333 23.333 105 34.666 161 33.999c56 0 109.667 -11.333 161 -34c51.333 -23.333 96 -55.666 134 -96.999c38 -40.667 68.333 -89 91 -145s34 -117.333 34 -184s-11.333 -128.334 -34 -185.001
c-22.667 -56 -53 -104.333 -91 -145s-82.667 -72.667 -134 -96s-105 -35 -161 -35s-109.667 11.667 -161 35s-96 55.333 -134 96s-68.333 89 -91 145c-22.667 56.667 -34 118.334 -34 185.001z" />
    <glyph glyph-name="oacute" unicode="&#xf3;" 
d="M625 1311h82l-175 -246h-30zM143 451c0 -58.667 10.333 -113 31 -163s47.667 -93.333 81 -130s72.333 -65.334 117 -86.001s91.334 -31 140.001 -31c49.333 0 96 10.333 140 31c44.667 20.667 83.667 49.334 117 86.001s60.333 80 81 130s31 104.333 31 163
s-10.333 112.667 -31 162c-20.667 50 -47.667 93.333 -81 130s-72.333 65.334 -117 86.001s-91.334 31 -140.001 31c-49.333 0 -96 -10.333 -140 -31c-44.667 -20.667 -83.667 -49.334 -117 -86.001s-60.333 -80 -81 -130c-20.667 -49.333 -31 -103.333 -31 -162zM92 451
c0 66.667 11.333 128 34 184s53 104.333 91 145s82.667 73 134 97c51.333 23.333 105 34.666 161 33.999c56 0 109.667 -11.333 161 -34c51.333 -23.333 96 -55.666 134 -96.999c38 -40.667 68.333 -89 91 -145s34 -117.333 34 -184s-11.333 -128.334 -34 -185.001
c-22.667 -56 -53 -104.333 -91 -145s-82.667 -72.667 -134 -96s-105 -35 -161 -35s-109.667 11.667 -161 35s-96 55.333 -134 96s-68.333 89 -91 145c-22.667 56.667 -34 118.334 -34 185.001z" />
    <glyph glyph-name="ocircumflex" unicode="&#xf4;" 
d="M512 1300h41l205 -225h-62l-164 185l-163 -185h-62zM143 451c0 -58.667 10.333 -113 31 -163s47.667 -93.333 81 -130s72.333 -65.334 117 -86.001s91.334 -31 140.001 -31c49.333 0 96 10.333 140 31c44.667 20.667 83.667 49.334 117 86.001s60.333 80 81 130
s31 104.333 31 163s-10.333 112.667 -31 162c-20.667 50 -47.667 93.333 -81 130s-72.333 65.334 -117 86.001s-91.334 31 -140.001 31c-49.333 0 -96 -10.333 -140 -31c-44.667 -20.667 -83.667 -49.334 -117 -86.001s-60.333 -80 -81 -130
c-20.667 -49.333 -31 -103.333 -31 -162zM92 451c0 66.667 11.333 128 34 184s53 104.333 91 145s82.667 73 134 97c51.333 23.333 105 34.666 161 33.999c56 0 109.667 -11.333 161 -34c51.333 -23.333 96 -55.666 134 -96.999c38 -40.667 68.333 -89 91 -145
s34 -117.333 34 -184s-11.333 -128.334 -34 -185.001c-22.667 -56 -53 -104.333 -91 -145s-82.667 -72.667 -134 -96s-105 -35 -161 -35s-109.667 11.667 -161 35s-96 55.333 -134 96s-68.333 89 -91 145c-22.667 56.667 -34 118.334 -34 185.001z" />
    <glyph glyph-name="otilde" unicode="&#xf5;" 
d="M635 1126c26 0 47.668 10.332 65.001 30.999c18 20.667 27 51.334 27 92.001h51c0 -57.333 -13.667 -100.666 -41 -129.999s-61.333 -44 -102 -44c-26 0 -49.667 7 -71 21c-21.333 13.333 -41 28.666 -59 45.999c-18.667 17.333 -36.334 32.666 -53.001 45.999
c-17.333 13.333 -35 20 -53 20c-26 0 -47.667 -10 -65 -30c-18 -20.667 -27 -51.667 -27 -93h-51c0 57.333 13.667 100.666 41 129.999s61.333 44.333 102 45c26 0 49.667 -7 71 -21c21.333 -13.333 41 -28.666 59 -45.999c18.667 -17.333 36.667 -32.666 54 -45.999
c16.667 -14 34 -21 52 -21zM143.001 450.999c0 -58.667 10.333 -113 31 -163s47.667 -93.333 81 -130s72.333 -65.334 117 -86.001s91.334 -31 140.001 -31c49.333 0 96 10.333 140 31c44.667 20.667 83.667 49.334 117 86.001s60.333 80 81 130s31 104.333 31 163
s-10.333 112.667 -31 162c-20.667 50 -47.667 93.333 -81 130s-72.333 65.334 -117 86.001s-91.334 31 -140.001 31c-49.333 0 -96 -10.333 -140 -31c-44.667 -20.667 -83.667 -49.334 -117 -86.001s-60.333 -80 -81 -130c-20.667 -49.333 -31 -103.333 -31 -162z
M92.001 450.999c0 66.667 11.333 128 34 184s53 104.333 91 145s82.667 73 134 97c51.333 23.333 105 34.666 161 33.999c56 0 109.667 -11.333 161 -34c51.333 -23.333 96 -55.666 134 -96.999c38 -40.667 68.333 -89 91 -145s34 -117.333 34 -184
s-11.333 -128.334 -34 -185.001c-22.667 -56 -53 -104.333 -91 -145s-82.667 -72.667 -134 -96s-105 -35 -161 -35s-109.667 11.667 -161 35s-96 55.333 -134 96s-68.333 89 -91 145c-22.667 56.667 -34 118.334 -34 185.001z" />
    <glyph glyph-name="odieresis" unicode="&#xf6;" 
d="M430 1174c0 -13.333 -4.33301 -24.667 -13 -34c-8.66699 -8.66699 -20 -13.334 -34 -14.001c-12 0 -22.667 4.66699 -32 14c-8.66699 8.66699 -13 20 -13 34c0 12 4.33301 22.333 13 31s19.334 13.334 32.001 14.001c13.333 0 24.666 -4.66699 33.999 -14
c8.66699 -8.66699 13 -19 13 -31zM727 1174c0 -13.333 -4.33301 -24.667 -13 -34c-8.66699 -8.66699 -20 -13.334 -34 -14.001c-12 0 -22.667 4.66699 -32 14c-8.66699 8.66699 -13 20 -13 34c0 12 4.33301 22.333 13 31s19.334 13.334 32.001 14.001
c13.333 0 24.666 -4.66699 33.999 -14c8.66699 -8.66699 13 -19 13 -31zM143 450.998c0 -58.667 10.333 -113 31 -163s47.667 -93.333 81 -130s72.333 -65.334 117 -86.001s91.334 -31 140.001 -31c49.333 0 96 10.333 140 31c44.667 20.667 83.667 49.334 117 86.001
s60.333 80 81 130s31 104.333 31 163s-10.333 112.667 -31 162c-20.667 50 -47.667 93.333 -81 130s-72.333 65.334 -117 86.001s-91.334 31 -140.001 31c-49.333 0 -96 -10.333 -140 -31c-44.667 -20.667 -83.667 -49.334 -117 -86.001s-60.333 -80 -81 -130
c-20.667 -49.333 -31 -103.333 -31 -162zM92 450.998c0 66.667 11.333 128 34 184s53 104.333 91 145s82.667 73 134 97c51.333 23.333 105 34.666 161 33.999c56 0 109.667 -11.333 161 -34c51.333 -23.333 96 -55.666 134 -96.999c38 -40.667 68.333 -89 91 -145
s34 -117.333 34 -184s-11.333 -128.334 -34 -185.001c-22.667 -56 -53 -104.333 -91 -145s-82.667 -72.667 -134 -96s-105 -35 -161 -35s-109.667 11.667 -161 35s-96 55.333 -134 96s-68.333 89 -91 145c-22.667 56.667 -34 118.334 -34 185.001z" />
    <glyph glyph-name="divide" unicode="&#xf7;" horiz-adv-x="870" 
d="M389 874c0 13.333 4.50098 24.667 13.501 34s20.167 14 33.5 14c12 0 22.5 -4.5 31.5 -13.5s13.5 -20.5 13.5 -34.5c0 -12 -4.33301 -22.5 -13 -31.5s-19.334 -13.5 -32.001 -13.5c-13.333 0 -24.5 4.5 -33.5 13.5s-13.5 19.5 -13.5 31.5zM61.001 553.001h748v-51h-748
v51zM389.001 180.001c0 12 4.50098 22.501 13.501 31.501s20.167 13.5 33.5 13.5c12 0 22.5 -4.33301 31.5 -13s13.5 -19.334 13.5 -32.001c0 -13.333 -4.33301 -24.5 -13 -33.5s-19.334 -13.5 -32.001 -13.5c-13.333 0 -24.5 4.5 -33.5 13.5s-13.5 20.167 -13.5 33.5z" />
    <glyph glyph-name="oslash" unicode="&#xf8;" 
d="M92 451c0 66.667 11.334 128.001 34.001 184.001s53 104.5 91 145.5s82.667 73 134 96s105 34.5 161 34.5c58.667 0 114 -12.5 166 -37.5s97.667 -59.5 137 -103.5l107 100l30 -30l-110 -105c27.333 -38 49.166 -80.833 65.499 -128.5s24.5 -99.5 24.5 -155.5
c0 -66.667 -11.333 -128.167 -34 -184.5s-53 -105 -91 -146s-82.667 -73 -134 -96s-105 -34.5 -161 -34.5c-60 0 -116 12.667 -168 38s-97.667 59.666 -137 102.999l-105 -100l-30 30l108 103c-27.333 39.333 -48.833 83 -64.5 131s-23.5 100 -23.5 156zM143.001 451.001
c0 -48 6.83203 -93.166 20.499 -135.499s32.167 -80.5 55.5 -114.5l559 532c-35.333 39.333 -75.833 70.333 -121.5 93s-93.834 34 -144.501 34c-49.333 0 -96.166 -10.167 -140.499 -30.5s-83.166 -49 -116.499 -86s-60.333 -80.333 -81 -130s-31 -103.834 -31 -162.501z
M881 451.002c0 48 -6.83105 92.667 -20.498 134s-32.167 79 -55.5 113l-559 -530c34 -39.333 73.833 -70.333 119.5 -93s94.5 -34 146.5 -34c49.333 0 96.166 10.167 140.499 30.5s83.166 49 116.499 86s60.333 80.5 81 130.5s31 104.333 31 163z" />
    <glyph glyph-name="ugrave" unicode="&#xf9;" horiz-adv-x="1013" 
d="M563 1073h-31l-174 246h82zM502 -10c-52 0 -99.998 9.00098 -143.998 27.001c-44 18.667 -81.333 44.667 -112 78c-31.333 33.333 -56.333 73.333 -75 120s-28 98 -28 154v532h52v-532c0 -49.333 7.66699 -94.333 23 -135c16 -40 37.667 -74.333 65 -103
s59.666 -50.667 96.999 -66c37.333 -16 78 -24 122 -24s85 8 123 24s71.333 38 100 66c28.667 28.667 51.667 63 69 103s25.666 85 24.999 135v532h51v-901h-41l-10 184h-10c-18 -36.667 -41.333 -69.334 -70 -98.001c-24.667 -24.667 -56 -47 -94 -67
c-38 -19.333 -85.667 -29 -143 -29z" />
    <glyph glyph-name="uacute" unicode="&#xfa;" horiz-adv-x="1013" 
d="M604 1321h82l-174 -246h-31zM502 -10c-52 0 -99.998 9.00098 -143.998 27.001c-44 18.667 -81.333 44.667 -112 78c-31.333 33.333 -56.333 73.333 -75 120s-28 98 -28 154v532h52v-532c0 -49.333 7.66699 -94.333 23 -135c16 -40 37.667 -74.333 65 -103
s59.666 -50.667 96.999 -66c37.333 -16 78 -24 122 -24s85 8 123 24s71.333 38 100 66c28.667 28.667 51.667 63 69 103s25.666 85 24.999 135v532h51v-901h-41l-10 184h-10c-18 -36.667 -41.333 -69.334 -70 -98.001c-24.667 -24.667 -56 -47 -94 -67
c-38 -19.333 -85.667 -29 -143 -29z" />
    <glyph glyph-name="ucircumflex" unicode="&#xfb;" horiz-adv-x="1013" 
d="M492 1300h40l205 -225h-61l-164 185l-164 -185h-61zM502 -10c-52 0 -99.998 9.00098 -143.998 27.001c-44 18.667 -81.333 44.667 -112 78c-31.333 33.333 -56.333 73.333 -75 120s-28 98 -28 154v532h52v-532c0 -49.333 7.66699 -94.333 23 -135
c16 -40 37.667 -74.333 65 -103s59.666 -50.667 96.999 -66c37.333 -16 78 -24 122 -24s85 8 123 24s71.333 38 100 66c28.667 28.667 51.667 63 69 103s25.666 85 24.999 135v532h51v-901h-41l-10 184h-10c-18 -36.667 -41.333 -69.334 -70 -98.001
c-24.667 -24.667 -56 -47 -94 -67c-38 -19.333 -85.667 -29 -143 -29z" />
    <glyph glyph-name="udieresis" unicode="&#xfc;" horiz-adv-x="1013" 
d="M410 1174c0 -13.333 -4.66504 -24.667 -13.998 -34c-8.66699 -8.66699 -20 -13.334 -34 -14.001c-12 0 -22.333 4.66699 -31 14c-8.66699 8.66699 -13.334 20 -14.001 34c0 12 4.66699 22.333 14 31c8.66699 8.66699 19 13.334 31 14.001
c13.333 0 24.666 -4.66699 33.999 -14c9.33301 -8.66699 14 -19 14 -31zM707.002 1174c0 -13.333 -4.66504 -24.667 -13.998 -34c-8.66699 -8.66699 -20 -13.334 -34 -14.001c-12 0 -22.333 4.66699 -31 14c-8.66699 8.66699 -13.334 20 -14.001 34
c0 12 4.66699 22.333 14 31c8.66699 8.66699 19 13.334 31 14.001c13.333 0 24.666 -4.66699 33.999 -14c9.33301 -8.66699 14 -19 14 -31zM502.004 -10.002c-52 0 -99.998 9.00098 -143.998 27.001c-44 18.667 -81.333 44.667 -112 78
c-31.333 33.333 -56.333 73.333 -75 120s-28 98 -28 154v532h52v-532c0 -49.333 7.66699 -94.333 23 -135c16 -40 37.667 -74.333 65 -103s59.666 -50.667 96.999 -66c37.333 -16 78 -24 122 -24s85 8 123 24s71.333 38 100 66c28.667 28.667 51.667 63 69 103
s25.666 85 24.999 135v532h51v-901h-41l-10 184h-10c-18 -36.667 -41.333 -69.334 -70 -98.001c-24.667 -24.667 -56 -47 -94 -67c-38 -19.333 -85.667 -29 -143 -29z" />
    <glyph glyph-name="yacute" unicode="&#xfd;" horiz-adv-x="880" 
d="M573 1319h82l-174 -246h-30zM829 901l-419.001 -1044c-27.333 -66.667 -59 -116 -95 -148c-35.333 -31.333 -79 -47 -131 -47c-8 0 -18.667 1.33301 -32 4c-5.33301 1.33301 -11.666 3.33301 -18.999 6v52c6.66699 -2.66699 13 -5 19 -7c13.333 -2.66699 24 -4 32 -4
c40.667 0 75 11 103 33c27.333 22 51 59 71 111l82 204l-389 840h51l359 -778h10l307 778h51z" />
    <glyph glyph-name="thorn" unicode="&#xfe;" horiz-adv-x="1085" 
d="M154 1290l50.999 0.000976562v-624h10l21 38c13.333 26 34.333 54.5 63 85.5s65.5 59 110.5 84s99.5 37.5 163.5 37.5c56 0 109.667 -11.5 161 -34.5s96.166 -55 134.499 -96s68.666 -89.5 90.999 -145.5s33.5 -117.333 33.5 -184s-11.167 -128.167 -33.5 -184.5
s-52.666 -105 -90.999 -146s-83.166 -73 -134.499 -96s-105 -34.5 -161 -34.5c-65.333 0 -120.166 12.667 -164.499 38s-80.833 53.666 -109.5 84.999c-34 35.333 -62 76.333 -84 123h-10v-564h-51v1618zM941.999 451.001c0 58.667 -10.167 112.834 -30.5 162.501
s-47.333 93 -81 130s-72.667 65.667 -117 86s-91.166 30.5 -140.499 30.5s-96 -10.167 -140 -30.5s-82.833 -49 -116.5 -86s-60.667 -80.333 -81 -130s-30.5 -103.834 -30.5 -162.501s10.167 -113 30.5 -163s47.333 -93.5 81 -130.5s72.667 -65.667 117 -86
s90.833 -30.5 139.5 -30.5c49.333 0 96.166 10.167 140.499 30.5s83.333 49 117 86s60.667 80.5 81 130.5s30.5 104.333 30.5 163z" />
    <glyph glyph-name="ydieresis" unicode="&#xff;" horiz-adv-x="880" 
d="M358 1174c0 -13.333 -4.33105 -24.667 -12.998 -34c-8.66699 -8.66699 -20 -13.334 -34 -14.001c-12 0 -22.333 4.66699 -31 14c-8.66699 8.66699 -13.334 20 -14.001 34c0 12 4.66699 22.333 14 31c8.66699 8.66699 19 13.334 31 14.001
c13.333 0 24.666 -4.66699 33.999 -14c8.66699 -8.66699 13 -19 13 -31zM655.002 1174c0 -13.333 -4.33105 -24.667 -12.998 -34c-8.66699 -8.66699 -20 -13.334 -34 -14.001c-12 0 -22.333 4.66699 -31 14c-8.66699 8.66699 -13.334 20 -14.001 34
c0 12 4.66699 22.333 14 31c8.66699 8.66699 19 13.334 31 14.001c13.333 0 24.666 -4.66699 33.999 -14c8.66699 -8.66699 13 -19 13 -31zM829.004 900.998l-419.001 -1044c-27.333 -66.667 -59 -116 -95 -148c-35.333 -31.333 -79 -47 -131 -47
c-8 0 -18.667 1.33301 -32 4c-5.33301 1.33301 -11.666 3.33301 -18.999 6v52c6.66699 -2.66699 13 -5 19 -7c13.333 -2.66699 24 -4 32 -4c40.667 0 75 11 103 33c27.333 22 51 59 71 111l82 204l-389 840h51l359 -778h10l307 778h51z" />
    <glyph glyph-name="Amacron" unicode="&#x100;" horiz-adv-x="1146" 
d="M809 1495h-471v51h471v-51zM553 1290h41l491 -1290h-51l-133 358h-655l-133 -358h-52zM266 410h615l-308 798z" />
    <glyph glyph-name="amacron" unicode="&#x101;" horiz-adv-x="911" 
d="M696 1147h-471v51h471v-51zM410 41c44 0 84.668 8.00098 122.001 24.001c38 16 71.667 38 101 66c28.667 28.667 51.334 63 68.001 103c17.333 40 26 85 26 135v102h-102c-94 0 -172.333 -6 -235 -18c-62 -12 -111.333 -28.667 -148 -50
c-36.667 -20.667 -62.334 -44.334 -77.001 -71.001c-14.667 -27.333 -22 -56 -22 -86c0 -57.333 22.667 -106 68 -146c45.333 -39.333 111.666 -59 198.999 -59zM461.001 911.001c46.667 0 89.334 -7.66504 128.001 -22.998c38.667 -16 72 -38.333 100 -67s50 -63 66 -103
s23.667 -84.667 23 -134v-584h-41l-10 184h-10c-18 -36.667 -41.333 -69.334 -70 -98.001c-24.667 -24.667 -56 -47 -94 -67s-85.667 -29.667 -143 -29c-102.667 0 -181.334 24.333 -236.001 73c-54.667 49.333 -82 110.333 -82 183c0 38 8.66699 73.667 26 107
s46.333 62.666 87 87.999s95.334 45.333 164.001 60c68 14.667 153.333 21.667 256 21h102v62c0 40.667 -6.66699 78 -20 112s-32 63 -56 87c-23.333 24 -51.333 43 -84 57c-32.667 13.333 -68 20 -106 20c-78 0 -138.333 -18.667 -181 -56
c-43.333 -37.333 -75.333 -87 -96 -149h-51c15.333 72.667 50.666 133.667 105.999 183c55.333 48.667 129.333 73 222 73z" />
    <glyph glyph-name="Abreve" unicode="&#x102;" horiz-adv-x="1146" 
d="M573 1485c40.667 0 77.0029 14.999 109.003 44.999c31.333 30 49.666 62.667 54.999 98h51c-2.66699 -26 -10 -50.667 -22 -74s-27.667 -43.666 -47 -60.999c-19.333 -18 -41.333 -32.333 -66 -43s-51.334 -16 -80.001 -16s-55 5.33301 -79 16
c-24.667 10.667 -46.667 25 -66 43s-35 38.333 -47 61c-12 23.333 -19.667 48 -23 74h52c5.33301 -35.333 23.666 -68 54.999 -98s67.333 -45 108 -45zM553.003 1290h41l491 -1290h-51l-133 358h-655l-133 -358h-52zM266.003 409.999h615l-308 798z" />
    <glyph glyph-name="abreve" unicode="&#x103;" horiz-adv-x="911" 
d="M461 1116c40.667 0 76.6709 15 108.004 45s50 63 56 99h51c-2.66699 -26 -10.334 -50.667 -23.001 -74c-12 -23.333 -27.667 -44 -47 -62s-41 -32.333 -65 -43c-24.667 -10.667 -51.334 -16 -80.001 -16s-55.334 5.33301 -80.001 16s-46.667 25 -66 43s-35 38.667 -47 62
s-19.333 48 -22 74h51c5.33301 -35.333 23.666 -68.333 54.999 -99c32 -30 68.333 -45 109 -45zM410.004 41c44 0 84.668 8.00098 122.001 24.001c38 16 71.667 38 101 66c28.667 28.667 51.334 63 68.001 103c17.333 40 26 85 26 135v102h-102c-94 0 -172.333 -6 -235 -18
c-62 -12 -111.333 -28.667 -148 -50c-36.667 -20.667 -62.334 -44.334 -77.001 -71.001c-14.667 -27.333 -22 -56 -22 -86c0 -57.333 22.667 -106 68 -146c45.333 -39.333 111.666 -59 198.999 -59zM461.005 911.001c46.667 0 89.334 -7.66504 128.001 -22.998
c38.667 -16 72 -38.333 100 -67s50 -63 66 -103s23.667 -84.667 23 -134v-584h-41l-10 184h-10c-18 -36.667 -41.333 -69.334 -70 -98.001c-24.667 -24.667 -56 -47 -94 -67s-85.667 -29.667 -143 -29c-102.667 0 -181.334 24.333 -236.001 73
c-54.667 49.333 -82 110.333 -82 183c0 38 8.66699 73.667 26 107s46.333 62.666 87 87.999s95.334 45.333 164.001 60c68 14.667 153.333 21.667 256 21h102v62c0 40.667 -6.66699 78 -20 112s-32 63 -56 87c-23.333 24 -51.333 43 -84 57c-32.667 13.333 -68 20 -106 20
c-78 0 -138.333 -18.667 -181 -56c-43.333 -37.333 -75.333 -87 -96 -149h-51c15.333 72.667 50.666 133.667 105.999 183c55.333 48.667 129.333 73 222 73z" />
    <glyph glyph-name="Aogonek" unicode="&#x104;" horiz-adv-x="1146" 
d="M901 358h-655l-133 -358h-52l492 1290h41l491 -1290c-18 -16.667 -33.667 -34.334 -47 -53.001c-10.667 -16.667 -20.834 -35.167 -30.501 -55.5s-14.5 -42.166 -14.5 -65.499c0 -31.333 10 -56.166 30 -74.499s47.667 -27.5 83 -27.5
c6.66699 0 13.834 0.333008 21.501 1s14.834 1.66699 21.501 3s12.667 3.33301 18 6v-51c-5.33301 -2.66699 -11.333 -5 -18 -7c-6.66699 -1.33301 -13.834 -2.33301 -21.501 -3s-14.834 -1 -21.501 -1c-52 0 -92.333 14 -121 42s-43 65.333 -43 112
c0 23.333 4.83301 45.166 14.5 65.499s19.834 38.833 30.501 55.5c13.333 19.333 29 37 47 53zM266 410h615l-308 798z" />
    <glyph glyph-name="aogonek" unicode="&#x105;" horiz-adv-x="911" 
d="M727 184l-9.99414 0.00390625c-18 -36.667 -41.333 -69.334 -70 -98.001c-24.667 -24.667 -56 -46.834 -94 -66.501s-85.667 -29.5 -143 -29.5c-102.667 0 -181.334 24.5 -236.001 73.5s-82 109.833 -82 182.5c0 38 8.5 73.667 25.5 107s46 62.666 87 87.999
s95.667 45.166 164 59.499s153.833 21.5 256.5 21.5h102v62c0 40.667 -6.83301 78.167 -20.5 112.5s-32.167 63.333 -55.5 87s-51.333 42.334 -84 56.001s-68 20.5 -106 20.5c-78 0 -138.5 -18.667 -181.5 -56s-74.833 -87 -95.5 -149h-51
c15.333 72.667 50.666 133.5 105.999 182.5s129.333 73.5 222 73.5c46.667 0 89.334 -7.83301 128.001 -23.5s72 -37.834 100 -66.501s49.833 -63.167 65.5 -103.5s23.5 -84.833 23.5 -133.5v-584c-18 -16.667 -33.667 -34.334 -47 -53.001
c-10.667 -16.667 -20.834 -35.167 -30.501 -55.5s-14.5 -42.166 -14.5 -65.499c0 -31.333 9.83301 -56.166 29.5 -74.499s47.5 -27.5 83.5 -27.5c6.66699 0 13.667 0.333008 21 1s14.666 1.66699 21.999 3c6.66699 1.33301 12.667 3.33301 18 6v-51
c-5.33301 -2.66699 -11.333 -5 -18 -7c-6.66699 -1.33301 -13.834 -2.33301 -21.501 -3s-14.834 -1 -21.501 -1c-52 0 -92.333 14 -121 42s-43 65.333 -43 112c0 23.333 5.16699 45.166 15.5 65.499s22.166 38.833 35.499 55.5c15.333 19.333 32.333 37 51 53z
M410.006 41.0039c44 0 85.001 7.83105 123.001 23.498s71.333 37.834 100 66.501s51.5 63.167 68.5 103.5s25.5 85.166 25.5 134.499v102h-102c-94 0 -172.167 -6.16699 -234.5 -18.5s-112 -28.666 -149 -48.999s-62.667 -44.166 -77 -71.499s-21.5 -56 -21.5 -86
c0 -57.333 22.667 -105.833 68 -145.5s111.666 -59.5 198.999 -59.5z" />
    <glyph glyph-name="Cacute" unicode="&#x106;" horiz-adv-x="1310" 
d="M788 1690h82l-174 -246h-30zM686 1249c-66.667 0 -131.332 -14.999 -193.999 -44.999s-118.334 -72 -167.001 -126s-87.667 -117.667 -117 -191c-29.333 -74 -44 -154.667 -44 -242s14.667 -168 44 -242s68.333 -137.667 117 -191c48.667 -54 104.334 -96 167.001 -126
s127.334 -45 194.001 -45c117.333 0 215 34.667 293 104s137.333 161 178 275h51c-20.667 -64 -47 -122.333 -79 -175s-69.667 -98 -113 -136c-44 -38 -93.333 -67.667 -148 -89c-54.667 -20.667 -115.334 -30.667 -182.001 -30c-74 0 -145.333 16.333 -214 49
s-129.667 78 -183 136s-96 127.333 -128 208s-48 168 -48 262s16 181.333 48 262s74.667 150 128 208s114.333 103.333 183 136s140 49 214 49c66.667 0 127.334 -10 182.001 -30c54.667 -20.667 103.667 -50 147 -88s80 -83.333 110 -136
c30.667 -52.667 55 -111.334 73 -176.001h-51c-18 56 -41 107.333 -69 154s-61.333 86.667 -100 120s-82.334 59.333 -131.001 78c-48.667 18 -102.334 27 -161.001 27z" />
    <glyph glyph-name="cacute" unicode="&#x107;" horiz-adv-x="972" 
d="M614 1319h82l-174 -246h-30zM512 860c-49.333 0 -96.001 -10.3271 -140.001 -30.9941c-44.667 -20.667 -83.667 -49.334 -117 -86.001s-60.333 -80 -81 -130s-31 -104 -31 -162c0 -58.667 10.333 -113 31 -163s47.667 -93.333 81 -130s72.333 -65.334 117 -86.001
s91.334 -31 140.001 -31c40.667 0 79 7 115 21c35.333 14.667 67 33.334 95 56.001s52 48.667 72 78s35.333 59.666 46 90.999h51c-8 -35.333 -23 -71 -45 -107c-22 -35.333 -49.667 -67 -83 -95s-71.333 -51 -114 -69c-42 -18 -87.667 -26.667 -137 -26
c-56 0 -109.667 11.667 -161 35s-96 55.333 -134 96s-68.333 89 -91 145s-34 117.667 -34 185c0 66.667 11.333 128 34 184s53 104.333 91 145s82.667 73 134 97c51.333 23.333 105 34.666 161 33.999c49.333 0 95 -8.66699 137 -26c42 -18 80 -41.333 114 -70
c33.333 -28.667 61 -61.334 83 -98.001s37 -74.334 45 -113.001h-51c-10.667 32.667 -26 64.667 -46 96s-44 58.666 -72 81.999s-59.667 42.333 -95 57c-36 14 -74.333 21 -115 21z" />
    <glyph glyph-name="Ccircumflex" unicode="&#x108;" horiz-adv-x="1310" 
d="M666 1669h41l204 -225h-61l-164 184l-164 -184h-61zM686 1249c-66.667 0 -131.332 -14.999 -193.999 -44.999s-118.334 -72 -167.001 -126s-87.667 -117.667 -117 -191c-29.333 -74 -44 -154.667 -44 -242s14.667 -168 44 -242s68.333 -137.667 117 -191
c48.667 -54 104.334 -96 167.001 -126s127.334 -45 194.001 -45c117.333 0 215 34.667 293 104s137.333 161 178 275h51c-20.667 -64 -47 -122.333 -79 -175s-69.667 -98 -113 -136c-44 -38 -93.333 -67.667 -148 -89c-54.667 -20.667 -115.334 -30.667 -182.001 -30
c-74 0 -145.333 16.333 -214 49s-129.667 78 -183 136s-96 127.333 -128 208s-48 168 -48 262s16 181.333 48 262s74.667 150 128 208s114.333 103.333 183 136s140 49 214 49c66.667 0 127.334 -10 182.001 -30c54.667 -20.667 103.667 -50 147 -88s80 -83.333 110 -136
c30.667 -52.667 55 -111.334 73 -176.001h-51c-18 56 -41 107.333 -69 154s-61.333 86.667 -100 120s-82.334 59.333 -131.001 78c-48.667 18 -102.334 27 -161.001 27z" />
    <glyph glyph-name="ccircumflex" unicode="&#x109;" horiz-adv-x="972" 
d="M492 1300h40l205 -225h-61l-164 185l-164 -185h-61zM512 860c-49.333 0 -96.001 -10.3271 -140.001 -30.9941c-44.667 -20.667 -83.667 -49.334 -117 -86.001s-60.333 -80 -81 -130s-31 -104 -31 -162c0 -58.667 10.333 -113 31 -163s47.667 -93.333 81 -130
s72.333 -65.334 117 -86.001s91.334 -31 140.001 -31c40.667 0 79 7 115 21c35.333 14.667 67 33.334 95 56.001s52 48.667 72 78s35.333 59.666 46 90.999h51c-8 -35.333 -23 -71 -45 -107c-22 -35.333 -49.667 -67 -83 -95s-71.333 -51 -114 -69
c-42 -18 -87.667 -26.667 -137 -26c-56 0 -109.667 11.667 -161 35s-96 55.333 -134 96s-68.333 89 -91 145s-34 117.667 -34 185c0 66.667 11.333 128 34 184s53 104.333 91 145s82.667 73 134 97c51.333 23.333 105 34.666 161 33.999c49.333 0 95 -8.66699 137 -26
c42 -18 80 -41.333 114 -70c33.333 -28.667 61 -61.334 83 -98.001s37 -74.334 45 -113.001h-51c-10.667 32.667 -26 64.667 -46 96s-44 58.666 -72 81.999s-59.667 42.333 -95 57c-36 14 -74.333 21 -115 21z" />
    <glyph glyph-name="Ccaron" unicode="&#x10c;" horiz-adv-x="1310" 
d="M451 1669h61l164 -184l164 184h61l-205 -225h-41zM686 1249c-66.667 0 -131.332 -14.999 -193.999 -44.999s-118.334 -72 -167.001 -126s-87.667 -117.667 -117 -191c-29.333 -74 -44 -154.667 -44 -242s14.667 -168 44 -242s68.333 -137.667 117 -191
c48.667 -54 104.334 -96 167.001 -126s127.334 -45 194.001 -45c117.333 0 215 34.667 293 104s137.333 161 178 275h51c-20.667 -64 -47 -122.333 -79 -175s-69.667 -98 -113 -136c-44 -38 -93.333 -67.667 -148 -89c-54.667 -20.667 -115.334 -30.667 -182.001 -30
c-74 0 -145.333 16.333 -214 49s-129.667 78 -183 136s-96 127.333 -128 208s-48 168 -48 262s16 181.333 48 262s74.667 150 128 208s114.333 103.333 183 136s140 49 214 49c66.667 0 127.334 -10 182.001 -30c54.667 -20.667 103.667 -50 147 -88s80 -83.333 110 -136
c30.667 -52.667 55 -111.334 73 -176.001h-51c-18 56 -41 107.333 -69 154s-61.333 86.667 -100 120s-82.334 59.333 -131.001 78c-48.667 18 -102.334 27 -161.001 27z" />
    <glyph glyph-name="ccaron" unicode="&#x10d;" horiz-adv-x="972" 
d="M287 1300h61l164 -184l164 184h61l-205 -225h-40zM512 860c-49.333 0 -96.001 -10.3271 -140.001 -30.9941c-44.667 -20.667 -83.667 -49.334 -117 -86.001s-60.333 -80 -81 -130s-31 -104 -31 -162c0 -58.667 10.333 -113 31 -163s47.667 -93.333 81 -130
s72.333 -65.334 117 -86.001s91.334 -31 140.001 -31c40.667 0 79 7 115 21c35.333 14.667 67 33.334 95 56.001s52 48.667 72 78s35.333 59.666 46 90.999h51c-8 -35.333 -23 -71 -45 -107c-22 -35.333 -49.667 -67 -83 -95s-71.333 -51 -114 -69
c-42 -18 -87.667 -26.667 -137 -26c-56 0 -109.667 11.667 -161 35s-96 55.333 -134 96s-68.333 89 -91 145s-34 117.667 -34 185c0 66.667 11.333 128 34 184s53 104.333 91 145s82.667 73 134 97c51.333 23.333 105 34.666 161 33.999c49.333 0 95 -8.66699 137 -26
c42 -18 80 -41.333 114 -70c33.333 -28.667 61 -61.334 83 -98.001s37 -74.334 45 -113.001h-51c-10.667 32.667 -26 64.667 -46 96s-44 58.666 -72 81.999s-59.667 42.333 -95 57c-36 14 -74.333 21 -115 21z" />
    <glyph glyph-name="Dcaron" unicode="&#x10e;" horiz-adv-x="1198" 
d="M369 1669h61l164 -184l164 184h61l-205 -225h-41zM451 51c82 0 158.333 14.998 229 44.998s132.334 71.667 185.001 125s94 116.333 124 189s45 151 45 235c0 84.667 -15 163.334 -45 236.001s-71.333 135.334 -124 188.001c-52.667 53.333 -114.334 95 -185.001 125
s-147 45 -229 45h-215v-1188h215zM1085 644.998c0 -92.667 -16.334 -178.335 -49.001 -257.002s-77.334 -146.667 -134.001 -204s-123.667 -102.333 -201 -135s-160.666 -49 -249.999 -49h-267v1290h267c90 0 173.333 -16.333 250 -49
c77.333 -32.667 144.333 -77.667 201 -135s101.334 -125.666 134.001 -204.999s49 -164.666 49 -255.999z" />
    <glyph glyph-name="dcaron" unicode="&#x10f;" horiz-adv-x="1157" 
d="M1137 1290h82l-113 -246h-41zM932 0l-41 -0.000976562l-10 236h-11c-22 -46.667 -50 -87.667 -84 -123c-28.667 -31.333 -65.5 -59.666 -110.5 -84.999s-99.5 -38 -163.5 -38c-56 0 -109.667 11.5 -161 34.5s-96 55 -134 96s-68.333 89.5 -91 145.5s-34 117.667 -34 185
c0 66.667 11.333 128 34 184s53 104.5 91 145.5s82.667 73 134 96s105 34.5 161 34.5c64 0 118.5 -12.5 163.5 -37.5s81.833 -53 110.5 -84s50 -59.5 64 -85.5l20 -38h11v624h51v-1290zM143 450.999c0 -58.667 10.333 -113 31 -163s47.667 -93.5 81 -130.5
s72.166 -65.667 116.499 -86s91.166 -30.5 140.499 -30.5s96.166 10.167 140.499 30.5s83.166 49 116.499 86s60.333 80.333 81 130s31 104.167 31 163.5c0 58.667 -10.333 112.834 -31 162.501s-47.667 93 -81 130s-72.166 65.667 -116.499 86s-91.166 30.5 -140.499 30.5
s-96.166 -10.167 -140.499 -30.5s-83.166 -49 -116.499 -86s-60.333 -80.333 -81 -130s-31 -103.834 -31 -162.501z" />
    <glyph glyph-name="Dcroat" unicode="&#x110;" horiz-adv-x="1218" 
d="M20 666l185 -0.000976562v624h266c90 0 173.667 -16.333 251 -49s144.333 -77.667 201 -135s101.334 -125.666 134.001 -204.999s49 -164.666 49 -255.999c0 -92.667 -16.333 -178.334 -49 -257.001s-77.334 -146.667 -134.001 -204s-123.667 -102.333 -201 -135
s-161 -49 -251 -49h-266v614h-185v52zM471 50.999c82 0 158.5 15.002 229.5 45.002s132.833 71.667 185.5 125s94 116.166 124 188.499s45 150.833 45 235.5s-15 163.167 -45 235.5s-71.333 135.166 -124 188.499s-114.5 95 -185.5 125s-147.5 45 -229.5 45h-215v-573h317
v-52h-317v-563h215z" />
    <glyph glyph-name="dcroat" unicode="&#x111;" horiz-adv-x="1085" 
d="M563 1096l286.999 -0.00195312v194h51v-194h195v-52h-195v-1044h-41l-10 215h-10c-22 -42 -49.333 -79.667 -82 -113c-28.667 -28.667 -64.834 -54.5 -108.501 -77.5s-96.167 -34.5 -157.5 -34.5c-56 0 -109 10.833 -159 32.5s-93.5 51.334 -130.5 89.001
s-66.333 82.167 -88 133.5s-32.5 106.333 -32.5 165s10.833 113.5 32.5 164.5s51 95.333 88 133s80.5 67.334 130.5 89.001s103 32.5 159 32.5c61.333 0 113.833 -11.5 157.5 -34.5s79.834 -48.5 108.501 -76.5s49.334 -54 62.001 -78l20 -36h10v440h-287v52z
M132.999 409.998c0 -52 9.5 -100.167 28.5 -144.5s45 -83.333 78 -117s71 -60 114 -79s89.167 -28.5 138.5 -28.5s95.333 9.5 138 28.5s80.5 45.333 113.5 79s59 72.667 78 117s28.5 92.5 28.5 144.5c0 50.667 -9.5 98.5 -28.5 143.5s-45 84.167 -78 117.5
s-71 59.5 -114 78.5s-88.833 28.5 -137.5 28.5c-49.333 0 -95.5 -9.5 -138.5 -28.5s-81 -45.167 -114 -78.5s-59 -72.5 -78 -117.5s-28.5 -92.833 -28.5 -143.5z" />
    <glyph glyph-name="Emacron" unicode="&#x112;" horiz-adv-x="1054" 
d="M809 1516h-471v51h471v-51zM952 51v-51h-768v1290h748v-51h-696v-543h645v-51h-645v-594h716z" />
    <glyph glyph-name="emacron" unicode="&#x113;" horiz-adv-x="1003" 
d="M748 1147h-472v51h472v-51zM881 215c-12 -26 -29.3301 -52.3311 -51.9971 -78.998c-22 -26.667 -47.667 -51 -77 -73c-30 -22 -64.333 -39.667 -103 -53c-38 -13.333 -80.333 -20 -127 -20c-58.667 0 -114.334 11.667 -167.001 35s-98.334 55.333 -137.001 96
s-69.334 89 -92.001 145s-34 117.667 -34 185c0 66.667 11.333 128 34 184s53 104.333 91 145s82.667 73 134 97c51.333 23.333 105 34.666 161 33.999c53.333 0 104.333 -10.667 153 -32c48.667 -22 91.334 -51.667 128.001 -89s65.667 -82 87 -134
c21.333 -51.333 31.666 -106 30.999 -164c0 -8 -0.666992 -15.667 -2 -23l-4 -20c-1.33301 -6.66699 -2.66602 -13 -3.99902 -19h-758c5.33301 -58.667 18.333 -112 39 -160s47.667 -89 81 -123s72 -60 116 -78c44 -18.667 91.667 -28 143 -28c38 0 73.333 5.66699 106 17
c32 11.333 60.667 25.666 86 42.999s47.666 36.333 66.999 57c20 20.667 36 39.667 48 57h52zM512.003 860.002c-49.333 0 -95 -9.66797 -137 -29.001s-79.667 -45.666 -113 -78.999c-32.667 -34 -59.334 -74.333 -80.001 -121s-33.667 -96.667 -39 -150h717
c0 53.333 -9.66699 103.333 -29 150s-44.666 87 -75.999 121c-32 34 -69 60.333 -111 79c-41.333 19.333 -85.333 29 -132 29z" />
    <glyph glyph-name="Edotaccent" unicode="&#x116;" horiz-adv-x="1054" 
d="M614 1542c0 -13.333 -4.33105 -24.667 -12.998 -34c-8.66699 -8.66699 -20 -13 -34 -13c-12 0 -22.333 4.33301 -31 13s-13.334 20 -14.001 34c0 12 4.66699 22.667 14 32c8.66699 8.66699 19 13 31 13c13.333 0 24.666 -4.33301 33.999 -13
c8.66699 -9.33301 13 -20 13 -32zM952.002 50.999v-51h-768v1290h748v-51h-696v-543h645v-51h-645v-594h716z" />
    <glyph glyph-name="edotaccent" unicode="&#x117;" horiz-adv-x="1003" 
d="M553 1174c0 -13.333 -4.33301 -24.667 -13 -34c-8.66699 -8.66699 -20 -13.334 -34 -14.001c-12 0 -22.667 4.66699 -32 14c-8.66699 8.66699 -13 20 -13 34c0 12 4.33301 22.333 13 31s19.334 13.334 32.001 14.001c13.333 0 24.666 -4.66699 33.999 -14
c8.66699 -8.66699 13 -19 13 -31zM881 214.999c-12 -26 -29.3301 -52.3311 -51.9971 -78.998c-22 -26.667 -47.667 -51 -77 -73c-30 -22 -64.333 -39.667 -103 -53c-38 -13.333 -80.333 -20 -127 -20c-58.667 0 -114.334 11.667 -167.001 35s-98.334 55.333 -137.001 96
s-69.334 89 -92.001 145s-34 117.667 -34 185c0 66.667 11.333 128 34 184s53 104.333 91 145s82.667 73 134 97c51.333 23.333 105 34.666 161 33.999c53.333 0 104.333 -10.667 153 -32c48.667 -22 91.334 -51.667 128.001 -89s65.667 -82 87 -134
c21.333 -51.333 31.666 -106 30.999 -164c0 -8 -0.666992 -15.667 -2 -23l-4 -20c-1.33301 -6.66699 -2.66602 -13 -3.99902 -19h-758c5.33301 -58.667 18.333 -112 39 -160s47.667 -89 81 -123s72 -60 116 -78c44 -18.667 91.667 -28 143 -28c38 0 73.333 5.66699 106 17
c32 11.333 60.667 25.666 86 42.999s47.666 36.333 66.999 57c20 20.667 36 39.667 48 57h52zM512.003 860.001c-49.333 0 -95 -9.66797 -137 -29.001s-79.667 -45.666 -113 -78.999c-32.667 -34 -59.334 -74.333 -80.001 -121s-33.667 -96.667 -39 -150h717
c0 53.333 -9.66699 103.333 -29 150s-44.666 87 -75.999 121c-32 34 -69 60.333 -111 79c-41.333 19.333 -85.333 29 -132 29z" />
    <glyph glyph-name="Eogonek" unicode="&#x118;" horiz-adv-x="1054" 
d="M184 0v1290h748v-51h-696v-543h645v-51h-645v-594h716v-51c-18 -16.667 -33.667 -34.334 -47 -53.001c-10.667 -16.667 -20.834 -35.167 -30.501 -55.5s-14.5 -42.166 -14.5 -65.499c0 -31.333 10 -56.166 30 -74.499s47.667 -27.5 83 -27.5
c6.66699 0 13.834 0.333008 21.501 1s14.834 1.66699 21.501 3s12.667 3.33301 18 6v-51c-5.33301 -2.66699 -11.333 -5 -18 -7c-6.66699 -1.33301 -13.834 -2.33301 -21.501 -3s-14.834 -1 -21.501 -1c-52 0 -92.333 14 -121 42s-43 65.333 -43 112
c0 23.333 4.83301 45.166 14.5 65.499s19.834 38.833 30.501 55.5c13.333 19.333 29 37 47 53h-717z" />
    <glyph glyph-name="eogonek" unicode="&#x119;" horiz-adv-x="1003" 
d="M881 215c-26 -52 -65 -99.8301 -117 -143.497s-119 -70.834 -201 -81.501c-15.333 -16.667 -29 -33.667 -41 -51c-10.667 -15.333 -20.167 -32.833 -28.5 -52.5s-12.5 -39.834 -12.5 -60.501c0 -31.333 10 -56.166 30 -74.499s47.667 -27.5 83 -27.5
c6.66699 0 13.834 0.333008 21.501 1s14.834 1.66699 21.501 3s12.667 3.33301 18 6v-51c-5.33301 -2.66699 -11.333 -5 -18 -7c-6.66699 -1.33301 -13.834 -2.33301 -21.501 -3s-14.834 -1 -21.501 -1c-52 0 -92.333 14 -121 42s-43 65.333 -43 112
c0 20.667 4.16699 40.834 12.5 60.501s17.833 37.167 28.5 52.5c12 18 25.667 35 41 51c-58.667 2.66699 -113.667 15.5 -165 38.5s-95.666 54.667 -132.999 95s-67 88.166 -89 143.499s-33 116.666 -33 183.999c0 66.667 11.333 128 34 184s53 104.5 91 145.5
s82.667 73 134 96s105 34.5 161 34.5c53.333 0 104.166 -10.833 152.499 -32.5s91 -51.334 128 -89.001s66 -82 87 -133s31.5 -105.833 31.5 -164.5c0 -8 -0.666992 -15.5 -2 -22.5l-4 -20.5c-1.33301 -6.66699 -2.66602 -13 -3.99902 -19h-758
c5.33301 -58.667 18.333 -111.834 39 -159.501s47.667 -88.667 81 -123s71.833 -60.666 115.5 -78.999s91.5 -27.5 143.5 -27.5c38 0 73.167 5.83301 105.5 17.5s61.166 26 86.499 43s47.833 35.667 67.5 56s35.5 39.5 47.5 57.5h52zM512 860.003
c-49.333 0 -95.166 -9.5 -137.499 -28.5s-79.833 -45.667 -112.5 -80s-59.167 -74.666 -79.5 -120.999s-33.5 -96.166 -39.5 -149.499h717c0 53.333 -9.5 103.166 -28.5 149.499s-44.5 86.666 -76.5 120.999s-68.833 61 -110.5 80s-85.834 28.5 -132.501 28.5z" />
    <glyph glyph-name="Ecaron" unicode="&#x11a;" horiz-adv-x="1054" 
d="M348 1669h62l163 -184l164 184h62l-205 -225h-41zM952 51v-51h-768v1290h748v-51h-696v-543h645v-51h-645v-594h716z" />
    <glyph glyph-name="ecaron" unicode="&#x11b;" horiz-adv-x="1003" 
d="M287 1300h61l164 -184l164 184h61l-205 -225h-40zM881 215c-12 -26 -29.3301 -52.3311 -51.9971 -78.998c-22 -26.667 -47.667 -51 -77 -73c-30 -22 -64.333 -39.667 -103 -53c-38 -13.333 -80.333 -20 -127 -20c-58.667 0 -114.334 11.667 -167.001 35
s-98.334 55.333 -137.001 96s-69.334 89 -92.001 145s-34 117.667 -34 185c0 66.667 11.333 128 34 184s53 104.333 91 145s82.667 73 134 97c51.333 23.333 105 34.666 161 33.999c53.333 0 104.333 -10.667 153 -32c48.667 -22 91.334 -51.667 128.001 -89
s65.667 -82 87 -134c21.333 -51.333 31.666 -106 30.999 -164c0 -8 -0.666992 -15.667 -2 -23l-4 -20c-1.33301 -6.66699 -2.66602 -13 -3.99902 -19h-758c5.33301 -58.667 18.333 -112 39 -160s47.667 -89 81 -123s72 -60 116 -78c44 -18.667 91.667 -28 143 -28
c38 0 73.333 5.66699 106 17c32 11.333 60.667 25.666 86 42.999s47.666 36.333 66.999 57c20 20.667 36 39.667 48 57h52zM512.003 860.002c-49.333 0 -95 -9.66797 -137 -29.001s-79.667 -45.666 -113 -78.999c-32.667 -34 -59.334 -74.333 -80.001 -121
s-33.667 -96.667 -39 -150h717c0 53.333 -9.66699 103.333 -29 150s-44.666 87 -75.999 121c-32 34 -69 60.333 -111 79c-41.333 19.333 -85.333 29 -132 29z" />
    <glyph glyph-name="Gbreve" unicode="&#x11e;" horiz-adv-x="1361" 
d="M696 1485c40.667 0 77.0039 14.999 109.004 44.999c31.333 30 49.666 62.667 54.999 98h51c-2.66699 -26 -10 -50.667 -22 -74s-27.667 -43.666 -47 -60.999c-19.333 -18 -41.333 -32.333 -66 -43s-51.334 -16 -80.001 -16s-55.334 5.33301 -80.001 16
s-46.334 25 -65.001 43c-19.333 18 -35 38.333 -47 61c-12 23.333 -19.667 48 -23 74h51c5.33301 -35.333 24 -68 56 -98c31.333 -30 67.333 -45 108 -45zM727.004 603.999l480.999 0.00390625v-604h-41l-10 328c-27.333 -64 -63.333 -120.667 -108 -170
c-38 -42 -87 -80.667 -147 -116c-59.333 -34.667 -131.333 -52 -216 -52c-74 0 -145.333 16.333 -214 49s-129.667 78 -183 136s-96 127.333 -128 208s-48 168 -48 262s16 181.333 48 262s74.667 150 128 208s114.333 103.333 183 136s140 49 214 49
c64 0 122.333 -9.33301 175 -28c52.667 -19.333 99.334 -46 140.001 -80s76 -74.333 106 -121c29.333 -46.667 53 -96.334 71 -149.001h-52c-18 46.667 -40.333 89.667 -67 129c-27.333 39.333 -59 73.666 -95 102.999s-77.333 52.666 -124 69.999s-98 25.666 -154 24.999
c-66.667 0 -131.334 -15 -194.001 -45s-118.334 -72 -167.001 -126s-87.667 -117.667 -117 -191c-29.333 -74 -44 -154.667 -44 -242s14.667 -168 44 -242s68.333 -137.667 117 -191c48.667 -54 104.334 -96 167.001 -126s127.334 -45 194.001 -45
c61.333 0 120.333 13.333 177 40s107 62.667 151 108c44 46 78.667 100 104 162c26 62 39 129.333 39 202h-430v51z" />
    <glyph glyph-name="gbreve" unicode="&#x11f;" horiz-adv-x="1034" 
d="M522 1116c40.667 0 77.0039 15 109.004 45c31.333 30 49.666 63 54.999 99h51c-2.66699 -26 -10 -50.667 -22 -74s-27.667 -44 -47 -62s-41.333 -32.333 -66 -43s-51.334 -16 -80.001 -16s-55.334 5.33301 -80.001 16s-46.334 25 -65.001 43
c-19.333 18 -35 38.667 -47 62s-19.667 48 -23 74h51c5.33301 -35.333 24 -68.333 56 -99c31.333 -30 67.333 -45 108 -45zM195.004 -72c20.667 -66.667 55.9961 -120.664 105.996 -161.997c50.667 -41.333 124.334 -62.333 221.001 -63c44 0 85 8.66699 123 26
s71.333 40.666 100 69.999c28.667 30 51.667 65.667 69 107c17.333 40.667 26 85.667 26 135v215h-11c-20.667 -42 -47 -79.667 -79 -113c-27.333 -28.667 -62.666 -54.334 -105.999 -77.001c-43.333 -23.333 -94 -35 -152 -35c-53.333 0 -104.333 10.667 -153 32
c-48.667 22 -91.334 52.667 -128.001 92c-36.667 38.667 -65.667 85 -87 139s-32 113 -32 177s10.667 123 32 177s50.333 100.333 87 139s79.334 69.334 128.001 92.001c48.667 22 99.667 32.667 153 32c61.333 0 113 -11.667 155 -35c42 -24 77 -49.667 105 -77
c31.333 -34 57 -71.667 77 -113h11l10 215h41v-860c0 -56 -9.66699 -108 -29 -156s-45.666 -89.333 -78.999 -124s-72.333 -61.334 -117 -80.001c-45.333 -19.333 -93.333 -29 -144 -29c-56 0 -105.667 7 -149 21c-44 14.667 -81.667 34.667 -113 60
s-56.666 54.666 -75.999 87.999s-33 69 -41 107h52zM143 471.003c0 -56 9.66797 -108 29.001 -156s45 -89.333 77 -124s68.667 -61.334 110 -80.001c41.333 -19.333 85.666 -29 132.999 -29c46.667 0 90.667 9.66699 132 29s78 46 110 80c32 34.667 57.667 76 77 124
s29 100 29 156s-9.66699 108 -29 156s-45 89.333 -77 124s-68.667 61.334 -110 80.001c-41.333 19.333 -85.333 29 -132 29s-91 -9.66699 -133 -29c-41.333 -19.333 -78 -46 -110 -80c-32 -34.667 -57.667 -76 -77 -124s-29 -100 -29 -156z" />
    <glyph glyph-name="uni0122" unicode="&#x122;" horiz-adv-x="1361" 
d="M645 -211c0 13.333 4.33398 24.667 13.001 34c8.66699 8.66699 19.334 13 32.001 13c13.333 0 24.666 -4.66699 33.999 -14c8.66699 -9.33301 13 -23.666 13 -42.999c0 -30 -5.66699 -57.333 -17 -82s-24.666 -46.667 -39.999 -66c-16.667 -22 -35 -42.333 -55 -61
l-11 10c13.333 15.333 25.666 31 36.999 47c9.33301 15.333 18 32.666 26 51.999c7.33301 20 11.666 41.667 12.999 65c-12 0 -22.667 4.33301 -32 13c-8.66699 9.33301 -13 20 -13 32zM727.001 604.001l480.999 0.00390625v-604h-41l-10 328
c-27.333 -64 -63.333 -120.667 -108 -170c-38 -42 -87 -80.667 -147 -116c-59.333 -34.667 -131.333 -52 -216 -52c-74 0 -145.333 16.333 -214 49s-129.667 78 -183 136s-96 127.333 -128 208s-48 168 -48 262s16 181.333 48 262s74.667 150 128 208
s114.333 103.333 183 136s140 49 214 49c64 0 122.333 -9.33301 175 -28c52.667 -19.333 99.334 -46 140.001 -80s76 -74.333 106 -121c29.333 -46.667 53 -96.334 71 -149.001h-52c-18 46.667 -40.333 89.667 -67 129c-27.333 39.333 -59 73.666 -95 102.999
s-77.333 52.666 -124 69.999s-98 25.666 -154 24.999c-66.667 0 -131.334 -15 -194.001 -45s-118.334 -72 -167.001 -126s-87.667 -117.667 -117 -191c-29.333 -74 -44 -154.667 -44 -242s14.667 -168 44 -242s68.333 -137.667 117 -191
c48.667 -54 104.334 -96 167.001 -126s127.334 -45 194.001 -45c61.333 0 120.333 13.333 177 40s107 62.667 151 108c44 46 78.667 100 104 162c26 62 39 129.333 39 202h-430v51z" />
    <glyph glyph-name="uni0123" unicode="&#x123;" horiz-adv-x="1034" 
d="M553 1143c0 -13.333 -4.50098 -24.499 -13.501 -33.499s-19.5 -13.5 -31.5 -13.5c-13.333 0 -24.5 4.66699 -33.5 14s-13.5 23.666 -13.5 42.999c0 28.667 5.5 55.667 16.5 81s23.833 47.333 38.5 66c16.667 22 35.667 42.667 57 62l11 -10
c-13.333 -15.333 -25.666 -31 -36.999 -47c-9.33301 -15.333 -17.833 -32.833 -25.5 -52.5s-12.167 -41.167 -13.5 -64.5c12 0 22.5 -4.5 31.5 -13.5s13.5 -19.5 13.5 -31.5zM194.999 -71.999c20.667 -66.667 56.1689 -120.831 106.502 -162.498s123.833 -62.5 220.5 -62.5
c44 0 85 8.5 123 25.5s71.333 40.5 100 70.5s51.667 65.5 69 106.5s26 86.167 26 135.5v215h-11c-20.667 -42 -47 -79.667 -79 -113c-27.333 -28.667 -62.5 -54.5 -105.5 -77.5s-93.833 -34.5 -152.5 -34.5c-53.333 0 -104.333 10.833 -153 32.5s-91.334 52 -128.001 91
s-65.667 85.5 -87 139.5s-32 113 -32 177s10.667 123 32 177s50.333 100.5 87 139.5s79.334 69.333 128.001 91s99.667 32.5 153 32.5c61.333 0 113.166 -11.833 155.499 -35.5s77.166 -49.167 104.499 -76.5c31.333 -34 57 -71.667 77 -113h11l10 215h41v-860
c0 -56 -9.5 -107.833 -28.5 -155.5s-45.333 -89 -79 -124s-73 -62 -118 -81s-92.833 -28.5 -143.5 -28.5c-56 0 -105.833 7.16699 -149.5 21.5s-81.167 34.166 -112.5 59.499s-56.5 54.666 -75.5 87.999s-32.833 69 -41.5 107h52zM143.001 471.004
c0 -56 9.66699 -107.833 29 -155.5s45 -89 77 -124s68.833 -62 110.5 -81s85.834 -28.5 132.501 -28.5s90.667 9.5 132 28.5s78 46 110 81s57.667 76.333 77 124s29 99.5 29 155.5s-9.66699 107.833 -29 155.5s-45 89 -77 124s-68.833 62 -110.5 81s-85.5 28.5 -131.5 28.5
c-46.667 0 -90.834 -9.5 -132.501 -28.5s-78.5 -46 -110.5 -81s-57.667 -76.333 -77 -124s-29 -99.5 -29 -155.5z" />
    <glyph glyph-name="Imacron" unicode="&#x12a;" horiz-adv-x="419" 
d="M451 1505h-471v51h471v-51zM236 0h-52v1290h52v-1290z" />
    <glyph glyph-name="imacron" unicode="&#x12b;" horiz-adv-x="337" 
d="M410 1147h-471v51h471v-51zM195 0h-52v901h52v-901z" />
    <glyph glyph-name="Iogonek" unicode="&#x12e;" horiz-adv-x="419" 
d="M184 1290h52v-1290c-18 -16.667 -34 -34.334 -48 -53.001c-10.667 -16.667 -20.834 -35.167 -30.501 -55.5s-14.5 -42.166 -14.5 -65.499c0 -31.333 10 -56.166 30 -74.499s47.667 -27.5 83 -27.5c6.66699 0 13.834 0.333008 21.501 1s14.834 1.66699 21.501 3
s12.667 3.33301 18 6v-51c-5.33301 -2.66699 -11.333 -5 -18 -7c-6.66699 -1.33301 -13.834 -2.33301 -21.501 -3s-14.834 -1 -21.501 -1c-52 0 -92.333 14 -121 42s-43 65.333 -43 112c0 23.333 4.83301 45.166 14.5 65.499s19.834 38.833 30.501 55.5
c13.333 19.333 29 37 47 53v1290z" />
    <glyph glyph-name="iogonek" unicode="&#x12f;" horiz-adv-x="337" 
d="M143 901h52v-901c-18 -16.667 -34 -34.334 -48 -53.001c-10.667 -16.667 -20.834 -35.167 -30.501 -55.5s-14.5 -42.166 -14.5 -65.499c0 -31.333 10 -56.166 30 -74.499s47.667 -27.5 83 -27.5c6.66699 0 13.834 0.333008 21.501 1s14.834 1.66699 21.501 3
s12.667 3.33301 18 6v-51c-5.33301 -2.66699 -11.333 -5 -18 -7c-6.66699 -1.33301 -13.834 -2.33301 -21.501 -3s-14.834 -1 -21.501 -1c-52 0 -92.333 14 -121 42s-43 65.333 -43 112c0 23.333 4.83301 45.166 14.5 65.499s19.834 38.833 30.501 55.5
c13.333 19.333 29 37 47 53v901zM215 1174c0 -13.333 -4.5 -24.667 -13.5 -34s-20.167 -14 -33.5 -14c-12 0 -22.5 4.5 -31.5 13.5s-13.5 20.5 -13.5 34.5c0 12 4.5 22.5 13.5 31.5s19.5 13.5 31.5 13.5c13.333 0 24.5 -4.5 33.5 -13.5s13.5 -19.5 13.5 -31.5z" />
    <glyph glyph-name="Idotaccent" unicode="&#x130;" horiz-adv-x="419" 
d="M236 0h-52v1290h52v-1290zM256 1542c0 -13.333 -4.33301 -24.667 -13 -34c-8.66699 -8.66699 -20 -13 -34 -13c-12 0 -22.667 4.33301 -32 13c-8.66699 8.66699 -13 20 -13 34c0 12 4.33301 22.667 13 32c8.66699 8.66699 19.334 13 32.001 13
c13.333 0 24.666 -4.33301 33.999 -13c8.66699 -9.33301 13 -20 13 -32z" />
    <glyph glyph-name="dotlessi" unicode="&#x131;" horiz-adv-x="337" 
d="M195 0h-52v901h52v-901z" />
    <glyph glyph-name="ij" unicode="&#x133;" horiz-adv-x="829" 
d="M635 82c-19.333 -18 -40.665 -33.6689 -63.998 -47.002c-19.333 -10.667 -42.833 -20.834 -70.5 -30.501s-57.834 -14.5 -90.501 -14.5c-87.333 0 -153.666 23.833 -198.999 71.5s-68 122.834 -68 225.501v614h52v-614c0 -87.333 17.667 -150.166 53 -188.499
s89.333 -57.5 162 -57.5c32.667 0 63 4.83301 91 14.5s51.333 19.834 70 30.501c23.333 13.333 44.666 29 63.999 47v768h51v-1003c0 -72.667 -20.833 -130.167 -62.5 -172.5s-95.834 -63.5 -162.501 -63.5c-10.667 0 -20.167 0.333008 -28.5 1s-15.833 1.66699 -22.5 3
s-13.667 3.33301 -21 6v52c6.66699 -2.66699 13.667 -5 21 -7c6.66699 -1.33301 14 -2.33301 22 -3s17.667 -1 29 -1c52 0 94 16.5 126 49.5s48 78.167 48 135.5v184zM215.001 1184c0 -13.333 -4.5 -24.5 -13.5 -33.5s-20.167 -13.5 -33.5 -13.5
c-12 0 -22.5 4.33301 -31.5 13s-13.5 20 -13.5 34c0 12 4.5 22.5 13.5 31.5s19.5 13.5 31.5 13.5c13.333 0 24.5 -4.5 33.5 -13.5s13.5 -19.5 13.5 -31.5zM707.001 1184c0 -13.333 -4.49902 -24.5 -13.499 -33.5s-20.5 -13.5 -34.5 -13.5c-12 0 -22.5 4.33301 -31.5 13
s-13.5 20 -13.5 34c0 12 4.5 22.5 13.5 31.5s19.5 13.5 31.5 13.5c13.333 0 24.666 -4.5 33.999 -13.5s14 -19.5 14 -31.5z" />
    <glyph glyph-name="uni0136" unicode="&#x136;" horiz-adv-x="972" 
d="M481 -211c0 13.333 4.66797 24.667 14.001 34c8.66699 8.66699 19 13 31 13c13.333 0 24.666 -4.66699 33.999 -14c8.66699 -9.33301 13 -23.666 13 -42.999c0 -30 -5.66699 -57.333 -17 -82s-24.666 -46.667 -39.999 -66c-16.667 -22 -35 -42.333 -55 -61l-10 10
c13.333 15.333 25.333 31 36 47c9.33301 15.333 18 32.666 26 51.999c7.33301 20 11.666 41.667 12.999 65c-12 0 -22.333 4.33301 -31 13c-9.33301 9.33301 -14 20 -14 32zM236.001 655.001v-655h-52v1290h52v-635l624 635h72l-635 -635l655 -655h-71z" />
    <glyph glyph-name="uni0137" unicode="&#x137;" horiz-adv-x="819" 
d="M399 -211c0 13.333 4.66895 24.667 14.002 34c8.66699 8.66699 19 13 31 13c13.333 0 24.666 -4.66699 33.999 -14c8.66699 -9.33301 13.334 -23.666 14.001 -42.999c0 -30 -6 -57.333 -18 -82c-11.333 -24.667 -24.666 -46.667 -39.999 -66
c-16.667 -22 -35 -42.333 -55 -61l-10 10c13.333 15.333 25.666 31 36.999 47c9.33301 15.333 17.666 32.666 24.999 51.999c7.33301 20 11.666 41.667 12.999 65c-12 0 -22.333 4.33301 -31 13c-9.33301 9.33301 -14 20 -14 32zM205.002 471.001v-471h-51v1290h51v-819
l481 430h72l-482 -430l523 -471h-72z" />
    <glyph glyph-name="Lacute" unicode="&#x139;" horiz-adv-x="942" 
d="M328 1690h82l-174 -246h-31zM901 51v-51h-717v1290h52v-1239h665z" />
    <glyph glyph-name="lacute" unicode="&#x13a;" horiz-adv-x="358" 
d="M287 1690h82l-174 -246h-31zM205 0h-51v1290h51v-1290z" />
    <glyph glyph-name="uni013B" unicode="&#x13b;" horiz-adv-x="942" 
d="M502 -211c0 13.333 4.33496 24.667 13.002 34c8.66699 8.66699 19.334 13 32.001 13c13.333 0 24.666 -4.66699 33.999 -14c8.66699 -9.33301 13 -23.666 13 -42.999c0 -30 -5.66699 -57.333 -17 -82s-24.666 -46.667 -39.999 -66
c-16.667 -22 -35.334 -42.333 -56.001 -61l-10 10c13.333 15.333 25.666 31 36.999 47c9.33301 15.333 18 32.666 26 51.999c7.33301 20 11.666 41.667 12.999 65c-12 0 -22.667 4.33301 -32 13c-8.66699 9.33301 -13 20 -13 32zM901.002 51.001v-51h-717v1290h52v-1239h665
z" />
    <glyph glyph-name="uni013C" unicode="&#x13c;" horiz-adv-x="358" 
d="M133 -211c0 13.333 4.33398 24.667 13.001 34c8.66699 8.66699 19.334 13 32.001 13c13.333 0 24.666 -4.66699 33.999 -14c8.66699 -9.33301 13 -23.666 13 -42.999c0 -30 -5.66699 -57.333 -17 -82s-24.666 -46.667 -39.999 -66c-16.667 -22 -35 -42.333 -55 -61
l-11 10c13.333 15.333 25.666 31 36.999 47c9.33301 15.333 18 32.666 26 51.999c7.33301 20 11.666 41.667 12.999 65c-12 0 -22.667 4.33301 -32 13c-8.66699 9.33301 -13 20 -13 32zM205.001 0.000976562h-51v1290h51v-1290z" />
    <glyph glyph-name="Lcaron" unicode="&#x13d;" horiz-adv-x="942" 
d="M481 1290h82l-112 -246h-41zM901 51v-51h-717v1290h52v-1239h665z" />
    <glyph glyph-name="lcaron" unicode="&#x13e;" horiz-adv-x="430" 
d="M410 1290h82l-113 -246h-41zM205 0h-51v1290h51v-1290z" />
    <glyph glyph-name="Lslash" unicode="&#x141;" horiz-adv-x="942" 
d="M41 420l143 92v778h52v-747l358 235v-51l-358 -235v-441h665v-51h-717v461l-143 -92v51z" />
    <glyph glyph-name="lslash" unicode="&#x142;" horiz-adv-x="440" 
d="M20 512l175 113v665h51v-635l174 113v-51l-174 -113v-604h-51v573l-175 -112v51z" />
    <glyph glyph-name="Nacute" unicode="&#x143;" horiz-adv-x="1228" 
d="M727 1690h82l-174 -246h-31zM1044 1290v-1290h-40l-768 1188v-1188h-52v1290h41l768 -1188v1188h51z" />
    <glyph glyph-name="nacute" unicode="&#x144;" horiz-adv-x="1003" 
d="M625 1321h82l-175 -246h-30zM512 911c50.667 0 97.9971 -9.00098 141.997 -27.001c44.667 -18.667 82.667 -44.667 114 -78s56.333 -73.333 75 -120s27.667 -98 27 -154v-532h-51v532c0 49.333 -7.66699 94.333 -23 135c-16 40 -37.667 74.333 -65 103
s-59.666 51 -96.999 67s-78 23.667 -122 23c-44 0 -85 -7.66699 -123 -23c-38 -16 -71.333 -38.333 -100 -67s-51.667 -63 -69 -103s-25.666 -85 -24.999 -135v-532h-52v901h41l11 -184h10c18 35.333 41 67.333 69 96c24.667 24.667 56.334 47.334 95.001 68.001
c38 20 85.667 30 143 30z" />
    <glyph glyph-name="uni0145" unicode="&#x145;" horiz-adv-x="1228" 
d="M573 -211c0 13.333 4.66895 24.667 14.002 34c8.66699 8.66699 19 13 31 13c13.333 0 24.666 -4.66699 33.999 -14c8.66699 -9.33301 13.334 -23.666 14.001 -42.999c0 -30 -6 -57.333 -18 -82c-11.333 -24.667 -24.666 -46.667 -39.999 -66
c-16.667 -22 -35 -42.333 -55 -61l-10 10c13.333 15.333 25.666 31 36.999 47c9.33301 15.333 17.666 32.666 24.999 51.999c7.33301 20 11.666 41.667 12.999 65c-12 0 -22.333 4.33301 -31 13c-9.33301 9.33301 -14 20 -14 32zM1044 1290v-1290h-40l-768 1188v-1188h-52
v1290h41l768 -1188v1188h51z" />
    <glyph glyph-name="uni0146" unicode="&#x146;" horiz-adv-x="1003" 
d="M461 -211c0 13.333 4.33496 24.667 13.002 34c8.66699 8.66699 19.334 13 32.001 13c13.333 0 24.666 -4.66699 33.999 -14c8.66699 -9.33301 13 -23.666 13 -42.999c0 -30 -5.66699 -57.333 -17 -82s-24.666 -46.667 -39.999 -66
c-16.667 -22 -35.334 -42.333 -56.001 -61l-10 10c13.333 15.333 25.666 31 36.999 47c9.33301 15.333 18 32.666 26 51.999c7.33301 20 11.666 41.667 12.999 65c-12 0 -22.667 4.33301 -32 13c-8.66699 9.33301 -13 20 -13 32zM512.002 911.001
c50.667 0 97.9971 -9.00098 141.997 -27.001c44.667 -18.667 82.667 -44.667 114 -78s56.333 -73.333 75 -120s27.667 -98 27 -154v-532h-51v532c0 49.333 -7.66699 94.333 -23 135c-16 40 -37.667 74.333 -65 103s-59.666 51 -96.999 67s-78 23.667 -122 23
c-44 0 -85 -7.66699 -123 -23c-38 -16 -71.333 -38.333 -100 -67s-51.667 -63 -69 -103s-25.666 -85 -24.999 -135v-532h-52v901h41l11 -184h10c18 35.333 41 67.333 69 96c24.667 24.667 56.334 47.334 95.001 68.001c38 20 85.667 30 143 30z" />
    <glyph glyph-name="Ncaron" unicode="&#x147;" horiz-adv-x="1228" 
d="M389 1669h62l163 -184l164 184h62l-205 -225h-41zM1044 1290v-1290h-40l-768 1188v-1188h-52v1290h41l768 -1188v1188h51z" />
    <glyph glyph-name="ncaron" unicode="&#x148;" horiz-adv-x="1003" 
d="M276 1300h62l164 -184l164 184h61l-205 -225h-41zM512 911c50.667 0 97.9971 -9.00098 141.997 -27.001c44.667 -18.667 82.667 -44.667 114 -78s56.333 -73.333 75 -120s27.667 -98 27 -154v-532h-51v532c0 49.333 -7.66699 94.333 -23 135
c-16 40 -37.667 74.333 -65 103s-59.666 51 -96.999 67s-78 23.667 -122 23c-44 0 -85 -7.66699 -123 -23c-38 -16 -71.333 -38.333 -100 -67s-51.667 -63 -69 -103s-25.666 -85 -24.999 -135v-532h-52v901h41l11 -184h10c18 35.333 41 67.333 69 96
c24.667 24.667 56.334 47.334 95.001 68.001c38 20 85.667 30 143 30z" />
    <glyph glyph-name="Omacron" unicode="&#x14c;" horiz-adv-x="1372" 
d="M922 1505h-471v51h471v-51zM1208 645c0 87.333 -14.668 168 -44.001 242s-68 137.667 -116 191c-48.667 54 -104.334 96 -167.001 126s-127.667 45 -195 45c-66.667 0 -131.334 -15 -194.001 -45s-118.334 -72 -167.001 -126s-87.667 -117.667 -117 -191
c-29.333 -74 -44 -154.667 -44 -242s14.667 -168 44 -242s68.333 -137.667 117 -191c48.667 -54 104.334 -96 167.001 -126s127.334 -45 194.001 -45s131.667 15 195 45c62.667 30 118.334 72 167.001 126s87.334 117.667 116.001 191c29.333 74 44 154.667 44 242z
M1260 645c0 -94 -16.333 -181.333 -49 -262c-32 -80.667 -74.667 -150 -128 -208s-114.333 -103.333 -183 -136s-140 -49 -214 -49s-145.333 16.333 -214 49s-129.667 78 -183 136s-96 127.333 -128 208s-48 168 -48 262s16 181.333 48 262s74.667 150 128 208
s114.333 103.333 183 136s140 49 214 49s145.333 -16.333 214 -49s129.667 -78 183 -136s96 -127.333 128 -208c32.667 -80.667 49 -168 49 -262z" />
    <glyph glyph-name="omacron" unicode="&#x14d;" 
d="M768 1147h-471v51h471v-51zM143 451c0 -58.667 10.333 -113 31 -163s47.667 -93.333 81 -130s72.333 -65.334 117 -86.001s91.334 -31 140.001 -31c49.333 0 96 10.333 140 31c44.667 20.667 83.667 49.334 117 86.001s60.333 80 81 130s31 104.333 31 163
s-10.333 112.667 -31 162c-20.667 50 -47.667 93.333 -81 130s-72.333 65.334 -117 86.001s-91.334 31 -140.001 31c-49.333 0 -96 -10.333 -140 -31c-44.667 -20.667 -83.667 -49.334 -117 -86.001s-60.333 -80 -81 -130c-20.667 -49.333 -31 -103.333 -31 -162zM92 451
c0 66.667 11.333 128 34 184s53 104.333 91 145s82.667 73 134 97c51.333 23.333 105 34.666 161 33.999c56 0 109.667 -11.333 161 -34c51.333 -23.333 96 -55.666 134 -96.999c38 -40.667 68.333 -89 91 -145s34 -117.333 34 -184s-11.333 -128.334 -34 -185.001
c-22.667 -56 -53 -104.333 -91 -145s-82.667 -72.667 -134 -96s-105 -35 -161 -35s-109.667 11.667 -161 35s-96 55.333 -134 96s-68.333 89 -91 145c-22.667 56.667 -34 118.334 -34 185.001z" />
    <glyph glyph-name="Ohungarumlaut" unicode="&#x150;" horiz-adv-x="1372" 
d="M696 1690h82l-194 -246h-31zM942 1690h82l-195 -246h-30zM1208 645c0 87.333 -14.668 168 -44.001 242s-68 137.667 -116 191c-48.667 54 -104.334 96 -167.001 126s-127.667 45 -195 45c-66.667 0 -131.334 -15 -194.001 -45s-118.334 -72 -167.001 -126
s-87.667 -117.667 -117 -191c-29.333 -74 -44 -154.667 -44 -242s14.667 -168 44 -242s68.333 -137.667 117 -191c48.667 -54 104.334 -96 167.001 -126s127.334 -45 194.001 -45s131.667 15 195 45c62.667 30 118.334 72 167.001 126s87.334 117.667 116.001 191
c29.333 74 44 154.667 44 242zM1260 645c0 -94 -16.333 -181.333 -49 -262c-32 -80.667 -74.667 -150 -128 -208s-114.333 -103.333 -183 -136s-140 -49 -214 -49s-145.333 16.333 -214 49s-129.667 78 -183 136s-96 127.333 -128 208s-48 168 -48 262s16 181.333 48 262
s74.667 150 128 208s114.333 103.333 183 136s140 49 214 49s145.333 -16.333 214 -49s129.667 -78 183 -136s96 -127.333 128 -208c32.667 -80.667 49 -168 49 -262z" />
    <glyph glyph-name="ohungarumlaut" unicode="&#x151;" 
d="M522 1311h82l-194 -246h-31zM768 1311h82l-195 -246h-30zM143 451c0 -58.667 10.333 -113 31 -163s47.667 -93.333 81 -130s72.333 -65.334 117 -86.001s91.334 -31 140.001 -31c49.333 0 96 10.333 140 31c44.667 20.667 83.667 49.334 117 86.001s60.333 80 81 130
s31 104.333 31 163s-10.333 112.667 -31 162c-20.667 50 -47.667 93.333 -81 130s-72.333 65.334 -117 86.001s-91.334 31 -140.001 31c-49.333 0 -96 -10.333 -140 -31c-44.667 -20.667 -83.667 -49.334 -117 -86.001s-60.333 -80 -81 -130
c-20.667 -49.333 -31 -103.333 -31 -162zM92 451c0 66.667 11.333 128 34 184s53 104.333 91 145s82.667 73 134 97c51.333 23.333 105 34.666 161 33.999c56 0 109.667 -11.333 161 -34c51.333 -23.333 96 -55.666 134 -96.999c38 -40.667 68.333 -89 91 -145
s34 -117.333 34 -184s-11.333 -128.334 -34 -185.001c-22.667 -56 -53 -104.333 -91 -145s-82.667 -72.667 -134 -96s-105 -35 -161 -35s-109.667 11.667 -161 35s-96 55.333 -134 96s-68.333 89 -91 145c-22.667 56.667 -34 118.334 -34 185.001z" />
    <glyph glyph-name="OE" unicode="&#x152;" horiz-adv-x="1710" 
d="M1608 51v-50.999h-860c-90 0 -173.667 16.333 -251 49s-144.333 77.667 -201 135s-101.334 125.333 -134.001 204s-49 164.334 -49 257.001c0 91.333 16.333 176.666 49 255.999s77.334 147.666 134.001 204.999s123.5 102.333 200.5 135s160.833 49 251.5 49h839v-51
h-635v-543h584v-51h-584v-594h656zM901 51.001v1188h-153c-82 0 -158.5 -15 -229.5 -45s-132.833 -71.667 -185.5 -125s-94 -116.166 -124 -188.499s-45 -150.833 -45 -235.5s15 -163.167 45 -235.5s71.333 -135.166 124 -188.499s114.5 -95 185.5 -125s147.5 -45 229.5 -45
h153z" />
    <glyph glyph-name="oe" unicode="&#x153;" horiz-adv-x="1689" 
d="M870 614c18 54.667 43.334 103.999 76.001 147.999c27.333 36.667 63.833 70.667 109.5 102s103.5 47 173.5 47c49.333 0 96.166 -10.167 140.499 -30.5s83.166 -49.333 116.499 -87s60.166 -82 80.499 -133s30.5 -107.167 30.5 -168.5c0 -8 -0.666992 -15.5 -2 -22.5
l-4 -20.5c-1.33301 -6.66699 -2.66602 -13 -3.99902 -19h-696c10.667 -124 48.167 -219.833 112.5 -287.5s142.833 -101.5 235.5 -101.5c32.667 0 63.334 5.16699 92.001 15.5s54.334 24.333 77.001 42s43.167 37.334 61.5 59.001s33.833 44.167 46.5 67.5h51
c-12 -31.333 -28.333 -61 -49 -89s-45 -52.833 -73 -74.5s-59.167 -39 -93.5 -52s-71.833 -19.5 -112.5 -19.5c-72.667 0 -132.834 15.333 -180.501 46s-85.167 64.334 -112.5 101.001c-34 44 -59.333 94 -76 150h-10c-19.333 -56 -45.333 -106 -78 -150
c-28.667 -36.667 -66.167 -70.334 -112.5 -101.001s-105.5 -46 -177.5 -46c-53.333 0 -104.333 10.833 -153 32.5s-91.334 52.667 -128.001 93s-65.667 88.833 -87 145.5s-32 120 -32 190c0 69.333 10.667 132.333 32 189s50.333 105.167 87 145.5s79.334 71.333 128.001 93
s99.667 32.5 153 32.5c74 0 134.667 -15.667 182 -47s84.666 -65.333 111.999 -102c32.667 -44 57.334 -93.333 74.001 -148h10zM143.001 450.999c0 -61.333 9.66699 -117.332 29 -167.999s45 -93.834 77 -129.501s68.833 -63.334 110.5 -83.001s85.834 -29.5 132.501 -29.5
s90.667 9.83301 132 29.5s78 47.334 110 83.001s57.667 78.667 77 129s29 106.5 29 168.5c0 61.333 -9.66699 117.166 -29 167.499s-45 93.333 -77 129s-68.833 63.334 -110.5 83.001s-85.5 29.5 -131.5 29.5c-46.667 0 -90.834 -9.83301 -132.501 -29.5
s-78.5 -47.334 -110.5 -83.001s-57.667 -78.667 -77 -129s-29 -106.166 -29 -167.499zM1229 860c-44 0 -85.334 -9.16699 -124.001 -27.5s-73.167 -44.166 -103.5 -77.499s-55 -73.333 -74 -120s-31.167 -98 -36.5 -154h655c0 56 -8.83301 107.333 -26.5 154
s-41.167 86.667 -70.5 120s-63.166 59.166 -101.499 77.499s-77.833 27.5 -118.5 27.5z" />
    <glyph glyph-name="Racute" unicode="&#x154;" horiz-adv-x="1116" 
d="M666 1690h82l-175 -246h-30zM236 625l387 0.00292969c46.667 0 89.334 7.66699 128.001 23c38.667 16 72.334 37.667 101.001 65s51 59.666 67 96.999s23.667 78 23 122c0 44 -7.66699 84.667 -23 122c-16 37.333 -38.333 69.666 -67 96.999
s-62.334 48.666 -101.001 63.999c-38.667 16 -81.334 24 -128.001 24h-387v-614zM1024 0.00292969h-61.001l-338 573h-389v-573h-52v1290h439c54.667 0 104.334 -9 149.001 -27c45.333 -18.667 84.333 -43.667 117 -75s58.334 -69.333 77.001 -114s27.667 -92 27 -142
c0 -49.333 -7.66699 -94 -23 -134c-16 -40 -38 -75.333 -66 -106c-28 -30 -61.333 -54 -100 -72c-38.667 -18.667 -81.334 -30.667 -128.001 -36z" />
    <glyph glyph-name="racute" unicode="&#x155;" horiz-adv-x="593" 
d="M451 1311h81l-174 -246h-30zM553 911l-0.000976562 -51.001h-61c-38 0 -75 -7.66699 -111 -23c-35.333 -16 -67 -38.333 -95 -67s-50.333 -63 -67 -103s-24.667 -85 -24 -135v-532h-52v901h41l11 -184h10c16.667 35.333 38.334 67.333 65.001 96
c23.333 24.667 53 47.334 89 68.001s80.333 30.667 133 30h61z" />
    <glyph glyph-name="uni0156" unicode="&#x156;" horiz-adv-x="1116" 
d="M543 -190c0 13.333 4.33594 24.333 13.0029 33s19.334 13.334 32.001 14.001c13.333 0 24.666 -5 33.999 -15c8.66699 -9.33301 13 -23.666 13 -42.999c0 -30 -6 -57.333 -18 -82c-11.333 -24.667 -24.333 -46.334 -39 -65.001c-16.667 -22 -35.334 -42.667 -56.001 -62
l-10 11c13.333 15.333 25.666 31 36.999 47c9.33301 15.333 17.666 32.666 24.999 51.999c7.33301 20 12 41.333 14 64c-12 0 -22.667 4.66699 -32 14c-8.66699 9.33301 -13 20 -13 32zM236.003 625l387 0.00292969c46.667 0 89.334 7.66699 128.001 23
c38.667 16 72.334 37.667 101.001 65s51 59.666 67 96.999s23.667 78 23 122c0 44 -7.66699 84.667 -23 122c-16 37.333 -38.333 69.666 -67 96.999s-62.334 48.666 -101.001 63.999c-38.667 16 -81.334 24 -128.001 24h-387v-614zM1024 0.00292969h-61.001l-338 573h-389
v-573h-52v1290h439c54.667 0 104.334 -9 149.001 -27c45.333 -18.667 84.333 -43.667 117 -75s58.334 -69.333 77.001 -114s27.667 -92 27 -142c0 -49.333 -7.66699 -94 -23 -134c-16 -40 -38 -75.333 -66 -106c-28 -30 -61.333 -54 -100 -72
c-38.667 -18.667 -81.334 -30.667 -128.001 -36z" />
    <glyph glyph-name="uni0157" unicode="&#x157;" horiz-adv-x="593" 
d="M123 -211c0 13.333 4.33496 24.667 13.002 34c8.66699 8.66699 19.334 13 32.001 13c13.333 0 24.666 -4.66699 33.999 -14c8.66699 -9.33301 13 -23.666 13 -42.999c0 -30 -5.66699 -57.333 -17 -82s-24.666 -46.667 -39.999 -66
c-16.667 -22 -35.334 -42.333 -56.001 -61l-10 10c13.333 15.333 25.666 31 36.999 47c9.33301 15.333 18 32.666 26 51.999c7.33301 20 11.666 41.667 12.999 65c-12 0 -22.667 4.33301 -32 13c-8.66699 9.33301 -13 20 -13 32zM553.002 911.001l-0.000976562 -51.001h-61
c-38 0 -75 -7.66699 -111 -23c-35.333 -16 -67 -38.333 -95 -67s-50.333 -63 -67 -103s-24.667 -85 -24 -135v-532h-52v901h41l11 -184h10c16.667 35.333 38.334 67.333 65.001 96c23.333 24.667 53 47.334 89 68.001s80.333 30.667 133 30h61z" />
    <glyph glyph-name="Rcaron" unicode="&#x158;" horiz-adv-x="1116" 
d="M348 1669h62l163 -184l164 184h62l-205 -225h-41zM236 625l387 0.00292969c46.667 0 89.334 7.66699 128.001 23c38.667 16 72.334 37.667 101.001 65s51 59.666 67 96.999s23.667 78 23 122c0 44 -7.66699 84.667 -23 122c-16 37.333 -38.333 69.666 -67 96.999
s-62.334 48.666 -101.001 63.999c-38.667 16 -81.334 24 -128.001 24h-387v-614zM1024 0.00292969h-61.001l-338 573h-389v-573h-52v1290h439c54.667 0 104.334 -9 149.001 -27c45.333 -18.667 84.333 -43.667 117 -75s58.334 -69.333 77.001 -114s27.667 -92 27 -142
c0 -49.333 -7.66699 -94 -23 -134c-16 -40 -38 -75.333 -66 -106c-28 -30 -61.333 -54 -100 -72c-38.667 -18.667 -81.334 -30.667 -128.001 -36z" />
    <glyph glyph-name="rcaron" unicode="&#x159;" horiz-adv-x="593" 
d="M123 1300h61l164 -184l164 184h61l-204 -225h-41zM553 911l-0.000976562 -51.001h-61c-38 0 -75 -7.66699 -111 -23c-35.333 -16 -67 -38.333 -95 -67s-50.333 -63 -67 -103s-24.667 -85 -24 -135v-532h-52v901h41l11 -184h10c16.667 35.333 38.334 67.333 65.001 96
c23.333 24.667 53 47.334 89 68.001s80.333 30.667 133 30h61z" />
    <glyph glyph-name="Sacute" unicode="&#x15a;" 
d="M625 1690h82l-175 -246h-30zM133 983c0 44 8.66602 85.0049 25.999 123.005s42 71.333 74 100c32.667 28.667 72.667 51.667 120 69s100.333 25.666 159 24.999c50.667 0 98 -8.66699 142 -26c44.667 -18 83.667 -42.333 117 -73s60.333 -66.334 81 -107.001
s33.667 -84.334 39 -131.001h-51c-5.33301 38 -17.333 74.333 -36 109s-42.334 65 -71.001 91s-61.667 47 -99 63s-78 23.667 -122 23c-52 0 -98 -7 -138 -21c-40 -14.667 -74.333 -34.334 -103 -59.001c-28 -24.667 -49.333 -53 -64 -85c-15.333 -32 -23 -65.667 -23 -101
c0 -48 10.667 -87 32 -117s48.666 -55 81.999 -75c33.333 -20.667 72 -38 116 -52l134 -40c46 -12.667 90.667 -27.334 134 -44.001c44 -16.667 82.667 -37.667 116 -63c33.333 -26 60.666 -58.333 81.999 -97s31.666 -87.667 30.999 -147c0 -52 -9 -99.667 -27 -143
c-18.667 -44 -45.667 -81.667 -81 -113s-78.333 -56.333 -129 -75s-108 -27.667 -172 -27c-58.667 0 -112.334 9 -161.001 27c-48.667 18.667 -90.334 43.667 -125.001 75s-62.667 69 -84 113s-34.666 91.667 -39.999 143h51c5.33301 -44 17.333 -84.667 36 -122
s43.334 -69.666 74.001 -96.999s66.667 -48.666 108 -63.999c41.333 -16 88.333 -24 141 -24c56 0 106 8 150 24c44.667 16 82.334 37.333 113.001 64c30.667 27.333 54.334 59.666 71.001 96.999s24.667 78 24 122c0 52 -10.667 95.333 -32 130
s-48.666 63.334 -81.999 86.001s-71.666 41.667 -114.999 57c-44 15.333 -88.667 29.333 -134 42c-46 12.667 -91 26.667 -135 42s-82.333 34.333 -115 57c-33.333 23.333 -60.666 52.666 -81.999 87.999s-32 79.666 -32 132.999z" />
    <glyph glyph-name="sacute" unicode="&#x15b;" horiz-adv-x="808" 
d="M512 1311h82l-174 -246h-31zM707 236c0 -32.667 -6.99512 -64.3291 -20.9951 -94.9961c-13.333 -30 -33 -56.333 -59 -79s-57 -40.334 -93 -53.001s-77.333 -19 -124 -19s-89.334 7.33301 -128.001 22c-38.667 15.333 -72.334 36 -101.001 62
c-28 26 -49.667 55.667 -65 89c-16 33.333 -24 67.666 -24 102.999h51c5.33301 -61.333 31.666 -114 78.999 -158c47.333 -44.667 110 -67 188 -67s138.333 19.333 181 58c43.333 38.667 64.666 84.334 63.999 137.001c0 48 -13.333 84.667 -40 110
c-26.667 26 -60 47 -100 63s-83.667 28.667 -131 38c-47.333 10 -91 23.667 -131 41s-73.333 40 -100 68s-40 68 -40 120c0 30 6.66699 59.333 20 88s32.333 54 57 76s55 39.333 91 52c35.333 12.667 74.666 19 117.999 19c44 0 84 -7 120 -21
c36 -14.667 67.667 -34.334 95 -59.001s49 -53 65 -85s25.333 -65.667 28 -101h-52c-10.667 61.333 -38 112.666 -82 153.999c-44 40.667 -102 61 -174 61c-35.333 0 -67.666 -5 -96.999 -15s-54.333 -24 -75 -42s-36.334 -38 -47.001 -60s-16 -44.333 -16 -67
c0 -42 13.333 -74.333 40 -97s60 -41.334 100 -56.001s83.667 -27 131 -37s91 -24.333 131 -43s73.667 -43.667 101 -75c26.667 -32 40 -76 40 -132z" />
    <glyph glyph-name="Scedilla" unicode="&#x15e;" 
d="M133 983c0 44 8.50293 84.999 25.5029 122.999s42 71.333 75 100s73 51.5 120 68.5s99.833 25.5 158.5 25.5c50.667 0 98.167 -8.83301 142.5 -26.5s83.166 -41.834 116.499 -72.501s60.333 -66.5 81 -107.5s33.667 -84.5 39 -130.5h-51
c-5.33301 38 -17.333 74.333 -36 109s-42.334 65 -71.001 91s-61.667 46.833 -99 62.5s-78 23.5 -122 23.5c-52 0 -98.167 -7.16699 -138.5 -21.5s-74.5 -33.666 -102.5 -57.999s-49.5 -52.666 -64.5 -84.999s-22.5 -66.166 -22.5 -101.499c0 -48 10.667 -87 32 -117
s48.666 -55.167 81.999 -75.5s71.833 -37.333 115.5 -51l134 -40c45.667 -13 90.5 -27.667 134.5 -44s82.667 -37.5 116 -63.5s60.5 -58.5 81.5 -97.5s31.5 -87.833 31.5 -146.5c0 -102.667 -33 -185.334 -99 -248.001s-155.667 -99.334 -269 -110.001l-41 -72
c40.667 0 73 -12.667 97 -38s36 -53.666 36 -84.999s-12.667 -59.666 -38 -84.999s-64 -38 -116 -38c-10.667 0 -20.167 0.333008 -28.5 1s-15.833 1.66699 -22.5 3s-13.334 3.66602 -20.001 6.99902v41c6.66699 -2.66699 13.334 -5 20.001 -7
c6.66699 -1.33301 14.167 -2.33301 22.5 -3s17.833 -1 28.5 -1c35.333 0 61.333 8.5 78 25.5s25 35.833 25 56.5s-7.5 39.5 -22.5 56.5s-38.167 25.5 -69.5 25.5c-5.33301 0 -10.833 -0.666992 -16.5 -2l-16.5 -4c-5.33301 -1.33301 -11.666 -2.66602 -18.999 -3.99902
l62 123c-58.667 0 -112.334 9.16699 -161.001 27.5s-90.334 43.166 -125.001 74.499s-62.667 68.833 -84 112.5s-34.666 91.5 -39.999 143.5h51c5.33301 -44 17.333 -84.667 36 -122s43.334 -69.666 74.001 -96.999s66.834 -48.833 108.501 -64.5s88.5 -23.5 140.5 -23.5
c56 0 106.167 7.83301 150.5 23.5s81.833 37.167 112.5 64.5s54.167 59.833 70.5 97.5s24.5 78.167 24.5 121.5c0 52 -10.5 95.333 -31.5 130s-48.333 63.334 -82 86.001s-72.334 41.5 -116.001 56.5s-88.334 29 -134.001 42s-90.334 27 -134.001 42
s-82.167 34.167 -115.5 57.5s-60.666 52.666 -81.999 87.999s-32 79.666 -32 132.999z" />
    <glyph glyph-name="scedilla" unicode="&#x15f;" horiz-adv-x="808" 
d="M707 236c0 -66.667 -25.666 -123.013 -76.999 -169.013s-118 -71.667 -200 -77l-31 -72c40.667 0 73 -12.667 97 -38s36 -53.666 36 -84.999s-12.5 -59.666 -37.5 -84.999s-63.5 -38 -115.5 -38c-10.667 0 -20.167 0.333008 -28.5 1s-15.833 1.66699 -22.5 3
s-13.667 3.66602 -21 6.99902v41c6.66699 -2.66699 13.667 -5 21 -7c6.66699 -1.33301 14 -2.33301 22 -3s17.667 -1 29 -1c35.333 0 61.166 8.5 77.499 25.5s24.5 35.833 24.5 56.5s-7.5 39.5 -22.5 56.5s-38.167 25.5 -69.5 25.5c-5.33301 0 -10.666 -0.666992 -15.999 -2
s-11 -2.66602 -17 -3.99902c-5.33301 -1.33301 -11.333 -2.66602 -18 -3.99902l51 123c-44 2.66699 -84 11.834 -120 27.501s-67.333 35.834 -94 60.501s-47.167 53.334 -61.5 86.001s-21.5 66.667 -21.5 102h51c5.33301 -61.333 31.666 -114.166 78.999 -158.499
s110 -66.5 188 -66.5s138.333 19.5 181 58.5s64 84.5 64 136.5c0 48 -13.333 84.833 -40 110.5s-60 46.334 -100 62.001s-83.667 28.667 -131 39s-91 24 -131 41s-73.333 39.5 -100 67.5s-40 68 -40 120c0 30 6.83301 59.333 20.5 88s32.667 53.834 57 75.501
s54.333 39 90 52s75.167 19.5 118.5 19.5c44 0 84 -7.16699 120 -21.5s67.667 -33.666 95 -57.999s48.833 -52.666 64.5 -84.999s25.167 -66.166 28.5 -101.499h-52c-10.667 61.333 -37.834 112.5 -81.501 153.5s-101.834 61.5 -174.501 61.5
c-35.333 0 -67.666 -5.16699 -96.999 -15.5s-54.166 -24.333 -74.499 -42s-36 -37.334 -47 -59.001s-16.5 -44.167 -16.5 -67.5c0 -42 13.333 -74.333 40 -97s60.167 -41.167 100.5 -55.5s84 -26.666 131 -36.999s90.667 -24.666 131 -42.999s73.833 -43.5 100.5 -75.5
s40 -76 40 -132z" />
    <glyph glyph-name="Scaron" unicode="&#x160;" 
d="M297 1669h61l164 -184l164 184h62l-205 -225h-41zM133 983c0 44 8.66602 85.0049 25.999 123.005s42 71.333 74 100c32.667 28.667 72.667 51.667 120 69s100.333 25.666 159 24.999c50.667 0 98 -8.66699 142 -26c44.667 -18 83.667 -42.333 117 -73
s60.333 -66.334 81 -107.001s33.667 -84.334 39 -131.001h-51c-5.33301 38 -17.333 74.333 -36 109s-42.334 65 -71.001 91s-61.667 47 -99 63s-78 23.667 -122 23c-52 0 -98 -7 -138 -21c-40 -14.667 -74.333 -34.334 -103 -59.001c-28 -24.667 -49.333 -53 -64 -85
c-15.333 -32 -23 -65.667 -23 -101c0 -48 10.667 -87 32 -117s48.666 -55 81.999 -75c33.333 -20.667 72 -38 116 -52l134 -40c46 -12.667 90.667 -27.334 134 -44.001c44 -16.667 82.667 -37.667 116 -63c33.333 -26 60.666 -58.333 81.999 -97s31.666 -87.667 30.999 -147
c0 -52 -9 -99.667 -27 -143c-18.667 -44 -45.667 -81.667 -81 -113s-78.333 -56.333 -129 -75s-108 -27.667 -172 -27c-58.667 0 -112.334 9 -161.001 27c-48.667 18.667 -90.334 43.667 -125.001 75s-62.667 69 -84 113s-34.666 91.667 -39.999 143h51
c5.33301 -44 17.333 -84.667 36 -122s43.334 -69.666 74.001 -96.999s66.667 -48.666 108 -63.999c41.333 -16 88.333 -24 141 -24c56 0 106 8 150 24c44.667 16 82.334 37.333 113.001 64c30.667 27.333 54.334 59.666 71.001 96.999s24.667 78 24 122
c0 52 -10.667 95.333 -32 130s-48.666 63.334 -81.999 86.001s-71.666 41.667 -114.999 57c-44 15.333 -88.667 29.333 -134 42c-46 12.667 -91 26.667 -135 42s-82.333 34.333 -115 57c-33.333 23.333 -60.666 52.666 -81.999 87.999s-32 79.666 -32 132.999z" />
    <glyph glyph-name="scaron" unicode="&#x161;" horiz-adv-x="808" 
d="M184 1300h62l164 -184l163 184h62l-205 -225h-41zM707 236c0 -32.667 -6.99512 -64.3291 -20.9951 -94.9961c-13.333 -30 -33 -56.333 -59 -79s-57 -40.334 -93 -53.001s-77.333 -19 -124 -19s-89.334 7.33301 -128.001 22c-38.667 15.333 -72.334 36 -101.001 62
c-28 26 -49.667 55.667 -65 89c-16 33.333 -24 67.666 -24 102.999h51c5.33301 -61.333 31.666 -114 78.999 -158c47.333 -44.667 110 -67 188 -67s138.333 19.333 181 58c43.333 38.667 64.666 84.334 63.999 137.001c0 48 -13.333 84.667 -40 110
c-26.667 26 -60 47 -100 63s-83.667 28.667 -131 38c-47.333 10 -91 23.667 -131 41s-73.333 40 -100 68s-40 68 -40 120c0 30 6.66699 59.333 20 88s32.333 54 57 76s55 39.333 91 52c35.333 12.667 74.666 19 117.999 19c44 0 84 -7 120 -21
c36 -14.667 67.667 -34.334 95 -59.001s49 -53 65 -85s25.333 -65.667 28 -101h-52c-10.667 61.333 -38 112.666 -82 153.999c-44 40.667 -102 61 -174 61c-35.333 0 -67.666 -5 -96.999 -15s-54.333 -24 -75 -42s-36.334 -38 -47.001 -60s-16 -44.333 -16 -67
c0 -42 13.333 -74.333 40 -97s60 -41.334 100 -56.001s83.667 -27 131 -37s91 -24.333 131 -43s73.667 -43.667 101 -75c26.667 -32 40 -76 40 -132z" />
    <glyph glyph-name="uni0162" unicode="&#x162;" horiz-adv-x="993" 
d="M451 -211c0 13.333 4.33203 24.667 12.999 34c8.66699 8.66699 19.334 13 32.001 13c13.333 0 24.333 -4.66699 33 -14s13.334 -23.666 14.001 -42.999c0 -30 -6 -57.333 -18 -82c-11.333 -24.667 -24.666 -46.667 -39.999 -66c-16.667 -22 -35 -42.333 -55 -61l-10 10
c13.333 15.333 25.666 31 36.999 47c9.33301 15.333 17.666 32.666 24.999 51.999c7.33301 20 12 41.667 14 65c-12 0 -22.667 4.33301 -32 13c-8.66699 9.33301 -13 20 -13 32zM931.999 1239h-410v-1239h-51v1239h-410v51h871v-51z" />
    <glyph glyph-name="uni0163" unicode="&#x163;" horiz-adv-x="604" 
d="M328 -211c0 13.333 4.33398 24.667 13.001 34c8.66699 8.66699 19.334 13 32.001 13c13.333 0 24.666 -4.66699 33.999 -14c8.66699 -9.33301 13 -23.666 13 -42.999c0 -30 -6 -57.333 -18 -82c-11.333 -24.667 -24.666 -46.667 -39.999 -66
c-16.667 -22 -35 -42.333 -55 -61l-10 10c13.333 15.333 25.666 31 36.999 47c9.33301 15.333 17.666 32.666 24.999 51.999c7.33301 20 12 41.667 14 65c-12 0 -22.667 4.33301 -32 13c-8.66699 9.33301 -13 20 -13 32zM225.001 850.001h-183.999v51h92
c61.333 0 92 30.667 92 92v174h51v-266h236v-51h-236v-625c0 -57.333 16.333 -102.333 49 -135c32 -32.667 74 -49 126 -49c10.667 0 20 0.333008 28 1s15.667 1.66699 23 3c6.66699 1.33301 13.334 3.33301 20.001 6v-51c-6.66699 -2.66699 -13.334 -4.66699 -20.001 -6
s-14.334 -2.33301 -23.001 -3c-8 -0.666992 -17.333 -1 -28 -1c-66.667 0 -121 21 -163 63c-41.333 42 -62.333 99.333 -63 172v625z" />
    <glyph glyph-name="Tcaron" unicode="&#x164;" horiz-adv-x="993" 
d="M276 1669h62l164 -184l164 184h61l-205 -225h-41zM932 1239h-410v-1239h-51v1239h-410v51h871v-51z" />
    <glyph glyph-name="tcaron" unicode="&#x165;" horiz-adv-x="665" 
d="M614 1290h82l-112 -246h-41zM225 850h-184v51h92c61.333 0 92 30.667 92 92v174h51v-266h236v-51h-236v-625c0 -57.333 16.167 -102.333 48.5 -135s74.5 -49 126.5 -49c10.667 0 20.167 0.333008 28.5 1s15.833 1.66699 22.5 3s13.334 3.33301 20.001 6v-51
c-6.66699 -2.66699 -13.334 -4.66699 -20.001 -6s-14.167 -2.33301 -22.5 -3s-17.833 -1 -28.5 -1c-66.667 0 -121 21.167 -163 63.5s-63 99.5 -63 171.5v625z" />
    <glyph glyph-name="Umacron" unicode="&#x16a;" horiz-adv-x="1249" 
d="M860 1505h-471v51h471v-51zM625 -10c-66.667 0 -128.003 11.332 -184.003 33.999c-55.333 22.667 -102.666 55.334 -141.999 98.001c-39.333 43.333 -70 96 -92 158s-33 132.667 -33 212v798h51v-798c0 -72.667 10 -136.667 30 -192s47.333 -102.333 82 -141
s76.667 -68 126 -88s103.333 -30 162 -30s112.334 10 161.001 30c49.333 20 91.333 49.333 126 88s62 85.667 82 141s30 119.333 30 192v798h51v-798c0 -79.333 -11 -150 -33 -212s-52.667 -114.667 -92 -158s-86.666 -76 -141.999 -98
c-55.333 -22.667 -116.333 -34 -183 -34z" />
    <glyph glyph-name="umacron" unicode="&#x16b;" horiz-adv-x="1013" 
d="M748 1137h-472v51h472v-51zM502 -10c-52 0 -99.998 9.00098 -143.998 27.001c-44 18.667 -81.333 44.667 -112 78c-31.333 33.333 -56.333 73.333 -75 120s-28 98 -28 154v532h52v-532c0 -49.333 7.66699 -94.333 23 -135c16 -40 37.667 -74.333 65 -103
s59.666 -50.667 96.999 -66c37.333 -16 78 -24 122 -24s85 8 123 24s71.333 38 100 66c28.667 28.667 51.667 63 69 103s25.666 85 24.999 135v532h51v-901h-41l-10 184h-10c-18 -36.667 -41.333 -69.334 -70 -98.001c-24.667 -24.667 -56 -47 -94 -67
c-38 -19.333 -85.667 -29 -143 -29z" />
    <glyph glyph-name="Uring" unicode="&#x16e;" horiz-adv-x="1249" 
d="M788 1577c0 -46.667 -15.668 -85.667 -47.001 -117s-70 -47 -116 -47c-46.667 0 -85.667 15.667 -117 47s-47 70.333 -47 117s15.667 85.667 47 117s70.333 47 117 47s85.334 -15.667 116.001 -47c31.333 -31.333 47 -70.333 47 -117zM736.999 1577
c0 31.333 -10.667 58 -32 80c-22 22 -48.667 33 -80 33s-58 -11 -80 -33s-33 -48.667 -33 -80s11 -58 33 -80s48.667 -33 80 -33s58 11 80 33c21.333 22 32 48.667 32 80zM624.999 -10c-66.667 0 -128.003 11.332 -184.003 33.999
c-55.333 22.667 -102.666 55.334 -141.999 98.001c-39.333 43.333 -70 96 -92 158s-33 132.667 -33 212v798h51v-798c0 -72.667 10 -136.667 30 -192s47.333 -102.333 82 -141s76.667 -68 126 -88s103.333 -30 162 -30s112.334 10 161.001 30
c49.333 20 91.333 49.333 126 88s62 85.667 82 141s30 119.333 30 192v798h51v-798c0 -79.333 -11 -150 -33 -212s-52.667 -114.667 -92 -158s-86.666 -76 -141.999 -98c-55.333 -22.667 -116.333 -34 -183 -34z" />
    <glyph glyph-name="uring" unicode="&#x16f;" horiz-adv-x="1013" 
d="M676 1208c0 -46.667 -15.667 -85.333 -47 -116c-31.333 -31.333 -70.333 -47.333 -117 -48c-46.667 0 -85.667 16 -117 48c-31.333 31.333 -47 70 -47 116c0 46.667 15.667 85.667 47 117s70.333 47 117 47s85.667 -15.667 117 -47s47 -70.333 47 -117zM625 1208
c0 31.333 -11 58 -33 80s-48.667 33 -80 33s-58 -11 -80 -33s-33 -48.667 -33 -80s11 -58 33 -80s48.667 -32.667 80 -32c31.333 0 58 10.667 80 32c22 22 33 48.667 33 80zM502 -9.99902c-52 0 -99.998 9.00098 -143.998 27.001c-44 18.667 -81.333 44.667 -112 78
c-31.333 33.333 -56.333 73.333 -75 120s-28 98 -28 154v532h52v-532c0 -49.333 7.66699 -94.333 23 -135c16 -40 37.667 -74.333 65 -103s59.666 -50.667 96.999 -66c37.333 -16 78 -24 122 -24s85 8 123 24s71.333 38 100 66c28.667 28.667 51.667 63 69 103
s25.666 85 24.999 135v532h51v-901h-41l-10 184h-10c-18 -36.667 -41.333 -69.334 -70 -98.001c-24.667 -24.667 -56 -47 -94 -67c-38 -19.333 -85.667 -29 -143 -29z" />
    <glyph glyph-name="Uhungarumlaut" unicode="&#x170;" horiz-adv-x="1249" 
d="M625 1690h82l-195 -246h-31zM870 1690h82l-194 -246h-31zM625 -10c-66.667 0 -128.003 11.332 -184.003 33.999c-55.333 22.667 -102.666 55.334 -141.999 98.001c-39.333 43.333 -70 96 -92 158s-33 132.667 -33 212v798h51v-798c0 -72.667 10 -136.667 30 -192
s47.333 -102.333 82 -141s76.667 -68 126 -88s103.333 -30 162 -30s112.334 10 161.001 30c49.333 20 91.333 49.333 126 88s62 85.667 82 141s30 119.333 30 192v798h51v-798c0 -79.333 -11 -150 -33 -212s-52.667 -114.667 -92 -158s-86.666 -76 -141.999 -98
c-55.333 -22.667 -116.333 -34 -183 -34z" />
    <glyph glyph-name="uhungarumlaut" unicode="&#x171;" horiz-adv-x="1013" 
d="M512 1321h82l-195 -246h-30zM758 1321h82l-195 -246h-31zM502 -10c-52 0 -99.998 9.00098 -143.998 27.001c-44 18.667 -81.333 44.667 -112 78c-31.333 33.333 -56.333 73.333 -75 120s-28 98 -28 154v532h52v-532c0 -49.333 7.66699 -94.333 23 -135
c16 -40 37.667 -74.333 65 -103s59.666 -50.667 96.999 -66c37.333 -16 78 -24 122 -24s85 8 123 24s71.333 38 100 66c28.667 28.667 51.667 63 69 103s25.666 85 24.999 135v532h51v-901h-41l-10 184h-10c-18 -36.667 -41.333 -69.334 -70 -98.001
c-24.667 -24.667 -56 -47 -94 -67c-38 -19.333 -85.667 -29 -143 -29z" />
    <glyph glyph-name="Uogonek" unicode="&#x172;" horiz-adv-x="1249" 
d="M625 -10c-66.667 0 -127.833 11.166 -183.5 33.499s-103.167 55 -142.5 98s-70 95.667 -92 158s-33 133.166 -33 212.499v798h51v-798c0 -72.667 10 -136.667 30 -192s47.333 -102.5 82 -141.5s76.667 -68.333 126 -88s103.333 -29.5 162 -29.5s112.5 9.83301 161.5 29.5
s91 49 126 88s62.333 86.167 82 141.5s29.5 119.333 29.5 192v798h51v-798c0 -76.667 -9.5 -144.667 -28.5 -204s-46 -109.833 -81 -151.5s-76.333 -74.5 -124 -98.5s-99.5 -40 -155.5 -48c-15.333 -15.333 -29 -31 -41 -47c-10.667 -15.333 -20.167 -32.833 -28.5 -52.5
s-12.5 -41.167 -12.5 -64.5c0 -31.333 10 -56.166 30 -74.499s47.667 -27.5 83 -27.5c6.66699 0 13.834 0.333008 21.501 1s14.834 1.66699 21.501 3s12.667 3.33301 18 6v-51c-5.33301 -2.66699 -11.333 -5 -18 -7c-6.66699 -1.33301 -13.834 -2.33301 -21.501 -3
s-14.834 -1 -21.501 -1c-52 0 -92.333 14 -121 42s-43 65.333 -43 112c0 23.333 4.16699 44.833 12.5 64.5s17.833 37.167 28.5 52.5c12 16.667 25.667 32.334 41 47.001h-10v0z" />
    <glyph glyph-name="uogonek" unicode="&#x173;" horiz-adv-x="1013" 
d="M502 -10c-52 0 -99.8301 9.16992 -143.497 27.5029s-81.167 44.166 -112.5 77.499s-56.333 73.333 -75 120s-28 98 -28 154v532h52v-532c0 -49.333 7.83301 -94.166 23.5 -134.499s37.167 -74.833 64.5 -103.5s59.666 -50.834 96.999 -66.501s78 -23.5 122 -23.5
s85 7.83301 123 23.5s71.333 37.834 100 66.501s51.5 63.167 68.5 103.5s25.5 85.166 25.5 134.499v532h51v-901c-18 -16.667 -33.667 -34.334 -47 -53.001c-10.667 -16.667 -20.834 -35.167 -30.501 -55.5s-14.5 -42.166 -14.5 -65.499c0 -31.333 10 -56.166 30 -74.499
s47.667 -27.5 83 -27.5c6.66699 0 13.834 0.333008 21.501 1s14.834 1.66699 21.501 3s12.667 3.33301 18 6v-51c-5.33301 -2.66699 -11.333 -5 -18 -7c-6.66699 -1.33301 -13.834 -2.33301 -21.501 -3s-14.834 -1 -21.501 -1c-52 0 -92.333 14 -121 42s-43 65.333 -43 112
c0 23.333 5.16699 45.166 15.5 65.499s22.166 38.833 35.499 55.5c15.333 19.333 32.333 37 51 53l-10 184h-10c-18 -36.667 -41.333 -69.334 -70 -98.001c-24.667 -24.667 -56 -46.834 -94 -66.501s-85.667 -29.5 -143 -29.5z" />
    <glyph glyph-name="Ydieresis" unicode="&#x178;" horiz-adv-x="1054" 
d="M430 1542c0 -13.333 -4.33301 -24.667 -13 -34c-8.66699 -8.66699 -20 -13 -34 -13c-12 0 -22.667 4.33301 -32 13c-8.66699 8.66699 -13 20 -13 34c0 12 4.33301 22.667 13 32c8.66699 8.66699 19.334 13 32.001 13c13.333 0 24.666 -4.33301 33.999 -13
c8.66699 -9.33301 13 -20 13 -32zM727 1542c0 -13.333 -4.33301 -24.667 -13 -34c-8.66699 -8.66699 -20 -13 -34 -13c-12 0 -22.667 4.33301 -32 13c-8.66699 8.66699 -13 20 -13 34c0 12 4.33301 22.667 13 32c8.66699 8.66699 19.334 13 32.001 13
c13.333 0 24.666 -4.33301 33.999 -13c8.66699 -9.33301 13 -20 13 -32zM61 1290h62l399 -706h10l400 706h61l-440 -768v-522h-51v522z" />
    <glyph glyph-name="Zacute" unicode="&#x179;" horiz-adv-x="983" 
d="M614 1690h82l-174 -246h-30zM113 1290h788v-30l-747 -1209h747v-51h-819v31l747 1208h-716v51z" />
    <glyph glyph-name="zacute" unicode="&#x17a;" horiz-adv-x="788" 
d="M512 1321h82l-174 -246h-31zM645 850h-553v51h625v-31l-574 -819h574v-51h-645v31z" />
    <glyph glyph-name="Zdotaccent" unicode="&#x17b;" horiz-adv-x="983" 
d="M563 1542c0 -13.333 -4.33301 -24.667 -13 -34c-8.66699 -8.66699 -20 -13 -34 -13c-12 0 -22.667 4.33301 -32 13c-8.66699 8.66699 -13 20 -13 34c0 12 4.33301 22.667 13 32c8.66699 8.66699 19.334 13 32.001 13c13.333 0 24.666 -4.33301 33.999 -13
c8.66699 -9.33301 13 -20 13 -32zM113 1290h788v-30l-747 -1209h747v-51h-819v31l747 1208h-716v51z" />
    <glyph glyph-name="zdotaccent" unicode="&#x17c;" horiz-adv-x="788" 
d="M451 1174c0 -13.333 -4.66504 -24.667 -13.998 -34c-8.66699 -8.66699 -20 -13.334 -34 -14.001c-12 0 -22.333 4.66699 -31 14c-8.66699 8.66699 -13.334 20 -14.001 34c0 12 4.66699 22.333 14 31c8.66699 8.66699 19 13.334 31 14.001
c13.333 0 24.666 -4.66699 33.999 -14c9.33301 -8.66699 14 -19 14 -31zM645.002 849.999h-553v51h625v-31l-574 -819h574v-51h-645v31z" />
    <glyph glyph-name="Zcaron" unicode="&#x17d;" horiz-adv-x="983" 
d="M287 1669h61l164 -184l164 184h61l-205 -225h-40zM113 1290h788v-30l-747 -1209h747v-51h-819v31l747 1208h-716v51z" />
    <glyph glyph-name="zcaron" unicode="&#x17e;" horiz-adv-x="788" 
d="M174 1300h62l163 -184l164 184h62l-205 -225h-41zM645 850h-553v51h625v-31l-574 -819h574v-51h-645v31z" />
    <glyph glyph-name="florin" unicode="&#x192;" horiz-adv-x="624" 
d="M338 707l-122.998 -665.998c-26 -138 -64.5 -235.667 -115.5 -293s-114.833 -86 -191.5 -86c-10.667 0 -20.167 0.333008 -28.5 1s-15.833 1.66699 -22.5 3s-13.667 3.33301 -21 6l10 52c6.66699 -2.66699 13.667 -5 21 -7c6.66699 -1.33301 13.5 -2.33301 20.5 -3
s13.833 -1 20.5 -1c61.333 0 113.5 24 156.5 72s76.167 133.333 99.5 256l123 666h-154l10 51h154l31 164c26 138 64.5 235.5 115.5 292.5s114.833 85.5 191.5 85.5c10.667 0 20.167 -0.666992 28.5 -2s15.833 -2.66602 22.5 -3.99902l21 -4l-11 -51
c-5.33301 1.33301 -11.333 2.66602 -18 3.99902s-13.834 2.66602 -21.501 3.99902s-14.834 2 -21.501 2c-61.333 0 -113.5 -23.833 -156.5 -71.5s-76.167 -132.834 -99.5 -255.501l-31 -164h225l-10 -51h-225z" />
    </font>
</defs>
</svg>
