<svg width="306" height="306" viewBox="0 0 306 306" fill="none" xmlns="http://www.w3.org/2000/svg">
<g opacity="0.3">
<circle cx="153" cy="153" r="4" fill="white"/>
<path d="M281.291 197.387L295.123 202.421L294.849 203.173L281.017 198.138L281.291 197.387Z" fill="white"/>
<path d="M275.845 210.763L289.064 217.238L288.712 217.957L275.493 211.481L275.845 210.763Z" fill="white"/>
<path d="M269.009 223.485L281.466 231.328L281.04 232.005L268.583 224.162L269.009 223.485Z" fill="white"/>
<path d="M260.861 235.41L272.414 244.532L271.918 245.16L260.365 236.038L260.861 235.41Z" fill="white"/>
<path d="M251.493 246.401L262.011 256.698L261.452 257.27L250.933 246.972L251.493 246.401Z" fill="white"/>
<path d="M241.009 256.335L250.375 267.691L249.757 268.2L240.392 256.844L241.009 256.335Z" fill="white"/>
<path d="M229.53 265.099L237.636 277.386L236.969 277.827L228.862 265.54L229.53 265.099Z" fill="white"/>
<path d="M217.185 272.594L223.94 285.673L223.229 286.04L216.474 272.961L217.185 272.594Z" fill="white"/>
<path d="M204.113 278.736L209.441 292.458L208.695 292.747L203.367 279.025L204.113 278.736Z" fill="white"/>
<path d="M190.463 283.454L194.304 297.664L193.531 297.873L189.691 283.662L190.463 283.454Z" fill="white"/>
<path d="M176.39 286.695L178.699 301.233L177.909 301.358L175.6 286.821L176.39 286.695Z" fill="white"/>
<path d="M162.051 288.424L162.803 303.125L162.004 303.166L161.252 288.465L162.051 288.424Z" fill="white"/>
<path d="M147.61 288.62L146.796 303.317L145.997 303.273L146.811 288.575L147.61 288.62Z" fill="white"/>
<path d="M133.23 287.28L130.859 301.807L130.07 301.679L132.44 287.151L133.23 287.28Z" fill="white"/>
<path d="M119.073 284.42L115.173 298.614L114.402 298.402L118.302 284.208L119.073 284.42Z" fill="white"/>
<path d="M105.301 280.074L99.9147 293.773L99.1702 293.48L104.556 279.781L105.301 280.074Z" fill="white"/>
<path d="M92.0678 274.288L85.2569 287.338L84.5477 286.968L91.3586 273.918L92.0678 274.288Z" fill="white"/>
<path d="M79.5245 267.13L71.366 279.382L70.7001 278.938L78.8586 266.686L79.5245 267.13Z" fill="white"/>
<path d="M67.8121 258.68L58.3983 269.996L57.7833 269.485L67.197 258.168L67.8121 258.68Z" fill="white"/>
<path d="M57.0637 249.033L46.5012 259.285L45.944 258.711L56.5065 248.459L57.0637 249.033Z" fill="white"/>
<path d="M47.4009 238.3L35.8091 247.372L35.3161 246.742L46.9079 237.67L47.4009 238.3Z" fill="white"/>
<path d="M38.9326 226.6L26.4427 234.39L26.0193 233.711L38.5093 225.922L38.9326 226.6Z" fill="white"/>
<path d="M31.7552 214.068L18.5086 220.487L18.1597 219.767L31.4064 213.348L31.7552 214.068Z" fill="white"/>
<path d="M25.9495 200.844L12.0959 205.819L11.8255 205.067L25.6791 200.091L25.9495 200.844Z" fill="white"/>
<path d="M21.5814 187.078L7.2777 190.553L7.08879 189.776L21.3925 186.3L21.5814 187.078Z" fill="white"/>
<path d="M18.7003 172.926L4.10828 174.863L4.00302 174.07L18.595 172.133L18.7003 172.926Z" fill="white"/>
<path d="M17.3386 158.548L2.62345 158.924L2.60302 158.124L17.3182 157.748L17.3386 158.548Z" fill="white"/>
<path d="M17.512 144.106L2.84009 142.917L2.90473 142.12L17.5766 143.309L17.512 144.106Z" fill="white"/>
<path d="M19.2183 129.765L4.75577 127.024L4.90473 126.238L19.3673 128.979L19.2183 129.765Z" fill="white"/>
<path d="M22.4384 115.687L8.34882 111.425L8.58044 110.659L22.67 114.921L22.4384 115.687Z" fill="white"/>
<path d="M27.1357 102.029L13.5785 96.2949L13.8902 95.5581L27.4474 101.292L27.1357 102.029Z" fill="white"/>
<path d="M33.2572 88.9483L20.3858 81.8064L20.7739 81.1068L33.6453 88.2487L33.2572 88.9483Z" fill="white"/>
<path d="M40.7332 76.5914L28.6933 68.1227L29.1536 67.4684L41.1935 75.9371L40.7332 76.5914Z" fill="white"/>
<path d="M49.4797 65.0993L38.4074 55.3996L38.9346 54.7979L50.0068 64.4976L49.4797 65.0993Z" fill="white"/>
<path d="M59.3976 54.6012L49.4183 43.7803L50.0064 43.2379L59.9857 54.0588L59.3976 54.6012Z" fill="white"/>
<path d="M70.3744 45.2148L61.601 33.3951L62.2434 32.9183L71.0168 44.738L70.3744 45.2148Z" fill="white"/>
<path d="M82.2863 37.0483L74.818 24.3635L75.5074 23.9576L82.9757 36.6424L82.2863 37.0483Z" fill="white"/>
<path d="M94.9978 30.1932L88.9192 16.7869L89.6478 16.4565L95.7264 29.8628L94.9978 30.1932Z" fill="white"/>
<path d="M108.366 24.7274L103.746 10.7513L104.505 10.5002L109.126 24.4763L108.366 24.7274Z" fill="white"/>
<path d="M122.239 20.7126L119.13 6.32481L119.912 6.15582L123.021 20.5436L122.239 20.7126Z" fill="white"/>
<path d="M136.46 18.1941L134.896 3.55737L135.692 3.47239L137.256 18.1091L136.46 18.1941Z" fill="white"/>
<path d="M150.868 17.2L150.868 2.48L151.668 2.48L151.668 17.2L150.868 17.2Z" fill="white"/>
<path d="M165.3 17.7413L166.864 3.10455L167.659 3.18953L166.096 17.8263L165.3 17.7413Z" fill="white"/>
<path d="M179.593 19.8134L182.703 5.4256L183.485 5.5946L180.375 19.9824L179.593 19.8134Z" fill="white"/>
<path d="M193.585 23.3922L198.205 9.41609L198.965 9.66719L194.345 23.6433L193.585 23.3922Z" fill="white"/>
<path d="M207.118 28.4366L213.197 15.0303L213.925 15.3606L207.847 28.7669L207.118 28.4366Z" fill="white"/>
<path d="M220.038 34.8904L227.506 22.2057L228.196 22.6115L220.728 35.2963L220.038 34.8904Z" fill="white"/>
<path d="M232.2 42.6793L240.973 30.8596L241.616 31.3364L232.842 43.1561L232.2 42.6793Z" fill="white"/>
<path d="M243.465 51.7161L253.445 40.8952L254.033 41.4376L244.053 52.2585L243.465 51.7161Z" fill="white"/>
<path d="M253.707 61.8995L264.779 52.1998L265.307 52.8015L254.234 62.5012L253.707 61.8995Z" fill="white"/>
<path d="M262.809 73.1122L274.849 64.6435L275.31 65.2978L263.27 73.7665L262.809 73.1122Z" fill="white"/>
<path d="M270.669 85.2283L283.541 78.0864L283.929 78.786L271.057 85.9279L270.669 85.2283Z" fill="white"/>
<path d="M277.197 98.1113L290.755 92.377L291.066 93.1138L277.509 98.8481L277.197 98.1113Z" fill="white"/>
<path d="M282.32 111.615L296.41 107.353L296.641 108.119L282.552 112.381L282.32 111.615Z" fill="white"/>
<path d="M285.98 125.586L300.442 122.845L300.591 123.631L286.129 126.372L285.98 125.586Z" fill="white"/>
<path d="M288.134 139.866L302.806 138.677L302.871 139.474L288.199 140.663L288.134 139.866Z" fill="white"/>
<path d="M288.76 154.296L303.475 154.671L303.455 155.471L288.74 155.095L288.76 154.296Z" fill="white"/>
<path d="M287.85 168.708L302.442 170.645L302.336 171.438L287.744 169.502L287.85 168.708Z" fill="white"/>
<path d="M285.413 182.944L299.717 186.42L299.528 187.197L285.224 183.721L285.413 182.944Z" fill="white"/>
<path d="M281.479 196.84L295.332 201.816L295.062 202.568L281.208 197.593L281.479 196.84Z" fill="white"/>
<path d="M276.09 210.24L289.337 216.659L288.988 217.378L275.741 210.959L276.09 210.24Z" fill="white"/>
<path d="M269.309 222.991L281.798 230.781L281.375 231.46L268.885 223.67L269.309 222.991Z" fill="white"/>
<path d="M261.211 234.95L272.803 244.023L272.31 244.653L260.718 235.58L261.211 234.95Z" fill="white"/>
<path d="M251.889 245.981L262.452 256.233L261.895 256.807L251.332 246.555L251.889 245.981Z" fill="white"/>
<path d="M241.448 255.959L250.862 267.276L250.247 267.787L240.833 256.471L241.448 255.959Z" fill="white"/>
<path d="M230.007 264.773L238.165 277.025L237.499 277.468L229.341 265.216L230.007 264.773Z" fill="white"/>
<path d="M217.694 272.32L224.504 285.37L223.795 285.74L216.984 272.691L217.694 272.32Z" fill="white"/>
<path d="M204.648 278.517L210.034 292.216L209.29 292.508L203.904 278.809L204.648 278.517Z" fill="white"/>
<path d="M191.019 283.293L194.919 297.487L194.148 297.699L190.247 283.505L191.019 283.293Z" fill="white"/>
<path d="M176.959 286.595L179.329 301.123L178.54 301.251L176.169 286.724L176.959 286.595Z" fill="white"/>
<path d="M162.627 288.384L163.442 303.082L162.643 303.126L161.829 288.428L162.627 288.384Z" fill="white"/>
<path d="M148.187 288.641L147.436 303.342L146.637 303.301L147.388 288.6L148.187 288.641Z" fill="white"/>
<path d="M133.802 287.362L131.493 301.9L130.703 301.775L133.012 287.237L133.802 287.362Z" fill="white"/>
<path d="M119.633 284.563L115.793 298.774L115.021 298.565L118.861 284.355L119.633 284.563Z" fill="white"/>
<path d="M105.842 280.275L100.515 293.997L99.7688 293.708L105.097 279.986L105.842 280.275Z" fill="white"/>
<path d="M92.5847 274.547L85.8294 287.625L85.1187 287.258L91.8739 274.179L92.5847 274.547Z" fill="white"/>
<path d="M80.011 267.441L71.9047 279.728L71.237 279.288L79.3432 267.001L80.011 267.441Z" fill="white"/>
<path d="M68.2628 259.041L58.8973 270.398L58.2801 269.889L67.6456 258.532L68.2628 259.041Z" fill="white"/>
<path d="M57.4735 249.441L46.9547 259.738L46.395 259.167L56.9138 248.869L57.4735 249.441Z" fill="white"/>
<path d="M47.765 238.748L36.2119 247.87L35.7162 247.242L47.2692 238.12L47.765 238.748Z" fill="white"/>
<path d="M39.2471 227.085L26.7905 234.928L26.3642 234.251L38.8209 226.408L39.2471 227.085Z" fill="white"/>
<path d="M32.0162 214.583L18.7969 221.058L18.445 220.34L31.6643 213.865L32.0162 214.583Z" fill="white"/>
<path d="M26.1545 201.384L12.3222 206.418L12.0486 205.667L25.8809 200.632L26.1545 201.384Z" fill="white"/>
</g>
</svg>
