<svg width="83" height="83" viewBox="0 0 83 83" fill="none" xmlns="http://www.w3.org/2000/svg">
<circle cx="41.0684" cy="41.0687" r="1.86995" fill="#FFCC1E"/>
<path d="M63.3343 49.6377L77.1666 54.6722L76.8929 55.424L63.0607 50.3895L63.3343 49.6377Z" fill="#FFCC1E"/>
<path d="M62.2969 51.9543L75.5162 58.4296L75.1642 59.1481L61.945 52.6727L62.2969 51.9543Z" fill="#FFCC1E"/>
<path d="M61.0193 54.1475L73.4759 61.9904L73.0497 62.6674L60.5931 54.8245L61.0193 54.1475Z" fill="#FFCC1E"/>
<path d="M59.516 56.1928L71.0691 65.3145L70.5733 65.9424L59.0203 56.8207L59.516 56.1928Z" fill="#FFCC1E"/>
<path d="M57.804 58.0666L68.3228 68.3639L67.7631 68.9355L57.2443 58.6383L57.804 58.0666Z" fill="#FFCC1E"/>
<path d="M55.9025 59.7484L65.268 71.1047L64.6508 71.6137L55.2853 60.2574L55.9025 59.7484Z" fill="#FFCC1E"/>
<path d="M53.8333 61.2182L61.9395 73.5051L61.2717 73.9456L53.1655 61.6588L53.8333 61.2182Z" fill="#FFCC1E"/>
<path d="M51.6195 62.46L58.3748 75.5384L57.664 75.9055L50.9087 62.8271L51.6195 62.46Z" fill="#FFCC1E"/>
<path d="M49.2864 63.4597L54.6142 77.1817L53.8685 77.4713L48.5407 63.7493L49.2864 63.4597Z" fill="#FFCC1E"/>
<path d="M46.8604 64.206L50.7005 78.4163L49.9282 78.625L46.0881 64.4147L46.8604 64.206Z" fill="#FFCC1E"/>
<path d="M44.3688 64.6902L46.6777 79.228L45.8876 79.3535L43.5787 64.8157L44.3688 64.6902Z" fill="#FFCC1E"/>
<path d="M41.8398 64.9072L42.5914 79.608L41.7924 79.6488L41.0408 64.948L41.8398 64.9072Z" fill="#FFCC1E"/>
<path d="M39.3021 64.8538L38.4879 79.5513L37.6892 79.507L38.5033 64.8096L39.3021 64.8538Z" fill="#FFCC1E"/>
<path d="M36.7844 64.5318L34.4137 79.0596L33.6241 78.9308L35.9949 64.403L36.7844 64.5318Z" fill="#FFCC1E"/>
<path d="M34.3152 63.9439L30.4146 78.1377L29.6432 77.9258L33.5438 63.7319L34.3152 63.9439Z" fill="#FFCC1E"/>
<path d="M31.9224 63.0972L26.5362 76.7964L25.7917 76.5037L31.1778 62.8045L31.9224 63.0972Z" fill="#FFCC1E"/>
<path d="M29.633 62.0009L22.8222 75.0504L22.113 74.6803L28.9238 61.6307L29.633 62.0009Z" fill="#FFCC1E"/>
<path d="M27.4731 60.6678L19.3147 72.9201L18.6488 72.4767L26.8073 60.2244L27.4731 60.6678Z" fill="#FFCC1E"/>
<path d="M25.467 59.1125L16.0532 70.4288L15.4382 69.9172L24.852 58.6008L25.467 59.1125Z" fill="#FFCC1E"/>
<path d="M23.6374 57.353L13.0749 67.6054L12.5177 67.0313L23.0802 56.779L23.6374 57.353Z" fill="#FFCC1E"/>
<path d="M22.0051 55.4098L10.4133 64.4822L9.92023 63.8523L21.512 54.7798L22.0051 55.4098Z" fill="#FFCC1E"/>
<path d="M20.5884 53.3031L8.09853 61.0929L7.67517 60.4141L20.1651 52.6243L20.5884 53.3031Z" fill="#FFCC1E"/>
<path d="M19.4036 51.0589L6.15687 57.4779L5.80801 56.7579L19.0547 50.3389L19.4036 51.0589Z" fill="#FFCC1E"/>
<path d="M18.4638 48.7007L4.61018 53.6764L4.33977 52.9234L18.1933 47.9478L18.4638 48.7007Z" fill="#FFCC1E"/>
<path d="M17.7798 46.2562L3.47606 49.7322L3.28715 48.9548L17.5909 45.4789L17.7798 46.2562Z" fill="#FFCC1E"/>
<path d="M17.3593 43.7534L2.76728 45.6903L2.66201 44.8972L17.254 42.9603L17.3593 43.7534Z" fill="#FFCC1E"/>
<path d="M17.2071 41.2195L2.49189 41.5954L2.47146 40.7957L17.1867 40.4197L17.2071 41.2195Z" fill="#FFCC1E"/>
<path d="M17.3249 38.6838L2.65299 37.4946L2.71762 36.6972L17.3895 37.8864L17.3249 38.6838Z" fill="#FFCC1E"/>
<path d="M17.7113 36.1755L3.24878 33.4345L3.39774 32.6485L17.8603 35.3895L17.7113 36.1755Z" fill="#FFCC1E"/>
<path d="M18.362 33.7221L4.27246 29.4603L4.50408 28.6946L18.5937 32.9563L18.362 33.7221Z" fill="#FFCC1E"/>
<path d="M19.2697 31.3514L5.71255 25.6172L6.02419 24.8804L19.5814 30.6146L19.2697 31.3514Z" fill="#FFCC1E"/>
<path d="M20.424 29.0908L7.55266 21.949L7.9408 21.2494L20.8122 28.3913L20.424 29.0908Z" fill="#FFCC1E"/>
<path d="M21.8119 26.9659L9.77197 18.4972L10.2322 17.8429L22.2721 26.3116L21.8119 26.9659Z" fill="#FFCC1E"/>
<path d="M23.4177 25.0002L12.3454 15.3005L12.8726 14.6988L23.9448 24.3984L23.4177 25.0002Z" fill="#FFCC1E"/>
<path d="M25.2232 23.2164L15.2439 12.3955L15.832 11.8532L25.8113 22.6741L25.2232 23.2164Z" fill="#FFCC1E"/>
<path d="M27.208 21.6338L18.4346 9.81405L19.077 9.33723L27.8504 21.1569L27.208 21.6338Z" fill="#FFCC1E"/>
<path d="M29.3497 20.2714L21.8814 7.58663L22.5708 7.18075L30.039 19.8655L29.3497 20.2714Z" fill="#FFCC1E"/>
<path d="M31.6239 19.1443L25.5452 5.73804L26.2738 5.40768L32.3525 18.814L31.6239 19.1443Z" fill="#FFCC1E"/>
<path d="M34.005 18.265L29.3848 4.28886L30.1444 4.03776L34.7645 18.0139L34.005 18.265Z" fill="#FFCC1E"/>
<path d="M36.466 17.6438L33.3565 3.25596L34.1385 3.08697L37.2479 17.4748L36.466 17.6438Z" fill="#FFCC1E"/>
<path d="M38.9791 17.2873L37.4155 2.65063L38.211 2.56565L39.7746 17.2024L38.9791 17.2873Z" fill="#FFCC1E"/>
<path d="M41.5158 17.2L41.5158 2.48L42.3158 2.48L42.3158 17.2L41.5158 17.2Z" fill="#FFCC1E"/>
<path d="M44.0475 17.3824L45.6111 2.74567L46.4066 2.83064L44.843 17.4674L44.0475 17.3824Z" fill="#FFCC1E"/>
<path d="M46.5454 17.833L49.6549 3.44513L50.4369 3.61413L47.3274 18.002L46.5454 17.833Z" fill="#FFCC1E"/>
<path d="M48.9815 18.546L53.6016 4.5699L54.3612 4.821L49.741 18.7971L48.9815 18.546Z" fill="#FFCC1E"/>
<path d="M51.3279 19.5137L57.4066 6.10742L58.1352 6.43778L52.0565 19.8441L51.3279 19.5137Z" fill="#FFCC1E"/>
<path d="M53.5583 20.7254L61.0265 8.04061L61.7159 8.4465L54.2477 21.1313L53.5583 20.7254Z" fill="#FFCC1E"/>
<path d="M55.6473 22.1671L64.4207 10.3474L65.0631 10.8242L56.2897 22.6439L55.6473 22.1671Z" fill="#FFCC1E"/>
<path d="M57.5714 23.8226L67.5507 13.0016L68.1388 13.544L58.1595 24.3649L57.5714 23.8226Z" fill="#FFCC1E"/>
<path d="M59.3087 25.6729L70.381 15.9732L70.9081 16.575L59.8359 26.2747L59.3087 25.6729Z" fill="#FFCC1E"/>
<path d="M60.8397 27.6976L72.8796 19.2289L73.3399 19.8833L61.2999 28.352L60.8397 27.6976Z" fill="#FFCC1E"/>
<path d="M62.147 29.8733L75.0183 22.7315L75.4065 23.431L62.5351 30.5729L62.147 29.8733Z" fill="#FFCC1E"/>
<path d="M63.2157 32.1757L76.7729 26.4415L77.0845 27.1783L63.5274 32.9125L63.2157 32.1757Z" fill="#FFCC1E"/>
<path d="M64.0338 34.5787L78.1234 30.317L78.355 31.0827L64.2655 35.3445L64.0338 34.5787Z" fill="#FFCC1E"/>
<path d="M64.5921 37.0544L79.0547 34.3133L79.2036 35.0993L64.7411 37.8404L64.5921 37.0544Z" fill="#FFCC1E"/>
<path d="M64.8842 39.5759L79.5561 38.3866L79.6208 39.184L64.9489 40.3733L64.8842 39.5759Z" fill="#FFCC1E"/>
<path d="M64.9069 42.1144L79.6221 42.4903L79.6016 43.2901L64.8864 42.9141L64.9069 42.1144Z" fill="#FFCC1E"/>
<path d="M64.6598 44.6401L79.2518 46.577L79.1465 47.3701L64.5545 45.4332L64.6598 44.6401Z" fill="#FFCC1E"/>
<path d="M64.1458 47.1261L78.4495 50.602L78.2606 51.3794L63.9569 47.9034L64.1458 47.1261Z" fill="#FFCC1E"/>
<path d="M63.3706 49.543L77.2242 54.5187L76.9538 55.2716L63.1002 50.296L63.3706 49.543Z" fill="#FFCC1E"/>
<path d="M62.3431 51.864L75.5898 58.283L75.2409 59.003L61.9942 52.5839L62.3431 51.864Z" fill="#FFCC1E"/>
<path d="M61.0748 54.0623L73.5648 61.8521L73.1414 62.5309L60.6515 54.7411L61.0748 54.0623Z" fill="#FFCC1E"/>
<path d="M59.5802 56.1144L71.172 65.1868L70.679 65.8168L59.0872 56.7444L59.5802 56.1144Z" fill="#FFCC1E"/>
<path d="M57.8762 57.9952L68.4387 68.2476L67.8815 68.8217L57.319 58.5693L57.8762 57.9952Z" fill="#FFCC1E"/>
<path d="M55.9819 59.6849L65.3957 71.0012L64.7807 71.5128L55.3669 60.1965L55.9819 59.6849Z" fill="#FFCC1E"/>
<path d="M53.9189 61.1635L62.0774 73.4158L61.4115 73.8592L53.2531 61.6069L53.9189 61.1635Z" fill="#FFCC1E"/>
<path d="M51.7106 62.415L58.5214 75.4645L57.8122 75.8347L51.0013 62.7851L51.7106 62.415Z" fill="#FFCC1E"/>
<path d="M49.3817 63.4245L54.7679 77.1237L54.0234 77.4164L48.6372 63.7172L49.3817 63.4245Z" fill="#FFCC1E"/>
<path d="M46.9589 64.1812L50.8594 78.375L50.088 78.587L46.1874 64.3931L46.9589 64.1812Z" fill="#FFCC1E"/>
<path d="M44.4693 64.676L46.8401 79.2038L46.0505 79.3327L43.6797 64.8048L44.4693 64.676Z" fill="#FFCC1E"/>
<path d="M41.9413 64.9033L42.7554 79.6008L41.9567 79.645L41.1425 64.9476L41.9413 64.9033Z" fill="#FFCC1E"/>
<path d="M39.4034 64.8612L38.6518 79.562L37.8528 79.5212L38.6044 64.8204L39.4034 64.8612Z" fill="#FFCC1E"/>
<path d="M36.8843 64.5494L34.5754 79.0872L33.7853 78.9618L36.0942 64.424L36.8843 64.5494Z" fill="#FFCC1E"/>
<path d="M34.4126 63.9724L30.5725 78.1827L29.8003 77.974L33.6403 63.7637L34.4126 63.9724Z" fill="#FFCC1E"/>
<path d="M32.0163 63.1357L26.6885 76.8577L25.9427 76.5681L31.2705 62.8461L32.0163 63.1357Z" fill="#FFCC1E"/>
<path d="M29.7222 62.0495L22.967 75.128L22.2562 74.7608L29.0115 61.6824L29.7222 62.0495Z" fill="#FFCC1E"/>
<path d="M27.5567 60.7256L19.4505 73.0125L18.7827 72.5719L26.8889 60.285L27.5567 60.7256Z" fill="#FFCC1E"/>
<path d="M25.544 59.1787L16.1785 70.535L15.5613 70.026L24.9268 58.6697L25.544 59.1787Z" fill="#FFCC1E"/>
<path d="M23.7069 57.4273L13.1881 67.7245L12.6285 67.1529L23.1473 56.8556L23.7069 57.4273Z" fill="#FFCC1E"/>
<path d="M22.0663 55.4902L10.5133 64.6119L10.0175 63.984L21.5706 54.8623L22.0663 55.4902Z" fill="#FFCC1E"/>
<path d="M20.6407 53.3902L8.1841 61.2331L7.75785 60.5561L20.2145 52.7132L20.6407 53.3902Z" fill="#FFCC1E"/>
<path d="M19.4463 51.1509L6.22703 57.6263L5.87511 56.9078L19.0944 50.4325L19.4463 51.1509Z" fill="#FFCC1E"/>
<path d="M18.4965 48.797L4.66422 53.8315L4.39061 53.0798L18.2229 48.0453L18.4965 48.797Z" fill="#FFCC1E"/>
</svg>
