<svg width="180" height="180" viewBox="0 0 180 180" fill="none" xmlns="http://www.w3.org/2000/svg">
<path d="M83.1569 171.724C82.7181 171.491 82.3765 171.168 82.1319 170.756C81.878 170.344 81.7619 169.877 81.7834 169.355C81.8158 168.572 82.118 167.925 82.6902 167.417C83.2623 166.908 83.9447 166.67 84.7374 166.702L88.9618 166.877L88.5574 176.669L84.6408 176.507C83.8761 176.475 83.2386 176.192 82.7282 175.657C82.2178 175.122 81.9782 174.477 82.0094 173.722C82.0453 172.855 82.4277 172.188 83.1569 171.724ZM84.691 175.29L87.3068 175.398L87.4304 172.404L84.8146 172.296C84.4043 172.279 84.0533 172.41 83.7616 172.687C83.4699 172.965 83.3154 173.313 83.2981 173.733C83.2811 174.143 83.4112 174.499 83.6884 174.8C83.9558 175.11 84.29 175.273 84.691 175.29ZM84.6871 167.919C84.2489 167.901 83.8741 168.04 83.563 168.335C83.2519 168.631 83.0871 169.002 83.0686 169.45C83.0505 169.888 83.189 170.268 83.484 170.588C83.7697 170.908 84.127 171.077 84.556 171.095L87.4795 171.215L87.6107 168.04L84.6871 167.919Z" fill="#FFCC1E"/>
<path d="M78.7595 169.012C78.7387 168.376 78.5343 167.852 78.1466 167.44C77.7497 167.026 77.224 166.767 76.5697 166.662C75.6574 166.516 74.9399 166.746 74.4174 167.353L73.4875 166.608C74.3271 165.675 75.4242 165.316 76.779 165.533C77.8757 165.709 78.715 166.193 79.2969 166.986C79.8681 167.786 80.0696 168.712 79.9013 169.763C79.7344 170.804 79.2593 171.616 78.4758 172.2C77.6923 172.783 76.766 172.989 75.697 172.818C74.6832 172.655 73.916 172.164 73.3953 171.343C72.8639 170.53 72.6786 169.622 72.8396 168.617C72.8676 168.442 72.9102 168.264 72.9674 168.085L78.7595 169.012ZM75.8786 171.684C76.5237 171.788 77.0877 171.689 77.5707 171.388C78.0522 171.097 78.3924 170.655 78.5912 170.063L73.9741 169.323C73.9706 169.994 74.149 170.533 74.509 170.94C74.8691 171.348 75.3256 171.596 75.8786 171.684Z" fill="#FFCC1E"/>
<path d="M68.1776 163.51C69.1742 163.793 69.9028 164.354 70.3634 165.193C70.8239 166.032 70.9077 166.967 70.6147 168C70.2886 169.149 69.8716 169.987 69.3636 170.512C68.8466 171.035 67.9961 171.4 66.8118 171.607C66.5978 171.643 66.3088 171.688 65.9448 171.739C65.5718 171.789 65.2988 171.828 65.1258 171.856C64.9502 171.894 64.7503 171.949 64.5261 172.021C64.2993 172.102 64.1194 172.206 63.9863 172.333C63.8417 172.467 63.7176 172.631 63.6141 172.825L62.8242 172.018C62.8919 171.882 62.966 171.758 63.0466 171.645C63.1246 171.541 63.225 171.443 63.3479 171.352C63.4593 171.267 63.5579 171.193 63.6437 171.13C63.7295 171.067 63.8627 171.008 64.0434 170.953C64.2125 170.904 64.3393 170.867 64.4239 170.842C64.4995 170.815 64.6488 170.785 64.8718 170.751C65.0858 170.715 65.2339 170.689 65.3159 170.673C65.3864 170.664 65.5524 170.643 65.8138 170.611C66.0728 170.587 66.233 170.57 66.2945 170.558C66.979 170.471 67.5031 170.333 67.8668 170.146C68.2216 169.955 68.5204 169.671 68.7633 169.294C68.3741 169.572 67.9398 169.735 67.4604 169.783C66.981 169.831 66.5258 169.794 66.0948 169.672C65.2508 169.432 64.6185 168.943 64.1979 168.202C63.7683 167.46 63.6821 166.635 63.9394 165.728C64.1993 164.812 64.7288 164.142 65.528 163.719C66.3246 163.305 67.2078 163.235 68.1776 163.51ZM69.2643 165.681C68.9543 165.167 68.4851 164.82 67.8566 164.642C67.2281 164.463 66.657 164.51 66.1434 164.781C65.6208 165.05 65.2768 165.477 65.1112 166.06C64.9405 166.662 64.9992 167.207 65.2873 167.697C65.5639 168.192 66.0209 168.53 66.6584 168.711C67.233 168.874 67.806 168.838 68.3774 168.602C68.9372 168.373 69.3012 167.962 69.4693 167.37C69.6425 166.759 69.5742 166.196 69.2643 165.681Z" fill="#FFCC1E"/>
<path d="M55.1825 166.343L54.2776 165.967L56.9649 159.504L58.0767 159.966L56.1901 164.503L61.6575 161.455L62.5624 161.831L59.875 168.294L58.7633 167.832L60.6498 163.295L55.1825 166.343Z" fill="#FFCC1E"/>
<path d="M46.6675 161.849L45.6055 161.252L49.0326 155.149L50.0946 155.745L48.6621 158.296L51.8238 160.072L53.2563 157.52L54.3183 158.116L50.8913 164.22L49.8292 163.624L51.2549 161.085L48.0932 159.31L46.6675 161.849Z" fill="#FFCC1E"/>
<path d="M37.7615 155.692L36.7795 154.972L40.9211 149.328L41.9031 150.049L41.1907 151.02C42.2265 150.634 43.2109 150.783 44.1439 151.468C44.934 152.048 45.3976 152.828 45.5347 153.808C45.6663 154.796 45.4284 155.704 44.821 156.532C44.2135 157.36 43.4215 157.855 42.4451 158.018C41.463 158.189 40.577 157.984 39.7869 157.405C38.8539 156.72 38.4162 155.825 38.4738 154.722L37.7615 155.692ZM43.324 152.325C42.7521 151.905 42.1335 151.746 41.4681 151.848C40.7972 151.958 40.252 152.299 39.8323 152.871C39.4126 153.442 39.2538 154.061 39.3559 154.726C39.4525 155.399 39.7867 155.946 40.3586 156.365C40.9229 156.78 41.5405 156.932 42.2114 156.822C42.8768 156.72 43.4193 156.383 43.839 155.811C44.2587 155.239 44.4202 154.617 44.3237 153.944C44.2215 153.279 43.8883 152.739 43.324 152.325Z" fill="#FFCC1E"/>
<path d="M31.224 150.103C30.5127 149.429 30.1535 148.593 30.1466 147.596C30.1332 146.607 30.4796 145.739 31.1858 144.994C31.892 144.249 32.7429 143.853 33.7386 143.806C34.7278 143.766 35.5781 144.084 36.2894 144.758C37.1295 145.554 37.4519 146.496 37.2566 147.584L40.0108 144.677L40.8949 145.515L34.1538 152.629L33.2698 151.791L34.0979 150.917C33.022 151.17 32.064 150.899 31.224 150.103ZM35.5923 145.717C35.0842 145.236 34.4937 145.004 33.8208 145.022C33.1414 145.047 32.5578 145.317 32.0699 145.832C31.5819 146.346 31.347 146.94 31.3651 147.613C31.3767 148.293 31.6366 148.874 32.1447 149.355C32.6596 149.843 33.2567 150.075 33.936 150.05C34.6089 150.032 35.1894 149.765 35.6773 149.25C36.1652 148.735 36.4033 148.138 36.3917 147.458C36.3736 146.785 36.1071 146.205 35.5923 145.717Z" fill="#FFCC1E"/>
<path d="M19.5067 135.624L25.2031 131.556L25.911 132.547L21.1602 135.94L23.2676 138.891L28.0184 135.498L28.7263 136.489L23.0299 140.557L19.5067 135.624Z" fill="#FFCC1E"/>
<path d="M20.07 124.227C21.0378 124.515 21.769 125.109 22.2635 126.009C22.7581 126.909 22.8677 127.844 22.5923 128.816C22.3123 129.779 21.7185 130.51 20.8106 131.009C19.9027 131.508 18.9671 131.618 18.0038 131.338C17.036 131.05 16.3048 130.456 15.8103 129.556C15.3157 128.657 15.2061 127.721 15.4815 126.75C15.7569 125.778 16.3486 125.043 17.2565 124.544C18.1643 124.045 19.1022 123.939 20.07 124.227ZM21.2207 126.582C20.8835 125.969 20.3917 125.568 19.7453 125.38C19.0988 125.192 18.4648 125.269 17.8432 125.611C17.2216 125.953 16.8169 126.447 16.629 127.093C16.4412 127.74 16.5159 128.37 16.8531 128.983C17.1858 129.588 17.6754 129.985 18.3218 130.173C18.9682 130.36 19.6022 130.284 20.2239 129.942C20.8455 129.6 21.2502 129.106 21.438 128.46C21.6258 127.813 21.5534 127.187 21.2207 126.582Z" fill="#FFCC1E"/>
<path d="M15.3149 108.993L15.8085 110.511L12.643 115.987L17.1163 114.532L17.5191 115.77L8.19969 118.801L7.79696 117.563L12.004 116.195L6.53245 113.676L6.03877 112.158L11.9035 114.799L15.3149 108.993Z" fill="#FFCC1E"/>
<path d="M3.64897 99.9374L13.2815 98.1334L13.5186 99.3994L5.99146 100.809L11.8245 102.978L11.8554 103.144L7.21647 107.274L14.7298 105.867L14.9695 107.147L5.33698 108.951L5.06638 107.506L9.58317 103.484L3.91956 101.382L3.64897 99.9374Z" fill="#FFCC1E"/>
<path d="M13.2675 91.7967C13.3386 93.279 12.908 94.5284 11.9756 95.545C11.0429 96.5522 9.86328 97.09 8.43692 97.1585C7.01056 97.2269 5.78491 96.8045 4.75995 95.8913C3.73455 94.9687 3.18628 93.7663 3.11514 92.284C3.07219 91.389 3.24724 90.5583 3.64029 89.7919C4.03289 89.0162 4.58271 88.4011 5.28974 87.9467L6.00134 89.0479C5.47405 89.3535 5.06534 89.7936 4.77522 90.3682C4.47532 90.9339 4.34148 91.5523 4.37369 92.2236C4.42783 93.3516 4.8357 94.2571 5.59732 94.94C6.35848 95.6136 7.28444 95.9243 8.37518 95.8719C9.4566 95.82 10.3439 95.4224 11.0371 94.679C11.7298 93.9262 12.0491 92.9858 11.9949 91.8578C11.9627 91.1866 11.7749 90.5836 11.4316 90.0487C11.0784 89.505 10.6295 89.1061 10.0846 88.8519L10.6735 87.6884C11.4204 88.0637 12.031 88.6184 12.5054 89.3525C12.9705 90.087 13.2245 90.9018 13.2675 91.7967Z" fill="#FFCC1E"/>
<path d="M10.2789 70.6635L10.8594 70.7571C12.1217 70.9605 13.1024 71.5629 13.8013 72.5642C14.491 73.564 14.7208 74.778 14.4907 76.2062C14.2531 77.6805 13.5726 78.8235 12.4491 79.6351C11.318 80.436 10.0521 80.7236 8.65147 80.4979C7.25088 80.2722 6.14404 79.6022 5.33095 78.488C4.51014 77.363 4.21704 76.0726 4.45166 74.6168C4.5957 73.723 4.9444 72.9378 5.49776 72.2612C6.04191 71.5831 6.6968 71.0978 7.46243 70.8052L7.93386 72.0156C7.36409 72.2074 6.87726 72.5591 6.47339 73.0707C6.06179 73.5716 5.80179 74.1584 5.69339 74.831C5.5152 75.9368 5.7329 76.9031 6.3465 77.7299C6.95089 78.5552 7.78752 79.054 8.8564 79.2263C9.92527 79.3985 10.8762 79.1878 11.7093 78.5941C12.5439 77.9912 13.0525 77.1231 13.2351 75.9897C13.391 75.0222 13.2823 74.2011 12.9089 73.5264C12.5262 72.8503 11.9675 72.3868 11.2327 72.136L10.6603 75.6882L9.49926 75.5011L10.2789 70.6635Z" fill="#FFCC1E"/>
<path d="M16.4696 64.2737C16.9446 65.1648 17.0358 66.1024 16.743 67.0864C16.4503 68.0705 15.8616 68.8058 14.9768 69.2924C14.0946 69.7701 13.1571 69.8612 12.1641 69.5658C11.1711 69.2705 10.4358 68.6817 9.9581 67.7996C9.48311 66.9085 9.39197 65.9709 9.68469 64.9869C9.9774 64.0028 10.5662 63.2675 11.4509 62.7809C12.3357 62.2943 13.2746 62.1987 14.2676 62.4941C15.2606 62.7894 15.9946 63.3827 16.4696 64.2737ZM15.6024 66.7471C15.802 66.0762 15.7415 65.4447 15.421 64.8528C15.1005 64.2608 14.6003 63.8637 13.9204 63.6615C13.2405 63.4593 12.6046 63.5184 12.0126 63.8389C11.4206 64.1595 11.0249 64.6552 10.8253 65.3262C10.6284 65.9882 10.6902 66.6151 11.0107 67.2071C11.3312 67.799 11.8315 68.1961 12.5113 68.3984C13.1912 68.6006 13.8272 68.5415 14.4191 68.2209C15.0111 67.9004 15.4055 67.4091 15.6024 66.7471Z" fill="#FFCC1E"/>
<path d="M19.9887 55.8257C20.3559 56.7663 20.3364 57.7081 19.9303 58.651C19.5241 59.5939 18.8532 60.2551 17.9174 60.6346C16.9853 61.0054 16.0435 60.9859 15.092 60.5761C14.1406 60.1663 13.4794 59.4953 13.1085 58.5633C12.7413 57.6226 12.7608 56.6808 13.1669 55.7379C13.5731 54.795 14.244 54.1338 15.1798 53.7544C16.1156 53.3749 17.0592 53.3901 18.0107 53.8C18.9622 54.2098 19.6215 54.885 19.9887 55.8257ZM18.8373 58.1803C19.1142 57.5374 19.1283 56.9032 18.8794 56.2777C18.6305 55.6522 18.1803 55.1992 17.5289 54.9186C16.8774 54.638 16.2389 54.6221 15.6135 54.871C14.988 55.1199 14.5368 55.5658 14.2599 56.2087C13.9867 56.843 13.9745 57.4729 14.2234 58.0984C14.4722 58.7238 14.9224 59.1769 15.5739 59.4575C16.2253 59.7381 16.8638 59.7539 17.4893 59.5051C18.1148 59.2562 18.5641 58.8146 18.8373 58.1803Z" fill="#FFCC1E"/>
<path d="M19.1457 44.8688L19.7525 43.8289L25.5445 47.2087C26.4393 47.7308 26.9562 48.4377 27.0951 49.3292C27.2421 50.2254 27.0687 51.0968 26.5748 51.9432C26.1797 52.6204 25.7096 53.1295 25.1647 53.4708C24.6279 53.8167 24.0488 53.9758 23.4273 53.9482L23.4436 52.7258C24.3136 52.7904 25.0356 52.331 25.6095 51.3475C25.9764 50.7187 26.098 50.1306 25.9745 49.583C25.8557 49.0274 25.5101 48.5826 24.9377 48.2486L24.0792 47.7476C24.5749 48.7501 24.5358 49.743 23.9619 50.7265C23.4586 51.5891 22.7265 52.1399 21.7658 52.3789C20.805 52.6179 19.8853 52.4811 19.0066 51.9684C18.128 51.4556 17.5604 50.7246 17.3039 49.7753C17.0393 48.8213 17.1587 47.913 17.662 47.0504C18.2406 46.0589 19.0818 45.5339 20.1856 45.4757L19.1457 44.8688ZM21.516 51.1958C22.167 51.0246 22.6713 50.6326 23.0288 50.0199C23.3863 49.4073 23.4794 48.7755 23.3082 48.1244C23.137 47.4734 22.745 46.9691 22.1324 46.6116C21.5278 46.2589 20.9 46.1681 20.2489 46.3393C19.5979 46.5105 19.0937 46.9025 18.7362 47.5151C18.3787 48.1278 18.2855 48.7596 18.4568 49.4106C18.628 50.0617 19.0159 50.5636 19.6205 50.9164C20.2332 51.2739 20.865 51.367 21.516 51.1958Z" fill="#FFCC1E"/>
<path d="M27.4712 45.1534L19.1903 39.1638L19.9042 38.1769L28.185 44.1665L27.4712 45.1534Z" fill="#FFCC1E"/>
<path d="M29.0452 38.3371C29.5952 38.6584 30.1478 38.7645 30.7028 38.6556C31.264 38.5396 31.7632 38.2326 32.2003 37.7345C32.8097 37.04 32.9969 36.3102 32.7618 35.5451L33.8871 35.1543C34.2304 36.362 33.9496 37.4815 33.0447 38.5128C32.3121 39.3476 31.4554 39.8003 30.4746 39.8709C29.4929 39.9283 28.6022 39.6061 27.8024 38.9043C27.0097 38.2086 26.575 37.3739 26.4982 36.4001C26.4215 35.4263 26.7402 34.5325 27.4543 33.7187C28.1314 32.947 28.956 32.5593 29.928 32.5554C30.8991 32.5383 31.767 32.8653 32.5316 33.5364C32.6649 33.6533 32.7925 33.7839 32.9143 33.9281L29.0452 38.3371ZM28.3171 34.4759C27.8862 34.967 27.6695 35.497 27.6669 36.0659C27.6573 36.6287 27.8502 37.1518 28.2454 37.6353L31.3297 34.1207C30.7639 33.7608 30.2127 33.6248 29.6761 33.7127C29.1395 33.8006 28.6865 34.055 28.3171 34.4759Z" fill="#FFCC1E"/>
<path d="M46.0917 26.6683L44.1156 25.4181L40.6276 28.1167L41.3414 30.3434L40.2452 31.1915L37.1385 21.2045L38.3012 20.305L47.1879 25.8202L46.0917 26.6683ZM40.2366 26.8792L43.0159 24.7289L38.6652 21.9882L40.2366 26.8792Z" fill="#FFCC1E"/>
<path d="M48.6967 13.6312L49.7457 13.0123L54.7257 21.4526L53.6767 22.0716L53.0649 21.0346C53.0119 22.1387 52.487 22.9848 51.4903 23.5729C50.6462 24.0709 49.7466 24.1899 48.7913 23.93C47.8312 23.662 47.0904 23.0859 46.5686 22.2017C46.0469 21.3174 45.9033 20.3944 46.1376 19.4325C46.3673 18.4626 46.9041 17.7286 47.7482 17.2306C48.7449 16.6425 49.7393 16.5922 50.7314 17.0797L48.6967 13.6312ZM51.0253 22.4818C51.6362 22.1214 52.0257 21.6152 52.1938 20.9634C52.3571 20.3035 52.2586 19.6681 51.8981 19.0572C51.5377 18.4462 51.0315 18.0567 50.3797 17.8887C49.7231 17.7126 49.0893 17.8047 48.4784 18.1652C47.8755 18.5209 47.4924 19.0287 47.3291 19.6886C47.161 20.3404 47.2572 20.9718 47.6177 21.5827C47.9781 22.1937 48.4866 22.5872 49.1432 22.7633C49.7951 22.9314 50.4224 22.8375 51.0253 22.4818Z" fill="#FFCC1E"/>
<path d="M56.068 15.2662C56.1783 15.5134 56.3912 15.6586 56.7068 15.7019C57.0186 15.7366 57.3702 15.7229 57.7615 15.6608C58.149 15.5903 58.5441 15.5367 58.9468 15.5003C59.3457 15.4552 59.7315 15.5183 60.1041 15.6894C60.473 15.852 60.7543 16.1506 60.9481 16.5854C61.2065 17.165 61.1878 17.7303 60.8918 18.2813C60.6043 18.8284 60.1111 19.2578 59.4121 19.5694C58.7898 19.8469 58.1962 19.948 57.6313 19.8728C57.0664 19.7977 56.5895 19.576 56.2006 19.2078L56.9144 18.2304C57.1535 18.4917 57.4537 18.6492 57.8148 18.7028C58.1759 18.7563 58.5525 18.6957 58.9446 18.5209C59.3112 18.3575 59.5834 18.1544 59.7613 17.9116C59.9354 17.6602 59.9559 17.3854 59.8229 17.087C59.7127 16.8398 59.5016 16.6989 59.1898 16.6642C58.8742 16.6209 58.5226 16.6346 58.1351 16.7052C57.7438 16.7672 57.3468 16.8165 56.9441 16.853C56.5414 16.8895 56.1556 16.8264 55.7868 16.6639C55.418 16.5013 55.1385 16.2069 54.9485 15.7807C54.7015 15.2266 54.7113 14.6755 54.9779 14.1274C55.253 13.5756 55.7145 13.1552 56.3623 12.8664C56.8823 12.6346 57.3959 12.5487 57.9029 12.6087C58.4147 12.6565 58.866 12.8436 59.2568 13.1701L58.5571 14.1105C58.0837 13.6675 57.5061 13.5981 56.8241 13.9021C56.5087 14.0427 56.2744 14.2392 56.1212 14.4914C55.9641 14.7352 55.9464 14.9934 56.068 15.2662Z" fill="#FFCC1E"/>
<path d="M76.6334 10.3391C76.3962 10.6966 76.062 10.9155 75.6307 10.9958C75.1995 11.0762 74.8043 10.9932 74.4451 10.7468C74.0858 10.5004 73.8661 10.1616 73.7857 9.73039C73.7054 9.29914 73.7892 8.90851 74.0373 8.55847C74.2837 8.19927 74.6225 7.97949 75.0537 7.89913C75.485 7.81878 75.8756 7.90264 76.2256 8.15072C76.5831 8.38792 76.8021 8.72214 76.8824 9.15338C76.9628 9.58463 76.8798 9.97985 76.6334 10.3391Z" fill="#FFCC1E"/>
<path d="M98.2663 8.29506C98.701 8.53568 99.0369 8.86399 99.2742 9.27999C99.5208 9.69653 99.6288 10.1657 99.5981 10.6874C99.552 11.4701 99.2385 12.1108 98.6575 12.6095C98.0765 13.1082 97.3901 13.3343 96.5981 13.2877L92.3774 13.0392L92.9532 3.25617L96.8665 3.4865C97.6305 3.53147 98.2629 3.82581 98.7639 4.36951C99.2648 4.91322 99.493 5.56242 99.4486 6.31711C99.3976 7.18361 99.0035 7.84293 98.2663 8.29506ZM96.7949 4.7024L94.1814 4.54857L94.0054 7.53939L96.6189 7.69322C97.0288 7.71735 97.3821 7.59322 97.6786 7.32084C97.9751 7.04846 98.1357 6.70263 98.1604 6.28336C98.1845 5.8734 98.0606 5.51551 97.7888 5.20967C97.5268 4.89507 97.1955 4.72598 96.7949 4.7024ZM96.6697 12.0718C97.1076 12.0975 97.4847 11.9655 97.8009 11.6756C98.1172 11.3856 98.2884 11.0171 98.3148 10.5698C98.3405 10.1319 98.2087 9.75019 97.9194 9.42463C97.6393 9.09961 97.285 8.92449 96.8564 8.89926L93.9355 8.72733L93.7487 11.8998L96.6697 12.0718Z" fill="#FFCC1E"/>
<path d="M102.615 11.0831C102.625 11.72 102.82 12.2478 103.201 12.6663C103.59 13.0866 104.111 13.3548 104.764 13.4711C105.673 13.6332 106.395 13.4158 106.928 12.8187L107.845 13.5793C106.989 14.4981 105.885 14.8371 104.535 14.5964C103.441 14.4015 102.611 13.9027 102.043 13.0999C101.486 12.2896 101.3 11.3606 101.487 10.3132C101.672 9.27485 102.161 8.4709 102.955 7.90131C103.749 7.33172 104.678 7.14191 105.744 7.33188C106.755 7.51202 107.513 8.01694 108.02 8.84665C108.537 9.6688 108.706 10.5807 108.528 11.5822C108.496 11.7568 108.451 11.9335 108.39 12.1124L102.615 11.0831ZM105.543 8.46206C104.9 8.34743 104.334 8.43621 103.846 8.72842C103.359 9.01144 103.011 9.44717 102.802 10.0356L107.406 10.8561C107.421 10.1857 107.252 9.64363 106.899 9.22996C106.546 8.81629 106.094 8.56032 105.543 8.46206Z" fill="#FFCC1E"/>
<path d="M113.099 16.7694C112.108 16.4693 111.389 15.8958 110.943 15.0489C110.498 14.2021 110.43 13.2651 110.741 12.2378C111.087 11.0944 111.519 10.2645 112.036 9.74818C112.562 9.23457 113.419 8.88449 114.607 8.69794C114.821 8.6654 115.111 8.62635 115.476 8.58077C115.85 8.53791 116.123 8.50373 116.297 8.47824C116.473 8.44381 116.674 8.39246 116.899 8.32419C117.128 8.24699 117.309 8.14598 117.445 8.02116C117.592 7.89011 117.718 7.72862 117.825 7.53669L118.601 8.35662C118.531 8.49143 118.455 8.61461 118.372 8.72615C118.292 8.82875 118.19 8.9246 118.066 9.01369C117.953 9.09654 117.853 9.16871 117.766 9.23017C117.679 9.29164 117.545 9.34852 117.363 9.40081C117.193 9.44687 117.066 9.48141 116.981 9.50444C116.905 9.53018 116.755 9.55796 116.531 9.5878C116.317 9.62034 116.168 9.64366 116.086 9.65775C116.015 9.66562 115.849 9.68353 115.587 9.71148C115.328 9.7305 115.167 9.7453 115.106 9.75587C114.42 9.83103 113.893 9.95934 113.526 10.1408C113.168 10.3249 112.865 10.6036 112.615 10.9766C113.009 10.7058 113.446 10.5505 113.926 10.5106C114.407 10.4706 114.861 10.5156 115.29 10.6454C116.129 10.8996 116.753 11.4004 117.161 12.1479C117.577 12.8981 117.649 13.7243 117.376 14.6266C117.1 15.5377 116.559 16.1979 115.752 16.6071C114.948 17.0074 114.064 17.0615 113.099 16.7694ZM112.051 14.5797C112.352 15.0999 112.815 15.4546 113.44 15.6439C114.065 15.8332 114.637 15.7966 115.156 15.5342C115.683 15.2745 116.034 14.8543 116.21 14.2737C116.391 13.6751 116.342 13.1288 116.063 12.6346C115.795 12.1342 115.344 11.788 114.709 11.596C114.138 11.4229 113.564 11.4492 112.989 11.6748C112.425 11.8942 112.054 12.2987 111.875 12.8883C111.692 13.4957 111.75 14.0595 112.051 14.5797Z" fill="#FFCC1E"/>
<path d="M126.142 14.1643L127.04 14.5563L124.24 20.9718L123.137 20.4902L125.102 15.9865L119.583 18.9389L118.684 18.5469L121.485 12.1313L122.588 12.613L120.622 17.1167L126.142 14.1643Z" fill="#FFCC1E"/>
<path d="M134.577 18.8079L135.629 19.4227L132.095 25.4654L131.044 24.8506L132.521 22.3247L129.39 20.4944L127.913 23.0202L126.862 22.4054L130.396 16.3627L131.447 16.9775L129.977 19.4913L133.107 21.3216L134.577 18.8079Z" fill="#FFCC1E"/>
<path d="M143.374 25.1193L144.343 25.8571L140.103 31.427L139.134 30.6892L139.863 29.7312C138.821 30.099 137.839 29.9324 136.918 29.2314C136.139 28.6378 135.689 27.8497 135.569 26.8669C135.455 25.8767 135.708 24.9732 136.33 24.1563C136.952 23.3394 137.753 22.8579 138.732 22.7118C139.717 22.5583 140.599 22.7783 141.379 23.3719C142.3 24.0729 142.722 24.9747 142.645 26.0774L143.374 25.1193ZM137.753 28.3889C138.318 28.8186 138.933 28.9882 139.601 28.8977C140.273 28.7999 140.824 28.4687 141.254 27.9043C141.684 27.3399 141.853 26.7241 141.763 26.0571C141.678 25.3826 141.353 24.8305 140.789 24.4009C140.232 23.9769 139.617 23.8138 138.944 23.9117C138.277 24.0022 137.729 24.3296 137.299 24.894C136.87 25.4584 136.697 26.0779 136.782 26.7524C136.873 27.4194 137.196 27.9649 137.753 28.3889Z" fill="#FFCC1E"/>
<path d="M149.812 30.8225C150.512 31.5089 150.856 32.3505 150.846 33.3472C150.842 34.3372 150.48 35.1986 149.761 35.9313C149.042 36.664 148.184 37.0449 147.188 37.074C146.198 37.0965 145.354 36.7645 144.654 36.078C143.828 35.2673 143.522 34.3198 143.737 33.2354L140.932 36.093L140.063 35.2398L146.927 28.2457L147.797 29.0989L146.953 29.9582C148.033 29.7237 148.986 30.0118 149.812 30.8225ZM145.368 35.1308C145.868 35.6212 146.454 35.8632 147.127 35.8569C147.807 35.8439 148.395 35.5844 148.892 35.0781C149.389 34.5719 149.634 33.9822 149.628 33.3091C149.628 32.6293 149.378 32.0442 148.879 31.5539C148.373 31.057 147.78 30.815 147.1 30.828C146.427 30.8343 145.842 31.0905 145.345 31.5968C144.848 32.103 144.599 32.696 144.599 33.3758C144.605 34.049 144.862 34.634 145.368 35.1308Z" fill="#FFCC1E"/>
<path d="M161.274 45.504L155.508 49.472L154.817 48.4685L159.627 45.1592L157.571 42.1721L152.762 45.4814L152.071 44.478L157.838 40.51L161.274 45.504Z" fill="#FFCC1E"/>
<path d="M160.512 56.8897C159.549 56.5847 158.828 55.9781 158.35 55.0698C157.871 54.1616 157.778 53.2242 158.07 52.2577C158.367 51.2995 158.973 50.5788 159.89 50.0957C160.806 49.6127 161.744 49.5195 162.702 49.8162C163.665 50.1212 164.385 50.7278 164.864 51.636C165.343 52.5443 165.436 53.4816 165.143 54.4481C164.851 55.4147 164.247 56.1394 163.33 56.6225C162.414 57.1056 161.474 57.1947 160.512 56.8897ZM159.402 54.5149C159.729 55.1342 160.213 55.5434 160.856 55.7425C161.499 55.9416 162.135 55.8758 162.762 55.5451C163.39 55.2143 163.803 54.7274 164.002 54.0844C164.201 53.4413 164.138 52.8102 163.811 52.1909C163.489 51.5799 163.007 51.1749 162.364 50.9758C161.721 50.7766 161.085 50.8425 160.458 51.1732C159.83 51.504 159.417 51.9909 159.218 52.6339C159.019 53.2769 159.08 53.904 159.402 54.5149Z" fill="#FFCC1E"/>
<path d="M164.999 72.2042L164.532 70.678L167.793 65.2586L163.295 66.6351L162.914 65.3901L172.285 62.5224L172.666 63.7675L168.436 65.062L173.862 67.6765L174.329 69.2027L168.512 66.4589L164.999 72.2042Z" fill="#FFCC1E"/>
<path d="M176.505 81.4632L166.842 83.0982L166.627 81.8282L174.178 80.5506L168.384 78.2794L168.356 78.1138L173.066 74.0651L165.529 75.3404L165.312 74.0567L174.975 72.4217L175.22 73.8711L170.633 77.8135L176.259 80.0138L176.505 81.4632Z" fill="#FFCC1E"/>
<path d="M166.745 89.4339C166.7 87.9506 167.152 86.7089 168.102 85.7089C169.053 84.7182 170.241 84.2011 171.669 84.1576C173.096 84.1142 174.314 84.558 175.323 85.4891C176.332 86.4295 176.859 87.6413 176.904 89.1246C176.932 90.0202 176.742 90.8477 176.336 91.6071C175.929 92.3758 175.369 92.9811 174.654 93.4231L173.962 92.3096C174.494 92.0133 174.911 91.5804 175.211 91.011C175.521 90.4507 175.665 89.8346 175.645 89.163C175.61 88.0342 175.219 87.1217 174.469 86.4255C173.72 85.7386 172.799 85.4118 171.708 85.445C170.626 85.478 169.732 85.86 169.025 86.5912C168.32 87.3317 167.984 88.2663 168.018 89.3952C168.039 90.0668 168.216 90.6731 168.55 91.2138C168.894 91.7636 169.335 92.1704 169.876 92.434L169.266 93.5871C168.526 93.1988 167.926 92.6335 167.464 91.8912C167.012 91.1486 166.772 90.3295 166.745 89.4339Z" fill="#FFCC1E"/>
<path d="M169.363 110.617L168.784 110.513C167.525 110.287 166.556 109.668 165.874 108.655C165.202 107.643 164.994 106.425 165.249 105.001C165.512 103.531 166.213 102.4 167.35 101.608C168.495 100.828 169.766 100.562 171.162 100.812C172.559 101.063 173.654 101.752 174.447 102.88C175.248 104.019 175.519 105.315 175.258 106.766C175.099 107.657 174.736 108.436 174.171 109.103C173.615 109.771 172.952 110.245 172.181 110.524L171.731 109.306C172.304 109.124 172.797 108.781 173.21 108.277C173.63 107.783 173.9 107.201 174.021 106.53C174.218 105.428 174.017 104.458 173.418 103.62C172.829 102.784 172.001 102.271 170.935 102.08C169.869 101.889 168.915 102.083 168.072 102.662C167.227 103.25 166.703 104.11 166.5 105.24C166.328 106.204 166.422 107.027 166.783 107.708C167.154 108.391 167.705 108.864 168.435 109.128L169.07 105.586L170.227 105.793L169.363 110.617Z" fill="#FFCC1E"/>
<path d="M163.061 116.896C162.602 115.997 162.527 115.058 162.837 114.079C163.147 113.101 163.748 112.376 164.642 111.905C165.532 111.443 166.471 111.368 167.459 111.681C168.446 111.993 169.171 112.595 169.633 113.485C170.093 114.384 170.167 115.323 169.858 116.302C169.548 117.281 168.946 118.006 168.053 118.477C167.16 118.948 166.219 119.027 165.232 118.714C164.244 118.402 163.52 117.796 163.061 116.896ZM163.972 114.439C163.76 115.106 163.81 115.738 164.12 116.336C164.43 116.933 164.923 117.339 165.599 117.553C166.276 117.767 166.912 117.719 167.51 117.409C168.107 117.099 168.512 116.61 168.723 115.943C168.932 115.285 168.881 114.657 168.571 114.059C168.26 113.462 167.767 113.056 167.091 112.842C166.415 112.628 165.778 112.676 165.18 112.986C164.583 113.296 164.18 113.78 163.972 114.439Z" fill="#FFCC1E"/>
<path d="M159.395 125.282C159.044 124.335 159.08 123.394 159.503 122.458C159.925 121.522 160.608 120.873 161.55 120.51C162.488 120.156 163.43 120.192 164.374 120.618C165.318 121.044 165.967 121.727 166.322 122.665C166.672 123.612 166.636 124.553 166.214 125.489C165.791 126.425 165.109 127.074 164.166 127.437C163.224 127.8 162.281 127.768 161.337 127.342C160.393 126.916 159.745 126.229 159.395 125.282ZM160.587 122.948C160.299 123.586 160.274 124.22 160.512 124.849C160.75 125.479 161.192 125.94 161.838 126.232C162.485 126.524 163.123 126.551 163.752 126.313C164.382 126.075 164.841 125.637 165.129 124.999C165.414 124.37 165.437 123.74 165.199 123.111C164.961 122.481 164.519 122.02 163.872 121.728C163.226 121.436 162.588 121.409 161.958 121.647C161.328 121.885 160.871 122.318 160.587 122.948Z" fill="#FFCC1E"/>
<path d="M160.046 136.252L159.421 137.281L153.689 133.8C152.803 133.263 152.299 132.547 152.175 131.653C152.044 130.754 152.233 129.886 152.742 129.049C153.148 128.378 153.627 127.878 154.178 127.546C154.721 127.21 155.303 127.061 155.924 127.099L155.886 128.321C155.017 128.241 154.287 128.688 153.696 129.661C153.318 130.283 153.186 130.869 153.3 131.419C153.409 131.977 153.747 132.427 154.314 132.771L155.163 133.287C154.685 132.276 154.742 131.284 155.333 130.311C155.851 129.457 156.593 128.919 157.557 128.697C158.522 128.475 159.439 128.628 160.309 129.156C161.179 129.684 161.733 130.425 161.973 131.379C162.221 132.337 162.086 133.243 161.567 134.097C160.971 135.078 160.121 135.588 159.016 135.627L160.046 136.252ZM157.786 129.885C157.133 130.044 156.621 130.427 156.253 131.034C155.885 131.64 155.781 132.27 155.941 132.924C156.101 133.578 156.484 134.089 157.09 134.457C157.688 134.82 158.314 134.922 158.968 134.762C159.622 134.603 160.133 134.22 160.501 133.613C160.87 133.007 160.974 132.377 160.814 131.723C160.654 131.069 160.275 130.56 159.677 130.197C159.07 129.829 158.44 129.725 157.786 129.885Z" fill="#FFCC1E"/>
<path d="M151.726 135.821L159.901 141.955L159.17 142.929L150.995 136.795L151.726 135.821Z" fill="#FFCC1E"/>
<path d="M150.033 142.609C149.489 142.278 148.938 142.163 148.381 142.262C147.818 142.368 147.314 142.666 146.868 143.157C146.247 143.84 146.047 144.567 146.268 145.336L145.136 145.707C144.814 144.493 145.115 143.379 146.037 142.364C146.784 141.542 147.649 141.104 148.631 141.051C149.613 141.011 150.498 141.348 151.286 142.064C152.066 142.773 152.486 143.616 152.546 144.591C152.606 145.566 152.271 146.454 151.543 147.255C150.852 148.015 150.021 148.388 149.049 148.375C148.078 148.375 147.216 148.033 146.463 147.348C146.332 147.229 146.207 147.096 146.087 146.95L150.033 142.609ZM150.693 146.483C151.133 145.999 151.359 145.473 151.371 144.904C151.391 144.342 151.207 143.815 150.821 143.325L147.675 146.785C148.235 147.155 148.783 147.301 149.321 147.222C149.859 147.144 150.317 146.897 150.693 146.483Z" fill="#FFCC1E"/>
<path d="M132.785 153.977L134.739 155.262L138.274 152.625L137.599 150.386L138.71 149.557L141.641 159.597L140.463 160.476L131.674 154.806L132.785 153.977ZM138.643 153.869L135.826 155.97L140.128 158.787L138.643 153.869Z" fill="#FFCC1E"/>
<path d="M129.952 166.967L128.892 167.567L124.061 159.041L125.121 158.441L125.714 159.488C125.786 158.385 126.326 157.548 127.333 156.978C128.186 156.495 129.087 156.391 130.038 156.668C130.993 156.953 131.724 157.542 132.23 158.435C132.736 159.328 132.863 160.254 132.612 161.211C132.366 162.177 131.816 162.901 130.963 163.385C129.956 163.955 128.961 163.988 127.978 163.483L129.952 166.967ZM127.779 158.077C127.162 158.427 126.763 158.926 126.584 159.575C126.409 160.231 126.496 160.869 126.846 161.486C127.196 162.103 127.695 162.501 128.344 162.681C128.997 162.868 129.632 162.787 130.25 162.437C130.859 162.092 131.251 161.591 131.425 160.934C131.605 160.286 131.52 159.653 131.17 159.035C130.82 158.418 130.319 158.016 129.665 157.828C129.017 157.649 128.388 157.732 127.779 158.077Z" fill="#FFCC1E"/>
<path d="M122.61 165.204C122.504 164.954 122.294 164.806 121.979 164.757C121.668 164.717 121.316 164.724 120.924 164.779C120.535 164.843 120.139 164.89 119.736 164.919C119.336 164.957 118.952 164.887 118.582 164.71C118.216 164.541 117.94 164.237 117.754 163.799C117.506 163.215 117.535 162.65 117.84 162.104C118.137 161.562 118.638 161.142 119.342 160.842C119.969 160.576 120.565 160.485 121.128 160.57C121.691 160.655 122.164 160.885 122.547 161.26L121.816 162.225C121.582 161.96 121.284 161.797 120.924 161.737C120.564 161.677 120.186 161.731 119.791 161.899C119.422 162.056 119.146 162.254 118.964 162.494C118.786 162.742 118.76 163.017 118.888 163.317C118.994 163.566 119.202 163.711 119.514 163.751C119.828 163.8 120.18 163.792 120.569 163.729C120.961 163.673 121.359 163.631 121.762 163.602C122.166 163.572 122.55 163.642 122.916 163.811C123.282 163.98 123.556 164.279 123.739 164.709C123.976 165.267 123.957 165.818 123.68 166.361C123.396 166.908 122.927 167.32 122.274 167.598C121.75 167.821 121.235 167.897 120.729 167.828C120.218 167.772 119.77 167.577 119.385 167.244L120.101 166.315C120.567 166.767 121.143 166.846 121.831 166.554C122.148 166.419 122.386 166.227 122.544 165.977C122.705 165.736 122.727 165.478 122.61 165.204Z" fill="#FFCC1E"/>
<path d="M101.962 169.769C102.205 169.416 102.543 169.203 102.976 169.13C103.408 169.057 103.802 169.147 104.157 169.4C104.512 169.652 104.726 169.995 104.798 170.428C104.871 170.86 104.781 171.249 104.526 171.595C104.274 171.95 103.931 172.164 103.499 172.236C103.066 172.309 102.677 172.218 102.331 171.964C101.978 171.721 101.765 171.383 101.692 170.95C101.619 170.518 101.709 170.124 101.962 169.769Z" fill="#FFCC1E"/>
<circle cx="90.0684" cy="90.0687" r="1.86995" fill="#FFCC1E"/>
<path d="M112.334 98.6377L126.167 103.672L125.893 104.424L112.061 99.3895L112.334 98.6377Z" fill="#FFCC1E"/>
<path d="M111.297 100.954L124.516 107.43L124.164 108.148L110.945 101.673L111.297 100.954Z" fill="#FFCC1E"/>
<path d="M110.019 103.148L122.476 110.99L122.05 111.667L109.593 103.825L110.019 103.148Z" fill="#FFCC1E"/>
<path d="M108.516 105.193L120.069 114.315L119.573 114.942L108.02 105.821L108.516 105.193Z" fill="#FFCC1E"/>
<path d="M106.804 107.067L117.323 117.364L116.763 117.936L106.244 107.638L106.804 107.067Z" fill="#FFCC1E"/>
<path d="M104.903 108.748L114.268 120.105L113.651 120.614L104.285 109.257L104.903 108.748Z" fill="#FFCC1E"/>
<path d="M102.833 110.218L110.939 122.505L110.272 122.946L102.166 110.659L102.833 110.218Z" fill="#FFCC1E"/>
<path d="M100.62 111.46L107.375 124.538L106.664 124.906L99.9087 111.827L100.62 111.46Z" fill="#FFCC1E"/>
<path d="M98.2864 112.46L103.614 126.182L102.868 126.471L97.5407 112.749L98.2864 112.46Z" fill="#FFCC1E"/>
<path d="M95.8604 113.206L99.7005 127.416L98.9282 127.625L95.0881 113.415L95.8604 113.206Z" fill="#FFCC1E"/>
<path d="M93.3688 113.69L95.6777 128.228L94.8876 128.354L92.5787 113.816L93.3688 113.69Z" fill="#FFCC1E"/>
<path d="M90.8398 113.907L91.5914 128.608L90.7924 128.649L90.0408 113.948L90.8398 113.907Z" fill="#FFCC1E"/>
<path d="M88.3021 113.854L87.4879 128.551L86.6892 128.507L87.5033 113.81L88.3021 113.854Z" fill="#FFCC1E"/>
<path d="M85.7844 113.532L83.4137 128.06L82.6241 127.931L84.9949 113.403L85.7844 113.532Z" fill="#FFCC1E"/>
<path d="M83.3152 112.944L79.4146 127.138L78.6432 126.926L82.5438 112.732L83.3152 112.944Z" fill="#FFCC1E"/>
<path d="M80.9224 112.097L75.5362 125.796L74.7917 125.504L80.1778 111.804L80.9224 112.097Z" fill="#FFCC1E"/>
<path d="M78.633 111.001L71.8222 124.05L71.113 123.68L77.9238 110.631L78.633 111.001Z" fill="#FFCC1E"/>
<path d="M76.4731 109.668L68.3147 121.92L67.6488 121.477L75.8073 109.224L76.4731 109.668Z" fill="#FFCC1E"/>
<path d="M74.467 108.112L65.0532 119.429L64.4382 118.917L73.852 107.601L74.467 108.112Z" fill="#FFCC1E"/>
<path d="M72.6374 106.353L62.0749 116.605L61.5177 116.031L72.0802 105.779L72.6374 106.353Z" fill="#FFCC1E"/>
<path d="M71.0051 104.41L59.4133 113.482L58.9202 112.852L70.512 103.78L71.0051 104.41Z" fill="#FFCC1E"/>
<path d="M69.5884 102.303L57.0985 110.093L56.6752 109.414L69.1651 101.624L69.5884 102.303Z" fill="#FFCC1E"/>
<path d="M68.4036 100.059L55.1569 106.478L54.808 105.758L68.0547 99.3389L68.4036 100.059Z" fill="#FFCC1E"/>
<path d="M67.4638 97.7007L53.6102 102.676L53.3398 101.923L67.1933 96.9478L67.4638 97.7007Z" fill="#FFCC1E"/>
<path d="M66.7798 95.2562L52.4761 98.7322L52.2872 97.9548L66.5909 94.4789L66.7798 95.2562Z" fill="#FFCC1E"/>
<path d="M66.3593 92.7534L51.7673 94.6903L51.662 93.8972L66.254 91.9603L66.3593 92.7534Z" fill="#FFCC1E"/>
<path d="M66.2071 90.2195L51.4919 90.5954L51.4715 89.7957L66.1867 89.4197L66.2071 90.2195Z" fill="#FFCC1E"/>
<path d="M66.3249 87.6838L51.653 86.4946L51.7176 85.6972L66.3895 86.8864L66.3249 87.6838Z" fill="#FFCC1E"/>
<path d="M66.7113 85.1755L52.2488 82.4345L52.3977 81.6485L66.8603 84.3895L66.7113 85.1755Z" fill="#FFCC1E"/>
<path d="M67.362 82.7221L53.2725 78.4603L53.5041 77.6946L67.5937 81.9563L67.362 82.7221Z" fill="#FFCC1E"/>
<path d="M68.2697 80.3514L54.7125 74.6172L55.0242 73.8804L68.5814 79.6146L68.2697 80.3514Z" fill="#FFCC1E"/>
<path d="M69.424 78.0908L56.5527 70.949L56.9408 70.2494L69.8122 77.3913L69.424 78.0908Z" fill="#FFCC1E"/>
<path d="M70.8119 75.9659L58.772 67.4972L59.2322 66.8429L71.2721 75.3116L70.8119 75.9659Z" fill="#FFCC1E"/>
<path d="M72.4177 74.0002L61.3454 64.3005L61.8726 63.6988L72.9448 73.3984L72.4177 74.0002Z" fill="#FFCC1E"/>
<path d="M74.2232 72.2164L64.2439 61.3955L64.832 60.8532L74.8113 71.6741L74.2232 72.2164Z" fill="#FFCC1E"/>
<path d="M76.208 70.6338L67.4346 58.814L68.077 58.3372L76.8504 70.1569L76.208 70.6338Z" fill="#FFCC1E"/>
<path d="M78.3497 69.2714L70.8814 56.5866L71.5708 56.1807L79.039 68.8655L78.3497 69.2714Z" fill="#FFCC1E"/>
<path d="M80.6239 68.1443L74.5452 54.738L75.2738 54.4077L81.3525 67.814L80.6239 68.1443Z" fill="#FFCC1E"/>
<path d="M83.005 67.265L78.3848 53.2889L79.1444 53.0378L83.7645 67.0139L83.005 67.265Z" fill="#FFCC1E"/>
<path d="M85.466 66.6438L82.3565 52.256L83.1385 52.087L86.2479 66.4748L85.466 66.6438Z" fill="#FFCC1E"/>
<path d="M87.9791 66.2873L86.4155 51.6506L87.211 51.5657L88.7746 66.2024L87.9791 66.2873Z" fill="#FFCC1E"/>
<path d="M90.5158 66.2L90.5158 51.48L91.3158 51.48L91.3158 66.2L90.5158 66.2Z" fill="#FFCC1E"/>
<path d="M93.0475 66.3824L94.6111 51.7457L95.4066 51.8306L93.843 66.4674L93.0475 66.3824Z" fill="#FFCC1E"/>
<path d="M95.5454 66.833L98.6549 52.4451L99.4369 52.6141L96.3274 67.002L95.5454 66.833Z" fill="#FFCC1E"/>
<path d="M97.9815 67.546L102.602 53.5699L103.361 53.821L98.741 67.7971L97.9815 67.546Z" fill="#FFCC1E"/>
<path d="M100.328 68.5137L106.407 55.1074L107.135 55.4378L101.057 68.8441L100.328 68.5137Z" fill="#FFCC1E"/>
<path d="M102.558 69.7254L110.027 57.0406L110.716 57.4465L103.248 70.1313L102.558 69.7254Z" fill="#FFCC1E"/>
<path d="M104.647 71.1671L113.421 59.3474L114.063 59.8242L105.29 71.6439L104.647 71.1671Z" fill="#FFCC1E"/>
<path d="M106.571 72.8226L116.551 62.0016L117.139 62.544L107.159 73.3649L106.571 72.8226Z" fill="#FFCC1E"/>
<path d="M108.309 74.6729L119.381 64.9732L119.908 65.575L108.836 75.2747L108.309 74.6729Z" fill="#FFCC1E"/>
<path d="M109.84 76.6976L121.88 68.2289L122.34 68.8833L110.3 77.352L109.84 76.6976Z" fill="#FFCC1E"/>
<path d="M111.147 78.8733L124.018 71.7315L124.406 72.431L111.535 79.5729L111.147 78.8733Z" fill="#FFCC1E"/>
<path d="M112.216 81.1757L125.773 75.4415L126.085 76.1783L112.527 81.9125L112.216 81.1757Z" fill="#FFCC1E"/>
<path d="M113.034 83.5787L127.123 79.317L127.355 80.0827L113.265 84.3445L113.034 83.5787Z" fill="#FFCC1E"/>
<path d="M113.592 86.0544L128.055 83.3133L128.204 84.0993L113.741 86.8404L113.592 86.0544Z" fill="#FFCC1E"/>
<path d="M113.884 88.5759L128.556 87.3866L128.621 88.184L113.949 89.3733L113.884 88.5759Z" fill="#FFCC1E"/>
<path d="M113.907 91.1144L128.622 91.4903L128.602 92.2901L113.886 91.9141L113.907 91.1144Z" fill="#FFCC1E"/>
<path d="M113.66 93.6401L128.252 95.577L128.147 96.3701L113.554 94.4332L113.66 93.6401Z" fill="#FFCC1E"/>
<path d="M113.146 96.1261L127.449 99.602L127.261 100.379L112.957 96.9034L113.146 96.1261Z" fill="#FFCC1E"/>
<path d="M112.371 98.543L126.224 103.519L125.954 104.272L112.1 99.296L112.371 98.543Z" fill="#FFCC1E"/>
<path d="M111.343 100.864L124.59 107.283L124.241 108.003L110.994 101.584L111.343 100.864Z" fill="#FFCC1E"/>
<path d="M110.075 103.062L122.565 110.852L122.141 111.531L109.651 103.741L110.075 103.062Z" fill="#FFCC1E"/>
<path d="M108.58 105.114L120.172 114.187L119.679 114.817L108.087 105.744L108.58 105.114Z" fill="#FFCC1E"/>
<path d="M106.876 106.995L117.439 117.248L116.882 117.822L106.319 107.569L106.876 106.995Z" fill="#FFCC1E"/>
<path d="M104.982 108.685L114.396 120.001L113.781 120.513L104.367 109.196L104.982 108.685Z" fill="#FFCC1E"/>
<path d="M102.919 110.163L111.077 122.416L110.411 122.859L102.253 110.607L102.919 110.163Z" fill="#FFCC1E"/>
<path d="M100.711 111.415L107.521 124.465L106.812 124.835L100.001 111.785L100.711 111.415Z" fill="#FFCC1E"/>
<path d="M98.3817 112.424L103.768 126.124L103.023 126.416L97.6372 112.717L98.3817 112.424Z" fill="#FFCC1E"/>
<path d="M95.9589 113.181L99.8594 127.375L99.088 127.587L95.1874 113.393L95.9589 113.181Z" fill="#FFCC1E"/>
<path d="M93.4693 113.676L95.8401 128.204L95.0505 128.333L92.6797 113.805L93.4693 113.676Z" fill="#FFCC1E"/>
<path d="M90.9413 113.903L91.7554 128.601L90.9567 128.645L90.1425 113.948L90.9413 113.903Z" fill="#FFCC1E"/>
<path d="M88.4034 113.861L87.6518 128.562L86.8528 128.521L87.6044 113.82L88.4034 113.861Z" fill="#FFCC1E"/>
<path d="M85.8843 113.549L83.5754 128.087L82.7853 127.962L85.0942 113.424L85.8843 113.549Z" fill="#FFCC1E"/>
<path d="M83.4126 112.972L79.5725 127.183L78.8003 126.974L82.6403 112.764L83.4126 112.972Z" fill="#FFCC1E"/>
<path d="M81.0163 112.136L75.6885 125.858L74.9427 125.568L80.2705 111.846L81.0163 112.136Z" fill="#FFCC1E"/>
<path d="M78.7222 111.05L71.967 124.128L71.2562 123.761L78.0115 110.682L78.7222 111.05Z" fill="#FFCC1E"/>
<path d="M76.5567 109.726L68.4505 122.012L67.7827 121.572L75.8889 109.285L76.5567 109.726Z" fill="#FFCC1E"/>
<path d="M74.544 108.179L65.1785 119.535L64.5613 119.026L73.9268 107.67L74.544 108.179Z" fill="#FFCC1E"/>
<path d="M72.7069 106.427L62.1881 116.725L61.6285 116.153L72.1473 105.856L72.7069 106.427Z" fill="#FFCC1E"/>
<path d="M71.0663 104.49L59.5133 113.612L59.0175 112.984L70.5706 103.862L71.0663 104.49Z" fill="#FFCC1E"/>
<path d="M69.6407 102.39L57.1841 110.233L56.7579 109.556L69.2145 101.713L69.6407 102.39Z" fill="#FFCC1E"/>
<path d="M68.4463 100.151L55.227 106.626L54.8751 105.908L68.0944 99.4325L68.4463 100.151Z" fill="#FFCC1E"/>
<path d="M67.4965 97.797L53.6642 102.832L53.3906 102.08L67.2229 97.0453L67.4965 97.797Z" fill="#FFCC1E"/>
</svg>
