<svg width="334" height="334" viewBox="0 0 334 334" fill="none" xmlns="http://www.w3.org/2000/svg">
<path d="M167 334C259.232 334 334 259.232 334 167C334 74.7684 259.232 0 167 0C74.7689 0 0.000488281 74.7684 0.000488281 167C0.000488281 259.232 74.7689 334 167 334Z" fill="#F0F0F0"/>
<path d="M152.479 167C152.479 167 49.0109 285.11 48.9131 285.087C79.1336 315.308 120.884 334 167 334C259.231 334 334 259.231 334 167H152.479Z" fill="#D80027"/>
<path d="M48.9131 48.9121C-16.3044 114.13 -16.3044 219.869 48.9131 285.087C75.8633 258.136 101.783 232.217 167 166.999L48.9131 48.9121Z" fill="#0052B4"/>
</svg>
