<svg width="334" height="334" viewBox="0 0 334 334" fill="none" xmlns="http://www.w3.org/2000/svg">
<path d="M323.613 225.086C330.326 206.995 334 187.427 334 166.999C334 146.572 330.326 127.004 323.613 108.913L167 94.391L10.3878 108.913C3.67449 127.004 0.000488281 146.572 0.000488281 166.999C0.000488281 187.427 3.67449 206.995 10.3878 225.086L167 239.608L323.613 225.086Z" fill="#6DA544"/>
<path d="M323.613 108.913C300.017 45.3196 238.804 0 167 0C95.1961 0 33.9834 45.3196 10.3875 108.913H323.613Z" fill="#FFDA44"/>
<path d="M167 334C238.804 334 300.017 288.681 323.613 225.087H10.3875C33.9834 288.681 95.1961 334 167 334Z" fill="#D80027"/>
</svg>
