<svg width="334" height="334" viewBox="0 0 334 334" fill="none" xmlns="http://www.w3.org/2000/svg">
<path d="M323.613 108.913C330.325 127.006 334 146.573 334 167C334 187.428 330.325 206.996 323.613 225.087L167 239.609L10.3873 225.087C3.67465 206.996 0 187.428 0 167C0 146.573 3.67465 127.006 10.3873 108.913L167 94.3916L323.613 108.913Z" fill="#F0F0F0"/>
<path d="M167 0C238.803 0 300.017 45.3196 323.612 108.913H10.3859C33.9832 45.3196 95.1952 0 167 0Z" fill="#D80027"/>
<path d="M167 334C95.1952 334 33.9832 288.681 10.3866 225.087H323.612C300.017 288.681 238.803 334 167 334Z" fill="#6DA544"/>
</svg>
