<svg width="28" height="33" viewBox="0 0 28 33" fill="none" xmlns="http://www.w3.org/2000/svg">
<path d="M11.3266 11.3016C10.0431 12.5684 8.47618 13.2018 6.62593 13.2018C4.77567 13.2018 3.20878 12.5684 1.92527 11.3016C0.641756 10.0181 0 8.45118 0 6.60092C0 4.75066 0.641756 3.19211 1.92527 1.92527C3.20878 0.641756 4.77567 0 6.62593 0C8.47618 0 10.0431 0.641756 11.3266 1.92527C12.6101 3.19211 13.2518 4.75066 13.2518 6.60092C13.2518 8.45118 12.6101 10.0181 11.3266 11.3016ZM4.57564 8.72622C5.12572 9.2763 5.80914 9.55133 6.62593 9.55133C7.44271 9.55133 8.12613 9.2763 8.67621 8.72622C9.22629 8.17614 9.50133 7.46771 9.50133 6.60092C9.50133 5.73413 9.22629 5.0257 8.67621 4.47563C8.12613 3.92555 7.44271 3.65051 6.62593 3.65051C5.80914 3.65051 5.12572 3.92555 4.57564 4.47563C4.02556 5.0257 3.75052 5.73413 3.75052 6.60092C3.75052 7.46771 4.02556 8.17614 4.57564 8.72622Z" fill="white"/>
<path d="M26.0747 11.3016C24.7912 12.5684 23.2243 13.2018 21.3741 13.2018C19.5238 13.2018 17.9569 12.5684 16.6734 11.3016C15.3899 10.0181 14.7482 8.45118 14.7482 6.60092C14.7482 4.75066 15.3899 3.19211 16.6734 1.92527C17.9569 0.641756 19.5238 0 21.3741 0C23.2243 0 24.7912 0.641756 26.0747 1.92527C27.3582 3.19211 28 4.75066 28 6.60092C28 8.45118 27.3582 10.0181 26.0747 11.3016ZM19.3238 8.72622C19.8739 9.2763 20.5573 9.55133 21.3741 9.55133C22.1909 9.55133 22.8743 9.2763 23.4244 8.72622C23.9744 8.17614 24.2495 7.46771 24.2495 6.60092C24.2495 5.73413 23.9744 5.0257 23.4244 4.47563C22.8743 3.92555 22.1909 3.65051 21.3741 3.65051C20.5573 3.65051 19.8739 3.92555 19.3238 4.47563C18.7737 5.0257 18.4987 5.73413 18.4987 6.60092C18.4987 7.46771 18.7737 8.17614 19.3238 8.72622Z" fill="white"/>
<path d="M11.2501 14.5269H15.0006V32.0293H11.2501V30.8541C10.3666 31.8709 9.12476 32.3793 7.52454 32.3793C5.87431 32.3793 4.46578 31.7459 3.29895 30.4791C2.13212 29.1956 1.54871 27.6287 1.54871 25.7784C1.54871 23.9282 2.13212 22.3696 3.29895 21.1028C4.46578 19.8193 5.87431 19.1775 7.52454 19.1775C9.12476 19.1775 10.3666 19.6859 11.2501 20.7027V14.5269ZM6.12435 28.0037C6.67442 28.5538 7.39119 28.8289 8.27465 28.8289C9.1581 28.8289 9.87487 28.5538 10.4249 28.0037C10.975 27.4537 11.2501 26.7119 11.2501 25.7784C11.2501 24.845 10.975 24.1032 10.4249 23.5531C9.87487 23.003 9.1581 22.728 8.27465 22.728C7.39119 22.728 6.67442 23.003 6.12435 23.5531C5.57427 24.1032 5.29923 24.845 5.29923 25.7784C5.29923 26.7119 5.57427 27.4537 6.12435 28.0037Z" fill="white"/>
</svg>
