<svg width="1440" height="900" viewBox="0 0 1440 900" fill="none" xmlns="http://www.w3.org/2000/svg">
<path d="M161.903 911.138C206.755 873.103 320.612 794.968 417.219 786.71C537.977 776.387 605.195 840.245 681.441 835.109C713.029 832.981 819.653 807.745 841.088 719.86C853.492 665.775 836.601 504.074 665.578 526.524C545.731 542.257 547.175 608.343 386.745 667.308C228.184 725.586 126.905 708.337 -24.7031 634.298" stroke="#39619E" stroke-width="10"/>
<path d="M171.424 922.533C218.232 882.839 313.501 814.486 414.434 802.216C539.995 786.952 603.719 858.946 687.878 849.447C720.71 845.741 833.249 815.193 855.618 723.476C868.564 667.031 845.829 488.751 667.347 512.18C533.962 529.69 542.912 598.928 373.956 656.134C206.535 712.82 133.937 690.903 -28.0556 617.016" stroke="#39619E" stroke-width="10"/>
<path d="M175.902 940.285C224.339 899.21 309.384 830.272 413.827 817.575C543.756 801.78 593.831 881.78 698.973 862.924C747.829 854.162 848.529 822.212 869.691 723.772C883.123 661.287 853.807 473.592 669.116 497.837C525.975 516.627 501.766 604.304 363.419 645.902C194.776 696.609 129.385 672.062 -22.5108 601.871" stroke="#39619E" stroke-width="10"/>
<path d="M204.332 940.011C254.321 897.62 307.609 845.892 415.399 832.788C549.491 816.487 592.037 903.208 711.534 875.755C761.459 864.285 863.249 828.737 885.089 727.142C898.952 662.654 867.253 465.747 675.751 482.619C517.486 496.562 498.747 589.796 355.966 632.727C203.001 678.72 136.566 659.931 -20.1968 587.491" stroke="#39619E" stroke-width="10"/>
<path d="M222.861 955.176C274.395 911.474 304.177 861.075 415.3 847.566C553.538 830.761 586.552 920.844 723.815 887.511C779.981 873.871 877.46 832.292 899.975 727.556C915.148 656.974 876.233 453.795 676.357 467.259C512.938 478.268 496.867 579.346 348.514 619.551C187.329 663.235 135.683 643.736 -17.375 572.53" stroke="#39619E" stroke-width="10"/>
<path d="M239.168 961.737C283.731 924.815 300.233 876.35 415.746 862.307C558.614 844.939 583.913 938.514 734.933 898.251C792.651 882.862 891.836 836.344 915.105 728.1C930.786 655.155 890.314 443.546 683.609 453.093C499.836 461.582 494.665 562.297 342.187 606.847C205.908 646.664 131.608 631.974 -11.8302 557.385" stroke="#39619E" stroke-width="10"/>
<path d="M250.177 970.843C295.961 932.909 335.865 877.47 434.636 874.712C573.336 870.84 586.066 954.234 750.408 908.697C810.774 891.97 904.871 840.892 928.778 729.68C944.889 654.734 902.616 428.066 690.243 437.875C501.43 446.596 490.739 546.303 334.08 592.075C202.805 630.43 123.789 613.353 -16.0574 535.239" stroke="#39619E" stroke-width="10"/>
<path d="M1318 -15C1274.67 17 1165.8 81.4 1077 83C966 85 908.5 22.5 838.5 22.5C809.5 22.5 710.5 39 685.5 118C670.833 166.667 676.316 315.489 834 305.5C944.5 298.5 947.249 238.013 1097.5 194C1246 150.5 1337.5 172.5 1471.5 249.5" stroke="#39619E" stroke-width="10"/>
<path d="M1310 -26C1264.78 7.39573 1173.5 64 1080.5 69C964.807 75.2201 911 5.5 833.5 9C803.266 10.3654 698.533 31.3553 672.443 113.801C657.136 164.59 666.938 328.925 831.5 318.5C954.481 310.709 950.565 246.88 1108.5 205C1265 163.5 1330 188 1473.5 265.5" stroke="#39619E" stroke-width="10"/>
<path d="M1307 -42.5C1260.2 -7.9426 1178.23 49.8261 1082 55C962.282 61.4364 921.442 -14.7605 824.189 -4C779 1 685 24 659.599 112.664C643.476 168.944 658.714 342.287 829 331.5C960.977 323.139 988.5 244.5 1117.5 215C1274.75 179.04 1333 205.5 1467.5 279" stroke="#39619E" stroke-width="10"/>
<path d="M1281 -44C1232.7 -8.33523 1180.82 35.6603 1081.5 41C957.946 47.6427 924.401 -34.2337 813.5 -16.5C767.166 -9.09099 671.949 17.131 645.734 108.636C629.095 166.72 645.942 348.63 822 345C967.5 342 990.366 257.945 1123.5 227.5C1266.13 194.883 1325.69 216.145 1464.5 292" stroke="#39619E" stroke-width="10"/>
<path d="M1265 -59C1215.21 -22.2326 1184.89 21.9952 1082.5 27.5C955.126 34.348 930.5 -50.014 803 -28C750.828 -18.9921 659.18 13.0069 632.155 107.341C613.943 170.913 637 359 820.5 359C970.53 359 991.441 267.612 1129.5 240C1279.5 210 1325.5 231 1461 305.5" stroke="#39619E" stroke-width="10"/>
<path d="M1250.5 -66C1207.5 -35 1189.43 8.27773 1083 14C951.36 21.0774 934 -66 793.5 -38.5C739.802 -27.9898 646.291 8.41856 618.361 105.912C599.539 171.614 623.5 367.5 813 371.5C981.477 375.056 992.404 283.328 1134.5 252C1261.5 224 1328.5 242 1455 319" stroke="#39619E" stroke-width="10"/>
<path d="M1241 -75C1196.82 -43.1499 1156.94 5.06057 1066.5 1.5C939.5 -3.5 933 -80.5 780 -49C723.8 -37.4295 634.658 3.4593 605.962 103.626C586.624 171.13 611.303 380.89 806 385C979.098 388.654 995.008 298.187 1141 266C1263.34 239.028 1334.5 259.5 1457.5 339.5" stroke="#39619E" stroke-width="10"/>
<path d="M1618.76 877.314C1569.38 855.786 1459.18 793.705 1413.39 717.601C1356.16 622.473 1381.54 541.426 1346.54 480.804C1332.04 455.69 1268.25 378.203 1187.33 396.053C1137.85 407.684 1011.71 486.844 1099.2 618.407C1160.51 710.603 1214.27 682.74 1327.51 790.855C1439.44 897.71 1466.13 987.951 1466.45 1142.5" stroke="#39619E" stroke-width="10"/>
<path d="M1624.29 864.885C1572.76 842.419 1478.1 791.673 1427.27 713.633C1364.03 616.549 1397.51 535.091 1355.73 469.724C1339.43 444.224 1268.89 364.017 1184.44 382.645C1132.8 394.784 995.385 485.44 1086.69 622.742C1154.93 725.352 1208.25 690.046 1323.49 805.881C1437.68 920.664 1448.96 989.206 1453.59 1152.23" stroke="#39619E" stroke-width="10"/>
<path d="M1637.08 854.037C1583.75 830.789 1492.74 788.687 1440.14 707.932C1374.71 607.471 1420.28 534.004 1362.33 455.161C1335.41 418.526 1268.49 348.62 1179 370.954C1122.2 385.131 979.701 484.999 1074.19 627.077C1147.41 737.193 1229.28 721.708 1319.33 818.676C1429.09 936.877 1435.3 1000.55 1438.9 1153.78" stroke="#39619E" stroke-width="10"/>
<path d="M1625.38 830.771C1570.34 806.777 1506.3 783.841 1452.02 700.499C1384.49 596.819 1438.62 526.83 1367.81 439.654C1338.23 403.232 1267.91 333.882 1175.56 356.933C1116.94 371.564 967.822 477.11 1058.99 627.765C1134.34 752.272 1218.57 730.047 1311.5 830.122C1411.06 937.335 1422.43 999.546 1426.14 1157.69" stroke="#39619E" stroke-width="10"/>
<path d="M1630.37 809.414C1573.63 784.679 1520.17 780.534 1464.21 694.615C1394.59 587.73 1455.34 524.222 1372.52 424.811C1338.64 384.133 1265.1 320.762 1169.89 344.525C1105.73 360.539 954.37 474.55 1046.12 633.466C1121.14 763.396 1210.74 735.811 1303.68 841.568C1404.66 956.472 1409.47 1006.81 1412.7 1161.41" stroke="#39619E" stroke-width="10"/>
<path d="M1629.18 793.357C1580.83 771.618 1534.32 777.611 1476.15 688.298C1404.2 577.833 1470.93 519.26 1376.87 411.333C1340.91 370.085 1262.63 307.306 1164.23 331.865C1097.92 348.415 940.259 467.109 1031.54 633.221C1112.7 780.905 1197.61 744.503 1295.78 851.898C1383.53 947.883 1401.44 1014.91 1398.01 1162.96" stroke="#39619E" stroke-width="10"/>
<path d="M1632.23 780.63C1582.55 758.295 1520.86 747.861 1478.72 667.758C1419.55 555.273 1482.99 511.144 1379.21 394.392C1341.09 351.507 1261.11 294.752 1160.01 319.984C1091.88 336.988 922.564 463.242 1016.35 633.909C1099.74 785.643 1186.04 754.188 1286.91 864.527C1371.44 956.988 1389.29 1028.85 1381.51 1175.37" stroke="#39619E" stroke-width="10"/>
<path d="M-96.7491 -58.3135C-47.3696 -36.7858 62.8358 25.2956 108.621 101.399C165.854 196.527 140.477 277.574 175.477 338.196C189.977 363.31 253.766 440.797 334.682 422.948C384.162 411.316 510.305 332.157 422.812 200.593C361.5 108.397 307.742 136.26 194.5 28.1451C82.5781 -78.7097 55.8807 -168.951 55.5646 -323.498" stroke="#39619E" stroke-width="10"/>
<path d="M-102.275 -45.8854C-50.7422 -23.4186 43.9169 27.3271 94.747 105.367C157.98 202.451 124.504 283.909 166.285 349.276C182.585 374.776 253.129 454.983 337.574 436.355C389.212 424.216 526.629 333.56 435.32 196.258C367.083 93.6479 313.763 128.954 198.526 13.1188C84.3364 -101.664 73.054 -170.206 68.421 -333.231" stroke="#39619E" stroke-width="10"/>
<path d="M-115.065 -35.0373C-61.739 -11.789 29.2745 30.3135 81.8727 111.069C147.306 211.529 101.737 284.996 159.682 363.839C186.607 400.474 253.526 470.381 343.011 448.046C399.813 433.869 542.314 334.001 447.829 191.923C374.6 81.8076 292.735 97.2919 202.687 0.324604C92.9202 -117.877 86.7095 -181.554 83.1124 -334.784" stroke="#39619E" stroke-width="10"/>
<path d="M-103.364 -11.7705C-48.3292 12.2227 15.7146 35.1587 69.9983 118.501C137.528 222.181 83.3934 292.17 154.202 379.346C183.785 415.768 254.103 485.118 346.456 462.067C405.077 447.436 554.192 341.89 463.02 191.235C387.672 66.7284 303.445 88.9529 210.512 -11.1216C110.95 -118.334 99.5831 -180.546 95.8707 -338.686" stroke="#39619E" stroke-width="10"/>
<path d="M-108.354 9.58579C-51.6181 34.3208 1.84501 38.466 57.807 124.385C127.424 231.27 66.6779 294.778 149.493 394.189C183.379 434.867 256.916 498.238 352.124 474.475C416.285 458.461 567.644 344.45 475.894 185.534C400.879 55.6041 311.279 83.1886 218.337 -22.5678C117.357 -137.472 112.543 -187.809 109.312 -342.405" stroke="#39619E" stroke-width="10"/>
<path d="M-107.166 25.6432C-58.8194 47.3823 -12.307 41.3887 45.8658 130.702C117.815 241.167 51.0838 299.74 145.149 407.667C181.1 448.915 259.387 511.694 357.784 487.135C424.094 470.585 581.756 351.891 490.47 185.779C409.311 38.0951 324.409 74.4965 226.23 -32.8979C138.481 -128.883 120.57 -195.907 124.004 -343.959" stroke="#39619E" stroke-width="10"/>
<path d="M-110.211 38.3704C-60.538 60.7056 1.15465 71.1394 43.2904 151.242C102.46 263.727 39.0263 307.856 142.806 424.608C180.926 467.493 260.908 524.248 362.003 499.016C430.132 482.012 599.45 355.758 505.661 185.091C422.277 33.3575 335.975 64.8123 235.104 -45.5271C150.577 -137.988 132.725 -209.853 140.507 -356.374" stroke="#39619E" stroke-width="10"/>
</svg>
