<svg width="44" height="71" viewBox="0 0 44 71" fill="none" xmlns="http://www.w3.org/2000/svg">
<path d="M10.0549 43.4203C-0.208588 59.0475 16.5492 75.7946 32.1864 65.5376C33.1032 64.9268 33.9182 64.1378 34.504 63.2215C44.7675 47.5943 28.0097 30.8473 12.3725 41.1042C11.4556 41.715 10.6407 42.504 10.0549 43.4203Z" fill="#1B3C7F"/>
<path d="M10.0549 43.4203C-0.208588 59.0475 16.5492 75.7946 32.1864 65.5376C33.1032 64.9268 33.9182 64.1378 34.504 63.2215C44.7675 47.5943 28.0097 30.8473 12.3725 41.1042C11.4556 41.715 10.6407 42.504 10.0549 43.4203Z" fill="url(#paint0_linear)"/>
<path d="M22.2793 70.0171C13.06 70.0171 5.57251 62.5344 5.57251 53.3209C5.57251 44.1074 13.06 36.6247 22.2793 36.6247C31.4986 36.6247 38.9861 44.1074 38.9861 53.3209C38.9861 62.5344 31.4986 70.0171 22.2793 70.0171ZM22.2793 39.2717C14.5117 39.2717 8.22116 45.5836 8.22116 53.3209C8.22116 61.0836 14.5371 67.3702 22.2793 67.3702C30.047 67.3702 36.3375 61.0582 36.3375 53.3209C36.3375 45.5836 30.047 39.2717 22.2793 39.2717Z" fill="#1B3C7F"/>
<path d="M22.2793 70.0171C13.06 70.0171 5.57251 62.5344 5.57251 53.3209C5.57251 44.1074 13.06 36.6247 22.2793 36.6247C31.4986 36.6247 38.9861 44.1074 38.9861 53.3209C38.9861 62.5344 31.4986 70.0171 22.2793 70.0171ZM22.2793 39.2717C14.5117 39.2717 8.22116 45.5836 8.22116 53.3209C8.22116 61.0836 14.5371 67.3702 22.2793 67.3702C30.047 67.3702 36.3375 61.0582 36.3375 53.3209C36.3375 45.5836 30.047 39.2717 22.2793 39.2717Z" fill="url(#paint1_linear)"/>
<path d="M29.4357 31.1782H13.5693L2.66919 1.29807H18.5355L29.4357 31.1782Z" fill="#1B3C7F"/>
<path d="M29.4357 31.1782H13.5693L2.66919 1.29807H18.5355L29.4357 31.1782Z" fill="url(#paint2_linear)"/>
<path d="M31.3202 32.5016H12.6269L0.784424 0H19.4777L31.3202 32.5016ZM14.486 29.8546H27.551L17.6186 2.6215H4.55364L14.486 29.8546Z" fill="#1B3C7F"/>
<path d="M15.123 31.1782H30.9894L41.8896 1.29807H26.0232L15.123 31.1782Z" fill="#1B3C7F"/>
<path d="M15.123 31.1782H30.9894L41.8896 1.29807H26.0232L15.123 31.1782Z" fill="url(#paint3_linear)"/>
<path d="M31.9316 32.5016H13.2383L25.0808 0H43.7741L31.9316 32.5016ZM17.0075 29.8546H30.0725L40.0049 2.6215H26.9399L17.0075 29.8546Z" fill="#1B3C7F"/>
<defs>
<linearGradient id="paint0_linear" x1="22.2794" y1="37.9536" x2="22.2794" y2="68.6882" gradientUnits="userSpaceOnUse">
<stop stop-color="#6EA2D7"/>
<stop offset="1" stop-color="white" stop-opacity="0"/>
</linearGradient>
<linearGradient id="paint1_linear" x1="22.2793" y1="36.6247" x2="22.2793" y2="70.0171" gradientUnits="userSpaceOnUse">
<stop stop-color="#6EA2D7"/>
<stop offset="1" stop-color="white" stop-opacity="0"/>
</linearGradient>
<linearGradient id="paint2_linear" x1="16.0524" y1="1.29807" x2="16.0524" y2="31.1782" gradientUnits="userSpaceOnUse">
<stop stop-color="#6EA2D7"/>
<stop offset="1" stop-color="white" stop-opacity="0"/>
</linearGradient>
<linearGradient id="paint3_linear" x1="28.5063" y1="1.29807" x2="28.5063" y2="31.1782" gradientUnits="userSpaceOnUse">
<stop stop-color="#6EA2D7"/>
<stop offset="1" stop-color="white" stop-opacity="0"/>
</linearGradient>
</defs>
</svg>
