<svg width="22" height="21" viewBox="0 0 22 21" fill="none" xmlns="http://www.w3.org/2000/svg">
<path d="M10.9281 18.8341C15.7666 18.8341 19.689 14.9142 19.689 10.0788C19.689 5.24335 15.7666 1.32346 10.9281 1.32346C6.08961 1.32346 2.16724 5.24335 2.16724 10.0788C2.16724 14.9142 6.08961 18.8341 10.9281 18.8341Z" fill="#1B3C7F"/>
<path d="M10.9281 18.8341C15.7666 18.8341 19.689 14.9142 19.689 10.0788C19.689 5.24335 15.7666 1.32346 10.9281 1.32346C6.08961 1.32346 2.16724 5.24335 2.16724 10.0788C2.16724 14.9142 6.08961 18.8341 10.9281 18.8341Z" fill="url(#paint0_linear)"/>
<path d="M10.9282 20.1576C5.35079 20.1576 0.843018 15.6272 0.843018 10.0788C0.843018 4.50491 5.37626 0 10.9282 0C16.5056 0 21.0134 4.53036 21.0134 10.0788C21.0134 15.6272 16.4802 20.1576 10.9282 20.1576ZM10.9282 2.62152C6.82792 2.62152 3.46619 5.95564 3.46619 10.0788C3.46619 14.1765 6.80245 17.5361 10.9282 17.5361C15.054 17.5361 18.3903 14.2019 18.3903 10.0788C18.3648 5.95564 15.0285 2.62152 10.9282 2.62152Z" fill="#1B3C7F"/>
<path d="M10.9282 20.1576C5.35079 20.1576 0.843018 15.6272 0.843018 10.0788C0.843018 4.50491 5.37626 0 10.9282 0C16.5056 0 21.0134 4.53036 21.0134 10.0788C21.0134 15.6272 16.4802 20.1576 10.9282 20.1576ZM10.9282 2.62152C6.82792 2.62152 3.46619 5.95564 3.46619 10.0788C3.46619 14.1765 6.80245 17.5361 10.9282 17.5361C15.054 17.5361 18.3903 14.2019 18.3903 10.0788C18.3648 5.95564 15.0285 2.62152 10.9282 2.62152Z" fill="url(#paint1_linear)"/>
<defs>
<linearGradient id="paint0_linear" x1="10.9281" y1="1.32346" x2="10.9281" y2="18.8341" gradientUnits="userSpaceOnUse">
<stop stop-color="#6EA2D7"/>
<stop offset="1" stop-color="white" stop-opacity="0"/>
</linearGradient>
<linearGradient id="paint1_linear" x1="10.9282" y1="0" x2="10.9282" y2="20.1576" gradientUnits="userSpaceOnUse">
<stop stop-color="#6EA2D7"/>
<stop offset="1" stop-color="white" stop-opacity="0"/>
</linearGradient>
</defs>
</svg>
