<svg width="74" height="74" viewBox="0 0 74 74" fill="none" xmlns="http://www.w3.org/2000/svg">
<path d="M10.5955 15.1545C-11.5614 49.285 25.0357 85.5279 58.9841 63.0797C60.996 61.7562 62.7024 60.0255 64.0267 57.9894C86.1836 23.8589 49.5865 -12.3841 15.6381 10.0642C13.6262 11.3876 11.9198 13.1184 10.5955 15.1545Z" fill="#1B3C7F"/>
<path d="M10.5955 15.1545C-11.5614 49.285 25.0357 85.5279 58.9841 63.0797C60.996 61.7562 62.7024 60.0255 64.0267 57.9894C86.1836 23.8589 49.5865 -12.3841 15.6381 10.0642C13.6262 11.3876 11.9198 13.1184 10.5955 15.1545Z" fill="url(#paint0_linear)"/>
<path d="M11.4867 10.7513C18.6177 3.62492 27.9644 0.0617065 37.311 0.0617065C46.6577 0.0617065 56.0043 3.62492 63.1352 10.7513C70.2662 17.8778 73.8317 27.2185 73.8317 36.5592C73.8317 45.8999 70.2662 55.2406 63.1352 62.367C56.0043 69.4935 46.6577 73.0567 37.311 73.0567C27.9644 73.0567 18.6177 69.4935 11.4867 62.367C4.35576 55.2406 0.790283 45.8999 0.790283 36.5592C0.790283 27.2185 4.35576 17.8778 11.4867 10.7513ZM20.9607 27.982C24.3479 20.8047 29.9508 15.2563 36.5979 11.8458C41.9206 9.12246 47.9056 7.7735 53.9924 8.00257C48.8479 4.99929 43.0922 3.49766 37.311 3.49766C29.0595 3.49766 20.8334 6.55184 14.441 12.6857C14.6193 18.6413 17.0641 24.0116 20.9607 27.982ZM59.6971 12.2275C52.2605 10.4968 44.6457 11.5658 38.1514 14.8745C31.8863 18.0814 26.6655 23.4008 23.6348 30.3236C27.1239 32.9196 31.4025 34.5485 36.0376 34.803C39.705 29.1019 45.2314 25.2587 51.3946 23.6044C56.8192 22.1536 62.7277 22.4336 68.2033 24.6733C66.5988 20.4738 64.103 16.5543 60.7158 13.1692C60.3847 12.8638 60.0536 12.533 59.6971 12.2275ZM69.5786 29.1528C64.1285 26.0477 57.9653 25.4114 52.337 26.9131C56.9975 33.3523 59.1623 40.9114 58.9331 48.3432C58.7548 54.1716 57.1503 59.9237 54.1451 65.0394C56.4881 63.6651 58.7038 61.9598 60.7158 59.9491C67.1846 53.4845 70.3935 45.0345 70.3935 36.5592C70.3935 34.0904 70.1134 31.5961 69.5786 29.1528ZM47.9055 67.89C52.7189 62.3161 55.2912 55.3424 55.4949 48.2414C55.6987 41.2168 53.5594 34.0904 48.9242 28.0838C44.9767 29.84 41.4622 32.716 38.9664 36.5846C42.2772 42.6421 42.9393 49.4631 41.3349 55.7242C40.0105 60.9163 37.0817 65.7012 32.8032 69.2898C34.3058 69.4934 35.8084 69.5952 37.2855 69.5952C40.9019 69.6207 44.4674 69.0608 47.9055 67.89ZM28.3463 68.399C33.338 65.1667 36.6743 60.28 38.0495 54.9097L38.1005 54.7061C30.18 55.4442 22.5906 53.459 16.2747 49.514C11.3085 46.3835 7.13177 42.0313 4.25392 36.8137C4.30485 45.1873 7.53925 53.5608 13.9316 59.9491C18.0829 64.0977 23.049 66.9228 28.3463 68.399ZM4.91607 29.84C7.2591 36.941 12.0216 42.7948 18.0829 46.6125C24.0169 50.3285 31.1987 52.1101 38.6607 51.1938C39.0428 46.8416 38.2024 42.3367 35.9612 38.239C29.2377 37.9081 23.1764 35.0321 18.7196 30.5781C14.874 26.7349 12.2253 21.7209 11.3339 16.1216C8.07408 20.2448 5.93478 24.9533 4.91607 29.84Z" fill="#1B3C7F"/>
<defs>
<linearGradient id="paint0_linear" x1="37.3111" y1="3.11975" x2="37.3111" y2="70.0241" gradientUnits="userSpaceOnUse">
<stop stop-color="#6EA2D7"/>
<stop offset="1" stop-color="white" stop-opacity="0"/>
</linearGradient>
</defs>
</svg>
