<svg width="63" height="85" viewBox="0 0 63 85" fill="none" xmlns="http://www.w3.org/2000/svg">
<path d="M50.6493 29.8516C54.3931 28.8336 56.9144 25.194 56.5833 21.3254C56.3286 18.2712 54.444 15.8279 51.9227 14.6316L51.8973 14.4026L41.0225 10.2794L38.2466 5.92722C37.0751 3.942 34.783 2.89849 32.5163 3.28026L23.9082 4.7819L23.0933 0.175171C23.0933 0.175171 1.624 4.75644 0.0959396 25.4485C-1.12651 41.6357 9.69725 51.6891 11.862 53.547L11.7602 53.5725C9.64634 53.9542 8.29654 56.0922 8.75496 58.3573C9.18791 60.6225 11.2763 62.1751 13.3646 61.8188L13.6957 61.7678L13.6702 84.3688L62.5427 75.7916L54.7751 54.4887C56.4559 53.8015 57.4747 51.9181 57.0672 49.9074C56.6342 47.6423 54.5459 46.0897 52.4576 46.446L51.8209 46.5478C51.286 44.9698 48.7647 38.5306 42.5506 34.0511C36.3874 29.5971 31.2684 28.2736 31.2684 28.2736L41.6338 26.4666C43.5184 29.2917 47.0838 30.8188 50.6493 29.8516Z" fill="#1B3C7F"/>
<path d="M50.6493 29.8516C54.3931 28.8336 56.9144 25.194 56.5833 21.3254C56.3286 18.2712 54.444 15.8279 51.9227 14.6316L51.8973 14.4026L41.0225 10.2794L38.2466 5.92722C37.0751 3.942 34.783 2.89849 32.5163 3.28026L23.9082 4.7819L23.0933 0.175171C23.0933 0.175171 1.624 4.75644 0.0959396 25.4485C-1.12651 41.6357 9.69725 51.6891 11.862 53.547L11.7602 53.5725C9.64634 53.9542 8.29654 56.0922 8.75496 58.3573C9.18791 60.6225 11.2763 62.1751 13.3646 61.8188L13.6957 61.7678L13.6702 84.3688L62.5427 75.7916L54.7751 54.4887C56.4559 53.8015 57.4747 51.9181 57.0672 49.9074C56.6342 47.6423 54.5459 46.0897 52.4576 46.446L51.8209 46.5478C51.286 44.9698 48.7647 38.5306 42.5506 34.0511C36.3874 29.5971 31.2684 28.2736 31.2684 28.2736L41.6338 26.4666C43.5184 29.2917 47.0838 30.8188 50.6493 29.8516Z" fill="url(#paint0_linear)"/>
<defs>
<linearGradient id="paint0_linear" x1="31.2714" y1="0.175171" x2="31.2714" y2="84.3688" gradientUnits="userSpaceOnUse">
<stop stop-color="#6EA2D7"/>
<stop offset="1" stop-color="white" stop-opacity="0"/>
</linearGradient>
</defs>
</svg>
