<svg width="47" height="47" viewBox="0 0 47 47" fill="none" xmlns="http://www.w3.org/2000/svg">
<path d="M38.5435 37.9071C53.8751 16.8078 31.6418 -7.62571 9.15379 5.60908C7.82947 6.39808 6.65795 7.44159 5.76658 8.68872C-9.5395 29.8135 12.6683 54.2469 35.1563 41.0122C36.4806 40.2232 37.6521 39.1796 38.5435 37.9071Z" fill="#1B3C7F"/>
<path d="M38.5435 37.9071C53.8751 16.8078 31.6418 -7.62571 9.15379 5.60908C7.82947 6.39808 6.65795 7.44159 5.76658 8.68872C-9.5395 29.8135 12.6683 54.2469 35.1563 41.0122C36.4806 40.2232 37.6521 39.1796 38.5435 37.9071Z" fill="url(#paint0_linear)"/>
<path d="M22.5245 44.0918C21.4548 41.6739 20.8436 39.1033 20.2324 36.5836C19.0863 31.8241 17.9658 27.2174 13.7381 24.4432C12.9232 25.9703 12.2101 27.4974 11.5988 29.0245C10.2745 32.3077 9.43408 35.591 9.0266 38.6961C9.63782 39.256 10.3 39.7905 11.0131 40.274C14.5276 42.7683 18.526 43.99 22.5245 44.0918ZM22.3207 36.1C22.9829 38.7979 23.6451 41.5466 24.8675 44.0154C25.4533 43.9645 26.0136 43.8882 26.5738 43.7864C31.4891 42.9465 36.1242 40.325 39.4096 36.1509L16.4377 19.9637C15.8519 20.8291 15.3171 21.6945 14.8078 22.5598C19.8249 25.7158 21.0474 30.8061 22.3207 36.1ZM11.828 23.4252C11.5988 23.3233 11.3696 23.2215 11.1404 23.1452C9.68876 22.5853 8.13523 22.3307 6.50529 22.3816C5.13004 22.4325 3.70385 22.6871 2.20125 23.2215C2.20125 24.4432 2.30312 25.6649 2.50687 26.8611C3.14356 30.4752 4.69709 33.9112 7.14199 36.7872C7.62587 33.9875 8.44084 31.137 9.58688 28.2609C10.249 26.632 10.9876 25.0286 11.828 23.4252ZM11.9044 21.1345C12.2355 21.2618 12.5666 21.389 12.8977 21.5417C13.458 20.6 14.0437 19.6583 14.6804 18.7166L5.41018 12.1756C3.70385 14.8989 2.68514 17.8767 2.32859 20.88C3.72931 20.4728 5.10457 20.2437 6.42889 20.1928C8.36444 20.1674 10.1981 20.4728 11.9044 21.1345ZM43.1788 18.0549C40.4283 17.724 37.6268 18.0294 34.8508 18.3349C29.4517 18.8948 24.2308 19.4547 19.5702 15.7897C18.9335 16.5532 18.2968 17.3677 17.6856 18.2076L40.6575 34.3947C43.5099 29.8898 44.4012 24.6723 43.5608 19.7601C43.4589 19.1748 43.3316 18.6148 43.1788 18.0549ZM34.6216 16.1969C37.1939 15.917 39.817 15.637 42.4657 15.8406C41.0395 12.1247 38.5182 8.76508 35.0291 6.29629C34.316 5.81271 33.6029 5.35458 32.8644 4.97281C30.0629 6.39809 27.2615 8.2815 24.6128 10.623C23.3904 11.7175 22.1679 12.8882 21.0219 14.1608C25.0458 17.1895 29.7573 16.706 34.6216 16.1969ZM17.9912 14.339C17.7366 14.0844 17.5073 13.8299 17.2781 13.55C16.0812 12.1501 15.1643 10.5467 14.5786 8.71418C14.1711 7.4416 13.9164 6.09267 13.84 4.64194C11.1149 5.99087 8.64458 7.92518 6.6581 10.4449L15.9283 16.9859C16.5905 16.0442 17.2781 15.1789 17.9912 14.339ZM18.9081 12.1501C19.0863 12.3537 19.2391 12.5319 19.4174 12.7101C20.6399 11.3866 21.9133 10.1395 23.1866 8.99415C25.5042 6.95803 27.9491 5.22732 30.4195 3.82749C26.8794 2.47856 23.1102 2.17315 19.4938 2.78398C18.2968 2.98759 17.1253 3.29301 15.9793 3.72569C15.9793 5.30368 16.2085 6.72896 16.6414 8.05244C17.1253 9.57953 17.8894 10.9539 18.9081 12.1501ZM41.8035 36.5327C38.1362 41.7248 32.737 44.9317 26.9304 45.9243C21.1238 46.9169 14.9606 45.7207 9.76516 42.0557C4.56975 38.3906 1.36082 32.9949 0.367579 27.192C-0.625661 21.389 0.57132 15.2298 4.23867 10.0377C7.90602 4.84555 13.3052 1.63866 19.1118 0.646053C24.9184 -0.346555 31.0816 0.849665 36.277 4.51468C41.4724 8.1797 44.6814 13.5754 45.6746 19.3784C46.6933 25.1813 45.4709 31.3406 41.8035 36.5327Z" fill="#1B3C7F"/>
<defs>
<linearGradient id="paint0_linear" x1="22.1603" y1="1.85944" x2="22.1603" y2="44.7616" gradientUnits="userSpaceOnUse">
<stop stop-color="#6EA2D7"/>
<stop offset="1" stop-color="white" stop-opacity="0"/>
</linearGradient>
</defs>
</svg>
