<svg width="58" height="77" viewBox="0 0 58 77" fill="none" xmlns="http://www.w3.org/2000/svg">
<path d="M55.5618 19.5224C54.3393 13.2105 50.3154 8.27286 44.3305 4.96416C38.3966 1.60456 32.0806 0.739229 26.0447 2.97896C14.5079 7.28027 9.31246 18.2499 7.96267 24.46C6.81663 29.7285 6.96943 33.2917 7.58066 35.8369C7.96267 37.3894 8.4975 38.5347 9.03232 39.4255C10.5094 41.9707 12.4959 44.1086 13.2345 46.8574C13.5401 48.0281 13.26 50.0897 12.9543 51.6422L1.85043 69.8146C1.82496 69.8401 1.7995 69.8401 1.7995 69.8655C1.59576 70.2473 3.48036 71.698 6.0526 73.1233C8.59937 74.5486 10.8405 75.4139 11.0443 75.0322C11.0443 75.0067 11.0697 74.9813 11.0697 74.9558L20.7475 56.1472C21.9444 55.0528 23.5998 53.6784 24.8223 53.2966C27.5473 52.4821 30.4252 53.0675 33.354 52.9912C36.079 52.9403 40.4085 52.1004 46.6736 46.0938C51.2323 41.7416 57.9048 31.6119 55.5618 19.5224Z" fill="#1B3C7F"/>
<path d="M55.5618 19.5224C54.3393 13.2105 50.3154 8.27286 44.3305 4.96416C38.3966 1.60456 32.0806 0.739229 26.0447 2.97896C14.5079 7.28027 9.31246 18.2499 7.96267 24.46C6.81663 29.7285 6.96943 33.2917 7.58066 35.8369C7.96267 37.3894 8.4975 38.5347 9.03232 39.4255C10.5094 41.9707 12.4959 44.1086 13.2345 46.8574C13.5401 48.0281 13.26 50.0897 12.9543 51.6422L1.85043 69.8146C1.82496 69.8401 1.7995 69.8401 1.7995 69.8655C1.59576 70.2473 3.48036 71.698 6.0526 73.1233C8.59937 74.5486 10.8405 75.4139 11.0443 75.0322C11.0443 75.0067 11.0697 74.9813 11.0697 74.9558L20.7475 56.1472C21.9444 55.0528 23.5998 53.6784 24.8223 53.2966C27.5473 52.4821 30.4252 53.0675 33.354 52.9912C36.079 52.9403 40.4085 52.1004 46.6736 46.0938C51.2323 41.7416 57.9048 31.6119 55.5618 19.5224Z" fill="url(#paint0_linear)"/>
<path d="M6.68882 72.0035C8.34423 72.9198 9.56668 73.4542 10.2543 73.6833L15.4752 63.5536L13.7943 65.3352L13.8962 65.1316L13.7689 65.2588L18.0729 56.9617C19.5755 54.0856 21.6129 50.0643 22.4788 48.2827C21.8676 47.9518 21.2564 47.5955 20.6197 47.2392C20.0085 46.8829 19.3718 46.552 18.7605 46.1956C17.6654 47.8754 15.3224 51.7187 13.6415 54.4929L8.82812 62.4592L8.87905 62.2556L8.75171 62.4846L9.43934 59.9649L3.42896 69.8401C3.93831 70.3237 5.03342 71.0872 6.68882 72.0035Z" fill="#1B3C7F"/>
<path d="M6.68882 72.0035C8.34423 72.9198 9.56668 73.4542 10.2543 73.6833L15.4752 63.5536L13.7943 65.3352L13.8962 65.1316L13.7689 65.2588L18.0729 56.9617C19.5755 54.0856 21.6129 50.0643 22.4788 48.2827C21.8676 47.9518 21.2564 47.5955 20.6197 47.2392C20.0085 46.8829 19.3718 46.552 18.7605 46.1956C17.6654 47.8754 15.3224 51.7187 13.6415 54.4929L8.82812 62.4592L8.87905 62.2556L8.75171 62.4846L9.43934 59.9649L3.42896 69.8401C3.93831 70.3237 5.03342 71.0872 6.68882 72.0035Z" fill="url(#paint1_linear)"/>
<path d="M27.4449 45.992L24.2869 52.1258C24.3124 52.1258 24.3633 52.1004 24.3888 52.1004C26.4772 51.4895 28.5655 51.5913 30.6029 51.6677C31.4943 51.7186 32.3857 51.744 33.277 51.744C35.7474 51.6931 39.7204 50.9551 45.7053 45.203C46.9786 43.9814 50.213 40.5454 52.4797 35.2006C54.6444 30.0848 55.2556 24.8927 54.2624 19.777C53.1673 14.1013 49.5509 9.39276 43.8206 6.18587C43.7952 6.16042 43.7442 6.13498 43.7188 6.13498H43.6933C43.6678 6.10953 43.6169 6.08406 43.5914 6.08406C37.8612 2.87717 31.9527 2.24089 26.5281 4.25156C21.6383 6.05862 17.5125 9.29096 14.2781 13.7959C10.8909 18.5299 9.64302 23.0602 9.261 24.7655C8.3187 29.0922 8.19136 32.7063 8.87899 35.5315C9.15913 36.7022 9.56662 37.7457 10.1778 38.7638C10.6108 39.5273 11.1456 40.2909 11.6295 41.0035C12.7755 42.6833 13.9471 44.414 14.5073 46.5265V46.5519L18.0728 40.7235L27.4449 45.992Z" fill="#1B3C7F"/>
<path d="M27.4449 45.992L24.2869 52.1258C24.3124 52.1258 24.3633 52.1004 24.3888 52.1004C26.4772 51.4895 28.5655 51.5913 30.6029 51.6677C31.4943 51.7186 32.3857 51.744 33.277 51.744C35.7474 51.6931 39.7204 50.9551 45.7053 45.203C46.9786 43.9814 50.213 40.5454 52.4797 35.2006C54.6444 30.0848 55.2556 24.8927 54.2624 19.777C53.1673 14.1013 49.5509 9.39276 43.8206 6.18587C43.7952 6.16042 43.7442 6.13498 43.7188 6.13498H43.6933C43.6678 6.10953 43.6169 6.08406 43.5914 6.08406C37.8612 2.87717 31.9527 2.24089 26.5281 4.25156C21.6383 6.05862 17.5125 9.29096 14.2781 13.7959C10.8909 18.5299 9.64302 23.0602 9.261 24.7655C8.3187 29.0922 8.19136 32.7063 8.87899 35.5315C9.15913 36.7022 9.56662 37.7457 10.1778 38.7638C10.6108 39.5273 11.1456 40.2909 11.6295 41.0035C12.7755 42.6833 13.9471 44.414 14.5073 46.5265V46.5519L18.0728 40.7235L27.4449 45.992Z" fill="url(#paint2_linear)"/>
<path d="M56.8604 19.2934C55.6125 12.8287 51.5376 7.50937 45.0943 3.89526C45.0434 3.86981 45.0179 3.84434 44.967 3.81889C38.4982 0.153877 31.7747 -0.558759 25.5606 1.75733C14.3038 5.95683 8.34441 16.4683 6.63807 24.2056C5.59389 28.9905 5.46656 32.8845 6.25605 36.1678C6.58713 37.5931 7.12195 38.8656 7.83505 40.1128C8.31893 40.9527 8.85376 41.7416 9.38858 42.5052C10.4582 44.0577 11.4515 45.5339 11.8844 47.2137C12.0882 48.0282 11.9099 49.6571 11.6297 51.1842L0.75503 69.0257C0.678627 69.102 0.627688 69.1784 0.576753 69.2547C-0.136343 70.5273 1.26438 71.5963 2.00295 72.1817C2.84338 72.8434 4.04036 73.5815 5.31375 74.3196C6.6126 75.0322 7.86052 75.6431 8.85375 76.0248C9.74512 76.3557 11.3751 76.992 12.1136 75.7194C12.1646 75.643 12.19 75.5412 12.241 75.4394L21.7404 56.9871C22.9119 55.9181 24.2872 54.8492 25.1022 54.5946C26.7576 54.1111 28.5403 54.1874 30.4249 54.2892C31.3417 54.3401 32.3095 54.3911 33.2773 54.3656C36.1806 54.3147 40.8157 53.4748 47.4883 47.0864C53.2694 41.6398 59.1525 31.052 56.8604 19.2934ZM14.4821 46.5265C13.9218 44.4395 12.7503 42.6834 11.6043 41.0036C11.1204 40.2655 10.5856 39.5274 10.1526 38.7638C10.1017 38.662 10.0507 38.5602 9.9998 38.4839L17.0289 42.4288L14.5076 46.5774C14.4821 46.552 14.4821 46.552 14.4821 46.5265ZM17.6911 42.8106L17.2326 43.7778L17.6911 42.8106ZM6.689 72.0035C5.0336 71.0872 3.96396 70.2982 3.40367 69.8401L9.41405 59.9649L18.9899 44.2613L23.9306 47.0356L15.4499 63.5281L10.229 73.6578C9.54139 73.4542 8.31893 72.9452 6.689 72.0035ZM25.9171 47.4173L25.3314 48.3336L25.9171 47.4173ZM33.2773 51.7441C32.3859 51.7695 31.4945 51.7186 30.6032 51.6677C28.5658 51.5659 26.4774 51.4641 24.3891 52.1004C24.3636 52.1004 24.3127 52.1259 24.2872 52.1259L26.5283 47.7737L33.6084 51.7441C33.5065 51.7441 33.3792 51.7441 33.2773 51.7441ZM45.731 45.2031C42.3947 48.3845 39.6951 50.0388 37.5304 50.8787L8.70096 34.717C8.21707 32.0192 8.39534 28.685 9.26124 24.7655C9.64326 23.0348 10.8912 18.5044 14.2784 13.7959C17.5128 9.26553 21.6385 6.05864 26.5283 4.25159C31.953 2.24092 37.8615 2.85174 43.5917 6.08408C43.6172 6.10953 43.6681 6.135 43.6936 6.135H43.719C43.7445 6.16046 43.7954 6.1859 43.8209 6.1859C49.5511 9.39279 53.1675 14.1013 54.2627 19.777C55.2559 24.8928 54.6701 30.0849 52.4799 35.2006C50.2133 40.5454 47.0044 43.9814 45.731 45.2031Z" fill="#1B3C7F"/>
<defs>
<linearGradient id="paint0_linear" x1="28.9154" y1="1.737" x2="28.9154" y2="75.1225" gradientUnits="userSpaceOnUse">
<stop stop-color="#6EA2D7"/>
<stop offset="1" stop-color="white" stop-opacity="0"/>
</linearGradient>
<linearGradient id="paint1_linear" x1="12.9539" y1="46.1956" x2="12.9539" y2="73.6833" gradientUnits="userSpaceOnUse">
<stop stop-color="#6EA2D7"/>
<stop offset="1" stop-color="white" stop-opacity="0"/>
</linearGradient>
<linearGradient id="paint2_linear" x1="31.5845" y1="3.10184" x2="31.5845" y2="52.1258" gradientUnits="userSpaceOnUse">
<stop stop-color="#6EA2D7"/>
<stop offset="1" stop-color="white" stop-opacity="0"/>
</linearGradient>
</defs>
</svg>
