<svg width="53" height="53" viewBox="0 0 53 53" fill="none" xmlns="http://www.w3.org/2000/svg">
<path d="M6.85089 10.3333C-9.57578 35.6321 17.5473 62.5089 42.7349 45.8636C44.2375 44.871 45.5109 43.5984 46.4786 42.0968C62.9053 16.798 35.7822 -10.0788 10.5946 6.56646C9.09205 7.55907 7.81866 8.83165 6.85089 10.3333Z" fill="#1B3C7F"/>
<path d="M6.85089 10.3333C-9.57578 35.6321 17.5473 62.5089 42.7349 45.8636C44.2375 44.871 45.5109 43.5984 46.4786 42.0968C62.9053 16.798 35.7822 -10.0788 10.5946 6.56646C9.09205 7.55907 7.81866 8.83165 6.85089 10.3333Z" fill="url(#paint0_linear)"/>
<path d="M44.8741 7.68636C49.9931 12.8021 52.5653 19.5468 52.5653 26.266C52.5653 32.9852 49.9931 39.7044 44.8741 44.8456C39.7551 49.9868 33.0061 52.5319 26.2826 52.5319C19.5592 52.5319 12.8357 49.9613 7.69124 44.8456C2.57224 39.7298 0 32.9852 0 26.266C0 19.5468 2.57224 12.8276 7.69124 7.68636C12.8357 2.5706 19.5592 0 26.2826 0C33.0061 0 39.7551 2.5706 44.8741 7.68636ZM14.6439 6.84646C14.975 7.63546 15.3061 8.50081 15.6371 9.41706C15.9937 10.4097 16.3503 11.4532 16.6813 12.4712L27.0212 13.7947C28.1163 12.8276 29.3133 11.9113 30.5867 11.0205C31.8091 10.1806 33.108 9.36616 34.4832 8.55171L32.2421 3.43595C31.529 3.15599 30.7904 2.92692 30.0519 2.72331C28.8039 2.5197 27.5306 2.41789 26.2826 2.41789C24.5508 2.41789 22.819 2.59605 21.1382 2.97783C20.2723 3.43595 19.4064 3.89408 18.5405 4.37766C17.2161 5.19211 15.9173 6.00656 14.6439 6.84646ZM15.5607 12.9803C15.2042 11.8604 14.8222 10.7914 14.4911 9.82429C14.1855 8.95893 13.8799 8.16994 13.5743 7.40639L10.1361 8.80622C9.90692 9.00984 9.70319 9.21345 9.47398 9.44251C6.03584 12.8785 3.87108 17.078 2.97971 21.5065C3.08158 22.0665 3.23439 22.6264 3.3872 23.1609C3.59094 23.8226 3.84562 24.4335 4.15123 24.9679C5.06807 24.4335 6.03583 24.0008 7.02907 23.619C8.09872 23.1863 9.19383 22.83 10.3399 22.4737L15.5607 12.9803ZM35.2982 9.54432C33.8975 10.3588 32.5477 11.1732 31.3252 12.0386C30.1028 12.9039 28.9568 13.7693 27.8871 14.6855L29.3133 25.0443L38.2525 30.3382C39.7296 29.6256 41.0539 28.8366 42.2509 27.9712C43.4733 27.1059 44.543 26.1387 45.4853 25.1461C45.7399 23.4663 45.7145 21.7865 45.4598 20.0812C45.2051 18.376 44.7467 16.6707 44.1355 14.9655L35.2982 9.54432ZM37.6667 31.4326L28.753 26.1387L18.8461 31.4326C18.7697 33.0361 18.7187 34.6141 18.7187 36.1921C18.7187 37.7955 18.7951 39.3989 18.9479 41.0024C20.1449 41.8932 21.4438 42.7585 22.9209 43.5475C24.449 44.362 26.1298 45.1001 28.0908 45.7364C29.8736 45.2273 31.529 44.5911 33.057 43.8275C34.5596 43.0894 35.9604 42.2241 37.2083 41.2315C37.5394 39.6535 37.7686 38.05 37.845 36.3957C37.9468 34.7922 37.8959 33.1379 37.6667 31.4326ZM17.6746 40.9515C17.5218 39.3735 17.4708 37.7955 17.4454 36.1921C17.4454 34.5377 17.4963 32.9088 17.5727 31.2799L10.5181 23.6954C9.47397 24.0262 8.45527 24.3571 7.43657 24.7643C6.41786 25.1716 5.42461 25.6297 4.48231 26.1896C4.20216 27.7422 4.07483 29.3201 4.07483 30.8981C4.07483 32.527 4.22763 34.1305 4.50777 35.7594C5.57742 37.3628 6.67253 38.8136 7.7931 40.0352C8.86275 41.206 9.95786 42.1732 11.0784 42.8349C12.2754 42.6567 13.4469 42.4022 14.593 42.0714C15.6626 41.7405 16.6813 41.3842 17.6746 40.9515ZM10.4672 43.8784C10.2635 43.7512 10.0597 43.6239 9.88146 43.4966C10.1107 43.7257 10.3399 43.9293 10.5945 44.1329C10.5436 44.0566 10.5181 43.9802 10.4672 43.8784ZM37.9468 42.2241C36.6225 43.2676 35.1709 44.1584 33.5919 44.9474C32.0129 45.7109 30.332 46.3727 28.4983 46.9071C28.1672 47.6452 27.7088 48.6633 27.2504 49.6814L27.0721 50.0631C32.9042 49.8595 38.6599 47.5434 43.0913 43.1149C43.2951 42.9113 43.4988 42.7076 43.7025 42.4786C42.913 42.4786 42.1235 42.4786 41.334 42.4531C40.2389 42.3768 39.0929 42.3004 37.9468 42.2241ZM45.3325 14.6092C45.9437 16.3653 46.4276 18.1469 46.6823 19.9285C46.9369 21.7101 46.9879 23.4663 46.7077 25.2479C47.4717 26.0624 48.1594 26.9786 48.7961 27.9967C49.1526 28.5821 49.4837 29.1929 49.8148 29.8546C49.993 28.6584 50.0949 27.4622 50.0949 26.266C50.0949 21.6592 48.7706 17.0271 46.0965 13.0566L45.3325 14.6092Z" fill="#1B3C7F"/>
<defs>
<linearGradient id="paint0_linear" x1="26.6648" y1="1.41745" x2="26.6648" y2="51.0126" gradientUnits="userSpaceOnUse">
<stop stop-color="#6EA2D7"/>
<stop offset="1" stop-color="white" stop-opacity="0"/>
</linearGradient>
</defs>
</svg>
