<svg width="51" height="85" viewBox="0 0 51 85" fill="none" xmlns="http://www.w3.org/2000/svg">
<path d="M44.3804 69.4114C46.4687 68.4696 47.8694 66.3063 47.6402 63.8375C47.3856 60.9105 44.7369 58.7726 41.8081 58.7726H41.0186C38.4209 55.7184 32.1049 44.6979 35.594 30.6233H36.6382C38.9812 30.6233 40.8658 28.6126 40.6621 26.2201C40.4838 24.1077 38.5483 22.5297 36.4344 22.5297H30.475C34.2187 20.8499 36.8165 17.1085 36.8165 12.7563C36.8165 6.82611 32.0285 2.0412 26.0946 2.0412C20.1606 2.0412 15.3726 6.82611 15.3726 12.7563C15.3726 17.1085 17.9958 20.8499 21.7141 22.5297H15.7547C13.6154 22.5297 11.7053 24.0822 11.527 26.2201C11.3233 28.6126 13.2079 30.6233 15.5509 30.6233H16.5951C19.8804 45.5378 13.7682 55.7439 11.1705 58.7726H10.381C7.45219 58.7726 4.80354 60.9105 4.54886 63.8375C4.34512 66.2554 5.69491 68.3678 7.70686 69.335C4.70167 69.4368 2.28223 71.9056 2.28223 74.9343V83.3333H49.1174V74.9343C49.1428 72.1347 47.08 69.844 44.3804 69.4114Z" fill="#1B3C7F"/>
<path d="M44.3804 69.4114C46.4687 68.4696 47.8694 66.3063 47.6402 63.8375C47.3856 60.9105 44.7369 58.7726 41.8081 58.7726H41.0186C38.4209 55.7184 32.1049 44.6979 35.594 30.6233H36.6382C38.9812 30.6233 40.8658 28.6126 40.6621 26.2201C40.4838 24.1077 38.5483 22.5297 36.4344 22.5297H30.475C34.2187 20.8499 36.8165 17.1085 36.8165 12.7563C36.8165 6.82611 32.0285 2.0412 26.0946 2.0412C20.1606 2.0412 15.3726 6.82611 15.3726 12.7563C15.3726 17.1085 17.9958 20.8499 21.7141 22.5297H15.7547C13.6154 22.5297 11.7053 24.0822 11.527 26.2201C11.3233 28.6126 13.2079 30.6233 15.5509 30.6233H16.5951C19.8804 45.5378 13.7682 55.7439 11.1705 58.7726H10.381C7.45219 58.7726 4.80354 60.9105 4.54886 63.8375C4.34512 66.2554 5.69491 68.3678 7.70686 69.335C4.70167 69.4368 2.28223 71.9056 2.28223 74.9343V83.3333H49.1174V74.9343C49.1428 72.1347 47.08 69.844 44.3804 69.4114Z" fill="url(#paint0_linear)"/>
<path d="M49.1426 84.9622H2.30757C1.4162 84.9622 0.703125 84.2496 0.703125 83.3588V74.9598C0.703125 72.2365 2.18025 69.8949 4.39594 68.6732C3.35176 67.2989 2.81692 65.5427 2.96972 63.7356C3.27533 60.0706 6.56068 57.2201 10.4063 57.2201H10.4318C11.3995 55.9475 13.2587 53.1224 14.583 48.7193C16.1365 43.5271 16.3912 37.9787 15.3215 32.2267C13.8444 32.1503 12.4437 31.514 11.425 30.3942C10.3554 29.2234 9.82053 27.6708 9.97333 26.0929C10.228 23.2168 12.7748 20.9517 15.8054 20.9517H16.926C14.9395 18.7374 13.7935 15.8359 13.7935 12.7563C13.7935 5.96073 19.32 0.437744 26.1198 0.437744C32.9197 0.437744 38.4462 5.96073 38.4462 12.7563C38.4462 15.8359 37.3001 18.7374 35.3137 20.9517H36.4342C39.4394 20.9517 42.0117 23.2168 42.2663 26.0929C42.3937 27.6708 41.8843 29.2488 40.8147 30.3942C39.796 31.4886 38.3953 32.1503 36.8927 32.2267C34.3968 44.138 39.1847 53.7332 41.8079 57.1946H41.8334C45.679 57.1946 48.9389 60.0706 49.27 63.7102C49.4482 65.67 48.8115 67.5534 47.5891 68.9787C49.5246 70.2767 50.7726 72.4655 50.7726 74.9598V83.3588C50.7726 83.7914 50.5943 84.1987 50.3141 84.4786C49.9576 84.784 49.5501 84.9622 49.1426 84.9622ZM3.91204 81.7553H47.5636V74.9343C47.5636 72.9491 46.1374 71.2948 44.151 70.9639C43.4633 70.8621 42.903 70.3021 42.8266 69.6149C42.7248 68.9277 43.1068 68.2406 43.7435 67.9606C45.297 67.2734 46.2138 65.67 46.0865 63.9647C45.9082 61.9286 44.0491 60.3506 41.8334 60.3506H41.0439C40.5855 60.3506 40.1271 60.147 39.8215 59.7907C38.217 57.9072 35.9758 54.1659 34.5242 49.2792C32.6396 43.0181 32.4868 36.6043 34.0912 30.216C34.2695 29.5034 34.9062 29.0198 35.6448 29.0198H36.6889C37.3765 29.0198 38.0132 28.7398 38.4971 28.2308C38.9555 27.7218 39.1847 27.06 39.1338 26.3474C39.0319 25.1002 37.8605 24.1331 36.4852 24.1331H30.5258C29.7617 24.1331 29.125 23.5986 28.9722 22.8605C28.8194 22.1224 29.2014 21.3843 29.8891 21.0789C33.1744 19.6027 35.2882 16.3449 35.2882 12.7563C35.2882 7.71688 31.1879 3.64463 26.1708 3.64463C21.1282 3.64463 17.0534 7.74233 17.0534 12.7563C17.0534 16.3449 19.1672 19.6027 22.4525 21.0789C23.1401 21.3843 23.5222 22.1224 23.3693 22.8605C23.2165 23.5986 22.5544 24.1331 21.8158 24.1331H15.8564C14.4811 24.1331 13.3096 25.1002 13.2077 26.3474C13.1568 27.0346 13.3605 27.7218 13.8444 28.2308C14.3029 28.7398 14.965 29.0198 15.6526 29.0198H16.6968C17.4354 29.0198 18.0975 29.5288 18.2503 30.2669C22.1214 47.8539 13.4879 58.6199 12.4946 59.7907C12.189 60.147 11.7561 60.3506 11.2722 60.3506H10.4827C8.267 60.3506 6.40787 61.9286 6.2296 63.9647C6.07679 65.6191 6.96817 67.1716 8.47076 67.9097C9.13292 68.2151 9.48945 68.9532 9.33664 69.6659C9.18383 70.3785 8.57263 70.913 7.83407 70.9384C5.64385 71.0148 3.93751 72.7709 3.93751 74.9343V81.7553H3.91204Z" fill="#1B3C7F"/>
<path d="M49.1426 84.9622H2.30757C1.4162 84.9622 0.703125 84.2496 0.703125 83.3588V74.9598C0.703125 72.2365 2.18025 69.8949 4.39594 68.6732C3.35176 67.2989 2.81692 65.5427 2.96972 63.7356C3.27533 60.0706 6.56068 57.2201 10.4063 57.2201H10.4318C11.3995 55.9475 13.2587 53.1224 14.583 48.7193C16.1365 43.5271 16.3912 37.9787 15.3215 32.2267C13.8444 32.1503 12.4437 31.514 11.425 30.3942C10.3554 29.2234 9.82053 27.6708 9.97333 26.0929C10.228 23.2168 12.7748 20.9517 15.8054 20.9517H16.926C14.9395 18.7374 13.7935 15.8359 13.7935 12.7563C13.7935 5.96073 19.32 0.437744 26.1198 0.437744C32.9197 0.437744 38.4462 5.96073 38.4462 12.7563C38.4462 15.8359 37.3001 18.7374 35.3137 20.9517H36.4342C39.4394 20.9517 42.0117 23.2168 42.2663 26.0929C42.3937 27.6708 41.8843 29.2488 40.8147 30.3942C39.796 31.4886 38.3953 32.1503 36.8927 32.2267C34.3968 44.138 39.1847 53.7332 41.8079 57.1946H41.8334C45.679 57.1946 48.9389 60.0706 49.27 63.7102C49.4482 65.67 48.8115 67.5534 47.5891 68.9787C49.5246 70.2767 50.7726 72.4655 50.7726 74.9598V83.3588C50.7726 83.7914 50.5943 84.1987 50.3141 84.4786C49.9576 84.784 49.5501 84.9622 49.1426 84.9622ZM3.91204 81.7553H47.5636V74.9343C47.5636 72.9491 46.1374 71.2948 44.151 70.9639C43.4633 70.8621 42.903 70.3021 42.8266 69.6149C42.7248 68.9277 43.1068 68.2406 43.7435 67.9606C45.297 67.2734 46.2138 65.67 46.0865 63.9647C45.9082 61.9286 44.0491 60.3506 41.8334 60.3506H41.0439C40.5855 60.3506 40.1271 60.147 39.8215 59.7907C38.217 57.9072 35.9758 54.1659 34.5242 49.2792C32.6396 43.0181 32.4868 36.6043 34.0912 30.216C34.2695 29.5034 34.9062 29.0198 35.6448 29.0198H36.6889C37.3765 29.0198 38.0132 28.7398 38.4971 28.2308C38.9555 27.7218 39.1847 27.06 39.1338 26.3474C39.0319 25.1002 37.8605 24.1331 36.4852 24.1331H30.5258C29.7617 24.1331 29.125 23.5986 28.9722 22.8605C28.8194 22.1224 29.2014 21.3843 29.8891 21.0789C33.1744 19.6027 35.2882 16.3449 35.2882 12.7563C35.2882 7.71688 31.1879 3.64463 26.1708 3.64463C21.1282 3.64463 17.0534 7.74233 17.0534 12.7563C17.0534 16.3449 19.1672 19.6027 22.4525 21.0789C23.1401 21.3843 23.5222 22.1224 23.3693 22.8605C23.2165 23.5986 22.5544 24.1331 21.8158 24.1331H15.8564C14.4811 24.1331 13.3096 25.1002 13.2077 26.3474C13.1568 27.0346 13.3605 27.7218 13.8444 28.2308C14.3029 28.7398 14.965 29.0198 15.6526 29.0198H16.6968C17.4354 29.0198 18.0975 29.5288 18.2503 30.2669C22.1214 47.8539 13.4879 58.6199 12.4946 59.7907C12.189 60.147 11.7561 60.3506 11.2722 60.3506H10.4827C8.267 60.3506 6.40787 61.9286 6.2296 63.9647C6.07679 65.6191 6.96817 67.1716 8.47076 67.9097C9.13292 68.2151 9.48945 68.9532 9.33664 69.6659C9.18383 70.3785 8.57263 70.913 7.83407 70.9384C5.64385 71.0148 3.93751 72.7709 3.93751 74.9343V81.7553H3.91204Z" fill="url(#paint1_linear)"/>
<defs>
<linearGradient id="paint0_linear" x1="25.6999" y1="2.0412" x2="25.6999" y2="83.3333" gradientUnits="userSpaceOnUse">
<stop stop-color="#6EA2D7"/>
<stop offset="1" stop-color="white" stop-opacity="0"/>
</linearGradient>
<linearGradient id="paint1_linear" x1="25.7378" y1="0.437744" x2="25.7378" y2="84.9622" gradientUnits="userSpaceOnUse">
<stop stop-color="#6EA2D7"/>
<stop offset="1" stop-color="white" stop-opacity="0"/>
</linearGradient>
</defs>
</svg>
