<svg width="654" height="1220" viewBox="0 0 654 1220" fill="none" xmlns="http://www.w3.org/2000/svg">
<path d="M195.546 1085.44C230.391 1155.47 265.43 1225.41 300.663 1295.26L316.026 1287.51C280.793 1217.71 245.754 1147.77 210.957 1077.78L195.546 1085.44Z" fill="#39619E"/>
<path d="M173.882 1096.24C208.728 1166.37 243.815 1236.31 279.048 1306.2L294.411 1298.45C259.178 1228.61 224.139 1158.67 189.294 1088.58L173.882 1096.24Z" fill="#39619E"/>
<path d="M152.171 1106.99C187.064 1177.17 222.152 1247.16 257.385 1317.1L272.748 1309.35C237.515 1239.46 202.427 1169.47 167.534 1099.34L152.171 1106.99Z" fill="#39619E"/>
<path d="M130.459 1117.79C165.353 1188.02 200.489 1258.06 235.77 1328L251.133 1320.25C215.852 1250.31 180.764 1180.32 145.871 1110.14L130.459 1117.79Z" fill="#39619E"/>
<path d="M238.969 1063.93C273.717 1133.87 308.756 1203.76 343.941 1273.51L359.304 1265.76C324.119 1196.01 289.129 1126.17 254.38 1056.28L238.969 1063.93Z" fill="#39619E"/>
<path d="M260.632 1053.13C295.381 1123.02 330.371 1192.87 365.556 1262.56L380.919 1254.81C345.783 1185.12 310.792 1115.27 276.044 1045.43L260.632 1053.13Z" fill="#39619E"/>
<path d="M217.257 1074.68C252.054 1144.67 287.093 1214.56 322.278 1284.41L337.641 1276.66C302.456 1206.86 267.417 1137.02 232.62 1067.03L217.257 1074.68Z" fill="#39619E"/>
<path d="M92.7061 874.258C100.945 892.13 109.378 909.761 117.907 927.391C122.123 936.207 126.437 945.022 130.701 953.837L137.099 967.06L143.544 980.234C160.749 1015.4 178.099 1050.42 195.497 1085.48L210.86 1077.83C193.462 1042.81 176.112 1007.79 158.956 972.678L152.51 959.504L146.113 946.33C141.848 937.563 137.535 928.748 133.318 919.981C124.837 902.399 116.405 884.768 108.263 867.089L92.7061 874.258Z" fill="#39619E"/>
<path d="M70.7034 884.381L73.8536 891.21L77.0037 897.894L83.3524 911.262L86.5026 917.947L89.7012 924.582L96.0984 937.853C100.363 946.717 104.676 955.532 108.941 964.348L115.387 977.57L121.833 990.793C139.086 1026.01 156.436 1061.07 173.882 1096.14L189.245 1088.49C171.847 1053.42 154.449 1018.4 137.244 983.189L130.798 970.014L124.353 956.792C120.088 947.976 115.775 939.21 111.558 930.346L105.21 917.075L102.011 910.439L98.8608 903.803L92.5605 890.484L89.4104 883.8L86.3087 877.067L70.7034 884.381Z" fill="#39619E"/>
<path d="M48.7011 894.504L51.8997 901.43L55.0983 908.211L61.4955 921.724L64.6941 928.457L67.8927 935.141L74.2899 948.461C78.5547 957.373 82.8679 966.188 87.1812 975.052L93.6268 988.323L100.121 1001.55C117.374 1036.81 134.772 1071.92 152.219 1107.04L167.582 1099.39C150.184 1064.32 132.785 1029.2 115.532 993.99L109.038 980.767L102.593 967.544C98.2793 958.729 94.0145 949.914 89.7497 941.002L83.3525 927.682L80.1539 921.046L76.9554 914.362L70.6066 900.946L67.4565 894.213L64.3064 887.384L48.7011 894.504Z" fill="#39619E"/>
<path d="M26.6987 904.627L29.9458 911.65L33.1444 918.479L39.59 932.09L42.7886 938.87L45.9872 945.555L52.4328 958.971C56.6976 967.932 61.0594 976.747 65.3726 985.611L71.8182 998.93L78.3124 1012.2C95.6138 1047.56 113.012 1082.67 130.459 1117.84L145.871 1110.14C128.424 1075.02 111.025 1039.91 93.7722 1004.6L87.2781 991.374L80.8325 978.103C76.5192 969.239 72.2059 960.424 67.9412 951.512L61.4955 938.144L58.297 931.46L55.0983 924.727L48.7011 911.214L45.5026 904.433L42.304 897.458L26.6987 904.627Z" fill="#39619E"/>
<path d="M136.759 854.06L139.716 860.551L142.817 867.089L149.021 880.167L152.122 886.706L155.272 893.293L161.573 906.419C165.741 915.186 170.054 923.904 174.319 932.671L180.716 945.797L187.161 958.923C204.318 993.941 221.619 1028.91 239.017 1063.88L254.38 1056.23C237.03 1021.26 219.68 986.289 202.573 951.318L196.127 938.192L189.73 925.066C185.465 916.348 181.2 907.581 177.033 898.863L170.732 885.785L167.582 879.247L164.48 872.708L158.326 859.679L155.272 853.188L152.316 846.795L136.759 854.06Z" fill="#39619E"/>
<path d="M158.762 843.937L161.67 850.331L164.723 856.821L170.878 869.802L173.979 876.292L177.13 882.831L183.43 895.908C187.598 904.627 191.862 913.345 196.127 922.112L202.476 935.189L208.922 948.315C226.029 983.286 243.331 1018.21 260.681 1053.18L276.044 1045.53C258.694 1010.6 241.392 975.681 224.333 940.759L217.936 927.682L211.587 914.604C207.371 905.886 203.058 897.168 198.938 888.498L192.686 875.469L189.536 868.93L186.483 862.44L180.377 849.507L177.323 843.065L174.416 836.769L158.762 843.937Z" fill="#39619E"/>
<path d="M114.757 864.135L117.762 870.722L120.863 877.309L127.115 890.484L130.217 897.071L133.367 903.658L139.716 916.832C143.932 925.648 148.197 934.414 152.461 943.181L158.859 956.356L165.304 969.53C182.46 1004.6 199.81 1039.62 217.209 1074.63L232.572 1066.98C215.222 1032.01 197.872 996.993 180.716 961.974L174.27 948.848L167.873 935.722C163.608 926.955 159.343 918.189 155.127 909.422L148.827 896.296L145.677 889.709L142.575 883.121L136.372 869.995L133.27 863.457L130.265 856.966L114.757 864.135Z" fill="#39619E"/>
<path d="M165.644 667.197C146.307 674.946 128.811 686.91 114.418 701.876C100.024 716.843 88.7805 734.813 81.8502 754.429C80.154 759.321 78.6516 764.31 77.44 769.395C76.2769 774.481 75.356 779.615 74.726 784.749C74.1444 789.932 73.7568 795.115 73.7083 800.346C73.6598 801.653 73.7567 802.961 73.7567 804.269L73.8052 806.206C73.8052 806.836 73.8537 807.514 73.9022 808.144C73.9991 809.451 74.0475 810.759 74.1445 812.019L74.4837 815.893C75.0653 821.076 75.7923 826.21 76.9554 831.296C77.44 833.863 78.1669 836.333 78.797 838.852C79.1362 840.111 79.5239 841.322 79.9117 842.581L80.4447 844.47C80.6386 845.1 80.8325 845.681 81.0748 846.311L82.3348 849.992L83.6918 853.625L84.3703 855.417C84.6126 855.998 84.8549 856.628 85.0972 857.209L86.5996 860.793L92.7545 874.21L108.36 867.041L102.302 853.818L100.945 850.622C100.703 850.089 100.509 849.556 100.266 849.023L99.6363 847.425L98.4247 844.18L97.3101 840.934C97.1162 840.402 96.9223 839.869 96.7769 839.288L96.2923 837.641C95.9531 836.527 95.6138 835.461 95.323 834.347C94.7899 832.119 94.16 829.891 93.7238 827.663C92.706 823.207 92.076 818.654 91.5429 814.101L91.2036 810.711C91.1067 809.548 91.0583 808.434 91.0098 807.272C90.9614 806.691 90.9613 806.109 90.9129 805.577L90.8644 803.881C90.8644 802.719 90.816 801.605 90.816 800.442C90.8644 795.89 91.2036 791.337 91.6883 786.784C92.2698 782.231 93.0453 777.726 94.063 773.27C95.1292 768.814 96.4377 764.455 97.9401 760.096C104.047 742.853 113.982 726.918 126.727 713.695C139.425 700.423 154.933 689.865 171.944 683.035L165.644 667.197Z" fill="#39619E"/>
<path d="M156.581 644.723C133.997 653.78 113.594 667.73 96.9224 685.118C80.2025 702.506 67.1173 723.382 58.9755 746.34C56.9885 752.056 55.2438 757.916 53.7899 763.874C52.4329 769.831 51.3183 775.837 50.5913 781.892C49.9128 787.946 49.4767 794.049 49.4282 800.2C49.3797 801.75 49.4767 803.252 49.4767 804.802L49.5251 807.078C49.5736 807.853 49.6221 808.58 49.6221 809.355C49.719 810.856 49.7675 812.406 49.8644 813.908L50.3006 818.461C50.979 824.515 51.8513 830.569 53.1599 836.478C53.7414 839.481 54.5653 842.388 55.2923 845.294C55.68 846.747 56.1161 848.2 56.5523 849.653L57.1824 851.832C57.4247 852.559 57.667 853.237 57.9093 853.964L59.3632 858.226C59.8963 859.631 60.4294 861.035 60.9625 862.44L61.7864 864.523C62.0772 865.201 62.368 865.879 62.6588 866.605L64.4034 870.722L70.6552 884.429L86.2604 877.261L80.0571 863.748L78.4578 860.018C78.2155 859.388 77.9247 858.759 77.6824 858.129L76.9555 856.24L75.5016 852.462L74.193 848.587C73.9992 847.958 73.7569 847.328 73.563 846.65L72.9814 844.712C72.5937 843.405 72.206 842.097 71.8183 840.789C71.1398 838.125 70.4129 835.51 69.8798 832.846C68.6682 827.518 67.8928 822.142 67.3112 816.668L66.9235 812.6C66.8266 811.244 66.7781 809.887 66.6812 808.483C66.6327 807.805 66.5843 807.127 66.5843 806.449L66.5358 804.414C66.5358 803.058 66.4873 801.702 66.4873 800.297C66.5358 794.824 66.9235 789.351 67.5536 783.926C68.232 778.501 69.2013 773.125 70.4129 767.797C71.673 762.469 73.2238 757.238 75.0654 752.104C82.3834 731.519 94.16 712.678 109.184 697.033C124.207 681.34 142.575 668.844 162.833 660.707L156.581 644.723Z" fill="#39619E"/>
<path d="M147.567 622.249C95.7592 643.076 54.856 685.699 36.1975 738.203C33.8713 744.79 31.8843 751.474 30.285 758.255C28.7341 765.085 27.4741 771.962 26.6018 778.937C25.7779 785.912 25.2932 792.935 25.2448 799.91C25.1963 801.653 25.2448 803.397 25.2932 805.189L25.3417 807.805C25.3902 808.676 25.4386 809.548 25.4871 810.42C25.584 812.164 25.6809 813.907 25.7778 815.651L26.2625 820.882C26.9894 827.808 28.0557 834.735 29.558 841.516C30.2365 844.906 31.1573 848.248 31.9812 851.59C32.4174 853.237 32.9505 854.884 33.4351 856.531L34.1621 859.001C34.4044 859.824 34.6951 860.648 34.9859 861.422L36.6337 866.266C37.2152 867.864 37.8453 869.463 38.4269 871.061L39.3476 873.434C39.6384 874.209 39.9777 874.984 40.3169 875.759L42.304 880.409L48.7011 894.407L64.3064 887.239L58.0061 873.434L56.1645 869.172C55.8737 868.446 55.5345 867.768 55.2921 867.041L54.4683 864.861C53.9352 863.408 53.3536 861.955 52.8205 860.502L51.3182 856.046C51.0758 855.32 50.8335 854.545 50.5912 853.818L49.9127 851.542C49.4765 850.04 48.9919 848.539 48.6042 847.037C47.8288 843.986 47.0049 840.934 46.3748 837.834C45.0179 831.683 44.0486 825.387 43.3701 819.09L42.9339 814.343C42.837 812.745 42.7401 811.147 42.6432 809.597C42.5947 808.822 42.5463 807.998 42.5463 807.223L42.4978 804.85C42.4978 803.252 42.4493 801.653 42.4493 800.055C42.4978 793.661 42.9339 787.316 43.6609 780.971C44.4363 774.626 45.551 768.378 47.0049 762.178C48.5073 755.979 50.3004 749.924 52.3843 743.918C69.3466 696.113 106.809 657.074 154.012 638.136L147.567 622.249Z" fill="#39619E"/>
<path d="M138.552 599.823C131.283 602.778 124.159 606.023 117.277 609.704C110.395 613.385 103.707 617.357 97.31 621.764C84.4672 630.483 72.6421 640.509 61.9801 651.601C56.6491 657.171 51.5604 662.983 46.8594 669.086C42.1585 675.189 37.6999 681.534 33.6289 688.121C29.558 694.708 25.7778 701.537 22.3854 708.512C19.0414 715.535 15.9882 722.752 13.3711 730.114C10.7541 737.525 8.52483 745.032 6.68321 752.734C4.89006 760.435 3.48457 768.185 2.5153 776.079C1.5945 783.926 1.0614 791.869 1.01294 799.764C0.964478 801.75 1.01294 803.736 1.0614 805.722L1.10991 808.676C1.15837 809.645 1.2068 810.662 1.25526 811.631C1.35219 813.617 1.44916 815.603 1.59454 817.54L2.12762 823.449C2.95151 831.296 4.16307 839.045 5.8593 846.698C6.63472 850.525 7.65248 854.254 8.62175 858.032C9.15486 859.921 9.68791 861.762 10.221 863.602L11.0449 866.363C11.3357 867.283 11.6264 868.203 11.9657 869.075L13.8073 874.548C14.4858 876.341 15.1643 878.133 15.8428 879.876L16.8605 882.54C17.1998 883.412 17.5875 884.284 17.9267 885.156L20.156 890.387L26.6986 904.627L42.3039 897.458L35.8582 883.412L33.7743 878.569C33.435 877.745 33.0958 876.97 32.7566 876.147L31.7873 873.677C31.1573 872.03 30.5273 870.383 29.9457 868.736L28.2495 863.699C27.9587 862.876 27.6679 862.004 27.4256 861.18L26.6502 858.613C26.1655 856.918 25.6324 855.223 25.1478 853.479C24.2755 849.992 23.3062 846.553 22.6277 843.017C21.0768 835.994 19.9622 828.826 19.2352 821.657L18.7506 816.232C18.6052 814.44 18.5083 812.6 18.4114 810.808C18.3629 809.887 18.3144 809.016 18.266 808.095L18.2175 805.383C18.2175 803.542 18.1206 801.75 18.1691 799.91C18.2175 792.644 18.7506 785.379 19.5745 778.114C20.4468 770.897 21.7554 763.728 23.4031 756.657C25.0994 749.585 27.1348 742.659 29.558 735.878C39.2507 708.657 54.7106 684.004 74.3868 663.467C94.063 642.931 118.149 626.463 144.95 615.71L138.552 599.823Z" fill="#39619E"/>
<path d="M183.672 712.145C170.926 717.279 159.053 725.271 149.36 735.394C139.619 745.517 132.058 757.674 127.454 770.606C122.85 783.587 121.154 797.343 122.608 810.905C122.996 814.295 123.48 817.686 124.256 821.076C124.547 822.771 125.08 824.466 125.467 826.113C125.71 826.937 125.952 827.809 126.194 828.632L126.582 829.891C126.727 830.327 126.873 830.715 127.018 831.151L127.842 833.669L128.811 836.139L129.296 837.399C129.441 837.835 129.635 838.222 129.829 838.61L130.895 841.08L136.808 853.964L152.413 846.795L146.597 834.105L145.725 832.022C145.58 831.683 145.434 831.344 145.289 831.005L144.901 829.94L144.126 827.857L143.447 825.774C143.35 825.435 143.205 825.096 143.108 824.757L142.817 823.691L142.187 821.609C141.848 820.204 141.46 818.848 141.17 817.443C140.54 814.683 140.152 811.873 139.813 809.112C138.649 798.069 140.006 786.929 143.787 776.322C147.567 765.714 153.819 755.64 161.863 747.212C169.908 738.784 179.746 732.149 190.166 727.983L183.672 712.145Z" fill="#39619E"/>
<path d="M192.735 734.619C183.236 738.397 174.27 744.5 166.904 752.201C159.489 759.902 153.77 769.105 150.378 778.792C146.937 788.479 145.725 798.505 146.791 808.531C147.082 811.05 147.421 813.569 148.003 816.087C148.245 817.347 148.633 818.606 148.924 819.914L149.505 821.803L149.796 822.771C149.893 823.11 150.038 823.401 150.135 823.74C150.378 824.37 150.572 824.999 150.765 825.677L151.492 827.566L151.832 828.535C151.977 828.874 152.122 829.165 152.219 829.504L153.043 831.441L158.81 844.034L174.416 836.866L168.745 824.466C168.551 823.934 168.309 823.449 168.115 822.917C168.018 822.674 167.873 822.432 167.776 822.142L167.485 821.367L166.904 819.865C166.758 819.381 166.565 818.848 166.419 818.364C166.322 818.121 166.225 817.879 166.177 817.637L165.983 816.911L165.547 815.458C165.353 814.489 165.014 813.52 164.868 812.551C164.432 810.614 164.19 808.725 163.947 806.836C163.899 806.352 163.851 805.916 163.802 805.431L163.754 804.027C163.754 803.785 163.705 803.542 163.705 803.349V802.671C163.705 802.186 163.657 801.75 163.705 801.266C163.705 799.425 163.851 797.536 164.044 795.696C164.287 793.855 164.626 792.015 165.014 790.174C165.45 788.334 166.031 786.493 166.661 784.653C169.23 777.339 173.64 770.17 179.407 764.213C185.126 758.207 192.105 753.557 199.277 750.699L192.735 734.619Z" fill="#39619E"/>
<path d="M174.658 689.671C158.616 696.113 143.932 706.09 131.913 718.635C119.846 731.18 110.444 746.243 104.677 762.518C98.8609 778.792 96.7285 796.277 98.5701 813.423C99.0548 817.685 99.6848 821.996 100.606 826.21C100.993 828.341 101.623 830.424 102.108 832.507C102.399 833.572 102.738 834.589 103.029 835.655L103.465 837.205C103.61 837.738 103.804 838.222 103.998 838.755L105.064 841.855L106.227 844.906L106.809 846.456C107.003 846.94 107.245 847.473 107.439 847.957L108.699 850.961L114.708 864.135L130.314 856.967L124.353 843.986L123.238 841.37C123.044 840.934 122.85 840.498 122.705 840.063L122.22 838.755L121.203 836.091L120.282 833.427C120.136 832.991 119.991 832.555 119.846 832.071L119.458 830.715C119.216 829.794 118.925 828.922 118.683 828.002C118.246 826.21 117.713 824.418 117.374 822.577C116.55 818.945 116.017 815.312 115.629 811.631C114.078 797.004 115.872 782.182 120.863 768.233C125.807 754.284 133.9 741.303 144.32 730.502C154.691 719.652 167.388 711.079 181.103 705.558L174.658 689.671Z" fill="#39619E"/>
<path d="M389.739 652.182C374.812 662.837 357.608 670.297 339.628 673.639C335.121 674.462 330.614 675.092 326.058 675.382L324.362 675.528L322.665 675.576C321.502 675.624 320.388 675.673 319.225 675.721C316.947 675.721 314.669 675.77 312.391 675.624C310.113 675.576 307.836 675.334 305.558 675.189C304.395 675.092 303.28 674.946 302.165 674.801L300.469 674.607L298.773 674.365L295.38 673.832L291.988 673.154C291.406 673.057 290.873 672.96 290.292 672.815L288.596 672.428C287.481 672.137 286.366 671.895 285.252 671.604C283.022 670.975 280.793 670.442 278.612 669.667C277.497 669.328 276.431 668.989 275.317 668.601L272.07 667.439L264.945 664.872L261.262 663.709L259.421 663.128L257.53 662.595L253.799 661.578L250.019 660.706L248.129 660.27L246.238 659.883C244.978 659.641 243.67 659.399 242.41 659.156C239.841 658.769 237.273 658.333 234.704 658.042C233.396 657.897 232.136 657.703 230.827 657.606L226.95 657.316C216.579 656.686 206.062 657.17 195.788 658.817C190.651 659.641 185.562 660.755 180.522 662.159C175.53 663.564 170.538 665.211 165.74 667.148L172.138 683.084C176.354 681.34 180.716 679.935 185.126 678.676C189.536 677.417 193.995 676.496 198.502 675.721C207.516 674.22 216.724 673.832 225.835 674.365L229.276 674.607C230.439 674.704 231.554 674.849 232.669 674.995C234.946 675.237 237.224 675.624 239.454 675.963C240.568 676.157 241.683 676.399 242.846 676.593L244.542 676.932L246.238 677.32L249.582 678.095L252.926 679.015L254.574 679.451L256.222 679.984L259.517 681.049L266.205 683.471L269.84 684.779C271.052 685.215 272.312 685.554 273.523 685.99C275.995 686.813 278.515 687.443 280.987 688.169C282.247 688.508 283.507 688.799 284.767 689.089L286.657 689.525C287.287 689.671 287.917 689.768 288.547 689.913L292.376 690.639L296.204 691.269L298.143 691.56L300.081 691.802C301.39 691.947 302.65 692.092 303.959 692.238C306.576 692.432 309.144 692.674 311.761 692.722C314.378 692.867 316.947 692.819 319.564 692.819C320.872 692.819 322.181 692.722 323.489 692.674L325.428 692.577L327.366 692.432C332.552 692.092 337.738 691.366 342.875 690.446C363.375 686.619 382.906 678.143 399.819 666.083L389.739 652.182Z" fill="#39619E"/>
<path d="M375.636 632.469C363.472 641.138 349.563 647.144 335.121 649.857C320.679 652.569 305.752 651.94 291.213 648.21C289.42 647.677 287.578 647.241 285.785 646.612C284.864 646.321 283.992 646.03 283.071 645.74L280.405 644.771L272.651 641.962L268.386 640.606L266.254 639.928L264.073 639.298L259.711 638.087L255.301 637.021L253.072 636.489L250.843 636.053C249.34 635.762 247.886 635.471 246.384 635.181C243.379 634.697 240.374 634.212 237.37 633.873C235.867 633.728 234.365 633.486 232.814 633.389L228.259 633.05C216.094 632.323 203.784 632.856 191.717 634.842C185.708 635.81 179.698 637.118 173.834 638.765C167.97 640.412 162.154 642.349 156.533 644.626L162.93 660.561C167.97 658.478 173.204 656.783 178.438 655.282C183.721 653.78 189.052 652.666 194.48 651.746C205.287 649.954 216.288 649.469 227.192 650.147L231.263 650.438C232.62 650.535 233.977 650.729 235.334 650.874C238.048 651.165 240.714 651.6 243.428 652.036C244.785 652.279 246.093 652.569 247.45 652.811L249.437 653.199L251.424 653.683L255.398 654.603L259.324 655.669L261.262 656.202L263.201 656.831L267.078 658.091L274.396 660.706L277.498 661.82C278.515 662.159 279.581 662.498 280.599 662.837C282.683 663.564 284.767 664.048 286.851 664.678C287.917 664.969 288.983 665.162 290.001 665.453L291.6 665.84C292.133 665.986 292.667 666.034 293.2 666.18L296.398 666.809L299.597 667.293L301.196 667.536L302.796 667.729C303.862 667.826 304.928 667.972 305.994 668.117C308.126 668.262 310.307 668.504 312.44 668.504C314.572 668.65 316.753 668.601 318.885 668.601C319.952 668.601 321.018 668.504 322.132 668.504L323.732 668.456L325.331 668.311C329.644 668.02 333.909 667.439 338.125 666.664C355.088 663.516 371.323 656.492 385.426 646.369L375.636 632.469Z" fill="#39619E"/>
<path d="M361.582 612.755C352.18 619.488 341.566 623.992 330.71 626.027C319.806 628.061 308.659 627.625 297.367 624.719C295.962 624.283 294.557 623.992 293.151 623.46C292.424 623.217 291.746 623.024 291.019 622.781L288.886 622.006L280.502 619.003L275.656 617.454L273.233 616.679L270.761 616.001L265.818 614.644L260.778 613.433L258.257 612.852L255.737 612.368C254.041 612.029 252.345 611.69 250.649 611.399C247.208 610.866 243.815 610.285 240.326 609.898C238.581 609.704 236.885 609.462 235.14 609.365L229.906 608.977C215.949 608.106 201.846 608.784 187.985 611.012C181.055 612.126 174.173 613.627 167.437 615.516C160.7 617.405 154.061 619.633 147.615 622.249L154.013 638.184C159.877 635.811 165.935 633.776 172.041 632.081C178.147 630.337 184.399 629.03 190.699 627.964C203.3 625.881 216.143 625.3 228.792 626.075L233.541 626.463C235.14 626.559 236.691 626.802 238.29 626.947C241.441 627.286 244.542 627.819 247.692 628.303C249.243 628.594 250.794 628.884 252.345 629.175L254.671 629.611L256.949 630.144L261.553 631.209L266.06 632.469L268.338 633.098L270.567 633.825L275.026 635.229L282.974 638.087L285.494 639.007C286.318 639.298 287.19 639.54 288.014 639.831C289.71 640.412 291.407 640.799 293.103 641.332C306.721 644.819 320.533 645.401 333.909 642.882C347.285 640.412 360.225 634.842 371.614 626.705L361.582 612.755Z" fill="#39619E"/>
<path d="M347.479 593.042C345.831 594.205 344.135 595.319 342.39 596.287C340.645 597.256 338.901 598.176 337.108 598.903C335.314 599.629 333.521 600.356 331.68 600.889C329.838 601.421 328.045 601.906 326.203 602.245C318.885 603.601 311.47 603.359 303.425 601.325C302.408 600.986 301.39 600.792 300.372 600.453C299.839 600.259 299.354 600.162 298.821 599.968C298.288 599.775 297.804 599.581 297.271 599.387L296.883 599.242L296.689 599.193L296.592 599.145L296.253 599.048L293.587 598.079L288.256 596.19L282.828 594.447L280.114 593.575L277.352 592.8L271.779 591.298L266.157 589.942L263.346 589.313L260.487 588.731C258.597 588.344 256.658 587.956 254.768 587.617C250.891 586.988 247.062 586.358 243.137 585.971C241.198 585.777 239.26 585.486 237.273 585.341L231.409 584.905C215.658 583.936 199.714 584.663 184.108 587.23C176.306 588.489 168.551 590.184 160.943 592.316C153.334 594.447 145.871 596.917 138.601 599.872L144.998 615.807C151.686 613.094 158.568 610.77 165.547 608.832C172.525 606.846 179.65 605.345 186.822 604.134C201.216 601.809 215.852 601.131 230.342 602.003L235.77 602.439C237.564 602.584 239.357 602.826 241.15 603.02C244.736 603.407 248.274 603.989 251.86 604.57C253.605 604.86 255.398 605.248 257.143 605.587L259.76 606.12L262.377 606.701L267.562 607.96L272.7 609.365L275.268 610.091L277.788 610.866L282.828 612.465L287.772 614.257L290.243 615.177L291.406 615.565L293.345 616.291C293.975 616.533 294.654 616.679 295.284 616.921C296.592 617.405 297.901 617.647 299.161 618.035C309.532 620.699 319.564 621.038 329.45 619.197C339.288 617.357 348.933 613.24 357.511 607.088L347.479 593.042Z" fill="#39619E"/>
<path d="M417.896 691.608C412.759 695.241 407.477 698.68 401.952 701.731C396.427 704.831 390.805 707.689 384.941 710.159C379.126 712.629 373.165 714.906 367.058 716.698C360.952 718.538 354.797 720.137 348.497 721.251C342.245 722.413 335.896 723.285 329.547 723.721L327.173 723.915L324.798 724.011C323.199 724.06 321.599 724.157 320 724.157C316.801 724.157 313.651 724.205 310.453 724.06C307.254 723.963 304.104 723.721 300.954 723.43C299.355 723.285 297.804 723.091 296.204 722.897L293.83 722.607L291.503 722.268C289.953 722.026 288.402 721.783 286.803 721.541L282.15 720.621C281.375 720.476 280.599 720.33 279.824 720.137L277.546 719.604C276.044 719.216 274.493 718.877 272.99 718.49C269.986 717.666 266.932 716.891 263.976 715.874C262.474 715.39 261.02 714.954 259.518 714.421L255.156 712.823L249.292 710.692L246.772 709.868L245.512 709.481L244.252 709.142L241.683 708.415L239.114 707.834L237.854 707.543L236.594 707.301C235.722 707.156 234.898 706.962 234.026 706.817C232.329 706.575 230.633 706.236 228.889 706.09C228.016 705.993 227.192 705.848 226.32 705.8L223.751 705.606C210.085 704.734 196.418 706.962 183.672 712.096L190.069 728.032C200.537 723.818 211.539 722.074 222.685 722.752C223.364 722.801 224.091 722.849 224.769 722.897C225.448 722.946 226.175 723.043 226.853 723.14C228.259 723.236 229.664 723.527 231.069 723.721L233.202 724.157L234.268 724.35L235.334 724.593L237.467 725.077L239.599 725.658L240.665 725.949L241.731 726.288L243.864 726.966L249.292 728.952L254.09 730.647C255.689 731.18 257.337 731.713 258.936 732.245C262.183 733.311 265.479 734.183 268.774 735.103C270.422 735.539 272.118 735.926 273.766 736.314L276.286 736.895C277.11 737.089 277.982 737.234 278.806 737.428L283.895 738.397C285.591 738.687 287.336 738.929 289.032 739.22L291.6 739.608L294.217 739.898C295.962 740.092 297.658 740.334 299.403 740.479C302.892 740.77 306.382 741.061 309.871 741.158C313.361 741.351 316.85 741.303 320.388 741.303C322.132 741.254 323.877 741.206 325.622 741.109L328.239 741.012L330.856 740.818C337.883 740.334 344.813 739.365 351.744 738.106C358.626 736.847 365.459 735.103 372.147 733.117C378.835 731.131 385.377 728.661 391.775 725.949C398.172 723.236 404.375 720.088 410.433 716.698C416.491 713.307 422.307 709.578 427.928 705.558L417.896 691.608Z" fill="#39619E"/>
<path d="M431.951 711.321C426.135 715.438 420.126 719.361 413.825 722.849C407.574 726.336 401.128 729.581 394.488 732.439C387.849 735.248 381.064 737.815 374.134 739.898C367.204 741.981 360.128 743.773 352.955 745.08C345.783 746.388 338.562 747.405 331.292 747.89L328.578 748.083L325.864 748.18C324.023 748.229 322.229 748.326 320.388 748.374C316.753 748.374 313.118 748.422 309.483 748.229C305.849 748.132 302.262 747.841 298.628 747.551C296.834 747.405 295.041 747.163 293.248 746.969L290.583 746.63L287.917 746.243C286.124 745.952 284.379 745.71 282.586 745.419L277.304 744.402C276.431 744.209 275.559 744.063 274.687 743.87L272.07 743.288C270.325 742.852 268.58 742.465 266.884 742.029C263.492 741.109 260.002 740.188 256.707 739.074C255.01 738.542 253.363 738.009 251.667 737.428L246.723 735.636L244.445 734.812L243.476 734.473L241.538 733.747C240.859 733.553 240.229 733.359 239.599 733.117L238.63 732.778L237.661 732.536L235.722 732.003C235.092 731.858 234.413 731.712 233.783 731.567L232.814 731.325L231.845 731.131L229.906 730.744C228.646 730.598 227.338 730.308 226.078 730.211C225.448 730.162 224.818 730.017 224.188 730.017C223.558 729.969 222.928 729.92 222.298 729.872C212.217 729.242 202.282 730.84 192.735 734.667L199.132 750.602C200.925 749.827 202.718 749.294 204.56 748.762C206.353 748.229 208.195 747.841 210.036 747.551C213.72 746.921 217.403 746.776 221.183 747.018C221.668 747.066 222.152 747.115 222.588 747.115C223.073 747.115 223.558 747.26 224.042 747.26C225.012 747.308 225.981 747.551 226.95 747.647L228.404 747.938L229.131 748.083L229.858 748.277C230.343 748.422 230.876 748.519 231.36 748.616C231.845 748.761 232.378 748.907 232.863 749.052L233.638 749.246L234.413 749.488C234.947 749.633 235.431 749.827 235.964 749.972C236.497 750.166 236.982 750.36 237.515 750.554L238.291 750.844L240.714 751.716L246.045 753.653C247.838 754.283 249.68 754.816 251.473 755.397C255.059 756.608 258.839 757.577 262.522 758.594C264.364 759.078 266.254 759.514 268.144 759.95L270.955 760.628C271.876 760.822 272.845 761.016 273.814 761.209L279.533 762.323C281.472 762.662 283.41 762.953 285.3 763.244L288.208 763.68L291.116 764.019C293.054 764.261 294.993 764.503 296.98 764.648C300.905 764.987 304.831 765.278 308.757 765.423C312.682 765.617 316.656 765.569 320.63 765.569C322.617 765.52 324.604 765.423 326.543 765.375L329.499 765.229L332.455 764.987C340.355 764.455 348.206 763.389 356.008 761.936C363.811 760.531 371.468 758.545 379.029 756.269C386.589 753.993 393.955 751.232 401.176 748.18C408.398 745.129 415.376 741.593 422.161 737.767C428.946 733.989 435.489 729.775 441.789 725.27L431.951 711.321Z" fill="#39619E"/>
<path d="M403.793 671.895C386.104 684.536 365.604 693.449 344.086 697.469C338.707 698.437 333.279 699.212 327.803 699.6L325.767 699.745L323.732 699.842C322.375 699.89 321.018 699.987 319.612 699.987C316.898 699.987 314.136 700.036 311.422 699.89C308.708 699.842 305.945 699.551 303.232 699.358C301.875 699.212 300.518 699.067 299.161 698.922L297.125 698.68L295.09 698.389L291.067 697.759L287.045 696.984C286.366 696.839 285.688 696.742 285.058 696.597L283.071 696.112C281.762 695.773 280.405 695.483 279.097 695.144C276.48 694.417 273.863 693.739 271.294 692.867C269.986 692.431 268.726 692.044 267.417 691.608L263.588 690.252L257.094 687.927L253.993 686.958L252.442 686.474L250.891 686.038L247.741 685.166L244.591 684.44L242.991 684.052L241.392 683.761C240.326 683.568 239.26 683.326 238.194 683.132C236.061 682.841 233.929 682.405 231.748 682.212C230.682 682.115 229.615 681.921 228.549 681.873L225.302 681.63C208.098 680.565 190.699 683.374 174.658 689.816L181.055 705.751C194.77 700.229 209.503 697.856 224.236 698.776L226.998 698.97C227.919 699.019 228.84 699.164 229.761 699.261C231.602 699.406 233.444 699.794 235.286 700.036C236.206 700.181 237.127 700.375 238.048 700.569L239.405 700.811L240.762 701.15L243.476 701.779L246.19 702.554L247.547 702.942L248.904 703.378L251.618 704.25L257.676 706.429L261.892 707.931C263.298 708.415 264.751 708.851 266.157 709.335C269.016 710.304 271.924 711.031 274.832 711.854C276.286 712.241 277.788 712.58 279.242 712.92L281.423 713.452C282.15 713.646 282.925 713.743 283.652 713.888L288.111 714.76C289.613 715.002 291.116 715.244 292.618 715.487L294.847 715.826L297.125 716.116C298.628 716.31 300.13 716.455 301.681 716.601C304.734 716.843 307.739 717.133 310.792 717.182C313.845 717.327 316.898 717.327 319.951 717.279C321.502 717.279 323.005 717.182 324.555 717.133L326.833 717.037L329.111 716.843C335.217 716.455 341.275 715.583 347.285 714.469C353.294 713.404 359.207 711.854 365.071 710.11C370.935 708.367 376.605 706.187 382.227 703.814C387.849 701.44 393.228 698.68 398.559 695.725C403.842 692.77 408.931 689.477 413.874 685.99L403.793 671.895Z" fill="#39619E"/>
<path d="M413.534 452.967L425.505 479.752L431.466 493.12L432.193 494.815C432.435 495.348 432.726 495.929 432.92 496.462L434.277 499.659C434.761 500.724 435.149 501.79 435.537 502.856C435.925 503.921 436.361 504.987 436.748 506.101C442.903 523.441 445.375 541.943 443.582 560.155C441.837 578.366 435.973 596.142 426.62 611.932C417.315 627.722 404.617 641.574 389.69 652.23L399.674 666.228C416.588 654.168 430.884 638.571 441.449 620.65C452.015 602.778 458.702 582.58 460.689 561.801L460.883 559.864L461.029 557.927C461.126 556.619 461.223 555.311 461.271 554.003L461.368 550.08C461.368 549.45 461.368 548.772 461.368 548.143L461.32 546.205C461.32 543.59 461.126 541.023 460.98 538.407C460.738 535.84 460.544 533.225 460.156 530.657C458.848 520.341 456.328 510.169 452.935 500.434C452.499 499.223 452.015 498.012 451.578 496.801C451.142 495.59 450.658 494.379 450.173 493.217L448.671 489.633C448.428 489.003 448.186 488.47 447.944 487.938L447.217 486.242L441.256 472.874L429.285 446.089L413.534 452.967Z" fill="#39619E"/>
<path d="M391.387 462.848L403.357 489.633L409.318 503.001L410.045 504.696C410.287 505.229 410.578 505.859 410.724 506.246L411.838 508.862C412.226 509.733 412.565 510.605 412.904 511.525C413.244 512.397 413.583 513.269 413.922 514.189C418.962 528.429 420.901 543.251 419.495 557.83C418.09 572.409 413.389 586.746 405.78 599.629C398.22 612.513 387.8 623.847 375.636 632.517L385.619 646.515C399.771 636.44 411.79 623.314 420.562 608.396C429.382 593.478 434.955 576.671 436.555 559.525C438.202 542.379 435.925 524.942 430.109 508.523C429.77 507.505 429.334 506.488 428.946 505.471C428.558 504.454 428.17 503.437 427.734 502.42L426.474 499.417C426.28 498.932 425.99 498.351 425.747 497.818L425.02 496.123L419.059 482.755L407.089 455.97L391.387 462.848Z" fill="#39619E"/>
<path d="M369.287 472.729L381.258 499.514L387.219 512.882L387.946 514.577C388.188 515.11 388.479 515.788 388.576 516.03L389.448 518.113C389.787 518.791 390.03 519.517 390.272 520.195C390.514 520.874 390.805 521.6 391.047 522.278C394.973 533.418 396.378 544.51 395.312 555.505C394.294 566.5 390.708 577.398 384.844 587.327C379.028 597.256 370.887 606.071 361.485 612.804L371.468 626.802C382.857 618.713 392.55 608.106 399.625 596.094C406.701 584.082 411.111 570.762 412.371 557.2C413.68 543.638 411.887 529.883 407.186 516.563C406.895 515.739 406.556 514.916 406.265 514.093C405.974 513.269 405.635 512.446 405.296 511.622L404.229 509.152C404.084 508.813 403.793 508.135 403.551 507.602L402.824 505.907L396.863 492.539L384.892 465.754L369.287 472.729Z" fill="#39619E"/>
<path d="M347.139 482.561L359.11 509.346L365.071 522.714L365.798 524.409C366.04 524.942 366.379 525.669 366.379 525.814C366.573 526.347 366.816 526.831 367.009 527.364C367.252 527.848 367.397 528.381 367.591 528.865C367.785 529.35 367.979 529.883 368.173 530.367C369.53 534.387 370.547 538.213 370.983 542.04C371.177 543.009 371.177 543.929 371.274 544.849C371.274 545.769 371.42 546.738 371.371 547.658V548.336C371.371 548.579 371.371 548.821 371.371 549.015C371.371 549.499 371.323 549.935 371.323 550.419C371.323 550.904 371.274 551.339 371.226 551.824L371.177 552.502L371.08 553.18C370.935 555.02 370.596 556.861 370.257 558.702C369.917 560.542 369.384 562.383 368.754 564.223C368.173 566.064 367.446 567.856 366.622 569.696C365.846 571.488 364.877 573.281 363.859 575.024C359.788 581.999 353.973 588.344 347.333 593.042L357.317 607.04C365.895 600.937 373.358 592.8 378.689 583.743C384.02 574.685 387.267 564.756 388.188 554.827C389.109 544.898 387.897 534.823 384.263 524.603C384.02 523.973 383.778 523.344 383.536 522.666C383.293 522.036 383.051 521.406 382.76 520.728L381.936 518.791C381.839 518.597 381.549 517.871 381.306 517.338L380.579 515.643L374.618 502.274L362.648 475.49L347.139 482.561Z" fill="#39619E"/>
<path d="M457.782 433.254L469.752 460.039L475.713 473.407L476.44 475.102C476.682 475.683 476.925 476.168 477.264 476.943L479.057 481.205C479.687 482.61 480.22 484.063 480.753 485.516C481.286 486.969 481.868 488.422 482.401 489.875C486.521 501.645 489.622 513.996 491.173 526.589C491.609 529.737 491.852 532.886 492.142 536.082C492.288 539.279 492.53 542.427 492.53 545.624L492.578 547.997C492.578 548.772 492.578 549.596 492.578 550.371L492.482 555.166C492.433 556.764 492.288 558.363 492.191 559.961L492.045 562.334L491.803 564.708C491.222 571.053 490.204 577.349 488.944 583.597C487.684 589.845 485.987 595.948 484 602.003C482.062 608.057 479.687 613.918 477.119 619.682C474.55 625.445 471.594 631.016 468.395 636.44C455.601 658.139 438.348 676.981 417.848 691.56L427.831 705.557C450.27 689.525 469.171 668.94 483.177 645.159C486.666 639.201 489.913 633.098 492.724 626.753C495.583 620.457 498.152 613.966 500.284 607.331C502.465 600.695 504.307 593.962 505.712 587.133C507.118 580.304 508.232 573.329 508.862 566.354L509.105 563.739L509.298 561.123C509.395 559.38 509.541 557.636 509.589 555.892L509.735 550.613C509.783 549.741 509.783 548.869 509.735 547.997L509.686 545.382C509.686 541.895 509.444 538.359 509.25 534.871C508.911 531.384 508.668 527.897 508.184 524.458C506.439 510.605 503.095 497.092 498.54 484.208C497.958 482.61 497.376 481.011 496.746 479.413C496.165 477.815 495.535 476.216 494.856 474.666L492.869 470.016C492.482 469.145 492.288 468.709 492.045 468.128L491.318 466.432L485.357 453.064L473.484 426.231L457.782 433.254Z" fill="#39619E"/>
<path d="M479.929 423.373L491.9 450.158L497.861 463.526L498.588 465.221C498.83 465.803 499.024 466.239 499.412 467.11L501.447 471.954C502.126 473.552 502.756 475.199 503.386 476.846C504.016 478.493 504.646 480.139 505.227 481.786C509.928 495.106 513.418 509.152 515.211 523.489C515.744 527.073 515.986 530.706 516.326 534.29C516.519 537.923 516.762 541.555 516.762 545.188L516.81 547.9C516.81 548.821 516.81 549.741 516.81 550.613L516.665 556.086C516.616 557.927 516.471 559.719 516.374 561.559L516.18 564.272L515.938 566.984C515.259 574.249 514.145 581.418 512.642 588.538C511.188 595.658 509.25 602.632 507.021 609.51C504.791 616.388 502.126 623.072 499.169 629.611C496.213 636.15 492.869 642.495 489.283 648.694C474.744 673.348 455.165 694.66 431.95 711.273L441.934 725.271C467.135 707.253 488.362 684.149 504.113 657.461C508.038 650.777 511.673 643.899 514.872 636.779C518.07 629.659 520.978 622.394 523.401 614.935C525.824 607.476 527.908 599.872 529.508 592.122C531.107 584.421 532.367 576.574 533.094 568.679L533.385 565.725L533.579 562.77C533.676 560.784 533.821 558.798 533.918 556.861L534.063 550.903C534.112 549.935 534.112 548.918 534.063 547.949L534.015 544.994C534.015 541.023 533.724 537.099 533.53 533.128C533.191 529.204 532.9 525.281 532.319 521.358C530.332 505.713 526.551 490.505 521.511 476.071C520.881 474.279 520.203 472.487 519.524 470.695C518.846 468.902 518.167 467.11 517.44 465.415L515.211 460.184C514.775 459.167 514.629 458.828 514.339 458.198L513.612 456.503L507.651 443.135L495.68 416.35L479.929 423.373Z" fill="#39619E"/>
<path d="M435.634 443.086L447.604 469.871L453.565 483.239L454.292 484.935C454.535 485.516 454.777 486 455.068 486.678L456.667 490.408C457.2 491.667 457.685 492.926 458.169 494.186C458.654 495.445 459.139 496.704 459.575 498.012C463.161 508.232 465.827 518.888 467.184 529.689C467.571 532.401 467.765 535.114 468.007 537.826C468.153 540.538 468.347 543.299 468.347 546.012L468.395 548.046C468.395 548.724 468.395 549.402 468.395 550.08L468.298 554.197C468.25 555.553 468.153 556.909 468.056 558.314L467.911 560.348L467.717 562.383C467.232 567.856 466.36 573.232 465.245 578.609C464.179 583.985 462.676 589.216 460.98 594.447C459.332 599.629 457.297 604.715 455.019 609.656C452.79 614.644 450.27 619.439 447.507 624.138C436.458 642.882 421.482 659.205 403.745 671.846L413.728 685.844C433.404 671.798 450.027 653.683 462.289 632.856C465.342 627.625 468.201 622.297 470.673 616.727C473.145 611.206 475.422 605.539 477.264 599.775C479.154 594.011 480.802 588.102 482.013 582.144C483.273 576.187 484.243 570.132 484.776 564.029L485.018 561.753L485.164 559.477C485.26 557.975 485.357 556.425 485.406 554.924L485.503 550.322C485.551 549.547 485.503 548.772 485.503 548.046L485.454 545.769C485.454 542.718 485.212 539.667 485.067 536.615C484.776 533.564 484.582 530.512 484.146 527.509C482.643 515.4 479.687 503.582 475.713 492.248C475.229 490.844 474.647 489.439 474.162 488.034C473.629 486.63 473.096 485.225 472.515 483.869L470.77 479.752C470.479 479.025 470.237 478.541 469.994 477.96L469.268 476.265L463.306 462.897L451.336 436.112L435.634 443.086Z" fill="#39619E"/>
<path d="M322.908 234.378L323.441 238.253L324.119 242.08C324.313 243.387 324.604 244.647 324.846 245.906C325.137 247.165 325.379 248.473 325.67 249.732C326.3 252.251 326.93 254.77 327.657 257.24L328.19 259.129C328.384 259.759 328.578 260.388 328.772 260.969L330.032 264.651L330.323 265.571L330.662 266.491L331.34 268.283L332.019 270.075C332.261 270.705 332.455 271.286 332.746 271.867C333.763 274.241 334.781 276.711 335.751 278.842L341.712 292.21L365.701 345.828L413.535 452.967L429.237 445.992L381.403 338.853L357.511 285.284L351.55 271.916C350.532 269.639 349.66 267.557 348.739 265.426C348.496 264.893 348.303 264.36 348.109 263.827L347.479 262.229L346.849 260.63L346.558 259.807L346.267 258.984L345.152 255.738C344.959 255.206 344.813 254.624 344.619 254.092L344.135 252.445C343.456 250.265 342.923 248.037 342.342 245.809C342.051 244.695 341.857 243.581 341.615 242.467C341.372 241.353 341.13 240.239 340.936 239.077L340.355 235.686L339.918 232.296L322.908 234.378Z" fill="#39619E"/>
<path d="M298.87 237.333L299.451 241.838L300.227 246.342C300.469 247.844 300.808 249.345 301.099 250.798C301.438 252.3 301.729 253.753 302.068 255.254C302.795 258.209 303.522 261.115 304.395 264.021L305.025 266.201L305.364 267.266L305.703 268.332L307.157 272.594L307.496 273.66L307.884 274.725L308.659 276.808L309.483 278.891C309.726 279.569 310.016 280.295 310.307 280.973L312.052 285.09L312.488 286.107L312.876 286.979L313.603 288.675L319.564 302.043L343.602 355.709L391.435 462.848L407.137 455.873L359.304 348.734L335.411 295.165L329.45 281.797C328.481 279.666 327.415 277.05 326.349 274.58C326.058 273.95 325.816 273.321 325.573 272.691L324.846 270.802L324.119 268.913L323.78 267.944L323.441 266.976L322.132 263.101L321.793 262.132L321.502 261.163L320.921 259.226C320.097 256.61 319.467 253.995 318.837 251.331C318.498 250.023 318.255 248.667 317.964 247.359C317.674 246.003 317.383 244.695 317.189 243.339L316.511 239.319L315.977 235.25L298.87 237.333Z" fill="#39619E"/>
<path d="M274.832 240.336C275.074 242.08 275.268 243.775 275.51 245.519L276.383 250.653C276.673 252.396 277.013 254.092 277.4 255.787C277.788 257.482 278.079 259.177 278.515 260.873C279.339 264.215 280.163 267.605 281.181 270.85L281.907 273.32L282.295 274.58L282.683 275.791L284.331 280.634L284.767 281.845L285.203 283.056L286.124 285.429L287.045 287.803C287.335 288.578 287.675 289.401 287.965 290.176L289.952 294.826L290.437 295.988L290.825 296.908L291.552 298.604L297.513 311.972L321.405 365.541L369.287 472.729L384.99 465.754L337.156 358.615L313.263 305.046L307.302 291.677L306.575 289.982L306.188 289.11L305.752 288.045L303.958 283.783C303.668 283.056 303.377 282.329 303.086 281.603L302.262 279.423L301.438 277.244L301.051 276.13L300.663 275.016L299.161 270.56L298.773 269.446L298.434 268.332L297.755 266.055C296.834 263.052 296.107 260.001 295.332 256.949C294.944 255.399 294.653 253.849 294.314 252.3C293.975 250.75 293.636 249.2 293.393 247.65L292.618 242.952C292.376 241.402 292.182 239.803 291.988 238.253L274.832 240.336Z" fill="#39619E"/>
<path d="M250.794 243.291C251.036 245.228 251.279 247.214 251.569 249.151L252.539 254.964C252.878 256.901 253.266 258.79 253.653 260.727C254.041 262.616 254.429 264.554 254.913 266.443C255.834 270.221 256.755 273.999 257.918 277.68L258.742 280.441L259.178 281.845L259.614 283.201L261.456 288.675L261.941 290.031L262.425 291.387L263.443 294.051L264.461 296.715C264.8 297.587 265.139 298.507 265.527 299.379L267.756 304.61L268.338 305.918L268.774 306.886L269.501 308.581L275.462 321.95L299.354 375.519L347.188 482.658L362.89 475.683L315.057 368.544L291.164 314.975L285.203 301.607L284.476 299.912L284.088 298.991L283.555 297.78L281.52 292.937C281.181 292.113 280.841 291.338 280.551 290.515L279.63 288.045L278.709 285.575L278.224 284.315L277.788 283.056L276.092 278.019L275.656 276.759L275.268 275.5L274.493 272.933C273.475 269.543 272.603 266.055 271.73 262.568C271.294 260.824 270.955 259.081 270.567 257.288C270.179 255.545 269.84 253.753 269.549 252.009L268.629 246.681C268.386 244.889 268.144 243.097 267.902 241.305L250.794 243.291Z" fill="#39619E"/>
<path d="M371.032 228.421L371.371 230.988L371.807 233.507C371.953 234.379 372.147 235.202 372.292 236.025C372.486 236.849 372.631 237.721 372.825 238.544C373.261 240.239 373.649 241.934 374.182 243.581L374.57 244.841L374.764 245.47L374.957 246.1L375.781 248.619L375.975 249.248L376.218 249.878L376.702 251.137L377.187 252.396C377.332 252.832 377.478 253.22 377.671 253.656L378.738 256.126L378.98 256.756L379.028 256.901L379.125 257.095L379.319 257.531L380.046 259.226L386.007 272.594L409.9 326.164L457.733 433.302L473.484 426.231L425.65 319.092L401.758 265.522L395.797 252.154L395.07 250.459L394.876 250.023L394.779 249.829L394.731 249.684L394.537 249.151L393.664 247.069C393.519 246.73 393.374 246.391 393.228 246.051L392.84 244.986L392.453 243.969L392.259 243.436L392.065 242.903L391.387 240.82L391.193 240.288L391.047 239.755L390.757 238.689C390.32 237.285 390.03 235.928 389.642 234.524C389.448 233.846 389.351 233.119 389.206 232.441C389.06 231.763 388.915 231.037 388.818 230.358C388.721 229.68 388.576 228.954 388.43 228.276L388.14 226.193L371.032 228.421Z" fill="#39619E"/>
<path d="M395.07 225.418L395.312 227.307C395.409 227.937 395.554 228.566 395.651 229.196C395.748 229.826 395.894 230.455 396.039 231.085C396.184 231.715 396.281 232.344 396.427 232.974C396.766 234.233 397.057 235.493 397.445 236.8L397.735 237.769L397.881 238.253L398.026 238.738C398.268 239.367 398.462 239.997 398.656 240.627L398.802 241.111L398.995 241.595L399.383 242.564L399.722 243.533C399.819 243.872 399.965 244.162 400.11 244.502L400.934 246.439L401.128 246.923L401.176 247.02L401.273 247.214L401.467 247.65L402.194 249.345L408.155 262.713L432.048 316.283L479.881 423.422L495.583 416.447L447.75 309.308L423.857 255.739L417.896 242.37L417.169 240.675L416.975 240.239L416.878 240.045L416.83 239.949L416.685 239.561C416.491 239.028 416.248 238.544 416.055 238.011C415.909 237.769 415.861 237.527 415.764 237.236L415.473 236.461L415.182 235.686L415.037 235.299L414.94 234.911C414.794 234.427 414.601 233.894 414.455 233.41L414.31 233.022L414.213 232.635L414.019 231.908C413.68 230.94 413.486 229.971 413.244 229.002C413.098 228.518 413.05 228.033 412.953 227.549C412.856 227.065 412.711 226.58 412.662 226.096C412.565 225.612 412.517 225.127 412.42 224.643C412.371 224.159 412.323 223.674 412.226 223.238L395.07 225.418Z" fill="#39619E"/>
<path d="M346.945 231.376L347.382 234.572L347.915 237.769C348.06 238.835 348.302 239.9 348.545 240.966C348.787 242.031 348.981 243.097 349.223 244.114C349.756 246.197 350.241 248.328 350.919 250.411L351.356 251.961L351.598 252.736L351.84 253.511L352.858 256.61L353.1 257.385L353.391 258.16L353.973 259.71L354.554 261.26C354.748 261.793 354.942 262.277 355.184 262.762C356.057 264.796 356.832 266.685 357.898 269.01L363.859 282.378L387.752 335.947L435.585 443.086L451.287 436.112L403.454 328.973L379.561 275.403L373.649 262.035L372.922 260.34L372.728 259.904L372.631 259.71L372.583 259.565L372.292 258.887L371.177 256.271C370.983 255.835 370.79 255.4 370.644 254.964L370.16 253.656L369.675 252.348L369.433 251.67L369.19 250.992L368.269 248.328L368.027 247.65L367.833 246.972L367.446 245.616C366.864 243.823 366.476 242.031 365.992 240.191C365.749 239.271 365.604 238.399 365.41 237.478C365.216 236.558 365.022 235.686 364.877 234.766L364.392 232.054L364.053 229.293L346.945 231.376Z" fill="#39619E"/>
<path d="M472.127 72.7498C461.707 72.2654 451.239 73.0404 441.013 74.8809L437.185 75.6075C435.925 75.8981 434.665 76.1887 433.356 76.4793C432.726 76.6246 432.096 76.7699 431.466 76.9152L429.576 77.448L427.686 77.9808L426.765 78.223L425.844 78.5136L422.112 79.676C420.901 80.1119 419.641 80.5479 418.429 80.9838C417.799 81.226 417.218 81.4197 416.588 81.6619L414.795 82.3884C413.583 82.8728 412.371 83.3087 411.16 83.8415C392.017 91.9786 374.715 104.281 360.661 119.49C346.558 134.699 335.702 152.91 329.111 172.672C328.239 175.142 327.56 177.661 326.833 180.131C326.203 182.65 325.525 185.168 324.992 187.735C324.41 190.254 324.022 192.869 323.538 195.388C323.198 197.955 322.762 200.522 322.568 203.138C322.278 205.705 322.181 208.32 321.987 210.936C321.938 213.551 321.793 216.118 321.89 218.734L321.938 220.671V221.64L321.987 222.609L322.181 226.532C322.278 227.84 322.423 229.147 322.52 230.407L322.714 232.344C322.762 232.974 322.859 233.652 322.956 234.282L340.015 232.15C339.967 231.569 339.87 231.036 339.821 230.455L339.676 228.76C339.579 227.598 339.434 226.484 339.385 225.321L339.191 221.882L339.143 221.01V220.139V218.443C339.046 216.167 339.191 213.89 339.24 211.614C339.385 209.337 339.482 207.061 339.773 204.784C339.967 202.508 340.306 200.232 340.645 198.004C341.033 195.776 341.372 193.499 341.905 191.271C342.341 189.043 342.972 186.815 343.505 184.587C344.135 182.407 344.765 180.179 345.492 178.048C351.259 160.66 360.903 144.579 373.358 131.114C385.813 117.601 401.128 106.751 417.993 99.5829C419.011 99.0986 420.125 98.7111 421.192 98.2752L422.791 97.6455C423.324 97.4518 423.857 97.258 424.39 97.0643C425.456 96.6768 426.523 96.2893 427.637 95.9503L430.933 94.9332L431.757 94.691L432.581 94.4488L434.228 94.0129L435.876 93.577C436.409 93.4317 436.991 93.3348 437.524 93.1895C438.639 92.9473 439.753 92.6567 440.868 92.4145L444.212 91.7849C453.226 90.1381 462.386 89.5084 471.497 89.8959L472.127 72.7498Z" fill="#39619E"/>
<path d="M473.145 48.5806C460.932 48.0478 448.671 48.9196 436.652 51.0992L432.145 51.9711C430.642 52.3101 429.188 52.6491 427.686 52.9882C426.959 53.1819 426.184 53.3272 425.457 53.521L423.227 54.1022L420.998 54.6834L419.883 54.974L418.769 55.3131L414.407 56.6693C412.953 57.1536 411.547 57.6864 410.094 58.1708C409.367 58.413 408.64 58.6551 407.961 58.9457L405.829 59.7691C404.423 60.3504 402.969 60.8832 401.612 61.4644C379.222 70.9577 359.11 85.2946 342.778 102.973C326.397 120.652 313.748 141.819 306.042 164.922C305.025 167.78 304.249 170.734 303.377 173.641C302.601 176.595 301.826 179.55 301.244 182.553C300.566 185.507 300.081 188.559 299.548 191.562C299.112 194.565 298.676 197.616 298.385 200.668C298.046 203.719 297.901 206.77 297.707 209.822C297.61 212.873 297.513 215.925 297.61 218.976L297.658 221.253V222.415L297.707 223.577L297.949 228.13C298.046 229.632 298.191 231.182 298.337 232.683L298.531 234.96C298.627 235.735 298.724 236.461 298.821 237.236L315.88 235.105C315.784 234.427 315.687 233.749 315.638 233.071L315.444 231.036C315.347 229.68 315.153 228.324 315.105 226.968L314.911 222.851L314.863 221.834V220.817L314.814 218.782C314.717 216.07 314.863 213.309 314.911 210.597C315.105 207.884 315.202 205.124 315.541 202.411C315.784 199.699 316.171 196.986 316.559 194.274C317.044 191.562 317.48 188.898 318.061 186.234C318.594 183.57 319.321 180.906 320 178.29C320.775 175.675 321.502 173.059 322.375 170.444C329.256 149.714 340.694 130.63 355.427 114.695C370.16 98.7596 388.285 85.8758 408.349 77.3027C409.609 76.7215 410.869 76.2856 412.129 75.7528L414.019 75.0263C414.649 74.7841 415.279 74.5419 415.958 74.3482C417.266 73.9123 418.526 73.4279 419.835 72.992L423.76 71.7811L424.73 71.4905L425.699 71.1999L427.686 70.6671L429.673 70.1343C430.351 69.9406 430.981 69.7953 431.66 69.65C432.968 69.3593 434.325 69.0203 435.682 68.7297L439.705 67.9547C450.464 66.0173 461.465 65.1939 472.369 65.7267L473.145 48.5806Z" fill="#39619E"/>
<path d="M474.162 24.4113C460.205 23.7817 446.054 24.7988 432.29 27.3174L427.104 28.3346C425.408 28.7221 423.712 29.1096 421.967 29.497C421.095 29.6908 420.271 29.8845 419.399 30.1267L416.878 30.8048L414.358 31.4829L413.098 31.8219L411.838 32.2094L406.847 33.7593C405.199 34.2921 403.551 34.9218 401.903 35.503C401.079 35.7936 400.255 36.0842 399.432 36.3749L397.008 37.3436C395.409 37.9732 393.761 38.6029 392.162 39.3294C366.525 50.2274 343.65 66.5501 324.992 86.6992C306.333 106.848 291.891 131.018 283.071 157.463C281.956 160.757 280.987 164.099 280.017 167.489C279.145 170.88 278.273 174.27 277.546 177.661C276.77 181.051 276.189 184.539 275.607 187.977C275.123 191.465 274.59 194.904 274.299 198.391C273.911 201.878 273.717 205.366 273.523 208.902C273.426 212.389 273.281 215.925 273.378 219.412L273.426 222.027L273.475 223.335L273.523 224.643L273.814 229.874C273.911 231.618 274.105 233.361 274.25 235.105L274.493 237.721C274.59 238.592 274.686 239.464 274.832 240.336L291.891 238.205C291.794 237.43 291.697 236.655 291.6 235.832L291.358 233.458C291.213 231.86 291.067 230.31 290.97 228.712L290.728 223.965L290.679 222.754V221.543L290.631 219.17C290.534 215.973 290.679 212.776 290.776 209.628C290.97 206.431 291.116 203.283 291.503 200.086C291.794 196.89 292.279 193.741 292.715 190.593C293.248 187.445 293.781 184.296 294.46 181.197C295.09 178.097 295.913 174.997 296.689 171.945C297.561 168.894 298.434 165.843 299.451 162.84C307.448 138.767 320.678 116.729 337.689 98.3236C354.7 79.9182 375.588 65.0001 398.947 55.0709C400.401 54.4412 401.903 53.86 403.357 53.2788L405.587 52.4069C406.313 52.1163 407.089 51.8742 407.816 51.5835C409.318 51.0508 410.821 50.518 412.323 50.0336L416.878 48.629L417.993 48.2899L419.156 47.9509L421.434 47.3212L423.76 46.6916C424.536 46.4978 425.311 46.3041 426.087 46.1104C427.637 45.7713 429.188 45.3838 430.739 45.0448L435.44 44.1245C447.992 41.848 460.786 40.9278 473.532 41.509L474.162 24.4113Z" fill="#39619E"/>
<path d="M475.18 0.193704C459.429 -0.484391 443.485 0.629622 427.88 3.43887L422.064 4.60132C420.125 5.03724 418.187 5.47316 416.297 5.90907C415.328 6.15125 414.358 6.34499 413.437 6.58717L410.578 7.36213L407.719 8.1371L406.313 8.52458L404.908 8.9605L399.286 10.7526C397.396 11.3823 395.554 12.0604 393.713 12.69C392.792 13.0291 391.871 13.3197 390.95 13.7072L388.188 14.7727C386.346 15.4993 384.505 16.1774 382.76 17.0008C353.876 29.2549 328.19 47.6119 307.254 70.2312C302.02 75.8981 297.077 81.8072 292.472 88.007L290.728 90.3319C290.146 91.1068 289.565 91.8818 289.032 92.7052L285.736 97.5003C283.604 100.745 281.52 103.991 279.533 107.333C277.546 110.626 275.656 114.065 273.814 117.504C272.069 120.991 270.276 124.43 268.677 128.015C267.029 131.55 265.527 135.183 264.073 138.767C262.667 142.448 261.262 146.081 260.099 149.81C258.839 153.54 257.773 157.318 256.658 161.096C255.64 164.922 254.671 168.7 253.896 172.575C253.023 176.401 252.393 180.325 251.715 184.2C251.133 188.123 250.6 192.046 250.212 195.969C249.776 199.893 249.582 203.864 249.34 207.836C249.243 211.808 249.098 215.731 249.195 219.703L249.243 222.657L249.291 224.159L249.34 225.66L249.679 231.569C249.776 233.555 250.018 235.493 250.164 237.478L250.455 240.433C250.552 241.402 250.697 242.37 250.794 243.339L267.853 241.208C267.756 240.288 267.611 239.416 267.514 238.496L267.271 235.783C267.126 233.991 266.932 232.151 266.835 230.358L266.544 224.934L266.496 223.577L266.448 222.221L266.399 219.509C266.302 215.876 266.448 212.244 266.544 208.611C266.738 204.978 266.932 201.346 267.368 197.713C267.708 194.08 268.241 190.496 268.725 186.912C269.355 183.328 269.937 179.743 270.712 176.208C271.439 172.672 272.36 169.136 273.281 165.649C274.299 162.161 275.268 158.674 276.431 155.284C285.542 127.869 300.566 102.877 319.854 82.001C339.143 61.1254 362.842 44.2214 389.448 32.936C391.096 32.2095 392.792 31.5798 394.44 30.9017L396.96 29.933C397.784 29.594 398.656 29.3033 399.528 29.0127C401.225 28.4315 402.921 27.8018 404.666 27.2206L409.851 25.5738L411.16 25.1863L412.42 24.702L415.037 23.9755L417.654 23.2489C418.526 23.0067 419.399 22.813 420.319 22.6193C422.112 22.1833 423.857 21.7959 425.65 21.4084L431.03 20.3428C445.327 17.7273 460.011 16.7102 474.502 17.3398L475.18 0.193704Z" fill="#39619E"/>
<path d="M470.043 121.137C456.376 120.555 442.758 123.026 430.061 128.45C417.363 133.827 405.683 142.109 396.184 152.426C386.637 162.743 379.368 174.997 375.006 188.026C370.644 201.055 369.287 214.859 370.983 228.421L388.043 226.29C386.686 215.198 387.752 204.106 391.338 193.451C394.876 182.795 400.934 172.623 408.833 164.05C416.733 155.477 426.426 148.648 436.797 144.24C447.217 139.833 458.218 137.798 469.316 138.283L470.043 121.137Z" fill="#39619E"/>
<path d="M469.025 145.354C458.945 144.918 449.01 146.711 439.559 150.731C430.109 154.751 421.24 160.999 414.019 168.846C406.75 176.692 401.273 185.992 398.026 195.679C394.779 205.414 393.81 215.392 395.021 225.466L412.081 223.335C412.032 223.093 411.984 222.851 411.984 222.609L411.935 221.882C411.887 221.398 411.838 220.962 411.79 220.478C411.79 219.993 411.741 219.557 411.741 219.073L411.693 218.734V218.395V217.717C411.644 216.796 411.741 215.876 411.693 214.908C411.79 213.987 411.79 213.067 411.935 212.147C411.984 211.226 412.177 210.306 412.274 209.386C412.468 208.466 412.565 207.545 412.807 206.625C412.953 205.705 413.244 204.785 413.437 203.864C413.728 202.944 413.922 202.024 414.31 201.103C416.733 193.79 420.998 186.573 426.62 180.518C432.241 174.416 439.123 169.572 446.296 166.569C446.732 166.327 447.217 166.23 447.653 166.036L448.331 165.746C448.574 165.649 448.767 165.6 449.01 165.503L450.367 165.019C450.803 164.874 451.288 164.728 451.724 164.583L452.063 164.486L452.402 164.389L453.081 164.196L453.759 164.002C454.002 163.954 454.195 163.905 454.438 163.857L455.795 163.518C456.279 163.421 456.715 163.372 457.152 163.275C460.835 162.597 464.518 162.355 468.298 162.5L469.025 145.354Z" fill="#39619E"/>
<path d="M471.109 96.9675C453.856 96.1926 436.555 99.3893 420.61 106.17C404.714 112.903 390.223 123.219 378.398 136.006C366.573 148.745 357.511 164.002 352.034 180.422C346.558 196.793 344.813 214.326 346.946 231.424L364.005 229.293C362.163 214.665 363.665 199.844 368.366 185.798C373.019 171.8 380.87 158.626 391.047 147.631C401.225 136.588 413.728 127.724 427.347 121.96C440.965 116.148 455.698 113.484 470.382 114.114L471.109 96.9675Z" fill="#39619E"/>
<path d="M695.883 150.343L586.258 108.398L531.446 87.4257L524.613 84.8102L521.172 83.5025C520.009 83.0666 518.942 82.6306 517.682 82.1947L514.048 80.887L513.127 80.5479L512.206 80.2573L510.364 79.6761L508.523 79.0949C507.893 78.9011 507.311 78.7074 506.681 78.5621L502.95 77.5449C497.909 76.2372 492.869 75.1232 487.684 74.3966C485.115 73.9607 482.546 73.7185 479.929 73.4279C478.621 73.3311 477.312 73.2342 476.052 73.1373L474.114 72.992L472.175 72.8951L471.448 90.0412L473.144 90.0897L474.841 90.235C476.004 90.3319 477.118 90.3803 478.282 90.5256C480.559 90.8162 482.837 91.01 485.115 91.3974C489.671 92.0271 494.129 93.0442 498.588 94.2067L501.932 95.127C502.465 95.2723 503.046 95.4176 503.58 95.6113L505.227 96.1441L506.875 96.6769L507.699 96.9191L508.523 97.2097L511.77 98.3721C512.836 98.7596 513.999 99.1955 515.162 99.6314L518.603 100.939L525.437 103.555L580.103 124.43L689.728 166.375L695.883 150.343Z" fill="#39619E"/>
<path d="M704.509 127.724L594.885 85.7789L540.073 64.8064L533.239 62.1909L529.798 60.8831L528.102 60.205L527.23 59.866L526.164 59.4785L521.947 57.977L520.881 57.5895L519.815 57.2505L517.682 56.5724L515.55 55.8943C514.823 55.6521 514.145 55.4584 513.369 55.2646L509.007 54.0538C503.192 52.5523 497.279 51.2445 491.27 50.3727C488.265 49.8883 485.26 49.5493 482.207 49.2102C480.705 49.0649 479.154 48.968 477.652 48.8227L475.374 48.6774L473.096 48.5806L472.369 65.7267L474.405 65.8235L476.44 65.9688C477.797 66.0657 479.154 66.1626 480.511 66.3079C483.225 66.6469 485.939 66.8891 488.653 67.325C494.032 68.1 499.363 69.3109 504.646 70.6186L508.571 71.6842C509.25 71.878 509.88 72.0717 510.51 72.2654L512.448 72.8951L514.387 73.5248L515.356 73.8154L516.325 74.1544L520.154 75.5106L521.123 75.8497L521.996 76.1887L523.692 76.8668L527.133 78.1745L533.966 80.7901L588.778 101.763L698.403 143.708L704.509 127.724Z" fill="#39619E"/>
<path d="M713.184 105.105L603.56 63.1596L548.748 42.1871L541.914 39.5716L538.473 38.2639L536.777 37.5858L535.856 37.2467L534.645 36.8108L529.895 35.0671L528.684 34.6312L527.472 34.2437L525.049 33.4688L522.626 32.6938L521.414 32.3063L520.203 31.9673L515.259 30.6111C508.62 28.9158 501.883 27.4143 495.002 26.3972C491.561 25.816 488.12 25.4769 484.63 25.0894C482.886 24.9441 481.141 24.7988 479.396 24.6535L476.779 24.4598L474.162 24.3629L473.435 41.509L475.81 41.6059L478.185 41.7996C479.784 41.9449 481.335 42.0418 482.934 42.1871C486.084 42.5746 489.234 42.8652 492.336 43.398C498.588 44.3183 504.743 45.6745 510.801 47.2244L515.308 48.4837L516.422 48.8228L517.537 49.1618L519.766 49.8883L521.996 50.6149L523.11 50.9539L524.225 51.3414L528.587 52.9398L529.701 53.3272L530.574 53.6663L532.27 54.3444L535.711 55.6521L542.544 58.2677L597.356 79.2402L707.078 121.137L713.184 105.105Z" fill="#39619E"/>
<path d="M721.859 82.5338L612.235 40.5888L557.423 19.6163L550.589 17.0008L547.148 15.693L545.452 15.0149L544.531 14.6759L543.223 14.1915L537.892 12.2541L536.535 11.7697L535.178 11.3338L532.464 10.462L529.75 9.59015L528.393 9.15423L526.987 8.76675L521.414 7.21682C513.951 5.27941 506.39 3.63261 498.636 2.47016C494.808 1.8405 490.882 1.40458 487.005 0.968664C485.066 0.774923 483.079 0.629617 481.141 0.484311L478.185 0.29057L475.228 0.145264L474.501 17.2914L477.215 17.3882L479.929 17.582C481.723 17.7273 483.564 17.8726 485.357 18.0179C488.944 18.4054 492.53 18.7929 496.068 19.3741C503.192 20.4397 510.171 21.9412 517.052 23.7333L522.19 25.1379L523.45 25.4769L524.71 25.8644L527.23 26.6394L529.75 27.4628L531.01 27.8503L532.27 28.2862L537.213 30.0783L538.425 30.5142L539.346 30.8533L541.042 31.5314L544.483 32.8391L551.316 35.4546L606.128 56.4271L715.753 98.3721L721.859 82.5338Z" fill="#39619E"/>
<path d="M678.533 195.582L568.908 153.637L514.096 132.664L507.263 130.049L503.822 128.741L502.126 128.063L501.302 127.772L500.672 127.53L498.152 126.61L497.522 126.368L496.892 126.174L495.631 125.787L494.371 125.399L493.741 125.205L493.111 125.012L490.543 124.285C487.15 123.413 483.758 122.638 480.317 122.154C478.621 121.863 476.876 121.718 475.18 121.476L472.611 121.282L471.351 121.185L470.091 121.137L469.364 138.283L470.43 138.331L471.497 138.428L473.581 138.573C474.986 138.767 476.391 138.864 477.797 139.106C480.608 139.494 483.419 140.123 486.23 140.85L488.362 141.431L488.895 141.576L489.428 141.77L490.494 142.109L491.561 142.448L492.094 142.594L492.627 142.787L494.759 143.562L495.292 143.756L496.116 144.047L497.812 144.725L501.253 146.032L508.087 148.648L562.899 169.62L672.523 211.565L678.533 195.582Z" fill="#39619E"/>
<path d="M669.858 218.201L560.233 176.256L505.421 155.284L498.588 152.668L495.147 151.36L493.451 150.682L492.675 150.392L492.191 150.198L490.252 149.471L489.767 149.278L489.283 149.132L488.314 148.842L487.344 148.503L486.86 148.357L486.375 148.212C485.745 148.018 485.066 147.873 484.436 147.679C481.868 147.05 479.299 146.42 476.731 146.081C475.471 145.839 474.162 145.742 472.902 145.597L471.012 145.451L470.043 145.354L469.074 145.306L468.347 162.452H469.074L469.8 162.5C470.285 162.549 470.77 162.549 471.254 162.597C472.224 162.743 473.193 162.791 474.162 162.985C476.101 163.227 478.088 163.711 480.123 164.196C480.608 164.341 481.141 164.486 481.626 164.632L482.013 164.728L482.401 164.874L483.176 165.116L483.952 165.358L484.34 165.455L484.727 165.6C485.26 165.794 485.745 165.988 486.278 166.182L486.666 166.327L487.441 166.617L489.137 167.296L492.578 168.603L499.412 171.219L554.224 192.191L663.848 234.136L669.858 218.201Z" fill="#39619E"/>
<path d="M687.208 172.963L577.583 131.018L522.771 110.045L515.938 107.43L512.497 106.122L510.801 105.444L509.977 105.105L509.201 104.814L506.1 103.7L505.324 103.409L504.549 103.167L502.998 102.683L501.447 102.199C500.914 102.005 500.429 101.859 499.896 101.714L496.746 100.842C492.53 99.7767 488.314 98.808 484 98.1784C481.868 97.7909 479.736 97.5972 477.555 97.355L474.308 97.1128L472.708 96.9675L471.109 96.9191L470.382 114.065L471.739 114.114L473.096 114.21L475.858 114.404C477.7 114.646 479.542 114.792 481.383 115.131C485.067 115.664 488.701 116.487 492.336 117.407L495.05 118.182C495.486 118.279 495.971 118.424 496.407 118.57L497.764 119.006L499.121 119.441L499.799 119.635L500.478 119.877L503.143 120.846L503.822 121.088L504.646 121.379L506.342 122.057L509.783 123.365L516.616 125.98L571.428 146.953L681.053 188.898L687.208 172.963Z" fill="#39619E"/>
<path d="M655.319 480.043L655.27 478.299L655.319 476.555V475.683L655.367 474.812L655.464 473.068L655.658 471.324L655.755 470.452L655.9 469.581L656.143 467.837L656.482 466.142C656.53 465.851 656.579 465.56 656.676 465.27L656.87 464.446L657.306 462.751C657.645 461.637 657.936 460.523 658.324 459.409C659.051 457.181 659.971 455.05 660.892 452.919C661.425 451.902 661.91 450.836 662.491 449.819L663.364 448.317L664.285 446.816L664.721 446.089L665.205 445.363L666.175 443.91L667.241 442.505C667.58 442.021 667.919 441.585 668.307 441.149L669.422 439.793C669.809 439.357 670.197 438.921 670.585 438.485C671.36 437.613 672.184 436.79 673.008 435.966L678.048 431.123L803.181 311.488L788.884 301.461L665.06 419.837C662.976 421.823 660.892 423.809 658.905 425.843C657.936 426.861 656.918 427.878 655.949 428.992C655.464 429.525 654.98 430.057 654.543 430.59L653.186 432.285C652.944 432.576 652.75 432.818 652.508 433.109L651.878 433.981L650.618 435.724L649.455 437.516L648.873 438.388L648.34 439.308L647.225 441.149L646.208 443.038C645.481 444.297 644.899 445.605 644.269 446.864C643.106 449.48 641.991 452.095 641.168 454.856C640.683 456.212 640.344 457.617 639.956 458.973L639.471 461.056L639.229 462.121C639.132 462.461 639.084 462.8 639.035 463.187L638.647 465.27L638.308 467.401L638.163 468.467L638.066 469.532L637.824 471.663L637.678 473.794L637.63 474.86V475.926L637.581 478.057L637.63 480.188L655.319 480.043Z" fill="#39619E"/>
<path d="M606.274 480.575L606.225 477.718L606.274 474.86L606.322 473.455L606.419 472.051L606.613 469.193L606.904 466.384L607.049 464.979L607.243 463.575L607.679 460.765L608.212 457.956L608.503 456.551L608.794 455.147C608.988 454.227 609.23 453.306 609.424 452.386C609.909 450.545 610.393 448.705 610.975 446.913C612.041 443.28 613.446 439.744 614.9 436.209C615.676 434.465 616.451 432.721 617.323 431.026L618.632 428.507L620.037 426.037L620.764 424.778L621.491 423.567L622.994 421.145L624.593 418.772C625.126 417.997 625.659 417.174 626.241 416.447C630.699 410.247 635.933 404.629 641.507 399.252L762.763 283.153L748.417 273.078L628.373 387.87C621.976 394.021 616.16 400.56 611.217 407.68C610.587 408.552 609.957 409.472 609.375 410.393L607.582 413.105L605.886 415.914L605.062 417.319L604.287 418.723L602.736 421.581L601.282 424.487C600.313 426.425 599.489 428.411 598.568 430.396C596.92 434.368 595.418 438.437 594.206 442.554C593.576 444.588 593.043 446.719 592.51 448.802C592.268 449.867 592.026 450.885 591.783 451.95L591.444 453.548L591.153 455.147L590.572 458.344L590.087 461.54L589.845 463.139L589.651 464.737L589.312 467.934L589.118 471.179L589.021 472.777L588.972 474.376L588.924 477.621L588.972 480.866L606.274 480.575Z" fill="#39619E"/>
<path d="M582.042 480.866L581.994 477.475L582.042 474.085L582.09 472.39L582.187 470.695L582.43 467.304L582.769 463.914L582.963 462.218L583.205 460.523L583.69 457.181L584.271 453.839C584.465 452.725 584.707 451.611 584.95 450.497C585.192 449.383 585.434 448.269 585.677 447.203C586.258 445.024 586.791 442.796 587.47 440.665C588.73 436.305 590.329 432.092 592.025 427.878C592.946 425.795 593.819 423.712 594.836 421.678C595.321 420.661 595.854 419.644 596.339 418.627L597.938 415.624L598.762 414.122L599.634 412.669L601.379 409.714L603.221 406.857C603.851 405.888 604.481 404.968 605.111 404.048C610.296 396.54 616.354 389.662 623.091 383.172L742.553 268.961L728.208 258.887L610.054 371.886C602.542 379.103 595.951 386.95 590.184 395.329C589.457 396.395 588.778 397.412 588.1 398.526L586.064 401.771L584.126 405.065L583.157 406.711L582.236 408.407L580.491 411.749C579.91 412.863 579.376 414.025 578.843 415.139C577.729 417.416 576.759 419.741 575.742 422.065C573.852 426.764 572.107 431.51 570.75 436.354C570.023 438.776 569.393 441.197 568.811 443.668C568.521 444.879 568.278 446.138 567.988 447.349C567.697 448.56 567.454 449.819 567.261 451.03L566.582 454.759C566.388 456.019 566.194 457.23 566.049 458.489L565.807 460.378L565.613 462.267L565.225 466.045L564.983 469.823L564.886 471.712L564.837 473.601L564.74 477.379L564.789 481.157L582.042 480.866Z" fill="#39619E"/>
<path d="M630.457 480.285L630.409 477.96L630.457 475.635V474.472L630.506 473.31L630.651 471.034L630.893 468.757L631.039 467.595L631.184 466.432L631.523 464.156L631.959 461.879C632.056 461.492 632.105 461.104 632.202 460.765L632.444 459.651L632.977 457.423C633.413 455.97 633.753 454.469 634.286 453.016C635.206 450.061 636.37 447.252 637.581 444.443C638.26 443.086 638.89 441.633 639.617 440.326L640.683 438.291L641.846 436.305L642.428 435.337L643.058 434.368L644.318 432.431L645.675 430.542L646.353 429.621C646.595 429.331 646.838 428.992 647.08 428.701L648.485 426.861C648.97 426.279 649.503 425.698 649.988 425.117C650.957 423.954 652.072 422.84 653.09 421.726C655.222 419.498 657.451 417.367 659.681 415.188L782.972 297.344L768.627 287.27L646.692 403.854C641.41 408.939 636.418 414.17 632.202 419.983C631.669 420.709 631.136 421.436 630.651 422.162L629.149 424.39L627.695 426.667L626.968 427.829L626.289 428.992L624.981 431.317L623.721 433.69C622.897 435.288 622.17 436.935 621.394 438.533C619.989 441.827 618.68 445.169 617.663 448.608C617.081 450.303 616.693 452.047 616.209 453.791C616.015 454.662 615.821 455.534 615.579 456.406L615.288 457.714L615.046 459.022L614.561 461.686L614.173 464.35L613.979 465.657L613.834 467.013L613.543 469.677L613.349 472.341L613.253 473.698L613.204 475.054L613.156 477.718L613.204 480.382L630.457 480.285Z" fill="#39619E"/>
<path d="M788.642 662.934L714.687 571.828L677.709 526.298L669.325 515.982L667.241 513.415C666.902 512.979 666.562 512.543 666.272 512.107L665.302 510.751C664.721 509.83 664.091 508.91 663.558 507.99C663.025 507.021 662.443 506.101 661.958 505.132C657.887 497.382 655.61 488.713 655.319 479.994L637.533 480.188C637.872 490.941 640.586 501.596 645.481 511.138C646.062 512.349 646.741 513.511 647.419 514.674C648.098 515.836 648.825 516.95 649.552 518.113L650.666 519.76L651.248 520.583C651.442 520.874 651.636 521.116 651.878 521.406L654.35 524.603C655.997 526.734 657.742 528.817 659.438 530.9L664.43 537.051L701.408 582.58L775.315 673.736L788.642 662.934Z" fill="#39619E"/>
<path d="M751.034 693.449L677.079 602.342L640.101 556.813L633.753 549.015C632.589 547.61 631.426 546.205 630.312 544.752C629.148 543.348 628.082 541.895 627.016 540.442C625.95 538.988 624.932 537.535 623.914 536.034C623.381 535.307 622.897 534.532 622.461 533.757L621.055 531.481C620.134 529.931 619.262 528.381 618.438 526.783C617.614 525.184 616.79 523.586 616.063 521.988C610.005 509.007 606.661 494.815 606.322 480.575L589.166 480.769C589.36 488.858 590.378 496.947 592.171 504.842C593.964 512.737 596.581 520.486 599.925 527.897C600.749 529.786 601.67 531.578 602.591 533.418C603.511 535.211 604.529 537.003 605.498 538.795L607.049 541.41C607.582 542.282 608.115 543.154 608.697 544.026L610.393 546.593L611.265 547.852L612.186 549.111C613.398 550.758 614.609 552.453 615.918 554.1C617.227 555.747 618.535 557.345 619.844 558.944L626.919 567.662L663.897 613.191L737.707 704.25L751.034 693.449Z" fill="#39619E"/>
<path d="M732.23 708.706L658.275 617.599L621.297 572.07L613.931 562.964C612.574 561.269 611.169 559.574 609.812 557.878C608.455 556.183 607.195 554.391 605.935 552.647L605.014 551.34L604.093 549.983L602.3 547.319C601.718 546.448 601.137 545.527 600.604 544.607L598.956 541.846C597.938 539.957 596.872 538.068 595.903 536.179C594.982 534.242 594.012 532.353 593.14 530.367C589.699 522.569 586.937 514.432 585.095 506.149C583.254 497.867 582.187 489.391 581.994 480.866L564.837 481.06C565.031 490.505 566.194 499.95 568.181 509.201C570.168 518.452 573.173 527.509 576.953 536.276C577.874 538.456 578.94 540.635 579.958 542.767C581.024 544.898 582.139 547.029 583.302 549.112C585.628 553.277 588.148 557.346 590.911 561.317C592.316 563.303 593.673 565.289 595.224 567.178C596.726 569.115 598.277 570.956 599.828 572.893L607.97 582.871L644.948 628.4L718.903 719.507L732.23 708.706Z" fill="#39619E"/>
<path d="M769.838 678.192L695.883 587.085L658.905 541.556L653.623 535.017C651.781 532.74 649.939 530.512 648.195 528.187C647.322 527.025 646.45 525.863 645.578 524.749C645.384 524.458 645.142 524.167 644.948 523.877L644.366 522.956L643.154 521.164C642.379 519.953 641.652 518.694 640.925 517.435C640.247 516.176 639.52 514.916 638.89 513.608C633.753 503.243 630.893 491.813 630.554 480.285L613.398 480.479C613.737 493.944 616.936 507.312 622.751 519.518C623.43 521.067 624.254 522.521 625.029 524.07C625.853 525.572 626.677 527.025 627.549 528.478L628.906 530.609L629.585 531.675C629.827 532.014 630.069 532.353 630.312 532.74C631.281 534.145 632.25 535.501 633.268 536.857C634.286 538.214 635.303 539.57 636.37 540.926L639.617 544.946L645.675 552.357L682.652 597.886L756.511 688.993L769.838 678.192Z" fill="#39619E"/>
</svg>
