<svg width="1440" height="397" viewBox="0 0 1440 397" fill="none" xmlns="http://www.w3.org/2000/svg">
<path d="M-10 90C82 43 265.101 8 382 8C538 8 672 53 866 154C1064.35 257.263 1126 264.5 1194 276C1258.36 286.885 1378 278 1456 253" stroke="#39619E" stroke-width="16"/>
<path d="M-10 115.5C82 68.5 265.101 33.5 382 33.5C538 33.5 672 79.5 866 180.5C1064.35 283.763 1126 290 1194 301.5C1258.36 312.385 1378 303.5 1456 278.5" stroke="#39619E" stroke-width="16"/>
<path d="M-10 141C82 94 265.101 59 382 59C538 59 672 106 866 207C1064.35 310.263 1126 316.5 1194 328C1258.36 338.885 1378 329 1456 304" stroke="#39619E" stroke-width="16"/>
<path d="M-10 167.5C82 120.5 265.101 85.5 382 85.5C538 85.5 672 132.5 866 233.5C1064.35 336.763 1126 342 1194 353.5C1258.36 364.385 1378 355.5 1456 330.5" stroke="#39619E" stroke-width="16"/>
<path d="M-10 195C82 148 265.101 113 382 113C538 113 672 160 866 261C1064.35 364.263 1126 368.5 1194 380C1258.36 390.885 1378 382 1456 357" stroke="#39619E" stroke-width="16"/>
<path d="M-10 220.5C82 173.5 265.101 138.5 382 138.5C538 138.5 672 186.5 866 287.5C1064.35 390.763 1126 393 1194 404.5C1258.36 415.385 1378 406.5 1456 381.5" stroke="#39619E" stroke-width="16"/>
<path d="M-10 246C82 199 265.101 164 382 164C538 164 672 213 866 314C1064.35 417.263 1126 420.5 1194 432C1258.36 442.885 1378 434 1456 409" stroke="#39619E" stroke-width="16"/>
</svg>
