<svg width="698" height="1240" viewBox="0 0 698 1240" fill="none" xmlns="http://www.w3.org/2000/svg">
<path d="M418.025 1279L205.378 848.254C192.947 823.073 199.932 792.623 222.096 775.378V775.378C237.661 763.267 258.237 759.709 276.965 765.89L291.891 770.817C468.394 829.073 629.457 648.835 551.798 479.968L454.192 267.725C439.989 236.841 451.948 200.228 481.644 183.684V183.684C498.36 174.371 518.328 172.887 536.237 179.626L779.599 271.206C783.042 272.501 783.954 276.946 781.3 279.493L659.066 396.771C606.076 447.614 601.377 530.761 648.302 587.25L879.025 865" stroke="#39619E" stroke-width="16"/>
<path d="M397.799 1294.62L184.387 860.045C170.112 830.976 173.768 796.297 193.791 770.843L197.326 766.35C218.449 739.497 254.798 729.871 286.443 742.75V742.75C444.573 807.107 600.036 645.04 529.16 489.722L430.846 274.275C413.601 236.486 425.111 191.713 458.359 166.814V166.814C482.775 148.529 514.947 144.039 543.409 155.012L790.125 250.13C810.78 258.093 815.991 284.921 799.819 300.038L680.867 411.227C634.598 454.477 629.908 526.24 670.153 575.145L919.025 877.561" stroke="#39619E" stroke-width="16"/>
<path d="M376.605 1306L163.115 875.863C144.778 838.919 148.132 794.902 171.855 761.162L177.717 752.826C204.731 714.405 254.872 700.009 298.154 718.247V718.247C430.611 774.064 563.637 640.203 506.994 508.097L405.94 272.415C388.576 231.918 400.159 184.818 434.324 156.993L447.133 146.561C474.902 123.946 512.645 117.906 546.084 130.728L805.084 230.039C839.58 243.266 848.312 288.047 821.313 313.265L699.979 426.594C661.266 462.754 657.468 522.83 691.319 563.577L955.025 881" stroke="#39619E" stroke-width="16"/>
<path d="M356.039 1319L136.094 870.451C116.517 830.526 121.853 782.874 149.776 748.269L161.023 734.331C196.553 690.297 256.907 675.042 309.093 696.905V696.905C421.632 744.05 533.931 629.394 484.458 517.858L384.797 293.175C360.211 237.746 376.268 172.704 423.825 135.085L439.933 122.343C470.773 97.9474 512.179 91.5904 548.918 105.611L818.654 208.551C866.671 226.875 879.228 288.972 842.103 324.514L713.529 447.605C687.207 472.805 684.621 513.983 707.583 542.278L980.025 878" stroke="#39619E" stroke-width="16"/>
<path d="M337.025 1334L118.382 891.891C86.8598 828.151 101.778 751.208 154.837 703.868L170.617 689.789C207.917 656.509 261.386 648.481 306.815 669.34V669.34C403.717 713.833 503.894 614.22 459.948 517.068L362.493 301.623C330.412 230.703 353.88 146.987 418.149 103.076V103.076C461.548 73.4252 516.719 66.9175 565.825 85.6574L831.665 187.107C893.514 210.71 909.574 290.761 861.615 336.394L730.564 461.088C711.638 479.096 709.766 508.638 726.267 528.892L996.025 860" stroke="#39619E" stroke-width="16"/>
<path d="M313.025 1341L95.8813 899.606C61.552 829.824 77.1254 745.781 134.178 692.932L155.045 673.602C199.299 632.609 263.758 622.01 318.808 646.676V646.676C394.626 680.646 472.201 602.813 437.978 527.108L343.336 317.748C302.695 227.845 335.907 121.756 420.558 71.0768V71.0768C461.794 46.3902 512.044 41.8827 557.015 58.8368L847.461 168.336C923.249 196.908 943.213 294.817 884.662 350.782L752.205 477.389C740.909 488.186 739.793 505.846 749.64 517.98L1015.03 845" stroke="#39619E" stroke-width="16"/>
<path d="M295.025 1358L74.2412 913.439C30.7987 825.965 53.4842 720.082 128.951 658.085L133.847 654.062C189.515 608.33 265.559 596.269 332.645 622.532V622.532C387.355 643.949 440.494 588.223 416.501 534.592L318.626 315.813C277.709 224.352 307.853 116.717 390.322 59.8107V59.8107C444.573 22.3756 513.791 14.0911 575.345 37.666L863.614 148.073C952.38 182.07 975.84 296.725 907.561 362.855L771.298 494.83C769.443 496.627 769.261 499.539 770.878 501.552L1037.03 833" stroke="#39619E" stroke-width="16"/>
</svg>
