<svg width="302" height="391" viewBox="0 0 302 391" fill="none" xmlns="http://www.w3.org/2000/svg">
<path d="M293.889 86.206C279.014 58.046 247.751 44.2395 218.085 50.343C209.597 21.2569 182.788 0 151.02 0C119.253 0 92.444 21.2569 83.9138 50.343C54.2895 44.2816 22.9844 58.046 8.10918 86.206C-5.16923 111.335 -1.63953 140.885 14.7064 161.973C-1.63953 183.062 -5.16923 212.611 8.10918 237.74C22.9844 265.858 54.2475 279.665 83.9138 273.603C83.9138 273.603 83.9138 273.603 83.9138 273.645H98.0327V299.574C99.8815 301.721 101.814 303.742 103.915 305.636V247.716H118.076V315.654C119.967 316.664 121.942 317.59 123.959 318.432V209.622H138.12V322.683C140.053 323.062 142.028 323.315 144.003 323.525V190.133H158.164V323.525C160.139 323.315 162.114 323.062 164.047 322.683V209.622H178.207V318.432C180.224 317.59 182.157 316.664 184.09 315.654V247.716H198.251V305.636C200.31 303.742 202.285 301.721 204.134 299.574V273.645H218.253C218.253 273.645 218.253 273.645 218.253 273.603C247.877 279.665 279.182 265.9 294.057 237.74C307.336 212.611 303.806 183.062 287.46 161.973C303.638 140.842 307.168 111.293 293.889 86.206Z" fill="white"/>
<path d="M32.3556 377.025V364.566C32.3556 358.42 35.7592 355.095 41.0958 355.095C46.5585 355.095 49.836 358.378 50.0882 364.397H45.7601C45.5079 360.862 43.9532 359.262 41.0538 359.262C38.4906 359.262 36.8097 360.946 36.8097 364.566V377.025C36.8097 380.603 38.4906 382.287 41.1378 382.287C44.0793 382.287 45.634 380.645 45.9281 377.194H50.2562C49.9621 383.171 46.7265 386.454 41.1378 386.454C35.8013 386.454 32.3556 383.129 32.3556 377.025Z" fill="white"/>
<path d="M72.317 385.949H67.9469V359.809H59.4167V385.949H55.0466V355.684H72.317V385.949Z" fill="white"/>
<path d="M90.0916 379.845H82.1078L80.7211 385.949H76.1409L83.7466 355.684H88.4528L96.0585 385.949H91.5203L90.0916 379.845ZM89.1672 375.762L87.2763 367.638C86.8561 365.66 86.3518 362.756 86.1417 361.156H86.0156C85.8055 362.756 85.3853 365.66 84.8811 367.638L83.0322 375.762H89.1672Z" fill="white"/>
<path d="M117.237 365.45C117.237 371.806 113.875 375.299 107.95 375.299H104.336V385.949H99.9663V355.684H107.95C113.875 355.684 117.237 359.262 117.237 365.45ZM112.825 365.45C112.825 361.746 111.228 359.809 107.95 359.809H104.378V371.132H107.95C111.228 371.132 112.825 369.322 112.825 365.45Z" fill="white"/>
<path d="M136.398 359.809H130.095V385.949H125.641V359.809H119.38V355.684H136.398V359.809Z" fill="white"/>
<path d="M150.307 379.845H142.323L140.936 385.949H136.356L143.962 355.684H148.668L156.274 385.949H151.735L150.307 379.845ZM149.382 375.762L147.491 367.638C147.071 365.66 146.567 362.756 146.357 361.156H146.231C146.021 362.756 145.6 365.66 145.096 367.638L143.247 375.762H149.382Z" fill="white"/>
<path d="M166.484 372.69L164.509 375.678V385.907H160.181V355.642H164.509V368.775L166.484 365.239L172.535 355.642H177.62L169.006 368.817L178.88 385.907H173.88L166.484 372.69Z" fill="white"/>
<path d="M182.284 355.684H186.57V368.901C186.57 371.048 186.402 375.005 186.108 377.657L186.234 377.741C186.78 376.268 187.579 374.163 188.377 372.395L195.731 355.684H200.185V385.949H195.899V372.774C195.899 370.501 196.067 366.418 196.277 363.892L196.151 363.808C195.605 365.365 194.722 367.681 194.008 369.406L186.696 385.949H182.284V355.684Z" fill="white"/>
<path d="M218.001 379.845H210.018L208.631 385.949H204.051L211.656 355.684H216.363L223.968 385.949H219.43L218.001 379.845ZM217.077 375.762L215.186 367.638C214.766 365.66 214.262 362.756 214.051 361.156H213.925C213.715 362.756 213.295 365.66 212.791 367.638L210.942 375.762H217.077Z" fill="white"/>
<path d="M248.382 381.824V391H244.138V385.949H229.767V391H225.481V381.824H227.246C229.431 379.593 230.482 375.047 230.65 370.29L231.154 355.684H245.693V381.866H248.382V381.824ZM241.407 359.767H235.272L234.852 371.469C234.684 375.762 233.885 379.256 232.498 381.824H241.449L241.407 359.767Z" fill="white"/>
<path d="M264.014 379.845H256.03L254.643 385.949H250.063L257.669 355.684H262.375L269.98 385.949H265.442L264.014 379.845ZM263.131 375.762L261.24 367.638C260.82 365.66 260.316 362.756 260.106 361.156H259.98C259.77 362.756 259.349 365.66 258.845 367.638L256.996 375.762H263.131Z" fill="white"/>
<path d="M150.979 139.706L158.122 154.144L174.09 156.459L162.577 167.74L165.308 183.651L151.021 176.158L136.776 183.693L139.465 167.782L127.91 156.501L143.878 154.186L150.979 139.706Z" fill="#E20E18"/>
<path d="M97.277 111.462L87.9485 94.4983C82.8641 85.28 85.1332 77.5349 93.6633 72.8206C102.404 68.022 109.967 70.3371 115.346 79.4291L106.479 84.3119C104.042 80.4394 101.647 79.6396 98.2855 81.4917C95.5962 82.9649 95.0079 85.5747 97.109 89.4472L106.437 106.411C108.496 110.157 110.934 111.083 113.707 109.568C117.153 107.673 117.783 105.19 115.934 101.191L124.8 96.3083C129.633 105.569 127.322 113.314 118.455 118.155C110.009 122.827 102.319 120.638 97.277 111.462Z" fill="#E20E18"/>
<path d="M216.236 97.2765C211.32 106.663 203 109.357 193.882 104.601L190.058 102.58L182.62 116.765L173.67 112.051L196.781 67.8957L209.555 74.6305C218.674 79.387 221.195 87.8056 216.236 97.2765ZM207.034 92.4358C209.261 88.1423 208.547 84.9433 204.975 83.0491L201.277 81.1128L194.512 94.0353L198.21 95.9716C201.781 97.8658 204.807 96.6451 207.034 92.4358Z" fill="#E20E18"/>
<path d="M269.854 198.888L220.102 198.931V189.039H232.33C238.381 189.333 244.432 189.502 250.441 189.796L250.567 189.46L237.499 184.998L230.733 182.514V172.538L237.499 170.055L250.567 165.551L250.441 165.214C244.39 165.425 238.339 165.719 232.33 165.93H220.102V156.122L269.854 156.08V166.267L251.029 174.138C248.55 175.148 244.222 176.832 242.373 177.421V177.716C244.222 178.263 248.55 179.989 251.029 180.999L269.896 188.828L269.854 198.888Z" fill="#E20E18"/>
<path d="M32.1455 156.08L81.8976 156.038V165.93H69.6697C63.6187 165.635 57.5678 165.467 51.5589 165.172L51.4328 165.509L64.5012 169.971L71.2664 172.454V182.43L64.5012 184.914L51.4328 189.418L51.5589 189.754C57.6098 189.544 63.6608 189.249 69.6697 189.039H81.8976V198.846L32.1455 198.888V188.702L50.9706 180.831C53.4498 179.82 57.7779 178.137 59.6268 177.547V177.253C57.7779 176.706 53.4498 174.98 50.9706 173.97L32.1455 166.267V156.08Z" fill="#E20E18"/>
<path d="M156.147 59.0562H145.894H135.768V108.894H145.894V68.6955H156.147V108.894H166.232V68.6955V59.0562H156.147Z" fill="#E20E18"/>
<path d="M71.1824 144.673L56.6013 134.992C47.693 129.099 45.7601 120.554 51.3488 112.135C56.9375 103.717 65.5516 102.159 74.4179 108.052L88.999 117.734C97.9073 123.627 99.8402 132.171 94.2515 140.59C88.7048 149.009 80.0907 150.566 71.1824 144.673ZM83.2422 126.447L68.6611 116.765C64.7533 114.156 61.6017 114.408 59.5427 117.523C57.4417 120.68 58.4922 123.669 62.4001 126.236L76.9812 135.918C80.8891 138.527 84.0406 138.275 86.0996 135.16C88.1586 132.003 87.1501 129.057 83.2422 126.447Z" fill="#E20E18"/>
<path d="M212.959 116.976L227.414 107.126C236.238 101.107 244.852 102.58 250.525 110.915C256.198 119.291 254.349 127.836 245.525 133.855L231.112 143.747C222.287 149.766 213.673 148.293 208.001 139.959C202.286 131.582 204.135 122.995 212.959 116.976ZM225.229 135.076L239.684 125.226C243.55 122.574 244.558 119.586 242.415 116.471C240.314 113.356 237.163 113.145 233.297 115.797L218.842 125.647C214.976 128.299 213.967 131.287 216.11 134.402C218.211 137.517 221.363 137.728 225.229 135.076Z" fill="#E20E18"/>
<path d="M83.9146 273.561C86.7299 283.242 91.6043 292.04 98.0334 299.49V273.561H83.9146Z" fill="#E20E18"/>
<path d="M103.916 247.674V305.594C108.202 309.508 112.909 312.876 118.077 315.654V247.716H103.916V247.674Z" fill="#E20E18"/>
<path d="M203.967 299.49C210.354 292.04 215.228 283.242 218.085 273.561H203.967V299.49Z" fill="#E20E18"/>
<path d="M183.965 247.674V315.612C189.091 312.876 193.84 309.466 198.126 305.552V247.632H183.965V247.674Z" fill="#E20E18"/>
<path d="M163.963 209.58V322.641C168.88 321.715 173.628 320.284 178.124 318.39V209.58H163.963Z" fill="#E20E18"/>
<path d="M123.918 209.58V318.39C128.414 320.284 133.162 321.715 138.079 322.641V209.58H123.918Z" fill="#E20E18"/>
<path d="M143.92 190.091V323.483C146.231 323.736 148.584 323.862 150.979 323.862C153.374 323.862 155.727 323.736 158.038 323.483V190.091H143.92Z" fill="#E20E18"/>
</svg>
