<?xml version="1.0" encoding="utf-8"?>
<!-- Generator: Adobe Illustrator 19.0.1, SVG Export Plug-In . SVG Version: 6.00 Build 0)  -->
<svg version="1.1" id="Шар_1" xmlns="http://www.w3.org/2000/svg" xmlns:xlink="http://www.w3.org/1999/xlink" x="0px" y="0px"
	 viewBox="-462.1 377.2 180.9 74.3" style="enable-background:new -462.1 377.2 180.9 74.3;" xml:space="preserve">
<style type="text/css">
	.st0{fill:#FFFFFF;}
</style>
<g>
	<g>
		<path class="st0" d="M-406.8,423.9c0.1-0.2,0.3-0.2,0.4,0l0.7,0.6c-0.1,0.1-0.5,0.1-0.7,0.2l0.2,0.4l-0.2,0.1l-0.1,0.3
			c-0.4-0.3-0.7-0.7-0.5-1L-406.8,423.9z M-406.3,423c0,0.3-0.1,0.6-0.2,0.6c-0.1,0-0.2-0.3-0.2-0.6c0-0.3,0.1-0.5,0.2-0.5
			C-406.4,422.4-406.3,422.7-406.3,423z M-406.6,420.3c0.1,0.2,0.1,0.4,0.1,0.4c-0.1,0-0.2,0-0.3-0.2c-0.1-0.2-0.1-0.3-0.1-0.3
			C-406.8,420-406.7,420.2-406.6,420.3L-406.6,420.3z"/>
	</g>
	<g>
		<path class="st0" d="M-404.6,417.6c0.1,0.1,0.1,0.1,0,0.2c-0.1,0.1-0.1,0.2,0.1,0.5c0.2,0.1,0.1,0.3,0,0.3c-0.1,0-0.3-0.1-0.4-0.2
			l0.2,0.3c0.1,0.2-0.1,0.3-0.3,0.1l-0.6-0.5c-0.2-0.3-0.1-0.5,0.2-0.9c0.1-0.1,0.2-0.1,0.3,0L-404.6,417.6z M-404.9,414.1
			c-0.3-0.6,0-0.7,0.4-0.1c0.2,0.3,0.2,0.8,0.1,1.4c0,0.2-0.2,0.2-0.3,0c-0.1-0.3-0.2-0.5-0.4-0.8
			C-405.4,414.3-405.3,414.1-404.9,414.1L-404.9,414.1z M-404.7,416.2c0-0.2,0.1-0.1,0.2,0c0.2,0.3,0.4,0.6,0.5,1.1
			c0.1,0.2,0,0.3-0.1,0.3c-0.2,0-0.3-0.1-0.5-0.2c-0.2-0.2-0.3-0.4-0.2-0.5L-404.7,416.2z"/>
	</g>
	<g>
		<path class="st0" d="M-415.9,395.9c0.1,0.1,0.2,0.2,0.1,0.1c-0.1-0.3-0.2-0.6-0.3-0.9c0-0.1,0-0.2-0.1-0.2c-0.1,0,0,0.3,0.1,0.5
			C-416.1,395.7-416.1,395.8-415.9,395.9z"/>
	</g>
	<g>
		<path class="st0" d="M-417.3,395.2c0.1,0.2,0.2,0.3,0.2,0.2c-0.1-0.5-0.2-0.9-0.2-1.4c0-0.2-0.1-0.3-0.1-0.3c-0.1,0,0,0.5,0,0.8
			C-417.4,394.7-417.4,394.9-417.3,395.2z"/>
	</g>
	<g>
		<path class="st0" d="M-416.4,395.7c0.1,0.1,0.2,0.2,0.1,0.1c-0.1-0.4-0.2-0.7-0.2-1c0-0.1-0.1-0.2-0.1-0.2c-0.1,0,0,0.4,0,0.6
			C-416.5,395.3-416.5,395.5-416.4,395.7L-416.4,395.7z"/>
	</g>
	<g>
		<path class="st0" d="M-416.8,395.4c0.1,0.2,0.2,0.2,0.1,0.1c-0.1-0.4-0.2-0.8-0.2-1.2c0-0.2,0-0.2-0.1-0.3c-0.1,0,0,0.4,0,0.7
			C-417,395-417,395.2-416.8,395.4z"/>
	</g>
	<g>
		<path class="st0" d="M-426.3,416.3c0.1,0,0.2-0.1,0.2-0.2c0-0.1-0.1-0.1-0.2-0.1c-0.1,0-0.2,0.1-0.2,0.1
			C-426.4,416.3-426.4,416.3-426.3,416.3z"/>
	</g>
	<g>
		<path class="st0" d="M-417.7,394.9c0.1,0.3,0.2,0.3,0.2,0.2c-0.1-0.6-0.2-1.1-0.2-1.5c0-0.2-0.1-0.3-0.1-0.4c-0.1,0,0,0.6,0,0.9
			C-417.9,394.4-417.8,394.6-417.7,394.9z"/>
	</g>
	<g>
		<path class="st0" d="M-420.4,406.2c0-0.4-0.3-0.8-0.7-1c0,0.1,0.3,0.3,0.4,0.6C-420.5,406-420.5,406.2-420.4,406.2z"/>
	</g>
	<g>
		<path class="st0" d="M-418.1,394.6c0.1,0.3,0.2,0.3,0.2,0.3c-0.1-0.6-0.2-1.2-0.2-1.7c0-0.2,0-0.3-0.1-0.4c-0.1-0.1,0,0.6,0,1
			C-418.3,394-418.3,394.3-418.1,394.6z"/>
	</g>
	<g>
		<path class="st0" d="M-418.9,394.2c0-0.4-0.1-0.8,0-1.1c0-0.1,0-0.2-0.1-0.3c0,0,0,0.4-0.1,0.6c0,0.2,0,0.4,0.1,0.5
			C-418.9,394.2-418.9,394.2-418.9,394.2L-418.9,394.2z"/>
	</g>
	<g>
		<path class="st0" d="M-422.2,399.4c-0.1-0.3-1.1-1.2-1.7-2.2c-0.5-0.9-0.6-1.5-0.8-1.7C-424.6,396.8-423.6,398.3-422.2,399.4z"/>
	</g>
	<g>
		<path class="st0" d="M-425.2,396.6c0.2,1.4,1.4,3.3,3,4.6c-0.1-0.4-1.4-1.6-2.1-2.6C-424.8,397.5-424.9,396.9-425.2,396.6z"/>
	</g>
	<g>
		<path class="st0" d="M-422.2,398.6c-0.1-0.3-1-1.1-1.5-2c-0.5-0.8-0.6-1.4-0.8-1.6C-424.4,396.1-423.5,397.5-422.2,398.6z"/>
	</g>
	<g>
		<path class="st0" d="M-422.2,400.3c-0.1-0.3-1.2-1.4-1.8-2.4c-0.6-1-0.7-1.6-0.9-1.8C-424.8,397.4-423.7,399-422.2,400.3
			L-422.2,400.3z"/>
	</g>
	<g>
		<path class="st0" d="M-420.6,391.3c-0.1-0.4-0.1-0.7-0.2-0.8c-0.1,0.5,0,1.2,0.5,1.7C-420.3,392.1-420.5,391.7-420.6,391.3
			L-420.6,391.3z"/>
	</g>
	<g>
		<path class="st0" d="M-423.6,393.3c0,0.9,0.7,2,1.6,2.8c0-0.2-0.7-0.9-1-1.5C-423.4,393.9-423.5,393.5-423.6,393.3z"/>
	</g>
	<g>
		<path class="st0" d="M-423.9,393.9c0.1,1,0.8,2.2,1.9,3c-0.1-0.2-0.8-1-1.2-1.7C-423.7,394.5-423.8,394-423.9,393.9z"/>
	</g>
	<g>
		<path class="st0" d="M-421.6,407.2c0,0.2,0.6,0.7,1,1.3c0.4,0.6,0.4,0.7,0.5,0.8C-420.2,408.5-420.7,407.9-421.6,407.2z"/>
	</g>
	<g>
		<path class="st0" d="M-418.4,394.5c-0.1-0.5-0.1-1-0.1-1.4c0-0.2,0-0.3-0.1-0.3c0-0.1,0,0.5-0.1,0.8c0,0.3,0,0.5,0.1,0.7
			C-418.5,394.5-418.4,394.6-418.4,394.5L-418.4,394.5z"/>
	</g>
	<g>
		<path class="st0" d="M-424.2,394.4c0.1,1.1,0.9,2.4,2.1,3.3c-0.1-0.3-0.9-1-1.4-1.8C-423.9,395.1-424,394.6-424.2,394.4z"/>
	</g>
	<g>
		<path class="st0" d="M-430.7,389.9c-0.1,0-0.2,0-0.3,0c-0.1-0.1,0-0.1-0.1-0.2c0.1-0.1,0.3-0.1,0.5,0
			C-430.6,389.8-430.7,389.8-430.7,389.9L-430.7,389.9z M-430.7,390c0.4-0.3,0.4-0.4,0-0.5c-0.3-0.1-0.5-0.1-0.8,0
			c0.2,0.3,0.1,0.3,0,0.5C-431.2,390-430.9,390-430.7,390z"/>
	</g>
	<g>
		<path class="st0" d="M-426.3,416.5C-426.3,416.5-426.2,416.6-426.3,416.5c0.1,0.1,0.1,0.1,0.1,0
			C-426.1,416.5-426.2,416.4-426.3,416.5C-426.2,416.4-426.3,416.5-426.3,416.5L-426.3,416.5z"/>
	</g>
	<g>
		<path class="st0" d="M-421.6,392.1c-0.2-0.4-0.3-0.7-0.4-0.8c0,0.5,0.3,1.2,0.8,1.6C-421.1,392.9-421.4,392.5-421.6,392.1z"/>
	</g>
	<g>
		<path class="st0" d="M-333.1,413.8h1.8v9.1h-1.8V413.8z M-339,421.5h1.2c0.9,0,1.5-0.5,1.5-1.4c0-0.6-0.3-1.4-1.7-1.4h-1.1
			L-339,421.5z M-339,417.2h1.3c3.1,0,3.4,2.2,3.4,2.8c0,1.4-0.8,2.9-3.4,2.9h-3.1v-9.1h1.8V417.2z M-347.1,421.5h1
			c1.2,0,1.6-0.6,1.6-1.3s-0.3-1.3-1.6-1.3h-1V421.5z M-347.1,417.5h0.9c1.2,0,1.4-0.7,1.4-1.1c0-0.3-0.1-1.1-1.5-1.1h-0.8V417.5z
			 M-346,413.8c1.8,0,3,0.7,3,2.3c0,1.4-0.8,1.9-1.5,2.1v0c1.2,0.2,1.9,1,1.9,2.2c0,1.1-0.7,2.6-3.6,2.6h-2.9v-9.1H-346z
			 M-355.7,413.8v3.9h0l3.3-3.9h2.2l-3.8,4.1l4,5h-2.3l-3.4-4.5h0v4.5h-1.8v-9.1H-355.7z M-359,422.6c-0.8,0.3-1.6,0.4-2.4,0.4
			c-2.3,0-4.7-1.3-4.7-4.6c0-3.1,2.2-4.7,5.1-4.7c0.7,0,1.3,0.1,2,0.3l-0.1,1.6c-0.6-0.2-1.2-0.3-1.8-0.3c-2,0-3.3,1.3-3.3,3.1
			c0,2.2,1.5,3.1,3.1,3.1c0.7,0,1.3-0.1,1.9-0.4L-359,422.6z M-371.8,415c-0.7,0-2.5,0.3-2.5,3.4c0,3.1,1.8,3.4,2.5,3.4
			c0.7,0,2.5-0.3,2.5-3.4C-369.2,415.3-371.1,415-371.8,415z M-371.8,413.7c2.3,0,4.5,1.3,4.5,4.7c0,3.3-2.2,4.7-4.5,4.7
			c-2.3,0-4.5-1.4-4.5-4.7C-376.2,415.1-374,413.7-371.8,413.7z M-384,422.9l-2.2-6.5l-0.4-1.3h0l0,1.4v6.4h-1.8v-9.1h3.1l1.8,5.3
			l0.4,1.6h0l0.4-1.6l1.8-5.3h3.1v9.1h-1.8v-6.4l0-1.4h0l-0.4,1.3l-2.2,6.5H-384z"/>
	</g>
	<g>
		<path class="st0" d="M-295.2,403.1h1c1.2,0,1.6-0.6,1.6-1.3c0-0.6-0.4-1.3-1.6-1.3h-1L-295.2,403.1z M-295.2,399.1h0.9
			c1.2,0,1.4-0.7,1.4-1.1c0-0.3-0.1-1.1-1.5-1.1h-0.8L-295.2,399.1z M-294.1,395.4c1.8,0,3,0.7,3,2.2c0,1.4-0.8,1.9-1.5,2.1v0
			c1.2,0.2,1.9,1,1.9,2.2c0,1.1-0.7,2.6-3.6,2.6h-2.9v-9.1H-294.1z M-298.2,395.4v1.6h-2.6v7.5h-1.8v-7.5h-2.6v-1.6H-298.2z
			 M-306,404.3c-0.8,0.3-1.6,0.4-2.4,0.4c-2.3,0-4.7-1.3-4.7-4.6c0-3.1,2.2-4.7,5.1-4.7c0.7,0,1.3,0.1,2,0.3l-0.1,1.6
			c-0.6-0.2-1.2-0.3-1.8-0.3c-2,0-3.3,1.3-3.3,3.1c0,2.2,1.5,3.1,3.1,3.1c0.7,0,1.3-0.1,1.9-0.4L-306,404.3z M-318.9,403.1h1.2
			c0.9,0,1.5-0.5,1.5-1.4c0-0.6-0.3-1.4-1.7-1.4h-1.1V403.1z M-318.9,398.8h1.3c3.1,0,3.4,2.2,3.4,2.8c0,1.4-0.8,2.9-3.4,2.9h-3.1
			v-9.1h1.8V398.8z M-322.6,395.4v9.1h-1.8v-7.5h-2.4v1.8c0,3.1,0,5.8-2.7,5.8c-0.3,0-0.6,0-0.9-0.1l0.1-1.4c0.1,0,0.4,0.1,0.5,0.1
			c1.4,0,1.2-2.6,1.2-4.8v-3H-322.6z M-331.2,395.4v1.6h-3.6v2.1h3.3v1.5h-3.3v2.3h3.6v1.6h-5.4v-9.1H-331.2z M-337.7,395.4v1.6
			h-2.6v7.5h-1.9v-7.5h-2.6v-1.6H-337.7z M-352,395.4v4.7l0,2.2h0l0.6-1.3l3.2-5.6h2.2v9.1h-1.9v-4.7l0-2.2h0l-0.6,1.4l-3.2,5.5
			h-2.2v-9.1H-352z M-360.1,403.1h1c1.2,0,1.6-0.6,1.6-1.3c0-0.6-0.4-1.3-1.6-1.3h-1L-360.1,403.1z M-360.1,399.1h0.9
			c1.2,0,1.4-0.7,1.4-1.1c0-0.3-0.1-1.1-1.5-1.1h-0.8V399.1z M-359,395.4c1.8,0,3,0.7,3,2.2c0,1.4-0.8,1.9-1.5,2.1v0
			c1.2,0.2,1.9,1,1.9,2.2c0,1.1-0.7,2.6-3.6,2.6h-2.9v-9.1H-359z M-366.5,401l-1.3-3.7h0l-1.3,3.7H-366.5z M-366.7,395.4l3.6,9.1
			h-2.1l-0.8-2h-3.8l-0.8,2h-2l3.6-9.1H-366.7z M-376.6,399.7c1.1,0,1.5-0.8,1.5-1.5c0-0.8-0.5-1.4-1.5-1.4h-0.8v2.8H-376.6z
			 M-376.6,395.4c3.3,0,3.5,2.3,3.5,2.9c0,1.2-0.8,2.8-3.2,2.8h-1.2v3.4h-1.8v-9.1H-376.6z M-381.1,395.4v9.1h-1.8v-7.6h-3.6v7.6
			h-1.8v-9.1H-381.1z"/>
	</g>
	<g>
		<path class="st0" d="M-400.5,435.3c0,6.2-3.9,10.5-11.6,10.5h-7.1c-5.5,0-9,1.9-11.6,4.5c-2.6-2.6-6.1-4.5-11.6-4.5h-7.1
			c-7.7,0-11.6-4.3-11.6-10.5v-57.1h60.7L-400.5,435.3z M-462.1,377.2v58c0,7,4.8,11.4,12.5,11.4h7.1c4.6,0,8.1,1.3,11,4.2l0.6,0.6
			l0.6-0.6c2.9-2.9,6.4-4.2,11-4.2h7.1c3.9,0,7.1-1.1,9.3-3.2c2.1-2,3.2-4.9,3.2-8.2v-58L-462.1,377.2z"/>
	</g>
	<g>
		<path class="st0" d="M-408.8,409.5c0,0.3-0.1,0.3-0.2,0.1c-0.2-0.2-0.2-0.5,0-0.7c0.2-0.2,0.4-0.2,0.6-0.1
			c0.2,0.1,0.2,0.2,0.2,0.3l-0.3,0.1l0.4,0.1c0.2,0.2,0,0.6-0.2,0.3C-408.4,409.4-408.6,409.4-408.8,409.5z M-410.9,411.9l-0.1,0.8
			c-0.1,0.3-0.2,0.4-0.3,0.1c0-0.5,0.1-1.1,0.4-1.7c0.1-0.3,0.2-0.3,0.3-0.1c0.5-0.8,0.4-0.4,0.2,0.3l0.1,0.1
			c0.6-1.2,0.4-0.2,0.3,0.3C-410.5,412.2-410.8,412.3-410.9,411.9z M-411.7,413.1c-0.1,0.2-0.2,0.5-0.3,0l0.2-1.1l-0.2,0.4
			c-0.2,0-0.2-0.2-0.2-0.5c0-0.4,0-0.5,0.2-0.4l0.1,0.4l0.1-0.2c0.2-0.1,0.2,0,0.1,0.3L-411.7,413.1z M-410.5,415.5
			c0.1,0.2,0.3,0.5,0.6,0.7c-0.7-1-0.7-1.5-0.1-1.1c0.5,0.3,0.8,0.8,0.7,1.6c0.1,0.4,0.1,0.5-0.7,0c-0.3-0.2-0.3-0.3,0-0.4l-0.9-0.7
			c0.8,1.2,0.2,0.9-0.4,0.1c0.4,0.9,0.1,0.6-0.5,0.1h-0.1c1,0.8,0.2,0.6-0.5,0.1l-0.1,0.1c1.8,1.2-0.1,0.6-0.9,0.1
			c0.5,0.5,1.2,0.8,1,0.9c-0.4,0.1-1.2-0.2-2-0.6c0.7,0.4,1.3,0.7,0.9,0.8c-0.1,0.1-0.8-0.2-2-0.7c-0.3-0.1-0.4,0-0.3,0.1
			c1,0.4,1.6,0.7,1.5,0.8c-0.2,0.2-0.9-0.2-2-0.7c-0.3-0.1-0.7-0.3-1.1-0.5c0.6,0.7,3.1,1.6,2.6,1.8c-0.2,0.1-0.6-0.1-1.2-0.4
			c-0.7-0.4-1.4-0.8-2.1-1.3c-0.6-0.5-1.1-1-1.6-1.4l0,0.1c1.5,1.6,4.4,3.1,3.5,3.1c-0.4,0-0.2,0-0.5-0.1c-2-1-3.4-2.7-4.4-4
			l-0.1,0.1c1.2,1.9,3.5,3.5,3.3,3.7c-0.2,0.2-1.7-1-2.6-2c-0.7-0.7-0.8-1-1.5-2l0,0.2c1.9,3.3,4.4,3.9,3.9,4.3
			c-0.1,0.1-0.2,0-0.4-0.1c-2.3-1.4-2.9-3-4.1-4.5l-0.1,0.1c0.8,1.3,2.1,2.7,3.3,4.1c0.1,0.2,0,0.3-0.1,0.3
			c-1.2-0.8-2.4-2.6-3.6-4.5l0,0.1c1.1,2,3.4,4.5,2.7,4.3c-0.2-0.1-0.6-0.8-1.2-1.5c-0.4-0.5-0.8-1.2-1.2-1.6l-0.1,0.2
			c0.6,0.9,1.4,1.9,1.7,2.7l-0.1,0l-1.9-2.5l-0.1,0.1c0.8,1,1.7,2.1,1.6,2.4l-1.6-1.9c0.1,0.6,0.6,1.1,0.5,1.2
			c-0.3-0.4-0.6-0.8-0.8-1.2c-0.1-0.2,0,0.3-0.1,0.1c-1.2-1.4-2.3-2.8-3.2-4.4c-0.2-0.3-0.1-0.3,0.2-0.1l2.3,2.4
			c-1.5-1.6-2.5-2.9-2.2-3.1c0.8,1,1.6,1.8,2.5,2.7c-1.8-2.1-2.7-3.1-2.4-3.1c0.5,0.3,1.6,1.7,2.6,2.7c-1.3-1.8-2.9-3.3-2.9-3.5
			c0-0.1,0.4-0.1,0.5,0c0.8,1.1,1.7,2,2.7,3.1c-0.7-1.1-2.6-2.9-2.5-3.1c0.1-0.1,0.3-0.1,0.6,0c0.6,0.9,1.3,1.8,2.2,2.6
			c-0.6-0.9-2.1-2.4-2-2.6c0-0.1,0.3-0.1,0.4,0c0.3,0.5,0.6,0.8,1,1.3c0.3,0.3,0.6,0.7,1,1l-1.8-2.3c0.1-0.1,0.1-0.1,0.2-0.1
			c0.1,0,0.2,0,0.3,0.1c0.4,0.7,1,1.4,1.7,2.1l-1.4-2.1c0-0.2,0.5-0.1,0.6,0l1.2,1.8c-0.5-1.2-1.3-1.8-0.9-1.8
			c0.4,0.1,0.6,0.4,1,0.8c0.2,0.3,0.4,0.5,0.6,0.7l-0.8-1.3c0-0.1,0.3-0.1,0.5,0.1l0.5,0.6l-0.3-0.5c0-0.2,0.2-0.1,0.4,0l0.5,0.8
			l0.1-0.1c-0.3-0.5-0.5-0.7-0.4-0.8l0.4,0.1l0.4,0.5c-0.1-0.5,0.4-0.4,1.2-0.1c0.5,0.2,1,0.8,1.5,1.7c-0.1,0.1-0.3-0.2-0.5-0.5
			c-0.1-0.1-0.2-0.3-0.4-0.4c0.6,1,1.1,1.9,1.2,2.4c-0.2,0.2-0.8-1-1.5-2.2c0.4,1,0.9,1.9,1,2.3c-0.1,0-0.3-0.5-0.7-1.1
			c-0.1-0.2-0.3-0.3-0.4-0.5l0.9,1.8c0.2,0.1,0.3,0.3,0.2,0.5c-0.2,0.3-0.1,0.4,0.3,0.7c0.3,0.2,1.1,0.4,2.1,0.2
			c1.3-0.2,2.6-0.4,3.9-0.5C-410.9,415.1-410.6,415.3-410.5,415.5z M-418.4,423.4l0.3,1.2l-0.9-0.5l0-0.2
			c-10.3-14-19-25.8-24.7-33.9c-0.1-0.4,0-0.6,0.4-0.5c7.6,10,16.7,23,24.6,34.1L-418.4,423.4z M-418.4,426.1
			c-0.5-0.2-0.5,0-0.1,0.7l0.8,1.1c0.1,0.5,0.3,0.9,0.7,1.3l0.6,1.3c0,0.2,0.1,0.4,0.2,0.6c0.1,0.5,0.2,0.7,0.6,0.8
			c-0.4,0.8-0.9,1.5-1.8,2c-1.7,0.9-3,0.5-2.9-1.7c0.1-1.2,0.3-2.2,0.3-3.5c0.5-1.9,0-2.9-1.6-3c-0.9,0-1.5,0-2,0.4
			c-0.5,0.3-1.1,0.2-2-0.3c-1.7-1.3-3-2-3.9-2c0.8,0.9,1.1,1.9,0.4,2.9c0.7,0.3,0.7,0.6,0,0.9c-1.7,0.1-3.5-0.3-5.5-0.8
			c-0.6-0.1-0.8,0-0.3,0.3c1.4,0.6,2.2,1.4,2.2,2.6c-0.9,0-1.7,0.1-2.1,0.2c-0.4,0.3-0.8,0.2-1.2-0.3c-1-1.1-1.2-2,0-2.8
			c0.7-0.5,1.6-1.5,2.8-3.1c0.8-0.1,1.5-0.2,2.3-0.3c3.2-0.4,6.3-1.1,8.7-2.4c0.5-0.1,0.8-0.1,1,0.3l1.9,2.5l-0.5,0.2l1.4,1.1
			c-0.3,0.2-0.1,0.3,0.2,0.5c-0.2,0.3-0.1,0.5,0.2,0.5C-417.9,426.3-417.6,426.8-418.4,426.1L-418.4,426.1z M-417.7,425.1
			c0,0.1-0.1,0.2-0.2,0.2c-0.1,0-0.2-0.1-0.2-0.2c0-0.1,0.1-0.2,0.2-0.2C-417.8,424.9-417.7,425-417.7,425.1z M-417.4,422.9
			c0.1,0.1,0,0.2-0.2,0.4c-0.1,0.1-0.3,0.3-0.4,0.2c-0.1-0.1,0-0.2,0.2-0.4C-417.6,422.9-417.4,422.8-417.4,422.9z M-417.6,424.9
			c-0.2-0.4-0.2-0.7-0.1-1c0.2-0.5,0.4-0.7,0.6-0.7c0.4,0.4-0.2,0.6-0.3,0.9C-417.6,424.2-417.6,424.4-417.6,424.9L-417.6,424.9z
			 M-417.8,425.7c0.1-0.1,0.2-0.2,0.3-0.2c0.1,0,0.1,0.2,0.1,0.3c-0.1,0.1-0.2,0.2-0.3,0.2C-417.8,426-417.9,425.8-417.8,425.7z
			 M-417.5,426.7c-0.1-0.1-0.2-0.2-0.1-0.4c0.1-0.1,0.3-0.3,0.5-0.2c0.1,0.1,0.2,0.2,0.1,0.4C-417.2,426.6-417.4,426.7-417.5,426.7
			L-417.5,426.7z M-417.2,427c-0.1-0.1,0-0.2,0.1-0.3c0.1-0.1,0.3,0,0.4,0.1c0.1,0.1,0,0.2-0.1,0.3
			C-416.9,427.1-417.1,427.1-417.2,427L-417.2,427z M-416.3,424.2l-0.4,0.2l0.4,0.1l-0.3,0.2l0.6,0.3l-0.4,0.1l0.5,0.3l-0.5,0.1
			c0.5,0.1,0.8,0.3,0.7,0.4l-0.5,0.1c0.2,0.1,0.6,0.1,0.6,0.3c0,0.1-0.3,0.1-0.5,0.1l0.4,0.3h-0.4l0.3,0.1c0,0.3-0.2,0.4-0.3,0.4
			c-0.5-0.1-0.1-0.3-0.4-0.7c-0.9-1.2-0.8-2.2-0.6-2.4C-416.7,423.8-416.5,424.1-416.3,424.2L-416.3,424.2z M-414.7,426.8
			c-0.1,0-0.2,0-0.3-0.2c-0.1-0.3,0-0.5,0.3-0.6c0.2,0,0.3,0.1,0.3,0.2l-0.2,0.1c0.3,0.1,0.4,0.2,0.5,0.3c-0.1,0-0.2,0-0.3,0.1
			c0.5-0.1,0.5,0.7,0,0.5c-0.3-0.1-0.4,0-0.3,0.5c0.1,0.6,0.5,0.7,0.5,0.1c-0.1-0.3,0.9-0.3,1,0.3l-0.4-0.1c0.1,0.5,0.5,0.3,0.5,0.7
			l-0.3,0c0.4,0.3,0.7,0.6,0.8,0.9c-0.4-0.1-0.4-0.5-0.8-0.5c0.5,0.7,1.1,0.5,1.4,1.2c-0.4,0-0.9-0.4-1.4-0.9
			c0.5,0.7,0.8,1.3,0.7,1.6c-0.7-0.3-0.9-1.4-1.2-1.7c0,0.5,0.4,0.9,0.3,1.5c-0.3-0.3-0.4-0.9-0.4-1.8c0.3,0.1,0.4-0.1,0.4-0.6
			c-0.1-0.5-0.3-0.5-0.3,0c0,0.4-0.3,0.5-1,0c-0.1,0.1,0.1,0.3,0.5,0.5l0,0.4l0.2-0.4l0.1,1.2c0,0.3-0.1,0.3-0.2-0.1l-0.1-0.6
			c0,0.4,0,0.6-0.2,0.6l-0.1-1.1l-0.3,0.4l-0.1-0.6l-0.3,0.2v-0.8c-0.2,0.1-0.4,0-0.7-0.3c0.3,0.1,0.5,0,0.8-0.1
			c-0.1-0.6,0.1-0.9,0.6-0.9C-414.6,427-414.6,426.9-414.7,426.8z M-416.9,436.3c0,0,0-0.2,0.1-0.4c0.1-0.2,0.2-0.3,0.2-0.2
			c0,0,0,0.2-0.1,0.3C-416.7,436.2-416.8,436.3-416.9,436.3z M-417.5,436.4c-0.1,0-0.1-0.3,0.1-0.5c0.1-0.3,0.3-0.4,0.4-0.4
			c0.1,0,0,0.3-0.1,0.5C-417.3,436.3-417.4,436.5-417.5,436.4z M-416.7,440.9c-0.1-0.1-0.3-0.3-0.4-0.1c-0.4-0.3-0.6-0.1-0.8-0.1
			c0.1-0.3,0.5-0.6,1.1-0.3C-416.7,440.4-416.7,440.7-416.7,440.9L-416.7,440.9z M-418.4,435.8c-0.1,0,0-0.2,0.1-0.4
			c0.1-0.2,0.2-0.4,0.3-0.4c0.1,0,0,0.2-0.1,0.4C-418.2,435.7-418.3,435.9-418.4,435.8L-418.4,435.8z M-419.7,441
			c0-0.1,0.1-0.2,0.2-0.2c0.1,0,0.2,0.1,0.2,0.2c0,0.1-0.1,0.1-0.2,0.1C-419.7,441.2-419.7,441.1-419.7,441L-419.7,441z M-420.3,441
			c0-0.1,0-0.2,0-0.2c0,0,0.1,0.1,0.1,0.2c0,0.1,0,0.2,0,0.2C-420.2,441.2-420.2,441.1-420.3,441z M-420.6,441.1c0-0.1,0-0.3,0-0.3
			c0.1,0,0.1,0.1,0.2,0.2c0,0.1,0,0.3,0,0.3C-420.5,441.4-420.5,441.3-420.6,441.1z M-420.2,437.4c0.1,0.1,0,0.2-0.1,0.4
			c-0.1,0.2-0.3,0.3-0.3,0.2c-0.1-0.1,0-0.2,0.1-0.4C-420.4,437.4-420.2,437.3-420.2,437.4L-420.2,437.4z M-420.5,436.6
			C-420.5,436.6-420.5,436.6-420.5,436.6c-0.2,0.1-0.3,0.1-0.4,0.1c-0.1-0.1,0-0.2,0.1-0.3c0,0,0-0.1,0.1-0.1
			c-0.1-0.1-0.1-0.1-0.1-0.1c-0.1,0.1-0.1,0.1-0.2,0.1c0,0,0-0.1,0.1-0.3c-0.1-0.1-0.1-0.2,0-0.3c0.2-0.1,0.3,0.1,0.4,0.4
			c0.1,0.1,0,0.2,0.1,0.3c0.1,0.1,0.2,0.2,0.3,0.3c0.2,0.3,0.2,0.6,0.1,0.6c0,0,0,0-0.1-0.3c0,0,0,0.1,0,0.1
			c-0.1,0.1-0.2,0.2-0.3,0.1c-0.1,0,0-0.2,0.1-0.3c0.1,0,0.1-0.1,0.1-0.1c0,0,0-0.1-0.1-0.1c0,0,0,0.1-0.1,0.1
			c-0.1,0.1-0.3,0.2-0.3,0.2c-0.1,0,0-0.2,0.1-0.3C-420.6,436.7-420.5,436.7-420.5,436.6z M-420.4,427.6c0,0.3,0,0.4-0.2,0.2
			c-0.1-0.4-0.4-0.9-0.8-1.3C-420.9,426.7-420.6,427-420.4,427.6L-420.4,427.6z M-420.9,428.6c-0.1-0.4-0.3-1.2-0.7-1.6
			c0.5,0.2,0.9,0.8,0.9,1.4C-420.7,428.7-420.8,428.9-420.9,428.6L-420.9,428.6z M-421.9,427.7c0.5,0.3,0.7,0.4,0.9,1.2
			c0.1,0.3,0,0.5-0.2,0.2C-421.4,428.8-421.5,428.2-421.9,427.7z M-421.9,428.9c0.4,0.2,0.5,0.2,0.7,0.8c0.1,0.2,0,0.3-0.1,0.2
			C-421.5,429.6-421.6,429.1-421.9,428.9L-421.9,428.9z M-421.8,429.9c0-0.1,0.1-0.1,0.2,0c0.3,0.3,0.2,0.4,0.2,0.7
			C-421.5,430.4-421.8,430.2-421.8,429.9z M-425.1,426.6c0.1,0.1,0.2,0.2,0.2,0.2c0,0.1-0.1,0-0.3-0.1c-0.1-0.1-0.2-0.2-0.2-0.2
			C-425.3,426.5-425.2,426.5-425.1,426.6L-425.1,426.6z M-425.6,426.2c0.1,0.2,0.1,0.3-0.1,0.2c-0.5-0.2-1.3-1-2.1-1.6
			C-427.1,424.9-426.4,425.5-425.6,426.2z M-425.4,429.4c0.1,0,0.2,0.4,0.2,0.8c-0.1,0.4-0.2,0.8-0.3,0.7c-0.1,0,0-0.4,0-0.8
			C-425.4,429.8-425.4,429.3-425.4,429.4z M-425.9,429.7c0.1,0,0.1,0.3,0,0.6c-0.1,0.3-0.1,0.6-0.2,0.6c-0.1,0-0.1-0.3,0-0.6
			C-426.1,430-426,429.7-425.9,429.7L-425.9,429.7z M-426.6,429.7c0.1,0,0.1,0.3,0.1,0.7c-0.1,0.3-0.1,0.6-0.2,0.6
			c-0.1,0-0.1-0.3-0.1-0.6C-426.8,430-426.7,429.7-426.6,429.7z M-427.1,429.9c0.1,0,0.1,0.3,0.1,0.6c0,0.3-0.1,0.6-0.1,0.6
			c-0.1,0-0.1-0.3-0.1-0.6C-427.2,430.1-427.2,429.9-427.1,429.9L-427.1,429.9z M-425.5,436.5L-425.5,436.5l-0.2-0.4
			C-425.6,436.2-425.6,436.3-425.5,436.5L-425.5,436.5z M-424.1,437.3C-424.1,437.4-424.1,437.4-424.1,437.3
			c-0.1,0.1-0.1,0.2-0.1,0.2C-424.2,437.5-424.1,437.5-424.1,437.3c-0.1-0.1-0.1-0.2-0.1-0.4C-424.1,437.1-424.1,437.2-424.1,437.3
			c0.1-0.2,0.2-0.3,0.3-0.5c0-0.2-0.1-0.3-0.1-0.5c0.1,0.1,0.1,0.2,0.2,0.3c0.1-0.1,0.1-0.2,0.2-0.3c-0.1-0.1-0.1-0.3-0.1-0.5
			c0.1,0.1,0.1,0.2,0.2,0.3c0.1-0.1,0.2-0.3,0.2-0.4c0-0.1-0.1-0.3-0.1-0.4c0.1,0.1,0.1,0.2,0.2,0.3c0.1-0.3,0.1-0.5,0.2-0.6l-3,1.8
			c0.3-0.2,0.5-0.4,0.8-0.6c0-0.2-0.1-0.4-0.1-0.5c0.1,0.1,0.1,0.3,0.2,0.5c0.1-0.1,0.1-0.1,0.2-0.2c0-0.2-0.1-0.5-0.1-0.7
			c0.1,0.2,0.2,0.4,0.2,0.6c0.1-0.1,0.2-0.1,0.3-0.2c0-0.3-0.1-0.6-0.1-0.9c0.1,0.3,0.2,0.5,0.3,0.8c0.1-0.1,0.1-0.1,0.2-0.2
			c0-0.4-0.1-0.9-0.1-1.3c0.2,0.4,0.3,0.8,0.3,1.1c0.1-0.1,0.1-0.1,0.2-0.1c0-0.5-0.1-0.9-0.2-1.4c0.2,0.4,0.4,0.9,0.4,1.2
			c0,0,0.1-0.1,0.1-0.1c0-0.5-0.1-1.1-0.2-1.7c0.3,0.6,0.4,1.1,0.4,1.4c0.1,0,0.1-0.1,0.2-0.2c0-0.8-0.3-1.6-0.6-2.4
			c-0.1,0.4-0.1,0.5-0.2,0.5c0.1-0.5,0-0.7-0.1-0.7c-0.1,0.6-0.2,1-0.4,1.2l0.1-1h-0.2c-0.1,0.8-0.2,1-0.5,1.2
			c0.1-0.5,0.1-0.8,0.1-0.9c-0.1,0-0.1,0.1-0.2,0.1v0.1c0,0.3,0,0.7-0.3,1.1c0-0.4,0.2-0.8,0.2-1.2c-0.1,0-0.2,0.1-0.2,0.1v0.4
			c-0.1,0.2-0.1,0.4-0.2,0.6c0-0.1,0.1-0.8,0.1-1c-0.1,0-0.1,0-0.2,0.1v0.1c0,0.1,0,0.2-0.1,0.2c0,0-0.1-0.1-0.1-0.1
			c0,0,0-0.1-0.1-0.1c0,0-0.1,0-0.1,0v0c0,0.1,0,0.1,0,0.2c0,0-0.1-0.1-0.1-0.2c-0.1,0-0.1,0-0.1,0c0,0.1,0,0.2-0.1,0.3
			c-0.1,0.1-0.1-0.1-0.2-0.2c-0.1,0-0.2,0-0.3,0.1c0,0.1,0,0.2,0,0.2c0,0-0.1-0.1-0.1-0.2h-0.2c0,0.1,0,0.2,0,0.2
			c0,0-0.1-0.1-0.1-0.2c0,0,0-0.1-0.1-0.1c-0.1-0.2-0.1-0.3-0.1-0.4c0.1,0,0.1,0.1,0.2,0.3c0,0.1,0.1,0.1,0.1,0.2
			c0.1,0,0.1,0,0.2-0.1c0-0.1,0-0.1,0-0.1c-0.1-0.2-0.1-0.4,0-0.5c0.1,0,0.1,0.1,0.2,0.4c0,0,0,0.1,0,0.1c0.1,0,0.1-0.1,0.2-0.1
			c0-0.1,0-0.2,0-0.3c0-0.1,0-0.2,0-0.2c0,0,0.2,0.2,0.2,0.4c0.1,0,0.1,0,0.1-0.1c0,0,0,0,0-0.1c-0.1-0.2-0.1-0.2-0.1-0.3
			c0-0.1,0-0.1,0-0.1c0,0,0.2,0.2,0.2,0.4c0,0,0,0.1,0,0.1c0.1,0,0.1,0,0.1-0.1v-0.5c0-0.1,0-0.2,0.1-0.2c0,0,0.1,0.1,0.1,0.1
			c0,0.1,0.1,0.3,0.1,0.4c0.1,0,0.1,0,0.2-0.1v-0.2c0-0.1,0-0.1,0.1-0.1c0,0,0.1,0.1,0.1,0.3c0.1,0,0.1-0.1,0.2-0.1v-0.3
			c0-0.1,0-0.2,0.1-0.2c0,0,0.1,0,0.1,0.1c0,0.1,0.1,0.2,0.1,0.3c0.1,0,0.1,0,0.2-0.1c0-0.2,0-0.3,0-0.5c0-0.1,0.1-0.2,0.1-0.2
			c0,0,0.1,0,0.1,0.1c0,0.1,0,0.3,0,0.4c0.1,0,0.1-0.1,0.2-0.1c0.2-0.8,0.5-1.9,0.5-2.9c-0.1-0.1-0.1-0.2-0.2-0.3
			c-0.1,1.1-0.1,2-0.5,2.6c0.2-1,0.2-2,0-2.9h-0.1c0,1.2,0,2.2-0.3,2.8c0.1-1,0-2.1-0.3-3.1c-0.1,0-0.1-0.1-0.2-0.1
			c0.3,0.2,0.2,1.1,0.1,1.3c-0.2-0.6,0-0.7-0.5-1.1h-0.1c0.3,0.3,0.3,0.7,0.2,1.1c-0.1-0.3-0.4-0.7-0.6-0.9h-0.3
			c0.4,0.4,0.4,0.5,0.3,0.9c-0.1-0.4-0.7-0.6-1-0.8c-0.1,0-0.1,0-0.3,0c0.3,0.1,0.7,0.7,0.6,0.8c-0.2-0.2-0.6-0.5-0.8-0.8
			c-0.1,0-0.1,0.1-0.2,0.1c0,0.2,0,0.3,0,0.5c-0.3-0.1-0.4-0.1-0.7-0.4c-0.1,0-0.2,0-0.2,0c0,0.1,0.1,0.3,0.2,0.4
			c-0.1-0.1-0.7-0.4-0.7-0.5c0,0,0.1,0-0.2-0.1c0,0.1,0.2,0.6,0.3,0.6c-0.2-0.2-0.4-0.4-0.5-0.6c-0.1,0-0.3,0-0.4-0.1l-0.2-0.4
			c1.3,0.1,2.7,0,4.5-0.3l1.6-0.3c0.5-0.2,0.9,0.1,1,0.9l0.1,0.9c0.3,0.5,0.5,1.1,0.1,1.9c0.1,0.6,0.5,1.1,1,1.6
			c0.5,0.4,0.5,1,0,1.9C-422.8,435.7-423.5,436.5-424.1,437.3L-424.1,437.3z M-425.6,433.5C-425.6,433.5-425.6,433.5-425.6,433.5
			C-425.6,433.5-425.6,433.5-425.6,433.5z M-425.8,433c0.1,0,0.1,0.1,0.1,0.4c0,0.3,0,0.5-0.2,0.5c-0.2,0-0.1-0.3-0.1-0.5
			C-426,433.1-425.9,433-425.8,433z M-426.3,433.2c0-0.1,0.1-0.1,0.1-0.1c0,0,0,0.1,0.1,0.1L-426.3,433.2z M-426.4,433.5h0.2
			c0,0.3,0,0.5-0.1,0.5C-426.4,434-426.4,433.7-426.4,433.5L-426.4,433.5z M-426.7,433.7c0.1-0.2,0.1-0.3,0.1-0.3
			c0.1,0,0.1,0.1,0.1,0.3c0,0.2,0,0.4-0.2,0.4C-426.8,434-426.8,433.8-426.7,433.7z M-427.1,433.7h0.2c0,0.2,0,0.3-0.1,0.3
			C-427.1,434-427.1,433.9-427.1,433.7z M-427.6,430c0,0,0.1,0.2,0.1,0.5c0,0.3-0.1,0.5-0.1,0.5c-0.1,0-0.1-0.2-0.1-0.5
			C-427.7,430.2-427.7,430-427.6,430L-427.6,430z M-427.9,432.9c-0.1-0.1-0.1-0.3,0-0.4c0.1,0,0.1,0.1,0.2,0.3
			c0.1,0.2,0.1,0.3,0,0.3C-427.9,433.1-427.8,433-427.9,432.9z M-428.3,430.4c0-0.3,0.1-0.6,0.1-0.6c0.1,0,0.1,0.3,0.1,0.6
			c0,0.3-0.1,0.6-0.1,0.6C-428.2,431-428.3,430.7-428.3,430.4L-428.3,430.4z M-428.3,432.6c0,0,0.1,0.1,0.1,0.2
			c0.1,0.1,0.1,0.3,0.1,0.3c0,0-0.1-0.1-0.1-0.2C-428.3,432.8-428.3,432.6-428.3,432.6z M-428.7,430.5c-0.1-0.3-0.1-0.5,0-0.5
			c0.1,0,0.2,0.2,0.3,0.4c0.1,0.3,0.1,0.5,0,0.5C-428.5,430.9-428.6,430.7-428.7,430.5L-428.7,430.5z M-429.1,430.6
			c0-0.2,0-0.5,0-0.5c0.1,0,0.2,0.3,0.3,0.5c0.1,0.2,0.1,0.3-0.1,0.4C-429.1,431-429.1,430.9-429.1,430.6z M-429.7,430.5
			c-0.1-0.2-0.1-0.5,0-0.5c0.1,0,0.2,0.2,0.2,0.4c0.1,0.3,0,0.5,0,0.5C-429.5,430.9-429.6,430.7-429.7,430.5z M-430.2,430.4
			c-0.1-0.2-0.1-0.4,0-0.4c0,0,0.1,0.2,0.2,0.4c0.1,0.2,0.1,0.4,0,0.4C-430,430.8-430.1,430.7-430.2,430.4z M-430.7,430.6
			c0-0.2,0-0.4,0-0.4c0.1,0,0.2,0.2,0.2,0.4c0,0.2,0.1,0.3-0.1,0.3C-430.7,430.8-430.7,430.8-430.7,430.6L-430.7,430.6z
			 M-431.2,427.8c0.1,0,0.2,0,0.2,0l0.2,0.4c-0.1,0-0.2,0-0.3-0.1L-431.2,427.8z M-431.2,430.6c0-0.2-0.1-0.3,0-0.3
			c0,0,0.1,0.1,0.1,0.2c0.1,0.1,0.1,0.3,0.1,0.3C-431,430.8-431.1,430.7-431.2,430.6z M-432,427.8c-0.1,0-0.1-0.1-0.3-0.1
			c0.3,0,0.5,0.1,0.8,0.1l0.2,0.3l0,0c-0.1,0,0.3,0.9-0.2-0.1C-431.7,427.9-431.8,427.9-432,427.8z M-431.7,430.5
			c0-0.1,0-0.2,0.1-0.2c0.1,0,0.1,0.2,0.2,0.3c0,0.1,0,0.2,0,0.2C-431.6,430.8-431.7,430.7-431.7,430.5L-431.7,430.5z M-431.7,440.1
			c0,0.1-0.1,0.2-0.3,0.3c-0.2,0.1-0.3,0-0.4,0c-0.1-0.1,0.1-0.2,0.3-0.3C-431.9,440.1-431.7,440.1-431.7,440.1z M-431.5,440.8
			c-0.2,0.1-0.5,0.1-0.5,0c0-0.1,0.1-0.2,0.3-0.3c0.2-0.1,0.5-0.1,0.5,0C-431.1,440.5-431.3,440.7-431.5,440.8L-431.5,440.8z
			 M-432.4,439.6c0.1-0.1,0.3,0,0.3,0c0,0.1-0.1,0.2-0.2,0.2c-0.1,0.1-0.3,0.1-0.3,0C-432.7,439.8-432.6,439.7-432.4,439.6z
			 M-434.9,433.3c-0.3-0.4,0.3-1.5,1.4-2.9c-0.6,0.5-1.2,1.1-1.8,1.8c0.1-0.5,0.5-1.1,1-1.8c-1.1,0.8-1.9,2.1-1.8,4.4
			c-0.4-1.4-0.1-2.7,0.7-4l-1.2,1.3l1.1-1.7l-0.7,0.2l0.1-0.3l-0.4,0.2v-0.3l-0.6,0.5l0.1-0.5c-0.2-0.1-0.3,0.1-0.5,0.3
			c-0.2-0.6,0.5-0.8,1.1-0.5c0.5,0.2,1.2,0.3,2,0.1c0.4-0.1,0.8-0.1,1.3,0c0.4,0.2,0.4,0.4-0.1,0.5
			C-434,431.5-434.7,432.4-434.9,433.3z M-434.1,432.3c0,0,0-0.2,0.1-0.3c0.1-0.1,0.2-0.2,0.2-0.2c0.1,0.1,0,0.2-0.1,0.3
			C-434,432.3-434.1,432.3-434.1,432.3z M-434.4,433.1c0,0,0-0.2,0-0.3c0.1-0.2,0.2-0.3,0.2-0.3c0,0,0,0.2,0,0.3
			C-434.2,433-434.3,433.1-434.4,433.1z M-435,441.7c0-0.1,0.1-0.1,0.2-0.1c0.2,0,0.3,0.1,0.3,0.1c0,0.1-0.1,0.1-0.2,0.1
			C-434.8,441.7-435,441.7-435,441.7L-435,441.7z M-435,441.3c0.2-0.1,0.3-0.1,0.4,0c0,0-0.1,0.1-0.3,0.2c-0.2,0-0.4,0-0.4,0
			C-435.3,441.4-435.1,441.3-435,441.3z M-435.3,441.1c0.3-0.1,0.5-0.1,0.6,0c0,0.1-0.1,0.2-0.4,0.2c-0.3,0.1-0.5,0.1-0.6,0
			C-435.8,441.2-435.6,441.1-435.3,441.1L-435.3,441.1z M-435.5,434c0.1,0,0.1,0.1,0.1,0.4c0,0.2-0.1,0.4-0.1,0.4
			c-0.1,0-0.1-0.2-0.1-0.4C-435.6,434.1-435.5,434-435.5,434L-435.5,434z M-435,440.8c0.1,0.1-0.1,0.2-0.3,0.2
			c-0.2,0.1-0.5,0.1-0.5,0c0-0.1,0.1-0.1,0.3-0.2C-435.3,440.8-435,440.7-435,440.8L-435,440.8z M-435.9,440.1
			c0.1,0,0.3,0.1,0.3,0.1c0,0-0.1,0.1-0.2,0.1c-0.2,0-0.3,0-0.3-0.1C-436.2,440.2-436.1,440.1-435.9,440.1L-435.9,440.1z
			 M-436.5,434.7c0.1,0.2-0.1,0.3-0.1,0.2c-0.2-0.3-0.3-0.7-0.3-1.1C-436.8,434.2-436.7,434.6-436.5,434.7z M-436.8,437.2
			c0.1-0.1,0.2-0.1,0.2,0c0,0.1,0.1,0.2,0.2,0.4c0.1,0.1,0.1,0.3-0.2,0.2C-436.8,437.7-436.9,437.4-436.8,437.2z M-437.2,436.9
			c0.1-0.1,0.3-0.1,0.2,0.1c-0.1,0.2,0,0.3,0.1,0.5c0.1,0.1-0.1,0.4-0.3,0.1C-437.4,437.4-437.4,437.1-437.2,436.9L-437.2,436.9z
			 M-437.8,425.9c-0.1-0.1,0.1-0.2,0.1-0.2l0.3,0.3c0.1,0.1-0.1,0.2-0.2,0.2L-437.8,425.9z M-435.8,424.1c-0.1-0.1,0-0.3,0.1-0.2
			l0.5,0.4c0.1,0.1-0.1,0.3-0.2,0.2L-435.8,424.1z M-436.3,424.2c-0.1-0.1,0-0.3,0.2-0.2l0.5,0.5c0.1,0.1-0.1,0.3-0.2,0.3
			L-436.3,424.2z M-436.6,424.5c-0.2-0.2,0.1-0.4,0.2-0.3l0.6,0.5c0.2,0.1-0.1,0.4-0.2,0.3L-436.6,424.5z M-437.2,425
			c-0.1-0.1,0.1-0.3,0.3-0.3l0.5,0.5c0.1,0.1-0.2,0.4-0.3,0.3L-437.2,425z M-437.5,425.7c-0.1-0.1,0.1-0.2,0.1-0.1l0.3,0.3
			c0.1,0.1-0.1,0.2-0.1,0.1L-437.5,425.7z M-437.3,425.4c-0.1-0.1,0.1-0.3,0.2-0.2l0.3,0.4c0.1,0.1-0.1,0.2-0.2,0.1L-437.3,425.4z
			 M-437.6,419.7c0.1-0.2,0.3-0.3,0.6-0.3l3.9-0.6c0.2,0,0.2,0.1,0.2,0.3c-0.1,0.4-0.1,0.7-0.3,1c-0.2,0.1-0.2-0.4-0.2-1.1
			c-0.3,0.7-0.2,1.4-0.6,1.5c-0.2-0.3,0.1-0.9,0.2-1.4c-0.4,0.4-0.3,0.9-0.7,1.4c-0.1,0-0.1-0.5,0-1.2c-0.2,0.6-0.4,1-0.6,1.2
			c-0.1-0.2-0.1-0.6-0.1-1.1c-0.2,0.8-0.4,1.3-0.5,1.4c-0.1-0.4,0-0.8,0-1.2l-0.1-0.1c-0.1,0.7-0.2,1.1-0.4,1.4
			c-0.1-0.4-0.2-0.9,0.1-1.3h-0.2c-0.1,0.4-0.2,0.7-0.3,0.8c-0.2,0-0.3-0.3-0.3-0.7c-0.2,0.8-0.5,1.2-0.8,1.5
			C-437.9,420.7-437.8,420.2-437.6,419.7L-437.6,419.7z M-438.2,430.4l-0.1,0.3l-0.3,0.6l0.2-0.6l0.1-0.3c-0.1,0-0.2-0.1-0.4-0.1
			l-0.3,0.3l-0.4,0.5l0.4-0.6l0.1-0.2c-0.1,0-0.1,0-0.2,0l-0.3,0.3l-0.4,0.5l0.3-0.5l0.1-0.2h-0.2l-0.2,0.3l-0.4,0.5l0.3-0.6
			l0.1-0.1c-0.1,0-0.2,0.1-0.3,0.1l-0.2,0.5l0.1-0.5c-0.3,0.1-0.5,0.3-0.6,0.5c0-0.5,0.4-0.8,1.1-0.9
			C-438.8,429.8-437.8,430-438.2,430.4L-438.2,430.4z M-441.1,435.3c0.1,0,0.2,0.1,0.3,0.2c0.1,0.2,0.1,0.3,0.1,0.3
			c0,0-0.2-0.1-0.3-0.2C-441.1,435.5-441.1,435.3-441.1,435.3z M-441.2,436.1c-0.1-0.2-0.1-0.3,0-0.3c0,0,0.1,0.1,0.2,0.2
			c0.1,0.1,0.1,0.3,0,0.3C-441,436.3-441.1,436.2-441.2,436.1L-441.2,436.1z M-441.5,436.6c-0.1-0.2-0.1-0.4,0-0.5
			c0.1,0,0.2,0.1,0.3,0.4c0.1,0.2,0.1,0.4,0,0.5C-441.4,436.9-441.5,436.8-441.5,436.6L-441.5,436.6z M-441.8,431.4l-0.2-0.4h-0.1
			c0,0.2,0,0.5,0,0.7l-0.3-0.6c-0.1,0-0.1,0-0.1,0c0,0.3,0,0.7,0,1l-0.4-0.8v-0.1c-0.1,0.2-0.1,0.4-0.1,0.5l-0.1-0.6
			c-0.1,0.2-0.2,0.5-0.3,0.8l0-0.6v-0.2h0.1l0.7-0.5c0.5-0.2,1.1-0.3,1,0.1c0,0-0.1,0.1-0.2,0.1C-441.8,431-441.8,431.2-441.8,431.4
			L-441.8,431.4z M-442.3,434.7c0.5,0.2,0.5,0.6-0.1,0.9C-442.8,435.4-442.8,435-442.3,434.7z M-440.7,435.2c0,0-0.1-0.1-0.2-0.2
			c-0.1-0.1-0.1-0.2-0.1-0.3c0,0,0.1,0.1,0.2,0.2C-440.7,435.1-440.7,435.2-440.7,435.2z M-446.9,430.2c-0.2-0.3-0.6-0.4-1.1-0.6
			c0.5-1.7,1.5-2.6,3.3-2.9c1.7-0.3,3.6-1.2,5.6-2.2c0.9-0.6,1-0.4,0.3,0.9l-1,1.1c-0.5,0.6-0.6,1.2,0.1,1.8c1,0.5,1.4,0.9,1.2,1.3
			c-1.1-0.3-2-0.1-2.9,0.6c-0.6-0.2-1.3-0.1-2.3,0.4c-0.5-0.3-1.1-0.3-1.8-0.1C-445.5,430.2-446,430.1-446.9,430.2z M-444.3,431.4
			c0.1-0.1,0.1-0.1,0.2-0.2h-0.2c-0.2,0.2-0.4,0.4-0.6,0.5l0.2-0.4c0,0,0.1-0.1,0.1-0.1c0,0-0.1,0-0.1,0c-0.1,0.1-0.3,0.2-0.4,0.3
			l0.1-0.3c0.2-0.3,0.3-0.2,0.7-0.3c0.2-0.1,0.8,0.1,0.7,0.3c0,0.2-0.4,0.5-0.8,0.8L-444.3,431.4z M-444.6,433.2l0.1,0.8l-0.3-0.4
			l-0.1,0.7c-0.1-0.3-0.3-0.5,0-1.2c0.2-0.6,0.5-0.8,0.7-0.7c0.2,0.2-0.1,0.7,0.1,1.3L-444.6,433.2z M-444.9,436.3
			c0,0,0.1-0.1,0.3,0c0.2,0,0.3,0.1,0.3,0.1c0,0-0.2,0.1-0.3,0C-444.8,436.4-445,436.4-444.9,436.3L-444.9,436.3z M-444.5,436.1
			c0,0.1-0.2,0.1-0.4,0.1c-0.2-0.1-0.3-0.1-0.3-0.2c0-0.1,0.2-0.1,0.4-0.1C-444.6,435.9-444.5,436-444.5,436.1L-444.5,436.1z
			 M-444.9,435.5c0.2,0.1,0.4,0.1,0.4,0.2c0,0.1-0.2,0.1-0.5,0.1c-0.2,0-0.4-0.1-0.4-0.2C-445.3,435.5-445.2,435.4-444.9,435.5z
			 M-445.8,430.8c0,0.2-0.4,0.5-0.8,0.7l0.3-0.5c0.1,0,0.1-0.1,0.2-0.2h-0.2c-0.1,0.1-0.3,0.3-0.6,0.5l0.2-0.4
			c0-0.1,0.1-0.1,0.1-0.1c-0.1,0-0.2,0-0.3,0l0.5-0.2C-446.2,430.6-445.9,430.7-445.8,430.8L-445.8,430.8z M-447.9,430.8
			c0.1-0.2,0.4-0.3,0.6-0.3c0,0.2-0.4,0.6-0.9,0.9L-447.9,430.8z M-441.1,421.7l-0.1,0.4l-0.1-0.1l0.1-0.3H-441.1z M-440.1,422.8
			c0,0.1-0.3,0.1-0.3,0v-0.3c0-0.1,0.2-0.1,0.2,0L-440.1,422.8z M-439.7,422.5c0,0.1-0.2,0.2-0.2,0l0-0.4c0-0.1,0.1-0.2,0.2,0V422.5
			z M-439.4,422.2c-0.1,0-0.1-0.1-0.1-0.2c0-0.1,0.1-0.2,0.1-0.2c0.1,0,0.2,0.1,0.2,0.2C-439.2,422.2-439.3,422.2-439.4,422.2
			L-439.4,422.2z M-438.8,422c0,0.1-0.3,0.2-0.3,0l0-0.4c0-0.1,0.2-0.3,0.3,0L-438.8,422z M-438.6,421.7c0,0-0.1-0.1-0.1-0.1
			c0-0.1,0.1-0.1,0.1-0.1c0,0,0.1,0.1,0.1,0.1C-438.5,421.6-438.5,421.7-438.6,421.7z M-438.1,421.4c0,0.1-0.3,0.1-0.3,0l0.1-0.5
			c0-0.1,0.3-0.2,0.3,0L-438.1,421.4z M-450.2,432c0.4-0.3,0.7-0.8,1-1.6c0.1-0.2,0.3,0.1,0.2,0.5l-0.2,0.2l0,0.3l-0.3,0v0.5
			l-0.3,0.1c0.3,0.6-0.1,1-0.7,0.7c-0.2,0.8-1.1,0.4-0.6-0.3c1.1-1.7,2.1-3.4,2.3-5.8c0.1-0.8,0.6-1.2,1.2-1.6
			c1.4-0.8,1.9-2.1,1.9-3.6c-0.3-6.5,1.5-9.4,4.3-10.5l-0.1,0.3c-2.5,1.5-3.5,4.5-3.6,8.5c0,0.9-0.1,1.8,0,2.8l0.1-0.2
			c0.1-2.4,0.1-4.4,0.4-5.8c0.3-1.5,0.8-2.4,1.3-3.1c0.2-0.2,0.3-0.5,0.5-0.7c0.2-0.2,0.5-0.3,0.7-0.5l0,0.2c-0.9,1-1.8,2.2-2.1,3.7
			c-0.4,1.8-0.4,3.9-0.3,6.1c0,0.3-0.1,0.6-0.2,0.8l0.1-0.1c0.2-0.3,0.3-0.7,0.3-1.2c-0.2-2.7,0-5.3,0.9-7.2
			c0.7-1.3,1.1-1.8,2.9-2.8l-0.1,0.2c-1.6,1.1-3,2.3-3.3,6.5l0.1-0.1c0.3-3.2,1.4-5.5,3.6-6.4c0.8-0.3,1.6-0.3,2.6-0.3l-0.2,0.1
			c-1.5-0.1-2.8,0.4-3.9,1.6l0.2,0.1c1.1-1.1,2.3-1.7,3.9-1.4l-0.1,0.2c-1.1-0.2-2,0.2-2.9,0.9v0.1c1-0.7,1.9-1,2.7-0.8
			c0.3,0,0.4,0.3,0.3,0.6l-0.2,1.6c0,1.5-0.1,3-0.5,4.4l-0.1,0.1l0.1-2.6l-0.6,3.3c-0.1,0.4-0.3,0.3-0.3,0c0.1-0.7,0.4-1.6,0.5-2.7
			c-0.1,0-0.3,0.1-0.3,0.3c-0.2,1.4-0.4,2.6-0.7,3c0.2-0.9,0.3-1.8,0.3-2.7l-0.2,0.1l-0.4,2.5c0.3,0.2-0.1,0.4-0.2,0.1l0.1-1.4
			l-0.1,0l-0.6,2.2l0.2-1.5l-0.5,1.5h-0.2l0.3-1.3l-0.9,2.4c-0.3,0.1-0.3,0-0.1-0.4l0.5-1.6l-0.2,0c-0.3,1.2-0.6,2-1,2.3l-0.1,0
			c0.6-1.1,0.7-1.6,0.7-2.1c-0.3,1-0.6,1.7-1.2,2.3c-0.1-0.1,0-0.3,0.4-1l0.3-0.8c-0.1-0.2-0.2-0.1-0.3,0.1
			c-0.2,0.7-0.4,1.2-0.8,1.7l0.4-1.4l-0.1-0.2c-0.3,0.8-0.6,1.5-1.1,2l0.2,0.1c0.8-0.5,1.8-0.3,2.9-0.8c0.2-0.1,0.5-0.2,0.6-0.1
			l-0.2,0.6l-0.2-0.3c-0.1,0.4-0.3,0.8-0.5,1l-0.1-0.6c-0.5,1-0.8,1.6-0.8,1.1l0.1-0.6c-0.3,0.3-0.6,0.8-0.7,1.2
			c-0.2,0-0.2-0.4-0.1-0.9l-0.3,1.1c-0.3,0.1-0.3-0.2-0.2-0.9c-0.2,0.6-0.4,1-0.5,1c-0.1-0.2-0.1-0.5-0.1-0.8l-0.3,0.5
			c0,0.4-0.1,0.5-0.3,0.5c0.1-0.6,0.1-0.8,0-0.7l-0.3,0.9c-0.2,0.1-0.3-0.1-0.2-0.6c-0.3,0.2-0.2,0.8-0.5,1.1
			c-0.2-0.1-0.2-0.4-0.2-0.7c-0.1,0.5-0.3,0.8-0.5,0.8l-0.1-0.9c-0.1,0.4-0.2,0.8-0.4,1.1l-0.3-0.7l-0.1,0.7
			c-0.2,0.1-0.4-0.1-0.5-0.5c0,0.9-0.1,1.6-0.7,2c0.1,0.2-0.2,0.8-0.5,1.5l0.9-1.4c0.2-0.1,0.3,0.1,0.2,0.5l-1,1.5
			c-0.1,0.2-0.3,0.1-0.5,0C-449.5,430.9-449.9,431.5-450.2,432L-450.2,432z M-449.3,436.3c-0.3-0.1-0.5-0.3-0.5-0.7l-0.3-1.2
			c0.4-0.2,0.5,0,0.6,0.5c0.3,0.3,0.5,0.5,0.5,0.7C-448.3,436.1-448.4,436.4-449.3,436.3z M-448.9,437.1c0-0.2,0.1-0.3,0.1-0.3
			c0.1,0,0.2,0.1,0.2,0.3c0,0.2,0,0.3-0.1,0.3C-448.8,437.5-448.9,437.3-448.9,437.1L-448.9,437.1z M-449.2,438
			c-0.2,0-0.4-0.1-0.6-0.3c-0.3-0.3-0.3-0.8-0.1-1.1c0.2-0.3,0.5-0.2,0.6,0.2h-0.3c0.3,0.2,0.5,0.4,0.5,0.6l-0.4-0.1
			c0.3,0.2,0.5,0.4,0.5,0.6l-0.3-0.2L-449.2,438z M-450.7,430.1c0.1,0,0.2,0,0.3,0c0,0.1-0.3,0.1-0.6,0.1L-450.7,430.1z
			 M-450.2,429.3c-0.5,0.4-0.9,0.7-1.1,0.6c0-0.2,0.2-0.4,0.5-0.5L-450.2,429.3z M-450.5,429c-0.4,0.3-0.8,0.4-0.9,0.4
			c0-0.2,0.2-0.3,0.4-0.4H-450.5z M-451.6,428.2c0.1-0.1,0.3-0.1,0.4-0.1c0,0.1-0.3,0.3-0.7,0.4L-451.6,428.2z M-451.6,427.7
			c0.2-0.1,0.4-0.1,0.6,0c-0.1,0.2-0.5,0.3-1,0.4L-451.6,427.7z M-451.7,427.2c0.2-0.1,0.5-0.1,0.6,0c-0.1,0.1-0.5,0.3-1.1,0.4
			L-451.7,427.2z M-451.8,426.8c0.2-0.1,0.4-0.2,0.6-0.1c-0.1,0.2-0.5,0.4-1,0.5L-451.8,426.8z M-451.6,426c0.1-0.1,0.3-0.1,0.4-0.1
			c0,0.1-0.4,0.3-0.7,0.4L-451.6,426z M-445.1,411.1l1.1-0.2l-0.1,0.2L-445.1,411.1z M-450.3,424.1c0.2,0,0.5,0,0.6,0.1
			c-0.1,0.2-0.6,0.2-1.1,0.1L-450.3,424.1z M-450.2,422.5l0.4-0.1c0.2,0,0.4,0.1,0.4,0.2C-449.5,422.7-449.8,422.6-450.2,422.5
			L-450.2,422.5z M-450.4,423.9l0.2-0.1c0.1-0.1,0.3,0,0.3,0C-449.9,423.8-450.1,423.9-450.4,423.9L-450.4,423.9z M-450.1,422.9
			c0.2-0.1,0.4-0.1,0.5,0c-0.1,0.1-0.5,0.2-0.9,0.3L-450.1,422.9z M-452,418.2c0.1-1.3,0.4-2.5,0.9-3.6c0.5-1.2,1.4-2.5,2.4-3.5
			c0.6-0.6,1.1-0.7,1.9-1.2h-0.1c-0.6,0.2-1,0.4-1.5,0.8c-1.1,0.9-2,2.2-2.6,3.4c-0.6,1.1-0.9,2.4-1.1,4c-0.1,0.8-0.5,1.5-0.8,1.8
			c-0.5,0.6-0.8,0.2-1.5,1.9l-0.1,0.1c0.1-0.3,0.3-0.8,0.4-1.1c0.2-0.3,0.4-0.4,0.7-0.8c0.5-0.6,0.9-1.3,1.1-2.4
			c0.1-0.9,0.3-2,0.6-2.8c0.3-0.9,0.5-1.3,0.9-1.8c1-1.4,1.4-2.3,3.7-3.5l-0.2,0c-1.7,0.7-2.8,1.8-4.1,4.1c-1.1,1.7-0.8,3.9-1.6,5.5
			c-0.3,0.6-1,1.4-1.3,1.7l-0.1,0c0.2-0.7,0.9-1.2,1.3-1.8c0.2-0.4,0.3-1.1,0.4-1.7c0.5-3.1,1.3-4.5,2.7-6h-0.2
			c-2.8,3-2.4,5.1-3,7.2c-0.4,1.4-0.9,1.2-1.9,3.1c0-0.3,0.1-0.5,0.1-0.7c0.1-0.3,0.4-0.5,0.8-1.2c0.4-0.6,0.8-1.6,1-3.2
			c0.1-0.7,0.3-1.3,0.5-1.9c0.2-0.6,0.4-1,0.7-1.4c1.1-1.7,2-2.8,3.3-3.5v-0.1c-1.4,0.6-2.5,2-3.5,3.5c-0.5,0.9-0.8,1.5-1.1,2.5
			c-0.2,0.7-0.3,1.8-0.6,2.8c-0.2,0.7-0.6,1.2-0.9,1.6c-0.3,0.3-0.5,0.7-0.6,0.8c0.1-0.5,0.1-1,0.9-1.6c0.2-0.2,0.4-0.5,0.5-0.8
			c0.1-2.4,0.8-4.4,2.1-6.4c-0.5,0.1-0.8,0.6-1.3,1.4c0.7-2.2,2-4.6,4.5-5.2c1.3-0.3,3.2,0.6,5,2.2c-1.5,0.1-2.8,0.4-3.6,1l-0.1-0.2
			c0.4-0.4,1.1-0.7,1.9-1l-0.2,0c-1.1,0.3-2.2,0.8-3.3,2l-0.2,0c0.9-1.4,2.1-2,3.4-2.4l-0.5,0c-0.8,0.2-1.7,0.8-2.5,1.6
			c-1.4,1.4-2.4,3.5-2.9,6.4C-451.9,418.3-451.9,418-452,418.2z M-455.5,422.5c0-0.3,0.3-0.3,0.3-0.1c0.1,0.4-0.1,0.5-0.1,0.8
			C-455.4,423-455.5,422.7-455.5,422.5L-455.5,422.5z M-454.4,418.6c-0.5,0.7-0.9,1.1-1.2,1.3c0.1-0.5,0.5-0.9,0.9-1.5
			C-454.4,418-454.3,418.3-454.4,418.6z M-438.2,411.5c-0.3,0-0.6,0-0.6-0.1c0-0.1,0.3-0.1,0.6-0.1c0.3,0,0.6,0,0.6,0.1
			C-437.7,411.5-437.9,411.5-438.2,411.5z M-439.1,410.8h1.2c0.5,0,0.4,0.5,0,0.4h-0.9c-0.8,0-1.4,0.2-2,0.5
			c-0.3,0.2-0.4-0.1-0.1-0.3C-440.4,410.9-439.8,410.8-439.1,410.8z M-438.5,406.5c-0.2,0.3-0.4,0.4-0.4,0.3c-0.1-0.1,0-0.3,0.2-0.6
			c0.2-0.3,0.4-0.4,0.4-0.3C-438.3,406-438.4,406.2-438.5,406.5z M-439.5,405.2c-0.2,0.3-0.4,0.7-0.9,0.9c0.3-0.5,0.4-0.7,0.3-0.9
			c-0.4,0.5-0.7,0.8-1.2,0.9l0.2-0.5c-0.3,0.1-0.4,0.5-0.9,0.4l0.4-0.6l-0.7,0.3l0.1-0.4l-0.6,0.4l0.2-0.5l-0.7,0.3l0-0.3l-0.5,0.1
			v-0.4l-0.4,0.2l-0.1-0.3l-0.5,0.2l0-0.4l-0.4,0.2l-0.1-0.2l-0.5,0.2l-0.1-0.4l-0.4,0.4l-0.1-0.3c-0.2,0.1-0.3,0.4-0.5,0.4
			l-0.1-0.4c-0.2,0.2-0.4,0.5-0.6,0.6l0.1-0.5c-0.3,0.2-0.5,0.6-0.8,0.7l0.1-0.5c-0.2,0.2-0.4,0.6-0.6,0.6l0.2-0.5
			c-0.3,0.2-0.7,0.6-0.9,0.6l0.1-0.5c-0.1,0.1-0.3,0.3-0.4,0.3l0.1-0.3c0.3-0.7,0.9-0.8,1.6-0.7c1.6,0.1,3.2,0.1,4.8,0.5
			c2.4,0.7,4.1,0.5,5.3-0.4c0.4-0.1,0.5,0,0.3,0.4c-0.1,0.5-0.4,0.6-0.7,0.5c-0.1,0.3-0.3,0.5-0.5,0.7l0-0.6
			c-0.3,0.4-0.5,0.6-0.8,0.7L-439.5,405.2z M-439.5,407c-0.1-0.1,0-0.3,0.1-0.5c0.1-0.2,0.3-0.3,0.3-0.3c0,0.1,0,0.3-0.1,0.5
			C-439.3,407-439.5,407.1-439.5,407z M-440.1,407c0,0,0-0.2,0.1-0.4c0.1-0.2,0.2-0.3,0.3-0.2c0.1,0.1,0,0.2-0.1,0.4
			C-439.9,407-440,407.1-440.1,407z M-441.2,406.8c0-0.1,0.2-0.2,0.5-0.2c0.3,0,0.5,0.1,0.5,0.2c0,0.1-0.2,0.2-0.5,0.2
			C-441,407-441.2,406.9-441.2,406.8z M-432.7,408.3c-0.1-0.1,0.1-0.3,0.3-0.4c0.2-0.2,0.5-0.3,0.5-0.3c0.1,0.1-0.1,0.3-0.3,0.5
			C-432.5,408.2-432.7,408.3-432.7,408.3z M-431.1,412.7l0.2-0.9c0.2-0.1,0.3-0.1,0.3,0.2L-431.1,412.7L-431.1,412.7z M-431.5,420.3
			c0.3,0.2,0,0.5-0.2,0.4l-0.9-0.6c-0.3-0.2,0-0.7,0.3-0.5L-431.5,420.3z M-431.6,419.6c0.3,0.2,0.1,0.4-0.2,0.3l-0.6-0.4
			c-0.3-0.2,0.1-0.6,0.3-0.4L-431.6,419.6z M-431.2,411.9c-0.2,1.3-0.5,2.3-0.5,4l-0.1-0.3c0.1-1.5,0.1-2.4,0.4-3.8
			C-431.3,411.6-431.1,411.6-431.2,411.9z M-432.1,416.2c-0.1-1.6,0-3.1,0.3-4.4c0.1-0.1,0.2-0.1,0.2,0.1
			C-431.9,413-432,414.5-432.1,416.2L-432.1,416.2z M-434.5,408.6c0-0.1,0.1-0.2,0.2-0.2c0.1,0,0.2,0.1,0.2,0.2
			c0,0.1-0.1,0.2-0.2,0.2C-434.5,408.8-434.5,408.7-434.5,408.6z M-433.9,408.3c0.1,0,0.1,0.1,0.1,0.1c0,0.1-0.1,0.2-0.1,0.2
			c-0.1,0-0.1-0.1-0.1-0.2C-434,408.3-434,408.3-433.9,408.3z M-433,408.4c0.1,0.1-0.2,0.4-0.6,0.7c-0.4,0.3-0.7,0.4-0.8,0.3
			c0-0.1,0.2-0.4,0.6-0.6C-433.4,408.5-433,408.3-433,408.4z M-435.2,411.3c-0.6,2.2-0.7,4.1-0.3,5.9c-0.3-3,0-4.7,0.5-5.6v0.3
			c-0.4,2.1-0.4,3.8-0.1,5.2l0.1-0.1c-0.2-1.9-0.2-3.7,0.2-5.6l0.2,0c-0.4,2.2-0.4,3.9-0.1,5.5l0.1-0.1c-0.2-2.3-0.2-3.9,0.2-5.3
			l0.2,0c-0.3,2.2-0.4,3.9-0.1,5.3l0.1,0c-0.2-2.4-0.1-4.1,0.2-5.4l0.1,0.1c-0.2,1.7-0.2,3.4,0,5.1l0.1-0.1
			c-0.1-2.1-0.2-3.7,0.1-4.9l0.1-0.2c-0.2,1.5-0.2,3.2,0,5.1h0.1c-0.2-2.2-0.1-3.9,0.1-5.3l0.1,0.1c-0.1,1.8-0.1,3.5,0,5.3l0.1,0
			c-0.1-2.5,0-4.2,0.2-5.2c0.2-0.1,0.2,0.2,0,0.5c-0.2,1.5-0.2,3,0,4.6l0.2,0c-0.2-2.4,0-3.8,0.2-5.1c0.1-0.1,0.3,0,0.1,0.4
			c-0.2,1.7-0.3,2.8-0.1,4.7h0.2c0.2,0.1,0.3,0.2,0,0.3c-1.4,0.3-2.8,0.5-4.1,0.6c-0.3,0-0.4-0.1-0.4-0.5c-0.1-2,0.1-3.9,0.6-5.6
			l0.1,0c-0.4,2.1-0.6,4-0.3,5.8c-0.1-2.7,0.2-5.6,0.7-6.1L-435.2,411.3z M-436.1,411.5l-0.1,0.1l-0.6,0.1l0.3,0.2l-0.2,0.2l0.4,0
			l0,0.2l-0.4,0.2c0.3,0,0.5,0.1,0.4,0.2l-0.4,0.2l0.3,0.1l-0.4,0.2l0.3,0.2l-0.4,0.1c0.3,0.1,0.4,0.2,0.4,0.3l-0.5,0.2
			c0.3,0.1,0.3,0.2,0.3,0.3l-0.4,0.2l0.3,0.3l-0.3,0.1c0.3,0.1,0.3,0.3,0.3,0.4l-0.4,0.1c0.3,0.1,0.5,0.2,0.4,0.3l-0.5,0.2l0.5,0.1
			v0.1l-0.5,0.1c0.3,0.1,0.5,0.3,0.5,0.4l-0.4,0.3l0.5,0.1l-0.4,0.3c0.3,0,0.4,0,0.4,0.2l-0.4,0.2c0.3,0.1,0.7,0.1,1,0.2l0.1,0.1
			l0.1-0.1c0.2-0.1,0.4-0.1,0.6,0l0.2,0.3l0.1-0.3l0.2,0.4l0.2-0.5l0.2,0.6l0.2-0.7l0.2,0.5l0.2-0.6l0.1,0.5l0.1-0.6l0.3,0.5
			l0.2-0.7l0.3,0.6l0.2-0.5l0.2,0.4l0.1-0.5l0.2,0.3c0.2,0.3-0.2,0.6-0.5,0.6l-4.3,0.7c-0.3,0-0.5-0.2-0.6-0.7
			c-0.2-1.1-0.1-2.1,0-3.1c0.3-2.3,0.6-3.5,1-4.2c0.2,0,0.3,0.1,0.3,0.2l-0.3,0.2L-436.1,411.5z M-428.3,411.6l-1.8,1.8
			c0.2-0.2,0.4-0.3,0.6-0.5c0.8-0.7,1.2-1.2,1.1-0.8c-0.2,0.5-0.6,0.9-1.1,1.2l-0.7,0.8l-0.1,0.2c0.8-0.8,1.2-1,1.3-0.8l-1.4,1.6
			l1.5-1.2c-0.5,0.8-1.1,1.4-1.9,1.9v0.1c0.8-0.7,1.5-1.1,1.5-0.9c-0.1,0.3-0.7,0.9-1.3,1.4l0.8-0.4c0.1,0.3-0.1,0.5-0.5,0.7
			c-0.4,0.1-0.7,0.3-0.7,0.5l0.5-0.2c0,0.2-0.3,0.5-0.7,0.8l0.6-0.2c0,0.1-0.2,0.4-0.8,0.8l0.6-0.1c0,0.1-0.1,0.3-0.3,0.5l0.8-0.3
			c0,0.2-0.1,0.3-0.4,0.4l0.1,0.1c0.5-0.3,0.5-0.1,0.3,0c0.1,0.1,0.4-0.1,0.2,0.4c0.3-0.1,0.5,0,0.5,0.2c0.6,0.1,0.6,0.7,0,0.6
			c-0.3,0-0.6,0.1-0.9,0.1c-0.3,0.1-0.5,0.1-0.6-0.3c-0.2-0.8-0.5-1.2-0.8-1.4c-1-0.4,0.2-1,0.3-1.4c0.1-0.5,0.3-0.7,0.5-0.8
			c-0.3,0-0.3-0.2,0-0.7c-0.2,0-0.3-0.1,0.3-0.8c-0.4,0.1-0.5,0,0.1-0.8c-0.5,0.3-0.5,0.1,0-0.6c-0.3-0.1-0.2-0.3,0.1-0.6
			c-0.5,0-0.4-0.2-0.1-0.3c1-0.5,2.1-1.8,2.3-1.6L-428.3,411.6z M-429.1,420.7c0.2,0,0.4,0.1,0.6,0.3l0.5,0.6c0.2,0.3,0,0.5-0.2,0.4
			c-0.7-0.2-1.3-0.5-2-0.8c-0.1-0.2-0.1-0.3,0.1-0.4L-429.1,420.7z M-428.1,422.5c-0.4,0-0.9,0-1.3-0.3c-0.4-0.2-0.8-0.5-1.2-0.8
			c-0.1-0.1,0-0.3,0.2-0.2c0.9,0.5,1.6,0.7,2.4,0.9C-427.7,422.3-427.8,422.5-428.1,422.5z M-425.1,417.3c-0.1,0.9-0.2,1.6-0.5,1.9
			v-1.6l-0.1,0c-0.1,0.8-0.2,1.4-0.4,1.6l0.1-1.4h-0.1l-0.3,1.4l0.1-1.2c0-0.2-0.1-0.2-0.1-0.1c-0.2,1.4-0.5,2.1-0.8,2.2
			c0.3-0.9,0.3-1.5,0.2-2.1l-0.1-0.1c-0.1,0.8-0.2,1.5-0.5,2c-0.3-0.4,0.3-1.2,0.1-1.9h-0.1l-0.5,1.8c-0.2,0-0.1-0.2,0.1-0.7l0-1
			l-0.1,0.1c-0.1,0.5-0.3,0.9-0.5,1.3l0.1-1.3l-0.4,0.9l0-0.8l-0.4,0.2c0.2-0.3,0.4-0.5,0.8-0.7c1-0.1,2-0.3,2.9-0.7
			C-425.2,416.9-425.1,417-425.1,417.3L-425.1,417.3z M-425.3,416.6c0-0.3,0-0.5-0.2-0.9c-0.1-0.1,0.1-0.2,0.2-0.1
			c0.3,0.3,0.3,0.5,0.3,0.7C-425.1,416.6-425.3,416.8-425.3,416.6z M-425,419c0,0,0-0.1,0-0.2c0-0.1,0-0.2,0-0.2s0.1,0.1,0.1,0.2
			C-425,418.9-425,419-425,419z M-424.8,418.3c0,0.1,0,0.1-0.1,0.1c-0.1,0-0.1,0-0.1-0.1c0-0.1,0.1-0.1,0.1-0.1
			C-424.8,418.2-424.8,418.2-424.8,418.3z M-424.7,416.7c0,0.1,0,0.3-0.1,0.3c0,0-0.1-0.1-0.1-0.2c0-0.1,0-0.3,0-0.3
			C-424.8,416.4-424.8,416.5-424.7,416.7z M-424.9,417.4c0-0.3,0.4-0.2,0.2,0.1l-0.2,0.4h-0.1L-424.9,417.4z M-427,416.3
			c0.2-0.1,0.3-0.2,0.3-0.4l-0.1-1.9c-0.1-0.4,0.2-0.2,0.3,0c0.2,0,0.2,0.1,0.1,0.3c0.5,0.1,0.6,0.2,0.4,0.4l-0.4,0.1l0.5,0.1
			c0.2,0.1,0.2,0.3,0,0.3l-0.5,0.1l0.6,0.1c0.3,0,0.3,0.1-0.1,0.3l-0.3,0.2l0.4,0.1c0.2,0,0.3,0.1,0.2,0.3c0.1,0.7,0,1.1-0.6,1.1
			l-1.9,0.4c-0.1-0.1-0.2-0.1-0.1-0.1c0,0,0-0.1,0-0.1c0,0,0.1-0.1,0.1-0.1c0,0,0.1,0,0.1,0.1c0.1,0,0.2,0,0.3-0.1v-0.6l-0.3,0.1
			v0.1c0,0.1-0.1,0.2-0.1,0.2c-0.1,0-0.1-0.1-0.1-0.2v0l-0.1,0c-0.3-0.1-0.3-0.2,0-0.3L-427,416.3z M-427.4,415.1
			c0-0.3,0.3-0.1,0.3,0.1l-0.1,0.5c-0.1,0.1-0.1,0-0.2-0.1L-427.4,415.1z M-427.2,416c0,0.1,0,0.1-0.1,0.1c-0.1,0-0.1-0.1-0.1-0.1
			c0-0.1,0.1-0.1,0.1-0.1C-427.3,415.8-427.2,415.9-427.2,416L-427.2,416z M-431.7,409.1c0.2-0.2,0.5-0.4,0.8-0.5
			c-0.2,0.2-0.4,0.4-0.6,0.6l0.2,0.1c0.3-0.2,0.6-0.3,0.9-0.4c-0.1,0.1-0.3,0.2-0.4,0.3c0.2-0.1,0.4-0.1,0.7-0.1
			c-0.4,0.2-0.6,0.2-0.9,0.3l0.2,0.1c0.3-0.2,0.6-0.3,0.9-0.3c-0.2,0.1-0.4,0.3-0.7,0.4l0.2,0.1c0.3-0.1,0.6-0.2,0.8-0.2
			c-0.2,0.1-0.4,0.2-0.6,0.3l0.1,0.1c0.3-0.1,0.5-0.2,0.8-0.2c-0.2,0.1-0.4,0.2-0.6,0.3l0.2,0.1c0.2-0.1,0.5-0.1,0.7-0.1
			c-0.2,0.1-0.3,0.1-0.5,0.2l0.6,0.4l-0.1,0.1l-0.9-0.3c-0.1,0-0.1,0-0.1,0.1c0,0,0-0.1,0.1-0.1l-0.2-0.1c-0.1,0.1-0.3,0.1-0.4,0.2
			c0.1-0.1,0.1-0.2,0.2-0.3l-0.2-0.1c-0.1,0.1-0.3,0.1-0.4,0.2c0.1-0.1,0.1-0.2,0.2-0.3l-0.2-0.1c-0.2,0.1-0.3,0.2-0.5,0.3
			c0.1-0.1,0.2-0.3,0.3-0.4l-0.3-0.1c-0.1,0.1-0.3,0.3-0.4,0.4c0-0.2,0.1-0.3,0.2-0.4l-0.3-0.1c-0.1,0.1-0.3,0.3-0.5,0.4
			c0.1-0.2,0.2-0.3,0.3-0.5l-0.5-0.2c-0.2,0.2-0.3,0.3-0.5,0.5c0.1-0.2,0.2-0.4,0.3-0.6l0,0c0-0.3,0.3-0.6,0.7-0.8l0.1,0
			c0.1-0.1,0.3-0.2,0.4-0.3c-0.1,0.1-0.1,0.3-0.2,0.4l0.1,0.1c0.2-0.2,0.5-0.4,0.7-0.5c-0.2,0.2-0.3,0.4-0.5,0.6L-431.7,409.1z
			 M-436.3,405.6c0.2-0.3,0.3-0.5,0.4-0.4c0,0-0.1,0.2-0.3,0.5c-0.2,0.3-0.3,0.4-0.4,0.4C-436.6,406.1-436.5,405.8-436.3,405.6z
			 M-436.7,407.3c0,0.1,0,0.2,0.2,0.1c0.3-0.9,0.7-1.4,0.9-1.5l-0.5,1.4c0.2-0.4,0.3-0.6,0.4-0.5l-0.1,0.4c0.2-0.5,0.4-0.7,0.5-0.6
			l-0.1,0.4c0.1-0.2,0.2-0.3,0.3-0.4l0.1,0.3c0.1-0.3,0.2-0.5,0.4-0.6l0.1,0.3c0.2-0.3,0.4-0.6,0.8-0.9l-0.2,0.6l0.7-0.3
			c0.4-0.1,0.4,0,0.1,0.3l-1.4,0.7c-1.1,0.6-2.2,1-3.4,0.7c-0.3-0.1-0.4-0.3-0.2-0.5c0.1-0.2,0.3-0.4,0.5-0.4v0.4l0.7-1l-0.4,1.2
			c0.3-0.7,0.6-1,0.9-1L-436.7,407.3z M-445,401.6c1-0.1,1.6-0.2,2.4-0.6c0.4-0.1,0.8-0.3,1.3-0.7c0.2-0.2,0.1-0.2-0.1-0.2l-1,0.1
			v-0.5l-0.4,0.5l-0.1-0.5l-0.3,1l-0.1-1.1l-0.3,1.2l-0.1-1.1l-0.4,1.3l-0.1-1.4l-0.3,1.4l-0.3-1.4l-0.2,1.4l-0.3-1.4l-0.1,1.3
			l-0.4-1.3l0,1.4l-0.4-1.3l-0.1,1.2l-0.3-1.2l-0.1,1l-0.2-1l-0.1,1c-0.4-0.8-0.6-1.5-0.3-1.8c0.4-0.5,1-0.6,1.6-0.5
			c0.1-0.2,0.4-0.4,0.6-0.6l0,0.3l0.7-0.2l0.1,0.2l0.8-0.4c-0.4,0.6-0.5,0.8-0.4,0.8c0.1,0,0.7-0.6,0.8-0.5c-0.4,0.6,0,0.4,0.6-0.1
			c0.2,0.1-0.2,0.5-0.2,0.5c0.1,0.1,0.3-0.1,0.7-0.4c0.1-0.1,0.4-0.4,0.4-0.2c0,0.2-0.1,0.3-0.2,0.4c-0.5,0.5-0.3,0.5,0.5-0.1
			c0.1-0.1,0.3-0.2,0.4-0.1c-0.5,0.7-0.3,0.6,0.5,0.1c0.1-0.1,0.3-0.3,0.4-0.1c-1,0.9-0.8,1,0.5,0.4c-0.6,0.7-0.5,0.7,0.5,0.1
			c0.1,0,0.2,0,0.3-0.1c-0.4,0.4-0.5,0.7-0.3,0.6c0.3-0.1,0.7-0.3,0.9-0.3c-0.4,0.4-0.4,0.6,0.1,0.5c0.2,0.1,0,0.3-0.5,0.6
			c-0.1,0.1-0.2,0-0.3-0.4c-0.1,0.2-0.2,0.2-0.2,0.1l-0.1,0.8l-0.2,0v-0.4c-0.1-0.1-0.2-0.1-0.3,0l-0.1,0.6l-0.3-0.1
			c-0.1,0.2-0.2,0.4-0.4,0.5c-0.2-0.2-0.3-0.2-0.3,0c-0.1,0-0.2,0-0.3,0c-0.1,0.3-0.2,0.3-0.3,0.1c-0.2,0.1-0.5,0.3-0.7,0.5
			l-0.1-0.3c-0.2,0.3-0.4,0.5-0.5,0.4l-0.2-0.2l-0.3,0.5l-0.5,0.1c0,0.1,0.2,0.1,0.5,0.1c0.5-0.1,1.4-0.3,1.9-0.4
			c0.6-0.2,1.2-0.3,1.9-0.5c0.5-0.3,1.2-0.7,1.8-1c0.1,0.1,0,0.4-1.2,1.4l-0.6-0.2l0.3,0.4c-0.1,0.1-0.3,0.2-0.4,0.2l-0.5-0.3
			l0.2,0.5c-0.4,0-0.6-0.5-0.9-0.3l0.1,0.4l-0.8-0.2l0.1,0.5l-0.7-0.3l-0.1,0.3c-0.2,0-0.3,0.1-0.3,0.1c1.5,0.3,3.2-0.3,4.9-1.1
			c0.1,0,0.1,0,0.1,0.2c-0.1,0.7-0.6,1.3-1.4,1.8l0.2-0.9c-0.5,0.2-1.1,1.4-1.5,1.5l0.5-1.2l-1.3,1.1c-0.1-0.1,0.1-0.5,0.3-0.9
			c-0.4,0-1.1,0.9-1.2,0.9c-0.3-0.1,0.2-0.4,0.4-0.6c-0.4,0-0.6,0.3-1,0.5c0-0.2,0.2-0.4,0.5-0.7l-1.1,0.5c0-0.2,0.4-0.4,0.5-0.7
			c-0.5,0.4-1,0.6-1.1,0.6l0.3-0.6l-1,0.5l0.6-0.6l-1,0.5l0.3-0.5l-0.7,0.5l0.3-0.6c-0.4,0.3-0.7,0.5-0.9,0.5
			c0.2-0.3,0.3-0.5,0.3-0.6c-0.3,0.3-0.7,0.5-0.8,0.5l0.1-0.5c-0.3,0.3-0.6,0.5-0.9,0.6l0.3-0.6c0.1-0.1,0-0.2-0.1-0.1l-0.8,0.6
			c0.2-0.3,0.3-0.5,0.1-0.6l-0.5,0.3l0.1-0.3l-0.6,0.7c-0.1,0,0-0.2,0.1-0.5l-0.7,0.4c0.3-0.7,0.9-1.1,1.7-1.4
			C-446.3,401.8-445.6,401.7-445,401.6z M-444.6,394.6c0.3-0.9,0.6-1,1-0.2c0.6,0,0.7,0.8,0.6,2.1l-0.5-1.4v0.9
			c-0.3-1.5-2.6-0.6-2.1-1C-445.1,394.3-444.8,394.1-444.6,394.6z M-442.6,395.7c-0.1-0.2-0.1-0.4,0-0.4c0.1,0,0.2,0.1,0.2,0.3
			c0.1,0.2,0.1,0.4,0,0.4C-442.4,396-442.5,395.9-442.6,395.7z M-442,393.3l-0.2,0.7l-0.2-1.1c-0.1-0.1-0.2,0.5-0.1,1.5
			c-0.3-0.3-0.2-1-0.2-1.8l-0.3,0.8c-0.2-0.4-0.1-1,0-1.6c-0.2-0.1-0.3,0.2-0.3,1c-0.2-0.6-0.2-1-0.1-1.6l-0.2,0.4l-0.1-1
			c1,0.9,1.8,2,2.4,3.3v1.1l-0.4-1.2c0,0.8,0,1.4-0.1,1.2L-442,393.3z M-444.5,390c-0.4-0.4-0.3-1,0.1-1.5c0.4-0.5,1-0.5,1.5-0.1
			c0.3,0.2,0.2,0.3-0.1,0.3c-1,0-1.4,0.5-1.2,1.2C-444.2,390.1-444.3,390.2-444.5,390z M-445.4,388.6l-0.5-0.6
			c-0.3-0.3-0.4-0.6-0.2-0.9l0.4-0.5c0.3-0.2,0.6-0.3,0.9-0.3c0.1,0.1,0.2,0.2,0.1,0.4c-0.5,0-0.9,0.3-1.1,0.8
			c0.4-0.4,0.8-0.7,1.2-0.7c0.2,0.1,0.3,0.2,0.3,0.3c-0.2-0.1-0.3,0-0.4,0.1c-0.1,0.1-0.3,0.3-0.7,0.5c0.3-0.1,0.6-0.2,0.9-0.4
			c0.2,0.1,0.2,0.2,0.2,0.4c-0.1,0.1-0.2,0.2-0.4,0.3c-0.3,0-0.3,0.1-0.3,0.4C-444.8,388.8-445,388.9-445.4,388.6z M-448.7,382.6
			c-0.1-0.2,0-0.2,0.1-0.1c0.9,1.1,1.7,2.2,2.6,3.3c0,0.2-0.1,0.3-0.3,0.3C-447.3,384.7-448,383.6-448.7,382.6z M-445.3,385.8
			l0.6,0.1c0.2,0.2,0.2,0.2-0.1,0.3c-0.5-0.1-0.8,0-1,0.4c-0.2,0.3-0.3,0.3-0.3-0.1C-445.9,386.1-445.6,385.9-445.3,385.8
			L-445.3,385.8z M-443.8,387.9c0,0.1-0.1,0.2-0.2,0.2c-0.1,0-0.1-0.1-0.1-0.2c0-0.1,0.1-0.2,0.1-0.2
			C-443.9,387.7-443.8,387.7-443.8,387.9z M-438.4,393c0,0,0.1-0.1,0.1-0.1c0,0.2-0.1,0.3-0.2,0.4
			C-438.4,393.2-438.4,393.1-438.4,393c-0.1,0-0.1-0.1-0.2-0.1C-438.5,392.9-438.4,393-438.4,393L-438.4,393z M-438.2,394.6
			c0-0.2,0.1-0.3,0.2-0.4C-438,394.4-438,394.5-438.2,394.6z M-437.5,393.7L-437.5,393.7L-437.5,393.7c-0.1,0.2-0.2,0.3-0.3,0.4
			c0-0.2,0.1-0.3,0.2-0.5c-0.1,0-0.1-0.1-0.2-0.1c-0.1,0.3-0.3,0.6-0.6,0.9c0.2-0.6,0.4-1.1,0.8-1.5c0,0.2-0.1,0.4-0.2,0.5
			c0.1,0.1,0.1,0.1,0.2,0.2c0.1-0.1,0.1-0.1,0.1-0.2C-437.5,393.5-437.5,393.6-437.5,393.7L-437.5,393.7z M-436.7,395.7
			c-0.1-0.3,0-0.5,0.4-0.7C-436.3,395.5-436.4,395.6-436.7,395.7z M-436.5,394.5L-436.5,394.5c0.1-0.1,0.1-0.1,0.1-0.2
			c0.1-0.1,0.1-0.1,0.2-0.2c0,0.3-0.1,0.5-0.4,0.7L-436.5,394.5z M-436.2,391.6c1.3,0.7,2.6,1.4,3.8,1c0.2-0.1,0.3,0.1,0,0.2
			l-0.8,0.3c-0.2,0.1-0.2,0.2-0.3,0.1c-0.3-0.1-0.5-0.2-0.5-0.4h-0.3c0.2,0.3,0.2,0.4,0.1,0.3l-0.6-0.4c-0.2-0.1-0.2-0.1-0.1,0.1
			l0.1,0.2c0.1,0.1-0.1,0.1-0.2,0l-0.7-0.6c-0.2-0.1-0.3-0.1-0.3,0l0.1,0.2c0,0.1-0.3-0.1-0.5-0.4c-0.1-0.1-0.2-0.1-0.2,0v0.3
			c0,0.3-0.5-0.4-0.9-0.8c-0.1-0.1-0.3-0.1-0.2,0c0.1,0.4,0.2,0.6,0.1,0.5l-0.7-0.6c-0.1-0.1-0.4-0.2-0.3,0l0.2,0.5
			c0,0.1-0.4-0.2-0.9-0.6h-0.2c-0.3,0,0.3,0.5,0.2,0.5c-0.1,0.1-0.3,0-0.5-0.3c-0.1-0.2-0.2-0.2-0.4-0.2c-0.1,0-0.3,0-0.4,0
			c-0.3,0-0.3-0.2,0-0.3C-439.5,390.7-438,390.7-436.2,391.6z M-437.4,389.9c0.8,0.5,1.1,0.3,1.7,0.9c0.6,0.4,1.4,0.8,2.4,1.1
			c0.2,0.1,0.2,0.1-0.1,0.3c-0.5-0.3-0.8-0.5-0.5,0c-0.1,0-0.1,0-0.2-0.1c-0.5-0.5-0.9-0.7-1.2-0.7c-0.4-0.5-0.6-0.5-0.5-0.1
			c0,0.1-0.1,0.1-0.2-0.1c-0.4-0.6-0.6-0.7-0.6-0.3c0,0.1-0.1,0.1-0.2-0.1c-0.4-0.7-0.5-0.7-0.3-0.1c0,0.1-0.1,0.1-0.2-0.1
			c-0.3-0.6-0.3-0.6-0.3-0.2c-0.5-0.7-0.6-0.6-0.5-0.1c-0.3-0.5-0.5-0.5-0.5-0.1c-0.3-0.3-0.5-0.2-0.7-0.1c-0.1,0-0.1-0.1,0-0.2
			C-438.7,389.7-438.1,389.6-437.4,389.9z M-434.1,390.6C-434.1,390.7-434.1,390.7-434.1,390.6c-0.3-0.1-0.5-0.2-0.7-0.2
			c0.1,0.3,0,0.4-0.1,0.3c-0.2-0.4-0.4-0.5-0.6-0.4c-0.1,0-0.1,0.1-0.1,0c-0.2-0.4-0.3-0.4-0.3-0.2c-0.2-0.1-0.2-0.2,0-0.2
			C-435.4,390-434.7,390.2-434.1,390.6z M-433,386.9c0-0.2,0.2-0.2,0.2,0c0.1,0.4,0,0.7-0.2,0.9c-0.1,0.1-0.3,0-0.2-0.2
			C-433,387.4-433,387.2-433,386.9L-433,386.9z M-432,391c-0.8-0.7-1-1.6-1.2-2.4c-0.1-0.3,0.1-0.3,0.2-0.1c0.2,0.8,0.6,1.5,1.3,2.2
			C-431.4,391-431.7,391.2-432,391z M-432.8,383.9c0.1-0.1,0.3-0.2,0.4-0.3c0.3-0.2,0.7-0.3,1-0.3c-0.5-0.3-1.4,0.2-2.4,0.6
			c-0.3,0.1-0.4,0.1-0.1-0.2c0.4-0.3,0.6-0.4,1.1-0.7c0.5-0.2,1-0.3,1.5-0.3c0.3-0.3,0.7,0.1,0.3,0.5c-0.1,0.1-0.3,0.2-0.4,0.3
			c-0.4,0.3-0.8,0.4-1.2,0.5C-433.2,384.3-433.2,384.2-432.8,383.9z M-433.5,384.1c0-0.1,0.1-0.1,0.1-0.1c0.1,0,0.2,0,0.2,0.1
			c0,0.1-0.1,0.1-0.1,0.1C-433.4,384.2-433.5,384.1-433.5,384.1L-433.5,384.1z M-436,384.4c-0.3-0.1-0.2-0.3,0.1-0.3
			c0.3,0,0.7-0.1,1.3-0.4l0.7-0.3c0.3-0.1,0.4-0.1,0.1,0.1c-0.3,0.3-0.7,0.4-0.9,0.6C-435,384.4-435.4,384.6-436,384.4z
			 M-432.7,382.9c-0.1,0-0.1-0.1-0.1-0.1c0-0.1,0.1-0.1,0.1-0.1c0.1,0,0.1,0.1,0.1,0.1C-432.5,382.9-432.6,382.9-432.7,382.9
			L-432.7,382.9z M-436.9,382.7c-0.1-0.2-0.2-0.2,0.2-0.2c0.3,0.2,0.7,0.3,1.2,0.3l0,0.2c0.7,0,1.4-0.3,2.1-0.8c0,0-0.2-0.1-0.3,0
			c-0.5,0.3-0.5,0.1,0.5-0.4c0.1-0.1,0.3,0,0.5-0.1l0.6-0.1c-0.5,0.5-1,0.9-1.6,1.4c-0.8,0.5-1.5,0.6-2.2,0.3
			C-436.2,383.2-436.6,383-436.9,382.7z M-431.5,382.5c-0.1,0-0.1,0-0.2,0c-0.1,0-0.2,0,0-0.1c0.1-0.1,0.1-0.1,0.3-0.1V382.5z
			 M-430.3,381.7c0.7,0.3,0.4,0.5,0,0.3c-0.3-0.2-0.6-0.1-1,0c0,0.3-0.5,0.1-0.8,0.3c-0.2,0.1-0.2,0-0.1-0.2
			c0.3-0.2,0.5-0.4,0.9-0.5C-431.1,381.7-430.7,381.7-430.3,381.7z M-430.2,382.3c0.2,0,0.4,0,0.4,0.2c0,0.3,0,0.5-0.2,0.6
			C-429.9,382.5-430.1,382.6-430.2,382.3z M-429.3,382.8c0,0.3-0.1,0.5-0.4,0.6c-0.1,0.1-0.2,0-0.1-0.2l0.2-0.4
			c0.1-0.4,0.1-0.6,0-0.7c-0.1-0.5,0.2-0.5,0.4-0.1C-429.3,382.2-429.3,382.4-429.3,382.8L-429.3,382.8z M-429.9,383.9
			c-0.1-0.1,0-0.1,0.1-0.2c0.1,0,0.2,0,0.2,0c0,0.1,0,0.2-0.1,0.2C-429.8,383.9-429.9,383.9-429.9,383.9L-429.9,383.9z
			 M-429.6,386.6c-0.1-0.1-0.3-0.1-0.4-0.2c0-0.1-0.1-0.1-0.1-0.5c0-0.2,0-0.3-0.1-0.5c-0.1-0.3,0-0.3,0.4-0.2
			c0.2,0.2,0.3,0.3,0.1,0.5C-429.4,385.9-429.4,386.2-429.6,386.6z M-431.8,384.6c-0.1,0-0.1-0.1,0-0.2c0.1-0.1,0.1-0.1,0.2-0.1
			c0.1,0,0.1,0.1,0,0.2C-431.7,384.6-431.8,384.7-431.8,384.6z M-430.6,384.7c-0.1,0.3-0.7,0.3-0.7,0c0-0.5,0.3-0.8,0.7-0.9
			C-430.8,384.1-430.5,384.3-430.6,384.7L-430.6,384.7z M-431,382.5c-0.1,0-0.2,0-0.3,0v-0.2c0.2-0.1,0.4,0,0.6,0
			c0.4,0.1,0.5,0.3,0.6,0.6c-0.1,0.3-0.2,0.4-0.4,0.5C-430.6,382.9-430.8,382.6-431,382.5L-431,382.5z M-430.3,383.6
			c0,0,0-0.1,0-0.2c0.1-0.1,0.2-0.1,0.2,0c0.1,0,0,0.2,0,0.2C-430.2,383.6-430.2,383.6-430.3,383.6L-430.3,383.6z M-430.2,384.1
			c0.2,0.1,0.3,0.3,0.3,0.5c0,0.2-0.2,0.4-0.3,0.2c-0.1-0.2,0-0.3-0.1-0.6C-430.5,384-430.3,383.9-430.2,384.1L-430.2,384.1z
			 M-430.9,385.1c0.3,0,0.4,0.1,0.4,0.3c0,0.3,0,0.6,0,0.8c-0.1,0.2-0.1,0.2-0.4,0.2c-0.3,0-0.4-0.1-0.8,0.1c0.2-0.5,0-0.7,0.1-1.1
			C-431.4,385.1-431.2,385-430.9,385.1z M-432.3,386.1c0.1-0.1,0.3-0.1,0.3,0c0,0.1,0,0.1-0.2,0.2c-0.1,0-0.3,0-0.3,0
			C-432.5,386.2-432.4,386.1-432.3,386.1z M-436,395.4c0.3-0.7,0.3-1,0.2-1.9C-435.5,394.4-435.5,394.6-436,395.4L-436,395.4z
			 M-433.9,401.1c-0.1,0-0.1-0.1-0.1-0.2c0-0.1,0.1-0.2,0.1-0.2c0.1,0,0.1,0.1,0.1,0.2C-433.7,401-433.8,401.1-433.9,401.1z
			 M-433.5,401.2c-0.1,0-0.1-0.1-0.1-0.3c0-0.2,0-0.3,0.1-0.3c0.1,0,0.1,0.1,0.1,0.3C-433.4,401.1-433.5,401.2-433.5,401.2
			L-433.5,401.2z M-433.2,401.2c0-0.1,0.1-0.1,0.2-0.1c0.1,0,0.3,0.1,0.3,0.1c0,0-0.1,0.1-0.3,0.1
			C-433.1,401.3-433.2,401.2-433.2,401.2L-433.2,401.2z M-432.6,401.7c0,0.1-0.1,0.1-0.1,0.1c0,0-0.1-0.1-0.1-0.1
			c0-0.1,0.1-0.1,0.1-0.1C-432.6,401.6-432.6,401.6-432.6,401.7z M-431.1,396.3c-0.1,0-0.1,0-0.1,0.1c0,0.3-0.1,0.7-0.3,1.1
			c0.1-0.4,0.1-0.7,0.1-1.1c0,0-0.1,0.1-0.2,0.1c0,0.3-0.1,0.5-0.2,0.9c0.1-0.3,0.1-0.6,0.1-0.9c-0.1,0-0.2,0-0.3,0
			c0,0.4-0.1,0.8-0.2,1.3c0-0.4,0-0.9,0-1.3h-0.3c0,0.4-0.1,0.9-0.1,1.5c0-0.5,0-1-0.1-1.5c-0.1,0-0.2,0-0.3,0c0,0.5,0,0.9-0.1,1.5
			c0-0.5-0.1-1-0.1-1.6c-0.1,0-0.2-0.1-0.3-0.1c0,0.4-0.1,0.9-0.2,1.4c0-0.5,0-1,0-1.5c-0.1,0-0.2-0.1-0.3-0.1
			c0,0.6-0.1,1.1-0.1,1.7c-0.1-0.8-0.1-1.3-0.1-1.8c-0.1,0-0.2-0.1-0.2-0.1c-0.1,0.7-0.2,1.3-0.1,2c-0.2-0.9-0.2-1.4,0-2
			c-0.1-0.1-0.1-0.1-0.2-0.1c-0.1,0.3-0.2,0.5-0.4,0.8c0.1-0.3,0.2-0.6,0.3-0.8c-0.1-0.1-0.2-0.1-0.3-0.2c0,0.4-0.2,0.7-0.5,1.3
			c0.4-0.9,0.4-1.8,0.4-2.9c0.1,0.4,0.1,0.8,0.1,1.1c0.1,0.1,0.2,0.1,0.3,0.2c0.1-0.5,0.1-1,0.1-1.5c0.1,0.6,0.2,1.1,0.1,1.5
			c0.1,0,0.2,0.1,0.3,0.1c0-0.1,0.1-0.1,0.1-0.2c0,0.1,0,0.2-0.1,0.3c0.1,0,0.1,0,0.2,0c0.1-0.2,0.1-0.4,0.2-0.6c0,0.2,0,0.4,0,0.7
			c0.1,0,0.1,0,0.2,0c0-0.1,0-0.3,0-0.5c0.1,0.2,0.1,0.3,0.1,0.5c0.1,0,0.2,0,0.3,0v-0.7c0.1,0.3,0.1,0.5,0.1,0.7c0.1,0,0.2,0,0.3,0
			c0-0.2,0-0.4,0-0.7c0.1,0.3,0.1,0.5,0.1,0.7h0.3v-1c0.1,0.4,0.2,0.7,0.2,1c0.1,0,0.2,0,0.3,0c0-0.2-0.1-0.5-0.1-0.8
			c0.1,0.3,0.2,0.5,0.2,0.7c0.1,0,0.1,0,0.2,0c0-0.3-0.1-0.5-0.1-0.8c0.1,0.3,0.2,0.5,0.3,0.7c0,0,0.1,0,0.2,0
			c-0.1-0.4-0.1-0.8-0.2-1.3c0.7,1.6,0.7,2.4,0,4.1C-431.2,397.5-431.1,396.9-431.1,396.3L-431.1,396.3z M-432.2,401.8
			c-0.2-0.1-0.2-0.2,0-0.3h1.1c0.4,0,0.4,0.2,0.2,0.5c0.1,0.6-0.6,0.9-0.6,0C-431.6,401.9-431.8,401.8-432.2,401.8z M-431.1,389
			C-431.1,389-431.2,388.9-431.1,389c-0.1-0.1,0-0.1,0-0.1C-431,388.8-431,388.8-431.1,389C-431,388.9-431,389-431.1,389z
			 M-431.6,387.8c-0.1,0-0.3-0.1-0.2-0.2c0-0.1,0.1-0.2,0.3-0.2c0.1,0,0.2,0.1,0.2,0.2C-431.3,387.7-431.5,387.8-431.6,387.8z
			 M-430.4,387.7c0,0.3-0.1,0.7-0.2,1.2c-0.1,0.1-0.1,0.1-0.2-0.1c0-0.4,0.1-0.7,0.1-1.2H-430.4z M-430.6,387.5c0-0.1,0-0.1,0-0.2
			c0.1-0.1,0.2-0.2,0.2-0.1c0,0.1,0,0.2,0,0.3H-430.6z M-429.8,388c-0.1,0-0.2-0.1-0.2-0.2c0-0.1,0.1-0.1,0.2-0.1
			c0.1,0,0.2,0.1,0.2,0.2C-429.6,388-429.7,388-429.8,388z M-429.4,387.3l-0.9,0.3l0.1-0.6c-0.3-0.1-0.4,0-0.5,0.2l0,0.2
			c-0.1-0.1-0.2-0.2-0.3-0.3c-0.1-0.1-0.3-0.1-0.7,0c-0.1,0-0.2,0-0.3,0l0.2,0.3c-0.1,0.1-0.2,0.2-0.3,0.4c0.1,0,0.2,0,0.3,0.1
			c0.3,0.2,0.6,0.2,0.9,0.1v0.8l-0.2,0c-0.1,0.1-0.2,0.2,0,0.3l0.5,0.2c0.2,0.1,0.3-0.2,0.3-0.3l0.1-0.9l0.4,0.2
			c0.1,0,0.3,0,0.4-0.1v0.7l-0.1,0.2c0,0.2-0.1,0.3-0.2,0.4c0,0.3,0,0.4-0.1,0.5c-0.3,0.3-0.4,0.5-0.7,0.8c-0.2,0-0.4,0-0.6-0.1
			c-0.2-0.1-0.4-0.3-0.5-0.5l-0.2-0.1l0.1-0.2l-0.2,0l0.1-0.2l-0.2,0l0.1-0.2l-0.2-0.1l0.1-0.4l-0.2-0.1l0.2-0.3h-0.3l0.2-0.2
			l-0.3-0.1c-0.1-0.7,0.1-1.2,0.4-1.5c0.6-0.1,1.1-0.3,1.5-0.2c0.6,0.1,1.1,0.3,1.2,0.6L-429.4,387.3z M-426.4,389.7
			c0.1,0,0.3,0.1,0.5,0c0.2,0.2,0.1,0.3-0.1,0.3c-0.1-0.1-0.2-0.1-0.3-0.1c-0.3,0.1-0.3,0.2-0.4,0.3l-0.1-0.2
			c-0.3,0.2-0.6,0.9-0.8,1.2l-0.1-0.3c-0.2,0-0.3,0.4-0.5,0.6c0-0.2,0-0.3-0.1-0.3c-0.4,0.3-0.8,0.4-0.9,0.3c0-0.2,0.8-0.7,1.7-1.4
			C-427.1,389.8-426.7,389.7-426.4,389.7L-426.4,389.7z M-422.3,390.2c-1.3-0.1-2.3,0-3,0.4c0.9-0.2,1.8-0.3,2.7-0.1
			c0.1,0,0.1,0.1,0,0.1c-0.1,0.1-0.2,0.1-0.4,0.1c-0.3,0-0.5-0.1-0.8-0.1c-1,0-2,0.2-2.6,1h0.2c0,0.1-0.1,0.2-0.3,0.3
			c-0.1,0.1-0.1,0.2-0.2,0.3c-0.1,0.2-0.2,0.3-0.3,0.5l0.2,0.1c-0.4,0.5-0.6,0.8-0.7,0.7c0.1-0.9,0.3-1.6,0.9-2.3
			c0.6-0.8,1.8-1.6,4.2-1.4C-421.7,389.8-421.8,390.2-422.3,390.2z M-426,404.5c0-0.2,0.1-0.3,0.1-0.5c0.9,1.1,2.6,3.1,3.5,4.4
			c0.5,0.6,0.5,0.6,0.8,0.9c0,0.1-0.1,0.1-0.3,0c-0.3-0.3-0.2-0.3-0.5-0.6C-423.6,407.3-424.9,405.7-426,404.5z M-426.1,405.2
			c0-0.2,0.1-0.3,0.1-0.5c0.9,1.2,2.4,3,3.4,4.1c0.3,0.4,0.1,0.2,0.3,0.4c0.2,0.2-0.3,0.2-0.4-0.1c-0.1-0.1-0.7-0.7-0.8-0.9
			C-424.7,406.9-425.1,406.4-426.1,405.2L-426.1,405.2z M-426.2,405.4c0.9,1.1,1.4,1.7,2.3,2.7c0.1,0.1,0.8,1,0.9,1.1
			c-0.1,0.1-0.3,0.1-0.4,0c-1-1.2-1.9-2.2-2.9-3.4C-426.3,405.7-426.2,405.5-426.2,405.4z M-426.5,406.4c0.1-0.1,0.1-0.2,0.1-0.4
			c0.9,1.1,1.8,2.1,2.6,3.1c-0.1,0.1-0.3,0.1-0.5,0c-0.8-1-1.5-1.7-2.2-2.6C-426.5,406.5-426.5,406.4-426.5,406.4L-426.5,406.4z
			 M-426.4,405.1c0.1,0.1,0.1,0.2,0.1,0.4c-0.1,0.2-0.2,0.3-0.3,0.3c-0.1,0-0.1-0.2-0.1-0.4C-426.7,405.3-426.5,405.1-426.4,405.1
			L-426.4,405.1z M-427.6,403.7c0.7-0.6,1.1-1.5,1.5-2.5c0.2-0.4,0.4-0.2,0.2,0.5c-0.4,1.2-1.3,2.1-1.9,2.6
			c-0.7,0.6-1.1,1.2-1.8,2.1c-0.2,0.3-0.3,0.1-0.1-0.2C-429.2,405-428.4,404.3-427.6,403.7L-427.6,403.7z M-429.1,391.8
			c0.1-0.1,0.2-0.1,0.3-0.1c0.1,0.1,0,0.1-0.1,0.3c-0.1,0.1-0.2,0.1-0.3,0.1C-429.2,392-429.2,391.9-429.1,391.8z M-428.8,394.7
			c0,0-0.2-0.1-0.3-0.3c-0.1-0.2-0.2-0.4-0.1-0.4c0,0,0.2,0.1,0.3,0.3C-428.8,394.5-428.8,394.7-428.8,394.7L-428.8,394.7z
			 M-427.6,398.2c-0.4,0.5-0.8,0.7-1.1,1l-0.3,0.7c-0.1,0.2-0.1,0.2-0.2,0c0-0.6,0.2-0.9,0.5-1.1c0-0.2,0.1-0.4,0.2-0.5
			c0.6-0.3,1.1-0.9,1.6-1.1c0.2-0.4,0.5-0.7,1-1.3c0.3-0.3,0.4-0.2,0.3,0.3c-0.2,0.6-0.5,1-1.1,1.3
			C-427.1,398.2-427.4,398.5-427.6,398.2z M-428.8,398.5c0.1,0.1,0.1,0.2,0,0.3c-0.1,0.1-0.2,0.1-0.3,0.1c0-0.1,0-0.2,0.1-0.3
			C-428.9,398.5-428.8,398.4-428.8,398.5z M-426.7,401.3c0.4-0.3,0.4,0,0.2,0.3c-0.2,0.3-0.3,0.4-0.6,0.5c-0.3,0.3-0.9,0.5-1.3,0.7
			c-0.5,0.2-1,0.5-1.4,1c-0.3,0.2-0.4,0.1-0.3-0.3c0.2-0.5,0.9-0.8,1.7-1.1C-427.6,402.2-427.1,401.8-426.7,401.3z M-428.5,401.1
			c0,0.6-0.7,0.5-0.5-0.2c0.3-0.7,0.3-1.1,0.6-1.3c0.3-0.3,0.4-0.3,0.2,0.1C-428.3,399.9-428.5,400.4-428.5,401.1z M-428.3,402.2
			c-0.6,0.2-0.8-0.1-0.4-0.3c0.4-0.3,0.8-0.5,1.1-0.9c0.4-0.6,0.6-0.6,0.5,0C-427.2,401.4-427.5,401.9-428.3,402.2z M-427.9,400.7
			l0.5-1.1l-0.7,1c-0.2,0.3-0.2,0.1-0.1-0.1l0.5-1.1c0.1-0.4,0.3-0.6,0.6-0.7l0.6-0.6c0.1-0.2,0.2,0.1,0.1,0.2l-0.5,0.7
			c-0.1,0.6-0.3,1.1-0.9,1.8C-427.8,400.9-428,400.9-427.9,400.7L-427.9,400.7z M-426.1,399.1c-0.1,0.8-0.2,1.4-0.4,1.6
			c-0.3,0.4-0.5,0.4-0.3-0.2l0.2-1c0-0.4,0.2-0.8,0.4-1.1l0.3-0.9c0.1-0.4,0.2-0.3,0.2,0.1l-0.2,0.5c0.2,0.1,0.1,0.3,0,0.4
			C-425.9,398.9-425.9,399.1-426.1,399.1z M-424.9,393.3c0.6-0.4,0.7-0.3,0.4,0.3c-0.8,1.2-1.7,2.6-2.4,3c-0.3,0-0.6,0.2-0.8,0.6
			l0.5-0.3c0.3,0,0.3,0.1,0.1,0.2c-0.4,0.2-1.1,1.4-1.3,0.6c-0.3,0.6-0.8,0.5-0.8,1l-0.1,0.7c-0.1,0.2-0.2,0.2-0.3,0
			c-0.1-1,0.1-1.6,0.6-2c1.3-0.8,1.8-2,2.2-2C-426.3,394.8-425.7,394-424.9,393.3z M-428.4,394.7c0,0-0.1-0.1-0.2-0.3
			c-0.1-0.2-0.1-0.3-0.1-0.3c0,0,0.1,0.1,0.3,0.3C-428.4,394.5-428.3,394.7-428.4,394.7z M-428.5,393.5c-0.1-0.2-0.1-0.4-0.1-0.4
			c0.1,0,0.3,0.2,0.4,0.4H-428.5z M-428,393.6c0.1,0.1,0.1,0.3,0.1,0.4h-0.3c-0.1-0.1-0.1-0.2-0.2-0.3c0,0,0,0,0-0.1H-428z
			 M-427.8,392C-428.2,392.1-428.1,391.8-427.8,392l0.3-0.5c0.3-0.4,0.7-0.7,1.1-1c0.3,0,0.4,0.1,0.1,0.3l-0.4,0.2
			c0.1,0.2-0.2,0.7-0.4,0.8c-0.1,0,0-0.5-0.2-0.1L-427.8,392z M-427.9,394.1c0,0.1,0,0.2-0.1,0.2c-0.1,0-0.1-0.1-0.2-0.2H-427.9z
			 M-424.5,391.9c0.3,0,0.4,0.1,0.2,0.3c-0.6,0.3-1.2,0.7-1.8,1.4c0,0.3-0.1,0.5-0.4,0.7c0,0.4-0.3,0.6-0.7,0.7l-0.6,0.8
			c0.1,0.2-0.1,0.5-0.5,1c-0.3,0.3-0.4,0.2-0.4-0.3c0.4-0.9,1-2.3,1.3-2.3c0.2,0,0.2-0.1,0.2-0.4c0-0.2,0.3-0.2,0.2,0
			c0,0.2,0,0.3,0.2,0.1C-426,392.8-425.3,392.2-424.5,391.9z M-425.7,393.9c-0.2,0.2-0.4,0-0.1-0.3c0.4-0.4,0.8-0.8,1.4-1
			c0.5-0.2,0.5,0.2,0.1,0.2C-424.6,392.8-425,393-425.7,393.9z M-423.6,390.8c0.5,0.1,0.5,0.4,0.2,0.3c-0.8-0.1-1.6-0.1-2.4,0.3
			c-0.3,0.1-0.2,0-0.1-0.1C-425.2,390.9-424.4,390.7-423.6,390.8z M-426.4,392.2c0.5-0.6,1.4-1,3.1-1c0.4,0,0.3,0.4,0,0.3
			c-0.3,0-0.5,0.1-0.8,0.1c-0.3,0.1-0.7,0.1-1,0.3c-0.6,0.3-1.1,0.8-1.5,1.6c-0.2,0.1-0.2,0-0.1-0.2c0.6-1,1.3-1.6,2-1.6l0-0.1
			c-0.4-0.1-0.9,0.1-1.6,0.8C-426.5,392.5-426.5,392.5-426.4,392.2z M-430,390.2c0.2-0.1,0.2,0.1,0.1,0.2c-0.2,0.2-0.3,0.2-0.5,0.5
			C-430.3,390.7-430.2,390.4-430,390.2L-430,390.2z M-430.4,394.5c0.1,0.1,0.2,0.2,0.3,0.3c0.1-0.2,0-0.5-0.1-0.7
			c0.3,0.2,0.5,0.4,0.5,0.8c0.1-0.2,0.1-0.5-0.1-0.8c0.3,0.1,0.4,0.3,0.7,0.7l-0.1,0.6c0.1,0.2,0.1,0.3,0,0.4
			c-0.1-0.1-0.2-0.2-0.4-0.1l0,0.5c-0.1-0.2-0.2-0.2-0.3-0.1l-0.4,0.4l-0.1-0.3l-0.1-1.2l0.2-0.1L-430.4,394.5z M-430.3,405.4
			c0.1-0.7,0.5-1.2,1.1-1.7c0.6-0.5,1.3-0.7,2-1.2c0.2-0.1,0.3-0.1,0.1,0.3c-0.3,0.4-0.7,0.5-1.1,0.6c-0.6,0.1-1.1,0.7-1.5,1.4
			l1.3-0.9c0.3-0.1,0.3,0,0.2,0.2c-1.3,0.7-1.2,1.6-1.7,1.7c-0.1-0.1-0.1-0.3,0-0.6L-430.3,405.4z M-428.5,406.6
			c-0.1,0-0.1-0.1-0.1-0.3c0-0.1,0-0.3,0.1-0.3c0,0,0.1,0.1,0.1,0.3C-428.4,406.4-428.5,406.6-428.5,406.6z M-428.2,405.4
			c-0.3,0.2-0.7,0.7-1.2,1.6c-0.4,0.1-0.4,0.1-0.2-0.2c0.1-0.2,0.4-0.5,0.6-0.7c0.1-0.2,0.1-0.4,0.3-0.6c0.4-0.6,0.8-1,1.4-1.4
			c0.6-0.4,1-1.1,1.4-2l0.1,0.2c-0.1,1.4-0.6,2.2-1.3,2.3L-428.2,405.4z M-428,407.1c-0.1,0.2-0.3,0.4-0.3-0.1
			c0.1-0.6,0.4-1,0.8-1.4c0.4-0.3,0.5-0.2,0.2,0.2C-427.6,406.2-427.8,406.7-428,407.1z M-428,405.6c0.2-0.4,0.5-0.6,0.9-0.8
			c0.4-0.1,0.2,0.1,0.1,0.2c-0.3,0.2-0.6,0.4-0.9,0.7C-428.1,406-428.2,405.9-428,405.6z M-426.6,406.7c0.7,0.8,1.3,1.5,1.9,2.3
			c-0.1,0.1-0.2,0.1-0.4,0c-0.5-0.6-1-0.9-1.6-1.5C-426.6,407.2-426.6,407-426.6,406.7z M-426.5,408.5c0.2,0.2,0.4,0.3,0.6,0.5
			C-426.4,409-426.4,409-426.5,408.5L-426.5,408.5z M-426.6,407.7c0.5,0.5,0.9,0.8,1.4,1.3c-0.1,0.1-0.3,0.1-0.4,0.1
			c-0.3-0.3-0.6-0.5-0.9-0.8C-426.5,408.1-426.6,407.9-426.6,407.7z M-420.4,390.2c-0.1,0.5,0,1.1,0.3,1.7c0.1-0.1-0.1-0.7-0.1-1.2
			v-0.4l0.2,0.1c0,0.6,0.2,1.1,0.5,1.2c-0.2-0.3-0.2-0.7-0.2-1.1l0.3,0.1c0,0.6,0.2,1.3,0.5,1.3c-0.3-0.3-0.3-0.8-0.2-1.2l0.1,0
			c0.1,0.2,0.1,0.5,0.3,0.6c0.1-0.1,0.1-0.4,0-0.7c0.3-0.2,0.7-0.1,1.1,0.1c0.1,0.2,0.1,0.3-0.1,0.3h-0.2l0.5,0.2
			c0,0.1,0.1,0.1-0.1,0.1l-0.2,0.1l0.6,0.1c0.2,0.1,0.2,0.1,0.1,0.2l-0.1,0.2c0.5,0,1.1,0.1,1.7,0.5c0,0.2-0.3,0.2-0.8-0.1
			c0.1,0.3,0.6,0.3,0.5,0.5c-0.1,0.3-0.7,0-1.1,0.4l0.8,0c0.2,0.1,0.1,0.2-0.1,0.2c0.4,0.5,0.7,0.6,0.8,0.3c0.1-0.3,0.2-0.3,0.3,0
			c0.5,0.3,0.6,0.3,0.3,0.4l-0.5,0.1l0.5,0.1c0.1,0.1,0.1,0.2,0.1,0.3c-0.4,0.1-0.4,0.1,0.3,0.1c0.3,0.1,0.4,0.3,0.3,0.4
			c-0.6,0-0.6,0.1,0.1,0.2c0.2,0.1,0.2,0.2,0.2,0.3c-0.4,0.1-0.3,0.2,0.1,0.2c0.1,0.1,0.1,0.1,0,0.2c-0.4,0.1-0.4,0.2,0.2,0.2
			c0,0.2,0.3,0.2,0.5,0.4c0.5-0.1,0.7,0.2,0.3,0.2l0,0.1c0.7,0,1,0.2,0.9,0.6c-0.1,0.2-1-0.4-0.6,1l0.1,0.1c0.3,0.1,0-0.6,0.4-0.6
			c0.1,0,0.1,0.2,0,0.6c-0.1,0.3-0.3,0.5-0.6,0.3c-0.3-0.2-0.5-0.4-0.4-0.6l0-0.4c-0.3,0-0.4-0.2-0.4-0.5c0-0.1-0.1,0-0.1-0.1
			c-0.5-0.1-0.7,0.1-0.9,0.5c0,0.1-0.1,0-0.2-0.1c0-0.1-0.2,0-0.3,0c-0.1,0-0.1-0.2-0.1-0.2c-0.1,0-0.1,0.1-0.2,0.1
			c-0.1,0-0.1-0.2-0.2-0.1c-0.1,0.1-0.1,0.1-0.2,0c0-0.1,0.1-0.4-0.2,0c-0.1,0.1-0.1,0.1-0.2-0.1c-0.2-0.5-0.3-0.5-0.3-0.1
			c-0.1,0.2-0.2,0.2-0.2-0.1c-0.2-0.7-0.2-0.7-0.1,0c0,0.3-0.1,0.3-0.3-0.1c-0.2-0.6-0.3,0.1-0.4-0.2c-0.2-0.3-0.1-0.8-0.4-1l0.2,1
			c0,0.1-0.2,0.2-0.3-0.1c-0.1-0.7-0.6-1.8-0.5-1.4l0.3,1.4c0,0.1-0.3,0.1-0.3-0.1l-0.3-1.7c-0.1-0.5-0.1,0.9,0.1,1.5
			c0,0.1-0.2,0.1-0.2,0c0-0.1-0.2-1.8-0.3-1.7c-0.2,0.2,0.3,1.8-0.1,1.6c-0.1,0-0.2-1.7-0.3-1.7c0,0,0,1.6-0.1,1.6
			c-0.5-0.6,0-2.1-0.3-2.2c-0.1,0-0.2,1.9-0.3,1.8c0.2,1.5,1.4,1.5,1.3,2l-0.8-0.4c0.2,0.4,0.6,0.9,0.8,1.4c-0.3,0.1,0,0.4,0.2,0.6
			c-0.3,0-0.2,0.1,0.3,0.6c0.1,0.1,0.1,0.2,0.1,0.3c-0.6-0.1-0.7-0.1,0.3,0.6c-0.6-0.1-0.6,0,0.1,0.4c0.1,0.1,0.3,0.3,0.3,0.4
			c0,0.1-0.1,0.1-0.1,0.1c-0.1-0.1-0.2-0.1-0.3-0.2c-0.2,0-0.1,0.2,0.8,0.8c0.2,0.2,0.3,0.3,0.1,0.4c-1-0.6-0.9-0.5,0.2,0.5
			c0.3,0.4,0.3,0.6,0.2,0.6c-0.9-0.7-1.4-1.2,0.1,0.3c0.3,0.3,0.3,0.4,0.1,0.5c-1.5-1.1-0.7-0.4,0.3,0.7c0.1,0.1,0,0.1-0.1,0.1
			c-1.4-1.1-1.5-0.8,0,0.8c0.1,0.1,0.1,0.3,0.1,0.4c0,0.1-0.1,0-0.2,0c-1-1-0.9-0.8,0.2,0.8c0.2,0.3,0.3,0.5,0,0.3
			c-1.3-1.5-1.7-1.8,0,0.5c0.2,0.3,0.2,0.4,0,0.3c-1.2-1.6-1.2-1.4-0.1,0.3c0.1,0.2,0.1,0.2,0,0.2c-1.1-1.3-1.4-1.6-0.1,0.3
			c0.2,0.3,0.1,0.4,0,0.2c-1.3-1.6-1.3-1.4-0.1,0.3c0.1,0.2,0.2,0.3,0,0.2c-1.5-1.7-1.5-1.6-0.1,0.2c0,0.5,0,0.4-0.3,0.2
			c-0.1-0.2-0.1-0.3-0.3-0.5c-0.9-1.1-1-1,0.1,0.4c-0.1,0.1-0.3,0.1-0.4,0c-1-1.2-1-1.2-0.3-0.1l-0.5-0.1c-0.1-0.2-0.2-0.3-0.3-0.4
			c-0.9-0.9-1.2-0.9-0.3,0.2c0,0-0.1,0.1,0,0.1l-1-0.2c-0.1,0-0.3-0.1-0.4-0.2c-0.4-0.7-0.7-1-1.4-1.7c0,0.3,0.6,0.7,1,1.4
			c0.1,0.5-0.4,0.3-0.6,0.2c-0.3-0.4-0.4-0.5-0.9-1c-1.3-1.5-2.7-3.3-3.8-4.5c0.1-0.2,0.1-0.4,0.1-0.6c0.9,1.4,2.2,3,3.7,4.3
			c-0.1-0.6-2-2.2-3.1-3.7c-0.2-0.4-0.4-0.8-0.6-1.1c0-0.2,0-0.3,0.1-0.5c0.8,1.6,2,3.1,3.7,4.6c-0.2-0.5-2-2-2.9-3.5
			c-0.3-0.6-0.6-1.1-0.8-1.5v-0.3c0.8,1.5,2.1,3.2,3.7,4.5c-0.2-0.5-2-2-2.9-3.5c-0.3-0.5-0.5-1-0.8-1.5v-0.3
			c0.8,1.5,2.4,3.5,3.9,4.8c-0.2-0.5-2.2-2.3-3.1-3.7c-0.4-0.7-0.6-1.2-0.8-1.6V400c0.6,1.5,2.3,3.5,3.8,4.8c-0.2-0.5-2.2-2.1-3-3.5
			c-0.4-0.7-0.7-1.3-0.8-1.7c0-0.1,0-0.3,0-0.4c0.5,1.5,2.1,3.4,3.7,4.6c-0.2-0.4-2-1.9-2.8-3.2c-0.5-0.8-0.7-1.4-0.9-1.8
			c0-0.2,0-0.3,0-0.5c0.5,1.5,1.9,3.3,3.5,4.6c-0.1-0.4-1.8-1.8-2.6-3c-0.6-0.9-0.7-1.5-0.9-1.9v-0.1c0-0.2,0-0.4,0.1-0.6
			c0.3,1.5,1.7,3.4,3.3,4.8c-0.1-0.4-1.7-1.7-2.4-2.9c-0.6-1.1-0.8-1.7-1-2C-424.8,393.1-423.1,390.7-420.4,390.2L-420.4,390.2z
			 M-420.5,389.4c0.1-0.1,0.3,0.1,0.3,0.3c0.1,0.2-0.1,0.2-0.2,0.1C-420.5,389.7-420.7,389.5-420.5,389.4z M-419.3,389.3
			c0.3,0.2,0.1,0.4-0.1,0.3l-0.6-0.3c0,0.3-0.2,0.1-0.6-0.1c-0.2,0.2-0.5,0.1-0.8-0.2l0.2,0.6c0,0.1-0.1,0.1-0.1,0l-0.4-0.5
			c-0.2-0.3-0.1-0.4,0.3-0.4C-420.6,388.8-419.8,388.9-419.3,389.3z M-416.4,389.6l0.4,0.5c0.3,0.6,0,0.9-0.3,0.5
			c-0.2-0.3,0-0.5-0.5-0.7c0.2,0.4,0.4,0.9,0.4,1.4c0.7,0.6,0.1,0.8-0.1,0.4l-0.3-1.2c0.1,0.6,0.1,1,0,1c-0.2,0-0.1-0.4-0.2-0.9
			c-0.1-0.2-0.1-0.6-0.2-0.6c-0.5-0.2-1,0-1.3,0c0.6,0,1.1,0,1.2,0.2c0.2,0.3,0.2,0.6,0.1,0.9c-0.1,0.2-0.2,0.2-0.2-0.1l-0.1-0.4
			c0-0.2-0.3-0.2-0.6-0.2c-0.2,0-0.4,0.1-0.7-0.1c-0.1-0.1-0.3-0.1,0-0.2c-0.3-0.2-0.2-0.4,0-0.4
			C-417.9,389.5-417.3,389.1-416.4,389.6z M-413.3,399.1c0.1,0.1-0.3,0.2-0.7-0.1c-0.4-0.4-0.2-0.8,0.1-0.5L-413.3,399.1z
			 M-415.5,410.6c0,0,0,0.1,0,0.1l-0.1,0.1c0,0-0.1,0-0.1,0l-0.5-0.5c0,0,0-0.1,0-0.1l0.1-0.1c0,0,0.1,0,0.1,0L-415.5,410.6z
			 M-415.8,411.7c-0.1-0.1-0.1-0.3,0-0.3c0.1,0,0.2,0.1,0.3,0.2c0.1,0.2,0.1,0.3,0,0.3C-415.6,412-415.7,411.9-415.8,411.7
			L-415.8,411.7z M-417.8,410.8c-0.1-0.2,0.2-0.4,0.5,0c0.7,0.9,1.2,1.8,1.7,2.8c0.3,0.6,0,0.7-0.3,0.2
			C-416.4,412.7-417.1,411.7-417.8,410.8z M-416.9,411.1c-0.2-0.3,0.1-0.4,0.3-0.1c0.5,0.8,0.9,1.4,1.2,2.2c0.1,0.4-0.1,0.4-0.2,0.1
			C-416,412.5-416.4,411.8-416.9,411.1z M-414.5,410.5c0.1,0.3-0.1,0.6-0.3,0.7c-0.2,0-0.5-0.2-0.6-0.5c-0.1-0.3,0.1-0.6,0.3-0.7
			C-414.9,410-414.6,410.2-414.5,410.5z M-414.6,406.5c0.1,1-0.1,1.9-0.2,2.9c0,0.1-0.3,0.4-0.3,0.1c0-1.2,0.2-2.2,0.2-3.1
			C-414.9,406.1-414.6,406.1-414.6,406.5L-414.6,406.5z M-414.3,414.7c-0.1-1-0.1-2-0.3-2.8c-0.1-0.5,0.1-0.6,0.3-0.1
			c0.3,0.8,0.5,1.7,0.5,2.9C-414,415.1-414.3,415.1-414.3,414.7z M-413.3,414.4c0,0.1,0,0.1-0.1,0.1c-0.1,0-0.1-0.1-0.1-0.1
			c0-0.1,0-0.1,0.1-0.1C-413.3,414.3-413.3,414.4-413.3,414.4L-413.3,414.4z M-412.9,411.9c0.1,0.1,0.1,0.3,0,0.3
			c-0.1,0.1-0.2-0.1-0.2-0.2c-0.1-0.2-0.1-0.3,0-0.3C-413.1,411.6-413,411.7-412.9,411.9L-412.9,411.9z M-404.1,416.4
			c-0.1-0.4,0-0.8,0-1.1c0.1-0.8,0.1-1.3-0.8-1.9c-1.1-1.1-2.1-2.3-2.9-3.6c0-1.6-1.4-2.1-2.3-0.3l-1.7,1.2
			c-0.4,0.3-0.7-0.2-0.7-0.6c-0.2-2.2-1.6-3.9-3.3-5.6c-0.8-2.6-2-4.8-2.5-6.8c1.6,0.2,2.9,0.5,3.4,1c0.7,0.8,1.6,1.2,1.9,0.6
			c0.1-0.2-0.4-0.5-0.7-0.7c0.3,0,0.7,0.3,1.1,0.7c0.7,0,0.9-0.5,0.8-1.3c0.1-0.6,0.1-1.1-0.2-1.3l-0.6-0.3c-1-1.1-1.8-2.2-2.5-3.4
			c-0.1-0.1-0.1-0.2-0.1-0.4c0-0.5-0.1-0.9-0.6-1.4l0.2-0.1l0-0.2l0.5,0.1l-0.5-0.9c-0.3-1.1-1.3-1.2-2.7-0.8
			c-0.2,0.1-0.5-0.2-0.7-0.5c-0.9-0.9-1.9-1.4-1.6-0.7c0.1,0.1,0.3,0.4,0,0.4l-1.6-0.3c-0.3-0.1-0.4,0.1-0.3,0.2
			c0.3,0.3,0.6,0.6,0.7,0.9l-2,0.1c-0.4,0-0.7,0.2-1.1,0.2c-1.1-0.9-2.4-0.2-3.9,0.8l-0.2-0.1l0-1.6h0.2l-0.1-1.1h0.1
			c0.1-1.6-0.2-2.7-0.8-3.4c-0.1-0.5,0.4-0.4,0.5-0.6c0.5-0.6,0.4-1.2,0.4-1.6c-0.1-0.7-0.3-0.9-0.7-0.7h-0.4
			c-0.4-0.1-0.8-0.2-0.9-0.4c-0.5-0.3-0.9-0.3-1.3,0c-2.1,0.5-2.4,2.1-5,1c-0.3,0-0.3,0.1-0.2,0.3c0.4,0.6,1,0.9,1.7,1.2
			c-0.2,0.2-0.7,0.2-1.4,0.1c0.4,0.6,1.3,0.9,2.6,0.8c0.5,0.3,1.1,0.2,1.7-0.1c0.3-0.2,0.4-0.1,0.1,0.4c-0.7,0.6-1.1,1.6-1.2,3.5
			c-0.3,0.4-0.4,0.9-0.5,1.3c-0.9-0.3-1.8-0.4-2.1-0.1l-0.4,0c-0.8-0.6-1.6-0.6-2.3-0.2l-1.5,1.1c-0.5,0.4-1,0.4-1.1-0.1l-0.6-1.3
			c0-0.9-0.3-1.4-0.9-1.4c-0.3-0.3-0.5-0.6-0.6-0.9l-0.4-0.6c0.1-0.5-0.1-0.7-0.4-0.7c-0.4,0-0.7-0.1-0.9-0.2l-3-3.7
			c-0.4,0.1-0.5,0.3-0.5,0.7l2.6,3.6c0.1,0.2,0.3,0.3,0.2,0.5c-0.2,0.5-0.3,0.8,0.1,1.2l0.9,0.8c0.1,0.6,0.2,1.1,0.4,1.3
			c-0.2,0.4,0.1,0.8,0.4,1.2c0.1,0.1,0.1,0.3,0.3,0.4l0.1,1.2c-1.2,1-1.8,1.8-1.9,2.2c-0.1,0.3-0.1,0.5,0.1,0.6l1.7-0.2
			c0.1,0.1,0.3,0.1,0.4,0.2c0.3,0.6-0.1,1.6-1,1.7c-2.1,0.5-3.6,1.2-3,2.6c0.8,1,0.4,1.9-1,2.7c-0.3,0.3-0.5,0.7-0.4,1.2
			c-0.4,0.3-0.7,0.8-0.9,1.4c-0.2,0.6-0.2,0.8,0.2,0.8c2.9-1,5.8-1.4,7.8,0.3c1,0.8,0.8,1.3,2.4,1.4c-0.2,0.7,0,1,0.6,1.2l0.1,0.7
			c-0.6,0.1-1.4,0.1-2,0.3c-0.7,0.2-1.4,0.5-2,0.5c-0.5-0.4-1.2-0.7-1.7-1c-2.6-1.6-4.9-1.7-6.8,0.5c-1,1.2-1.9,2.8-2.7,5.3
			c-0.1,0.4-0.5,0.6-1.2,0.2c-1.4-1.1-1.6-2.1-0.9-2.8c1-0.9,1.4-0.4,0.8,0.1l0,0.1c0.7,0,1,0.5,1.3,1.1c0.6-1.6,0.3-2.8-0.6-3.7
			l-0.2,0l0.1,1.4c-1.5-0.3-2.4,0.9-2.5,2c-0.1,1.1,0.4,2,1.8,2.8c0.8,0.3,1,1.1,0.4,2c-1.5,2.2-1.3,4.5,0.1,7.5l0.2-0.1
			c0.3-3.3,1-4.9,2.1-5.3c0.4-0.1,0.7-0.3,1-0.7c0.3-0.5,0.5-0.4,0.7,0.1c0.6,1.4,0.5,2.7-0.3,4c-1.9,3.1-2,5.4,0.7,7.3l0.1,0.2
			l-0.7,0.9c-0.2,0.4-0.1,0.8,0.6,1.4c0.5,0.5,0.7,1.4,0.8,2.6c-0.2,0.4-0.3,0.8-0.1,1.3c0.4,0.6,1.4,0.9,2.8,0.8
			c0.1,0,0.1-0.1,0.1-0.3c0.1-0.6-0.3-1.1-0.8-1.9c-1.4-1.2-1.6-2.4-1.2-3.5l0.2-0.3c1.1,0.4,2.4,0.8,3.7,1c-0.5,1.1-0.5,2.4,0,3.2
			c0.9,1.5,1.8,2.2,3.5,2c2.3-0.2,3.5-2.1,2.6-4.7c0.8-0.5,1.4-0.4,1.7,0.1c0,1.2,0.5,0.8,0.5,2c-1.4,1.2-1.9,2.2-0.4,2.9
			c0.8,0.8,0.3,1.1-0.7,1.1c-1.1-0.3-1.8-0.2-2,0.7c-1,0.1-1.3,0.6-1.2,1.6c0.3-0.7,0.8-0.7,1.1-0.6c0.5,0,1.1,0.1,1.5-0.1
			c0.4-0.2,0.9-0.2,1.5,0c0.3,0,0.5,0.1,0.6,0.3c0.7,0.7,0.6-0.1,2.1,0.8c0.4,0,1,0,1.1,0.6l0.1-0.5c0.1-0.2,0.1-0.4-0.2-0.6
			c-0.5-0.6,0.3-0.6,1.6-0.3c0.7,0.3,1.4,0.5,1.9,0.4c0.6-0.6,0.7-0.2,0.9,0.6c0.4-1.2,0.1-1.8-1-1.9c0.2-0.6,0.3,0.3,0.7-0.5
			c0.4-0.2,0.7,0,1.1,0.4c0.1-0.6-0.3-0.9-1-1.1c-0.2-0.5-0.6-0.5-1.1,0c-2.2-0.6-2.4-1.9-1.2-2.2c0.7-0.2,0.9,0.5,1.4,0.7
			c0.4,0.1,0.6,0.1,1.2,0.1c0.6,0,1.2,0.1,1.5,0.4l0.4,0.1c0.2-0.2,0.5-0.1,0.8,0.1c0.3,0.5,0.6,0.5,0.9,0.1
			c0.9-0.7,2.2-0.7,2.1-0.3c0,0.6,0.1,0.9,0.3,0.8c0.2,0,0.3,0.3,0.3,0.7c-0.8,0-1.4,0.1-1.4,0.7c-0.8,0.2-0.7,0.8-0.4,1.5
			c-0.1-1.4,1.1-0.3,2.2-1l0.8-0.1c0.1,0.4,0.5,0.6,1.2,0.5c0.3-0.1,0.7-0.1,0.9-0.2c1.4-0.4,2.5-0.3,3.4,0.9
			c0.2-0.3,0.2-0.7-0.1-1.1c1-0.7,2-0.4,1.4,0.7c0.6-0.3,1.2-1.8,0.4-1.7c0.3-0.9,1.6-0.1,1.2,0.5c0.5-0.3,0.6-0.7,0-1.3
			c-0.1-0.5-0.5-0.6-1.2-0.4c-0.4-0.7-0.9-0.7-1.6-0.1c-0.7,0.3-1.2,0.3-1.6-0.1c-0.4-0.6-0.3-0.9,0.2-0.7c0.3,0.1,0.4-0.2,0.7-0.8
			c0.1-0.3,0.4-0.5,0.5-0.8c0.8-0.1,1.4-0.8,2.1-2.1c0.5-0.3,0.8-1.3,0.8-3c0.2,0.1,0.5,0,0.9-0.2c-0.3,0-0.4-0.1-0.4-0.8h0.7
			c0.3-0.1,0.4-0.2,0.4-0.4c0-0.1-0.3-0.1-0.5-0.4c-0.1-0.4-0.3-0.8-0.7-1.2l-0.7-1.1c-0.5-1.6-1.1-2.5-1.8-1.9l-0.2-0.1
			c-0.6-0.6-1-1.4-1.3-2.3c0-1.1-1.1-1.1-1.7-0.1l-0.2-0.9l-0.3,0.5l-1.8-2.6c0.2,0,0.5-0.2,0.7-0.3c2.2-0.2,4.4-0.8,6.7-2.1
			l1.6-0.5c0.7-0.3,1,0,1.3,0.3l1.6,1.7c0.3,0.4,0.3,0.7,0.1,1c-0.2,0.3,0.2,0.8,0.8,1.3c0.5,0.6,0.6,1.4,0.1,2.3
			c-0.3,0.6-0.2,1,0.2,1.2l1.1,0.8c0.8,0.6,1.1,0.4,1.1-0.7c0-0.5-0.2-1.1-0.5-1.6c-0.4-0.7-0.6-1.3-0.7-2c0-1.3-0.2-2-0.7-2.5
			c-0.6-0.6-1.2-1.3-1.6-2c-0.1-0.4-0.3-0.7-0.5-0.8c-0.1-1.4-1.1-2.1-1.7-1.7c-0.5,0.1-1.1,0.2-1.6,0.1v-0.3c0.7-0.4,1.9-1.7,3.2-3
			c0.5-0.6,0.7-0.3,1.1,0.1l1.8,1.9c-0.1,0.9,0.1,1.5,0.7,1.5c0.4,0.7,0.6,1.5,0.2,1.8c-0.4,0.4-0.7,0.6-0.7,1.1
			c0.1,0.7,0.9,1.5,1.8,1.8c0.1,0,0.2,0,0.3-0.1c0.3-0.6,0.3-1.4,0-2.1L-404.1,416.4z"/>
	</g>
	<g>
		<path class="st0" d="M-285.5,395.5c2.2,0,4.3,1.3,4.3,4.5c0,3.2-2.1,4.5-4.3,4.5c-2.2,0-4.3-1.3-4.3-4.5
			C-289.9,396.8-287.7,395.5-285.5,395.5z M-285.5,403.3c0.7,0,2.4-0.3,2.4-3.3c0-3-1.8-3.3-2.4-3.3c-0.7,0-2.4,0.3-2.4,3.3
			C-288,403-286.2,403.3-285.5,403.3z"/>
	</g>
</g>
</svg>
