<?xml version="1.0" encoding="utf-8"?>
<!-- Generator: Adobe Illustrator 19.0.1, SVG Export Plug-In . SVG Version: 6.00 Build 0)  -->
<svg version="1.1" id="Шар_1" xmlns="http://www.w3.org/2000/svg" xmlns:xlink="http://www.w3.org/1999/xlink" x="0px" y="0px"
	 viewBox="-217 300.4 159.9 240.5" style="enable-background:new -217 300.4 159.9 240.5;" xml:space="preserve">
<style type="text/css">
	.st0{fill:#FFFFFF;}
	.st1{fill:#ED1C24;}
	.st2{fill:none;stroke:#FFFFFF;stroke-width:0.5922;stroke-miterlimit:10;}
</style>
<g>
	<g>
		<path class="st0" d="M-61.5,345.8c-7.9-14.9-24.5-22.1-40.1-18.9c-4.6-15.3-18.8-26.5-35.6-26.5s-31,11.3-35.4,26.6
			c-15.7-3.2-32.2,4.1-40.1,19c-7,13.3-5.1,28.9,3.5,40c-8.6,11.1-10.5,26.8-3.4,40c7.9,14.9,24.5,22.1,40.1,18.9l0,0h7.5v13.7
			c1,1.1,2,2.2,3.1,3.2v-30.6h7.5v35.9c1,0.5,2,1,3.1,1.5l-0.1-57.5h7.5l0.1,59.7c1,0.2,2.1,0.3,3.1,0.4l-0.1-70.5h7.5l0.1,70.5
			c1-0.1,2.1-0.3,3.1-0.5l-0.1-59.7h7.5l0.1,57.5c1.1-0.4,2.1-0.9,3.1-1.5v-35.9h7.5v30.6c1.1-1,2.1-2.1,3.1-3.2v-13.7h7.5l0,0
			c15.7,3.2,32.2-4.1,40.1-19c7-13.3,5.1-28.9-3.5-40C-56.3,374.7-54.5,359.1-61.5,345.8z"/>
		<g>
			<g>
				<g>
					<polygon class="st1" points="-137.1,374.2 -133.3,381.8 -124.9,383 -130.9,389 -129.5,397.4 -137,393.5 -144.6,397.4 
						-143.2,389 -149.3,383.1 -140.8,381.9 					"/>
				</g>
			</g>
			<g>
				<g>
					<path class="st1" d="M-165.5,359.3l-4.9-9c-2.7-4.9-1.5-9,3-11.5c4.6-2.4,8.6-1.2,11.4,3.6l-4.7,2.6c-1.3-2-2.6-2.5-4.3-1.5
						c-1.4,0.8-1.7,2.2-0.6,4.2l4.9,9c1.1,2,2.4,2.5,3.8,1.7c1.8-1,2.2-2.3,1.2-4.4l4.7-2.6c2.6,4.9,1.3,9-3.3,11.5
						C-158.8,365.3-162.9,364.2-165.5,359.3z"/>
					<path class="st1" d="M-102.6,351.7c-2.6,5-7,6.4-11.8,3.9l-2-1.1l-3.9,7.5l-4.7-2.5l12.2-23.3l6.8,3.5
						C-101.3,342.3-100,346.7-102.6,351.7z M-107.5,349.2c1.2-2.3,0.8-4-1.1-5l-2-1l-3.6,6.8l2,1
						C-110.2,352.1-108.6,351.4-107.5,349.2z"/>
				</g>
				<g>
					<g>
						<path class="st1" d="M-74.1,405.4l-26.3,0.1v-5.2h6.5c3.2,0.1,6.4,0.2,9.6,0.4l0.1-0.2l-6.9-2.4l-3.6-1.3v-5.3l3.6-1.3
							l6.9-2.4l-0.1-0.2c-3.2,0.1-6.4,0.3-9.6,0.4h-6.5v-5.2l26.3-0.1v5.4l-10,4.2c-1.3,0.5-3.6,1.4-4.6,1.7v0.2
							c1,0.3,3.3,1.2,4.6,1.7l10,4.1V405.4z"/>
					</g>
					<g>
						<path class="st1" d="M-200,382.9l26.3-0.1v5.2h-6.5c-3.2-0.1-6.4-0.2-9.6-0.4l-0.1,0.2l6.9,2.4l3.6,1.3v5.3l-3.6,1.3l-6.9,2.4
							l0.1,0.2c3.2-0.1,6.4-0.3,9.6-0.4h6.5v5.2l-26.3,0.1v-5.4l10-4.2c1.3-0.5,3.6-1.4,4.6-1.7v-0.2c-1-0.3-3.3-1.2-4.6-1.7
							l-10-4.1V382.9z"/>
					</g>
				</g>
			</g>
			<g>
				<polygon class="st1" points="-134.4,331.6 -139.8,331.6 -139.8,331.6 -145.2,331.6 -145.2,357.9 -139.8,357.9 -139.8,336.7 
					-134.4,336.7 -134.4,357.9 -129,357.9 -129.1,336.7 -129.1,331.6 				"/>
			</g>
			<g>
				<path class="st1" d="M-179.3,376.9l-7.7-5.1c-4.7-3.1-5.7-7.6-2.8-12.1c2.9-4.5,7.5-5.3,12.2-2.2l7.7,5.1
					c4.7,3.1,5.7,7.6,2.8,12.1C-170,379.2-174.6,380-179.3,376.9z M-172.9,367.2l-7.7-5.1c-2.1-1.4-3.7-1.2-4.8,0.4
					c-1.1,1.7-0.6,3.2,1.5,4.6l7.7,5.1c2.1,1.4,3.7,1.2,4.8-0.4C-170.3,370.2-170.9,368.6-172.9,367.2z"/>
				<path class="st1" d="M-104.3,362.2l7.6-5.2c4.7-3.2,9.2-2.4,12.2,2c3,4.4,2,8.9-2.6,12.1l-7.6,5.2c-4.7,3.2-9.2,2.4-12.2-2
					S-109,365.3-104.3,362.2z M-97.8,371.7l7.6-5.2c2.1-1.4,2.6-3,1.4-4.6c-1.1-1.6-2.8-1.7-4.8-0.3l-7.6,5.2
					c-2.1,1.4-2.6,3-1.4,4.6C-101.5,373-99.9,373.1-97.8,371.7z"/>
			</g>
			<g>
				<path class="st1" d="M-172.5,445c1.5,5.1,4.1,9.8,7.5,13.7V445H-172.5z"/>
				<path class="st1" d="M-161.9,431.3v30.6c2.3,2.1,4.8,3.8,7.5,5.3v-35.9H-161.9z"/>
				<path class="st1" d="M-108.9,458.6c3.4-3.9,6-8.6,7.4-13.7h-7.5L-108.9,458.6z"/>
				<path class="st1" d="M-119.6,431.2v35.9c2.7-1.5,5.2-3.3,7.5-5.3v-30.6H-119.6z"/>
				<path class="st1" d="M-130.2,411.1l0.1,59.7c2.6-0.5,5.1-1.3,7.5-2.3l-0.1-57.5L-130.2,411.1z"/>
				<path class="st1" d="M-151.4,411.1l0.1,57.5c2.4,1,4.9,1.8,7.5,2.2l-0.1-59.7H-151.4z"/>
				<path class="st1" d="M-140.8,400.8l0.1,70.5c1.2,0.1,2.5,0.2,3.7,0.2c1.3,0,2.5-0.1,3.7-0.2l-0.1-70.5H-140.8z"/>
			</g>
		</g>
	</g>
	<g>
		<path class="st0" d="M-200.1,499.5v-6.8c0-3.3,1.9-5.1,4.7-5.1c3,0,4.7,1.8,4.9,5h-2.3c-0.1-1.9-1-2.8-2.6-2.8
			c-1.4,0-2.3,0.9-2.3,2.9v6.8c0,1.9,0.9,2.9,2.3,2.9c1.6,0,2.4-0.9,2.6-2.8h2.3c-0.2,3.2-1.9,5-5,5
			C-198.2,504.6-200.1,502.8-200.1,499.5z"/>
		<path class="st0" d="M-178.7,504.3h-2.3v-14.2h-4.6v14.2h-2.4v-16.4h9.4L-178.7,504.3L-178.7,504.3z"/>
		<path class="st0" d="M-169.3,501h-4.3l-0.8,3.3h-2.5l4.1-16.4h2.6l4.1,16.4h-2.5L-169.3,501z M-169.8,498.8l-1-4.4
			c-0.2-1.1-0.5-2.7-0.6-3.5h-0.1c-0.1,0.9-0.4,2.4-0.6,3.5l-1,4.4H-169.8z"/>
		<path class="st0" d="M-154.8,493.2c0,3.5-1.8,5.4-5,5.4h-2v5.8h-2.4V488h4.3C-156.7,487.9-154.8,489.9-154.8,493.2z M-157.3,493.2
			c0-2-0.9-3.1-2.7-3.1h-1.9v6.1h1.9C-158.1,496.3-157.3,495.3-157.3,493.2z"/>
		<path class="st0" d="M-144.8,490.2h-3.4v14.2h-2.4v-14.2h-3.4v-2.3h9.2V490.2z"/>
		<path class="st0" d="M-137.5,501h-4.3l-0.8,3.3h-2.5l4.1-16.4h2.6l4.1,16.4h-2.5L-137.5,501z M-138,498.8l-1-4.4
			c-0.2-1.1-0.5-2.7-0.6-3.5h-0.1c-0.1,0.9-0.4,2.4-0.6,3.5l-1,4.4H-138z"/>
		<path class="st0" d="M-129,497.1l-1.1,1.6v5.6h-2.3v-16.4h2.3v7.1l1.1-1.9l3.3-5.2h2.7l-4.7,7.2l5.4,9.3h-2.7L-129,497.1z"/>
		<path class="st0" d="M-120.7,487.9h2.3v7.2c0,1.2-0.1,3.3-0.3,4.7h0.1c0.3-0.8,0.7-1.9,1.2-2.9l4-9.1h2.4v16.4h-2.3V497
			c0-1.2,0.1-3.4,0.2-4.8h-0.1c-0.3,0.8-0.8,2.1-1.2,3l-4,9h-2.4v-16.3H-120.7z"/>
		<path class="st0" d="M-101.6,501h-4.4l-0.8,3.3h-2.5l4.1-16.4h2.6l4.1,16.4h-2.5L-101.6,501z M-102.1,498.8l-1-4.4
			c-0.2-1.1-0.5-2.7-0.6-3.5h-0.1c-0.1,0.9-0.4,2.4-0.6,3.5l-1,4.4H-102.1z"/>
		<path class="st0" d="M-85.4,502.1v5h-2.3v-2.7h-7.8v2.7h-2.3v-5h1c1.2-1.2,1.8-3.7,1.9-6.3l0.3-7.9h7.9v14.2H-85.4z M-89.2,490.1
			h-3.3l-0.2,6.4c-0.1,2.3-0.5,4.2-1.3,5.6h4.9L-89.2,490.1L-89.2,490.1z"/>
		<path class="st0" d="M-77.2,501h-4.3l-0.8,3.3h-2.5l4.1-16.4h2.6l4.1,16.4h-2.5L-77.2,501z M-77.7,498.8l-1-4.4
			c-0.2-1.1-0.5-2.7-0.6-3.5h-0.1c-0.1,0.9-0.4,2.4-0.6,3.5l-1,4.4H-77.7z"/>
	</g>
	<g>
		<path class="st0" d="M-163.4,539.1h-0.4c-3.3,0-5.6-2.2-5.6-6v-3.6c0-3.9,2.3-6.1,5.6-6.1h0.4v-1.7h2.3v1.7h0.4
			c3.3,0,5.6,2.2,5.6,6.1v3.6c0,3.8-2.3,6-5.6,6h-0.4v1.8h-2.3V539.1z M-163.4,536.8v-11.1h-0.5c-1.9,0-3.2,1.1-3.2,3.8v3.6
			c0,2.6,1.2,3.7,3.2,3.7H-163.4z M-160.6,536.8c2,0,3.2-1.1,3.2-3.7v-3.6c0-2.7-1.2-3.8-3.2-3.8h-0.4v11.1H-160.6z"/>
		<path class="st0" d="M-152.7,523h2.3v7.2c0,1.2-0.1,3.3-0.3,4.7h0.1c0.3-0.8,0.7-1.9,1.2-2.9l4-9.1h2.4v16.4h-2.3v-7.2
			c0-1.2,0.1-3.4,0.2-4.8h-0.1c-0.3,0.8-0.8,2.1-1.2,3l-4,9h-2.4V523H-152.7z"/>
		<path class="st0" d="M-130.4,523v16.4h-2.4v-7.2h-4.6v7.2h-2.4V523h2.4v7h4.6v-7H-130.4z"/>
		<path class="st0" d="M-121,536.2h-4.3l-0.8,3.3h-2.5l4.1-16.4h2.6l4.1,16.4h-2.5L-121,536.2z M-121.5,534l-1-4.4
			c-0.2-1.1-0.5-2.7-0.6-3.5h-0.1c-0.1,0.9-0.4,2.4-0.6,3.5l-1,4.4H-121.5z"/>
		<path class="st0" d="M-106.6,523v16.4h-2.4v-14.2h-3.5c-0.2,4.8-0.4,8.5-0.8,10.5c-0.4,3-1.8,3.9-4.1,3.9v-2.2
			c1,0,1.5-0.6,1.8-2.3c0.3-1.7,0.5-5.4,0.8-12.2L-106.6,523L-106.6,523z"/>
	</g>
	<line class="st2" x1="-199.9" y1="513.6" x2="-75.2" y2="513.6"/>
</g>
</svg>
