<?xml version="1.0" encoding="utf-8"?>
<!-- Generator: Adobe Illustrator 19.0.1, SVG Export Plug-In . SVG Version: 6.00 Build 0)  -->
<svg version="1.1" id="Шар_1" xmlns="http://www.w3.org/2000/svg" xmlns:xlink="http://www.w3.org/1999/xlink" x="0px" y="0px"
	 viewBox="0 0 207.2 56.3" style="enable-background:new 0 0 207.2 56.3;" xml:space="preserve">
<style type="text/css">
	.st0{fill:#FFFFFF;}
</style>
<g>
	<g>
		<path class="st0" d="M57.9,15.9h2.5V12h-1.6l-0.1,1C58.5,14.5,58.1,15.7,57.9,15.9 M56.1,15.9h0.6c0.2-0.3,0.8-1.5,0.9-3.7
			l0.1-1.2h3.6v4.9h0.8v2h-1v-1h-4.1v1h-1V15.9z"/>
		<polygon class="st0" points="63.2,11 66.6,11 66.6,12 64.2,12 64.2,13.4 66.4,13.4 66.4,14.4 64.2,14.4 64.2,15.9 66.7,15.9 
			66.7,16.9 63.2,16.9 		"/>
		<polygon class="st0" points="71.7,12 69.1,12 69.1,16.9 68.1,16.9 68.1,11 72.8,11 72.8,16.9 71.7,16.9 		"/>
		<path class="st0" d="M75.7,14.4h1.7l-0.9-2.1L75.7,14.4z M76.2,11h0.9l2.5,5.9h-1.1l-0.6-1.5h-2.5l-0.6,1.5h-1L76.2,11z"/>
		<path class="st0" d="M81.5,12v1.8c0.2,0,0.5,0,0.7,0c0.6,0,1.1-0.3,1.1-0.9c0-0.6-0.4-0.9-1.1-0.9C82,12,81.8,12,81.5,12
			 M80.5,16.9V11c0.3,0,1.3,0,1.7,0c1.7,0,2.3,0.9,2.3,1.9c0,1-0.7,1.9-2.1,1.9c-0.2,0-0.5,0-0.8,0v2.1H80.5z"/>
		<polygon class="st0" points="84.8,11 89.6,11 89.6,12 87.7,12 87.7,16.9 86.7,16.9 86.7,12 84.8,12 		"/>
		<path class="st0" d="M91.4,14.4h1.7l-0.9-2.1L91.4,14.4z M91.8,11h0.9l2.5,5.9h-1.1l-0.6-1.5H91l-0.6,1.5h-1L91.8,11z"/>
		<polygon class="st0" points="96.1,11 97.2,11 99.2,13.8 101.1,11 102,11 102,16.9 101,16.9 101,12.6 99.2,15.2 99,15.2 97.1,12.7 
			97.1,16.9 96.1,16.9 		"/>
		<polygon class="st0" points="103.7,11 107.1,11 107.1,12 104.8,12 104.8,13.4 106.9,13.4 106.9,14.4 104.8,14.4 104.8,15.9 
			107.2,15.9 107.2,16.9 103.7,16.9 		"/>
		<polygon class="st0" points="112.3,14.4 109.6,14.4 109.6,16.9 108.6,16.9 108.6,11 109.6,11 109.6,13.4 112.3,13.4 112.3,11 
			113.3,11 113.3,16.9 112.3,16.9 		"/>
		<polygon class="st0" points="114.3,11 119.1,11 119.1,12 117.2,12 117.2,16.9 116.2,16.9 116.2,12 114.3,12 		"/>
		<polygon class="st0" points="121.9,16.9 121.9,11 122.9,11 122.9,15.2 126,11 126.9,11 126.9,16.9 125.9,16.9 125.9,12.7 
			122.8,16.9 		"/>
		<polygon class="st0" points="132.3,14.4 129.6,14.4 129.6,16.9 128.6,16.9 128.6,11 129.6,11 129.6,13.4 132.3,13.4 132.3,11 
			133.3,11 133.3,16.9 132.3,16.9 		"/>
		<path class="st0" d="M136,14.4v1.6c0.1,0,0.4,0,0.7,0c0.7,0,1.1-0.3,1.1-0.8c0-0.5-0.4-0.7-1-0.7H136z M136,12v1.5h0.7
			c0.5,0,0.9-0.2,0.9-0.8c0-0.5-0.4-0.7-0.9-0.7C136.4,11.9,136.2,12,136,12 M135,11c0.3,0,1.1,0,1.7,0c1.4,0,1.9,0.6,1.9,1.5
			c0,0.7-0.3,1.1-0.8,1.3v0c0.6,0.1,1,0.6,1,1.4c0,1.2-0.9,1.8-2.2,1.8c-0.5,0-1.3,0-1.6,0V11z"/>
		<polygon class="st0" points="140.2,11 143.6,11 143.6,12 141.2,12 141.2,13.4 143.4,13.4 143.4,14.4 141.2,14.4 141.2,15.9 
			143.7,15.9 143.7,16.9 140.2,16.9 		"/>
		<path class="st0" d="M149.5,16.3c-0.4,0.4-1.1,0.7-1.9,0.7c-1.8,0-3-1.2-3-3c0-1.7,1.1-3,3-3c0.8,0,1.4,0.2,1.8,0.6l-0.5,0.8
			c-0.4-0.2-0.7-0.4-1.3-0.4c-1.1,0-1.9,0.8-1.9,2.1c0,1.2,0.8,2.1,2,2.1c0.5,0,1-0.2,1.4-0.5L149.5,16.3z"/>
		<polygon class="st0" points="149.9,11 154.7,11 154.7,12 152.8,12 152.8,16.9 151.8,16.9 151.8,12 149.9,12 		"/>
		<polygon class="st0" points="155.7,16.9 155.7,11 156.7,11 156.7,15.2 159.8,11 160.7,11 160.7,16.9 159.7,16.9 159.7,12.7 
			156.6,16.9 		"/>
		<polygon class="st0" points="162.4,11 163.4,11 163.4,15.9 166,15.9 166,11 167,11 167,15.9 167.8,15.9 167.8,17.9 166.8,17.9 
			166.8,16.9 162.4,16.9 		"/>
		<polygon class="st0" points="168.9,16.9 168.9,11 169.9,11 169.9,15.2 173,11 173.9,11 173.9,16.9 172.9,16.9 172.9,12.7 
			169.8,16.9 		"/>
		<path class="st0" d="M178.2,16c1.2,0,2-0.9,2-2.1c0-1.2-0.9-2.1-2-2.1c-1.1,0-2,0.8-2,2.1C176.2,15.1,177.1,16,178.2,16
			 M178.2,10.9c1.7,0,3.1,1.2,3.1,3c0,1.8-1.3,3-3.1,3c-1.7,0-3.1-1.2-3.1-3C175.1,12.2,176.4,10.9,178.2,10.9"/>
		<polygon class="st0" points="186.2,14.4 183.5,14.4 183.5,16.9 182.5,16.9 182.5,11 183.5,11 183.5,13.4 186.2,13.4 186.2,11 
			187.2,11 187.2,16.9 186.2,16.9 		"/>
		<polygon class="st0" points="192.6,14.4 189.9,14.4 189.9,16.9 188.9,16.9 188.9,11 189.9,11 189.9,13.4 192.6,13.4 192.6,11 
			193.6,11 193.6,16.9 192.6,16.9 		"/>
		<path class="st0" d="M197.9,16c1.2,0,2-0.9,2-2.1c0-1.2-0.9-2.1-2-2.1c-1.1,0-2,0.8-2,2.1C196,15.1,196.8,16,197.9,16 M197.9,10.9
			c1.7,0,3.1,1.2,3.1,3c0,1.8-1.3,3-3.1,3c-1.7,0-3.1-1.2-3.1-3C194.9,12.2,196.1,10.9,197.9,10.9"/>
		<path class="st0" d="M204.1,9.6c0.1,0.3,0.3,0.5,0.7,0.5c0.4,0,0.6-0.1,0.7-0.5h1c0,0.7-0.7,1.2-1.6,1.2c-1,0-1.6-0.5-1.7-1.2
			H204.1z M202.2,16.9V11h1v4.2l3.1-4.2h0.9v5.9h-1v-4.2l-3.1,4.2H202.2z"/>
		<polygon class="st0" points="56.8,28.1 56.8,22.2 57.9,22.2 57.9,26.4 60.9,22.2 61.8,22.2 61.8,28.1 60.8,28.1 60.8,23.9 
			57.7,28.1 		"/>
		<polygon class="st0" points="69,23.2 66.4,23.2 66.4,28.1 65.3,28.1 65.3,22.2 70,22.2 70,28.1 69,28.1 		"/>
		<path class="st0" d="M72.7,23.2V25c0.2,0,0.5,0,0.7,0c0.6,0,1.1-0.3,1.1-0.9c0-0.6-0.4-0.9-1.1-0.9C73.3,23.1,73,23.2,72.7,23.2
			 M71.7,28.1v-5.9c0.3,0,1.3,0,1.7,0c1.7,0,2.3,0.9,2.3,1.9c0,1-0.7,1.9-2.1,1.9c-0.2,0-0.5,0-0.8,0v2.1H71.7z"/>
		<path class="st0" d="M79.4,27.2c1.2,0,2-0.9,2-2.1c0-1.2-0.9-2.1-2-2.1c-1.1,0-2,0.8-2,2.1C77.5,26.3,78.3,27.2,79.4,27.2
			 M79.4,22.1c1.7,0,3.1,1.2,3.1,3c0,1.8-1.3,3-3.1,3c-1.7,0-3.1-1.2-3.1-3C76.4,23.4,77.6,22.1,79.4,22.1"/>
		<polygon class="st0" points="83.7,22.2 84.8,22.2 86.8,24.9 88.7,22.2 89.7,22.2 89.7,28.1 88.7,28.1 88.7,23.8 86.8,26.4 
			86.6,26.4 84.8,23.9 84.8,28.1 83.7,28.1 		"/>
		<path class="st0" d="M96,22.2h1v5.9h-1V22.2z M92.4,25.2v1.9c0.2,0,0.4,0,0.6,0c0.8,0,1.2-0.3,1.2-1c0-0.6-0.4-1-1.1-1
			C92.8,25.1,92.6,25.2,92.4,25.2 M92.4,24.2c0.3,0,0.5,0,0.7,0c1.5,0,2.1,0.7,2.1,1.9c0,1.2-0.9,2-2.4,2c-0.6,0-1.1,0-1.5,0v-5.9h1
			V24.2z"/>
		<polygon class="st0" points="98.6,22.2 99.7,22.2 99.7,27.1 101.5,27.1 101.5,22.2 102.5,22.2 102.5,27.1 104.4,27.1 104.4,22.2 
			105.4,22.2 105.4,28.1 98.6,28.1 		"/>
		<path class="st0" d="M110.5,23.2h-1.7l-0.1,1.1c-0.3,3.4-1.1,4-2.3,3.8l0-1c0.5,0.1,1-0.1,1.3-3.7l0.1-1.2h3.7v5.9h-1V23.2z"/>
		<polygon class="st0" points="113.2,22.2 116.6,22.2 116.6,23.2 114.3,23.2 114.3,24.6 116.4,24.6 116.4,25.6 114.3,25.6 
			114.3,27.1 116.7,27.1 116.7,28.1 113.2,28.1 		"/>
		<polygon class="st0" points="121.8,25.6 119.1,25.6 119.1,28.1 118.1,28.1 118.1,22.2 119.1,22.2 119.1,24.6 121.8,24.6 
			121.8,22.2 122.8,22.2 122.8,28.1 121.8,28.1 		"/>
		<polygon class="st0" points="128.2,25.6 125.5,25.6 125.5,28.1 124.5,28.1 124.5,22.2 125.5,22.2 125.5,24.6 128.2,24.6 
			128.2,22.2 129.2,22.2 129.2,28.1 128.2,28.1 		"/>
		<path class="st0" d="M133.5,27.2c1.2,0,2-0.9,2-2.1c0-1.2-0.9-2.1-2-2.1c-1.1,0-2,0.8-2,2.1C131.6,26.3,132.4,27.2,133.5,27.2
			 M133.5,22.1c1.7,0,3.1,1.2,3.1,3c0,1.8-1.3,3-3.1,3c-1.7,0-3.1-1.2-3.1-3C130.5,23.4,131.7,22.1,133.5,22.1"/>
		<path class="st0" d="M139.7,20.8c0.1,0.3,0.3,0.5,0.7,0.5c0.4,0,0.6-0.1,0.7-0.5h1c0,0.7-0.7,1.2-1.6,1.2c-1,0-1.6-0.5-1.7-1.2
			H139.7z M137.8,28.1v-5.9h1v4.2l3.1-4.2h0.9v5.9h-1v-4.2l-3.1,4.2H137.8z"/>
		<polygon class="st0" points="150,23.2 147.4,23.2 147.4,28.1 146.4,28.1 146.4,22.2 151,22.2 151,28.1 150,28.1 		"/>
		<path class="st0" d="M155.3,27.2c1.2,0,2-0.9,2-2.1c0-1.2-0.9-2.1-2-2.1c-1.1,0-2,0.8-2,2.1C153.4,26.3,154.2,27.2,155.3,27.2
			 M155.3,22.1c1.7,0,3.1,1.2,3.1,3c0,1.8-1.3,3-3.1,3c-1.7,0-3.1-1.2-3.1-3C152.3,23.4,153.5,22.1,155.3,22.1"/>
		<path class="st0" d="M162.9,23.2h-1.7l-0.1,1.1c-0.3,3.4-1.1,4-2.3,3.8l0-1c0.5,0.1,1-0.1,1.3-3.7l0.1-1.2h3.7v5.9h-1V23.2z"/>
		<polygon class="st0" points="165.6,28.1 165.6,22.2 166.6,22.2 166.6,26.4 169.7,22.2 170.6,22.2 170.6,28.1 169.6,28.1 
			169.6,23.9 166.5,28.1 		"/>
		<polygon class="st0" points="171.6,22.2 176.4,22.2 176.4,23.2 174.5,23.2 174.5,28.1 173.5,28.1 173.5,23.2 171.6,23.2 		"/>
		<polygon class="st0" points="177.3,28.1 177.3,22.2 178.4,22.2 178.4,26.4 181.5,22.2 182.4,22.2 182.4,28.1 181.3,28.1 
			181.3,23.9 178.2,28.1 		"/>
		<polygon class="st0" points="184,22.2 185.1,22.2 185.1,25 187.4,22.2 188.6,22.2 186.2,24.9 188.8,28.1 187.5,28.1 185.1,25 
			185.1,28.1 184,28.1 		"/>
		<polygon class="st0" points="189.7,28.1 189.7,22.2 190.7,22.2 190.7,26.4 193.8,22.2 194.7,22.2 194.7,28.1 193.7,28.1 
			193.7,23.9 190.6,28.1 		"/>
		<polygon class="st0" points="56.8,33.4 60.1,33.4 60.1,34.7 58.1,34.7 58.1,39.3 56.8,39.3 		"/>
		<path class="st0" d="M63.6,38.1c1.1,0,1.7-0.8,1.7-1.8c0-1.1-0.7-1.8-1.7-1.8c-1,0-1.7,0.7-1.7,1.8C61.9,37.3,62.6,38.1,63.6,38.1
			 M63.6,33.3c1.8,0,3.1,1.2,3.1,3c0,1.8-1.3,3-3.1,3c-1.8,0-3.1-1.2-3.1-3C60.5,34.6,61.7,33.3,63.6,33.3"/>
		<path class="st0" d="M69.2,34.7V36c0.2,0,0.4,0,0.6,0c0.4,0,0.8-0.2,0.8-0.7c0-0.5-0.3-0.7-0.8-0.7C69.6,34.6,69.5,34.6,69.2,34.7
			 M67.8,39.3v-5.9c0.3,0,1.3,0,1.8,0c1.8,0,2.4,0.9,2.4,1.9c0,1-0.8,2-2.2,2c-0.1,0-0.4,0-0.7,0v2H67.8z"/>
		<path class="st0" d="M75.9,38.1c1.1,0,1.7-0.8,1.7-1.8c0-1.1-0.7-1.8-1.7-1.8c-1,0-1.7,0.7-1.7,1.8C74.2,37.3,74.9,38.1,75.9,38.1
			 M75.9,33.3c1.8,0,3.1,1.2,3.1,3c0,1.8-1.3,3-3.1,3c-1.8,0-3.1-1.2-3.1-3C72.7,34.6,74,33.3,75.9,33.3"/>
		<path class="st0" d="M81.4,38h1.9v-3.4h-1.2l-0.1,1C81.9,36.7,81.6,37.7,81.4,38 M79.3,38h0.6c0.2-0.3,0.8-1.5,0.8-3.4l0.1-1.2
			h3.8V38h0.8v2.3h-1.3v-1h-3.6v1h-1.3V38z"/>
		<path class="st0" d="M88,36.8h1.3l-0.7-1.7L88,36.8z M88.1,33.4h1.2l2.4,5.9h-1.4L89.8,38h-2.3L87,39.3h-1.4L88.1,33.4z"/>
		<polygon class="st0" points="94.3,33.4 95.6,33.4 97.4,35.9 99.1,33.4 100.4,33.4 100.4,39.3 99.1,39.3 99.1,35.5 97.4,37.8 
			97.2,37.8 95.6,35.6 95.6,39.3 94.3,39.3 		"/>
		<path class="st0" d="M104.7,38.1c1.1,0,1.7-0.8,1.7-1.8c0-1.1-0.7-1.8-1.7-1.8c-1,0-1.7,0.7-1.7,1.8
			C103,37.3,103.7,38.1,104.7,38.1 M104.7,33.3c1.8,0,3.1,1.2,3.1,3c0,1.8-1.3,3-3.1,3c-1.8,0-3.1-1.2-3.1-3
			C101.5,34.6,102.8,33.3,104.7,33.3"/>
		<path class="st0" d="M113.5,38.7c-0.4,0.4-1.1,0.7-1.9,0.7c-1.8,0-3.1-1.2-3.1-3c0-1.7,1-3,3.1-3c0.8,0,1.4,0.3,1.8,0.6l-0.6,1
			c-0.3-0.2-0.6-0.4-1.2-0.4c-0.9,0-1.6,0.6-1.6,1.8c0,1,0.7,1.8,1.8,1.8c0.4,0,0.9-0.1,1.3-0.4L113.5,38.7z"/>
		<polygon class="st0" points="114.5,33.4 115.8,33.4 115.8,36 117.7,33.4 119.3,33.4 117.1,36.1 119.5,39.3 117.8,39.3 115.8,36.5 
			115.8,39.3 114.5,39.3 		"/>
		<path class="st0" d="M121.7,36.9V38c0.1,0,0.2,0,0.5,0c0.5,0,0.8-0.2,0.8-0.6c0-0.4-0.3-0.5-0.7-0.5H121.7z M121.7,34.7v1.1h0.4
			c0.3,0,0.6-0.1,0.6-0.6c0-0.4-0.3-0.5-0.6-0.5C121.9,34.6,121.8,34.6,121.7,34.7 M120.3,33.4c0.3,0,1.1-0.1,1.8-0.1
			c1.4,0,2,0.6,2,1.5c0,0.6-0.2,1-0.7,1.3v0c0.4,0.2,0.8,0.6,0.8,1.3c0,1.2-1,1.8-2.2,1.8c-0.6,0-1.3,0-1.7-0.1V33.4z"/>
		<path class="st0" d="M130.1,33.4h1.3v5.9h-1.3V33.4z M126.9,36.5V38c0.2,0,0.3,0,0.4,0c0.5,0,0.8-0.3,0.8-0.8
			c0-0.5-0.3-0.8-0.8-0.8C127.2,36.5,127,36.5,126.9,36.5 M126.9,35.2c0.2,0,0.4,0,0.5,0c1.4,0,2.1,0.8,2.1,2c0,1.3-0.9,2.1-2.4,2.1
			c-0.6,0-1.2,0-1.6,0v-5.9h1.3V35.2z"/>
	</g>
	<path class="st0" d="M23.6,56.2c-5.2-1.2-11.8-3.6-16.7-7.6c-3.7-3-6.4-6.9-6.9-11.8l0,0V0h47.5v36.8l0,0
		c-0.5,4.9-3.2,8.8-6.9,11.8c-4.9,4-11.5,6.4-16.8,7.6l-0.1,0L23.6,56.2z M23.7,55.5c5.6-1.3,11.8-3.7,16.4-7.4
		c3.6-2.9,6.1-6.6,6.6-11.3v-36H0.8v36c0.5,4.7,3,8.4,6.6,11.3C11.9,51.8,18.1,54.2,23.7,55.5"/>
	<path class="st0" d="M22.3,17.8l5.3-1.6l0,6l-0.9,0.2l0,1.4l0.7-0.1l0-0.8l3.1-0.8l0,1.4l1.6-0.1c-0.2,0.3-0.4,0.6-0.5,0.9L26,24.8
		l-2.8-2.3l0-3.9L22.3,17.8z M40.9,23.5c0.2,1.1,0.5,4,0.1,6.1l1.9,0.9l-1.2,4.1l-2.1-0.2c-0.3,0.6-0.6,1.2-1,1.8
		c-0.3,0.6-0.7,1.1-1.1,1.6l1,1.5l0.2,0.3l-0.3,0.3l-2.6,2.5l-0.3,0.3l-0.3-0.2l-1.3-1.1c-0.5,0.4-1.1,0.7-1.7,1
		c-0.6,0.3-1.2,0.6-1.8,0.8l0.2,1.7l0,0.4l-4.1,1l-0.2-0.3l-0.8-1.6c-0.7,0.1-1.4,0.1-2,0c-0.7,0-1.3-0.1-2-0.2l-0.8,1.5l-0.2,0.3
		l-4-1.2l0-0.4l0.2-1.7c-1.7-0.8-3.1-1.9-4.5-3.1l-2.3,1.3l-2.3-3.1l0.4-0.2l1.8-1c-0.6-1-1.4-2.4-1.8-3.2l-2,0.2l-0.4,0L5.4,33
		l-0.8-3.4l-0.1-0.3l0.3-0.1l1.9-0.9c-0.1-0.7-0.1-1.4,0-2c0-0.7,0.1-1.3,0.2-2l-1.8-0.8l-0.4-0.2L5,22.9l1.1-3.3l0.1-0.3l0.3,0
		l1.9,0.2c0.3-0.6,0.6-1.2,1-1.8c0.3-0.6,0.7-1.1,1.1-1.6l-1-1.5l-0.2-0.3l0.3-0.3l2.6-2.5l0.3-0.3l0.3,0.2l1.3,1.1
		c0.5-0.4,1.1-0.7,1.7-1c0.6-0.3,1.2-0.6,1.8-0.8l-0.2-1.7l0-0.4l0.4-0.1l3.4-0.8l0.3-0.1l0.2,0.3l0.8,1.6c0.7-0.1,1.4-0.1,2,0
		c0.7,0,1.3,0.1,2,0.2l0.8-1.5l0.2-0.3l0.3,0.1l3.3,1l0.4,0.1l0,0.4l-0.2,1.7c0.6,0.3,1.2,0.6,1.8,1c0.6,0.4,1.1,0.7,1.6,1.2l1.4-1
		l0.3-0.2l0.3,0.3l2.4,2.4l0.3,0.2l-0.2,0.3L38,17.1c0.2,0.3,0.4,0.7,0.7,1.1c0.4,0.6,0.8,1.3,1,1.8l1.8-0.9l1.4,3.4L40.9,23.5z
		 M15.2,37.8c0.1,0.1,0.2,0.2,0.4,0.3l0,0c0.2,0.1,0.3,0.2,0.5,0.4l0,0l0,0c0.1,0.1,0.2,0.1,0.3,0.2l0,0l0.1,0.1l0,0l0.1,0.1l0,0
		l0.1,0.1l0,0l0.1,0.1l0.1,0.1l0,0l0.1,0.1l0.1,0l0,0l0.1,0.1l0,0l0.1,0l0.1,0l0.1,0l0.1,0l0.1,0l0.1,0l0,0l0.1,0.1l0,0l0,0l0.1,0.1
		c0.1,0,0.2,0.1,0.3,0.1l0,0l0.1,0.1l0,0l0.1,0.1h0l0.1,0.1l0,0l0.1,0.1l0,0l0.1,0l0,0l0.1,0l0,0l0.1,0l0,0l0,0l0.1,0l0.1,0l0.1,0
		l0.1,0l0.1,0l0.1,0l0.1,0l0.1,0l0,0c0.1,0,0.2,0.1,0.3,0.1l0,0l0,0l0.1,0l0,0l0.1,0l0,0l0.1,0l0,0l0.1,0l0,0l0.2,0l0,0l0.1,0l0,0
		l0.1,0l0,0l0.1,0l0,0l0.1,0l0,0l0,0l0.1,0l0,0l0.1,0l0,0l0.1,0l0,0l0.1,0l0.1,0l0,0l0.1,0l0,0l0.1,0l0,0l0.1,0l0,0l0.1,0l0.1,0l0,0
		l0.1,0l0,0l0.1,0l0.1,0l0.1,0h0l0.2,0h0l0.2,0c7.7,0,13.9-6.2,13.9-13.9v-0.1l0,0v0v0v0l0,0v0l0,0v0l0,0v0l0,0v0l0,0v0v0l0,0v0l0,0
		v0l0,0l0,0l0,0l0,0l0,0v0l0,0l0,0l0,0l0,0l0,0l0,0l0,0v0l0,0v0l0,0l0,0l0,0l0,0v0l0,0l0,0l0,0l0,0l0,0l0,0v0l0,0l0,0l0,0l0,0l0,0
		l0,0l0,0l0,0l0,0v0l0,0l0,0l0,0l0,0v0l0,0l0,0l0,0l0,0l0,0l0,0l0,0l0,0v0l0,0l0,0l0,0l0,0l0,0l0,0l0,0l0,0l0,0l0,0l0,0l0,0l0,0l0,0
		l0,0v0l0,0l0,0l0,0l0,0l0,0l0,0l0,0v0l0,0l0,0l0,0l0,0l0,0l0,0l0,0l0,0l0,0l0,0l0,0l-2.3,1.3c0.3-0.4,0.6-0.8,0.6-1.3l5.6-3.1
		l-0.7-1.8l-1.7,0.9c-0.1-0.3-0.2-0.5-0.4-0.8l0,0c-0.3-0.6-0.6-1.2-1-1.7c-0.3-0.5-0.6-1-0.8-1.3l-0.2-0.2l0.2-0.2l1.1-1.7
		l-1.9-1.9l-1.4,1l-0.3,0.2l-0.3-0.2c-0.6-0.5-1.2-0.9-1.8-1.3c-0.6-0.4-1.3-0.8-1.9-1.1l-0.3-0.1l0-0.3l0.2-1.7l-2.6-0.8l-0.7,1.4
		L27,10.9l-0.3-0.1c-0.7-0.1-1.5-0.2-2.2-0.2c-0.7,0-1.5,0-2.2,0.1l-0.3,0l-0.1-0.3l-0.8-1.6l-2.7,0.7l0.2,1.6l0,0.3l-0.3,0.1
		c-0.7,0.3-1.4,0.6-2,0.9c-0.7,0.3-1.3,0.7-1.9,1.2l-0.3,0.2l-0.3-0.2l-1.3-1.1l-2.1,2l0.9,1.4l0.2,0.3l-0.2,0.2
		c-0.5,0.6-0.9,1.2-1.3,1.8c-0.4,0.6-0.7,1.3-1.1,2L9,20.4l-0.3,0l-1.9-0.2l-0.9,2.6l1.7,0.8l0.3,0.1L7.9,24
		c-0.1,0.7-0.2,1.5-0.2,2.2c0,0.7,0,1.5,0.1,2.2l0,0.3l-0.3,0.1l-1.8,0.8l0.6,2.7l1.9-0.2l0.3,0l0.1,0.3c0.3,0.7,1.1,2.4,1.8,3.4
		l0,0l0.1,0.1l0,0c0,0,0,0,0,0l0.4,0.5l-2.1,1.2l1.3,1.7l6.4-3.5c0.2,0.1,0.3,0.2,0.5,0.2l0.1,0.2l0,0l0,0l0,0l0,0l0,0.1l0,0
		c0.2,0.6,0.4,1.2,0.5,1.7c-0.6-0.3-1.1-0.7-1.6-1.1L15.2,37.8z M19.1,39.1c-0.2-0.1-0.4-0.2-0.6-0.3c-0.2-0.8-0.4-1.7-0.7-2.5l0,0
		l0,0l0,0c1-0.1,1.7-1,1.8-1.3 M19.8,34.5c0.1-0.6,0-0.9-0.1-1.3l3.9-4.6c0.2,0,0.3,0.1,0.5,0.1h0l0,0h0h0h0l0,0h0h0h0h0l0,0h0l0,0
		h0h0h0h0h0l0,0h0l0,0h0h0h0h0h0l0,0h0l0,0h0h0h0h0h0l0,0h0l0,0h0h0h0h0h0l0,0l0,0h0h0h0h0l0,0l0,0h0h0h0l0,0l0,0h0h0h0l0,0h0l0,0h0
		h0l0,0h0l0,0l0,0h0h0l0,0l0,0h0l0,0h0l0,0l0,0h0l0,0l0,0h0l0,0l0,0l0,0l0,0h0l0,0h0l0,0l0,0l0,0l0,0h0l0,0l0,0l0,0l0,0l0,0l0,0l0,0
		h0l0,0l0,0h0l0,0l0,0h0l0,0h0l0,0l0,0l0,0l0,0h0l0,0c0.1,0,0.2,0,0.4-0.1v4.1l-2.1-1.9l-0.5,0.6l3,2.6v5.9C25,40,24.4,40,23.9,40
		c-1.4,0-2.9-0.3-4.1-0.7c0,0,0-0.1,0-0.1c0.2-1.7,0.5-3.4,0.6-5.3 M26.4,27l5.7-0.5c0,0,0.1,0.1,0.1,0.1c0.4,0.4,0.9,0.6,1.6,0.7
		l-3.7,0.3l0,10.9c-0.8,0.4-1.7,0.8-2.6,1.1V27.8l-0.7,0.1l0,11.9c-0.2,0-0.4,0.1-0.5,0.1l0-6.3l-0.4-0.3l0-5.1l0,0
		c0,0,0.1-0.1,0.1-0.1h0l0,0l0,0l0,0c0.1-0.1,0.1-0.2,0.2-0.3l0,0l0,0v0l0,0l0,0l0,0l0,0l0,0l0,0l0,0l0,0l0,0l0,0l0,0l0,0l0,0l0,0
		l0,0l0,0l0,0l0,0C26.3,27.3,26.4,27.1,26.4,27 M10.3,30.1l0-0.2c-0.2-1-0.3-2-0.3-3c0-2.4,0.6-4.7,1.7-6.7c1-1.8,2.3-3.4,4-4.6
		c2.4-1.7,5.3-2.6,8.2-2.6c5.1,0,9.8,2.8,12.2,7.3c0.4,0.7,0.7,1.3,0.9,2l-1.7,0.9c-0.3-0.2-0.6-0.4-1-0.5l1.6-0.8
		c-0.1-0.2-0.1-0.3-0.1-0.4c-1.7-3.9-5.3-6.7-9.6-7.5c-0.9-0.1-1.8-0.2-2.7-0.2C12.8,14.3,7.5,25.9,13.1,34.4l1.1-0.6
		c0.1-1.7,0.2-3.5,0.2-5.3c0.4,1.4,0.9,2.8,1.3,4.1c-0.1,0.2-0.3,0.3-0.3,0.5l0,0l0,0l0,0l0,0l0,0l0,0l0,0l0,0l0,0l0,0l0,0l0,0l0,0
		h0l0,0l0,0l0,0l0,0l0,0l0,0l0,0l0,0h0l0,0l0,0l0,0l0,0l0,0l0,0l0,0l0,0l0,0l0,0l0,0l0,0l0,0l0,0l0,0l0,0l0,0l0,0l0,0l0,0l0,0l0,0
		l0,0l0,0l0,0l0,0l0,0l0,0l0,0l0,0l0,0l0,0l0,0l0,0l0,0l0,0l0,0l0,0l0,0l0,0l0,0l0,0l0,0l0,0l0,0l0,0l0,0l0,0c0,0.1,0,0.3,0,0.4
		c0,0,0,0.1,0,0.1l-2.4,1.4C11.6,34,10.8,32.2,10.3,30.1 M18.8,29.5l1.1-1.4l-0.7-0.6l0-7.6l4.9,4.3h0l0,0h0l0,0h0l0,0h0l0,0h0l0,0
		h0l0,0h0l0,0h0l0,0h0l0,0h0l0,0h0l0,0h0l0,0l0,0l0,0h0l0,0l0,0l0,0h0l0,0h0l0,0l0,0l0,0h0l0,0h0l0,0l0,0h0l0,0h0l0,0l0,0l0,0l0,0
		l0,0l0,0l0,0h0l0,0h0l0,0h0l0,0h0l0,0h0l0,0l0,0l0,0v0l0,0h0l0,0h0l0,0l0,0l0,0l0,0l0,0l0,0h0l0,0l0,0l0,0v0l0,0h0l0,0h0l0,0l0,0
		l0,0h0l0,0l0,0l0,0l0,0l0,0l0,0l0,0h0l0,0l0,0l0,0l0,0l0,0l0,0l0,0l0,0l0,0l0,0v0l0,0l0,0l0,0l0,0l0,0l0,0l0,0l0,0l0,0l0,0l0,0l0,0
		l0,0l0,0l0,0l0,0l0,0l0,0l0,0l0,0l0,0l0,0l0,0l0,0l0,0l0,0l0,0l0,0l0,0l0,0l0,0l0,0l0,0l0,0l0,0l0,0l0,0l0,0l0,0l0,0l0,0l0,0l0,0
		l0,0l0,0l0,0l0,0l0,0l0,0l0,0l0,0l0,0l0,0l0,0l0,0l0,0l0,0l0,0l0,0l0,0l0,0l0,0l0,0l0,0.1l0,0l0,0l0,0.1l0,0l0,0l0,0.1l0,0
		c0,0.1,0,0.1,0,0.2l0,0l0,0l0,0l0,0c0,0,0,0.1,0,0.1l0,0l0,0l0,0l0,0l0,0l0,0l0,0l0,0v0c0,0.1,0,0.1,0,0.2c0,0.2,0,0.3,0,0.5l-4,5
		c-0.2,0-0.3-0.1-0.5-0.1h0h0h0h0h0l0,0h0l0,0h0h0l0,0h0h0l0,0h0h0l0,0l0,0h0l0,0h0h0l0,0l0,0h0l0,0h0h0l0,0h0l0,0h0h0l0,0l0,0h0
		l0,0l0,0h0l0,0l0,0l0,0h0l0,0l0,0h0l0,0l0,0l0,0l0,0l0,0h0l0,0l0,0h0l0,0l0,0l0,0l0,0l0,0h0l0,0l0,0l0,0l0,0l0,0l0,0l0,0l0,0l0,0
		l0,0l0,0l0,0l0,0l0,0l0,0h0l0,0l0,0h0l0,0l0,0l0,0l0,0l0,0l0,0l0,0l0,0c-0.2,0-0.3,0.1-0.5,0.2c-0.5-1.3-0.9-2.6-1.3-3.8l3.4,0.2
		C18.6,28.8,18.7,29.1,18.8,29.5 M30.8,38V27.6l3.7,1.5l0,5.5C33.5,35.9,32.3,37.1,30.8,38 M22.5,18.9v2.9L19.3,19l0-3L22.5,18.9z
		 M18.5,33.1c-0.3-0.3-0.6-0.4-1-0.4c-0.4,0-0.7,0.2-1,0.4c-0.3,0.3-0.4,0.6-0.4,1c0,0.4,0.2,0.7,0.4,1c0.3,0.3,0.6,0.4,1,0.4
		c0.4,0,0.7-0.2,1-0.4c0.3-0.3,0.4-0.6,0.4-1C18.9,33.7,18.7,33.3,18.5,33.1 M25.2,25.4c-0.3-0.3-0.6-0.4-1-0.4
		c-0.4,0-0.7,0.2-1,0.4c-0.3,0.3-0.4,0.6-0.4,1c0,0.4,0.2,0.7,0.4,1c0.3,0.3,0.6,0.4,1,0.4c0.4,0,0.7-0.2,1-0.4
		c0.3-0.3,0.4-0.6,0.4-1C25.6,26.1,25.5,25.7,25.2,25.4 M34.8,24c-0.3-0.3-0.6-0.4-1-0.4c-0.4,0-0.7,0.2-1,0.4
		c-0.3,0.3-0.4,0.6-0.4,1c0,0.4,0.2,0.7,0.4,1c0.3,0.3,0.6,0.4,1,0.4c0.4,0,0.7-0.2,1-0.4c0.3-0.3,0.4-0.6,0.4-1
		C35.2,24.6,35,24.3,34.8,24"/>
</g>
</svg>
