<?xml version="1.0" encoding="utf-8"?>
<!-- Generator: Adobe Illustrator 19.0.1, SVG Export Plug-In . SVG Version: 6.00 Build 0)  -->
<svg version="1.1" id="Шар_1" xmlns="http://www.w3.org/2000/svg" xmlns:xlink="http://www.w3.org/1999/xlink" x="0px" y="0px"
	 viewBox="-355 322.7 393.6 183" style="enable-background:new -355 322.7 393.6 183;" xml:space="preserve">
<style type="text/css">
	.st0{fill:#E20E18;}
	.st1{fill:#FFFFFF;}
</style>
<g>
	<path class="st0" d="M-190.1,414.2c8.2-12.8,8.9-29.3,1.7-42.9c-7.4-14-21.9-22.7-37.7-22.7c-1.3,0-2.5,0.1-3.8,0.2
		c-6.6-15.8-21.9-26.1-39.3-26.1s-32.8,10.3-39.3,26.1c-1.3-0.1-2.6-0.1-3.9-0.1c-15.8,0-30.3,8.7-37.7,22.7
		c-7.2,13.6-6.5,30,1.7,42.8l0,0c-8.2,12.8-8.9,29.3-1.7,42.9c7.4,14,21.9,22.7,37.7,22.7c1.3,0,2.5-0.1,3.8-0.2
		c6.6,15.8,22,26.1,39.4,26.1c17.4,0,32.7-10.3,39.3-26.1c1.3,0.1,2.5,0.2,3.8,0.2c15.8,0,30.3-8.7,37.7-22.7
		C-181.2,443.5-181.9,427.1-190.1,414.2L-190.1,414.2"/>
	<path class="st1" d="M-192.7,454.8c-8,15-24.6,22.4-40.4,19.4c-4.8,15.4-19.1,26.6-36.1,26.6s-31.3-11.2-36.1-26.6
		c-15.9,3-32.5-4.4-40.4-19.4c-7.1-13.4-5.3-29.2,3.3-40.6l0,0l0,0c-8.7-11.4-10.5-27.2-3.4-40.6c8-15,24.6-22.4,40.4-19.4
		c4.8-15.4,19.2-26.6,36.2-26.6s31.3,11.2,36.1,26.6c15.9-3,32.5,4.4,40.4,19.4c7.1,13.4,5.3,29.2-3.3,40.6l0,0l0,0
		C-187.4,425.6-185.5,441.4-192.7,454.8"/>
	<path class="st0" d="M-273,429.5v71.2c1.3,0.1,2.5,0.2,3.8,0.2c1.3,0,2.5-0.1,3.8-0.2v-71.2H-273z M-262.3,439.8v60.5
		c2.6-0.5,5.2-1.3,7.6-2.3v-58.2C-254.7,439.8-262.3,439.8-262.3,439.8z M-283.8,439.8V498c2.4,1,5,1.8,7.6,2.3v-60.5
		C-276.2,439.8-283.8,439.8-283.8,439.8z M-240.7,474.2v13.6c3.4-3.9,6-8.5,7.6-13.6l0,0l0,0H-240.7z M-251.5,460.2v36.2
		c2.8-1.5,5.3-3.3,7.6-5.3v-30.9H-251.5z M-305.3,474.2L-305.3,474.2L-305.3,474.2c1.6,5.1,4.2,9.7,7.6,13.6v-13.6H-305.3z
		 M-294.6,460.2v30.9c2.3,2.1,4.8,3.9,7.6,5.3v-36.2H-294.6z M-205.3,428.6l-10.1-4.2c-1.3-0.5-3.7-1.4-4.7-1.8v-0.2
		c1-0.3,3.3-1.2,4.7-1.8l10.1-4.2v-5.5H-232v5.3h6.6c3.2-0.1,6.5-0.3,9.7-0.4l0.1,0.2l-7,2.4l-3.6,1.3v5.3l3.6,1.3l7,2.4l-0.1,0.2
		c-3.2-0.2-6.5-0.3-9.7-0.4h-6.6v5.3h26.7V428.6z M-332.8,416.6l10.1,4.2c1.3,0.5,3.7,1.4,4.7,1.8v0.2c-1,0.3-3.3,1.2-4.7,1.8
		l-10.1,4.2v5.5h26.7V429h-6.6c-3.2,0.1-6.5,0.3-9.7,0.4l-0.1-0.2l7-2.4l3.6-1.3v-5.3l-3.6-1.3l-7-2.4l0.1-0.2
		c3.2,0.2,6.5,0.3,9.7,0.4h6.6v-5.3h-26.7V416.6z M-233.8,399.5c-1.1-1.7-0.6-3.3,1.5-4.7l7.8-5.3c2.1-1.4,3.8-1.3,4.9,0.4
		c1.1,1.7,0.6,3.3-1.5,4.7l-7.8,5.3C-231,401.3-232.7,401.2-233.8,399.5 M-238.2,402.5c3,4.5,7.7,5.3,12.4,2.1l7.8-5.3
		c4.7-3.2,5.7-7.8,2.7-12.3s-7.7-5.3-12.4-2.1l-7.8,5.3C-240.2,393.4-241.2,398-238.2,402.5 M-244.8,378.1l-2-1l3.6-6.9l2,1
		c1.9,1,2.3,2.7,1.1,5C-241.3,378.4-242.9,379.1-244.8,378.1 M-238.7,366.6l-6.9-3.6l-12.4,23.6l4.8,2.5l4-7.6l2.1,1.1
		c4.9,2.6,9.4,1.1,12-3.9C-232.5,373.7-233.8,369.2-238.7,366.6 M-261.2,359.1l-16.3,0.2l0.4,26.7l5.4-0.1l-0.3-21.5l5.5-0.1
		l0.3,21.5l5.4-0.1L-261.2,359.1z M-286,390.8c4.7-2.6,6-6.7,3.4-11.7l-4.8,2.6c1,2.1,0.6,3.5-1.2,4.5c-1.5,0.8-2.8,0.3-3.9-1.7
		l-5-9.1c-1.1-2.1-0.8-3.5,0.6-4.3c1.8-1,3.1-0.6,4.4,1.5l4.7-2.6c-2.9-4.9-7-6.1-11.6-3.5c-4.6,2.5-5.8,6.6-3.1,11.6l5,9.1
		C-294.7,392.1-290.6,393.3-286,390.8 M-303.5,399.9c-1.1,1.7-2.8,1.8-4.9,0.4l-7.8-5.2c-2.1-1.4-2.6-3-1.5-4.7
		c1.1-1.7,2.8-1.8,4.9-0.4l7.8,5.2C-302.9,396.6-302.4,398.2-303.5,399.9 M-299.1,402.8c3-4.5,2-9.1-2.8-12.3l-7.8-5.2
		c-4.8-3.2-9.4-2.3-12.4,2.2s-2,9.1,2.8,12.3l7.8,5.2C-306.8,408.1-302.1,407.3-299.1,402.8 M-269.1,402.3l3.8,7.8l8.6,1.2l-6.2,6
		l1.5,8.5l-7.6-4l-7.6,4l1.5-8.5l-6.2-6l8.6-1.2L-269.1,402.3z"/>
	<path class="st1" d="M-163,405.2v-10.6c0-5.2,2.9-8,7.4-8c4.6,0,7.4,2.8,7.6,7.9h-3.7c-0.2-3-1.5-4.3-4-4.3c-2.2,0-3.6,1.4-3.6,4.5
		v10.5c0,3,1.4,4.5,3.7,4.5c2.5,0,3.8-1.4,4.1-4.3h3.7c-0.3,5-3,7.8-7.7,7.8C-160.1,413.1-163,410.3-163,405.2"/>
	<polygon class="st1" points="-129.2,412.7 -132.9,412.7 -132.9,390.6 -140.2,390.6 -140.2,412.7 -143.8,412.7 -143.8,387.1 
		-129.2,387.1 	"/>
	<path class="st1" d="M-114.9,404.1l-1.6-6.9c-0.4-1.7-0.8-4.1-1-5.5h-0.1c-0.2,1.4-0.5,3.8-0.9,5.5l-1.6,6.9H-114.9z M-114.2,407.5
		h-6.8l-1.2,5.2h-3.8l6.4-25.6h4l6.4,25.6h-3.8L-114.2,407.5z"/>
	<path class="st1" d="M-94.9,395.4c0-3.1-1.4-4.8-4.1-4.8h-3v9.6h3C-96.3,400.2-94.9,398.7-94.9,395.4 M-91.2,395.4
		c0,5.4-2.9,8.3-7.9,8.3h-3.1v9h-3.7v-25.6h6.8C-94,387.1-91.2,390.1-91.2,395.4"/>
	<polygon class="st1" points="-75,390.6 -80.3,390.6 -80.3,412.7 -84.1,412.7 -84.1,390.6 -89.4,390.6 -89.4,387.1 -75,387.1 	"/>
	<path class="st1" d="M-64,404.1l-1.6-6.9c-0.4-1.7-0.8-4.1-1-5.5h-0.1c-0.2,1.4-0.5,3.8-0.9,5.5l-1.6,6.9H-64z M-63.2,407.5H-70
		l-1.2,5.2H-75l6.4-25.6h4l6.4,25.6H-62L-63.2,407.5z"/>
	<polygon class="st1" points="-49.5,401.5 -51.2,404 -51.2,412.7 -54.8,412.7 -54.8,387.1 -51.2,387.1 -51.2,398.2 -49.5,395.2 
		-44.4,387.1 -40.1,387.1 -47.4,398.2 -39,412.7 -43.2,412.7 	"/>
	<path class="st1" d="M-36.1,387.1h3.6v11.2c0,1.8-0.1,5.2-0.4,7.4l0.1,0.1c0.5-1.2,1.1-3,1.8-4.5l6.2-14.1h3.8v25.5h-3.6v-11.2
		c0-1.9,0.1-5.4,0.3-7.5l-0.1-0.1c-0.5,1.3-1.2,3.3-1.8,4.7l-6.2,14h-3.7L-36.1,387.1L-36.1,387.1z"/>
	<path class="st1" d="M-6.6,404.1l-1.6-6.9c-0.4-1.7-0.8-4.1-1-5.5h-0.1c-0.2,1.4-0.5,3.8-0.9,5.5l-1.6,6.9H-6.6z M-5.9,407.5h-6.8
		l-1.2,5.2h-3.9l6.4-25.6h4l6.4,25.6h-3.8L-5.9,407.5z"/>
	<path class="st1" d="M13.9,390.6H8.7l-0.4,9.9c-0.1,3.6-0.8,6.6-2,8.7h7.6V390.6z M19.9,409.2v7.7h-3.6v-4.2H4.1v4.3H0.5v-7.7H2
		c1.9-1.9,2.7-5.7,2.9-9.8l0.4-12.4h12.3v22.1H19.9z"/>
	<path class="st1" d="M32.3,404.1l-1.6-6.9c-0.4-1.7-0.8-4.1-1-5.5h-0.1c-0.2,1.4-0.5,3.8-0.9,5.5l-1.6,6.9H32.3z M33.1,407.5h-6.8
		l-1.2,5.2h-3.9l6.4-25.6h4l6.4,25.6h-3.8L33.1,407.5z"/>
	<path class="st1" d="M-148.2,457.5c3.1,0,5-1.8,5-5.8v-5.6c0-4.1-1.9-5.9-5-5.9h-0.7v17.4h0.7V457.5z M-152.6,457.5v-17.4h-0.7
		c-3,0-5,1.8-5,5.9v5.6c0,4,1.9,5.8,5,5.8L-152.6,457.5L-152.6,457.5z M-152.6,461h-0.6c-5.2,0-8.8-3.4-8.8-9.4V446
		c0-6.1,3.6-9.5,8.8-9.5h0.6v-2.7h3.7v2.7h0.6c5.2,0,8.8,3.5,8.8,9.5v5.6c0,6-3.6,9.4-8.8,9.4h-0.6v2.9h-3.7V461z"/>
	<path class="st1" d="M-135.9,435.9h3.6v11.2c0,1.8-0.1,5.2-0.4,7.4l0.1,0.1c0.5-1.2,1.1-3,1.8-4.6l6.2-14.2h3.8v25.7h-3.6v-11.2
		c0-1.9,0.1-5.4,0.3-7.5l-0.1-0.1c-0.5,1.3-1.2,3.3-1.8,4.7l-6.2,14.1h-3.7L-135.9,435.9L-135.9,435.9z"/>
	<polygon class="st1" points="-100.9,435.9 -100.9,461.6 -104.6,461.6 -104.6,450.3 -111.9,450.3 -111.9,461.6 -115.6,461.6 
		-115.6,435.9 -111.9,435.9 -111.9,446.9 -104.6,446.9 -104.6,435.9 	"/>
	<path class="st1" d="M-87,453l-1.6-6.9c-0.4-1.7-0.8-4.1-1-5.5h-0.1c-0.2,1.4-0.6,3.8-1,5.5l-1.6,6.9H-87z M-86.2,456.4H-93
		l-1.2,5.2h-3.9l6.5-25.7h4l6.5,25.7H-85L-86.2,456.4z"/>
	<path class="st1" d="M-80.5,458.6c1.6,0,2.4-1,2.8-3.6c0.4-2.7,0.7-8.4,1.2-19.1h12.7v25.7h-3.7v-22.2h-5.4
		c-0.4,7.5-0.7,13.4-1.2,16.4c-0.7,4.7-2.8,6.2-6.4,6.2V458.6z"/>
	<rect x="-162.2" y="423.9" class="st1" width="200.8" height="0.9"/>
</g>
</svg>
