<?xml version="1.0" encoding="utf-8"?>
<!-- Generator: Adobe Illustrator 19.0.1, SVG Export Plug-In . SVG Version: 6.00 Build 0)  -->
<svg version="1.1" id="Шар_1" xmlns="http://www.w3.org/2000/svg" xmlns:xlink="http://www.w3.org/1999/xlink" x="0px" y="0px"
	 viewBox="-469 387.3 166.8 52.4" style="enable-background:new -469 387.3 166.8 52.4;" xml:space="preserve">
<style type="text/css">
	.st0{fill:#FFFFFF;}
	.st1{fill:#E20E18;}
</style>
<polygon class="st0" points="-328,413.2 -437.2,413.2 -432.2,387.3 -324.6,387.3 "/>
<g>
	<path class="st1" d="M-428.5,397.3h4.1l2.1-10h6.3l-5.5,25.9h-6.2l2.3-11h-4.1l-2.3,11h-6.2l5.4-25.9h6.2L-428.5,397.3z"/>
	<path class="st1" d="M-406.1,387.3l-1.4,6.4c-0.6,2.9-2.3,7-3,9.9l0,0l8.8-16.3h6l-5.5,25.9h-6l1.3-6c0.6-2.8,2.3-7,3.2-9.7l0,0
		l-8.7,15.8h-6.1l5.4-26H-406.1z"/>
	<path class="st1" d="M-388,397.6l6.5-10.3h6.8l-8.2,11.4l2.7,14.5h-6.6l-1-9l-2.3,3l-1.3,6h-6l5.6-25.9h6L-388,397.6z"/>
	<path class="st1" d="M-366,387.3l-1.4,6.4c-0.6,2.9-2.3,7-3,9.9l0,0l8.7-16.3h6l-5.5,25.9h-6l1.3-6c0.6-2.8,2.3-7,3.2-9.7l0,0
		l-8.7,15.8h-6.1l5.5-26H-366z"/>
	<path class="st1" d="M-347.8,413.2h-5.7l4.4-21h-4.9l1-4.9h15.2l-1,4.9h-4.6L-347.8,413.2z"/>
	<path class="st1" d="M-324.8,387.3l0.3,25.9h-6.1l0.1-5.2h-4.8l-1.9,5.2h-6.2l11.1-25.9H-324.8z M-330.4,403.4l0.8-11.4l0,0
		l-4,11.4H-330.4z"/>
</g>
<g>
	<path class="st0" d="M-454.8,413.2c0,6.2-0.3,13.1-1,18.7h0.1c0.8-2.3,1.9-6.4,2.7-8.2l4.3-10.5h8.7l-5.5,25.9h-6l1.9-9.1
		c0.5-2.5,2.1-9.1,2.7-11.3l0,0l-8.2,20.4h-4.4l0.5-20.4l0,0c-0.3,1.8-1.3,7.8-2.1,11.3l-1.9,9.1h-6l5.5-25.9H-454.8z"/>
	<path class="st0" d="M-420.9,418.2c0,0.8-0.1,1.5-0.3,2.3l-2.4,11.1c-1.1,5.2-4.3,8.2-10.1,8.2c-4.8,0-7-2.1-7-5.7
		c0-0.8,0.1-1.6,0.3-2.5l2.5-11.7c0.9-4.1,4.1-7.3,10-7.3C-422.9,412.6-420.9,415-420.9,418.2z M-431.5,419.5l-2.8,13.1
		c0,0.2-0.1,0.5-0.1,0.7c0,1,0.8,1.7,1.7,1.7c1,0,2.3-0.8,2.7-2.3l2.8-13.1c0-0.2,0.1-0.4,0.1-0.5c0-1.1-0.9-1.6-1.8-1.6
		C-430,417.4-431.2,418-431.5,419.5z"/>
	<path class="st0" d="M-415.2,439.1h-6.2l5.5-25.9h9.1c3.1,0,6.2,0.9,6.2,5.3c0,3.4-1.6,10.5-9.6,10.5h-2.8L-415.2,439.1z
		 M-412,424.4h1.1c2.7,0,3.9-2.3,3.9-4.4c0-1.6-1.1-2.1-2.6-2.1h-1L-412,424.4z"/>
	<path class="st0" d="M-381.1,413.2l-1,4.9h-8.3l-4.4,21h-6.2l5.5-25.9H-381.1z"/>
	<path class="st0" d="M-372.9,413.2v8.7c0,1.8-0.2,4.4-0.9,7.9h0.1c0.8-2.7,1.3-4.4,1.8-5.3l4.8-11.3h6.5l-9.8,20
		c-2.5,5-4.2,6.2-8.6,6.2c-1.2,0-2.6-0.3-3-0.7l0.9-4.4c0.3,0.1,0.9,0.2,1.5,0.2c0.5,0,1.2,0,1.7-0.9l-1.5-20.4H-372.9z"/>
	<path class="st0" d="M-354,423.2h4.1l2.1-10h6.2l-5.5,25.9h-6.2l2.3-11h-4.1l-2.3,11h-6.2l5.5-25.9h6.2L-354,423.2z"/>
	<path class="st0" d="M-322.4,418.2c0,0.8-0.1,1.5-0.3,2.3l-2.3,11.1c-1.1,5.2-4.3,8.2-10.1,8.2c-4.8,0-7-2.1-7-5.7
		c0-0.8,0.1-1.6,0.3-2.5l2.5-11.7c0.9-4.1,4.1-7.3,10-7.3C-324.3,412.6-322.4,415-322.4,418.2z M-333,419.5l-2.8,13.1
		c0,0.2-0.1,0.5-0.1,0.7c0,1,0.8,1.7,1.7,1.7c1,0,2.3-0.8,2.7-2.3l2.8-13.1c0-0.2,0.1-0.4,0.1-0.5c0-1.1-0.9-1.6-1.8-1.6
		C-331.5,417.4-332.7,418-333,419.5z"/>
	<path class="st0" d="M-317.4,413.2h10c2.6,0,5.2,1.4,5.2,4.8c0,4-2.8,6.7-4.9,7.2c1.7,0.8,2.7,2,2.7,4.2c0,2.7-1.4,9.8-9.8,9.8
		h-8.7L-317.4,413.2z M-315.9,434.5h1.4c2.6,0,3.9-1.8,3.9-4.6c0-1.3-0.6-2-2.3-2h-1.6L-315.9,434.5z M-313.5,423.2h1.8
		c2.4,0,3.2-2.3,3.2-3.7c0-1-0.6-1.6-2.1-1.6h-1.8L-313.5,423.2z"/>
</g>
</svg>
