<?xml version="1.0" encoding="utf-8"?>
<!-- Generator: Adobe Illustrator 19.0.1, SVG Export Plug-In . SVG Version: 6.00 Build 0)  -->
<svg version="1.1" id="Шар_1" xmlns="http://www.w3.org/2000/svg" xmlns:xlink="http://www.w3.org/1999/xlink" x="0px" y="0px"
	 viewBox="-471 385.1 161.5 58.6" style="enable-background:new -471 385.1 161.5 58.6;" xml:space="preserve">
<style type="text/css">
	.st0{fill:#FFFFFF;}
	.st1{fill:#E20E18;}
</style>
<polygon class="st0" points="-315.8,417.2 -465.3,417.2 -458.5,391.3 -314.2,391.3 "/>
<g>
	<path class="st1" d="M-452.4,391.3l0.3,25.9h-6.1l0.1-5.2h-4.8l-1.9,5.2h-6.2l11.1-25.9H-452.4z M-458,407.3l0.8-11.4l0,0l-4,11.4
		H-458z"/>
	<path class="st1" d="M-440.2,401.3h4.1l2.1-10h6.2l-5.5,25.9h-6.2l2.3-11h-4.1l-2.3,11h-6.2l5.5-25.9h6.2L-440.2,401.3z"/>
	<path class="st1" d="M-412.3,391.3l0.3,25.9h-6.1l0.1-5.2h-4.8l-1.9,5.2h-6.2l11.1-25.9H-412.3z M-417.9,407.3l0.8-11.4l0,0
		l-4,11.4H-417.9z"/>
	<path class="st1" d="M-401.6,417.2h-5.7l4.4-21h-4.9l1-4.9h15.2l-1,4.9h-4.6L-401.6,417.2z"/>
	<path class="st1" d="M-373.5,396.2c0,0.8-0.1,1.5-0.3,2.3l-2.4,11.1c-1.1,5.2-4.3,8.2-10.1,8.2c-4.8,0-7-2.1-7-5.7
		c0-0.8,0.1-1.6,0.3-2.5l2.5-11.7c0.9-4.1,4.1-7.3,10-7.3C-375.5,390.7-373.5,393-373.5,396.2z M-384.2,397.6l-2.8,13.1
		c0,0.2-0.1,0.5-0.1,0.7c0,1,0.8,1.7,1.7,1.7c1,0,2.3-0.8,2.7-2.3l2.8-13.1c0-0.2,0.1-0.4,0.1-0.5c0-1.1-0.9-1.6-1.8-1.6
		C-382.6,395.5-383.8,396.1-384.2,397.6z"/>
	<path class="st1" d="M-349.9,391.3l-5.5,25.9h-6.2l4.4-21h-4.1l-1.9,8.9c-2.1,9.8-4.4,12.4-8.7,12.4c-1.3,0-2.2-0.3-3.2-0.8
		l0.9-4.4c0.3,0.1,0.9,0.2,1.5,0.2c1.7,0,2.1-1,3.8-9.1l2.6-12.2h16.4V391.3z"/>
	<path class="st1" d="M-340,391.3l-1.4,6.4c-0.6,2.9-2.3,7-3,9.9l0,0l8.7-16.3h6l-5.5,25.9h-6l1.3-6c0.6-2.8,2.3-7,3.2-9.7l0,0
		l-8.7,15.8h-6.1l5.5-26H-340z"/>
	<path class="st1" d="M-319.8,391.3l-1.4,6.4c-0.6,2.9-2.3,7-3,9.9l0,0l8.7-16.3h6l-5.5,25.9h-6l1.3-6c0.6-2.8,2.3-7,3.2-9.7l0,0
		l-8.7,15.8h-6.1l5.5-25.9L-319.8,391.3L-319.8,391.3z M-319.3,385.1c0,1.7,1.3,1.8,2.8,1.8s2.6-0.2,3.5-1.8h2.3
		c-0.7,3.1-3.7,4.7-6.5,4.7c-2.8,0-4.5-1-4.5-3.5c0-0.3,0-0.7,0.1-1.1h2.3V385.1z"/>
</g>
<g>
	<path class="st0" d="M-441.5,427.5l6.5-10.3h6.8l-8.2,11.4l2.7,14.5h-6.6l-1-9l-2.3,3l-1.3,6h-6l5.5-25.9h6L-441.5,427.5z"/>
	<path class="st0" d="M-414,417.2l0.2,25.9h-6.1l0.1-5.2h-4.8l-1.8,5.2h-6.2l11.1-25.9H-414z M-419.6,433.2l0.8-11.4l0,0l-4,11.4
		H-419.6z"/>
	<path class="st0" d="M-405.2,443.1h-6.2l5.5-25.9h9.1c3.1,0,6.2,0.9,6.2,5.3c0,3.4-1.6,10.5-9.6,10.5h-2.8L-405.2,443.1z
		 M-402,428.3h1.1c2.7,0,3.9-2.3,3.9-4.4c0-1.6-1.1-2.1-2.6-2.1h-1L-402,428.3z"/>
	<path class="st0" d="M-369,417.2l-5.5,25.9h-6.2l4.4-21h-4.1l-4.4,21h-6.2l5.5-25.9H-369z"/>
	<path class="st0" d="M-349.8,422.1c0,0.8-0.1,1.5-0.3,2.3l-2.4,11.1c-1.1,5.2-4.3,8.2-10.1,8.2c-4.8,0-7-2.1-7-5.7
		c0-0.8,0.1-1.6,0.3-2.5l2.5-11.7c0.9-4.1,4.1-7.3,10-7.3C-351.8,416.6-349.8,419-349.8,422.1z M-360.5,423.5l-2.8,13.1
		c0,0.2-0.1,0.5-0.1,0.7c0,1,0.8,1.7,1.7,1.7c1,0,2.3-0.8,2.7-2.3l2.8-13.1c0-0.2,0.1-0.4,0.1-0.5c0-1.1-0.9-1.6-1.8-1.6
		C-358.9,421.4-360.1,422-360.5,423.5z"/>
	<path class="st0" d="M-344.8,417.2h10c2.6,0,5.2,1.4,5.2,4.8c0,4-2.8,6.7-4.9,7.2c1.7,0.8,2.7,2,2.7,4.2c0,2.7-1.4,9.8-9.8,9.8
		h-8.7L-344.8,417.2z M-343.3,438.4h1.4c2.6,0,3.9-1.8,3.9-4.6c0-1.3-0.6-2-2.3-2h-1.6L-343.3,438.4z M-340.9,427.2h1.8
		c2.4,0,3.2-2.3,3.2-3.7c0-1-0.6-1.6-2.1-1.6h-1.8L-340.9,427.2z"/>
</g>
</svg>
