<?xml version="1.0" encoding="utf-8"?>
<!-- Generator: Adobe Illustrator 19.0.1, SVG Export Plug-In . SVG Version: 6.00 Build 0)  -->
<svg version="1.1" id="Шар_1" xmlns="http://www.w3.org/2000/svg" xmlns:xlink="http://www.w3.org/1999/xlink" x="0px" y="0px"
	 viewBox="-459 387.6 186.4 53.1" style="enable-background:new -459 387.6 186.4 53.1;" xml:space="preserve">
<style type="text/css">
	.st0{fill:#FFFFFF;}
	.st1{fill:#E20E18;}
</style>
<polygon class="st0" points="-277.8,414.1 -453.3,414.1 -445.7,388.2 -272.6,388.2 "/>
<g>
	<path class="st1" d="M-440.4,388.2l0.3,25.9h-6.1l0.1-5.2h-4.8l-1.9,5.2h-6.2l11.1-25.9H-440.4z M-446,404.2l0.8-11.4l0,0l-4,11.4
		H-446z"/>
	<path class="st1" d="M-413.7,388.2l-5.5,25.9h-6.2l4.4-21h-4.1l-1.9,8.9c-2.1,9.8-4.4,12.4-8.7,12.4c-1.3,0-2.2-0.3-3.2-0.8
		l0.9-4.4c0.3,0.1,0.9,0.2,1.5,0.2c1.7,0,2.1-1,3.8-9.1l2.6-12.2h16.4V388.2z"/>
	<path class="st1" d="M-409.8,388.2h14.5l-1,4.9h-8.3l-1.1,5.1h7.4l-1,4.9h-7.4l-1.3,6.1h8.3l-1,4.9h-14.6L-409.8,388.2z"/>
	<path class="st1" d="M-388.4,398.5l6.5-10.3h6.8l-8.2,11.4l2.7,14.5h-6.6l-1-9l-2.3,3l-1.3,6h-6l5.5-25.9h6L-388.4,398.5z"/>
	<path class="st1" d="M-359.2,403.8l-0.5,2.4c-1.3,5.9-4.5,8.4-10.2,8.4c-4.7,0-7-1.7-7-5.6c0-0.9,0.1-1.8,0.3-2.9l2.4-11.3
		c0.9-4.1,4.1-7.3,10-7.3c5,0,7,2.4,7,5.6c0,0.8,0,1.3-0.5,3.5h-6.2c0.5-2.1,0.5-2.6,0.5-2.8c0-1.1-1-1.6-1.9-1.6
		c-1,0-2.2,0.6-2.5,1.9l-2.7,12.9c-0.1,0.4-0.1,0.8-0.1,1.1c0,1.2,0.6,1.7,1.7,1.7c1.3,0,2.5-0.7,2.9-2.7l0.7-3.4h6.1V403.8z"/>
	<path class="st1" d="M-340.7,388.2l0.3,25.9h-6.1l0.1-5.2h-4.8l-1.9,5.2h-6.2l11.1-25.9C-348.2,388.2-340.7,388.2-340.7,388.2z
		 M-346.2,404.2l0.8-11.4l0,0l-4,11.4H-346.2z"/>
	<path class="st1" d="M-328.5,398.2h4.1l2.1-10h6.2l-5.5,25.9h-6.2l2.3-11h-4.1l-2.3,11h-6.2l5.5-25.9h6.2L-328.5,398.2z"/>
	<path class="st1" d="M-293.2,388.2l-4.5,21h1.3l-2.2,10.2h-6.1l1.1-5.3h-9l-1.1,5.3h-6.1l2.2-10.2h0.9c2.5-3,3.6-5.6,5.3-13.6
		l1.6-7.4C-309.8,388.2-293.2,388.2-293.2,388.2z M-300.5,393.1h-4.1l-1,4.9c-1,5-2.2,8.3-4.4,11.2h6.1L-300.5,393.1z"/>
	<path class="st1" d="M-288.4,414.1h-6.2l5.5-25.9h9.1c3.1,0,6.2,0.9,6.2,5.3c0,3.4-1.6,10.5-9.6,10.5h-2.8L-288.4,414.1z
		 M-285.2,399.3h1.1c2.7,0,3.9-2.3,3.9-4.4c0-1.6-1.1-2.1-2.6-2.1h-1L-285.2,399.3z"/>
</g>
<g>
	<path class="st0" d="M-440.6,414.1c0,6.2-0.3,13.1-1,18.7h0.1c0.8-2.3,1.9-6.4,2.7-8.2l4.3-10.5h8.7l-5.5,25.9h-6l1.9-9.1
		c0.5-2.5,2.1-9.1,2.7-11.3l0,0l-8.2,20.4h-4.3l0.5-20.4l0,0c-0.3,1.8-1.3,7.8-2.1,11.3l-1.9,9.1h-6l5.5-25.9
		C-449.2,414.1-440.6,414.1-440.6,414.1z"/>
	<path class="st0" d="M-406.7,419.1c0,0.8-0.1,1.5-0.3,2.3l-2.4,11.1c-1.1,5.2-4.3,8.2-10.1,8.2c-4.8,0-7-2.1-7-5.7
		c0-0.8,0.1-1.6,0.3-2.5l2.5-11.7c0.9-4.1,4.1-7.3,10-7.3C-408.6,413.6-406.7,415.9-406.7,419.1z M-417.3,420.4l-2.8,13.2
		c0,0.2-0.1,0.5-0.1,0.7c0,1,0.8,1.7,1.7,1.7c1,0,2.3-0.8,2.7-2.3l2.8-13.3c0-0.2,0.1-0.4,0.1-0.5c0-1.1-0.9-1.6-1.8-1.6
		C-415.8,418.3-417,419-417.3,420.4z"/>
	<path class="st0" d="M-388.4,429.8l-0.5,2.4c-1.3,5.9-4.5,8.4-10.2,8.4c-4.7,0-7-1.7-7-5.6c0-0.9,0.1-1.8,0.3-2.9l2.4-11.3
		c0.9-4.1,4.1-7.3,10-7.3c5,0,7,2.4,7,5.6c0,0.8,0,1.3-0.5,3.5h-6.2c0.5-2.1,0.5-2.6,0.5-2.8c0-1.1-1-1.6-1.9-1.6
		c-1,0-2.2,0.6-2.5,1.9l-2.7,12.9c-0.1,0.4-0.1,0.8-0.1,1.1c0,1.2,0.6,1.7,1.7,1.7c1.3,0,2.5-0.7,2.9-2.7l0.7-3.4h6.1V429.8z"/>
	<path class="st0" d="M-377.5,440h-5.7l4.4-21h-4.9l1-4.9h15.2l-1,4.9h-4.5L-377.5,440z"/>
	<path class="st0" d="M-349.3,419.1c0,0.8-0.1,1.5-0.3,2.3l-2.4,11.1c-1.1,5.2-4.3,8.2-10.1,8.2c-4.8,0-7-2.1-7-5.7
		c0-0.8,0.1-1.6,0.3-2.5l2.5-11.7c0.9-4.1,4.1-7.3,10-7.3C-351.3,413.6-349.3,415.9-349.3,419.1z M-360,420.4l-2.7,13.2
		c0,0.2-0.1,0.5-0.1,0.7c0,1,0.8,1.7,1.7,1.7c1,0,2.3-0.8,2.7-2.3l2.8-13.1c0-0.2,0.1-0.4,0.1-0.5c0-1.1-0.9-1.6-1.8-1.6
		C-358.4,418.3-359.6,419-360,420.4z"/>
	<path class="st0" d="M-344.3,414.1h10c2.6,0,5.2,1.4,5.2,4.8c0,4-2.8,6.7-4.9,7.2c1.7,0.8,2.7,2,2.7,4.2c0,2.7-1.4,9.8-9.8,9.8
		h-8.7L-344.3,414.1z M-342.8,435.4h1.4c2.6,0,3.9-1.8,3.9-4.6c0-1.3-0.6-2-2.3-2h-1.6L-342.8,435.4z M-340.5,424.1h1.8
		c2.4,0,3.2-2.3,3.2-3.7c0-1-0.6-1.6-2.1-1.6h-1.8L-340.5,424.1z"/>
	<path class="st0" d="M-308.8,419.1c0,0.8-0.1,1.5-0.3,2.3l-2.4,11.1c-1.1,5.2-4.3,8.2-10.1,8.2c-4.8,0-7-2.1-7-5.7
		c0-0.8,0.1-1.6,0.3-2.5l2.5-11.7c0.9-4.1,4.1-7.3,10-7.3C-310.8,413.6-308.8,415.9-308.8,419.1z M-319.5,420.4l-2.7,13.2
		c0,0.2-0.1,0.5-0.1,0.7c0,1,0.8,1.7,1.7,1.7c1,0,2.3-0.8,2.7-2.3l2.8-13.1c0-0.2,0.1-0.4,0.1-0.5c0-1.1-0.9-1.6-1.8-1.6
		C-317.9,418.3-319.1,419-319.5,420.4z"/>
	<path class="st0" d="M-297.9,414.1l-1.4,6.4c-0.6,2.9-2.3,7-3,9.9l0,0l8.7-16.3h6L-293,440h-6l1.3-6c0.6-2.8,2.3-7,3.2-9.7l0,0
		l-8.7,15.8h-6.1l5.5-25.9h5.9V414.1z M-297.4,408c0,1.7,1.3,1.8,2.8,1.8s2.6-0.2,3.5-1.8h2.3c-0.7,3.1-3.7,4.7-6.5,4.7
		s-4.5-1-4.5-3.5c0-0.3,0-0.7,0.1-1.1h2.3V408z"/>
</g>
</svg>
