<?xml version="1.0" encoding="utf-8"?>
<!-- Generator: Adobe Illustrator 19.0.1, SVG Export Plug-In . SVG Version: 6.00 Build 0)  -->
<svg version="1.1" id="Шар_1" xmlns="http://www.w3.org/2000/svg" xmlns:xlink="http://www.w3.org/1999/xlink" x="0px" y="0px"
	 viewBox="4 369.2 1113.1 90.5" style="enable-background:new 4 369.2 1113.1 90.5;" xml:space="preserve">
<style type="text/css">
	.st0{fill:#FFFFFF;}
	.st1{fill:#E20E18;}
</style>
<g>
	<polygon class="st0" points="1098.8,457.6 494.8,457.6 510.8,371.1 1098.8,371.1 	"/>
	<g>
		<path class="st0" d="M88,371.1l-18.3,86.5H48.8l14.8-70.1H49.9l-6.3,29.8c-7,32.8-14.8,41.3-28.9,41.3c-4.5,0-7.3-1-10.7-2.5
			l3.1-14.6c0.9,0.5,2.9,0.7,5,0.7c5.8,0,6.9-3.5,12.5-30.2l8.7-40.8H88V371.1z"/>
		<path class="st0" d="M117.1,371.1v29c0,6.1-0.7,14.8-2.9,26.5h0.2c2.7-9.2,4.5-14.6,5.9-17.8l16-37.7H158l-32.6,66.6
			c-8.3,16.7-14.1,20.8-28.7,20.8c-3.9,0-8.7-0.8-10-2.3l3.1-14.7c0.8,0.4,3,0.6,5.1,0.6c1.7,0,4-0.1,5.5-2.9l-5.1-68.1H117.1z"/>
		<path class="st0" d="M218,371.1l-7.2,34.5l21.8-34.5h22.7L228,409.3l8.9,48.3H215l-3.3-30.1l-7.8,10l-4.2,20.1h-19.9l4.2-20.1
			l-3.5-10l-16,30.1h-21.9l29.4-48.3l-11.1-38.2h22.7l7.3,34.5l7.2-34.5C198.1,371.1,218,371.1,218,371.1z"/>
		<path class="st0" d="M276.8,404.5h13.6l7.1-33.4h20.8L300,457.6h-20.8l7.8-36.7h-13.6l-7.8,36.7h-20.8l18.2-86.5h20.8L276.8,404.5
			z"/>
		<path class="st0" d="M350.2,371.1l-4.6,21.4c-1.9,9.5-7.6,23.4-10.1,32.9h0.1l29.2-54.3h19.9l-18.3,86.5h-19.9l4.2-20.1
			c2-9.3,7.8-23.4,10.8-32.5h-0.1l-29.2,52.6H312l18.3-86.5C330.3,371.1,350.2,371.1,350.2,371.1z"/>
		<path class="st0" d="M409.4,405.6l21.8-34.5h22.6l-27.2,38.2l8.9,48.3h-21.9l-3.3-30.1l-7.8,10l-4.2,20.1h-19.9l18.3-86.5h19.9
			L409.4,405.6z"/>
		<path class="st0" d="M481.6,371.1l-4.6,21.5c-1.9,9.5-7.6,23.4-10.1,32.9h0.1l29.2-54.3H516l-18.3,86.5h-19.9l4.2-20.1
			c2-9.3,7.8-23.4,10.8-32.5h-0.1l-29.2,52.6h-20.2l18.3-86.5h20V371.1z"/>
		<path class="st1" d="M547.2,408c5.1-4.6,7.1-12.3,7.1-16.4c0-3.3-1.4-5.2-5.4-5.2c-5.1,0-8.2,3.9-10.5,14.5h-18.8
			c3.4-16,14-29.8,33.4-29.8c12.6,0,20.8,6.4,20.8,17.8c0,13.7-8.1,23.3-15.2,30.1c-6,5.8-22.9,16.3-25.2,23h31.1l-3.3,15.5h-53.7
			C513.1,431.2,536,418.1,547.2,408z"/>
		<path class="st1" d="M600,399.2h-17.7l2.9-13.4h1.3c11.1,0,21.2-4.8,24.5-12.9h13.3l-18.1,84.7h-18.6L600,399.2z"/>
	</g>
	<g>
		<path class="st1" d="M696,423.4l-1.7,8.1c-4.2,19.7-14.9,28.2-34.2,28.2c-15.7,0-23.3-5.7-23.3-18.6c0-2.9,0.4-6.1,1.1-9.8
			l8.1-37.7c2.8-13.6,13.6-24.4,33.3-24.4c16.6,0,23.5,8.1,23.5,18.8c0,2.7-0.1,4.3-1.8,11.7h-20.9c1.6-7.1,1.8-8.6,1.8-9.3
			c0-3.6-3.4-5.3-6.3-5.3c-3.5,0-7.5,2-8.4,6.4l-9.2,43.2c-0.4,1.4-0.5,2.5-0.5,3.6c0,4,2.2,5.5,5.5,5.5c4.5,0,8.2-2.4,9.5-8.9
			l2.4-11.5C674.9,423.4,696,423.4,696,423.4z"/>
		<path class="st1" d="M713,371.1h48.5l-3.5,16.4h-27.6l-3.6,17h24.7l-3.4,16.4h-24.7l-4.4,20.4h27.6l-3.5,16.4h-48.5L713,371.1z"/>
		<path class="st1" d="M778.9,404.5h13.6l7.1-33.4h20.9l-18.3,86.6h-20.9l7.8-36.8h-13.6l-7.8,36.8h-20.9l18.3-86.6H786L778.9,404.5
			z"/>
		<path class="st1" d="M840.4,457.7h-19.2l14.8-70.2h-16.4l3.5-16.4H874l-3.5,16.4h-15.3L840.4,457.7z"/>
		<path class="st1" d="M896,424.4l-19.3,33.3h-22.2l24.4-38.2c-4.9-2.9-8-9-8-16.6c0-16.4,12.5-31.7,29.7-31.7h31.7L914,457.8h-20.9
			l7-33.3L896,424.4L896,424.4z M908.1,386.7h-4.8c-6.3,0-11.5,6-11.5,14.3c0,4.7,2.3,7.8,6.5,7.8h5.1L908.1,386.7z"/>
		<path class="st1" d="M986.1,371.1l-3.3,15.6h-26.3l-3.9,17.8h9.4c10.5,0,20.6,3.9,20.6,18.2c0,9-3.7,35-31.8,35h-30.3l18.5-86.6
			H986.1z M944.8,442.1h3.6c11.3,0,13-9.5,13-14.5c0-5.7-3.6-7.6-8-7.6h-4L944.8,442.1z"/>
		<path class="st1" d="M1002.9,457.7H982l18.3-86.6h30.3c10.2,0,20.7,3.1,20.7,17.7c0,11.5-5.3,35.1-31.9,35.1h-9.4L1002.9,457.7z
			 M1013.4,408.4h3.7c8.9,0,12.9-7.6,12.9-14.8c0-5.4-3.6-6.9-8.7-6.9h-3.4L1013.4,408.4z"/>
		<path class="st1" d="M1080.8,424.4l-19.3,33.3h-22.2l24.4-38.2c-4.9-2.9-8-9-8-16.6c0-16.4,12.5-31.7,29.7-31.7h31.7l-18.3,86.6
			h-20.9l7-33.3L1080.8,424.4L1080.8,424.4z M1092.9,386.7h-4.8c-6.3,0-11.5,6-11.5,14.3c0,4.7,2.3,7.8,6.5,7.8h5.1L1092.9,386.7z"
			/>
	</g>
</g>
</svg>
