<?xml version="1.0" encoding="utf-8"?>
<!-- Generator: Adobe Illustrator 19.0.1, SVG Export Plug-In . SVG Version: 6.00 Build 0)  -->
<svg version="1.1" id="Шар_1" xmlns="http://www.w3.org/2000/svg" xmlns:xlink="http://www.w3.org/1999/xlink" x="0px" y="0px"
	 viewBox="-113 369.9 368.3 102" style="enable-background:new -113 369.9 368.3 102;" xml:space="preserve">
<style type="text/css">
	.st0{fill:#FFFFFF;}
	.st1{fill:#ED1C24;}
</style>
<polygon class="st0" points="246.1,470.9 -56.1,470.9 -48.1,427.6 246.1,427.6 "/>
<g>
	<path class="st0" d="M-71,369.9l-9.2,43.3h-10.4l7.4-35.1H-90l-3.1,14.9c-3.5,16.4-7.4,20.7-14.5,20.7c-2.2,0-3.7-0.5-5.4-1.3
		l1.6-7.3c0.4,0.2,1.4,0.4,2.4,0.4c2.9,0,3.4-1.7,6.3-15.1l4.3-20.5H-71z"/>
	<path class="st0" d="M-56.4,369.9v14.5c0,3.1-0.4,7.4-1.4,13.3h0.1c1.3-4.6,2.2-7.3,3-8.9l8-18.9H-36l-16.3,33.3
		c-4.2,8.4-7.1,10.4-14.3,10.4c-1.9,0-4.3-0.4-5-1.1l1.6-7.4c0.4,0.2,1.5,0.3,2.5,0.3c0.8,0,2-0.1,2.8-1.4l-2.6-34.1H-56.4z"/>
	<path class="st0" d="M-5.9,369.9l-3.6,17.2l10.9-17.2h11.3L-0.9,389l4.5,24.2h-11L-9,398.1l-3.9,5l-2.1,10.1h-10l2.1-10.1l-1.7-5
		l-8,15.1h-11L-29,389l-5.5-19.1h11.3l3.7,17.2l3.6-17.2H-5.9z"/>
	<path class="st0" d="M23.5,386.6h6.8l3.6-16.7h10.4l-9.2,43.3H24.7l3.9-18.4h-6.8l-3.9,18.4H7.5l9.1-43.3H27L23.5,386.6z"/>
	<path class="st0" d="M60.3,369.9L58,380.6c-1,4.8-3.8,11.7-5.1,16.5H53l14.6-27.2h9.9l-9.2,43.3h-9.9l2.1-10.1
		c1-4.6,3.9-11.7,5.4-16.3h-0.1l-14.6,26.3H41.1l9.2-43.2H60.3z"/>
	<path class="st0" d="M89.9,387.1l10.9-17.2h11.3L98.5,389l4.5,24.2H92l-1.6-15.1l-3.9,5l-2.1,10.1h-9.9l9-43.3h9.9L89.9,387.1z"/>
	<path class="st0" d="M126,369.9l-2.3,10.7c-1,4.8-3.8,11.7-5.1,16.5h0.1l14.6-27.2h9.9l-9.2,43.3h-9.9l2.1-10.1
		c1-4.6,3.9-11.7,5.4-16.3h-0.1L117,413.2h-10.1l9.1-43.3H126z"/>
	<path class="st1" d="M-29.8,446c2.5-2.3,3.6-6.1,3.6-8.2c0-1.6-0.7-2.6-2.7-2.6c-2.5,0-4.1,1.9-5.2,7.2h-9.4
		c1.7-8,7-14.9,16.7-14.9c6.3,0,10.4,3.2,10.4,8.9c0,6.9-4,11.6-7.6,15.1c-3,2.9-11.5,8.1-12.6,11.5H-21l-1.6,7.8h-27.1
		C-46.9,457.6-35.5,451.1-29.8,446z"/>
	<path class="st1" d="M-3.4,441.6h-8.9l1.4-6.7h0.7c5.5,0,10.6-2.4,12.2-6.5h6.6l-9,42.4h-9.3L-3.4,441.6z"/>
</g>
<g>
	<path class="st1" d="M44.6,453.7l-0.8,4c-2.1,9.8-7.5,14.1-17.1,14.1c-7.8,0-11.6-2.8-11.6-9.3c0-1.4,0.2-3.1,0.5-4.9l4-18.9
		c1.4-6.8,6.8-12.2,16.7-12.2c8.3,0,11.8,4,11.8,9.4c0,1.3-0.1,2.2-0.9,5.9H36.8c0.8-3.6,0.9-4.3,0.9-4.6c0-1.8-1.7-2.7-3.1-2.7
		c-1.7,0-3.7,1-4.2,3.2l-4.6,21.6c-0.2,0.7-0.2,1.3-0.2,1.8c0,2,1.1,2.8,2.8,2.8c2.2,0,4.1-1.2,4.8-4.5l1.2-5.7H44.6z"/>
	<path class="st1" d="M53.1,427.6h24.2l-1.7,8.2H61.8l-1.8,8.5h12.4l-1.7,8.2H58.3l-2.2,10.2h13.8l-1.7,8.2H44L53.1,427.6z"/>
	<path class="st1" d="M86.1,444.3h6.8l3.6-16.7h10.4l-9.2,43.3H87.3l3.9-18.4h-6.8l-3.9,18.4H70l9.2-43.3h10.4L86.1,444.3z"/>
	<path class="st1" d="M116.8,470.9h-9.6l7.4-35.1h-8.2l1.7-8.2h25.5l-1.7,8.2h-7.7L116.8,470.9z"/>
	<path class="st1" d="M144.7,454.2l-9.7,16.7h-11.1l12.2-19.1c-2.5-1.4-4-4.5-4-8.3c0-8.2,6.3-15.9,14.8-15.9h15.9l-9.2,43.3h-10.4
		l3.5-16.6h-2V454.2z M150.7,435.3h-2.4c-3.1,0-5.7,3-5.7,7.2c0,2.4,1.1,3.9,3.3,3.9h2.5L150.7,435.3z"/>
	<path class="st1" d="M189.8,427.6l-1.6,7.8H175l-1.9,8.9h4.7c5.2,0,10.3,1.9,10.3,9.1c0,4.5-1.9,17.5-15.9,17.5H157l9.2-43.3H189.8
		z M169.1,463.1h1.8c5.7,0,6.5-4.8,6.5-7.2c0-2.8-1.8-3.8-4-3.8h-2L169.1,463.1z"/>
	<path class="st1" d="M198.2,470.9h-10.4l9.2-43.3h15c5.1,0,10.4,1.6,10.4,8.9c0,5.7-2.7,17.6-16,17.6h-4.7L198.2,470.9z
		 M203.4,446.2h1.9c4.5,0,6.5-3.8,6.5-7.4c0-2.7-1.8-3.4-4.3-3.4h-1.7L203.4,446.2z"/>
	<path class="st1" d="M237.1,454.2l-9.7,16.6h-11.1l12.2-19.1c-2.5-1.4-4-4.5-4-8.3c0-8.2,6.3-15.9,14.8-15.9h15.9l-9.2,43.3h-10.4
		l3.5-16.6C239.1,454.2,237.1,454.2,237.1,454.2z M243.2,435.3h-2.4c-3.1,0-5.7,3-5.7,7.2c0,2.4,1.1,3.9,3.3,3.9h2.5L243.2,435.3z"
		/>
</g>
</svg>
