<?xml version="1.0" encoding="utf-8"?>
<!-- Generator: Adobe Illustrator 19.0.1, SVG Export Plug-In . SVG Version: 6.00 Build 0)  -->
<svg version="1.1" id="Шар_1" xmlns="http://www.w3.org/2000/svg" xmlns:xlink="http://www.w3.org/1999/xlink" x="0px" y="0px"
	 viewBox="91 348.3 1287.5 130.4" style="enable-background:new 91 348.3 1287.5 130.4;" xml:space="preserve">
<style type="text/css">
	.st0{fill:#FFFFFF;}
	.st1{fill:#E20E18;}
</style>
<g>
	<polygon class="st0" points="913.1,460.4 100.6,460.4 122.2,369.8 913.1,369.8 	"/>
	<g>
		<path class="st1" d="M167.8,369.8l-19.1,90.3H127l15.5-73.2h-14.3l-15.5,73.2H91l19.1-90.3H167.8z"/>
		<path class="st1" d="M184.3,460.1h-21.7l19.1-90.3h31.6c10.7,0,21.6,3.3,21.6,18.5c0,11.9-5.5,36.6-33.3,36.6h-9.8L184.3,460.1z
			 M195.3,408.7h3.9c9.3,0,13.5-7.9,13.5-15.5c0-5.7-3.8-7.2-9.1-7.2H200L195.3,408.7z"/>
		<path class="st1" d="M286.8,369.8l0.9,90.3h-21.4l0.5-18.1h-16.6l-6.5,18.1h-21.6l38.7-90.3H286.8z M267.5,425.8l2.6-39.7H270
			l-14.1,39.7H267.5z"/>
		<path class="st1" d="M306.7,397.3c4-18.7,18-29.6,33.6-29.6c15,0,22.4,8.4,22.4,19c0,10.8-5.5,21.3-17.9,25.8
			c7,2.5,12.1,5.7,12.1,15c0,22.9-16,34.7-35.5,34.7c-11.6,0-23.3-4.3-23.3-20.1c0-2.6,0.3-5.7,1-9.1h20c-0.5,2.6-0.8,4.7-0.8,6.4
			c0,4.9,2.1,6.5,5.7,6.5c8.7,0,11.3-9.9,11.3-18c0-4.8-2.4-6.8-7.7-6.8h-3.1l3.4-16.2h5.2c4.4,0,9.2-6.2,9.2-14.6
			c0-4-1.5-6.4-5.4-6.4c-5.5,0-8.2,4-10.2,13.3h-20V397.3z"/>
		<path class="st1" d="M448.3,369.8L432.7,443h4.7l-7.5,35.6h-21.1l3.9-18.5h-31.3l-3.9,18.5h-21.1l7.5-35.6h3
			c8.8-10.3,12.6-19.6,18.5-47.4l5.5-25.8H448.3L448.3,369.8z M422.9,386.9h-14.5l-3.6,17c-3.6,17.4-7.7,29.1-15.2,39.1H411
			L422.9,386.9z"/>
		<path class="st1" d="M476.9,404.6h14.2l7.4-34.8h21.8l-19.1,90.3h-21.8l8.2-38.4h-14.2l-8.2,38.4h-21.8l19.1-90.3h21.8
			L476.9,404.6z"/>
		<path class="st1" d="M554.8,369.8l-4.8,22.4c-2,9.9-7.9,24.4-10.6,34.3h0.1l30.4-56.7h20.8l-19.1,90.3h-20.8l4.4-21
			c2.1-9.7,8.2-24.4,11.3-34h-0.1l-30.4,55h-21l19.1-90.3H554.8z"/>
		<path class="st1" d="M625.4,369.8l-6.4,30.3c-0.1,0.8-0.3,1.6-0.3,2.1c0,2.8,1.5,4.2,4.9,4.2c3.3,0,5.7-0.5,8.6-1.8l7.4-34.8h21.8
			l-19.1,90.3h-21.8l8.2-38.4c-5,1.3-8.3,1.8-16.9,1.8c-6.9,0-15.6-4.3-15.6-15.7c0-1.8,0.1-3.6,0.6-5.8l6.8-32.2
			C603.6,369.8,625.4,369.8,625.4,369.8z"/>
		<path class="st1" d="M689.5,404.6h14.2l7.4-34.8h21.8l-19.1,90.3H692l8.2-38.4H686l-8.2,38.4H656l19.1-90.3H697L689.5,404.6z"/>
		<path class="st1" d="M761.1,404.6h9.8c10.9,0,21.5,4,21.5,19c0,9.4-3.9,36.5-33.2,36.5h-31.6l19.1-90.3h21.8L761.1,404.6z
			 M752.8,443.9h3.8c11.8,0,13.6-9.9,13.6-15.1c0-5.9-3.8-7.9-8.3-7.9h-4.2L752.8,443.9z M816.1,460.1h-21.8l19.1-90.3h21.8
			L816.1,460.1z"/>
		<path class="st1" d="M869.8,369.8l-4.8,22.4c-2,9.9-7.9,24.4-10.6,34.3h0.1l30.5-56.7h20.8l-19.1,90.3h-20.8l4.4-21
			c2.1-9.7,8.2-24.4,11.3-34h-0.1l-30.4,55H830l19-90.3H869.8z M871.3,348.3c0,5.8,4.7,6.4,9.8,6.4c5.3,0,9.2-0.8,12.1-6.4h8
			c-2.4,10.8-12.8,16.2-22.8,16.2c-9.8,0-15.8-3.5-15.8-12.3c0-1.1,0.1-2.5,0.4-3.9C863,348.3,871.3,348.3,871.3,348.3z"/>
		<g>
			<path class="st0" d="M926.6,405.8l22.8-36H973l-28.4,39.9l9.3,50.4H931l-3.4-31.4l-8.2,10.4l-4.4,21h-20.8l19.1-90.3h20.8
				L926.6,405.8z"/>
			<path class="st0" d="M1035.7,387c0,2.6-0.3,5.2-0.9,8.2l-8.3,38.6c-3.9,18-15,28.4-35.3,28.4c-16.6,0-24.3-7.2-24.3-19.7
				c0-2.6,0.4-5.5,1-8.7l8.7-40.6c3-14.2,14.3-25.4,34.8-25.4C1028.8,367.8,1035.7,376,1035.7,387z M998.6,391.8l-9.7,45.8
				c-0.1,0.8-0.3,1.6-0.3,2.3c0,3.6,2.8,5.8,6,5.8c3.6,0,8.2-2.6,9.3-8l9.7-45.8c0.1-0.6,0.3-1.4,0.3-1.9c0-3.8-3-5.5-6.2-5.5
				C1004,384.4,999.7,386.7,998.6,391.8z"/>
			<path class="st0" d="M1067.4,404.6h14.2l7.4-34.8h21.8l-19.1,90.3h-21.8l8.2-38.4h-14.2l-8.2,38.4h-21.8l19.1-90.3h21.8
				L1067.4,404.6z"/>
			<path class="st0" d="M1130.8,443h14.2l15.6-73.2h21.8l-15.6,73.2h4.7l-7.5,35.7h-21.3l3.9-18.6h-41l19.1-90.3h21.8L1130.8,443z"
				/>
			<path class="st0" d="M1197.7,369.8h50.6l-3.6,17.1h-28.8l-3.8,17.7h25.8l-3.5,17.1h-25.8l-4.5,21.3h28.8l-3.6,17.1h-50.6
				L1197.7,369.8z"/>
			<path class="st0" d="M1261.6,460.1h-21.8l19.1-90.3h31.6c10.7,0,21.6,3.3,21.6,18.5c0,11.9-5.5,36.6-33.3,36.6h-9.8L1261.6,460.1
				z M1272.5,408.7h3.9c9.3,0,13.5-7.9,13.5-15.5c0-5.7-3.8-7.2-9.1-7.2h-3.5L1272.5,408.7z"/>
			<path class="st0" d="M1343.4,460.1h-20l15.5-73.2h-17.1l3.6-17.1h53.1l-3.6,17.1h-16L1343.4,460.1z"/>
		</g>
	</g>
</g>
</svg>
