<?xml version="1.0" encoding="utf-8"?>
<!-- Generator: Adobe Illustrator 19.0.1, SVG Export Plug-In . SVG Version: 6.00 Build 0)  -->
<svg version="1.1" id="Шар_1" xmlns="http://www.w3.org/2000/svg" xmlns:xlink="http://www.w3.org/1999/xlink" x="0px" y="0px"
	 viewBox="-37 344.7 1029.7 138" style="enable-background:new -37 344.7 1029.7 138;" xml:space="preserve">
<style type="text/css">
	.st0{fill:#FFFFFF;}
	.st1{fill:#E20E18;}
</style>
<g>
	<polygon class="st0" points="959.4,463.1 246.9,463.1 268.1,367.5 990.8,367.5 	"/>
	<g>
		<path class="st0" d="M-16.8,367.5H20c9.7,0,19.2,5.2,19.2,17.7c0,14.9-10.3,24.8-18,26.5c6.3,2.9,10,7.3,10,15.3
			c0,9.9-5.3,36.1-36.1,36.1H-37L-16.8,367.5z M-11.2,445.9H-6c9.5,0,14.4-6.8,14.4-17c0-4.8-2.4-7.3-8.7-7.3H-6L-11.2,445.9z
			 M-2.4,404.4h6.8c8.9,0,11.9-8.4,11.9-13.7c0-3.9-2.3-6-7.6-6H1.9L-2.4,404.4z"/>
		<path class="st0" d="M75.7,367.5l5.1,28.1l17-28.1H120l-30.2,47.2l10.9,48.3H76.5l-3.9-29.2L54.5,463H32.2l31.5-48.3l-10.3-47.2
			H75.7z"/>
		<path class="st0" d="M187,385.7c0,2.8-0.3,5.5-0.9,8.7l-8.8,40.9c-4.1,19-15.8,30.1-37.4,30.1c-17.6,0-25.7-7.6-25.7-20.9
			c0-2.8,0.4-5.9,1.1-9.2l9.2-43c3.2-15,15.2-26.9,36.9-26.9C179.7,365.3,187,374,187,385.7z M147.7,390.8l-10.3,48.5
			c-0.1,0.8-0.3,1.7-0.3,2.4c0,3.9,2.9,6.1,6.4,6.1c3.9,0,8.7-2.8,9.9-8.5l10.3-48.5c0.1-0.7,0.3-1.5,0.3-2c0-4-3.2-5.9-6.5-5.9
			C153.4,382.9,148.9,385.3,147.7,390.8z"/>
		<path class="st0" d="M274.9,367.5L258.4,445h4.9l-8,37.7h-22.4l4.1-19.6h-33.2l-4.1,19.6h-22.4l8-37.7h3.2
			c9.3-10.9,13.3-20.8,19.6-50.2l5.9-27.3C214,367.5,274.9,367.5,274.9,367.5z M248,385.6h-15.3l-3.9,18
			c-3.9,18.4-8.1,30.8-16.1,41.4h22.6L248,385.6z"/>
		<path class="st1" d="M338.8,425.3l-1.9,8.9c-4.7,21.7-16.5,31.2-37.8,31.2c-17.3,0-25.7-6.3-25.7-20.5c0-3.2,0.4-6.8,1.2-10.8
			l8.9-41.7c3.2-15,15-27,36.9-27c18.4,0,26,8.9,26,20.8c0,2.9-0.1,4.8-2,12.9h-23c1.7-7.9,2-9.5,2-10.3c0-4-3.7-5.9-6.9-5.9
			c-3.9,0-8.3,2.3-9.3,7.1L297,437.7c-0.4,1.6-0.5,2.8-0.5,4c0,4.4,2.4,6.1,6.1,6.1c4.9,0,9.1-2.7,10.5-9.9l2.7-12.7h23V425.3z"/>
		<path class="st1" d="M364.8,367.5h36.8c9.7,0,19.2,5.2,19.2,17.7c0,14.9-10.3,24.8-18,26.5c6.3,2.9,10,7.3,10,15.3
			c0,9.9-5.3,36.1-36.1,36.1h-32.1L364.8,367.5z M370.4,445.9h5.2c9.5,0,14.4-6.8,14.4-17c0-4.8-2.4-7.3-8.7-7.3h-5.7L370.4,445.9z
			 M379.2,404.4h6.8c8.9,0,11.9-8.4,11.9-13.7c0-3.9-2.3-6-7.6-6h-6.8L379.2,404.4z"/>
		<path class="st1" d="M496,385.7c0,2.8-0.3,5.5-0.9,8.7l-8.8,40.9c-4.1,19-15.8,30.1-37.4,30.1c-17.6,0-25.7-7.6-25.7-20.9
			c0-2.8,0.4-5.9,1.1-9.2l9.2-43c3.2-15,15.2-26.9,36.9-26.9C488.6,365.3,496,374,496,385.7z M456.7,390.8l-10.3,48.5
			c-0.1,0.8-0.3,1.7-0.3,2.4c0,3.9,2.9,6.1,6.4,6.1c3.9,0,8.7-2.8,9.9-8.5l10.3-48.5c0.1-0.7,0.3-1.5,0.3-2c0-4-3.2-5.9-6.5-5.9
			C462.4,382.9,457.9,385.3,456.7,390.8z"/>
		<path class="st1" d="M566.4,367.5l-3.6,17.2h-29l-4.3,19.7h10.4c11.6,0,22.8,4.3,22.8,20.1c0,10-4.1,38.6-35.2,38.6h-33.4
			l20.2-95.6C514.3,367.5,566.4,367.5,566.4,367.5z M520.7,445.9h4c12.5,0,14.4-10.5,14.4-16c0-6.3-4-8.4-8.8-8.4h-4.4L520.7,445.9z
			"/>
		<path class="st1" d="M645.6,385.7c0,2.8-0.3,5.5-0.9,8.7l-8.8,40.9c-4.1,19-15.8,30.1-37.4,30.1c-17.6,0-25.7-7.6-25.7-20.9
			c0-2.8,0.4-5.9,1.1-9.2l9.2-43c3.2-15,15.2-26.9,36.9-26.9C638.3,365.3,645.6,374,645.6,385.7z M606.4,390.8l-10.3,48.5
			c-0.1,0.8-0.3,1.7-0.3,2.4c0,3.9,2.9,6.1,6.4,6.1c3.9,0,8.7-2.8,9.9-8.5l10.3-48.5c0.1-0.7,0.3-1.5,0.3-2c0-4-3.2-5.9-6.5-5.9
			C612.1,382.9,607.6,385.3,606.4,390.8z"/>
		<path class="st1" d="M733.5,367.5L717,445h4.9l-8,37.7h-22.4l4.1-19.6h-33.2l-4.1,19.6h-22.4l8-37.7h3.2
			c9.3-10.9,13.3-20.8,19.6-50.2l5.9-27.3C672.6,367.5,733.5,367.5,733.5,367.5z M706.6,385.6h-15.3l-3.9,18
			c-3.9,18.4-8.1,30.8-16.1,41.4H694L706.6,385.6z"/>
		<path class="st1" d="M763.8,404.4h15l7.9-36.9h23l-20.2,95.6h-23l8.7-40.6h-15l-8.7,40.6h-23l20.2-95.6h23L763.8,404.4z"/>
		<path class="st1" d="M839.5,404.4h10.4c11.6,0,22.8,4.3,22.8,20.1c0,10-4.1,38.6-35.2,38.6h-33.4l20.2-95.6h23L839.5,404.4z
			 M830.7,445.9h4c12.5,0,14.4-10.5,14.4-16c0-6.3-4-8.4-8.8-8.4h-4.4L830.7,445.9z M897.7,463.1h-23l20.2-95.6h23L897.7,463.1z"/>
		<path class="st1" d="M954.6,367.5l-5.1,23.7c-2.1,10.5-8.4,25.8-11.2,36.4h0.1l32.2-60.1h22l-20.2,95.6h-22l4.7-22.2
			c2.3-10.3,8.7-25.8,12-36H967l-32.2,58.2h-22.4l20.2-95.6C932.6,367.5,954.6,367.5,954.6,367.5z M956.2,344.7
			c0,6.1,4.9,6.8,10.4,6.8c5.6,0,9.7-0.8,12.8-6.8h8.5c-2.5,11.5-13.6,17.2-24.1,17.2c-10.4,0-16.8-3.7-16.8-13.1
			c0-1.2,0.1-2.7,0.4-4.1C947.4,344.7,956.2,344.7,956.2,344.7z"/>
	</g>
</g>
</svg>
