<?xml version="1.0" standalone="no"?>
<!DOCTYPE svg PUBLIC "-//W3C//DTD SVG 1.1//EN" "http://www.w3.org/Graphics/SVG/1.1/DTD/svg11.dtd" >
<svg>
<metadata>
Created by FontForge 20090914 at Thu Aug 29 07:40:10 2019
 By www-data
Copyright (c) 2018 by TypeType. Designers Ivan Gladkikh, Pavel Emelyanov. Technical designers Marina Khodak, Vika Usmanova, Nadyr Rakhimov. All rights reserved.
</metadata>
<defs>
<font id="TTCommons-DemiBold" horiz-adv-x="510" >
  <font-face 
    font-family="TT Commons DemiBold"
    font-weight="600"
    font-stretch="normal"
    units-per-em="1000"
    panose-1="2 0 5 6 3 0 0 2 0 4"
    ascent="700"
    descent="-300"
    x-height="459.999"
    cap-height="630"
    bbox="-185 -270 1438 859.999"
    underline-thickness="50"
    underline-position="-100"
    unicode-range="U+000D-U+FB06"
  />
<missing-glyph horiz-adv-x="0" 
 />
    <glyph glyph-name="ff" unicode="ff" horiz-adv-x="570" 
d="M75 345l-55.0059 -0.00488281v105h55c0 24.667 3.83301 47.167 11.5 67.5s18.334 37.833 32.001 52.5s30 25.834 49 33.501s39.833 11.5 62.5 11.5c7.33301 0 14.333 -0.5 21 -1.5s12.667 -2.16699 18 -3.5c6 -2 11.333 -3.66699 16 -5v-100l-8 2
c-2.66699 0.666992 -5.66699 1.33398 -9 2.00098s-7.66602 1 -12.999 1c-15.333 0 -27.166 -3.16699 -35.499 -9.5s-14.833 -13.166 -19.5 -20.499c-5.33301 -8.66699 -8.66602 -18.667 -9.99902 -30h150v20c0 24.667 3.83301 47.167 11.5 67.5s18.334 37.833 32.001 52.5
s30 25.834 49 33.501s39.833 11.5 62.5 11.5c7.33301 0 14.333 -0.5 21 -1.5s12.667 -2.16699 18 -3.5c6 -2 11.333 -3.66699 16 -5v-100l-8 2c-2.66699 0.666992 -5.66699 1.33398 -9 2.00098s-7.66602 1 -12.999 1c-20 0 -35.833 -5.83301 -47.5 -17.5
s-17.5 -27.5 -17.5 -47.5v-15h95v-105h-95v-345h-115v345h-150v-345h-115v345z" />
    <glyph glyph-name="uniFB01" unicode="fi" 
d="M455 0l-115.002 -0.00195312v345h-150v-345h-115v345h-55v105h55v20c0 24.667 3.83301 47.167 11.5 67.5s18.334 37.833 32.001 52.5s30 25.834 49 33.501s39.833 11.5 62.5 11.5c7.33301 0 14.333 -0.5 21 -1.5s12.667 -2.16699 18 -3.5c6 -2 11.333 -3.66699 16 -5
v-100l-8 2c-2.66699 0.666992 -5.66699 1.33398 -9 2.00098s-7.66602 1 -12.999 1c-20 0 -35.833 -5.83301 -47.5 -17.5s-17.5 -27.5 -17.5 -47.5v-15h265v-450zM399.998 494.998c-17.333 0 -32.5 6.5 -45.5 19.5s-19.5 28.167 -19.5 45.5s6.5 32.5 19.5 45.5
s28.167 19.5 45.5 19.5s32.5 -6.5 45.5 -19.5s19.5 -28.167 19.5 -45.5s-6.5 -32.5 -19.5 -45.5s-28.167 -19.5 -45.5 -19.5z" />
    <glyph glyph-name="uniFB02" unicode="fl" 
d="M455 0h-115.001v525c-4 4 -9.33301 7.33301 -16 10c-5.33301 2.66699 -12 5 -20 7s-17.667 3 -29 3c-25.333 0 -46.666 -8.83301 -63.999 -26.5s-26 -40.5 -26 -68.5h100v-105h-95v-345h-115v345h-55v105h55c0 30 4.5 57 13.5 81s21.667 44.5 38 61.5s35.833 30 58.5 39
s47.667 13.5 75 13.5c10 0 19.833 -0.833008 29.5 -2.5s18.167 -3.5 25.5 -5.5c8.66699 -2.66699 17 -5 25 -7h115v-630z" />
    <glyph glyph-name="ffi" unicode="ffi" horiz-adv-x="775" 
d="M720 0l-115.006 -0.00488281v345h-150v-345h-115v345h-150v-345h-115v345h-55v105h55c0 24.667 3.83301 47.167 11.5 67.5s18.334 37.833 32.001 52.5s30 25.834 49 33.501s39.833 11.5 62.5 11.5c7.33301 0 14.333 -0.5 21 -1.5s12.667 -2.16699 18 -3.5
c6 -2 11.333 -3.66699 16 -5v-100l-8 2c-2.66699 0.666992 -5.66699 1.33398 -9 2.00098s-7.66602 1 -12.999 1c-15.333 0 -27.166 -3.16699 -35.499 -9.5s-14.833 -13.166 -19.5 -20.499c-5.33301 -8.66699 -8.66602 -18.667 -9.99902 -30h150v20
c0 24.667 3.83301 47.167 11.5 67.5s18.334 37.833 32.001 52.5s30 25.834 49 33.501s39.833 11.5 62.5 11.5c7.33301 0 14.333 -0.5 21 -1.5s12.667 -2.16699 18 -3.5c6 -2 11.333 -3.66699 16 -5v-100l-8 2c-2.66699 0.666992 -5.66699 1.33398 -9 2.00098
s-7.66602 1 -12.999 1c-20 0 -35.833 -5.83301 -47.5 -17.5s-17.5 -27.5 -17.5 -47.5v-15h265v-450zM664.994 494.995c-17.333 0 -32.5 6.5 -45.5 19.5s-19.5 28.167 -19.5 45.5s6.5 32.5 19.5 45.5s28.167 19.5 45.5 19.5s32.5 -6.5 45.5 -19.5s19.5 -28.167 19.5 -45.5
s-6.5 -32.5 -19.5 -45.5s-28.167 -19.5 -45.5 -19.5z" />
    <glyph glyph-name="ffl" unicode="ffl" horiz-adv-x="775" 
d="M720 0l-115.005 -0.00292969v525c-4 4 -9.33301 7.33301 -16 10c-5.33301 2.66699 -12 5 -20 7s-17.667 3 -29 3c-25.333 0 -46.666 -8.83301 -63.999 -26.5s-26 -40.5 -26 -68.5h100v-105h-95v-345h-115v345h-150v-345h-115v345h-55v105h55
c0 24.667 3.83301 47.167 11.5 67.5s18.334 37.833 32.001 52.5s30 25.834 49 33.501s39.833 11.5 62.5 11.5c7.33301 0 14.333 -0.5 21 -1.5s12.667 -2.16699 18 -3.5c6 -2 11.333 -3.66699 16 -5v-100l-8 2c-2.66699 0.666992 -5.66699 1.33398 -9 2.00098
s-7.66602 1 -12.999 1c-15.333 0 -27.166 -3.16699 -35.499 -9.5s-14.833 -13.166 -19.5 -20.499c-5.33301 -8.66699 -8.66602 -18.667 -9.99902 -30h150c0 30 4.5 57 13.5 81s21.667 44.5 38 61.5s35.833 30 58.5 39s47.667 13.5 75 13.5c10 0 19.833 -0.833008 29.5 -2.5
s18.167 -3.5 25.5 -5.5c8.66699 -2.66699 17 -5 25 -7h115v-630z" />
    <glyph glyph-name="f_f_j" unicode="ffj" horiz-adv-x="775" 
d="M720 0c0 -25.333 -3.83887 -48.0039 -11.5059 -68.0039s-18.334 -37.333 -32.001 -52s-30 -25.834 -49 -33.501s-39.833 -11.5 -62.5 -11.5c-14.667 0 -27.667 1.66699 -39 5c-6 1.33301 -11.333 3 -16 5v100c2 -1.33301 4.33301 -2.33301 7 -3
c6.66699 -1.33301 14.334 -2 23.001 -2c20 0 35.833 5.83301 47.5 17.5s17.5 27.5 17.5 47.5v340h-150v-345h-115v345h-150v-345h-115v345h-55v105h55c0 24.667 3.83301 47.167 11.5 67.5s18.334 37.833 32.001 52.5s30 25.834 49 33.501s39.833 11.5 62.5 11.5
c7.33301 0 14.333 -0.5 21 -1.5s12.667 -2.16699 18 -3.5c6 -2 11.333 -3.66699 16 -5v-100l-8 2c-2.66699 0.666992 -5.66699 1.33398 -9 2.00098s-7.66602 1 -12.999 1c-15.333 0 -27.166 -3.16699 -35.499 -9.5s-14.833 -13.166 -19.5 -20.499
c-5.33301 -8.66699 -8.66602 -18.667 -9.99902 -30h150v20c0 24.667 3.83301 47.167 11.5 67.5s18.334 37.833 32.001 52.5s30 25.834 49 33.501s39.833 11.5 62.5 11.5c7.33301 0 14.333 -0.5 21 -1.5s12.667 -2.16699 18 -3.5c6 -2 11.333 -3.66699 16 -5v-100l-8 2
c-2.66699 0.666992 -5.66699 1.33398 -9 2.00098s-7.66602 1 -12.999 1c-20 0 -35.833 -5.83301 -47.5 -17.5s-17.5 -27.5 -17.5 -47.5v-15h265v-450zM664.994 494.996c-17.333 0 -32.5 6.5 -45.5 19.5s-19.5 28.167 -19.5 45.5s6.5 32.5 19.5 45.5s28.167 19.5 45.5 19.5
s32.5 -6.5 45.5 -19.5s19.5 -28.167 19.5 -45.5s-6.5 -32.5 -19.5 -45.5s-28.167 -19.5 -45.5 -19.5z" />
    <glyph glyph-name="f_j" unicode="fj" 
d="M455 0c0 -25.333 -3.83496 -48.001 -11.502 -68.001s-18.334 -37.333 -32.001 -52s-30 -25.834 -49 -33.501s-39.833 -11.5 -62.5 -11.5c-14.667 0 -27.667 1.66699 -39 5c-6 1.33301 -11.333 3 -16 5v100c2 -1.33301 4.33301 -2.33301 7 -3
c6.66699 -1.33301 14.334 -2 23.001 -2c20 0 35.833 5.83301 47.5 17.5s17.5 27.5 17.5 47.5v340h-150v-345h-115v345h-55v105h55v20c0 24.667 3.83301 47.167 11.5 67.5s18.334 37.833 32.001 52.5s30 25.834 49 33.501s39.833 11.5 62.5 11.5
c7.33301 0 14.333 -0.5 21 -1.5s12.667 -2.16699 18 -3.5c6 -2 11.333 -3.66699 16 -5v-100l-8 2c-2.66699 0.666992 -5.66699 1.33398 -9 2.00098s-7.66602 1 -12.999 1c-20 0 -35.833 -5.83301 -47.5 -17.5s-17.5 -27.5 -17.5 -47.5v-15h265v-450zM399.998 494.999
c-17.333 0 -32.5 6.5 -45.5 19.5s-19.5 28.167 -19.5 45.5s6.5 32.5 19.5 45.5s28.167 19.5 45.5 19.5s32.5 -6.5 45.5 -19.5s19.5 -28.167 19.5 -45.5s-6.5 -32.5 -19.5 -45.5s-28.167 -19.5 -45.5 -19.5z" />
    <glyph glyph-name="f_t" unicode="ft" horiz-adv-x="595" 
d="M355 565l99.999 -0.00292969v-105h100v-115h-100v-185c0 -20 5.83301 -35.833 17.5 -47.5s27.5 -17.5 47.5 -17.5c5.33301 0 9.66602 0.166992 12.999 0.5s6.33301 0.833008 9 1.5s5.33398 1.66699 8.00098 3v-100c-4.66699 -2 -10 -3.66699 -16 -5
c-11.333 -3.33301 -24.333 -5 -39 -5c-22.667 0 -43.5 3.83301 -62.5 11.5s-35.333 18.834 -49 33.501s-24.334 32 -32.001 52s-11.5 42.667 -11.5 68v190h-150v-345h-115v345h-55v105h55v20c0 24.667 3.83301 47.167 11.5 67.5s18.334 37.833 32.001 52.5
s30 25.834 49 33.501s39.833 11.5 62.5 11.5c7.33301 0 14.333 -0.5 21 -1.5s12.667 -2.16699 18 -3.5c6 -2 11.333 -3.66699 16 -5v-100l-8 2c-2.66699 0.666992 -5.66699 1.33398 -9 2.00098s-7.66602 1 -12.999 1c-20 0 -35.833 -5.83301 -47.5 -17.5
s-17.5 -27.5 -17.5 -47.5v-15h110c36.667 0 55 18.333 55 55v60z" />
    <glyph glyph-name="f_h" unicode="fh" horiz-adv-x="810" 
d="M585 465c24.667 0 47.832 -4.49902 69.499 -13.499s40.167 -22 55.5 -39s27.5 -37.5 36.5 -61.5s13.5 -51 13.5 -81v-270h-115v255c0 30 -8.83301 54.167 -26.5 72.5s-40.5 27.5 -68.5 27.5s-50.833 -9.16699 -68.5 -27.5s-26.5 -42.5 -26.5 -72.5v-255h-115v525
c-4 4 -9.33301 7.33301 -16 10c-5.33301 2.66699 -12 5 -20 7s-17.667 3 -29 3c-25.333 0 -46.666 -8.83301 -63.999 -26.5s-26 -40.5 -26 -68.5h100v-105h-95v-345h-115v345h-55v105h55c0 30 4.5 57 13.5 81s21.667 44.5 38 61.5s35.833 30 58.5 39s47.667 13.5 75 13.5
c10 0 19.833 -0.833008 29.5 -2.5s18.167 -3.5 25.5 -5.5c8.66699 -2.66699 17 -5 25 -7h115v-215c8.66699 9.33301 19 17.666 31 24.999c10.667 6 24.167 11.667 40.5 17s35.833 8 58.5 8z" />
    <glyph glyph-name="f_k" unicode="fk" horiz-adv-x="735" 
d="M615 0l-160.001 210v-210h-115v525c-4 4 -9.33301 7.33301 -16 10c-5.33301 2.66699 -12 5 -20 7s-17.667 3 -29 3c-25.333 0 -46.666 -8.83301 -63.999 -26.5s-26 -40.5 -26 -68.5h100v-105h-95v-345h-115v345h-55v105h55c0 30 4.5 57 13.5 81s21.667 44.5 38 61.5
s35.833 30 58.5 39s47.667 13.5 75 13.5c10 0 19.833 -0.833008 29.5 -2.5s18.167 -3.5 25.5 -5.5c8.66699 -2.66699 17 -5 25 -7h115v-360l140 190h130l-165 -220l185 -240h-130z" />
    <glyph glyph-name="f_b" unicode="fb" horiz-adv-x="820" 
d="M575 -5c-20 0 -38 2.50098 -54 7.50098s-29.667 10.833 -41 17.5c-13.333 7.33301 -25 15.666 -35 24.999l-20 -45h-85v525c-4 4 -9.33301 7.33301 -16 10c-5.33301 2.66699 -12 5 -20 7s-17.667 3 -29 3c-25.333 0 -46.666 -8.83301 -63.999 -26.5s-26 -40.5 -26 -68.5
h100v-105h-95v-345h-115v345h-55v105h55c0 30 4.5 57 13.5 81s21.667 44.5 38 61.5s35.833 30 58.5 39s47.667 13.5 75 13.5c10 0 19.833 -0.833008 29.5 -2.5s18.167 -3.5 25.5 -5.5c8.66699 -2.66699 17 -5 25 -7h115v-210c9.33301 8 20 15.333 32 22
c10.667 5.33301 23.167 10.5 37.5 15.5s31.166 7.5 50.499 7.5c28.667 0 56 -5.83301 82 -17.5s48.833 -28 68.5 -49s35.334 -45.833 47.001 -74.5s17.5 -60 17.5 -94s-5.83301 -65.333 -17.5 -94s-27.334 -53.5 -47.001 -74.5s-42.5 -37.333 -68.5 -49
s-53.333 -17.5 -82 -17.5zM445 230.001c0 -38 11 -68.333 33 -91s49.333 -34 82 -34s60 11.333 82 34s33 53 33 91s-11 68.333 -33 91s-49.333 34 -82 34s-60 -11.333 -82 -34s-33 -53 -33 -91z" />
    <glyph glyph-name="f_f_h" unicode="ffh" horiz-adv-x="1075" 
d="M850 465c24.667 0 47.8281 -4.50195 69.4951 -13.502s40.167 -22 55.5 -39s27.5 -37.5 36.5 -61.5s13.5 -51 13.5 -81v-270h-115v255c0 30 -8.83301 54.167 -26.5 72.5s-40.5 27.5 -68.5 27.5s-50.833 -9.16699 -68.5 -27.5s-26.5 -42.5 -26.5 -72.5v-255h-115v525
c-4 4 -9.33301 7.33301 -16 10c-5.33301 2.66699 -12 5 -20 7s-17.667 3 -29 3c-25.333 0 -46.666 -8.83301 -63.999 -26.5s-26 -40.5 -26 -68.5h100v-105h-95v-345h-115v345h-150v-345h-115v345h-55v105h55c0 24.667 3.83301 47.167 11.5 67.5s18.334 37.833 32.001 52.5
s30 25.834 49 33.501s39.833 11.5 62.5 11.5c7.33301 0 14.333 -0.5 21 -1.5s12.667 -2.16699 18 -3.5c6 -2 11.333 -3.66699 16 -5v-100l-8 2c-2.66699 0.666992 -5.66699 1.33398 -9 2.00098s-7.66602 1 -12.999 1c-15.333 0 -27.166 -3.16699 -35.499 -9.5
s-14.833 -13.166 -19.5 -20.499c-5.33301 -8.66699 -8.66602 -18.667 -9.99902 -30h150c0 30 4.5 57 13.5 81s21.667 44.5 38 61.5s35.833 30 58.5 39s47.667 13.5 75 13.5c10 0 19.833 -0.833008 29.5 -2.5s18.167 -3.5 25.5 -5.5c8.66699 -2.66699 17 -5 25 -7h115v-215
c8.66699 9.33301 19 17.666 31 24.999c10.667 6 24.167 11.667 40.5 17s35.833 8 58.5 8z" />
    <glyph glyph-name="f_f_k" unicode="ffk" horiz-adv-x="1000" 
d="M880 0l-160.005 209.997v-210h-115v525c-4 4 -9.33301 7.33301 -16 10c-5.33301 2.66699 -12 5 -20 7s-17.667 3 -29 3c-25.333 0 -46.666 -8.83301 -63.999 -26.5s-26 -40.5 -26 -68.5h100v-105h-95v-345h-115v345h-150v-345h-115v345h-55v105h55
c0 24.667 3.83301 47.167 11.5 67.5s18.334 37.833 32.001 52.5s30 25.834 49 33.501s39.833 11.5 62.5 11.5c7.33301 0 14.333 -0.5 21 -1.5s12.667 -2.16699 18 -3.5c6 -2 11.333 -3.66699 16 -5v-100l-8 2c-2.66699 0.666992 -5.66699 1.33398 -9 2.00098
s-7.66602 1 -12.999 1c-15.333 0 -27.166 -3.16699 -35.499 -9.5s-14.833 -13.166 -19.5 -20.499c-5.33301 -8.66699 -8.66602 -18.667 -9.99902 -30h150c0 30 4.5 57 13.5 81s21.667 44.5 38 61.5s35.833 30 58.5 39s47.667 13.5 75 13.5c10 0 19.833 -0.833008 29.5 -2.5
s18.167 -3.5 25.5 -5.5c8.66699 -2.66699 17 -5 25 -7h115v-360l140 190h130l-165 -220l185 -240h-130z" />
    <glyph glyph-name="f_f_b" unicode="ffb" horiz-adv-x="1085" 
d="M840 -5c-20 0 -38.0039 2.49805 -54.0039 7.49805s-29.667 10.833 -41 17.5c-13.333 7.33301 -25 15.666 -35 24.999l-20 -45h-85v525c-4 4 -9.33301 7.33301 -16 10c-5.33301 2.66699 -12 5 -20 7s-17.667 3 -29 3c-25.333 0 -46.666 -8.83301 -63.999 -26.5
s-26 -40.5 -26 -68.5h100v-105h-95v-345h-115v345h-150v-345h-115v345h-55v105h55c0 24.667 3.83301 47.167 11.5 67.5s18.334 37.833 32.001 52.5s30 25.834 49 33.501s39.833 11.5 62.5 11.5c7.33301 0 14.333 -0.5 21 -1.5s12.667 -2.16699 18 -3.5
c6 -2 11.333 -3.66699 16 -5v-100l-8 2c-2.66699 0.666992 -5.66699 1.33398 -9 2.00098s-7.66602 1 -12.999 1c-15.333 0 -27.166 -3.16699 -35.499 -9.5s-14.833 -13.166 -19.5 -20.499c-5.33301 -8.66699 -8.66602 -18.667 -9.99902 -30h150c0 30 4.5 57 13.5 81
s21.667 44.5 38 61.5s35.833 30 58.5 39s47.667 13.5 75 13.5c10 0 19.833 -0.833008 29.5 -2.5s18.167 -3.5 25.5 -5.5c8.66699 -2.66699 17 -5 25 -7h115v-210c9.33301 8 20 15.333 32 22c10.667 5.33301 23.167 10.5 37.5 15.5s31.166 7.5 50.499 7.5
c28.667 0 56 -5.83301 82 -17.5s48.833 -28 68.5 -49s35.334 -45.833 47.001 -74.5s17.5 -60 17.5 -94s-5.83301 -65.333 -17.5 -94s-27.334 -53.5 -47.001 -74.5s-42.5 -37.333 -68.5 -49s-53.333 -17.5 -82 -17.5zM709.996 229.998c0 -38 11 -68.333 33 -91
s49.333 -34 82 -34s60 11.333 82 34s33 53 33 91s-11 68.333 -33 91s-49.333 34 -82 34s-60 -11.333 -82 -34s-33 -53 -33 -91z" />
    <glyph glyph-name=".notdef" horiz-adv-x="0" 
 />
    <glyph glyph-name=".null" horiz-adv-x="0" 
 />
    <glyph glyph-name=".null" horiz-adv-x="0" 
 />
    <glyph glyph-name="nonmarkingreturn" unicode="&#xd;" horiz-adv-x="0" 
 />
    <glyph glyph-name="space" unicode=" " horiz-adv-x="225" 
 />
    <glyph glyph-name="exclam" unicode="!" horiz-adv-x="260" 
d="M195 60c0 -17.333 -6.5 -32.5 -19.5 -45.5s-28.167 -19.5 -45.5 -19.5s-32.5 6.5 -45.5 19.5s-19.5 28.167 -19.5 45.5s6.5 32.5 19.5 45.5s28.167 19.5 45.5 19.5s32.5 -6.5 45.5 -19.5s19.5 -28.167 19.5 -45.5zM180 175h-100l-15 455h130z" />
    <glyph glyph-name="quotedbl" unicode="&#x22;" horiz-adv-x="365" 
d="M45 630h110v-195h-110v195zM210 630h110v-195h-110v195z" />
    <glyph glyph-name="numbersign" unicode="#" horiz-adv-x="625" 
d="M480 375l-25 -120h120l-20 -90h-115l-35 -165h-90l35 165h-130l-35 -165h-90l35 165h-120l20 90h115l25 120h-120l20 90h115l35 165h90l-35 -165h130l35 165h90l-35 -165h120l-20 -90h-115zM390 375h-130l-25 -120h130z" />
    <glyph glyph-name="dollar" unicode="$" horiz-adv-x="520" 
d="M210 0c-25.333 4 -48.666 11.498 -69.999 22.498s-39.666 25 -54.999 42s-27.5 37 -36.5 60s-13.5 48.167 -13.5 75.5h120c0 -28 9.33301 -50.833 28 -68.5s44.334 -26.5 77.001 -26.5c35.333 0 61.666 7.5 78.999 22.5s26 32.5 26 52.5c0 19.333 -8 34.333 -24 45
s-36 20.167 -60 28.5s-50.167 16.5 -78.5 24.5s-54.5 19 -78.5 33s-44 32.167 -60 54.5s-24 51.833 -24 88.5c0 22.667 4.16699 43.834 12.5 63.501s20 37.334 35 53.001s32.833 28.5 53.5 38.5s43.667 17 69 21v85h110v-85c21.333 -6 41.166 -14.667 59.499 -26
s34.166 -25.166 47.499 -41.499s23.833 -35.166 31.5 -56.499s11.5 -45 11.5 -71h-115c0 28 -8.33301 50 -25 66s-40 24 -70 24s-53.333 -7.33301 -70 -22s-25 -30.667 -25 -48c0 -18.667 8 -33 24 -43s36 -19 60 -27l78.5 -25c28.333 -8.66699 54.5 -20.334 78.5 -35.001
s44 -33.834 60 -57.501s24 -54.5 24 -92.5c0 -20 -4.33301 -39.5 -13 -58.5s-20.667 -36.333 -36 -52s-33.333 -29.167 -54 -40.5s-43 -19.333 -67 -24v-85h-110v85z" />
    <glyph glyph-name="percent" unicode="%" horiz-adv-x="640" 
d="M80 0l385 630h95l-385 -630h-95zM110 495c0 -17.333 5.33301 -31.666 16 -42.999s23.667 -17 39 -17s28.333 5.66699 39 17s16 25.666 16 42.999s-5.33301 31.666 -16 42.999s-23.667 17 -39 17s-28.333 -5.66699 -39 -17s-16 -25.666 -16 -42.999zM300 495
c0 -18.667 -3.5 -36.167 -10.5 -52.5s-16.667 -30.666 -29 -42.999s-26.666 -22 -42.999 -29s-33.833 -10.5 -52.5 -10.5s-36.167 3.5 -52.5 10.5s-30.666 16.667 -42.999 29s-22 26.666 -29 42.999s-10.5 33.833 -10.5 52.5s3.5 36.167 10.5 52.5s16.667 30.666 29 42.999
s26.666 22 42.999 29s33.833 10.5 52.5 10.5s36.167 -3.5 52.5 -10.5s30.666 -16.667 42.999 -29s22 -26.666 29 -42.999s10.5 -33.833 10.5 -52.5zM420 135c0 -17.333 5.33301 -31.666 16 -42.999s23.667 -17 39 -17s28.333 5.66699 39 17s16 25.666 16 42.999
s-5.33301 31.666 -16 42.999s-23.667 17 -39 17s-28.333 -5.66699 -39 -17s-16 -25.666 -16 -42.999zM610 135c0 -18.667 -3.5 -36.167 -10.5 -52.5s-16.667 -30.666 -29 -42.999s-26.666 -22 -42.999 -29s-33.833 -10.5 -52.5 -10.5s-36.167 3.5 -52.5 10.5
s-30.666 16.667 -42.999 29s-22 26.666 -29 42.999s-10.5 33.833 -10.5 52.5s3.5 36.167 10.5 52.5s16.667 30.666 29 42.999s26.666 22 42.999 29s33.833 10.5 52.5 10.5s36.167 -3.5 52.5 -10.5s30.666 -16.667 42.999 -29s22 -26.666 29 -42.999s10.5 -33.833 10.5 -52.5
z" />
    <glyph glyph-name="ampersand" unicode="&#x26;" horiz-adv-x="560" 
d="M465 0l-75.001 74.999c-13.333 -14.667 -29 -28 -47 -40c-15.333 -10 -34.166 -19.167 -56.499 -27.5s-47.833 -12.5 -76.5 -12.5c-58 0 -102.5 14.5 -133.5 43.5s-46.5 66.167 -46.5 111.5c0 28 5.66699 52.333 17 73s24 38.334 38 53.001c16 17.333 34.333 32 55 44
l-30 35l-18.5 21.5c-6.33301 7.66699 -12.333 16.5 -18 26.5s-10.167 21.333 -13.5 34s-5 27 -5 43c0 21.333 4.16699 41.333 12.5 60s19.833 35 34.5 49s32 25.167 52 33.5s42 12.5 66 12.5s46 -4.16699 66 -12.5s37.333 -19.5 52 -33.5s26.167 -30.333 34.5 -49
s12.5 -38.667 12.5 -60c0 -16 -2.16699 -30.5 -6.5 -43.5s-9.66602 -24.667 -15.999 -35s-13.333 -19.333 -21 -27s-14.834 -14.167 -21.501 -19.5c-7.33301 -5.33301 -14 -11 -20 -17s-12.667 -12 -20 -18l95 -95l55 80h130l-105 -155l150 -150h-140zM214.999 384.999
l24.998 19.999c7.33301 6 15.833 14.833 25.5 26.5s14.5 26.167 14.5 43.5s-5.66699 31.666 -17 42.999s-25.666 17 -42.999 17s-31.666 -5.66699 -42.999 -17s-17 -25.666 -17 -42.999s4.5 -32.166 13.5 -44.499s16.167 -20.833 21.5 -25.5zM219.997 94.998
c15.333 0 28.834 2.5 40.501 7.5s21.5 10.833 29.5 17.5c9.33301 7.33301 17.666 15.666 24.999 24.999l-110 110c-11.333 -7.33301 -21 -15.666 -29 -24.999c-7.33301 -8 -14 -17.667 -20 -29s-9 -24.333 -9 -39c0 -8 2 -16 6 -24s9.16699 -15.167 15.5 -21.5
s14 -11.5 23 -15.5s18.5 -6 28.5 -6z" />
    <glyph glyph-name="quotesingle" unicode="'" horiz-adv-x="200" 
d="M45 630h110v-195h-110v195z" />
    <glyph glyph-name="parenleft" unicode="(" horiz-adv-x="295" 
d="M160 225c0 -52.667 5.83301 -101.502 17.5 -146.502s24.834 -84.167 39.501 -117.5c17.333 -38.667 36.666 -74 57.999 -106l-85 -60c-27.333 36 -51.666 76.333 -72.999 121c-18 38 -34.5 83.333 -49.5 136s-22.5 110.334 -22.5 173.001s7.5 120.334 22.5 173.001
s31.5 98 49.5 136c21.333 44.667 45.666 85 72.999 121l85 -60c-21.333 -32 -40.666 -67.333 -57.999 -106c-14.667 -33.333 -27.834 -72.5 -39.501 -117.5s-17.5 -93.833 -17.5 -146.5z" />
    <glyph glyph-name="parenright" unicode=")" horiz-adv-x="295" 
d="M135 225c0 52.667 -6 101.502 -18 146.502s-25.333 84.167 -40 117.5c-17.333 38.667 -36.333 74 -57 106l85 60c26.667 -36 50.667 -76.333 72 -121c18 -38 34.667 -83.333 50 -136s23 -110.334 23 -173.001s-7.66699 -120.334 -23 -173.001s-32 -98 -50 -136
c-21.333 -44.667 -45.333 -85 -72 -121l-85 60c20.667 32 39.667 67.333 57 106c14.667 33.333 28 72.5 40 117.5s18 93.833 18 146.5z" />
    <glyph glyph-name="asterisk" unicode="*" horiz-adv-x="350" 
d="M120 465l-100 25l25 75l95 -35l-5 105h80l-5 -105l95 35l25 -75l-100 -25l70 -80l-65 -50l-60 90l-60 -90l-65 50z" />
    <glyph glyph-name="plus" unicode="+" horiz-adv-x="465" 
d="M285 460v-155h150v-100h-150v-155h-105v155h-150v100h150v155h105z" />
    <glyph glyph-name="comma" unicode="," horiz-adv-x="200" 
d="M100 125c17.333 0 32.499 -6.66699 45.499 -20s19.5 -30 19.5 -50c0 -29.333 -4.66699 -53.833 -14 -73.5s-19.666 -35.5 -30.999 -47.5c-13.333 -14 -28.333 -25.333 -45 -34l-20 25c7.33301 4.66699 14.333 10.667 21 18c5.33301 6 10.333 13.333 15 22
s7.66699 18.667 9 30c-17.333 0 -32.5 6.5 -45.5 19.5s-19.5 28.167 -19.5 45.5s6.5 32.5 19.5 45.5s28.167 19.5 45.5 19.5z" />
    <glyph glyph-name="hyphen" unicode="-" horiz-adv-x="370" 
d="M335 205h-300v100h300v-100z" />
    <glyph glyph-name="period" unicode="." horiz-adv-x="200" 
d="M35 60c0 17.333 6.5 32.5 19.5 45.5s28.167 19.5 45.5 19.5s32.5 -6.5 45.5 -19.5s19.5 -28.167 19.5 -45.5s-6.5 -32.5 -19.5 -45.5s-28.167 -19.5 -45.5 -19.5s-32.5 6.5 -45.5 19.5s-19.5 28.167 -19.5 45.5z" />
    <glyph glyph-name="slash" unicode="/" horiz-adv-x="370" 
d="M110 -180h-110l260 810h110z" />
    <glyph glyph-name="zero" unicode="0" horiz-adv-x="600" 
d="M160 315c0 -34 4 -63.667 12 -89s18.5 -46.666 31.5 -63.999s28 -30.333 45 -39s34.167 -13 51.5 -13s34.5 4.33301 51.5 13s32 21.667 45 39s23.5 38.666 31.5 63.999s12 55 12 89s-4 63.667 -12 89s-18.5 46.666 -31.5 63.999s-28 30.333 -45 39s-34.167 13 -51.5 13
s-34.5 -4.33301 -51.5 -13s-32 -21.667 -45 -39s-23.5 -38.666 -31.5 -63.999s-12 -55 -12 -89zM560 315c0 -50 -7 -94.833 -21 -134.5s-32.833 -73.167 -56.5 -100.5s-51.334 -48.333 -83.001 -63s-64.834 -22 -99.501 -22c-35.333 0 -68.666 7.33301 -99.999 22
s-58.833 35.667 -82.5 63s-42.5 60.833 -56.5 100.5s-21 84.5 -21 134.5s7 94.833 21 134.5s32.833 73.167 56.5 100.5s51.167 48.333 82.5 63s64.666 22 99.999 22c34.667 0 67.834 -7.33301 99.501 -22s59.334 -35.667 83.001 -63s42.5 -60.833 56.5 -100.5
s21 -84.5 21 -134.5z" />
    <glyph glyph-name="one" unicode="1" horiz-adv-x="335" 
d="M270 630v-630h-120v475l-75 -50l-60 90l165 115h90z" />
    <glyph glyph-name="two" unicode="2" horiz-adv-x="505" 
d="M460 115l-0.00195312 -114.998h-420v85l230 240c12.667 12.667 24.334 25.667 35.001 39c8.66699 11.333 16.667 24.166 24 38.499s11 28.5 11 42.5c0 25.333 -7.5 45 -22.5 59s-37.5 21 -67.5 21s-53.333 -8 -70 -24s-25 -38 -25 -66h-120
c0 28.667 5.16699 55.167 15.5 79.5s24.833 45.5 43.5 63.5s41.167 32 67.5 42s55.833 15 88.5 15c34 0 64.167 -4.66699 90.5 -14s48.833 -22.333 67.5 -39s32.834 -36.334 42.501 -59.001s14.5 -47 14.5 -73c0 -24 -6 -47.5 -18 -70.5s-25.333 -43.833 -40 -62.5
c-17.333 -22 -36.333 -42.667 -57 -62l-135 -140h245z" />
    <glyph glyph-name="three" unicode="3" 
d="M35 455c1.33301 24 7.33008 46.8311 17.9971 68.498s25.5 40.667 44.5 57s41.333 29.5 67 39.5s54.167 15 85.5 15s59.833 -4.83301 85.5 -14.5s47.834 -22.667 66.501 -39s33 -35 43 -56s15 -42.833 15 -65.5s-4.16699 -42.167 -12.5 -58.5s-17.5 -29.833 -27.5 -40.5
c-12 -12 -25.333 -22.333 -40 -31c17.333 -8.66699 33 -20 47 -34c12 -12 23 -28 33 -48s15 -44.333 15 -73c0 -22.667 -5.33301 -44.667 -16 -66s-25.667 -40.5 -45 -57.5s-42.5 -30.667 -69.5 -41s-56.833 -15.5 -89.5 -15.5c-35.333 0 -66.666 4.66699 -93.999 14
s-50.5 22.333 -69.5 39s-33.667 36.334 -44 59.001s-16.166 47 -17.499 73h120c1.33301 -8.66699 4.66602 -17.5 9.99902 -26.5s12.333 -17 21 -24s18.834 -12.833 30.501 -17.5s24.5 -7 38.5 -7c30 0 54.167 8.5 72.5 25.5s27.5 36.833 27.5 59.5s-8.5 41.667 -25.5 57
s-41.833 23 -74.5 23h-55v100h50c32.667 0 56.667 6.83301 72 20.5s23 31.834 23 54.501s-8 41.667 -24 57s-38 23 -66 23s-50.167 -7.33301 -66.5 -22s-25.833 -30.667 -28.5 -48h-120z" />
    <glyph glyph-name="four" unicode="4" horiz-adv-x="505" 
d="M485 115h-65v-115h-120v115h-280v105l260 410h140v-400h65v-115zM300 230v235l-150 -235h150z" />
    <glyph glyph-name="five" unicode="5" horiz-adv-x="520" 
d="M275 430c31.333 0 60.165 -5.33301 86.498 -16s49 -25.5 68 -44.5s33.833 -41.667 44.5 -68s16 -55.166 16 -86.499s-5.66699 -60.333 -17 -87s-27.166 -49.834 -47.499 -69.501s-44.5 -35.167 -72.5 -46.5s-59 -17 -93 -17c-31.333 0 -60 5 -86 15
s-48.5 23.167 -67.5 39.5s-34.167 35.333 -45.5 57s-18.333 44.5 -21 68.5h120c1.33301 -7.33301 4.66602 -15.166 9.99902 -23.499s12.333 -16 21 -23s18.834 -12.667 30.501 -17s24.5 -6.5 38.5 -6.5c32.667 0 59.167 10.167 79.5 30.5s30.5 46.833 30.5 79.5
s-10.167 59.167 -30.5 79.5s-46.833 30.5 -79.5 30.5c-18 0 -33.333 -3.5 -46 -10.5s-23 -14.5 -31 -22.5c-9.33301 -9.33301 -17 -20 -23 -32h-105l40 370h350v-115h-250l-15 -115c8.66699 5.33301 18.334 10.333 29.001 15c8.66699 3.33301 18.667 6.66602 30 9.99902
s23.333 5 36 5z" />
    <glyph glyph-name="six" unicode="6" horiz-adv-x="520" 
d="M260 -5c-34 0 -64.999 5.66797 -92.999 17.001s-52.167 26.833 -72.5 46.5s-36.166 42.834 -47.499 69.501s-17 55.667 -17 87c0 21.333 3.16699 41.666 9.5 60.999s13.166 36.333 20.499 51c8.66699 17.333 18.667 33.333 30 48l50.5 75.5l57.5 83.5l67 96h125
l-135 -200c32.667 4 63.167 0.833008 91.5 -9.5s53.166 -25.5 74.499 -45.5s38.166 -43.833 50.499 -71.5s18.5 -57.167 18.5 -88.5s-5.66699 -60.333 -17 -87s-27.166 -49.834 -47.499 -69.501s-44.5 -35.167 -72.5 -46.5s-59 -17 -93 -17zM150.001 215.001
c0 -16 2.83301 -31 8.5 -45s13.5 -26.167 23.5 -36.5s21.667 -18.5 35 -24.5s27.666 -9 42.999 -9c14.667 0 28.667 3 42 9s25 14.167 35 24.5s18 22.5 24 36.5s9 29 9 45s-3 31 -9 45s-14 26.167 -24 36.5s-21.667 18.5 -35 24.5s-27.333 9 -42 9
c-15.333 0 -29.666 -3 -42.999 -9s-25 -14.167 -35 -24.5s-17.833 -22.5 -23.5 -36.5s-8.5 -29 -8.5 -45z" />
    <glyph glyph-name="seven" unicode="7" horiz-adv-x="460" 
d="M435 630v-90l-250 -540h-125l240 515h-270v115h405z" />
    <glyph glyph-name="eight" unicode="8" 
d="M255 -5c-34 0 -64.832 5.16699 -92.499 15.5s-51.334 24.333 -71.001 42s-34.834 37.834 -45.501 60.501s-16 46.667 -16 72c0 28.667 5.16699 53 15.5 73s21.833 36 34.5 48c14.667 14 31.334 25.333 50.001 34c-14 8.66699 -26.667 19 -38 31
c-9.33301 10.667 -17.833 23.667 -25.5 39s-11.5 33.666 -11.5 54.999c0 22.667 4.83301 44.167 14.5 64.5s23.167 38.333 40.5 54s38.333 28.167 63 37.5s52 14 82 14s57.333 -4.66699 82 -14s45.667 -21.833 63 -37.5s30.833 -33.667 40.5 -54s14.5 -41.833 14.5 -64.5
c0 -21.333 -4 -39.666 -12 -54.999s-16.667 -28.333 -26 -39c-11.333 -12 -23.666 -22.333 -36.999 -31c18.667 -8.66699 35.334 -20 50.001 -34c12.667 -12 24.167 -28 34.5 -48s15.5 -44.333 15.5 -73c0 -25.333 -5.33301 -49.333 -16 -72
s-25.834 -42.834 -45.501 -60.501s-43.334 -31.667 -71.001 -42s-58.5 -15.5 -92.5 -15.5zM255.001 280c-32.667 0 -58.334 -8.66699 -77.001 -26s-28 -38.666 -28 -63.999s9.33301 -46.666 28 -63.999s44.334 -26 77.001 -26s58.334 8.66699 77.001 26s28 38.666 28 63.999
s-9.33301 46.666 -28 63.999s-44.334 26 -77.001 26zM255.001 380c25.333 0 45.833 7.5 61.5 22.5s23.5 32.5 23.5 52.5s-7.83301 37.5 -23.5 52.5s-36.167 22.5 -61.5 22.5s-45.833 -7.5 -61.5 -22.5s-23.5 -32.5 -23.5 -52.5s7.83301 -37.5 23.5 -52.5
s36.167 -22.5 61.5 -22.5z" />
    <glyph glyph-name="nine" unicode="9" horiz-adv-x="520" 
d="M260 635c34 0 64.999 -5.66797 92.999 -17.001s52.167 -26.833 72.5 -46.5s36.166 -42.834 47.499 -69.501s17 -55.667 17 -87c0 -21.333 -3.16699 -41.666 -9.5 -60.999s-13.166 -36.333 -20.499 -51c-8.66699 -17.333 -18.667 -33.333 -30 -48l-24 -35.5l-27 -40.5
l-29 -42l-29 -41l-66 -96h-125l135 200c-32.667 -4 -63.167 -0.833008 -91.5 9.5s-53.166 25.5 -74.499 45.5s-38.166 43.833 -50.499 71.5s-18.5 57.167 -18.5 88.5s5.66699 60.333 17 87s27.166 49.834 47.499 69.501s44.5 35.167 72.5 46.5s59 17 93 17zM369.999 414.999
c0 16 -3 31 -9 45s-14 26.167 -24 36.5s-21.667 18.5 -35 24.5s-27.333 9 -42 9c-15.333 0 -29.666 -3 -42.999 -9s-25 -14.167 -35 -24.5s-17.833 -22.5 -23.5 -36.5s-8.5 -29 -8.5 -45s2.83301 -31 8.5 -45s13.5 -26.167 23.5 -36.5s21.667 -18.5 35 -24.5
s27.666 -9 42.999 -9c14.667 0 28.667 3 42 9s25 14.167 35 24.5s18 22.5 24 36.5s9 29 9 45z" />
    <glyph glyph-name="colon" unicode=":" horiz-adv-x="200" 
d="M165 60c0 -17.333 -6.5 -32.5 -19.5 -45.5s-28.167 -19.5 -45.5 -19.5s-32.5 6.5 -45.5 19.5s-19.5 28.167 -19.5 45.5s6.5 32.5 19.5 45.5s28.167 19.5 45.5 19.5s32.5 -6.5 45.5 -19.5s19.5 -28.167 19.5 -45.5zM165 395c0 -17.333 -6.5 -32.5 -19.5 -45.5
s-28.167 -19.5 -45.5 -19.5s-32.5 6.5 -45.5 19.5s-19.5 28.167 -19.5 45.5s6.5 32.5 19.5 45.5s28.167 19.5 45.5 19.5s32.5 -6.5 45.5 -19.5s19.5 -28.167 19.5 -45.5z" />
    <glyph glyph-name="semicolon" unicode=";" horiz-adv-x="200" 
d="M165 395c0 -17.333 -6.5 -32.5 -19.5 -45.5s-28.167 -19.5 -45.5 -19.5s-32.5 6.5 -45.5 19.5s-19.5 28.167 -19.5 45.5s6.5 32.5 19.5 45.5s28.167 19.5 45.5 19.5s32.5 -6.5 45.5 -19.5s19.5 -28.167 19.5 -45.5zM100 125c17.333 0 32.499 -6.66699 45.499 -20
s19.5 -30 19.5 -50c0 -29.333 -4.66699 -53.833 -14 -73.5s-19.666 -35.5 -30.999 -47.5c-13.333 -14 -28.333 -25.333 -45 -34l-20 25c7.33301 4.66699 14.333 10.667 21 18c5.33301 6 10.333 13.333 15 22s7.66699 18.667 9 30c-17.333 0 -32.5 6.5 -45.5 19.5
s-19.5 28.167 -19.5 45.5s6.5 32.5 19.5 45.5s28.167 19.5 45.5 19.5z" />
    <glyph glyph-name="less" unicode="&#x3c;" horiz-adv-x="455" 
d="M415 115v-110l-375 175v90l375 175v-110l-245 -110z" />
    <glyph glyph-name="equal" unicode="=" horiz-adv-x="460" 
d="M425 405v-105h-390v105h390zM35 210h390v-105h-390v105z" />
    <glyph glyph-name="greater" unicode="&#x3e;" horiz-adv-x="455" 
d="M285 225l-245 110v110l375 -175v-90l-375 -175v110z" />
    <glyph glyph-name="question" unicode="?" horiz-adv-x="450" 
d="M420 460c0 -23.333 -3.5 -43.167 -10.5 -59.5s-16 -31 -27 -44s-22.667 -25.333 -35 -37s-24 -24.167 -35 -37.5s-20 -28.5 -27 -45.5s-10.5 -37.5 -10.5 -61.5h-115c0 30.667 3.5 56.667 10.5 78s15.667 39.833 26 55.5s21.5 29 33.5 40l33.5 31.5
c10.333 10 19 20.333 26 31s10.5 23.667 10.5 39c0 22.667 -7 40.834 -21 54.501s-33.667 20.5 -59 20.5c-22.667 0 -41.667 -8.33301 -57 -25s-23 -40 -23 -70h-120c1.33301 31.333 7 59.666 17 84.999s23.833 46.833 41.5 64.5s38.5 31.334 62.5 41.001
s50.333 14.5 79 14.5c31.333 0 59.333 -4.5 84 -13.5s45.667 -21.167 63 -36.5s30.5 -33.833 39.5 -55.5s13.5 -44.834 13.5 -69.501zM155 59.999c0 17.333 6.5 32.5 19.5 45.5s28.167 19.5 45.5 19.5s32.5 -6.5 45.5 -19.5s19.5 -28.167 19.5 -45.5s-6.5 -32.5 -19.5 -45.5
s-28.167 -19.5 -45.5 -19.5s-32.5 6.5 -45.5 19.5s-19.5 28.167 -19.5 45.5z" />
    <glyph glyph-name="at" unicode="@" horiz-adv-x="755" 
d="M380 560c48.667 0 94.002 -8.66504 136.002 -25.998s78.5 -40.833 109.5 -70.5s55.333 -64.167 73 -103.5s26.5 -81 26.5 -125c0 -30 -3.83301 -56.5 -11.5 -79.5s-18 -42.333 -31 -58s-28.333 -27.5 -46 -35.5s-36.5 -12 -56.5 -12
c-19.333 0 -35.666 3.16699 -48.999 9.5s-24.666 13.166 -33.999 20.499c-10.667 8.66699 -19.667 18.667 -27 30c-8 -11.333 -17.667 -21.333 -29 -30c-9.33301 -7.33301 -21.166 -14.166 -35.499 -20.499s-30.5 -9.5 -48.5 -9.5c-22 0 -42.5 4.16699 -61.5 12.5
s-35.5 20.166 -49.5 35.499s-25.167 33.833 -33.5 55.5s-12.5 45.5 -12.5 71.5s4.16699 49.833 12.5 71.5s19.5 40.167 33.5 55.5s30.333 27.166 49 35.499s38.667 12.5 60 12.5c15.333 0 28.833 -2.66699 40.5 -8s21.5 -11 29.5 -17
c9.33301 -7.33301 17.666 -15.666 24.999 -24.999l15 40h65v-185c0 -28 4.5 -47.5 13.5 -58.5s21.167 -16.5 36.5 -16.5c7.33301 0 14.666 2 21.999 6s13.833 10.167 19.5 18.5s10.167 19.166 13.5 32.499s5 29.333 5 48c0 34 -6.66699 66 -20 96s-31.833 56.5 -55.5 79.5
s-51.334 41.167 -83.001 54.5s-65.5 20 -101.5 20c-35.333 0 -68.333 -6.66699 -99 -20s-57.667 -31.833 -81 -55.5s-41.666 -51.334 -54.999 -83.001s-20 -65.5 -20 -101.5s6.66699 -69.833 20 -101.5s31.666 -59.334 54.999 -83.001s50.333 -42.167 81 -55.5
s63.667 -20 99 -20c21.333 0 40.666 2.33301 57.999 7s32.666 9.66699 45.999 15c15.333 6.66699 29 14.334 41 23.001l45 -65c-15.333 -10.667 -33 -20 -53 -28c-17.333 -7.33301 -37.5 -13.666 -60.5 -18.999s-48.5 -8 -76.5 -8c-47.333 0 -91.666 8.83301 -132.999 26.5
s-77.333 41.667 -108 72s-54.834 65.833 -72.501 106.5s-26.5 84 -26.5 130s8.83301 89.333 26.5 130s41.834 76.167 72.501 106.5s66.667 54.333 108 72s85.666 26.5 132.999 26.5zM370.002 130.002c22.667 0 42.5 8.83301 59.5 26.5s25.5 40.5 25.5 68.5
s-8.5 50.833 -25.5 68.5s-36.833 26.5 -59.5 26.5s-42.5 -8.83301 -59.5 -26.5s-25.5 -40.5 -25.5 -68.5s8.5 -50.833 25.5 -68.5s36.833 -26.5 59.5 -26.5z" />
    <glyph glyph-name="A" unicode="A" horiz-adv-x="570" 
d="M120 0h-125l235 630h110l235 -630h-125l-45 130h-240zM365 240l-80 230l-80 -230h160z" />
    <glyph glyph-name="B" unicode="B" horiz-adv-x="570" 
d="M440 335c18.667 -8.66699 35.333 -20.0029 50 -34.0029c12.667 -12 24.167 -28 34.5 -48s15.5 -44.333 15.5 -73c0 -24 -5 -46.833 -15 -68.5s-24.167 -40.667 -42.5 -57s-40 -29.5 -65 -39.5s-52.5 -15 -82.5 -15h-270v630h260c27.333 0 52.666 -4.66699 75.999 -14
s43.5 -22 60.5 -38s30.167 -34.5 39.5 -55.5s14 -43.5 14 -67.5c0 -21.333 -4 -39.666 -12 -54.999s-16.667 -27.666 -26 -36.999c-11.333 -11.333 -23.666 -20.666 -36.999 -27.999zM184.999 374.997h130c22.667 0 41.667 7.5 57 22.5s23 32.5 23 52.5
s-7.66699 37.5 -23 52.5s-34.333 22.5 -57 22.5h-130v-150zM324.999 104.997c28 0 50.833 8.66895 68.5 26.002s26.5 38.666 26.5 63.999s-8.83301 46.666 -26.5 63.999s-40.5 26 -68.5 26h-140v-180h140z" />
    <glyph glyph-name="C" unicode="C" horiz-adv-x="645" 
d="M150 315c0 -30 5 -57.502 15 -82.502s23.333 -46.667 40 -65s36.167 -32.5 58.5 -42.5s46.166 -15 71.499 -15c21.333 0 40.666 3.16699 57.999 9.5s32.833 14.666 46.5 24.999s25 22 34 35s16.167 26.5 21.5 40.5h125c-7.33301 -30 -19.333 -58.667 -36 -86
s-37.167 -51.166 -61.5 -71.499s-52.333 -36.666 -84 -48.999s-66.167 -18.5 -103.5 -18.5c-41.333 0 -80.5 8.16699 -117.5 24.5s-69.333 39 -97 68s-49.667 62.833 -66 101.5s-24.5 80.667 -24.5 126c0 44.667 8.16699 86.5 24.5 125.5s38.333 73 66 102s60 51.667 97 68
s76.167 24.5 117.5 24.5c36 0 69.5 -6.16699 100.5 -18.5s58.5 -28.666 82.5 -48.999s44.333 -44.166 61 -71.499s28.667 -56 36 -86h-125c-4 14 -10.333 27.5 -19 40.5s-19.5 24.667 -32.5 35s-28.167 18.666 -45.5 24.999s-36.666 9.5 -57.999 9.5
c-25.333 0 -49.166 -5 -71.499 -15s-41.833 -24.167 -58.5 -42.5s-30 -40 -40 -65s-15 -52.5 -15 -82.5z" />
    <glyph glyph-name="D" unicode="D" horiz-adv-x="605" 
d="M265 115c24.667 0 48.5 5.33496 71.5 16.002s43.333 25 61 43s31.667 39.167 42 63.5s15.5 50.166 15.5 77.499s-5.16699 53.166 -15.5 77.499s-24.333 45.5 -42 63.5s-38 32.333 -61 43s-46.833 16 -71.5 16h-80v-400h80zM65 0.00195312v630h200
c41.333 0 80.666 -8.5 117.999 -25.5s70.333 -39.833 99 -68.5s51.334 -62 68.001 -100s25 -78.333 25 -121s-8.33301 -83 -25 -121s-39.334 -71.333 -68.001 -100s-61.667 -51.5 -99 -68.5s-76.666 -25.5 -117.999 -25.5h-200z" />
    <glyph glyph-name="E" unicode="E" horiz-adv-x="545" 
d="M510 115v-115h-445v630h435v-115h-315v-135h290v-115h-290v-150h325z" />
    <glyph glyph-name="F" unicode="F" 
d="M185 515v-155h245v-115h-245v-245h-120v630h420v-115h-300z" />
    <glyph glyph-name="G" unicode="G" horiz-adv-x="680" 
d="M150 315c0 -30 4.99902 -57.501 14.999 -82.501s23.333 -46.667 40 -65s36.167 -32.5 58.5 -42.5s46.166 -15 71.499 -15c31.333 0 57.333 5.83301 78 17.5s37 24.834 49 39.501c14 17.333 25 36.666 33 57.999h-165v105h295v-330h-85l-25 60
c-14.667 -12.667 -31 -23.667 -49 -33c-15.333 -8 -34 -15.333 -56 -22s-47 -10 -75 -10c-41.333 0 -80.5 8.16699 -117.5 24.5s-69.333 39 -97 68s-49.667 62.833 -66 101.5s-24.5 80.667 -24.5 126c0 44.667 8.16699 86.5 24.5 125.5s38.333 73 66 102s60 51.667 97 68
s76.167 24.5 117.5 24.5c36 0 69.5 -6.16699 100.5 -18.5s58.5 -28.666 82.5 -48.999s44.333 -44.166 61 -71.499s28.667 -56 36 -86h-125c-4 14 -10.333 27.5 -19 40.5s-19.5 24.667 -32.5 35s-28.167 18.666 -45.5 24.999s-36.666 9.5 -57.999 9.5
c-25.333 0 -49.166 -5 -71.499 -15s-41.833 -24.167 -58.5 -42.5s-30 -40 -40 -65s-15 -52.5 -15 -82.5z" />
    <glyph glyph-name="H" unicode="H" horiz-adv-x="635" 
d="M570 630v-630h-120v265h-265v-265h-120v630h120v-250h265v250h120z" />
    <glyph glyph-name="I" unicode="I" horiz-adv-x="250" 
d="M185 0h-120v630h120v-630z" />
    <glyph glyph-name="J" unicode="J" horiz-adv-x="485" 
d="M420 630v-435c0 -30 -4.83301 -57.333 -14.5 -82s-23.334 -45.667 -41.001 -63s-39.167 -30.833 -64.5 -40.5s-53.666 -14.5 -84.999 -14.5s-59.666 4.83301 -84.999 14.5s-46.833 23.167 -64.5 40.5s-31.334 38.333 -41.001 63s-14.5 52 -14.5 82h120
c0 -25.333 7.83301 -45.833 23.5 -61.5s36.167 -23.5 61.5 -23.5s45.833 7.83301 61.5 23.5s23.5 36.167 23.5 61.5v435h120z" />
    <glyph glyph-name="K" unicode="K" horiz-adv-x="540" 
d="M410 0l-225 285v-285h-120v630h120v-280l210 280h140l-235 -310l250 -320h-140z" />
    <glyph glyph-name="L" unicode="L" horiz-adv-x="495" 
d="M480 115v-115h-415v630h120v-515h295z" />
    <glyph glyph-name="M" unicode="M" horiz-adv-x="770" 
d="M705 630v-630h-120v350l-160 -350h-80l-160 350v-350h-120v630h105l215 -465l215 465h105z" />
    <glyph glyph-name="N" unicode="N" horiz-adv-x="635" 
d="M570 630v-630h-105l-280 410v-410h-120v630h105l280 -410v410h120z" />
    <glyph glyph-name="O" unicode="O" horiz-adv-x="670" 
d="M150 315c0 -30 5 -57.5 15 -82.5s23.333 -46.667 40 -65s36.167 -32.5 58.5 -42.5s46.166 -15 71.499 -15c24.667 0 48.334 5 71.001 15s42.334 24.167 59.001 42.5s30 40 40 65s15 52.5 15 82.5s-5 57.5 -15 82.5s-23.333 46.667 -40 65s-36.334 32.5 -59.001 42.5
s-46.334 15 -71.001 15c-25.333 0 -49.166 -5 -71.499 -15s-41.833 -24.167 -58.5 -42.5s-30 -40 -40 -65s-15 -52.5 -15 -82.5zM640 315c0 -45.333 -8.16699 -87.333 -24.5 -126s-38.333 -72.5 -66 -101.5s-60 -51.667 -97 -68s-76.167 -24.5 -117.5 -24.5
s-80.5 8.16699 -117.5 24.5s-69.333 39 -97 68s-49.667 62.833 -66 101.5s-24.5 80.667 -24.5 126c0 44.667 8.16699 86.5 24.5 125.5s38.333 73 66 102s60 51.667 97 68s76.167 24.5 117.5 24.5s80.5 -8.16699 117.5 -24.5s69.333 -39 97 -68s49.667 -63 66 -102
s24.5 -80.833 24.5 -125.5z" />
    <glyph glyph-name="P" unicode="P" horiz-adv-x="545" 
d="M300 630c30 0 58 -5.49805 84 -16.498s48.833 -26 68.5 -45s35 -41.333 46 -67s16.5 -52.834 16.5 -81.501s-5.5 -55.834 -16.5 -81.501s-26.333 -48 -46 -67s-42.5 -34 -68.5 -45s-54 -16.5 -84 -16.5h-115v-210h-120v630h235zM300 325.002
c12.667 0 24.667 2.66699 36 8s21.333 12.333 30 21s15.667 18.667 21 30s8 23.333 8 36s-2.66699 24.667 -8 36s-12.333 21.333 -21 30s-18.667 15.667 -30 21s-23.333 8 -36 8h-115v-190h115z" />
    <glyph glyph-name="Q" unicode="Q" horiz-adv-x="670" 
d="M640 315c0 -30 -3.50098 -57.334 -10.501 -82.001s-14.5 -45.667 -22.5 -63c-9.33301 -20.667 -20 -39 -32 -55l60 -60l-65 -70l-65 65c-13.333 -10.667 -28.666 -20 -45.999 -28c-14.667 -7.33301 -32.5 -13.666 -53.5 -18.999s-44.5 -8 -70.5 -8
c-41.333 0 -80.5 8.16699 -117.5 24.5s-69.333 39 -97 68s-49.667 62.833 -66 101.5s-24.5 80.667 -24.5 126c0 44.667 8.16699 86.5 24.5 125.5s38.333 73 66 102s60 51.667 97 68s76.167 24.5 117.5 24.5s80.5 -8.16699 117.5 -24.5s69.333 -39 97 -68s49.667 -63 66 -102
s24.5 -80.833 24.5 -125.5zM149.999 314.999c0 -30 5.00293 -57.499 15.0029 -82.499s23.333 -46.667 40 -65s36.167 -32.5 58.5 -42.5s46.166 -15 71.499 -15c13.333 0 25.333 1 36 3s19.667 4.33301 27 7c8 2.66699 15.333 6 22 10l-65 65l65 70l70 -65
c5.33301 8.66699 10.333 19 15 31c3.33301 10 6.66602 22.167 9.99902 36.5s5 30.166 5 47.499c0 30 -5 57.5 -15 82.5s-23.333 46.667 -40 65s-36.334 32.5 -59.001 42.5s-46.334 15 -71.001 15c-25.333 0 -49.166 -5 -71.499 -15s-41.833 -24.167 -58.5 -42.5
s-30 -40 -40 -65s-15 -52.5 -15 -82.5z" />
    <glyph glyph-name="R" unicode="R" horiz-adv-x="560" 
d="M275 230l-90.002 -0.00195312v-230h-120v630h250c30 0 57.833 -5.16699 83.5 -15.5s47.834 -24.5 66.501 -42.5s33.334 -38.833 44.001 -62.5s16 -48.5 16 -74.5c0 -35.333 -7 -64.666 -21 -87.999s-29.667 -42.333 -47 -57c-20 -17.333 -42.333 -30.666 -67 -39.999
l150 -250h-135zM184.998 344.998h130c25.333 0 46.666 8.5 63.999 25.5s26 36.833 26 59.5s-8.66699 42.5 -26 59.5s-38.666 25.5 -63.999 25.5h-130v-170z" />
    <glyph glyph-name="S" unicode="S" horiz-adv-x="520" 
d="M40 454c0 24 5.16504 47.002 15.498 69.002s25 41.167 44 57.5s42 29.5 69 39.5s57.5 15 91.5 15c31.333 0 59.833 -5 85.5 -15s47.834 -24 66.501 -42s33 -39.167 43 -63.5s15 -50.833 15 -79.5h-115c0 28 -8.33301 50 -25 66s-40 24 -70 24s-53.333 -7.33301 -70 -22
s-25 -30.667 -25 -48c0 -18.667 8 -33 24 -43s36 -19 60 -27l78.5 -25c28.333 -8.66699 54.5 -20.334 78.5 -35.001s44 -33.834 60 -57.501s24 -54.5 24 -92.5c0 -22.667 -5.5 -44.667 -16.5 -66s-26.5 -40.5 -46.5 -57.5s-44.167 -30.667 -72.5 -41
s-59.833 -15.5 -94.5 -15.5c-35.333 0 -66.833 5 -94.5 15s-51.167 24.167 -70.5 42.5s-34.166 40 -44.499 65s-15.5 52.5 -15.5 82.5h120c0 -28 9.33301 -50.833 28 -68.5s44.334 -26.5 77.001 -26.5c35.333 0 61.666 7.5 78.999 22.5s26 32.5 26 52.5
c0 19.333 -8 34.333 -24 45s-36 20.167 -60 28.5s-50.167 16.5 -78.5 24.5s-54.5 19 -78.5 33s-44 32.167 -60 54.5s-24 51.833 -24 88.5z" />
    <glyph glyph-name="T" unicode="T" horiz-adv-x="520" 
d="M15 630h490v-115h-185v-515h-120v515h-185v115z" />
    <glyph glyph-name="U" unicode="U" horiz-adv-x="620" 
d="M310 110c40 0 71.665 11.667 94.998 35s35 55 35 95v390h120v-390c0 -35.333 -6.16699 -67.833 -18.5 -97.5s-29.666 -55.5 -51.999 -77.5s-48.833 -39.167 -79.5 -51.5s-64 -18.5 -100 -18.5s-69.333 6.16699 -100 18.5s-57.167 29.5 -79.5 51.5
s-39.666 47.833 -51.999 77.5s-18.5 62.167 -18.5 97.5v390h120v-390c0 -40 11.667 -71.667 35 -95s55 -35 95 -35z" />
    <glyph glyph-name="V" unicode="V" horiz-adv-x="580" 
d="M230 0l-225 630h125l160 -460l160 460h125l-225 -630h-120z" />
    <glyph glyph-name="W" unicode="W" horiz-adv-x="830" 
d="M290 0h-85l-200 630h120l125 -410l130 410h70l130 -410l125 410h120l-200 -630h-85l-125 395z" />
    <glyph glyph-name="X" unicode="X" horiz-adv-x="560" 
d="M410 630h135l-195 -310l205 -320h-135l-140 229l-140 -229h-135l205 320l-195 310h135l130 -220z" />
    <glyph glyph-name="Y" unicode="Y" horiz-adv-x="550" 
d="M415 630h130l-210 -390v-240h-120v240l-210 390h130l140 -270z" />
    <glyph glyph-name="Z" unicode="Z" horiz-adv-x="515" 
d="M185 115h300v-115h-455v95l285 420h-275v115h430v-95z" />
    <glyph glyph-name="bracketleft" unicode="[" horiz-adv-x="310" 
d="M180 -70h110v-110h-225v810h225v-110h-110v-590z" />
    <glyph glyph-name="backslash" unicode="\" horiz-adv-x="370" 
d="M0 630h110l260 -810h-110z" />
    <glyph glyph-name="bracketright" unicode="]" horiz-adv-x="310" 
d="M130 520h-110v110h225v-810h-225v110h110v590z" />
    <glyph glyph-name="asciicircum" unicode="^" horiz-adv-x="410" 
d="M30 335l145 295h60l145 -295h-100l-75 160l-75 -160h-100z" />
    <glyph glyph-name="underscore" unicode="_" horiz-adv-x="285" 
d="M305 -185h-325v100h325v-100z" />
    <glyph glyph-name="grave" unicode="`" horiz-adv-x="235" 
d="M205 505h-85l-90 125h110z" />
    <glyph glyph-name="a" unicode="a" horiz-adv-x="475" 
d="M245 465c26 0 50 -4.50293 72 -13.5029s41 -21.5 57 -37.5s28.5 -35 37.5 -57s13.5 -46 13.5 -72v-285h-85l-20 45c-10.667 -9.33301 -22.334 -17.666 -35.001 -24.999c-11.333 -6.66699 -25 -12.5 -41 -17.5s-34 -7.5 -54 -7.5c-50 0 -88.333 12.167 -115 36.5
s-40 55.5 -40 93.5c0 22.667 4.5 43.5 13.5 62.5s24.167 35.333 45.5 49s49.5 24.334 84.5 32.001s78.833 11.5 131.5 11.5c0 25.333 -6.83301 45 -20.5 59s-31.834 21 -54.501 21c-15.333 0 -27.5 -2.66699 -36.5 -8s-16.167 -11 -21.5 -17
c-6 -7.33301 -10 -15.666 -12 -24.999h-115c2.66699 21.333 8.83398 41.333 18.501 60s22.834 35 39.501 49s36.5 25.167 59.5 33.5s48.833 12.5 77.5 12.5zM210 84.9971c30 0 54.1689 8.83301 72.502 26.5s27.5 40.5 27.5 68.5v20c-34 0 -61.333 -1.5 -82 -4.5
s-36.834 -7.33301 -48.501 -13s-19.5 -12.5 -23.5 -20.5s-6 -17 -6 -27c0 -12.667 5.66699 -24.167 17 -34.5s25.666 -15.5 42.999 -15.5z" />
    <glyph glyph-name="b" unicode="b" horiz-adv-x="535" 
d="M290 -5c-20 0 -37.999 2.50098 -53.999 7.50098s-29.667 10.833 -41 17.5c-13.333 7.33301 -25 15.666 -35 24.999l-20 -45h-85v630h115v-210c9.33301 8 20 15.333 32 22c10.667 5.33301 23.167 10.5 37.5 15.5s31.166 7.5 50.499 7.5c28.667 0 56 -5.83301 82 -17.5
s48.833 -28 68.5 -49s35.334 -45.833 47.001 -74.5s17.5 -60 17.5 -94s-5.83301 -65.333 -17.5 -94s-27.334 -53.5 -47.001 -74.5s-42.5 -37.333 -68.5 -49s-53.333 -17.5 -82 -17.5zM160.001 230.001c0 -38 11 -68.333 33 -91s49.333 -34 82 -34s60 11.333 82 34
s33 53 33 91s-11 68.333 -33 91s-49.333 34 -82 34s-60 -11.333 -82 -34s-33 -53 -33 -91z" />
    <glyph glyph-name="c" unicode="c" horiz-adv-x="500" 
d="M475 170c-5.33301 -22.667 -14.333 -44.4961 -27 -65.4961s-28.334 -39.667 -47.001 -56s-40 -29.333 -64 -39s-49.667 -14.5 -77 -14.5c-31.333 0 -60.833 6.16699 -88.5 18.5s-52 29.166 -73 50.499s-37.667 46.166 -50 74.499s-18.5 58.833 -18.5 91.5
s6.16699 63.167 18.5 91.5s29 53.166 50 74.499s45.333 38.166 73 50.499s57.167 18.5 88.5 18.5c27.333 0 53 -4.83301 77 -14.5s45.333 -22.667 64 -39s34.334 -35 47.001 -56s21.667 -42.833 27 -65.5h-115c-5.33301 12 -12.666 22.667 -21.999 32
c-8 8 -18.333 15.5 -31 22.5s-28.334 10.5 -47.001 10.5c-32.667 0 -60 -11.333 -82 -34s-33 -53 -33 -91s11 -68.333 33 -91s49.333 -34 82 -34c18.667 0 34.334 3.33301 47.001 10s23 14 31 22c9.33301 9.33301 16.666 20.333 21.999 33h115z" />
    <glyph glyph-name="d" unicode="d" horiz-adv-x="535" 
d="M245 -5c-28.667 0 -56.001 5.83203 -82.001 17.499s-48.833 28 -68.5 49s-35.334 45.833 -47.001 74.5s-17.5 60 -17.5 94s5.83301 65.333 17.5 94s27.334 53.5 47.001 74.5s42.5 37.333 68.5 49s53.333 17.5 82 17.5c18.667 0 35.334 -2.5 50.001 -7.5
s27.334 -10.167 38.001 -15.5c12 -6.66699 22.667 -14 32 -22v210h115v-630h-85l-20 45c-10.667 -9.33301 -22.334 -17.666 -35.001 -24.999c-11.333 -6.66699 -25 -12.5 -41 -17.5s-34 -7.5 -54 -7.5zM374.999 229.999c0 38 -11 68.333 -33 91s-49.333 34 -82 34
s-60 -11.333 -82 -34s-33 -53 -33 -91s11 -68.333 33 -91s49.333 -34 82 -34s60 11.333 82 34s33 53 33 91z" />
    <glyph glyph-name="e" unicode="e" 
d="M465 140c-6 -17.333 -15.1631 -34.6621 -27.4961 -51.9951s-27.333 -32.833 -45 -46.5s-37.667 -24.834 -60 -33.501s-46.5 -13 -72.5 -13c-31.333 0 -60.833 6.16699 -88.5 18.5s-52 29.166 -73 50.499s-37.667 46.166 -50 74.499s-18.5 58.833 -18.5 91.5
s6.16699 63.167 18.5 91.5s29 53.166 50 74.499s45.333 38.166 73 50.499s57.167 18.5 88.5 18.5c30 0 58.333 -5.66699 85 -17s50 -27.333 70 -48s35.833 -45.5 47.5 -74.5s17.5 -60.833 17.5 -95.5c0 -5.33301 -0.333008 -10.5 -1 -15.5l-2 -14.5
c-0.666992 -5.33301 -1.33398 -10.333 -2.00098 -15h-320c5.33301 -22.667 16.666 -41.667 33.999 -57s41 -23 71 -23c15.333 0 28.166 1.66699 38.499 5s19.166 7.33301 26.499 12c8 5.33301 14.667 11.333 20 18h120zM260.004 355.004c-30 0 -54.5 -8.66699 -73.5 -26
s-31.167 -38.666 -36.5 -63.999h220c-5.33301 25.333 -17.5 46.666 -36.5 63.999s-43.5 26 -73.5 26z" />
    <glyph glyph-name="f" unicode="f" horiz-adv-x="305" 
d="M75 345l-55.002 -0.00195312v105h55v20c0 24.667 3.83301 47.167 11.5 67.5s18.334 37.833 32.001 52.5s30 25.834 49 33.501s39.833 11.5 62.5 11.5c7.33301 0 14.333 -0.5 21 -1.5s12.667 -2.16699 18 -3.5c6 -2 11.333 -3.66699 16 -5v-100l-8 2
c-2.66699 0.666992 -5.66699 1.33398 -9 2.00098s-7.66602 1 -12.999 1c-20 0 -35.833 -5.83301 -47.5 -17.5s-17.5 -27.5 -17.5 -47.5v-15h95v-105h-95v-345h-115v345z" />
    <glyph glyph-name="g" unicode="g" horiz-adv-x="530" 
d="M240 465c20 0 38.001 -2.66699 54.001 -8s29.667 -11 41 -17c12.667 -7.33301 24.334 -15.666 35.001 -24.999l20 45h85v-430c0 -60 -19.167 -108.333 -57.5 -145s-92.5 -55 -162.5 -55c-42.667 0 -77.167 7.66699 -103.5 23s-47.166 32.666 -62.499 51.999
c-17.333 22 -30.333 47 -39 75h115c4.66699 -8.66699 11 -16.334 19 -23.001c7.33301 -5.33301 16.666 -10.333 27.999 -15s25.666 -7 42.999 -7c32.667 0 58.334 8.83301 77.001 26.5s28 40.5 28 68.5v35c-9.33301 -9.33301 -20 -17.666 -32 -24.999
c-10.667 -6.66699 -23.334 -12.5 -38.001 -17.5s-31.334 -7.5 -50.001 -7.5c-28.667 0 -55.834 5.66699 -81.501 17s-48 27 -67 47s-34 43.667 -45 71s-16.5 57.333 -16.5 90s5.5 62.667 16.5 90s26 51 45 71s41.333 35.667 67 47s52.834 17 81.501 17zM145.001 240
c0 -16 2.83301 -31 8.5 -45s13.5 -26.167 23.5 -36.5s21.667 -18.5 35 -24.5s27.666 -9 42.999 -9c14.667 0 28.667 3 42 9s25 14.167 35 24.5s18 22.5 24 36.5s9 29 9 45s-3 31 -9 45s-14 26.167 -24 36.5s-21.667 18.5 -35 24.5s-27.333 9 -42 9
c-15.333 0 -29.666 -3 -42.999 -9s-25 -14.167 -35 -24.5s-17.833 -22.5 -23.5 -36.5s-8.5 -29 -8.5 -45z" />
    <glyph glyph-name="h" unicode="h" horiz-adv-x="525" 
d="M300 465c24.667 0 47.833 -4.49902 69.5 -13.499s40.167 -22 55.5 -39s27.5 -37.5 36.5 -61.5s13.5 -51 13.5 -81v-270h-115v255c0 30 -8.83301 54.167 -26.5 72.5s-40.5 27.5 -68.5 27.5s-50.833 -9.16699 -68.5 -27.5s-26.5 -42.5 -26.5 -72.5v-255h-115v630h115v-215
c8.66699 9.33301 19 17.666 31 24.999c10.667 6 24.167 11.667 40.5 17s35.833 8 58.5 8z" />
    <glyph glyph-name="i" unicode="i" horiz-adv-x="225" 
d="M170 0h-115v460h115v-460zM115 520c-17.333 0 -32.5 6.5 -45.5 19.5s-19.5 28.167 -19.5 45.5s6.5 32.5 19.5 45.5s28.167 19.5 45.5 19.5s32.5 -6.5 45.5 -19.5s19.5 -28.167 19.5 -45.5s-6.5 -32.5 -19.5 -45.5s-28.167 -19.5 -45.5 -19.5z" />
    <glyph glyph-name="j" unicode="j" horiz-adv-x="225" 
d="M170 0c0 -25.333 -3.83301 -47.999 -11.5 -67.999s-18.334 -37.333 -32.001 -52s-30 -25.834 -49 -33.501s-39.833 -11.5 -62.5 -11.5c-14.667 0 -27.667 1.66699 -39 5c-6 1.33301 -11.333 3 -16 5v100c2 -1.33301 4.33301 -2.33301 7 -3
c6.66699 -1.33301 14.334 -2 23.001 -2c20 0 35.833 5.83301 47.5 17.5s17.5 27.5 17.5 47.5v455h115v-460zM115 520.001c-17.333 0 -32.5 6.5 -45.5 19.5s-19.5 28.167 -19.5 45.5s6.5 32.5 19.5 45.5s28.167 19.5 45.5 19.5s32.5 -6.5 45.5 -19.5s19.5 -28.167 19.5 -45.5
s-6.5 -32.5 -19.5 -45.5s-28.167 -19.5 -45.5 -19.5z" />
    <glyph glyph-name="k" unicode="k" horiz-adv-x="450" 
d="M330 0l-160 210v-210h-115v630h115v-360l140 190h130l-165 -220l185 -240h-130z" />
    <glyph glyph-name="l" unicode="l" horiz-adv-x="225" 
d="M170 0h-115v630h115v-630z" />
    <glyph glyph-name="m" unicode="m" horiz-adv-x="750" 
d="M270 465c23.333 0 43.334 -3.16602 60.001 -9.49902s30.334 -13.166 41.001 -20.499c12 -8.66699 21.667 -18.667 29 -30c10.667 11.333 23 21.333 37 30c12 7.33301 26.333 14.166 43 20.499s35 9.5 55 9.5c50 0 90 -16 120 -48s45 -79.333 45 -142v-275h-115v265
c0 28 -7.5 50 -22.5 66s-32.5 24 -52.5 24s-37.5 -8 -52.5 -24s-22.5 -38 -22.5 -66v-265h-115v265c0 28 -7.5 50 -22.5 66s-32.5 24 -52.5 24s-37.5 -8 -52.5 -24s-22.5 -38 -22.5 -66v-265h-115v460h85l20 -45c9.33301 9.33301 19.666 17.666 30.999 24.999
c9.33301 6 20.666 11.667 33.999 17s28.333 8 45 8z" />
    <glyph glyph-name="n" unicode="n" horiz-adv-x="525" 
d="M290 465c27.333 0 52.334 -4.49902 75.001 -13.499s42.167 -22 58.5 -39s29 -37.5 38 -61.5s13.5 -51 13.5 -81v-270h-115v255c0 30 -8.83301 54.167 -26.5 72.5s-40.5 27.5 -68.5 27.5s-50.833 -9.16699 -68.5 -27.5s-26.5 -42.5 -26.5 -72.5v-255h-115v460h85l20 -45
c11.333 9.33301 23.666 17.666 36.999 24.999c11.333 6 24.833 11.667 40.5 17s33.167 8 52.5 8z" />
    <glyph glyph-name="o" unicode="o" horiz-adv-x="520" 
d="M145 230c0 -38 11 -68.333 33 -91s49.333 -34 82 -34s60 11.333 82 34s33 53 33 91s-11 68.333 -33 91s-49.333 34 -82 34s-60 -11.333 -82 -34s-33 -53 -33 -91zM490 230c0 -32.667 -6.16699 -63.167 -18.5 -91.5s-29 -53.166 -50 -74.499s-45.333 -38.166 -73 -50.499
s-57.167 -18.5 -88.5 -18.5s-60.833 6.16699 -88.5 18.5s-52 29.166 -73 50.499s-37.667 46.166 -50 74.499s-18.5 58.833 -18.5 91.5s6.16699 63.167 18.5 91.5s29 53.166 50 74.499s45.333 38.166 73 50.499s57.167 18.5 88.5 18.5s60.833 -6.16699 88.5 -18.5
s52 -29.166 73 -50.499s37.667 -46.166 50 -74.499s18.5 -58.833 18.5 -91.5z" />
    <glyph glyph-name="p" unicode="p" horiz-adv-x="535" 
d="M290 465c28.667 0 55.999 -5.83301 81.999 -17.5s48.833 -28 68.5 -49s35.334 -45.833 47.001 -74.5s17.5 -60 17.5 -94s-5.83301 -65.333 -17.5 -94s-27.334 -53.5 -47.001 -74.5s-42.5 -37.333 -68.5 -49s-53.333 -17.5 -82 -17.5c-19.333 0 -36.166 2.33301 -50.499 7
s-26.833 9.66699 -37.5 15c-12 6.66699 -22.667 14.334 -32 23.001v-200h-115v620h85l20 -45c10 9.33301 21.667 17.666 35 24.999c11.333 6 25 11.667 41 17s34 8 54 8zM159.999 230c0 -38 11 -68.333 33 -91s49.333 -34 82 -34s60 11.333 82 34s33 53 33 91
s-11 68.333 -33 91s-49.333 34 -82 34s-60 -11.333 -82 -34s-33 -53 -33 -91z" />
    <glyph glyph-name="q" unicode="q" horiz-adv-x="535" 
d="M245 465c20 0 38.001 -2.66699 54.001 -8s29.667 -11 41 -17c12.667 -7.33301 24.334 -15.666 35.001 -24.999l20 45h85v-620h-115v200c-9.33301 -8.66699 -20 -16.334 -32 -23.001c-10.667 -5.33301 -23.334 -10.333 -38.001 -15s-31.334 -7 -50.001 -7
c-28.667 0 -56 5.83301 -82 17.5s-48.833 28 -68.5 49s-35.334 45.833 -47.001 74.5s-17.5 60 -17.5 94s5.83301 65.333 17.5 94s27.334 53.5 47.001 74.5s42.5 37.333 68.5 49s53.333 17.5 82 17.5zM375.001 230c0 38 -11 68.333 -33 91s-49.333 34 -82 34
s-60 -11.333 -82 -34s-33 -53 -33 -91s11 -68.333 33 -91s49.333 -34 82 -34s60 11.333 82 34s33 53 33 91z" />
    <glyph glyph-name="r" unicode="r" horiz-adv-x="325" 
d="M270 465c5.33301 0 10 -0.333984 14 -1.00098s7.66699 -1.33398 11 -2.00098l10 -2v-120c-3.33301 0.666992 -7 1.33398 -11 2.00098c-3.33301 0.666992 -7.5 1.33398 -12.5 2.00098s-10.5 1 -16.5 1c-28 0 -50.833 -9.16699 -68.5 -27.5s-26.5 -42.5 -26.5 -72.5v-245
h-115v460h85l20 -50c8 10 17.667 19 29 27c9.33301 7.33301 20.833 13.833 34.5 19.5s29.167 8.5 46.5 8.5z" />
    <glyph glyph-name="s" unicode="s" horiz-adv-x="420" 
d="M140 145c2.66699 -15.333 9.99902 -28.3281 21.999 -38.9951s28 -16 48 -16s35.833 5.16699 47.5 15.5s17.5 21.833 17.5 34.5c0 10.667 -5.83301 19 -17.5 25s-26.167 11.5 -43.5 16.5s-36.166 10.167 -56.499 15.5s-39.166 13.166 -56.499 23.499
s-31.833 23.666 -43.5 39.999s-17.5 37.833 -17.5 64.5c0 18.667 3.83301 36.5 11.5 53.5s18.834 31.833 33.501 44.5s32 22.834 52 30.501s42.667 11.5 68 11.5c55.333 0 97.833 -13.333 127.5 -40s47.167 -60 52.5 -100h-110c-2.66699 10 -9.83398 20 -21.501 30
s-26.167 15 -43.5 15s-30.833 -4.33301 -40.5 -13s-14.5 -19.334 -14.5 -32.001c0 -10.667 5.83301 -19 17.5 -25s26.167 -11.5 43.5 -16.5l56.5 -16c20.333 -5.66699 39.166 -13.834 56.499 -24.501s31.833 -24.5 43.5 -41.5s17.5 -39.167 17.5 -66.5
c0 -18.667 -4 -36.5 -12 -53.5s-19.333 -31.833 -34 -44.5s-32.5 -22.834 -53.5 -30.501s-44.5 -11.5 -70.5 -11.5c-60 0 -105.5 13.667 -136.5 41s-48.833 63.666 -53.5 108.999h110z" />
    <glyph glyph-name="t" unicode="t" horiz-adv-x="345" 
d="M105 570l100.001 -0.000976562v-110h100v-105h-100v-190c0 -20 5.83301 -35.833 17.5 -47.5s27.5 -17.5 47.5 -17.5c5.33301 0 9.66602 0.166992 12.999 0.5s6.33301 0.833008 9 1.5s5.33398 1.66699 8.00098 3v-100c-4.66699 -2 -10 -3.66699 -16 -5
c-11.333 -3.33301 -24.333 -5 -39 -5c-22.667 0 -43.5 3.83301 -62.5 11.5s-35.333 18.834 -49 33.501s-24.334 32 -32.001 52s-11.5 42.667 -11.5 68v195h-70v95h30c36.667 0 55 18.333 55 55v65z" />
    <glyph glyph-name="u" unicode="u" horiz-adv-x="530" 
d="M240 -5c-27.333 0 -52.334 4.49902 -75.001 13.499s-42.167 22 -58.5 39s-29 37.5 -38 61.5s-13.5 51 -13.5 81v270h115v-255c0 -30 8.83301 -54.167 26.5 -72.5s40.5 -27.5 68.5 -27.5s50.833 9.16699 68.5 27.5s26.5 42.5 26.5 72.5v255h115v-460h-85l-20 45
c-11.333 -9.33301 -23.666 -17.666 -36.999 -24.999c-11.333 -6.66699 -25 -12.5 -41 -17.5s-33.333 -7.5 -52 -7.5z" />
    <glyph glyph-name="v" unicode="v" horiz-adv-x="470" 
d="M465 460l-175 -460h-110l-175 460h120l110 -318l110 318h120z" />
    <glyph glyph-name="w" unicode="w" horiz-adv-x="680" 
d="M340 275l-85 -275h-100l-150 460h115l90 -295l95 295h70l95 -295l90 295h115l-150 -460h-100z" />
    <glyph glyph-name="x" unicode="x" horiz-adv-x="450" 
d="M125 0h-125l155 235l-145 225h125l90 -145l90 145h125l-145 -225l155 -235h-125l-100 155z" />
    <glyph glyph-name="y" unicode="y" horiz-adv-x="470" 
d="M5 460l120.002 0.000976562l115 -300l105 300h120l-89 -228l-33.5 -86l-29.5 -76.5l-22 -57.5c-6 -15.333 -9.66699 -24.333 -11 -27c-11.333 -27.333 -22.5 -50.5 -33.5 -69.5s-22.833 -34.5 -35.5 -46.5s-26.334 -20.667 -41.001 -26s-31.334 -8 -50.001 -8
c-5.33301 0 -10.5 0.166992 -15.5 0.5s-9.16699 0.833008 -12.5 1.5c-4.66699 0.666992 -8.66699 1.66699 -12 3v95c25.333 0 44.833 5.66699 58.5 17s24.167 25.666 31.5 42.999l10 25z" />
    <glyph glyph-name="z" unicode="z" horiz-adv-x="415" 
d="M230 350h-200v110h345v-95l-200 -255h210v-110h-355v95z" />
    <glyph glyph-name="braceleft" unicode="{" horiz-adv-x="325" 
d="M40 270c15.333 0 27.5 4.83398 36.5 14.501s13.5 23.167 13.5 40.5v160c0 96.667 51.667 145 155 145h60v-105h-50c-36.667 0 -55 -18.333 -55 -55v-155c0 -19.333 -3.16699 -34.666 -9.5 -45.999s-13.166 -20.333 -20.499 -27c-8.66699 -7.33301 -18.667 -13 -30 -17
c11.333 -4 21.333 -9.66699 30 -17c7.33301 -6.66699 14.166 -15.834 20.499 -27.501s9.5 -26.834 9.5 -45.501v-155c0 -36.667 18.333 -55 55 -55h50v-105h-60c-103.333 0 -155 48.333 -155 145v160c0 17.333 -4.5 30.833 -13.5 40.5s-21.167 14.5 -36.5 14.5v90z" />
    <glyph glyph-name="bar" unicode="|" horiz-adv-x="355" 
d="M235 -160h-115v790h115v-790z" />
    <glyph glyph-name="braceright" unicode="}" horiz-adv-x="325" 
d="M285 180c-15.333 0 -27.5 -4.83398 -36.5 -14.501s-13.5 -23.167 -13.5 -40.5v-160c0 -96.667 -51.667 -145 -155 -145h-60v105h50c36.667 0 55 18.333 55 55v155c0 18.667 3.16699 33.834 9.5 45.501s13.166 20.834 20.499 27.501c8.66699 7.33301 18.667 13 30 17
c-11.333 4 -21.333 9.66699 -30 17c-7.33301 6.66699 -14.166 15.667 -20.499 27s-9.5 26.666 -9.5 45.999v155c0 36.667 -18.333 55 -55 55h-50v105h60c103.333 0 155 -48.333 155 -145v-160c0 -17.333 4.5 -30.833 13.5 -40.5s21.167 -14.5 36.5 -14.5v-90z" />
    <glyph glyph-name="asciitilde" unicode="~" horiz-adv-x="450" 
d="M325 190c-16 0 -32.833 2.83301 -50.5 8.5s-35 12 -52 19l-48 19c-15 5.66699 -28.167 8.5 -39.5 8.5c-12.667 0 -23.334 -4.5 -32.001 -13.5s-13 -21.167 -13 -36.5h-90c0 52.667 11.333 91.667 34 117s53 38 91 38c16 0 32.833 -2.83301 50.5 -8.5s35 -12 52 -19
l48 -19c15 -5.66699 28.167 -8.5 39.5 -8.5c12.667 0 23.334 4.5 32.001 13.5s13 21.167 13 36.5h90c0 -52.667 -11.333 -91.667 -34 -117s-53 -38 -91 -38z" />
    <glyph glyph-name="nonbreakingspace" unicode="&#xa0;" horiz-adv-x="225" 
 />
    <glyph glyph-name="exclamdown" unicode="&#xa1;" horiz-adv-x="260" 
d="M195 395c0 -17.333 -6.5 -32.5 -19.5 -45.5s-28.167 -19.5 -45.5 -19.5s-32.5 6.5 -45.5 19.5s-19.5 28.167 -19.5 45.5s6.5 32.5 19.5 45.5s28.167 19.5 45.5 19.5s32.5 -6.5 45.5 -19.5s19.5 -28.167 19.5 -45.5zM195 -160h-130l15 440h100z" />
    <glyph glyph-name="cent" unicode="&#xa2;" horiz-adv-x="500" 
d="M205 0c-25.333 6 -48.667 16.335 -70 31.002s-39.666 32.167 -54.999 52.5s-27.5 43 -36.5 68s-13.5 51.167 -13.5 78.5s4.5 53.333 13.5 78s21.167 47 36.5 67s33.666 37.333 54.999 52s44.666 25.667 69.999 33v80h110v-80c20.667 -6 39.834 -14.833 57.501 -26.5
s33.5 -25 47.5 -40s25.667 -31.333 35 -49s16 -35.834 20 -54.501h-115c-5.33301 12 -12.666 22.667 -21.999 32c-8 8 -18.333 15.5 -31 22.5s-28.334 10.5 -47.001 10.5c-32.667 0 -60 -11.333 -82 -34s-33 -53 -33 -91s11 -68.333 33 -91s49.333 -34 82 -34
c18.667 0 34.334 3.33301 47.001 10s23 14 31 22c9.33301 9.33301 16.666 20.333 21.999 33h115c-4 -18.667 -10.833 -36.834 -20.5 -54.501s-21.5 -34 -35.5 -49s-29.833 -28.333 -47.5 -40s-36.5 -20.5 -56.5 -26.5v-90h-110v90z" />
    <glyph glyph-name="sterling" unicode="&#xa3;" horiz-adv-x="530" 
d="M220 175c0 -11.333 -1.66895 -20.8311 -5.00195 -28.498s-6.66602 -13.834 -9.99902 -18.501c-4.66699 -5.33301 -9.66699 -9.66602 -15 -12.999h310v-115h-460v115c17.333 0 31.666 5.66699 42.999 17s17 25.666 17 42.999v65h-53v105h53v95c0 27.333 5 52.833 15 76.5
s24.167 44.334 42.5 62.001s40 31.5 65 41.5s52.5 15 82.5 15c28.667 0 55.334 -5 80.001 -15s46 -23.333 64 -40s32.333 -36.334 43 -59.001s16.667 -46.334 18 -71.001h-120c-2.66699 25.333 -11.167 45 -25.5 59s-34.166 21 -59.499 21s-45.833 -8 -61.5 -24
s-23.5 -38 -23.5 -66v-95h155v-105h-155v-65z" />
    <glyph glyph-name="currency" unicode="&#xa4;" horiz-adv-x="570" 
d="M25 345l65 0.000976562v285h235c32.667 0 62.167 -5 88.5 -15s48.833 -23.833 67.5 -41.5s33.167 -38.334 43.5 -62.001s15.5 -49.167 15.5 -76.5c0 -26 -5.16699 -50.667 -15.5 -74s-24.833 -43.5 -43.5 -60.5s-41.167 -30.5 -67.5 -40.5s-55.833 -15 -88.5 -15h-115
v-55h185v-100h-185v-90h-120v90h-65v100h65v55h-65v100zM325 345.001c28 0 50.833 8.66895 68.5 26.002s26.5 38.666 26.5 63.999s-8.83301 46.666 -26.5 63.999s-40.5 26 -68.5 26h-115v-180h115z" />
    <glyph glyph-name="yen" unicode="&#xa5;" horiz-adv-x="560" 
d="M90 325h85l-165 305h130l140 -270l140 270h130l-165 -305h85v-95h-130v-45h130v-95h-130v-90h-120v90h-130v95h130v45h-130v95z" />
    <glyph glyph-name="brokenbar" unicode="&#xa6;" horiz-adv-x="355" 
d="M235 630v-310h-115v310h115zM120 150h115v-310h-115v310z" />
    <glyph glyph-name="section" unicode="&#xa7;" horiz-adv-x="480" 
d="M440 250c0 -22.667 -4.67285 -42.166 -14.0059 -58.499s-19.666 -29.833 -30.999 -40.5c-13.333 -12 -28.333 -22.333 -45 -31c11.333 -7.33301 21.333 -16 30 -26c7.33301 -9.33301 14.166 -20.5 20.499 -33.5s9.5 -28.167 9.5 -45.5
c0 -18.667 -3.66699 -36.167 -11 -52.5s-18 -30.666 -32 -42.999s-31.333 -22 -52 -29s-44 -10.5 -70 -10.5c-55.333 0 -98.5 14.5 -129.5 43.5s-47.833 66.167 -50.5 111.5h100c2 -12.667 6.33301 -23.667 13 -33c5.33301 -8 12.833 -15.333 22.5 -22
s22.834 -10 39.501 -10c17.333 0 31.666 5.16699 42.999 15.5s17 21.833 17 34.5c0 14 -6.5 25.667 -19.5 35s-29 18 -48 26s-39.833 16.333 -62.5 25s-43.5 19.667 -62.5 33s-35 30 -48 50s-19.5 45.333 -19.5 76c0 22.667 4.66699 42.167 14 58.5
s19.666 29.833 30.999 40.5c12.667 12 27.667 22.333 45 31c-10.667 6.66699 -20 15.334 -28 26.001c-7.33301 8.66699 -13.666 19.667 -18.999 33s-8 28.666 -8 45.999c0 18.667 3.66699 36.167 11 52.5s17.833 30.666 31.5 42.999s30.334 22 50.001 29
s42.167 10.5 67.5 10.5c52.667 0 92.834 -12.833 120.501 -38.5s44.167 -61.167 49.5 -106.5h-100c-1.33301 10 -4.66602 19 -9.99902 27c-4.66699 7.33301 -11.167 13.833 -19.5 19.5s-20.166 8.5 -35.499 8.5s-28.333 -5.16699 -39 -15.5s-16 -21.833 -16 -34.5
c0 -14 6.33301 -25.667 19 -35s28.334 -18.166 47.001 -26.499s39.167 -16.833 61.5 -25.5s42.833 -19.834 61.5 -33.501s34.334 -30.334 47.001 -50.001s19 -44.5 19 -74.5zM329.994 245.001c0 20 -8.33398 37.833 -25.001 53.5s-45 31.167 -85 46.5
c-13.333 -5.33301 -25 -11.666 -35 -18.999c-9.33301 -6.66699 -17.5 -14.5 -24.5 -23.5s-10.5 -19.833 -10.5 -32.5c0 -20 8.33301 -37.833 25 -53.5s45 -31.167 85 -46.5c12.667 5.33301 24.334 11.666 35.001 18.999c8.66699 6 16.667 13.667 24 23s11 20.333 11 33z" />
    <glyph glyph-name="dieresis" unicode="&#xa8;" horiz-adv-x="370" 
d="M160 575c0 -17.333 -6.5 -32.5 -19.5 -45.5s-28.167 -19.5 -45.5 -19.5s-32.5 6.5 -45.5 19.5s-19.5 28.167 -19.5 45.5s6.5 32.5 19.5 45.5s28.167 19.5 45.5 19.5s32.5 -6.5 45.5 -19.5s19.5 -28.167 19.5 -45.5zM340 575c0 -17.333 -6.5 -32.5 -19.5 -45.5
s-28.167 -19.5 -45.5 -19.5s-32.5 6.5 -45.5 19.5s-19.5 28.167 -19.5 45.5s6.5 32.5 19.5 45.5s28.167 19.5 45.5 19.5s32.5 -6.5 45.5 -19.5s19.5 -28.167 19.5 -45.5z" />
    <glyph glyph-name="copyright" unicode="&#xa9;" horiz-adv-x="710" 
d="M120 315c0 -35.333 6.16699 -67.833 18.5 -97.5s29.166 -55.5 50.499 -77.5s46.166 -39.167 74.499 -51.5s58.833 -18.5 91.5 -18.5s63.167 6.16699 91.5 18.5s53.166 29.5 74.499 51.5s38.166 47.833 50.499 77.5s18.5 62.167 18.5 97.5c0 34.667 -6.16699 67 -18.5 97
s-29.166 56 -50.499 78s-46.166 39.167 -74.499 51.5s-58.833 18.5 -91.5 18.5s-63.167 -6.16699 -91.5 -18.5s-53.166 -29.5 -74.499 -51.5s-38.166 -48 -50.499 -78s-18.5 -62.333 -18.5 -97zM670 315c0 -45.333 -8.16699 -87.333 -24.5 -126s-38.833 -72.5 -67.5 -101.5
s-62 -51.667 -100 -68s-79 -24.5 -123 -24.5s-85 8.16699 -123 24.5s-71.333 39 -100 68s-51.167 62.833 -67.5 101.5s-24.5 80.667 -24.5 126c0 44.667 8.16699 86.5 24.5 125.5s38.833 73 67.5 102s62 51.667 100 68s79 24.5 123 24.5s85 -8.16699 123 -24.5
s71.333 -39 100 -68s51.167 -63 67.5 -102s24.5 -80.833 24.5 -125.5zM275 315c0 -30 8.5 -54.168 25.5 -72.501s36.833 -27.5 59.5 -27.5c13.333 0 24.666 2.66699 33.999 8s16.666 11.666 21.999 18.999c6.66699 8 11.334 17.333 14.001 28h80
c-2.66699 -16 -8.16699 -31.667 -16.5 -47s-19.333 -28.666 -33 -39.999s-29.334 -20.5 -47.001 -27.5s-37.167 -10.5 -58.5 -10.5s-41.666 4.33301 -60.999 13s-36.333 20.667 -51 36s-26.334 33.333 -35.001 54s-13 43 -13 67s4.33301 46.333 13 67
s20.334 38.667 35.001 54s31.667 27.333 51 36s39.666 13 60.999 13s40.833 -3.5 58.5 -10.5s33.334 -16.167 47.001 -27.5s24.667 -24.666 33 -39.999s13.833 -31 16.5 -47h-80c-2.66699 10 -7.33398 19 -14.001 27c-5.33301 7.33301 -12.666 13.833 -21.999 19.5
s-20.666 8.5 -33.999 8.5c-22.667 0 -42.5 -9.16699 -59.5 -27.5s-25.5 -42.5 -25.5 -72.5z" />
    <glyph glyph-name="ordfeminine" unicode="&#xaa;" horiz-adv-x="300" 
d="M155 635c32.667 0 59.168 -10 79.501 -30s30.5 -45 30.5 -75v-170h-50l-15 25c-6 -6 -13 -11 -21 -15c-7.33301 -4 -15.833 -7.5 -25.5 -10.5s-20.834 -4.5 -33.501 -4.5c-28 0 -50 7.66699 -66 23s-24 34.333 -24 57c0 14 2.5 26.667 7.5 38s13.667 21.333 26 30
s29.166 15.334 50.499 20.001s48.333 7 81 7c-0.666992 7.33301 -2.66699 14 -6 20c-3.33301 5.33301 -7.83301 10 -13.5 14s-14.167 6 -25.5 6c-9.33301 0 -16.333 -1.33301 -21 -4s-8.66699 -5.66699 -12 -9s-5.66602 -7.33301 -6.99902 -12h-65
c0 25.333 9.5 46.666 28.5 63.999s46.167 26 81.5 26zM195.001 480c-18.667 0 -34.167 -1.16895 -46.5 -3.50195s-22 -5.16602 -29 -8.49902s-12 -7 -15 -11s-4.5 -8 -4.5 -12c0 -7.33301 3.5 -14.166 10.5 -20.499s16.833 -9.5 29.5 -9.5c15.333 0 28.333 5.33301 39 16
s16 23.667 16 39v10z" />
    <glyph glyph-name="guillemotleft" unicode="&#xab;" horiz-adv-x="475" 
d="M250 65h-110l-110 160l110 160h110l-110 -160zM445 65h-110l-110 160l110 160h110l-110 -160z" />
    <glyph glyph-name="logicalnot" unicode="&#xac;" horiz-adv-x="480" 
d="M450 390v-220h-110v120h-315v100h425z" />
    <glyph glyph-name="uni00AD" unicode="&#xad;" horiz-adv-x="370" 
d="M335 205h-300v100h300v-100z" />
    <glyph glyph-name="registered" unicode="&#xae;" horiz-adv-x="710" 
d="M485 372c0 -18 -3.66602 -32.833 -10.999 -44.5s-15.333 -21.167 -24 -28.5c-10.667 -8 -22.334 -14.333 -35.001 -19l90 -130h-85l-75 110h-30v-110h-75v330h130c16 0 31 -2.83301 45 -8.5s26.167 -13.5 36.5 -23.5s18.5 -21.5 24.5 -34.5s9 -26.833 9 -41.5z
M120.001 315c0 -35.333 6.16699 -67.833 18.5 -97.5s29.166 -55.5 50.499 -77.5s46.166 -39.167 74.499 -51.5s58.833 -18.5 91.5 -18.5s63.167 6.16699 91.5 18.5s53.166 29.5 74.499 51.5s38.166 47.833 50.499 77.5s18.5 62.167 18.5 97.5c0 34.667 -6.16699 67 -18.5 97
s-29.166 56 -50.499 78s-46.166 39.167 -74.499 51.5s-58.833 18.5 -91.5 18.5s-63.167 -6.16699 -91.5 -18.5s-53.166 -29.5 -74.499 -51.5s-38.166 -48 -50.499 -78s-18.5 -62.333 -18.5 -97zM670.001 315c0 -45.333 -8.16699 -87.333 -24.5 -126
s-38.833 -72.5 -67.5 -101.5s-62 -51.667 -100 -68s-79 -24.5 -123 -24.5s-85 8.16699 -123 24.5s-71.333 39 -100 68s-51.167 62.833 -67.5 101.5s-24.5 80.667 -24.5 126c0 44.667 8.16699 86.5 24.5 125.5s38.833 73 67.5 102s62 51.667 100 68s79 24.5 123 24.5
s85 -8.16699 123 -24.5s71.333 -39 100 -68s51.167 -63 67.5 -102s24.5 -80.833 24.5 -125.5zM370.001 330c12.667 0 23.334 4.16699 32.001 12.5s13 17.5 13 27.5s-4.33301 19.167 -13 27.5s-19.334 12.5 -32.001 12.5h-55v-80h55z" />
    <glyph glyph-name="macron" unicode="&#xaf;" horiz-adv-x="320" 
d="M290 525h-260v85h260v-85z" />
    <glyph glyph-name="degree" unicode="&#xb0;" horiz-adv-x="320" 
d="M105 505c0 -17.333 5.33301 -31.666 16 -42.999s23.667 -17 39 -17s28.333 5.66699 39 17s16 25.666 16 42.999s-5.33301 31.666 -16 42.999s-23.667 17 -39 17s-28.333 -5.66699 -39 -17s-16 -25.666 -16 -42.999zM290 505c0 -38 -12.167 -69.167 -36.5 -93.5
s-55.5 -36.5 -93.5 -36.5s-69.167 12.167 -93.5 36.5s-36.5 55.5 -36.5 93.5s12.167 69.167 36.5 93.5s55.5 36.5 93.5 36.5s69.167 -12.167 93.5 -36.5s36.5 -55.5 36.5 -93.5z" />
    <glyph glyph-name="plusminus" unicode="&#xb1;" horiz-adv-x="465" 
d="M180 505h105v-155h150v-100h-150v-135h150v-105h-405v105h150v135h-150v100h150v155z" />
    <glyph glyph-name="twosuperior" unicode="&#xb2;" horiz-adv-x="285" 
d="M145 490l104.997 0.00195312v-70h-215v55l25.5 23.5l28.5 27l26 25l20 19.5l11 10.5c4.66699 4.33301 9.16699 9.16602 13.5 14.499s8 11 11 17s4.5 12 4.5 18c0 7.33301 -3.33301 14.166 -10 20.499s-15 9.5 -25 9.5s-17.667 -2 -23 -6s-9.33301 -8.66699 -12 -14
c-2.66699 -6 -4.33398 -12.667 -5.00098 -20h-70c2.66699 32.667 14.334 58.334 35.001 77.001s47.334 28 80.001 28c35.333 0 62.5 -8.83301 81.5 -26.5s28.5 -40.5 28.5 -68.5c0 -8.66699 -1.33301 -16.667 -4 -24s-5.66699 -13.833 -9 -19.5
s-6.66602 -10.334 -9.99902 -14.001s-5.66602 -6.16699 -6.99902 -7.5z" />
    <glyph glyph-name="threesuperior" unicode="&#xb3;" horiz-adv-x="295" 
d="M225 575c7.33301 -4 13.9951 -9.33203 19.9951 -15.999c5.33301 -5.33301 10 -12 14 -20s6 -17.667 6 -29c0 -25.333 -10.333 -47.5 -31 -66.5s-48.667 -28.5 -84 -28.5s-63.5 10 -84.5 30s-32.833 45 -35.5 75h75c0.666992 -7.33301 2.66699 -14 6 -20
c3.33301 -5.33301 7.83301 -10 13.5 -14s14.167 -6 25.5 -6c12.667 0 22.5 3.33301 29.5 10s10.5 15 10.5 25c0 7.33301 -3.5 14.166 -10.5 20.499s-16.833 9.5 -29.5 9.5h-33v60h28c10 0 18.333 2.33301 25 7s10 10.667 10 18s-3.33301 14.166 -10 20.499s-15 9.5 -25 9.5
c-9.33301 0 -16.333 -1.83301 -21 -5.5s-8.66699 -7.83398 -12 -12.501c-3.33301 -5.33301 -5.66602 -11 -6.99902 -17h-70c2.66699 28 14.334 51.667 35.001 71s47.334 29 80.001 29s58.334 -8.66699 77.001 -26s28 -38.666 28 -63.999c0 -10 -1.66699 -18.667 -5 -26
s-6.66602 -13.666 -9.99902 -18.999c-4.66699 -6 -9.66699 -11 -15 -15z" />
    <glyph glyph-name="acute" unicode="&#xb4;" horiz-adv-x="235" 
d="M95 630h110l-90 -125h-85z" />
    <glyph glyph-name="mu" unicode="&#xb5;" horiz-adv-x="530" 
d="M260 -5c-14 0 -26.499 1.66602 -37.499 4.99902s-20.5 7.33301 -28.5 12c-9.33301 5.33301 -17.333 11.333 -24 18v-190h-115v620h115v-255c0 -30 8.83301 -54.167 26.5 -72.5s40.5 -27.5 68.5 -27.5s50.833 9.16699 68.5 27.5s26.5 42.5 26.5 72.5v255h115v-460h-85
l-20 45c-7.33301 -9.33301 -16.333 -17.666 -27 -24.999c-9.33301 -6.66699 -20.833 -12.5 -34.5 -17.5s-29.834 -7.5 -48.501 -7.5z" />
    <glyph glyph-name="paragraph" unicode="&#xb6;" horiz-adv-x="530" 
d="M465 630v-720h-100v615h-75v-615h-100v400c-21.333 0 -41.666 4.33301 -60.999 13s-36.333 20.334 -51 35.001s-26.334 31.667 -35.001 51s-13 39.666 -13 60.999s4.33301 41.666 13 60.999s20.334 36.333 35.001 51s31.667 26.334 51 35.001s39.666 13 60.999 13h275z
" />
    <glyph glyph-name="periodcentered" unicode="&#xb7;" horiz-adv-x="225" 
d="M175 315c0 -17.333 -6.5 -32.5 -19.5 -45.5s-28.167 -19.5 -45.5 -19.5s-32.5 6.5 -45.5 19.5s-19.5 28.167 -19.5 45.5s6.5 32.5 19.5 45.5s28.167 19.5 45.5 19.5s32.5 -6.5 45.5 -19.5s19.5 -28.167 19.5 -45.5z" />
    <glyph glyph-name="cedilla" unicode="&#xb8;" horiz-adv-x="220" 
d="M115 -40c13.333 -2 25.666 -6.33301 36.999 -13c9.33301 -5.33301 18 -13 26 -23s12 -23 12 -39c0 -20 -8 -37.5 -24 -52.5s-43 -22.5 -81 -22.5c-14.667 0 -27.667 1.66699 -39 5c-6 1.33301 -11.333 3 -16 5v45c3.33301 -1.33301 7.33301 -2.33301 12 -3
c3.33301 -0.666992 7.5 -1.16699 12.5 -1.5s10.167 -0.5 15.5 -0.5c16 0 28.333 2.83301 37 8.5s13 12.834 13 21.501c0 7.33301 -4 14.166 -12 20.499s-20.667 9.5 -38 9.5c-5.33301 0 -10.666 -0.833008 -15.999 -2.5s-8.33301 -2.5 -9 -2.5l35 85h55z" />
    <glyph glyph-name="onesuperior" unicode="&#xb9;" horiz-adv-x="240" 
d="M20 660l95 60h50v-300h-75v205l-35 -20z" />
    <glyph glyph-name="ordmasculine" unicode="&#xba;" horiz-adv-x="330" 
d="M300 495c0 -18.667 -3.83301 -36.5 -11.5 -53.5s-17.667 -31.833 -30 -44.5s-26.666 -22.834 -42.999 -30.501s-33.166 -11.5 -50.499 -11.5s-34.166 3.83301 -50.499 11.5s-30.833 17.834 -43.5 30.501s-22.667 27.5 -30 44.5s-11 34.833 -11 53.5s3.66699 36.5 11 53.5
s17.333 31.833 30 44.5s27.167 22.834 43.5 30.501s33.166 11.5 50.499 11.5s34.166 -3.83301 50.499 -11.5s30.666 -17.834 42.999 -30.501s22.333 -27.5 30 -44.5s11.5 -34.833 11.5 -53.5zM110 495c0 -20 5.33301 -35.833 16 -47.5s23.667 -17.5 39 -17.5
s28.333 5.83301 39 17.5s16 27.5 16 47.5s-5.33301 35.833 -16 47.5s-23.667 17.5 -39 17.5s-28.333 -5.83301 -39 -17.5s-16 -27.5 -16 -47.5z" />
    <glyph glyph-name="guillemotright" unicode="&#xbb;" horiz-adv-x="475" 
d="M335 225l-110 160h110l110 -160l-110 -160h-110zM140 225l-110 160h110l110 -160l-110 -160h-110z" />
    <glyph glyph-name="onequarter" unicode="&#xbc;" horiz-adv-x="585" 
d="M20 570l95 60h50v-300h-75v205l-35 -20zM40 0l385 630h95l-385 -630h-95zM520 125h35v-70h-35v-55h-75v55h-130v55l120 190h85v-175zM445 125v85l-55 -85h55z" />
    <glyph glyph-name="onehalf" unicode="&#xbd;" horiz-adv-x="610" 
d="M20 570l95 60h50v-300h-75v205l-35 -20zM40 0l385 630h95l-385 -630h-95zM470 70l104.997 0.00195312v-70h-215v55l25.5 23.5l28.5 27l26 25l20 19.5l11 10.5c4.66699 4.33301 9.16699 9.16602 13.5 14.499s8 11 11 17s4.5 12 4.5 18
c0 7.33301 -3.33301 14.166 -10 20.499s-15 9.5 -25 9.5s-17.667 -2 -23 -6s-9.33301 -8.66699 -12 -14c-2.66699 -6 -4.33398 -12.667 -5.00098 -20h-70c2.66699 32.667 14.334 58.334 35.001 77.001s47.334 28 80.001 28c35.333 0 62.5 -8.83301 81.5 -26.5
s28.5 -40.5 28.5 -68.5c0 -8.66699 -1.33301 -16.667 -4 -24s-5.66699 -13.833 -9 -19.5s-6.66602 -10.334 -9.99902 -14.001s-5.66602 -6.16699 -6.99902 -7.5z" />
    <glyph glyph-name="threequarters" unicode="&#xbe;" horiz-adv-x="645" 
d="M100 0l385 630h95l-385 -630h-95zM580 125h35v-70h-35v-55h-75v55h-130v55l120 190h85v-175zM505 125v85l-55 -85h55zM225 485c7.33301 -4 13.9951 -9.33203 19.9951 -15.999c5.33301 -5.33301 10 -12 14 -20s6 -17.667 6 -29c0 -25.333 -10.333 -47.5 -31 -66.5
s-48.667 -28.5 -84 -28.5s-63.5 10 -84.5 30s-32.833 45 -35.5 75h75c0.666992 -7.33301 2.66699 -14 6 -20c3.33301 -5.33301 7.83301 -10 13.5 -14s14.167 -6 25.5 -6c12.667 0 22.5 3.33301 29.5 10s10.5 15 10.5 25c0 7.33301 -3.5 14.166 -10.5 20.499
s-16.833 9.5 -29.5 9.5h-33v60h28c10 0 18.333 2.33301 25 7s10 10.667 10 18s-3.33301 14.166 -10 20.499s-15 9.5 -25 9.5c-9.33301 0 -16.333 -1.83301 -21 -5.5s-8.66699 -7.83398 -12 -12.501c-3.33301 -5.33301 -5.66602 -11 -6.99902 -17h-70
c2.66699 28 14.334 51.667 35.001 71s47.334 29 80.001 29s58.334 -8.66699 77.001 -26s28 -38.666 28 -63.999c0 -10 -1.66699 -18.667 -5 -26s-6.66602 -13.666 -9.99902 -18.999c-4.66699 -6 -9.66699 -11 -15 -15z" />
    <glyph glyph-name="questiondown" unicode="&#xbf;" horiz-adv-x="450" 
d="M30 10c0 23.333 3.49805 43.0029 10.498 59.0029s16 30.333 27 43s22.667 24.334 35 35.001s24 22 35 34s20 25.833 27 41.5s10.5 34.834 10.5 57.501h115c0 -29.333 -3.5 -54 -10.5 -74s-15.667 -37.167 -26 -51.5s-21.5 -26.5 -33.5 -36.5s-23.167 -19.833 -33.5 -29.5
s-19 -19.834 -26 -30.501s-10.5 -23.334 -10.5 -38.001c0 -22.667 7 -40.834 21 -54.501s33.667 -20.5 59 -20.5c22.667 0 41.667 8.33301 57 25s23 40 23 70h120c-1.33301 -31.333 -7.16602 -59.666 -17.499 -84.999s-24.166 -46.833 -41.499 -64.5
s-38 -31.334 -62 -41.001s-50.333 -14.5 -79 -14.5c-31.333 0 -59.333 4.5 -84 13.5s-45.667 21.167 -63 36.5s-30.5 33.666 -39.5 54.999s-13.5 44.666 -13.5 69.999zM294.998 395.003c0 -17.333 -6.5 -32.5 -19.5 -45.5s-28.167 -19.5 -45.5 -19.5s-32.5 6.5 -45.5 19.5
s-19.5 28.167 -19.5 45.5s6.5 32.5 19.5 45.5s28.167 19.5 45.5 19.5s32.5 -6.5 45.5 -19.5s19.5 -28.167 19.5 -45.5z" />
    <glyph glyph-name="Agrave" unicode="&#xc0;" horiz-adv-x="570" 
d="M120 0h-125l235 630h110l235 -630h-125l-45 130h-240zM365 240l-80 230l-80 -230h160zM325 700h-85l-90 125h110z" />
    <glyph glyph-name="Aacute" unicode="&#xc1;" horiz-adv-x="570" 
d="M120 0h-125l235 630h110l235 -630h-125l-45 130h-240zM365 240l-80 230l-80 -230h160zM310 825h110l-90 -125h-85z" />
    <glyph glyph-name="Acircumflex" unicode="&#xc2;" horiz-adv-x="570" 
d="M120 0h-125l235 630h110l235 -630h-125l-45 130h-240zM365 240l-80 230l-80 -230h160zM430 700h-95l-50 65l-50 -65h-95l95 125h100z" />
    <glyph glyph-name="Atilde" unicode="&#xc3;" horiz-adv-x="570" 
d="M120 0h-125l235 630h110l235 -630h-125l-45 130h-240zM365 240l-80 230l-80 -230h160zM350 685c-15.333 0 -28.332 2.83301 -38.999 8.5s-20.334 12 -29.001 19l-23 19c-6.66699 5.66699 -13 8.5 -19 8.5c-10 0 -19.167 -4.5 -27.5 -13.5s-12.5 -21.167 -12.5 -36.5h-60
c0 42.667 8.66699 74.167 26 94.5s38.666 30.5 63.999 30.5c14.667 0 27.5 -2.83301 38.5 -8.5s20.833 -12 29.5 -19l23 -19c6.66699 -5.66699 13 -8.5 19 -8.5c10 0 19.167 4.5 27.5 13.5s12.5 21.167 12.5 36.5h60c0 -42.667 -8.66699 -74.167 -26 -94.5
s-38.666 -30.5 -63.999 -30.5z" />
    <glyph glyph-name="Adieresis" unicode="&#xc4;" horiz-adv-x="570" 
d="M120 0h-125l235 630h110l235 -630h-125l-45 130h-240zM365 240l-80 230l-80 -230h160zM260 755c0 -17.333 -6.5 -32.5 -19.5 -45.5s-28.167 -19.5 -45.5 -19.5s-32.5 6.5 -45.5 19.5s-19.5 28.167 -19.5 45.5s6.5 32.5 19.5 45.5s28.167 19.5 45.5 19.5
s32.5 -6.5 45.5 -19.5s19.5 -28.167 19.5 -45.5zM440 755c0 -17.333 -6.5 -32.5 -19.5 -45.5s-28.167 -19.5 -45.5 -19.5s-32.5 6.5 -45.5 19.5s-19.5 28.167 -19.5 45.5s6.5 32.5 19.5 45.5s28.167 19.5 45.5 19.5s32.5 -6.5 45.5 -19.5s19.5 -28.167 19.5 -45.5z" />
    <glyph glyph-name="Aring" unicode="&#xc5;" horiz-adv-x="570" 
d="M120 0h-125l235 630h110l235 -630h-125l-45 130h-240zM365 240l-80 230l-80 -230h160zM320 765c0 10 -3.33301 18.333 -10 25s-15 10 -25 10s-18.333 -3.33301 -25 -10s-10 -15 -10 -25s3.33301 -18.333 10 -25s15 -10 25 -10s18.333 3.33301 25 10s10 15 10 25zM380 765
c0 -25.333 -8.83301 -46.666 -26.5 -63.999s-40.5 -26 -68.5 -26s-50.833 8.66699 -68.5 26s-26.5 38.666 -26.5 63.999s8.83301 46.666 26.5 63.999s40.5 26 68.5 26s50.833 -8.66699 68.5 -26s26.5 -38.666 26.5 -63.999z" />
    <glyph glyph-name="AE" unicode="&#xc6;" horiz-adv-x="835" 
d="M105 0h-130l345 630h470v-115h-280v-135h255v-115h-255v-150h290v-115h-410v135h-210zM240 250h150v265h-5z" />
    <glyph glyph-name="Ccedilla" unicode="&#xc7;" horiz-adv-x="645" 
d="M150 315c0 -30 4.99805 -57.501 14.998 -82.501s23.333 -46.667 40 -65s36.167 -32.5 58.5 -42.5s46.166 -15 71.499 -15c21.333 0 40.666 3.16699 57.999 9.5s32.833 14.666 46.5 24.999s25 22 34 35s16.167 26.5 21.5 40.5h125
c-7.33301 -30 -18.833 -58.167 -34.5 -84.5s-34.667 -49.5 -57 -69.5s-48.166 -36.167 -77.499 -48.5s-61.333 -19.833 -96 -22.5l-15 -35c13.333 -2 25.666 -6.33301 36.999 -13c9.33301 -5.33301 18 -13 26 -23s12 -23 12 -39c0 -20 -8 -37.5 -24 -52.5
s-43 -22.5 -81 -22.5c-14.667 0 -27.667 1.66699 -39 5c-6 1.33301 -11.333 3 -16 5v45c3.33301 -1.33301 7.33301 -2.33301 12 -3c3.33301 -0.666992 7.5 -1.16699 12.5 -1.5s10.167 -0.5 15.5 -0.5c16 0 28.333 2.83301 37 8.5s13 12.834 13 21.501
c0 7.33301 -4 14.166 -12 20.499s-20.667 9.5 -38 9.5c-5.33301 0 -10.666 -0.833008 -15.999 -2.5s-8.33301 -2.5 -9 -2.5l35 80c-37.333 4.66699 -72.666 15.834 -105.999 33.501s-62.5 40.5 -87.5 68.5s-44.833 60.333 -59.5 97s-22 77 -22 121
c0 44.667 8.16699 86.5 24.5 125.5s38.333 73 66 102s60 51.667 97 68s76.167 24.5 117.5 24.5c36 0 69.5 -6.16699 100.5 -18.5s58.5 -28.666 82.5 -48.999s44.333 -44.166 61 -71.499s28.667 -56 36 -86h-125c-4 14 -10.333 27.5 -19 40.5s-19.5 24.667 -32.5 35
s-28.167 18.666 -45.5 24.999s-36.666 9.5 -57.999 9.5c-25.333 0 -49.166 -5 -71.499 -15s-41.833 -24.167 -58.5 -42.5s-30 -40 -40 -65s-15 -52.5 -15 -82.5z" />
    <glyph glyph-name="Egrave" unicode="&#xc8;" horiz-adv-x="545" 
d="M510 115v-115h-445v630h435v-115h-315v-135h290v-115h-290v-150h325zM344 700h-85l-90 125h110z" />
    <glyph glyph-name="Eacute" unicode="&#xc9;" horiz-adv-x="545" 
d="M510 115v-115h-445v630h435v-115h-315v-135h290v-115h-290v-150h325zM305 825h110l-90 -125h-85z" />
    <glyph glyph-name="Ecircumflex" unicode="&#xca;" horiz-adv-x="545" 
d="M510 115v-115h-445v630h435v-115h-315v-135h290v-115h-290v-150h325zM430 700h-95l-50 65l-50 -65h-95l95 125h100z" />
    <glyph glyph-name="Edieresis" unicode="&#xcb;" horiz-adv-x="545" 
d="M510 115v-115h-445v630h435v-115h-315v-135h290v-115h-290v-150h325zM265 755c0 -17.333 -6.5 -32.5 -19.5 -45.5s-28.167 -19.5 -45.5 -19.5s-32.5 6.5 -45.5 19.5s-19.5 28.167 -19.5 45.5s6.5 32.5 19.5 45.5s28.167 19.5 45.5 19.5s32.5 -6.5 45.5 -19.5
s19.5 -28.167 19.5 -45.5zM445 755c0 -17.333 -6.5 -32.5 -19.5 -45.5s-28.167 -19.5 -45.5 -19.5s-32.5 6.5 -45.5 19.5s-19.5 28.167 -19.5 45.5s6.5 32.5 19.5 45.5s28.167 19.5 45.5 19.5s32.5 -6.5 45.5 -19.5s19.5 -28.167 19.5 -45.5z" />
    <glyph glyph-name="Igrave" unicode="&#xcc;" horiz-adv-x="250" 
d="M185 0h-120v630h120v-630zM165 700h-85l-90 125h110z" />
    <glyph glyph-name="Iacute" unicode="&#xcd;" horiz-adv-x="250" 
d="M185 0h-120v630h120v-630zM140 825h110l-90 -125h-85z" />
    <glyph glyph-name="Icircumflex" unicode="&#xce;" horiz-adv-x="250" 
d="M185 0h-120v630h120v-630zM270 700h-95l-50 65l-50 -65h-95l95 125h100z" />
    <glyph glyph-name="Idieresis" unicode="&#xcf;" horiz-adv-x="250" 
d="M185 0h-120v630h120v-630zM100 755c0 -17.333 -6.5 -32.5 -19.5 -45.5s-28.167 -19.5 -45.5 -19.5s-32.5 6.5 -45.5 19.5s-19.5 28.167 -19.5 45.5s6.5 32.5 19.5 45.5s28.167 19.5 45.5 19.5s32.5 -6.5 45.5 -19.5s19.5 -28.167 19.5 -45.5zM280 755
c0 -17.333 -6.5 -32.5 -19.5 -45.5s-28.167 -19.5 -45.5 -19.5s-32.5 6.5 -45.5 19.5s-19.5 28.167 -19.5 45.5s6.5 32.5 19.5 45.5s28.167 19.5 45.5 19.5s32.5 -6.5 45.5 -19.5s19.5 -28.167 19.5 -45.5z" />
    <glyph glyph-name="Eth" unicode="&#xd0;" horiz-adv-x="630" 
d="M10 360h80v270h200c41.333 0 80.666 -8.5 117.999 -25.5s70.333 -39.833 99 -68.5s51.334 -62 68.001 -100s25 -78.333 25 -121s-8.33301 -83 -25 -121s-39.334 -71.333 -68.001 -100s-61.667 -51.5 -99 -68.5s-76.666 -25.5 -117.999 -25.5h-200v260h-80v100zM290 115
c24.667 0 48.5 5.33496 71.5 16.002s43.333 25 61 43s31.667 39.167 42 63.5s15.5 50.166 15.5 77.499s-5.16699 53.166 -15.5 77.499s-24.333 45.5 -42 63.5s-38 32.333 -61 43s-46.833 16 -71.5 16h-80v-155h110v-100h-110v-145h80z" />
    <glyph glyph-name="Ntilde" unicode="&#xd1;" horiz-adv-x="635" 
d="M570 630v-630h-105l-280 410v-410h-120v630h105l280 -410v410h120zM385 695c-15.333 0 -28.332 2.83301 -38.999 8.5s-20.334 12 -29.001 19l-23 19c-6.66699 5.66699 -13 8.5 -19 8.5c-10 0 -19.167 -4.5 -27.5 -13.5s-12.5 -21.167 -12.5 -36.5h-60
c0 42.667 8.66699 74.167 26 94.5s38.666 30.5 63.999 30.5c14.667 0 27.5 -2.83301 38.5 -8.5s20.833 -12 29.5 -19l23 -19c6.66699 -5.66699 13 -8.5 19 -8.5c10 0 19.167 4.5 27.5 13.5s12.5 21.167 12.5 36.5h60c0 -42.667 -8.66699 -74.167 -26 -94.5
s-38.666 -30.5 -63.999 -30.5z" />
    <glyph glyph-name="Ograve" unicode="&#xd2;" horiz-adv-x="670" 
d="M150 315c0 -30 5 -57.5 15 -82.5s23.333 -46.667 40 -65s36.167 -32.5 58.5 -42.5s46.166 -15 71.499 -15c24.667 0 48.334 5 71.001 15s42.334 24.167 59.001 42.5s30 40 40 65s15 52.5 15 82.5s-5 57.5 -15 82.5s-23.333 46.667 -40 65s-36.334 32.5 -59.001 42.5
s-46.334 15 -71.001 15c-25.333 0 -49.166 -5 -71.499 -15s-41.833 -24.167 -58.5 -42.5s-30 -40 -40 -65s-15 -52.5 -15 -82.5zM640 315c0 -45.333 -8.16699 -87.333 -24.5 -126s-38.333 -72.5 -66 -101.5s-60 -51.667 -97 -68s-76.167 -24.5 -117.5 -24.5
s-80.5 8.16699 -117.5 24.5s-69.333 39 -97 68s-49.667 62.833 -66 101.5s-24.5 80.667 -24.5 126c0 44.667 8.16699 86.5 24.5 125.5s38.333 73 66 102s60 51.667 97 68s76.167 24.5 117.5 24.5s80.5 -8.16699 117.5 -24.5s69.333 -39 97 -68s49.667 -63 66 -102
s24.5 -80.833 24.5 -125.5zM380 700h-85l-90 125h110z" />
    <glyph glyph-name="Oacute" unicode="&#xd3;" horiz-adv-x="670" 
d="M150 315c0 -30 5 -57.5 15 -82.5s23.333 -46.667 40 -65s36.167 -32.5 58.5 -42.5s46.166 -15 71.499 -15c24.667 0 48.334 5 71.001 15s42.334 24.167 59.001 42.5s30 40 40 65s15 52.5 15 82.5s-5 57.5 -15 82.5s-23.333 46.667 -40 65s-36.334 32.5 -59.001 42.5
s-46.334 15 -71.001 15c-25.333 0 -49.166 -5 -71.499 -15s-41.833 -24.167 -58.5 -42.5s-30 -40 -40 -65s-15 -52.5 -15 -82.5zM640 315c0 -45.333 -8.16699 -87.333 -24.5 -126s-38.333 -72.5 -66 -101.5s-60 -51.667 -97 -68s-76.167 -24.5 -117.5 -24.5
s-80.5 8.16699 -117.5 24.5s-69.333 39 -97 68s-49.667 62.833 -66 101.5s-24.5 80.667 -24.5 126c0 44.667 8.16699 86.5 24.5 125.5s38.333 73 66 102s60 51.667 97 68s76.167 24.5 117.5 24.5s80.5 -8.16699 117.5 -24.5s69.333 -39 97 -68s49.667 -63 66 -102
s24.5 -80.833 24.5 -125.5zM360 825h110l-90 -125h-85z" />
    <glyph glyph-name="Ocircumflex" unicode="&#xd4;" horiz-adv-x="670" 
d="M150 315c0 -30 5 -57.5 15 -82.5s23.333 -46.667 40 -65s36.167 -32.5 58.5 -42.5s46.166 -15 71.499 -15c24.667 0 48.334 5 71.001 15s42.334 24.167 59.001 42.5s30 40 40 65s15 52.5 15 82.5s-5 57.5 -15 82.5s-23.333 46.667 -40 65s-36.334 32.5 -59.001 42.5
s-46.334 15 -71.001 15c-25.333 0 -49.166 -5 -71.499 -15s-41.833 -24.167 -58.5 -42.5s-30 -40 -40 -65s-15 -52.5 -15 -82.5zM640 315c0 -45.333 -8.16699 -87.333 -24.5 -126s-38.333 -72.5 -66 -101.5s-60 -51.667 -97 -68s-76.167 -24.5 -117.5 -24.5
s-80.5 8.16699 -117.5 24.5s-69.333 39 -97 68s-49.667 62.833 -66 101.5s-24.5 80.667 -24.5 126c0 44.667 8.16699 86.5 24.5 125.5s38.333 73 66 102s60 51.667 97 68s76.167 24.5 117.5 24.5s80.5 -8.16699 117.5 -24.5s69.333 -39 97 -68s49.667 -63 66 -102
s24.5 -80.833 24.5 -125.5zM480 700h-95l-50 65l-50 -65h-95l95 125h100z" />
    <glyph glyph-name="Otilde" unicode="&#xd5;" horiz-adv-x="670" 
d="M150 315c0 -30 5 -57.5 15 -82.5s23.333 -46.667 40 -65s36.167 -32.5 58.5 -42.5s46.166 -15 71.499 -15c24.667 0 48.334 5 71.001 15s42.334 24.167 59.001 42.5s30 40 40 65s15 52.5 15 82.5s-5 57.5 -15 82.5s-23.333 46.667 -40 65s-36.334 32.5 -59.001 42.5
s-46.334 15 -71.001 15c-25.333 0 -49.166 -5 -71.499 -15s-41.833 -24.167 -58.5 -42.5s-30 -40 -40 -65s-15 -52.5 -15 -82.5zM640 315c0 -45.333 -8.16699 -87.333 -24.5 -126s-38.333 -72.5 -66 -101.5s-60 -51.667 -97 -68s-76.167 -24.5 -117.5 -24.5
s-80.5 8.16699 -117.5 24.5s-69.333 39 -97 68s-49.667 62.833 -66 101.5s-24.5 80.667 -24.5 126c0 44.667 8.16699 86.5 24.5 125.5s38.333 73 66 102s60 51.667 97 68s76.167 24.5 117.5 24.5s80.5 -8.16699 117.5 -24.5s69.333 -39 97 -68s49.667 -63 66 -102
s24.5 -80.833 24.5 -125.5zM395 690c-15.333 0 -28.332 2.83301 -38.999 8.5s-20.334 12 -29.001 19l-23 19c-6.66699 5.66699 -13 8.5 -19 8.5c-10 0 -19.167 -4.5 -27.5 -13.5s-12.5 -21.167 -12.5 -36.5h-60c0 42.667 8.66699 74.167 26 94.5s38.666 30.5 63.999 30.5
c14.667 0 27.5 -2.83301 38.5 -8.5s20.833 -12 29.5 -19l23 -19c6.66699 -5.66699 13 -8.5 19 -8.5c10 0 19.167 4.5 27.5 13.5s12.5 21.167 12.5 36.5h60c0 -42.667 -8.66699 -74.167 -26 -94.5s-38.666 -30.5 -63.999 -30.5z" />
    <glyph glyph-name="Odieresis" unicode="&#xd6;" horiz-adv-x="670" 
d="M150 315c0 -30 5 -57.5 15 -82.5s23.333 -46.667 40 -65s36.167 -32.5 58.5 -42.5s46.166 -15 71.499 -15c24.667 0 48.334 5 71.001 15s42.334 24.167 59.001 42.5s30 40 40 65s15 52.5 15 82.5s-5 57.5 -15 82.5s-23.333 46.667 -40 65s-36.334 32.5 -59.001 42.5
s-46.334 15 -71.001 15c-25.333 0 -49.166 -5 -71.499 -15s-41.833 -24.167 -58.5 -42.5s-30 -40 -40 -65s-15 -52.5 -15 -82.5zM640 315c0 -45.333 -8.16699 -87.333 -24.5 -126s-38.333 -72.5 -66 -101.5s-60 -51.667 -97 -68s-76.167 -24.5 -117.5 -24.5
s-80.5 8.16699 -117.5 24.5s-69.333 39 -97 68s-49.667 62.833 -66 101.5s-24.5 80.667 -24.5 126c0 44.667 8.16699 86.5 24.5 125.5s38.333 73 66 102s60 51.667 97 68s76.167 24.5 117.5 24.5s80.5 -8.16699 117.5 -24.5s69.333 -39 97 -68s49.667 -63 66 -102
s24.5 -80.833 24.5 -125.5zM310 755c0 -17.333 -6.5 -32.5 -19.5 -45.5s-28.167 -19.5 -45.5 -19.5s-32.5 6.5 -45.5 19.5s-19.5 28.167 -19.5 45.5s6.5 32.5 19.5 45.5s28.167 19.5 45.5 19.5s32.5 -6.5 45.5 -19.5s19.5 -28.167 19.5 -45.5zM490 755
c0 -17.333 -6.5 -32.5 -19.5 -45.5s-28.167 -19.5 -45.5 -19.5s-32.5 6.5 -45.5 19.5s-19.5 28.167 -19.5 45.5s6.5 32.5 19.5 45.5s28.167 19.5 45.5 19.5s32.5 -6.5 45.5 -19.5s19.5 -28.167 19.5 -45.5z" />
    <glyph glyph-name="multiply" unicode="&#xd7;" horiz-adv-x="450" 
d="M400 145l-70 -70l-105 110l-105 -110l-70 70l105 110l-105 110l70 70l105 -110l105 110l70 -70l-105 -110z" />
    <glyph glyph-name="Oslash" unicode="&#xd8;" horiz-adv-x="670" 
d="M75 145c-8.66699 14 -16.333 29.665 -23 46.998c-5.33301 15.333 -10.333 33.333 -15 54s-7 43.667 -7 69c0 44.667 8.16699 86.5 24.5 125.5s38.333 73 66 102s60 51.667 97 68s76.167 24.5 117.5 24.5c28 0 53.167 -3.5 75.5 -10.5s41.833 -14.5 58.5 -22.5
c18.667 -9.33301 35.667 -20 51 -32l60 55l80 -80l-65 -60c8 -14.667 15.333 -30.667 22 -48c5.33301 -15.333 10.5 -33.166 15.5 -53.499s7.5 -43.166 7.5 -68.499c0 -45.333 -8.16699 -87.333 -24.5 -126s-38.333 -72.5 -66 -101.5s-60 -51.667 -97 -68
s-76.167 -24.5 -117.5 -24.5c-28 0 -53.333 3.33301 -76 10s-42 14 -58 22c-19.333 9.33301 -36.333 20.333 -51 33l-60 -55l-80 80zM520.001 314.998c0 12.667 -0.833984 23.833 -2.50098 33.5s-3.5 18.167 -5.5 25.5l-7 21l-270 -255c7.33301 -6 16.333 -11 27 -15
c8.66699 -4 19.167 -7.5 31.5 -10.5s26.166 -4.5 41.499 -4.5c24.667 0 48.334 5 71.001 15s42.334 24.167 59.001 42.5s30 40 40 65s15 52.5 15 82.5zM150 314.997c0 -12.667 0.665039 -23.832 1.99805 -33.499s3 -18.167 5 -25.5c2.66699 -8 5.33398 -15 8.00098 -21
l270 255c-8.66699 5.33301 -18 10.333 -28 15c-9.33301 3.33301 -19.833 6.66602 -31.5 9.99902s-25.167 5 -40.5 5c-25.333 0 -49.166 -5 -71.499 -15s-41.833 -24.167 -58.5 -42.5s-30 -40 -40 -65s-15 -52.5 -15 -82.5z" />
    <glyph glyph-name="Ugrave" unicode="&#xd9;" horiz-adv-x="620" 
d="M310 110c40 0 71.665 11.667 94.998 35s35 55 35 95v390h120v-390c0 -35.333 -6.16699 -67.833 -18.5 -97.5s-29.666 -55.5 -51.999 -77.5s-48.833 -39.167 -79.5 -51.5s-64 -18.5 -100 -18.5s-69.333 6.16699 -100 18.5s-57.167 29.5 -79.5 51.5
s-39.666 47.833 -51.999 77.5s-18.5 62.167 -18.5 97.5v390h120v-390c0 -40 11.667 -71.667 35 -95s55 -35 95 -35zM359.998 700h-85l-90 125h110z" />
    <glyph glyph-name="Uacute" unicode="&#xda;" horiz-adv-x="620" 
d="M310 110c40 0 71.665 11.667 94.998 35s35 55 35 95v390h120v-390c0 -35.333 -6.16699 -67.833 -18.5 -97.5s-29.666 -55.5 -51.999 -77.5s-48.833 -39.167 -79.5 -51.5s-64 -18.5 -100 -18.5s-69.333 6.16699 -100 18.5s-57.167 29.5 -79.5 51.5
s-39.666 47.833 -51.999 77.5s-18.5 62.167 -18.5 97.5v390h120v-390c0 -40 11.667 -71.667 35 -95s55 -35 95 -35zM329.998 825h110l-90 -125h-85z" />
    <glyph glyph-name="Ucircumflex" unicode="&#xdb;" horiz-adv-x="620" 
d="M310 110c40 0 71.665 11.667 94.998 35s35 55 35 95v390h120v-390c0 -35.333 -6.16699 -67.833 -18.5 -97.5s-29.666 -55.5 -51.999 -77.5s-48.833 -39.167 -79.5 -51.5s-64 -18.5 -100 -18.5s-69.333 6.16699 -100 18.5s-57.167 29.5 -79.5 51.5
s-39.666 47.833 -51.999 77.5s-18.5 62.167 -18.5 97.5v390h120v-390c0 -40 11.667 -71.667 35 -95s55 -35 95 -35zM454.998 700h-95l-50 65l-50 -65h-95l95 125h100z" />
    <glyph glyph-name="Udieresis" unicode="&#xdc;" horiz-adv-x="620" 
d="M310 110c40 0 71.665 11.667 94.998 35s35 55 35 95v390h120v-390c0 -35.333 -6.16699 -67.833 -18.5 -97.5s-29.666 -55.5 -51.999 -77.5s-48.833 -39.167 -79.5 -51.5s-64 -18.5 -100 -18.5s-69.333 6.16699 -100 18.5s-57.167 29.5 -79.5 51.5
s-39.666 47.833 -51.999 77.5s-18.5 62.167 -18.5 97.5v390h120v-390c0 -40 11.667 -71.667 35 -95s55 -35 95 -35zM284.998 755c0 -17.333 -6.5 -32.5 -19.5 -45.5s-28.167 -19.5 -45.5 -19.5s-32.5 6.5 -45.5 19.5s-19.5 28.167 -19.5 45.5s6.5 32.5 19.5 45.5
s28.167 19.5 45.5 19.5s32.5 -6.5 45.5 -19.5s19.5 -28.167 19.5 -45.5zM464.998 755c0 -17.333 -6.5 -32.5 -19.5 -45.5s-28.167 -19.5 -45.5 -19.5s-32.5 6.5 -45.5 19.5s-19.5 28.167 -19.5 45.5s6.5 32.5 19.5 45.5s28.167 19.5 45.5 19.5s32.5 -6.5 45.5 -19.5
s19.5 -28.167 19.5 -45.5z" />
    <glyph glyph-name="Yacute" unicode="&#xdd;" horiz-adv-x="550" 
d="M415 630h130l-210 -390v-240h-120v240l-210 390h130l140 -270zM300 825h110l-90 -125h-85z" />
    <glyph glyph-name="Thorn" unicode="&#xde;" horiz-adv-x="600" 
d="M185 530h170c30 0 58 -5.5 84 -16.5s48.833 -25.833 68.5 -44.5s35 -40.5 46 -65.5s16.5 -51.167 16.5 -78.5s-5.5 -53.5 -16.5 -78.5s-26.333 -46.833 -46 -65.5s-42.5 -33.5 -68.5 -44.5s-54 -16.5 -84 -16.5h-170v-120h-120v630h120v-100zM355 235
c12.667 0 24.667 2.66699 36 8s21.333 12.166 30 20.499s15.667 17.833 21 28.5s8 21.667 8 33s-2.66699 22.333 -8 33s-12.333 20.334 -21 29.001s-18.667 15.5 -30 20.5s-23.333 7.5 -36 7.5h-170v-180h170z" />
    <glyph glyph-name="germandbls" unicode="&#xdf;" horiz-adv-x="530" 
d="M395 340c19.333 -9.33301 36.665 -21.6709 51.998 -37.0039c13.333 -13.333 25.5 -30 36.5 -50s16.5 -44.333 16.5 -73c0 -25.333 -4.66699 -48.833 -14 -70.5s-22.5 -40.667 -39.5 -57s-37.167 -29.166 -60.5 -38.499s-48.666 -14 -75.999 -14h-55v105h50
c25.333 0 45 7 59 21s21 33.667 21 59s-7 45 -21 59s-33.667 21 -59 21h-50v105c25.333 0 45.833 7.66699 61.5 23s23.5 34.333 23.5 57s-7.83301 41.667 -23.5 57s-36.167 23 -61.5 23c-22.667 0 -41.667 -7.66699 -57 -23s-23 -34.333 -23 -57v-450h-115v450
c0 24.667 5 48.334 15 71.001s23.667 42.334 41 59.001s38 30 62 40s49.667 15 77 15c30 0 57.333 -4.66699 82 -14s45.667 -22 63 -38s30.833 -34.5 40.5 -55.5s14.5 -43.5 14.5 -67.5c0 -19.333 -3.16699 -36.166 -9.5 -50.499s-13.166 -26.833 -20.499 -37.5
c-8.66699 -12 -18.667 -22.667 -30 -32z" />
    <glyph glyph-name="agrave" unicode="&#xe0;" horiz-adv-x="475" 
d="M245 465c26 0 50 -4.50293 72 -13.5029s41 -21.5 57 -37.5s28.5 -35 37.5 -57s13.5 -46 13.5 -72v-285h-85l-20 45c-10.667 -9.33301 -22.334 -17.666 -35.001 -24.999c-11.333 -6.66699 -25 -12.5 -41 -17.5s-34 -7.5 -54 -7.5c-50 0 -88.333 12.167 -115 36.5
s-40 55.5 -40 93.5c0 22.667 4.5 43.5 13.5 62.5s24.167 35.333 45.5 49s49.5 24.334 84.5 32.001s78.833 11.5 131.5 11.5c0 25.333 -6.83301 45 -20.5 59s-31.834 21 -54.501 21c-15.333 0 -27.5 -2.66699 -36.5 -8s-16.167 -11 -21.5 -17
c-6 -7.33301 -10 -15.666 -12 -24.999h-115c2.66699 21.333 8.83398 41.333 18.501 60s22.834 35 39.501 49s36.5 25.167 59.5 33.5s48.833 12.5 77.5 12.5zM210 84.9971c30 0 54.1689 8.83301 72.502 26.5s27.5 40.5 27.5 68.5v20c-34 0 -61.333 -1.5 -82 -4.5
s-36.834 -7.33301 -48.501 -13s-19.5 -12.5 -23.5 -20.5s-6 -17 -6 -27c0 -12.667 5.66699 -24.167 17 -34.5s25.666 -15.5 42.999 -15.5zM295.002 519.997h-85l-90 125h110z" />
    <glyph glyph-name="aacute" unicode="&#xe1;" horiz-adv-x="475" 
d="M245 465c26 0 50 -4.50293 72 -13.5029s41 -21.5 57 -37.5s28.5 -35 37.5 -57s13.5 -46 13.5 -72v-285h-85l-20 45c-10.667 -9.33301 -22.334 -17.666 -35.001 -24.999c-11.333 -6.66699 -25 -12.5 -41 -17.5s-34 -7.5 -54 -7.5c-50 0 -88.333 12.167 -115 36.5
s-40 55.5 -40 93.5c0 22.667 4.5 43.5 13.5 62.5s24.167 35.333 45.5 49s49.5 24.334 84.5 32.001s78.833 11.5 131.5 11.5c0 25.333 -6.83301 45 -20.5 59s-31.834 21 -54.501 21c-15.333 0 -27.5 -2.66699 -36.5 -8s-16.167 -11 -21.5 -17
c-6 -7.33301 -10 -15.666 -12 -24.999h-115c2.66699 21.333 8.83398 41.333 18.501 60s22.834 35 39.501 49s36.5 25.167 59.5 33.5s48.833 12.5 77.5 12.5zM210 84.9971c30 0 54.1689 8.83301 72.502 26.5s27.5 40.5 27.5 68.5v20c-34 0 -61.333 -1.5 -82 -4.5
s-36.834 -7.33301 -48.501 -13s-19.5 -12.5 -23.5 -20.5s-6 -17 -6 -27c0 -12.667 5.66699 -24.167 17 -34.5s25.666 -15.5 42.999 -15.5zM265.002 644.997h110l-90 -125h-85z" />
    <glyph glyph-name="acircumflex" unicode="&#xe2;" horiz-adv-x="475" 
d="M245 465c26 0 50 -4.50293 72 -13.5029s41 -21.5 57 -37.5s28.5 -35 37.5 -57s13.5 -46 13.5 -72v-285h-85l-20 45c-10.667 -9.33301 -22.334 -17.666 -35.001 -24.999c-11.333 -6.66699 -25 -12.5 -41 -17.5s-34 -7.5 -54 -7.5c-50 0 -88.333 12.167 -115 36.5
s-40 55.5 -40 93.5c0 22.667 4.5 43.5 13.5 62.5s24.167 35.333 45.5 49s49.5 24.334 84.5 32.001s78.833 11.5 131.5 11.5c0 25.333 -6.83301 45 -20.5 59s-31.834 21 -54.501 21c-15.333 0 -27.5 -2.66699 -36.5 -8s-16.167 -11 -21.5 -17
c-6 -7.33301 -10 -15.666 -12 -24.999h-115c2.66699 21.333 8.83398 41.333 18.501 60s22.834 35 39.501 49s36.5 25.167 59.5 33.5s48.833 12.5 77.5 12.5zM210 84.9971c30 0 54.1689 8.83301 72.502 26.5s27.5 40.5 27.5 68.5v20c-34 0 -61.333 -1.5 -82 -4.5
s-36.834 -7.33301 -48.501 -13s-19.5 -12.5 -23.5 -20.5s-6 -17 -6 -27c0 -12.667 5.66699 -24.167 17 -34.5s25.666 -15.5 42.999 -15.5zM395.002 519.997h-95l-50 65l-50 -65h-95l95 125h100z" />
    <glyph glyph-name="atilde" unicode="&#xe3;" horiz-adv-x="475" 
d="M245 465c26 0 50 -4.50293 72 -13.5029s41 -21.5 57 -37.5s28.5 -35 37.5 -57s13.5 -46 13.5 -72v-285h-85l-20 45c-10.667 -9.33301 -22.334 -17.666 -35.001 -24.999c-11.333 -6.66699 -25 -12.5 -41 -17.5s-34 -7.5 -54 -7.5c-50 0 -88.333 12.167 -115 36.5
s-40 55.5 -40 93.5c0 22.667 4.5 43.5 13.5 62.5s24.167 35.333 45.5 49s49.5 24.334 84.5 32.001s78.833 11.5 131.5 11.5c0 25.333 -6.83301 45 -20.5 59s-31.834 21 -54.501 21c-15.333 0 -27.5 -2.66699 -36.5 -8s-16.167 -11 -21.5 -17
c-6 -7.33301 -10 -15.666 -12 -24.999h-115c2.66699 21.333 8.83398 41.333 18.501 60s22.834 35 39.501 49s36.5 25.167 59.5 33.5s48.833 12.5 77.5 12.5zM210 84.9971c30 0 54.1689 8.83301 72.502 26.5s27.5 40.5 27.5 68.5v20c-34 0 -61.333 -1.5 -82 -4.5
s-36.834 -7.33301 -48.501 -13s-19.5 -12.5 -23.5 -20.5s-6 -17 -6 -27c0 -12.667 5.66699 -24.167 17 -34.5s25.666 -15.5 42.999 -15.5zM310.002 509.997c-15.333 0 -28.332 2.83301 -38.999 8.5s-20.334 12 -29.001 19l-23 19c-6.66699 5.66699 -13 8.5 -19 8.5
c-10 0 -19.167 -4.5 -27.5 -13.5s-12.5 -21.167 -12.5 -36.5h-60c0 42.667 8.66699 74.167 26 94.5s38.666 30.5 63.999 30.5c14.667 0 27.5 -2.83301 38.5 -8.5s20.833 -12 29.5 -19l23 -19c6.66699 -5.66699 13 -8.5 19 -8.5c10 0 19.167 4.5 27.5 13.5
s12.5 21.167 12.5 36.5h60c0 -42.667 -8.66699 -74.167 -26 -94.5s-38.666 -30.5 -63.999 -30.5z" />
    <glyph glyph-name="adieresis" unicode="&#xe4;" horiz-adv-x="475" 
d="M245 465c26 0 50 -4.50293 72 -13.5029s41 -21.5 57 -37.5s28.5 -35 37.5 -57s13.5 -46 13.5 -72v-285h-85l-20 45c-10.667 -9.33301 -22.334 -17.666 -35.001 -24.999c-11.333 -6.66699 -25 -12.5 -41 -17.5s-34 -7.5 -54 -7.5c-50 0 -88.333 12.167 -115 36.5
s-40 55.5 -40 93.5c0 22.667 4.5 43.5 13.5 62.5s24.167 35.333 45.5 49s49.5 24.334 84.5 32.001s78.833 11.5 131.5 11.5c0 25.333 -6.83301 45 -20.5 59s-31.834 21 -54.501 21c-15.333 0 -27.5 -2.66699 -36.5 -8s-16.167 -11 -21.5 -17
c-6 -7.33301 -10 -15.666 -12 -24.999h-115c2.66699 21.333 8.83398 41.333 18.501 60s22.834 35 39.501 49s36.5 25.167 59.5 33.5s48.833 12.5 77.5 12.5zM210 84.9971c30 0 54.1689 8.83301 72.502 26.5s27.5 40.5 27.5 68.5v20c-34 0 -61.333 -1.5 -82 -4.5
s-36.834 -7.33301 -48.501 -13s-19.5 -12.5 -23.5 -20.5s-6 -17 -6 -27c0 -12.667 5.66699 -24.167 17 -34.5s25.666 -15.5 42.999 -15.5zM225.002 574.997c0 -17.333 -6.5 -32.5 -19.5 -45.5s-28.167 -19.5 -45.5 -19.5s-32.5 6.5 -45.5 19.5s-19.5 28.167 -19.5 45.5
s6.5 32.5 19.5 45.5s28.167 19.5 45.5 19.5s32.5 -6.5 45.5 -19.5s19.5 -28.167 19.5 -45.5zM405.002 574.997c0 -17.333 -6.5 -32.5 -19.5 -45.5s-28.167 -19.5 -45.5 -19.5s-32.5 6.5 -45.5 19.5s-19.5 28.167 -19.5 45.5s6.5 32.5 19.5 45.5s28.167 19.5 45.5 19.5
s32.5 -6.5 45.5 -19.5s19.5 -28.167 19.5 -45.5z" />
    <glyph glyph-name="aring" unicode="&#xe5;" horiz-adv-x="475" 
d="M245 465c26 0 50 -4.50293 72 -13.5029s41 -21.5 57 -37.5s28.5 -35 37.5 -57s13.5 -46 13.5 -72v-285h-85l-20 45c-10.667 -9.33301 -22.334 -17.666 -35.001 -24.999c-11.333 -6.66699 -25 -12.5 -41 -17.5s-34 -7.5 -54 -7.5c-50 0 -88.333 12.167 -115 36.5
s-40 55.5 -40 93.5c0 22.667 4.5 43.5 13.5 62.5s24.167 35.333 45.5 49s49.5 24.334 84.5 32.001s78.833 11.5 131.5 11.5c0 25.333 -6.83301 45 -20.5 59s-31.834 21 -54.501 21c-15.333 0 -27.5 -2.66699 -36.5 -8s-16.167 -11 -21.5 -17
c-6 -7.33301 -10 -15.666 -12 -24.999h-115c2.66699 21.333 8.83398 41.333 18.501 60s22.834 35 39.501 49s36.5 25.167 59.5 33.5s48.833 12.5 77.5 12.5zM210 84.9971c30 0 54.1689 8.83301 72.502 26.5s27.5 40.5 27.5 68.5v20c-34 0 -61.333 -1.5 -82 -4.5
s-36.834 -7.33301 -48.501 -13s-19.5 -12.5 -23.5 -20.5s-6 -17 -6 -27c0 -12.667 5.66699 -24.167 17 -34.5s25.666 -15.5 42.999 -15.5zM280.002 594.997c0 10 -3.33301 18.333 -10 25s-15 10 -25 10s-18.333 -3.33301 -25 -10s-10 -15 -10 -25s3.33301 -18.333 10 -25
s15 -10 25 -10s18.333 3.33301 25 10s10 15 10 25zM340.002 594.997c0 -25.333 -8.83301 -46.666 -26.5 -63.999s-40.5 -26 -68.5 -26s-50.833 8.66699 -68.5 26s-26.5 38.666 -26.5 63.999s8.83301 46.666 26.5 63.999s40.5 26 68.5 26s50.833 -8.66699 68.5 -26
s26.5 -38.666 26.5 -63.999z" />
    <glyph glyph-name="ae" unicode="&#xe6;" horiz-adv-x="775" 
d="M730 140c-6 -18.667 -14.999 -36.6689 -26.999 -54.002s-26.333 -32.833 -43 -46.5s-36 -24.5 -58 -32.5s-46 -12 -72 -12c-25.333 0 -47.333 3.33301 -66 10s-34.334 14 -47.001 22c-14.667 9.33301 -27 20.333 -37 33c-12 -12.667 -26.333 -23.667 -43 -33
c-14 -8 -31.333 -15.333 -52 -22s-44 -10 -70 -10c-30 0 -56.333 3.5 -79 10.5s-41.5 16.5 -56.5 28.5s-26.167 25.833 -33.5 41.5s-11 32.167 -11 49.5c0 22.667 4.5 43.5 13.5 62.5s24.167 35.333 45.5 49s49.5 24.334 84.5 32.001s78.833 11.5 131.5 11.5
c0 25.333 -6.83301 45 -20.5 59s-31.834 21 -54.501 21c-15.333 0 -27.5 -2.66699 -36.5 -8s-16.167 -11 -21.5 -17c-6 -7.33301 -10 -15.666 -12 -24.999h-115c2.66699 21.333 8.83398 41.333 18.501 60s22.834 35 39.501 49s36.5 25.167 59.5 33.5s48.833 12.5 77.5 12.5
c22.667 0 42.667 -3.16699 60 -9.5s32 -13.166 44 -20.499c14 -8.66699 26 -18.667 36 -30c10.667 11.333 23 21.333 37 30c12 7.33301 27 14.166 45 20.499s39 9.5 63 9.5c30 0 58 -5.83301 84 -17.5s48.833 -28 68.5 -49s35 -45.833 46 -74.5s16.5 -60 16.5 -94
c0 -5.33301 -0.333008 -10.5 -1 -15.5l-2 -14.5c-0.666992 -5.33301 -1.33398 -10.333 -2.00098 -15h-315c5.33301 -22.667 16.666 -41.667 33.999 -57s41 -23 71 -23c15.333 0 27.833 1.66699 37.5 5s17.834 7.33301 24.501 12c7.33301 5.33301 13.333 11.333 18 18h120z
M530.001 359.998c-28 0 -51.1689 -8.66699 -69.502 -26s-30.166 -38.666 -35.499 -63.999h210c-5.33301 25.333 -17.166 46.666 -35.499 63.999s-41.5 26 -69.5 26zM209.999 84.998c30 0 54.1689 8.83301 72.502 26.5s27.5 40.5 27.5 68.5v20c-34 0 -61.333 -1.5 -82 -4.5
s-36.834 -7.33301 -48.501 -13s-19.5 -12.5 -23.5 -20.5s-6 -17 -6 -27c0 -12.667 5.66699 -24.167 17 -34.5s25.666 -15.5 42.999 -15.5z" />
    <glyph glyph-name="ccedilla" unicode="&#xe7;" horiz-adv-x="500" 
d="M475 170c-4 -20 -11.5 -39.665 -22.5 -58.998s-24.667 -37 -41 -53s-34.5 -29.5 -54.5 -40.5s-40.667 -18.5 -62 -22.5l-20 -35c13.333 -2 25.666 -6.33301 36.999 -13c9.33301 -5.33301 18 -13 26 -23s12 -23 12 -39c0 -20 -8 -37.5 -24 -52.5s-43 -22.5 -81 -22.5
c-14.667 0 -27.667 1.66699 -39 5c-6 1.33301 -11.333 3 -16 5v45c3.33301 -1.33301 7.33301 -2.33301 12 -3c3.33301 -0.666992 7.5 -1.16699 12.5 -1.5s10.167 -0.5 15.5 -0.5c16 0 28.333 2.83301 37 8.5s13 12.834 13 21.501c0 7.33301 -4 14.166 -12 20.499
s-20.667 9.5 -38 9.5c-5.33301 0 -10.666 -0.833008 -15.999 -2.5s-8.33301 -2.5 -9 -2.5l35 80c-28.667 4 -55.834 12.5 -81.501 25.5s-48 29.833 -67 50.5s-34 44.5 -45 71.5s-16.5 56.167 -16.5 87.5c0 32.667 6.16699 63.167 18.5 91.5s29 53.166 50 74.499
s45.333 38.166 73 50.499s57.167 18.5 88.5 18.5c27.333 0 53 -4.83301 77 -14.5s45.333 -22.667 64 -39s34.334 -35 47.001 -56s21.667 -42.833 27 -65.5h-115c-5.33301 12 -12.666 22.667 -21.999 32c-8 8 -18.333 15.5 -31 22.5s-28.334 10.5 -47.001 10.5
c-32.667 0 -60 -11.333 -82 -34s-33 -53 -33 -91s11 -68.333 33 -91s49.333 -34 82 -34c18.667 0 34.334 3.33301 47.001 10s23 14 31 22c9.33301 9.33301 16.666 20.333 21.999 33h115z" />
    <glyph glyph-name="egrave" unicode="&#xe8;" 
d="M465 140c-6 -17.333 -15.1631 -34.6621 -27.4961 -51.9951s-27.333 -32.833 -45 -46.5s-37.667 -24.834 -60 -33.501s-46.5 -13 -72.5 -13c-31.333 0 -60.833 6.16699 -88.5 18.5s-52 29.166 -73 50.499s-37.667 46.166 -50 74.499s-18.5 58.833 -18.5 91.5
s6.16699 63.167 18.5 91.5s29 53.166 50 74.499s45.333 38.166 73 50.499s57.167 18.5 88.5 18.5c30 0 58.333 -5.66699 85 -17s50 -27.333 70 -48s35.833 -45.5 47.5 -74.5s17.5 -60.833 17.5 -95.5c0 -5.33301 -0.333008 -10.5 -1 -15.5l-2 -14.5
c-0.666992 -5.33301 -1.33398 -10.333 -2.00098 -15h-320c5.33301 -22.667 16.666 -41.667 33.999 -57s41 -23 71 -23c15.333 0 28.166 1.66699 38.499 5s19.166 7.33301 26.499 12c8 5.33301 14.667 11.333 20 18h120zM260.004 355.004c-30 0 -54.5 -8.66699 -73.5 -26
s-31.167 -38.666 -36.5 -63.999h220c-5.33301 25.333 -17.5 46.666 -36.5 63.999s-43.5 26 -73.5 26zM305.004 520.004h-85l-90 125h110z" />
    <glyph glyph-name="eacute" unicode="&#xe9;" 
d="M465 140c-6 -17.333 -15.1631 -34.6621 -27.4961 -51.9951s-27.333 -32.833 -45 -46.5s-37.667 -24.834 -60 -33.501s-46.5 -13 -72.5 -13c-31.333 0 -60.833 6.16699 -88.5 18.5s-52 29.166 -73 50.499s-37.667 46.166 -50 74.499s-18.5 58.833 -18.5 91.5
s6.16699 63.167 18.5 91.5s29 53.166 50 74.499s45.333 38.166 73 50.499s57.167 18.5 88.5 18.5c30 0 58.333 -5.66699 85 -17s50 -27.333 70 -48s35.833 -45.5 47.5 -74.5s17.5 -60.833 17.5 -95.5c0 -5.33301 -0.333008 -10.5 -1 -15.5l-2 -14.5
c-0.666992 -5.33301 -1.33398 -10.333 -2.00098 -15h-320c5.33301 -22.667 16.666 -41.667 33.999 -57s41 -23 71 -23c15.333 0 28.166 1.66699 38.499 5s19.166 7.33301 26.499 12c8 5.33301 14.667 11.333 20 18h120zM260.004 355.004c-30 0 -54.5 -8.66699 -73.5 -26
s-31.167 -38.666 -36.5 -63.999h220c-5.33301 25.333 -17.5 46.666 -36.5 63.999s-43.5 26 -73.5 26zM275.004 645.004h110l-90 -125h-85z" />
    <glyph glyph-name="ecircumflex" unicode="&#xea;" 
d="M465 140c-6 -17.333 -15.1631 -34.6621 -27.4961 -51.9951s-27.333 -32.833 -45 -46.5s-37.667 -24.834 -60 -33.501s-46.5 -13 -72.5 -13c-31.333 0 -60.833 6.16699 -88.5 18.5s-52 29.166 -73 50.499s-37.667 46.166 -50 74.499s-18.5 58.833 -18.5 91.5
s6.16699 63.167 18.5 91.5s29 53.166 50 74.499s45.333 38.166 73 50.499s57.167 18.5 88.5 18.5c30 0 58.333 -5.66699 85 -17s50 -27.333 70 -48s35.833 -45.5 47.5 -74.5s17.5 -60.833 17.5 -95.5c0 -5.33301 -0.333008 -10.5 -1 -15.5l-2 -14.5
c-0.666992 -5.33301 -1.33398 -10.333 -2.00098 -15h-320c5.33301 -22.667 16.666 -41.667 33.999 -57s41 -23 71 -23c15.333 0 28.166 1.66699 38.499 5s19.166 7.33301 26.499 12c8 5.33301 14.667 11.333 20 18h120zM260.004 355.004c-30 0 -54.5 -8.66699 -73.5 -26
s-31.167 -38.666 -36.5 -63.999h220c-5.33301 25.333 -17.5 46.666 -36.5 63.999s-43.5 26 -73.5 26zM405.004 520.004h-95l-50 65l-50 -65h-95l95 125h100z" />
    <glyph glyph-name="edieresis" unicode="&#xeb;" 
d="M465 140c-6 -17.333 -15.1631 -34.6621 -27.4961 -51.9951s-27.333 -32.833 -45 -46.5s-37.667 -24.834 -60 -33.501s-46.5 -13 -72.5 -13c-31.333 0 -60.833 6.16699 -88.5 18.5s-52 29.166 -73 50.499s-37.667 46.166 -50 74.499s-18.5 58.833 -18.5 91.5
s6.16699 63.167 18.5 91.5s29 53.166 50 74.499s45.333 38.166 73 50.499s57.167 18.5 88.5 18.5c30 0 58.333 -5.66699 85 -17s50 -27.333 70 -48s35.833 -45.5 47.5 -74.5s17.5 -60.833 17.5 -95.5c0 -5.33301 -0.333008 -10.5 -1 -15.5l-2 -14.5
c-0.666992 -5.33301 -1.33398 -10.333 -2.00098 -15h-320c5.33301 -22.667 16.666 -41.667 33.999 -57s41 -23 71 -23c15.333 0 28.166 1.66699 38.499 5s19.166 7.33301 26.499 12c8 5.33301 14.667 11.333 20 18h120zM260.004 355.004c-30 0 -54.5 -8.66699 -73.5 -26
s-31.167 -38.666 -36.5 -63.999h220c-5.33301 25.333 -17.5 46.666 -36.5 63.999s-43.5 26 -73.5 26zM240.004 575.004c0 -17.333 -6.5 -32.5 -19.5 -45.5s-28.167 -19.5 -45.5 -19.5s-32.5 6.5 -45.5 19.5s-19.5 28.167 -19.5 45.5s6.5 32.5 19.5 45.5
s28.167 19.5 45.5 19.5s32.5 -6.5 45.5 -19.5s19.5 -28.167 19.5 -45.5zM420.004 575.004c0 -17.333 -6.5 -32.5 -19.5 -45.5s-28.167 -19.5 -45.5 -19.5s-32.5 6.5 -45.5 19.5s-19.5 28.167 -19.5 45.5s6.5 32.5 19.5 45.5s28.167 19.5 45.5 19.5s32.5 -6.5 45.5 -19.5
s19.5 -28.167 19.5 -45.5z" />
    <glyph glyph-name="igrave" unicode="&#xec;" horiz-adv-x="225" 
d="M155 515h-85l-90 125h110zM170 0h-115v460h115v-460z" />
    <glyph glyph-name="iacute" unicode="&#xed;" horiz-adv-x="225" 
d="M135 640h110l-90 -125h-85zM170 0h-115v460h115v-460z" />
    <glyph glyph-name="icircumflex" unicode="&#xee;" horiz-adv-x="225" 
d="M170 0h-115v460h115v-460zM255 520h-95l-50 65l-50 -65h-95l95 125h100z" />
    <glyph glyph-name="idieresis" unicode="&#xef;" horiz-adv-x="225" 
d="M90 575c0 -17.333 -6.5 -32.5 -19.5 -45.5s-28.167 -19.5 -45.5 -19.5s-32.5 6.5 -45.5 19.5s-19.5 28.167 -19.5 45.5s6.5 32.5 19.5 45.5s28.167 19.5 45.5 19.5s32.5 -6.5 45.5 -19.5s19.5 -28.167 19.5 -45.5zM270 575c0 -17.333 -6.5 -32.5 -19.5 -45.5
s-28.167 -19.5 -45.5 -19.5s-32.5 6.5 -45.5 19.5s-19.5 28.167 -19.5 45.5s6.5 32.5 19.5 45.5s28.167 19.5 45.5 19.5s32.5 -6.5 45.5 -19.5s19.5 -28.167 19.5 -45.5zM170 0h-115v460h115v-460z" />
    <glyph glyph-name="eth" unicode="&#xf0;" horiz-adv-x="530" 
d="M375 585c22.667 -24 42.6719 -52.001 60.0049 -84.001c15.333 -28 29.166 -62 41.499 -102s18.5 -86.333 18.5 -139c0 -41.333 -5.83301 -78.333 -17.5 -111s-28 -60.5 -49 -83.5s-45.833 -40.5 -74.5 -52.5s-60 -18 -94 -18c-32.667 0 -63 5.83301 -91 17.5
s-52.333 27.834 -73 48.501s-36.834 44.667 -48.501 72s-17.5 57 -17.5 89c0 30.667 5.83301 59.5 17.5 86.5s27.5 50.667 47.5 71s43.333 36.333 70 48s55 17.5 85 17.5c21.333 0 39.666 -2.83301 54.999 -8.5s28.333 -12.167 39 -19.5c12 -8 22.333 -17 31 -27
c-5.33301 21.333 -12.5 40.333 -21.5 57s-17.833 30.667 -26.5 42c-10.667 13.333 -21.334 25.333 -32.001 36l-80 -55l-45 65l55 40c-6.66699 4 -14.667 7.66699 -24 11c-8 3.33301 -17.667 6.66602 -29 9.99902s-23.666 6.33301 -36.999 9l30 85c20 -4 38.667 -9 56 -15
s32.666 -12 45.999 -18c15.333 -7.33301 29.666 -14.666 42.999 -21.999l80 55l45 -65zM145.005 219.999c0 -16 3 -31 9 -45s14.167 -26.167 24.5 -36.5s22.5 -18.5 36.5 -24.5s29 -9 45 -9s31 3 45 9s26.167 14.167 36.5 24.5s18.5 22.5 24.5 36.5s9 29 9 45s-3 31 -9 45
s-14.167 26.167 -24.5 36.5s-22.5 18.5 -36.5 24.5s-29 9 -45 9s-31 -3 -45 -9s-26.167 -14.167 -36.5 -24.5s-18.5 -22.5 -24.5 -36.5s-9 -29 -9 -45z" />
    <glyph glyph-name="ntilde" unicode="&#xf1;" horiz-adv-x="525" 
d="M290 465c27.333 0 52.334 -4.49902 75.001 -13.499s42.167 -22 58.5 -39s29 -37.5 38 -61.5s13.5 -51 13.5 -81v-270h-115v255c0 30 -8.83301 54.167 -26.5 72.5s-40.5 27.5 -68.5 27.5s-50.833 -9.16699 -68.5 -27.5s-26.5 -42.5 -26.5 -72.5v-255h-115v460h85l20 -45
c11.333 9.33301 23.666 17.666 36.999 24.999c11.333 6 24.833 11.667 40.5 17s33.167 8 52.5 8zM325.001 515.001c-15.333 0 -28.332 2.83301 -38.999 8.5s-20.334 12 -29.001 19l-23 19c-6.66699 5.66699 -13 8.5 -19 8.5c-10 0 -19.167 -4.5 -27.5 -13.5
s-12.5 -21.167 -12.5 -36.5h-60c0 42.667 8.66699 74.167 26 94.5s38.666 30.5 63.999 30.5c14.667 0 27.5 -2.83301 38.5 -8.5s20.833 -12 29.5 -19l23 -19c6.66699 -5.66699 13 -8.5 19 -8.5c10 0 19.167 4.5 27.5 13.5s12.5 21.167 12.5 36.5h60
c0 -42.667 -8.66699 -74.167 -26 -94.5s-38.666 -30.5 -63.999 -30.5z" />
    <glyph glyph-name="ograve" unicode="&#xf2;" horiz-adv-x="520" 
d="M145 230c0 -38 11 -68.333 33 -91s49.333 -34 82 -34s60 11.333 82 34s33 53 33 91s-11 68.333 -33 91s-49.333 34 -82 34s-60 -11.333 -82 -34s-33 -53 -33 -91zM490 230c0 -32.667 -6.16699 -63.167 -18.5 -91.5s-29 -53.166 -50 -74.499s-45.333 -38.166 -73 -50.499
s-57.167 -18.5 -88.5 -18.5s-60.833 6.16699 -88.5 18.5s-52 29.166 -73 50.499s-37.667 46.166 -50 74.499s-18.5 58.833 -18.5 91.5s6.16699 63.167 18.5 91.5s29 53.166 50 74.499s45.333 38.166 73 50.499s57.167 18.5 88.5 18.5s60.833 -6.16699 88.5 -18.5
s52 -29.166 73 -50.499s37.667 -46.166 50 -74.499s18.5 -58.833 18.5 -91.5zM310 515h-85l-90 125h110z" />
    <glyph glyph-name="oacute" unicode="&#xf3;" horiz-adv-x="520" 
d="M145 230c0 -38 11 -68.333 33 -91s49.333 -34 82 -34s60 11.333 82 34s33 53 33 91s-11 68.333 -33 91s-49.333 34 -82 34s-60 -11.333 -82 -34s-33 -53 -33 -91zM490 230c0 -32.667 -6.16699 -63.167 -18.5 -91.5s-29 -53.166 -50 -74.499s-45.333 -38.166 -73 -50.499
s-57.167 -18.5 -88.5 -18.5s-60.833 6.16699 -88.5 18.5s-52 29.166 -73 50.499s-37.667 46.166 -50 74.499s-18.5 58.833 -18.5 91.5s6.16699 63.167 18.5 91.5s29 53.166 50 74.499s45.333 38.166 73 50.499s57.167 18.5 88.5 18.5s60.833 -6.16699 88.5 -18.5
s52 -29.166 73 -50.499s37.667 -46.166 50 -74.499s18.5 -58.833 18.5 -91.5zM285 640h110l-90 -125h-85z" />
    <glyph glyph-name="ocircumflex" unicode="&#xf4;" horiz-adv-x="520" 
d="M145 230c0 -38 11 -68.333 33 -91s49.333 -34 82 -34s60 11.333 82 34s33 53 33 91s-11 68.333 -33 91s-49.333 34 -82 34s-60 -11.333 -82 -34s-33 -53 -33 -91zM490 230c0 -32.667 -6.16699 -63.167 -18.5 -91.5s-29 -53.166 -50 -74.499s-45.333 -38.166 -73 -50.499
s-57.167 -18.5 -88.5 -18.5s-60.833 6.16699 -88.5 18.5s-52 29.166 -73 50.499s-37.667 46.166 -50 74.499s-18.5 58.833 -18.5 91.5s6.16699 63.167 18.5 91.5s29 53.166 50 74.499s45.333 38.166 73 50.499s57.167 18.5 88.5 18.5s60.833 -6.16699 88.5 -18.5
s52 -29.166 73 -50.499s37.667 -46.166 50 -74.499s18.5 -58.833 18.5 -91.5zM405 520h-95l-50 65l-50 -65h-95l95 125h100z" />
    <glyph glyph-name="otilde" unicode="&#xf5;" horiz-adv-x="520" 
d="M145 230c0 -38 11 -68.333 33 -91s49.333 -34 82 -34s60 11.333 82 34s33 53 33 91s-11 68.333 -33 91s-49.333 34 -82 34s-60 -11.333 -82 -34s-33 -53 -33 -91zM490 230c0 -32.667 -6.16699 -63.167 -18.5 -91.5s-29 -53.166 -50 -74.499s-45.333 -38.166 -73 -50.499
s-57.167 -18.5 -88.5 -18.5s-60.833 6.16699 -88.5 18.5s-52 29.166 -73 50.499s-37.667 46.166 -50 74.499s-18.5 58.833 -18.5 91.5s6.16699 63.167 18.5 91.5s29 53.166 50 74.499s45.333 38.166 73 50.499s57.167 18.5 88.5 18.5s60.833 -6.16699 88.5 -18.5
s52 -29.166 73 -50.499s37.667 -46.166 50 -74.499s18.5 -58.833 18.5 -91.5zM320 510c-15.333 0 -28.332 2.83301 -38.999 8.5s-20.334 12 -29.001 19l-23 19c-6.66699 5.66699 -13 8.5 -19 8.5c-10 0 -19.167 -4.5 -27.5 -13.5s-12.5 -21.167 -12.5 -36.5h-60
c0 42.667 8.66699 74.167 26 94.5s38.666 30.5 63.999 30.5c14.667 0 27.5 -2.83301 38.5 -8.5s20.833 -12 29.5 -19l23 -19c6.66699 -5.66699 13 -8.5 19 -8.5c10 0 19.167 4.5 27.5 13.5s12.5 21.167 12.5 36.5h60c0 -42.667 -8.66699 -74.167 -26 -94.5
s-38.666 -30.5 -63.999 -30.5z" />
    <glyph glyph-name="odieresis" unicode="&#xf6;" horiz-adv-x="520" 
d="M145 230c0 -38 11 -68.333 33 -91s49.333 -34 82 -34s60 11.333 82 34s33 53 33 91s-11 68.333 -33 91s-49.333 34 -82 34s-60 -11.333 -82 -34s-33 -53 -33 -91zM490 230c0 -32.667 -6.16699 -63.167 -18.5 -91.5s-29 -53.166 -50 -74.499s-45.333 -38.166 -73 -50.499
s-57.167 -18.5 -88.5 -18.5s-60.833 6.16699 -88.5 18.5s-52 29.166 -73 50.499s-37.667 46.166 -50 74.499s-18.5 58.833 -18.5 91.5s6.16699 63.167 18.5 91.5s29 53.166 50 74.499s45.333 38.166 73 50.499s57.167 18.5 88.5 18.5s60.833 -6.16699 88.5 -18.5
s52 -29.166 73 -50.499s37.667 -46.166 50 -74.499s18.5 -58.833 18.5 -91.5zM235 575c0 -17.333 -6.5 -32.5 -19.5 -45.5s-28.167 -19.5 -45.5 -19.5s-32.5 6.5 -45.5 19.5s-19.5 28.167 -19.5 45.5s6.5 32.5 19.5 45.5s28.167 19.5 45.5 19.5s32.5 -6.5 45.5 -19.5
s19.5 -28.167 19.5 -45.5zM415 575c0 -17.333 -6.5 -32.5 -19.5 -45.5s-28.167 -19.5 -45.5 -19.5s-32.5 6.5 -45.5 19.5s-19.5 28.167 -19.5 45.5s6.5 32.5 19.5 45.5s28.167 19.5 45.5 19.5s32.5 -6.5 45.5 -19.5s19.5 -28.167 19.5 -45.5z" />
    <glyph glyph-name="divide" unicode="&#xf7;" horiz-adv-x="460" 
d="M425 205h-390v100h390v-100zM295 90c0 -17.333 -6.5 -32.5 -19.5 -45.5s-28.167 -19.5 -45.5 -19.5s-32.5 6.5 -45.5 19.5s-19.5 28.167 -19.5 45.5s6.5 32.5 19.5 45.5s28.167 19.5 45.5 19.5s32.5 -6.5 45.5 -19.5s19.5 -28.167 19.5 -45.5zM295 420
c0 -17.333 -6.5 -32.5 -19.5 -45.5s-28.167 -19.5 -45.5 -19.5s-32.5 6.5 -45.5 19.5s-19.5 28.167 -19.5 45.5s6.5 32.5 19.5 45.5s28.167 19.5 45.5 19.5s32.5 -6.5 45.5 -19.5s19.5 -28.167 19.5 -45.5z" />
    <glyph glyph-name="oslash" unicode="&#xf8;" horiz-adv-x="520" 
d="M490 230c0 -32.667 -6.16797 -63.168 -18.501 -91.501s-29 -53.166 -50 -74.499s-45.333 -38.166 -73 -50.499s-57.167 -18.5 -88.5 -18.5c-20 0 -38.333 2.33301 -55 7s-31 9.66699 -43 15c-14 6.66699 -26.333 14.334 -37 23.001l-45 -40l-60 65l45 40
c-6.66699 10.667 -12.667 22.667 -18 36c-4.66699 11.333 -8.66699 24.666 -12 39.999s-5 31.666 -5 48.999c0 32.667 6.16699 63.167 18.5 91.5s29 53.166 50 74.499s45.333 38.166 73 50.499s57.167 18.5 88.5 18.5c20 0 38.167 -2.5 54.5 -7.5s30.5 -10.167 42.5 -15.5
c14 -6.66699 26.667 -14 38 -22l45 40l60 -65l-45 -40c6 -11.333 11.667 -23.333 17 -36c4.66699 -11.333 8.83398 -24.666 12.501 -39.999s5.5 -31.666 5.5 -48.999zM144.999 229.999c0 -5.33301 0.166992 -10.5 0.5 -15.5s0.833008 -9.16699 1.5 -12.5
c0.666992 -4.66699 1.66699 -8.66699 3 -12l165 150l-14 7c-4.66699 2 -10.5 3.83301 -17.5 5.5s-14.833 2.5 -23.5 2.5c-32.667 0 -60 -11.333 -82 -34s-33 -53 -33 -91zM374.999 229.999c0 5.33301 -0.333008 10.168 -1 14.501l-2 12.5
c-0.666992 4 -1.33398 8.33301 -2.00098 13l-165 -150c4 -2.66699 8.66699 -5.33398 14 -8.00098c10.667 -4.66699 24.334 -7 41.001 -7c32.667 0 60 11.333 82 34s33 53 33 91z" />
    <glyph glyph-name="ugrave" unicode="&#xf9;" horiz-adv-x="530" 
d="M240 -5c-27.333 0 -52.334 4.49902 -75.001 13.499s-42.167 22 -58.5 39s-29 37.5 -38 61.5s-13.5 51 -13.5 81v270h115v-255c0 -30 8.83301 -54.167 26.5 -72.5s40.5 -27.5 68.5 -27.5s50.833 9.16699 68.5 27.5s26.5 42.5 26.5 72.5v255h115v-460h-85l-20 45
c-11.333 -9.33301 -23.666 -17.666 -36.999 -24.999c-11.333 -6.66699 -25 -12.5 -41 -17.5s-33.333 -7.5 -52 -7.5zM319.999 519.999h-85l-90 125h110z" />
    <glyph glyph-name="uacute" unicode="&#xfa;" horiz-adv-x="530" 
d="M240 -5c-27.333 0 -52.334 4.49902 -75.001 13.499s-42.167 22 -58.5 39s-29 37.5 -38 61.5s-13.5 51 -13.5 81v270h115v-255c0 -30 8.83301 -54.167 26.5 -72.5s40.5 -27.5 68.5 -27.5s50.833 9.16699 68.5 27.5s26.5 42.5 26.5 72.5v255h115v-460h-85l-20 45
c-11.333 -9.33301 -23.666 -17.666 -36.999 -24.999c-11.333 -6.66699 -25 -12.5 -41 -17.5s-33.333 -7.5 -52 -7.5zM284.999 644.999h110l-90 -125h-85z" />
    <glyph glyph-name="ucircumflex" unicode="&#xfb;" horiz-adv-x="530" 
d="M240 -5c-27.333 0 -52.334 4.49902 -75.001 13.499s-42.167 22 -58.5 39s-29 37.5 -38 61.5s-13.5 51 -13.5 81v270h115v-255c0 -30 8.83301 -54.167 26.5 -72.5s40.5 -27.5 68.5 -27.5s50.833 9.16699 68.5 27.5s26.5 42.5 26.5 72.5v255h115v-460h-85l-20 45
c-11.333 -9.33301 -23.666 -17.666 -36.999 -24.999c-11.333 -6.66699 -25 -12.5 -41 -17.5s-33.333 -7.5 -52 -7.5zM409.999 519.999h-95l-50 65l-50 -65h-95l95 125h100z" />
    <glyph glyph-name="udieresis" unicode="&#xfc;" horiz-adv-x="530" 
d="M240 -5c-27.333 0 -52.334 4.49902 -75.001 13.499s-42.167 22 -58.5 39s-29 37.5 -38 61.5s-13.5 51 -13.5 81v270h115v-255c0 -30 8.83301 -54.167 26.5 -72.5s40.5 -27.5 68.5 -27.5s50.833 9.16699 68.5 27.5s26.5 42.5 26.5 72.5v255h115v-460h-85l-20 45
c-11.333 -9.33301 -23.666 -17.666 -36.999 -24.999c-11.333 -6.66699 -25 -12.5 -41 -17.5s-33.333 -7.5 -52 -7.5zM244.999 574.999c0 -17.333 -6.5 -32.5 -19.5 -45.5s-28.167 -19.5 -45.5 -19.5s-32.5 6.5 -45.5 19.5s-19.5 28.167 -19.5 45.5s6.5 32.5 19.5 45.5
s28.167 19.5 45.5 19.5s32.5 -6.5 45.5 -19.5s19.5 -28.167 19.5 -45.5zM424.999 574.999c0 -17.333 -6.5 -32.5 -19.5 -45.5s-28.167 -19.5 -45.5 -19.5s-32.5 6.5 -45.5 19.5s-19.5 28.167 -19.5 45.5s6.5 32.5 19.5 45.5s28.167 19.5 45.5 19.5s32.5 -6.5 45.5 -19.5
s19.5 -28.167 19.5 -45.5z" />
    <glyph glyph-name="yacute" unicode="&#xfd;" horiz-adv-x="470" 
d="M5 460l120.002 0.000976562l115 -300l105 300h120l-89 -228l-33.5 -86l-29.5 -76.5l-22 -57.5c-6 -15.333 -9.66699 -24.333 -11 -27c-11.333 -27.333 -22.5 -50.5 -33.5 -69.5s-22.833 -34.5 -35.5 -46.5s-26.334 -20.667 -41.001 -26s-31.334 -8 -50.001 -8
c-5.33301 0 -10.5 0.166992 -15.5 0.5s-9.16699 0.833008 -12.5 1.5c-4.66699 0.666992 -8.66699 1.66699 -12 3v95c25.333 0 44.833 5.66699 58.5 17s24.167 25.666 31.5 42.999l10 25zM260.002 645.001h110l-90 -125h-85z" />
    <glyph glyph-name="thorn" unicode="&#xfe;" horiz-adv-x="535" 
d="M290 465c28.667 0 56 -5.83398 82 -17.501s48.833 -28 68.5 -49s35.334 -45.833 47.001 -74.5s17.5 -60 17.5 -94s-5.83301 -65.333 -17.5 -94s-27.334 -53.5 -47.001 -74.5s-42.5 -37.333 -68.5 -49s-53.333 -17.5 -82 -17.5c-19.333 0 -36.166 2.33301 -50.499 7
s-26.833 9.66699 -37.5 15c-12 6.66699 -22.667 14.334 -32 23.001v-200h-115v780h115v-200c9.33301 8 20 15.333 32 22c10.667 5.33301 23.167 10.5 37.5 15.5s31.166 7.5 50.499 7.5zM160 229.999c0 -38 11 -68.333 33 -91s49.333 -34 82 -34s60 11.333 82 34s33 53 33 91
s-11 68.333 -33 91s-49.333 34 -82 34s-60 -11.333 -82 -34s-33 -53 -33 -91z" />
    <glyph glyph-name="ydieresis" unicode="&#xff;" horiz-adv-x="470" 
d="M5 460l120.002 0.000976562l115 -300l105 300h120l-89 -228l-33.5 -86l-29.5 -76.5l-22 -57.5c-6 -15.333 -9.66699 -24.333 -11 -27c-11.333 -27.333 -22.5 -50.5 -33.5 -69.5s-22.833 -34.5 -35.5 -46.5s-26.334 -20.667 -41.001 -26s-31.334 -8 -50.001 -8
c-5.33301 0 -10.5 0.166992 -15.5 0.5s-9.16699 0.833008 -12.5 1.5c-4.66699 0.666992 -8.66699 1.66699 -12 3v95c25.333 0 44.833 5.66699 58.5 17s24.167 25.666 31.5 42.999l10 25zM215.002 575.001c0 -17.333 -6.5 -32.5 -19.5 -45.5s-28.167 -19.5 -45.5 -19.5
s-32.5 6.5 -45.5 19.5s-19.5 28.167 -19.5 45.5s6.5 32.5 19.5 45.5s28.167 19.5 45.5 19.5s32.5 -6.5 45.5 -19.5s19.5 -28.167 19.5 -45.5zM395.002 575.001c0 -17.333 -6.5 -32.5 -19.5 -45.5s-28.167 -19.5 -45.5 -19.5s-32.5 6.5 -45.5 19.5s-19.5 28.167 -19.5 45.5
s6.5 32.5 19.5 45.5s28.167 19.5 45.5 19.5s32.5 -6.5 45.5 -19.5s19.5 -28.167 19.5 -45.5z" />
    <glyph glyph-name="Amacron" unicode="&#x100;" horiz-adv-x="570" 
d="M120 0h-125l235 630h110l235 -630h-125l-45 130h-240zM365 240l-80 230l-80 -230h160zM415 705h-260v85h260v-85z" />
    <glyph glyph-name="amacron" unicode="&#x101;" horiz-adv-x="475" 
d="M245 465c26 0 50 -4.50293 72 -13.5029s41 -21.5 57 -37.5s28.5 -35 37.5 -57s13.5 -46 13.5 -72v-285h-85l-20 45c-10.667 -9.33301 -22.334 -17.666 -35.001 -24.999c-11.333 -6.66699 -25 -12.5 -41 -17.5s-34 -7.5 -54 -7.5c-50 0 -88.333 12.167 -115 36.5
s-40 55.5 -40 93.5c0 22.667 4.5 43.5 13.5 62.5s24.167 35.333 45.5 49s49.5 24.334 84.5 32.001s78.833 11.5 131.5 11.5c0 25.333 -6.83301 45 -20.5 59s-31.834 21 -54.501 21c-15.333 0 -27.5 -2.66699 -36.5 -8s-16.167 -11 -21.5 -17
c-6 -7.33301 -10 -15.666 -12 -24.999h-115c2.66699 21.333 8.83398 41.333 18.501 60s22.834 35 39.501 49s36.5 25.167 59.5 33.5s48.833 12.5 77.5 12.5zM210 84.9971c30 0 54.1689 8.83301 72.502 26.5s27.5 40.5 27.5 68.5v20c-34 0 -61.333 -1.5 -82 -4.5
s-36.834 -7.33301 -48.501 -13s-19.5 -12.5 -23.5 -20.5s-6 -17 -6 -27c0 -12.667 5.66699 -24.167 17 -34.5s25.666 -15.5 42.999 -15.5zM375.002 529.997h-260v85h260v-85z" />
    <glyph glyph-name="Abreve" unicode="&#x102;" horiz-adv-x="570" 
d="M120 0h-125l235 630h110l235 -630h-125l-45 130h-240zM365 240l-80 230l-80 -230h160zM285 765c11.333 0 20.5 2.5 27.5 7.5s12.5 10.833 16.5 17.5c4.66699 7.33301 8.33398 15.666 11.001 24.999h85c-2.66699 -17.333 -7.83398 -33.666 -15.501 -48.999
s-17.667 -28.666 -30 -39.999s-26.5 -20.166 -42.5 -26.499s-33.333 -9.5 -52 -9.5s-36 3.16699 -52 9.5s-30.167 15.166 -42.5 26.499s-22.333 24.666 -30 39.999s-12.834 31.666 -15.501 48.999h85c2.66699 -9.33301 6.33398 -17.666 11.001 -24.999
c4 -6.66699 9.5 -12.5 16.5 -17.5s16.167 -7.5 27.5 -7.5z" />
    <glyph glyph-name="abreve" unicode="&#x103;" horiz-adv-x="475" 
d="M245 465c26 0 50 -4.50293 72 -13.5029s41 -21.5 57 -37.5s28.5 -35 37.5 -57s13.5 -46 13.5 -72v-285h-85l-20 45c-10.667 -9.33301 -22.334 -17.666 -35.001 -24.999c-11.333 -6.66699 -25 -12.5 -41 -17.5s-34 -7.5 -54 -7.5c-50 0 -88.333 12.167 -115 36.5
s-40 55.5 -40 93.5c0 22.667 4.5 43.5 13.5 62.5s24.167 35.333 45.5 49s49.5 24.334 84.5 32.001s78.833 11.5 131.5 11.5c0 25.333 -6.83301 45 -20.5 59s-31.834 21 -54.501 21c-15.333 0 -27.5 -2.66699 -36.5 -8s-16.167 -11 -21.5 -17
c-6 -7.33301 -10 -15.666 -12 -24.999h-115c2.66699 21.333 8.83398 41.333 18.501 60s22.834 35 39.501 49s36.5 25.167 59.5 33.5s48.833 12.5 77.5 12.5zM210 84.9971c30 0 54.1689 8.83301 72.502 26.5s27.5 40.5 27.5 68.5v20c-34 0 -61.333 -1.5 -82 -4.5
s-36.834 -7.33301 -48.501 -13s-19.5 -12.5 -23.5 -20.5s-6 -17 -6 -27c0 -12.667 5.66699 -24.167 17 -34.5s25.666 -15.5 42.999 -15.5zM250.002 584.997c11.333 0 20.5 2.5 27.5 7.5s12.5 10.833 16.5 17.5c4.66699 7.33301 8.33398 15.666 11.001 24.999h85
c-2.66699 -17.333 -7.83398 -33.666 -15.501 -48.999s-17.667 -28.666 -30 -39.999s-26.5 -20.166 -42.5 -26.499s-33.333 -9.5 -52 -9.5s-36 3.16699 -52 9.5s-30.167 15.166 -42.5 26.499s-22.333 24.666 -30 39.999s-12.834 31.666 -15.501 48.999h85
c2.66699 -9.33301 6.33398 -17.666 11.001 -24.999c4 -6.66699 9.5 -12.5 16.5 -17.5s16.167 -7.5 27.5 -7.5z" />
    <glyph glyph-name="Aogonek" unicode="&#x104;" horiz-adv-x="570" 
d="M405 130l-240 0.000976562l-45 -130h-125l235 630h110l235 -630h-60c-6.66699 -8.66699 -12.667 -17.667 -18 -27c-4.66699 -8 -8.66699 -16.667 -12 -26s-5 -18.333 -5 -27c0 -12.667 4.5 -23.334 13.5 -32.001s21.167 -13 36.5 -13
c5.33301 0 10.166 0.166992 14.499 0.5s8.5 0.833008 12.5 1.5s8.33301 1.66699 13 3v-57c-5.33301 -1.33301 -11.333 -2.66602 -18 -3.99902c-5.33301 -1.33301 -11.666 -2.33301 -18.999 -3s-15 -1 -23 -1c-32.667 0 -58.334 8.66699 -77.001 26s-28 38.666 -28 63.999
c0 12.667 2.33301 24.5 7 35.5s9.66699 21.167 15 30.5c6.66699 10 14.334 19.667 23.001 29zM365 240.001l-80 230l-80 -230h160z" />
    <glyph glyph-name="aogonek" unicode="&#x105;" horiz-adv-x="475" 
d="M320 45c-10.667 -9.33301 -22.334 -17.668 -35.001 -25.001c-11.333 -6.66699 -25 -12.5 -41 -17.5s-34 -7.5 -54 -7.5c-50 0 -88.333 12.167 -115 36.5s-40 55.5 -40 93.5c0 22.667 4.5 43.5 13.5 62.5s24.167 35.333 45.5 49s49.5 24.334 84.5 32.001
s78.833 11.5 131.5 11.5c0 25.333 -6.83301 45 -20.5 59s-31.834 21 -54.501 21c-15.333 0 -27.5 -2.66699 -36.5 -8s-16.167 -11 -21.5 -17c-6 -7.33301 -10 -15.666 -12 -24.999h-115c2.66699 21.333 8.83398 41.333 18.501 60s22.834 35 39.501 49s36.5 25.167 59.5 33.5
s48.833 12.5 77.5 12.5c26 0 50 -4.5 72 -13.5s41 -21.5 57 -37.5s28.5 -35 37.5 -57s13.5 -46 13.5 -72v-285h-20c-6.66699 -8.66699 -12.667 -17.667 -18 -27c-4.66699 -8 -8.66699 -16.667 -12 -26s-5 -18.333 -5 -27c0 -12.667 4.5 -23.334 13.5 -32.001
s21.167 -13 36.5 -13c5.33301 0 10.166 0.166992 14.499 0.5s8.5 0.833008 12.5 1.5s8.33301 1.66699 13 3v-57c-5.33301 -1.33301 -11.333 -2.66602 -18 -3.99902c-5.33301 -1.33301 -11.666 -2.33301 -18.999 -3s-15 -1 -23 -1c-32.667 0 -58.334 8.66699 -77.001 26
s-28 38.666 -28 63.999c0 12.667 2.33301 24.5 7 35.5s9.66699 21.167 15 30.5c6.66699 10 14.334 19.667 23.001 29zM210 84.998c30 0 54.1689 8.83301 72.502 26.5s27.5 40.5 27.5 68.5v20c-34 0 -61.333 -1.5 -82 -4.5s-36.834 -7.33301 -48.501 -13
s-19.5 -12.5 -23.5 -20.5s-6 -17 -6 -27c0 -12.667 5.66699 -24.167 17 -34.5s25.666 -15.5 42.999 -15.5z" />
    <glyph glyph-name="Cacute" unicode="&#x106;" horiz-adv-x="645" 
d="M150 315c0 -30 5 -57.502 15 -82.502s23.333 -46.667 40 -65s36.167 -32.5 58.5 -42.5s46.166 -15 71.499 -15c21.333 0 40.666 3.16699 57.999 9.5s32.833 14.666 46.5 24.999s25 22 34 35s16.167 26.5 21.5 40.5h125c-7.33301 -30 -19.333 -58.667 -36 -86
s-37.167 -51.166 -61.5 -71.499s-52.333 -36.666 -84 -48.999s-66.167 -18.5 -103.5 -18.5c-41.333 0 -80.5 8.16699 -117.5 24.5s-69.333 39 -97 68s-49.667 62.833 -66 101.5s-24.5 80.667 -24.5 126c0 44.667 8.16699 86.5 24.5 125.5s38.333 73 66 102s60 51.667 97 68
s76.167 24.5 117.5 24.5c36 0 69.5 -6.16699 100.5 -18.5s58.5 -28.666 82.5 -48.999s44.333 -44.166 61 -71.499s28.667 -56 36 -86h-125c-4 14 -10.333 27.5 -19 40.5s-19.5 24.667 -32.5 35s-28.167 18.666 -45.5 24.999s-36.666 9.5 -57.999 9.5
c-25.333 0 -49.166 -5 -71.499 -15s-41.833 -24.167 -58.5 -42.5s-30 -40 -40 -65s-15 -52.5 -15 -82.5zM360 824.998h110l-90 -125h-85z" />
    <glyph glyph-name="cacute" unicode="&#x107;" horiz-adv-x="500" 
d="M475 170c-5.33301 -22.667 -14.333 -44.4961 -27 -65.4961s-28.334 -39.667 -47.001 -56s-40 -29.333 -64 -39s-49.667 -14.5 -77 -14.5c-31.333 0 -60.833 6.16699 -88.5 18.5s-52 29.166 -73 50.499s-37.667 46.166 -50 74.499s-18.5 58.833 -18.5 91.5
s6.16699 63.167 18.5 91.5s29 53.166 50 74.499s45.333 38.166 73 50.499s57.167 18.5 88.5 18.5c27.333 0 53 -4.83301 77 -14.5s45.333 -22.667 64 -39s34.334 -35 47.001 -56s21.667 -42.833 27 -65.5h-115c-5.33301 12 -12.666 22.667 -21.999 32
c-8 8 -18.333 15.5 -31 22.5s-28.334 10.5 -47.001 10.5c-32.667 0 -60 -11.333 -82 -34s-33 -53 -33 -91s11 -68.333 33 -91s49.333 -34 82 -34c18.667 0 34.334 3.33301 47.001 10s23 14 31 22c9.33301 9.33301 16.666 20.333 21.999 33h115zM280 645.004h110l-90 -125
h-85z" />
    <glyph glyph-name="Ccircumflex" unicode="&#x108;" horiz-adv-x="645" 
d="M150 315c0 -30 5 -57.502 15 -82.502s23.333 -46.667 40 -65s36.167 -32.5 58.5 -42.5s46.166 -15 71.499 -15c21.333 0 40.666 3.16699 57.999 9.5s32.833 14.666 46.5 24.999s25 22 34 35s16.167 26.5 21.5 40.5h125c-7.33301 -30 -19.333 -58.667 -36 -86
s-37.167 -51.166 -61.5 -71.499s-52.333 -36.666 -84 -48.999s-66.167 -18.5 -103.5 -18.5c-41.333 0 -80.5 8.16699 -117.5 24.5s-69.333 39 -97 68s-49.667 62.833 -66 101.5s-24.5 80.667 -24.5 126c0 44.667 8.16699 86.5 24.5 125.5s38.333 73 66 102s60 51.667 97 68
s76.167 24.5 117.5 24.5c36 0 69.5 -6.16699 100.5 -18.5s58.5 -28.666 82.5 -48.999s44.333 -44.166 61 -71.499s28.667 -56 36 -86h-125c-4 14 -10.333 27.5 -19 40.5s-19.5 24.667 -32.5 35s-28.167 18.666 -45.5 24.999s-36.666 9.5 -57.999 9.5
c-25.333 0 -49.166 -5 -71.499 -15s-41.833 -24.167 -58.5 -42.5s-30 -40 -40 -65s-15 -52.5 -15 -82.5zM490 699.998h-95l-50 65l-50 -65h-95l95 125h100z" />
    <glyph glyph-name="ccircumflex" unicode="&#x109;" horiz-adv-x="500" 
d="M475 170c-5.33301 -22.667 -14.333 -44.4961 -27 -65.4961s-28.334 -39.667 -47.001 -56s-40 -29.333 -64 -39s-49.667 -14.5 -77 -14.5c-31.333 0 -60.833 6.16699 -88.5 18.5s-52 29.166 -73 50.499s-37.667 46.166 -50 74.499s-18.5 58.833 -18.5 91.5
s6.16699 63.167 18.5 91.5s29 53.166 50 74.499s45.333 38.166 73 50.499s57.167 18.5 88.5 18.5c27.333 0 53 -4.83301 77 -14.5s45.333 -22.667 64 -39s34.334 -35 47.001 -56s21.667 -42.833 27 -65.5h-115c-5.33301 12 -12.666 22.667 -21.999 32
c-8 8 -18.333 15.5 -31 22.5s-28.334 10.5 -47.001 10.5c-32.667 0 -60 -11.333 -82 -34s-33 -53 -33 -91s11 -68.333 33 -91s49.333 -34 82 -34c18.667 0 34.334 3.33301 47.001 10s23 14 31 22c9.33301 9.33301 16.666 20.333 21.999 33h115zM405 520.004h-95l-50 65
l-50 -65h-95l95 125h100z" />
    <glyph glyph-name="Ccaron" unicode="&#x10c;" horiz-adv-x="645" 
d="M150 315c0 -30 5 -57.502 15 -82.502s23.333 -46.667 40 -65s36.167 -32.5 58.5 -42.5s46.166 -15 71.499 -15c21.333 0 40.666 3.16699 57.999 9.5s32.833 14.666 46.5 24.999s25 22 34 35s16.167 26.5 21.5 40.5h125c-7.33301 -30 -19.333 -58.667 -36 -86
s-37.167 -51.166 -61.5 -71.499s-52.333 -36.666 -84 -48.999s-66.167 -18.5 -103.5 -18.5c-41.333 0 -80.5 8.16699 -117.5 24.5s-69.333 39 -97 68s-49.667 62.833 -66 101.5s-24.5 80.667 -24.5 126c0 44.667 8.16699 86.5 24.5 125.5s38.333 73 66 102s60 51.667 97 68
s76.167 24.5 117.5 24.5c36 0 69.5 -6.16699 100.5 -18.5s58.5 -28.666 82.5 -48.999s44.333 -44.166 61 -71.499s28.667 -56 36 -86h-125c-4 14 -10.333 27.5 -19 40.5s-19.5 24.667 -32.5 35s-28.167 18.666 -45.5 24.999s-36.666 9.5 -57.999 9.5
c-25.333 0 -49.166 -5 -71.499 -15s-41.833 -24.167 -58.5 -42.5s-30 -40 -40 -65s-15 -52.5 -15 -82.5zM390 699.998h-100l-95 125h95l50 -65l50 65h95z" />
    <glyph glyph-name="ccaron" unicode="&#x10d;" horiz-adv-x="500" 
d="M475 170c-5.33301 -22.667 -14.333 -44.4961 -27 -65.4961s-28.334 -39.667 -47.001 -56s-40 -29.333 -64 -39s-49.667 -14.5 -77 -14.5c-31.333 0 -60.833 6.16699 -88.5 18.5s-52 29.166 -73 50.499s-37.667 46.166 -50 74.499s-18.5 58.833 -18.5 91.5
s6.16699 63.167 18.5 91.5s29 53.166 50 74.499s45.333 38.166 73 50.499s57.167 18.5 88.5 18.5c27.333 0 53 -4.83301 77 -14.5s45.333 -22.667 64 -39s34.334 -35 47.001 -56s21.667 -42.833 27 -65.5h-115c-5.33301 12 -12.666 22.667 -21.999 32
c-8 8 -18.333 15.5 -31 22.5s-28.334 10.5 -47.001 10.5c-32.667 0 -60 -11.333 -82 -34s-33 -53 -33 -91s11 -68.333 33 -91s49.333 -34 82 -34c18.667 0 34.334 3.33301 47.001 10s23 14 31 22c9.33301 9.33301 16.666 20.333 21.999 33h115zM315 520.004h-100l-95 125h95
l50 -65l50 65h95z" />
    <glyph glyph-name="Dcaron" unicode="&#x10e;" horiz-adv-x="605" 
d="M265 115c24.667 0 48.5 5.33496 71.5 16.002s43.333 25 61 43s31.667 39.167 42 63.5s15.5 50.166 15.5 77.499s-5.16699 53.166 -15.5 77.499s-24.333 45.5 -42 63.5s-38 32.333 -61 43s-46.833 16 -71.5 16h-80v-400h80zM65 0.00195312v630h200
c41.333 0 80.666 -8.5 117.999 -25.5s70.333 -39.833 99 -68.5s51.334 -62 68.001 -100s25 -78.333 25 -121s-8.33301 -83 -25 -121s-39.334 -71.333 -68.001 -100s-61.667 -51.5 -99 -68.5s-76.666 -25.5 -117.999 -25.5h-200zM350 700.002h-100l-95 125h95l50 -65l50 65
h95z" />
    <glyph glyph-name="dcaron" unicode="&#x10f;" horiz-adv-x="615" 
d="M560 630h100l-60 -125h-75zM245 -5c-28.667 0 -56.001 5.83203 -82.001 17.499s-48.833 28 -68.5 49s-35.334 45.833 -47.001 74.5s-17.5 60 -17.5 94s5.83301 65.333 17.5 94s27.334 53.5 47.001 74.5s42.5 37.333 68.5 49s53.333 17.5 82 17.5
c18.667 0 35.334 -2.5 50.001 -7.5s27.334 -10.167 38.001 -15.5c12 -6.66699 22.667 -14 32 -22v210h115v-630h-85l-20 45c-10.667 -9.33301 -22.334 -17.666 -35.001 -24.999c-11.333 -6.66699 -25 -12.5 -41 -17.5s-34 -7.5 -54 -7.5zM374.999 229.999
c0 38 -11 68.333 -33 91s-49.333 34 -82 34s-60 -11.333 -82 -34s-33 -53 -33 -91s11 -68.333 33 -91s49.333 -34 82 -34s60 11.333 82 34s33 53 33 91z" />
    <glyph glyph-name="Dcroat" unicode="&#x110;" horiz-adv-x="630" 
d="M10 360h80v270h200c41.333 0 80.666 -8.5 117.999 -25.5s70.333 -39.833 99 -68.5s51.334 -62 68.001 -100s25 -78.333 25 -121s-8.33301 -83 -25 -121s-39.334 -71.333 -68.001 -100s-61.667 -51.5 -99 -68.5s-76.666 -25.5 -117.999 -25.5h-200v260h-80v100zM290 115
c24.667 0 48.5 5.33496 71.5 16.002s43.333 25 61 43s31.667 39.167 42 63.5s15.5 50.166 15.5 77.499s-5.16699 53.166 -15.5 77.499s-24.333 45.5 -42 63.5s-38 32.333 -61 43s-46.833 16 -71.5 16h-80v-155h110v-100h-110v-145h80z" />
    <glyph glyph-name="dcroat" unicode="&#x111;" horiz-adv-x="540" 
d="M535 465l-69.998 -0.000976562v-465h-85l-20 45c-10.667 -9.33301 -22 -17.666 -34 -24.999c-10.667 -6.66699 -23.334 -12.5 -38.001 -17.5s-30.667 -7.5 -48 -7.5c-28.667 0 -55.834 5.5 -81.501 16.5s-48 26.333 -67 46s-34 42.5 -45 68.5s-16.5 54 -16.5 84
s5.5 58 16.5 84s26 48.833 45 68.5s41.333 35 67 46s52.834 16.5 81.501 16.5c16 0 30.833 -2.5 44.5 -7.5s25.167 -10.167 34.5 -15.5c11.333 -6.66699 21.666 -14 30.999 -22v85h-115v95h115v70h115v-70h70v-95zM145.002 209.999c0 -30 10 -55 30 -75s45 -30 75 -30
s55 10 75 30s30 45 30 75s-10 55 -30 75s-45 30 -75 30s-55 -10 -75 -30s-30 -45 -30 -75z" />
    <glyph glyph-name="Emacron" unicode="&#x112;" horiz-adv-x="545" 
d="M510 115v-115h-445v630h435v-115h-315v-135h290v-115h-290v-150h325zM420 710h-260v85h260v-85z" />
    <glyph glyph-name="emacron" unicode="&#x113;" 
d="M465 140c-6 -17.333 -15.1631 -34.6621 -27.4961 -51.9951s-27.333 -32.833 -45 -46.5s-37.667 -24.834 -60 -33.501s-46.5 -13 -72.5 -13c-31.333 0 -60.833 6.16699 -88.5 18.5s-52 29.166 -73 50.499s-37.667 46.166 -50 74.499s-18.5 58.833 -18.5 91.5
s6.16699 63.167 18.5 91.5s29 53.166 50 74.499s45.333 38.166 73 50.499s57.167 18.5 88.5 18.5c30 0 58.333 -5.66699 85 -17s50 -27.333 70 -48s35.833 -45.5 47.5 -74.5s17.5 -60.833 17.5 -95.5c0 -5.33301 -0.333008 -10.5 -1 -15.5l-2 -14.5
c-0.666992 -5.33301 -1.33398 -10.333 -2.00098 -15h-320c5.33301 -22.667 16.666 -41.667 33.999 -57s41 -23 71 -23c15.333 0 28.166 1.66699 38.499 5s19.166 7.33301 26.499 12c8 5.33301 14.667 11.333 20 18h120zM260.004 355.004c-30 0 -54.5 -8.66699 -73.5 -26
s-31.167 -38.666 -36.5 -63.999h220c-5.33301 25.333 -17.5 46.666 -36.5 63.999s-43.5 26 -73.5 26zM390.004 530.004h-260v85h260v-85z" />
    <glyph glyph-name="Edotaccent" unicode="&#x116;" horiz-adv-x="545" 
d="M510 115v-115h-445v630h435v-115h-315v-135h290v-115h-290v-150h325zM355 760c0 -17.333 -6.5 -32.5 -19.5 -45.5s-28.167 -19.5 -45.5 -19.5s-32.5 6.5 -45.5 19.5s-19.5 28.167 -19.5 45.5s6.5 32.5 19.5 45.5s28.167 19.5 45.5 19.5s32.5 -6.5 45.5 -19.5
s19.5 -28.167 19.5 -45.5z" />
    <glyph glyph-name="edotaccent" unicode="&#x117;" 
d="M465 140c-6 -17.333 -15.1631 -34.6621 -27.4961 -51.9951s-27.333 -32.833 -45 -46.5s-37.667 -24.834 -60 -33.501s-46.5 -13 -72.5 -13c-31.333 0 -60.833 6.16699 -88.5 18.5s-52 29.166 -73 50.499s-37.667 46.166 -50 74.499s-18.5 58.833 -18.5 91.5
s6.16699 63.167 18.5 91.5s29 53.166 50 74.499s45.333 38.166 73 50.499s57.167 18.5 88.5 18.5c30 0 58.333 -5.66699 85 -17s50 -27.333 70 -48s35.833 -45.5 47.5 -74.5s17.5 -60.833 17.5 -95.5c0 -5.33301 -0.333008 -10.5 -1 -15.5l-2 -14.5
c-0.666992 -5.33301 -1.33398 -10.333 -2.00098 -15h-320c5.33301 -22.667 16.666 -41.667 33.999 -57s41 -23 71 -23c15.333 0 28.166 1.66699 38.499 5s19.166 7.33301 26.499 12c8 5.33301 14.667 11.333 20 18h120zM260.004 355.004c-30 0 -54.5 -8.66699 -73.5 -26
s-31.167 -38.666 -36.5 -63.999h220c-5.33301 25.333 -17.5 46.666 -36.5 63.999s-43.5 26 -73.5 26zM330.004 585.004c0 -17.333 -6.5 -32.5 -19.5 -45.5s-28.167 -19.5 -45.5 -19.5s-32.5 6.5 -45.5 19.5s-19.5 28.167 -19.5 45.5s6.5 32.5 19.5 45.5
s28.167 19.5 45.5 19.5s32.5 -6.5 45.5 -19.5s19.5 -28.167 19.5 -45.5z" />
    <glyph glyph-name="Eogonek" unicode="&#x118;" horiz-adv-x="545" 
d="M65 0v630.001h435v-115h-315v-135h290v-115h-290v-150h325v-115c-6.66699 -8.66699 -12.667 -17.667 -18 -27c-4.66699 -8 -8.66699 -16.667 -12 -26s-5 -18.333 -5 -27c0 -12.667 4.5 -23.334 13.5 -32.001s21.167 -13 36.5 -13c5.33301 0 10.166 0.166992 14.499 0.5
s8.5 0.833008 12.5 1.5s8.33301 1.66699 13 3v-57c-5.33301 -1.33301 -11.333 -2.66602 -18 -3.99902c-5.33301 -1.33301 -11.666 -2.33301 -18.999 -3s-15 -1 -23 -1c-32.667 0 -58.334 8.66699 -77.001 26s-28 38.666 -28 63.999c0 12.667 2.33301 24.5 7 35.5
s9.66699 21.167 15 30.5c6.66699 10 14.334 19.667 23.001 29h-380z" />
    <glyph glyph-name="eogonek" unicode="&#x119;" 
d="M465 140c-6 -17.333 -14.4971 -34.165 -25.4971 -50.498s-23.667 -31 -38 -44s-30.166 -23.5 -47.499 -31.5s-35.333 -12.667 -54 -14c-6.66699 -8 -12.667 -16.333 -18 -25c-4.66699 -7.33301 -8.66699 -15.833 -12 -25.5s-5 -19.5 -5 -29.5
c0 -12.667 4.5 -23.334 13.5 -32.001s21.167 -13 36.5 -13c5.33301 0 10.166 0.166992 14.499 0.5s8.5 0.833008 12.5 1.5s8.33301 1.66699 13 3v-57c-5.33301 -1.33301 -11.333 -2.66602 -18 -3.99902c-5.33301 -1.33301 -11.666 -2.33301 -18.999 -3s-15 -1 -23 -1
c-32.667 0 -58.334 8.66699 -77.001 26s-28 38.666 -28 63.999c0 11.333 2 22.333 6 33s8.66699 20.334 14 29.001c6 10 12.667 19.333 20 28c-27.333 4 -53.166 12.333 -77.499 25s-45.5 29.167 -63.5 49.5s-32.333 44 -43 71s-16 56.833 -16 89.5
s6.16699 63.167 18.5 91.5s29 53.166 50 74.499s45.333 38.166 73 50.499s57.167 18.5 88.5 18.5c30 0 58.333 -5.66699 85 -17s50 -27.333 70 -48s35.833 -45.5 47.5 -74.5s17.5 -60.833 17.5 -95.5c0 -5.33301 -0.333008 -10.5 -1 -15.5l-2 -14.5
c-0.666992 -5.33301 -1.33398 -10.333 -2.00098 -15h-320c5.33301 -22.667 16.666 -41.667 33.999 -57s41 -23 71 -23c15.333 0 28.166 1.66699 38.499 5s19.166 7.33301 26.499 12c8 5.33301 14.667 11.333 20 18h120zM260.003 355.001c-30 0 -54.5 -8.66699 -73.5 -26
s-31.167 -38.666 -36.5 -63.999h220c-5.33301 25.333 -17.5 46.666 -36.5 63.999s-43.5 26 -73.5 26z" />
    <glyph glyph-name="Ecaron" unicode="&#x11a;" horiz-adv-x="545" 
d="M510 115v-115h-445v630h435v-115h-315v-135h290v-115h-290v-150h325zM340 700h-100l-95 125h95l50 -65l50 65h95z" />
    <glyph glyph-name="ecaron" unicode="&#x11b;" 
d="M465 140c-6 -17.333 -15.1631 -34.6621 -27.4961 -51.9951s-27.333 -32.833 -45 -46.5s-37.667 -24.834 -60 -33.501s-46.5 -13 -72.5 -13c-31.333 0 -60.833 6.16699 -88.5 18.5s-52 29.166 -73 50.499s-37.667 46.166 -50 74.499s-18.5 58.833 -18.5 91.5
s6.16699 63.167 18.5 91.5s29 53.166 50 74.499s45.333 38.166 73 50.499s57.167 18.5 88.5 18.5c30 0 58.333 -5.66699 85 -17s50 -27.333 70 -48s35.833 -45.5 47.5 -74.5s17.5 -60.833 17.5 -95.5c0 -5.33301 -0.333008 -10.5 -1 -15.5l-2 -14.5
c-0.666992 -5.33301 -1.33398 -10.333 -2.00098 -15h-320c5.33301 -22.667 16.666 -41.667 33.999 -57s41 -23 71 -23c15.333 0 28.166 1.66699 38.499 5s19.166 7.33301 26.499 12c8 5.33301 14.667 11.333 20 18h120zM260.004 355.004c-30 0 -54.5 -8.66699 -73.5 -26
s-31.167 -38.666 -36.5 -63.999h220c-5.33301 25.333 -17.5 46.666 -36.5 63.999s-43.5 26 -73.5 26zM305.004 520.004h-100l-95 125h95l50 -65l50 65h95z" />
    <glyph glyph-name="Gbreve" unicode="&#x11e;" horiz-adv-x="680" 
d="M150 315c0 -30 4.99902 -57.501 14.999 -82.501s23.333 -46.667 40 -65s36.167 -32.5 58.5 -42.5s46.166 -15 71.499 -15c31.333 0 57.333 5.83301 78 17.5s37 24.834 49 39.501c14 17.333 25 36.666 33 57.999h-165v105h295v-330h-85l-25 60
c-14.667 -12.667 -31 -23.667 -49 -33c-15.333 -8 -34 -15.333 -56 -22s-47 -10 -75 -10c-41.333 0 -80.5 8.16699 -117.5 24.5s-69.333 39 -97 68s-49.667 62.833 -66 101.5s-24.5 80.667 -24.5 126c0 44.667 8.16699 86.5 24.5 125.5s38.333 73 66 102s60 51.667 97 68
s76.167 24.5 117.5 24.5c36 0 69.5 -6.16699 100.5 -18.5s58.5 -28.666 82.5 -48.999s44.333 -44.166 61 -71.499s28.667 -56 36 -86h-125c-4 14 -10.333 27.5 -19 40.5s-19.5 24.667 -32.5 35s-28.167 18.666 -45.5 24.999s-36.666 9.5 -57.999 9.5
c-25.333 0 -49.166 -5 -71.499 -15s-41.833 -24.167 -58.5 -42.5s-30 -40 -40 -65s-15 -52.5 -15 -82.5zM344.999 764.999c11.333 0 20.5 2.5 27.5 7.5s12.5 10.833 16.5 17.5c4.66699 7.33301 8.33398 15.666 11.001 24.999h85
c-2.66699 -17.333 -7.83398 -33.666 -15.501 -48.999s-17.667 -28.666 -30 -39.999s-26.5 -20.166 -42.5 -26.499s-33.333 -9.5 -52 -9.5s-36 3.16699 -52 9.5s-30.167 15.166 -42.5 26.499s-22.333 24.666 -30 39.999s-12.834 31.666 -15.501 48.999h85
c2.66699 -9.33301 6.33398 -17.666 11.001 -24.999c4 -6.66699 9.5 -12.5 16.5 -17.5s16.167 -7.5 27.5 -7.5z" />
    <glyph glyph-name="gbreve" unicode="&#x11f;" horiz-adv-x="530" 
d="M240 465c20 0 38.001 -2.66699 54.001 -8s29.667 -11 41 -17c12.667 -7.33301 24.334 -15.666 35.001 -24.999l20 45h85v-430c0 -60 -19.167 -108.333 -57.5 -145s-92.5 -55 -162.5 -55c-42.667 0 -77.167 7.66699 -103.5 23s-47.166 32.666 -62.499 51.999
c-17.333 22 -30.333 47 -39 75h115c4.66699 -8.66699 11 -16.334 19 -23.001c7.33301 -5.33301 16.666 -10.333 27.999 -15s25.666 -7 42.999 -7c32.667 0 58.334 8.83301 77.001 26.5s28 40.5 28 68.5v35c-9.33301 -9.33301 -20 -17.666 -32 -24.999
c-10.667 -6.66699 -23.334 -12.5 -38.001 -17.5s-31.334 -7.5 -50.001 -7.5c-28.667 0 -55.834 5.66699 -81.501 17s-48 27 -67 47s-34 43.667 -45 71s-16.5 57.333 -16.5 90s5.5 62.667 16.5 90s26 51 45 71s41.333 35.667 67 47s52.834 17 81.501 17zM145.001 240
c0 -16 2.83301 -31 8.5 -45s13.5 -26.167 23.5 -36.5s21.667 -18.5 35 -24.5s27.666 -9 42.999 -9c14.667 0 28.667 3 42 9s25 14.167 35 24.5s18 22.5 24 36.5s9 29 9 45s-3 31 -9 45s-14 26.167 -24 36.5s-21.667 18.5 -35 24.5s-27.333 9 -42 9
c-15.333 0 -29.666 -3 -42.999 -9s-25 -14.167 -35 -24.5s-17.833 -22.5 -23.5 -36.5s-8.5 -29 -8.5 -45zM260.001 585c11.333 0 20.5 2.5 27.5 7.5s12.5 10.833 16.5 17.5c4.66699 7.33301 8.33398 15.666 11.001 24.999h85
c-2.66699 -17.333 -7.83398 -33.666 -15.501 -48.999s-17.667 -28.666 -30 -39.999s-26.5 -20.166 -42.5 -26.499s-33.333 -9.5 -52 -9.5s-36 3.16699 -52 9.5s-30.167 15.166 -42.5 26.499s-22.333 24.666 -30 39.999s-12.834 31.666 -15.501 48.999h85
c2.66699 -9.33301 6.33398 -17.666 11.001 -24.999c4 -6.66699 9.5 -12.5 16.5 -17.5s16.167 -7.5 27.5 -7.5z" />
    <glyph glyph-name="Gcommaaccent" unicode="&#x122;" horiz-adv-x="680" 
d="M150 315c0 -30 4.99902 -57.501 14.999 -82.501s23.333 -46.667 40 -65s36.167 -32.5 58.5 -42.5s46.166 -15 71.499 -15c31.333 0 57.333 5.83301 78 17.5s37 24.834 49 39.501c14 17.333 25 36.666 33 57.999h-165v105h295v-330h-85l-25 60
c-14.667 -12.667 -31 -23.667 -49 -33c-15.333 -8 -34 -15.333 -56 -22s-47 -10 -75 -10c-41.333 0 -80.5 8.16699 -117.5 24.5s-69.333 39 -97 68s-49.667 62.833 -66 101.5s-24.5 80.667 -24.5 126c0 44.667 8.16699 86.5 24.5 125.5s38.333 73 66 102s60 51.667 97 68
s76.167 24.5 117.5 24.5c36 0 69.5 -6.16699 100.5 -18.5s58.5 -28.666 82.5 -48.999s44.333 -44.166 61 -71.499s28.667 -56 36 -86h-125c-4 14 -10.333 27.5 -19 40.5s-19.5 24.667 -32.5 35s-28.167 18.666 -45.5 24.999s-36.666 9.5 -57.999 9.5
c-25.333 0 -49.166 -5 -71.499 -15s-41.833 -24.167 -58.5 -42.5s-30 -40 -40 -65s-15 -52.5 -15 -82.5zM334.999 -55.001c17.333 0 32.501 -6.66504 45.501 -19.998s19.5 -30 19.5 -50c0 -24 -5 -45 -15 -63s-21 -33 -33 -45c-14 -14 -29.667 -26.333 -47 -37l-20 25
c8 5.33301 15.667 11.666 23 18.999c6 6 11.667 12.833 17 20.5s8.66602 16.167 9.99902 25.5c-20 0 -35.833 5.66699 -47.5 17s-17.5 25.666 -17.5 42.999s6.5 32.5 19.5 45.5s28.167 19.5 45.5 19.5z" />
    <glyph glyph-name="gcommaaccent" unicode="&#x123;" horiz-adv-x="530" 
d="M265 510c-17.333 0 -32.501 6.66602 -45.501 19.999s-19.5 30 -19.5 50c0 23.333 4.83301 44.166 14.5 62.499s20.5 33.5 32.5 45.5c14 14 30 26.333 48 37l20 -25c-8 -5.33301 -15.667 -11.666 -23 -18.999c-6 -6 -11.667 -13 -17 -21s-8.66602 -16.333 -9.99902 -25
c20 0 35.833 -5.66699 47.5 -17s17.5 -25.666 17.5 -42.999s-6.5 -32.5 -19.5 -45.5s-28.167 -19.5 -45.5 -19.5zM239.999 464.999c20 0 38.001 -2.66699 54.001 -8s29.667 -11 41 -17c12.667 -7.33301 24.334 -15.666 35.001 -24.999l20 45h85v-430
c0 -60 -19.167 -108.333 -57.5 -145s-92.5 -55 -162.5 -55c-42.667 0 -77.167 7.66699 -103.5 23s-47.166 32.666 -62.499 51.999c-17.333 22 -30.333 47 -39 75h115c4.66699 -8.66699 11 -16.334 19 -23.001c7.33301 -5.33301 16.666 -10.333 27.999 -15
s25.666 -7 42.999 -7c32.667 0 58.334 8.83301 77.001 26.5s28 40.5 28 68.5v35c-9.33301 -9.33301 -20 -17.666 -32 -24.999c-10.667 -6.66699 -23.334 -12.5 -38.001 -17.5s-31.334 -7.5 -50.001 -7.5c-28.667 0 -55.834 5.66699 -81.501 17s-48 27 -67 47
s-34 43.667 -45 71s-16.5 57.333 -16.5 90s5.5 62.667 16.5 90s26 51 45 71s41.333 35.667 67 47s52.834 17 81.501 17zM145 239.999c0 -16 2.83301 -31 8.5 -45s13.5 -26.167 23.5 -36.5s21.667 -18.5 35 -24.5s27.666 -9 42.999 -9c14.667 0 28.667 3 42 9
s25 14.167 35 24.5s18 22.5 24 36.5s9 29 9 45s-3 31 -9 45s-14 26.167 -24 36.5s-21.667 18.5 -35 24.5s-27.333 9 -42 9c-15.333 0 -29.666 -3 -42.999 -9s-25 -14.167 -35 -24.5s-17.833 -22.5 -23.5 -36.5s-8.5 -29 -8.5 -45z" />
    <glyph glyph-name="Imacron" unicode="&#x12a;" horiz-adv-x="250" 
d="M185 0h-120v630h120v-630zM255 705h-260v85h260v-85z" />
    <glyph glyph-name="imacron" unicode="&#x12b;" horiz-adv-x="225" 
d="M240 530h-260v85h260v-85zM170 0h-115v460h115v-460z" />
    <glyph glyph-name="Iogonek" unicode="&#x12e;" horiz-adv-x="250" 
d="M65 630l120 0.000976562v-630h-55c-6.66699 -8.66699 -12.667 -17.667 -18 -27c-4.66699 -8 -8.66699 -16.667 -12 -26s-5 -18.333 -5 -27c0 -12.667 4.5 -23.334 13.5 -32.001s21.167 -13 36.5 -13c5.33301 0 10.166 0.166992 14.499 0.5s8.5 0.833008 12.5 1.5
s8.33301 1.66699 13 3v-57c-5.33301 -1.33301 -11.333 -2.66602 -18 -3.99902c-5.33301 -1.33301 -11.666 -2.33301 -18.999 -3s-15 -1 -23 -1c-32.667 0 -58.334 8.66699 -77.001 26s-28 38.666 -28 63.999c0 12.667 2.33301 24.5 7 35.5s9.66699 21.167 15 30.5
c6.66699 10 14.334 19.667 23.001 29v630z" />
    <glyph glyph-name="iogonek" unicode="&#x12f;" horiz-adv-x="225" 
d="M55 460l115 0.000976562v-460h-50c-6.66699 -8.66699 -12.667 -17.667 -18 -27c-4.66699 -8 -8.66699 -16.667 -12 -26s-5 -18.333 -5 -27c0 -12.667 4.5 -23.334 13.5 -32.001s21.167 -13 36.5 -13c5.33301 0 10.166 0.166992 14.499 0.5s8.5 0.833008 12.5 1.5
s8.33301 1.66699 13 3v-57c-5.33301 -1.33301 -11.333 -2.66602 -18 -3.99902c-5.33301 -1.33301 -11.666 -2.33301 -18.999 -3s-15 -1 -23 -1c-32.667 0 -58.334 8.66699 -77.001 26s-28 38.666 -28 63.999c0 12.667 2.33301 24.5 7 35.5s9.66699 21.167 15 30.5
c6.66699 10 14.334 19.667 23.001 29v460zM115 515.001c-17.333 0 -32.5 6.5 -45.5 19.5s-19.5 28.167 -19.5 45.5s6.5 32.5 19.5 45.5s28.167 19.5 45.5 19.5s32.5 -6.5 45.5 -19.5s19.5 -28.167 19.5 -45.5s-6.5 -32.5 -19.5 -45.5s-28.167 -19.5 -45.5 -19.5z" />
    <glyph glyph-name="Idotaccent" unicode="&#x130;" horiz-adv-x="250" 
d="M185 0h-120v630h120v-630zM190 755c0 -17.333 -6.5 -32.5 -19.5 -45.5s-28.167 -19.5 -45.5 -19.5s-32.5 6.5 -45.5 19.5s-19.5 28.167 -19.5 45.5s6.5 32.5 19.5 45.5s28.167 19.5 45.5 19.5s32.5 -6.5 45.5 -19.5s19.5 -28.167 19.5 -45.5z" />
    <glyph glyph-name="dotlessi" unicode="&#x131;" horiz-adv-x="225" 
d="M170 0h-115v460h115v-460z" />
    <glyph glyph-name="ij" unicode="&#x133;" horiz-adv-x="460" 
d="M55 460l115.001 -0.000976562v-280c0 -20 5.83301 -35.833 17.5 -47.5s27.5 -17.5 47.5 -17.5c16.667 0 30.334 2.33301 41.001 7c5.33301 2.66699 10 5.33398 14 8.00098v330h115v-460c0 -25.333 -3.83301 -48 -11.5 -68s-18.334 -37.333 -32.001 -52
s-30 -25.834 -49 -33.501s-39.833 -11.5 -62.5 -11.5c-14.667 0 -27.667 1.66699 -39 5c-6 1.33301 -11.333 3 -16 5v100c2 -1.33301 4.33301 -2.33301 7 -3c6.66699 -1.33301 14.334 -2 23.001 -2c20 0 35.833 5.83301 47.5 17.5s17.5 27.5 17.5 47.5v25
c-4.66699 -4 -10.667 -7.33301 -18 -10c-6.66699 -2.66699 -14.834 -5 -24.501 -7s-22.167 -3 -37.5 -3c-22.667 0 -43.5 3.83301 -62.5 11.5s-35.333 18.834 -49 33.501s-24.334 32 -32.001 52s-11.5 42.667 -11.5 68v285zM350.001 519.999c-17.333 0 -32.5 6.5 -45.5 19.5
s-19.5 28.167 -19.5 45.5s6.5 32.5 19.5 45.5s28.167 19.5 45.5 19.5s32.5 -6.5 45.5 -19.5s19.5 -28.167 19.5 -45.5s-6.5 -32.5 -19.5 -45.5s-28.167 -19.5 -45.5 -19.5zM115.001 519.999c-17.333 0 -32.5 6.5 -45.5 19.5s-19.5 28.167 -19.5 45.5s6.5 32.5 19.5 45.5
s28.167 19.5 45.5 19.5s32.5 -6.5 45.5 -19.5s19.5 -28.167 19.5 -45.5s-6.5 -32.5 -19.5 -45.5s-28.167 -19.5 -45.5 -19.5z" />
    <glyph glyph-name="Kcommaaccent" unicode="&#x136;" horiz-adv-x="540" 
d="M410 0l-225 285v-285h-120v630h120v-280l210 280h140l-235 -310l250 -320h-140zM290 -55c17.333 0 32.501 -6.66504 45.501 -19.998s19.5 -30 19.5 -50c0 -24 -5 -45 -15 -63s-21 -33 -33 -45c-14 -14 -29.667 -26.333 -47 -37l-20 25c8 5.33301 15.667 11.666 23 18.999
c6 6 11.667 12.833 17 20.5s8.66602 16.167 9.99902 25.5c-20 0 -35.833 5.66699 -47.5 17s-17.5 25.666 -17.5 42.999s6.5 32.5 19.5 45.5s28.167 19.5 45.5 19.5z" />
    <glyph glyph-name="kcommaaccent" unicode="&#x137;" horiz-adv-x="450" 
d="M330 0l-160 210v-210h-115v630h115v-360l140 190h130l-165 -220l185 -240h-130zM240 -55c17.333 0 32.501 -6.66504 45.501 -19.998s19.5 -30 19.5 -50c0 -24 -5 -45 -15 -63s-21 -33 -33 -45c-14 -14 -29.667 -26.333 -47 -37l-20 25c8 5.33301 15.667 11.666 23 18.999
c6 6 11.667 12.833 17 20.5s8.66602 16.167 9.99902 25.5c-20 0 -35.833 5.66699 -47.5 17s-17.5 25.666 -17.5 42.999s6.5 32.5 19.5 45.5s28.167 19.5 45.5 19.5z" />
    <glyph glyph-name="Lacute" unicode="&#x139;" horiz-adv-x="495" 
d="M480 115v-115h-415v630h120v-515h295zM145 825h110l-90 -125h-85z" />
    <glyph glyph-name="lacute" unicode="&#x13a;" horiz-adv-x="225" 
d="M170 0h-115v630h115v-630zM135 825h110l-90 -125h-85z" />
    <glyph glyph-name="Lcommaaccent" unicode="&#x13b;" horiz-adv-x="495" 
d="M480 115v-115h-415v630h120v-515h295zM285 -55c17.333 0 32.501 -6.66504 45.501 -19.998s19.5 -30 19.5 -50c0 -24 -5 -45 -15 -63s-21 -33 -33 -45c-14 -14 -29.667 -26.333 -47 -37l-20 25c8 5.33301 15.667 11.666 23 18.999c6 6 11.667 12.833 17 20.5
s8.66602 16.167 9.99902 25.5c-20 0 -35.833 5.66699 -47.5 17s-17.5 25.666 -17.5 42.999s6.5 32.5 19.5 45.5s28.167 19.5 45.5 19.5z" />
    <glyph glyph-name="lcommaaccent" unicode="&#x13c;" horiz-adv-x="225" 
d="M170 0h-115v630h115v-630zM110 -55c17.333 0 32.501 -6.66504 45.501 -19.998s19.5 -30 19.5 -50c0 -24 -5 -45 -15 -63s-21 -33 -33 -45c-14 -14 -29.667 -26.333 -47 -37l-20 25c8 5.33301 15.667 11.666 23 18.999c6 6 11.667 12.833 17 20.5
s8.66602 16.167 9.99902 25.5c-20 0 -35.833 5.66699 -47.5 17s-17.5 25.666 -17.5 42.999s6.5 32.5 19.5 45.5s28.167 19.5 45.5 19.5z" />
    <glyph glyph-name="Lcaron" unicode="&#x13d;" horiz-adv-x="495" 
d="M265 630h100l-60 -125h-75zM480 115v-115h-415v630h120v-515h295z" />
    <glyph glyph-name="lcaron" unicode="&#x13e;" horiz-adv-x="300" 
d="M250 630h100l-60 -125h-75zM170 0h-115v630h115v-630z" />
    <glyph glyph-name="Lslash" unicode="&#x141;" 
d="M495 115v-115h-415v175l-70 -45v110l70 45v345h120v-265l140 90v-110l-140 -90v-140h295z" />
    <glyph glyph-name="lslash" unicode="&#x142;" horiz-adv-x="285" 
d="M200 415l75 50v-110l-75 -50v-305h-115v230l-75 -50v110l75 50v290h115v-215z" />
    <glyph glyph-name="Nacute" unicode="&#x143;" horiz-adv-x="635" 
d="M570 630v-630h-105l-280 410v-410h-120v630h105l280 -410v410h120zM335 825h110l-90 -125h-85z" />
    <glyph glyph-name="nacute" unicode="&#x144;" horiz-adv-x="525" 
d="M290 465c27.333 0 52.334 -4.49902 75.001 -13.499s42.167 -22 58.5 -39s29 -37.5 38 -61.5s13.5 -51 13.5 -81v-270h-115v255c0 30 -8.83301 54.167 -26.5 72.5s-40.5 27.5 -68.5 27.5s-50.833 -9.16699 -68.5 -27.5s-26.5 -42.5 -26.5 -72.5v-255h-115v460h85l20 -45
c11.333 9.33301 23.666 17.666 36.999 24.999c11.333 6 24.833 11.667 40.5 17s33.167 8 52.5 8zM285.001 645.001h110l-90 -125h-85z" />
    <glyph glyph-name="Ncommaaccent" unicode="&#x145;" horiz-adv-x="635" 
d="M570 630v-630h-105l-280 410v-410h-120v630h105l280 -410v410h120zM325 -55c17.333 0 32.501 -6.66504 45.501 -19.998s19.5 -30 19.5 -50c0 -24 -5 -45 -15 -63s-21 -33 -33 -45c-14 -14 -29.667 -26.333 -47 -37l-20 25c8 5.33301 15.667 11.666 23 18.999
c6 6 11.667 12.833 17 20.5s8.66602 16.167 9.99902 25.5c-20 0 -35.833 5.66699 -47.5 17s-17.5 25.666 -17.5 42.999s6.5 32.5 19.5 45.5s28.167 19.5 45.5 19.5z" />
    <glyph glyph-name="ncommaaccent" unicode="&#x146;" horiz-adv-x="525" 
d="M290 465c27.333 0 52.334 -4.49902 75.001 -13.499s42.167 -22 58.5 -39s29 -37.5 38 -61.5s13.5 -51 13.5 -81v-270h-115v255c0 30 -8.83301 54.167 -26.5 72.5s-40.5 27.5 -68.5 27.5s-50.833 -9.16699 -68.5 -27.5s-26.5 -42.5 -26.5 -72.5v-255h-115v460h85l20 -45
c11.333 9.33301 23.666 17.666 36.999 24.999c11.333 6 24.833 11.667 40.5 17s33.167 8 52.5 8zM265.001 -54.999c17.333 0 32.501 -6.66504 45.501 -19.998s19.5 -30 19.5 -50c0 -24 -5 -45 -15 -63s-21 -33 -33 -45c-14 -14 -29.667 -26.333 -47 -37l-20 25
c8 5.33301 15.667 11.666 23 18.999c6 6 11.667 12.833 17 20.5s8.66602 16.167 9.99902 25.5c-20 0 -35.833 5.66699 -47.5 17s-17.5 25.666 -17.5 42.999s6.5 32.5 19.5 45.5s28.167 19.5 45.5 19.5z" />
    <glyph glyph-name="Ncaron" unicode="&#x147;" horiz-adv-x="635" 
d="M570 630v-630h-105l-280 410v-410h-120v630h105l280 -410v410h120zM370 700h-100l-95 125h95l50 -65l50 65h95z" />
    <glyph glyph-name="ncaron" unicode="&#x148;" horiz-adv-x="525" 
d="M290 465c27.333 0 52.334 -4.49902 75.001 -13.499s42.167 -22 58.5 -39s29 -37.5 38 -61.5s13.5 -51 13.5 -81v-270h-115v255c0 30 -8.83301 54.167 -26.5 72.5s-40.5 27.5 -68.5 27.5s-50.833 -9.16699 -68.5 -27.5s-26.5 -42.5 -26.5 -72.5v-255h-115v460h85l20 -45
c11.333 9.33301 23.666 17.666 36.999 24.999c11.333 6 24.833 11.667 40.5 17s33.167 8 52.5 8zM325.001 520.001h-100l-95 125h95l50 -65l50 65h95z" />
    <glyph glyph-name="Omacron" unicode="&#x14c;" horiz-adv-x="670" 
d="M150 315c0 -30 5 -57.5 15 -82.5s23.333 -46.667 40 -65s36.167 -32.5 58.5 -42.5s46.166 -15 71.499 -15c24.667 0 48.334 5 71.001 15s42.334 24.167 59.001 42.5s30 40 40 65s15 52.5 15 82.5s-5 57.5 -15 82.5s-23.333 46.667 -40 65s-36.334 32.5 -59.001 42.5
s-46.334 15 -71.001 15c-25.333 0 -49.166 -5 -71.499 -15s-41.833 -24.167 -58.5 -42.5s-30 -40 -40 -65s-15 -52.5 -15 -82.5zM640 315c0 -45.333 -8.16699 -87.333 -24.5 -126s-38.333 -72.5 -66 -101.5s-60 -51.667 -97 -68s-76.167 -24.5 -117.5 -24.5
s-80.5 8.16699 -117.5 24.5s-69.333 39 -97 68s-49.667 62.833 -66 101.5s-24.5 80.667 -24.5 126c0 44.667 8.16699 86.5 24.5 125.5s38.333 73 66 102s60 51.667 97 68s76.167 24.5 117.5 24.5s80.5 -8.16699 117.5 -24.5s69.333 -39 97 -68s49.667 -63 66 -102
s24.5 -80.833 24.5 -125.5zM465 705h-260v85h260v-85z" />
    <glyph glyph-name="omacron" unicode="&#x14d;" horiz-adv-x="520" 
d="M145 230c0 -38 11 -68.333 33 -91s49.333 -34 82 -34s60 11.333 82 34s33 53 33 91s-11 68.333 -33 91s-49.333 34 -82 34s-60 -11.333 -82 -34s-33 -53 -33 -91zM490 230c0 -32.667 -6.16699 -63.167 -18.5 -91.5s-29 -53.166 -50 -74.499s-45.333 -38.166 -73 -50.499
s-57.167 -18.5 -88.5 -18.5s-60.833 6.16699 -88.5 18.5s-52 29.166 -73 50.499s-37.667 46.166 -50 74.499s-18.5 58.833 -18.5 91.5s6.16699 63.167 18.5 91.5s29 53.166 50 74.499s45.333 38.166 73 50.499s57.167 18.5 88.5 18.5s60.833 -6.16699 88.5 -18.5
s52 -29.166 73 -50.499s37.667 -46.166 50 -74.499s18.5 -58.833 18.5 -91.5zM390 525h-260v85h260v-85z" />
    <glyph glyph-name="Ohungarumlaut" unicode="&#x150;" horiz-adv-x="670" 
d="M150 315c0 -30 5 -57.5 15 -82.5s23.333 -46.667 40 -65s36.167 -32.5 58.5 -42.5s46.166 -15 71.499 -15c24.667 0 48.334 5 71.001 15s42.334 24.167 59.001 42.5s30 40 40 65s15 52.5 15 82.5s-5 57.5 -15 82.5s-23.333 46.667 -40 65s-36.334 32.5 -59.001 42.5
s-46.334 15 -71.001 15c-25.333 0 -49.166 -5 -71.499 -15s-41.833 -24.167 -58.5 -42.5s-30 -40 -40 -65s-15 -52.5 -15 -82.5zM640 315c0 -45.333 -8.16699 -87.333 -24.5 -126s-38.333 -72.5 -66 -101.5s-60 -51.667 -97 -68s-76.167 -24.5 -117.5 -24.5
s-80.5 8.16699 -117.5 24.5s-69.333 39 -97 68s-49.667 62.833 -66 101.5s-24.5 80.667 -24.5 126c0 44.667 8.16699 86.5 24.5 125.5s38.333 73 66 102s60 51.667 97 68s76.167 24.5 117.5 24.5s80.5 -8.16699 117.5 -24.5s69.333 -39 97 -68s49.667 -63 66 -102
s24.5 -80.833 24.5 -125.5zM285 825h110l-95 -125h-85zM445 825h110l-95 -125h-85z" />
    <glyph glyph-name="ohungarumlaut" unicode="&#x151;" horiz-adv-x="520" 
d="M145 230c0 -38 11 -68.333 33 -91s49.333 -34 82 -34s60 11.333 82 34s33 53 33 91s-11 68.333 -33 91s-49.333 34 -82 34s-60 -11.333 -82 -34s-33 -53 -33 -91zM490 230c0 -32.667 -6.16699 -63.167 -18.5 -91.5s-29 -53.166 -50 -74.499s-45.333 -38.166 -73 -50.499
s-57.167 -18.5 -88.5 -18.5s-60.833 6.16699 -88.5 18.5s-52 29.166 -73 50.499s-37.667 46.166 -50 74.499s-18.5 58.833 -18.5 91.5s6.16699 63.167 18.5 91.5s29 53.166 50 74.499s45.333 38.166 73 50.499s57.167 18.5 88.5 18.5s60.833 -6.16699 88.5 -18.5
s52 -29.166 73 -50.499s37.667 -46.166 50 -74.499s18.5 -58.833 18.5 -91.5zM210 640h110l-95 -125h-85zM370 640h110l-95 -125h-85z" />
    <glyph glyph-name="OE" unicode="&#x152;" horiz-adv-x="840" 
d="M805 115v-115h-465c-41.333 0 -80.666 8.5 -117.999 25.5s-70.333 39.833 -99 68.5s-51.334 62 -68.001 100s-25 78.333 -25 121s8.33301 83 25 121s39.334 71.333 68.001 100s61.667 51.5 99 68.5s76.666 25.5 117.999 25.5h455v-115h-280v-135h255v-115h-255v-150h290z
M395 115v399.998h-55c-25.333 0 -49.333 -5.33301 -72 -16s-42.834 -25 -60.501 -43s-31.667 -39.167 -42 -63.5s-15.5 -50.166 -15.5 -77.499s5.16699 -53.166 15.5 -77.499s24.333 -45.5 42 -63.5s37.834 -32.333 60.501 -43s46.667 -16 72 -16h55z" />
    <glyph glyph-name="oe" unicode="&#x153;" horiz-adv-x="820" 
d="M775 140c-6 -18.667 -15 -36.6631 -27 -53.9961s-26.333 -32.833 -43 -46.5s-36 -24.5 -58 -32.5s-46 -12 -72 -12c-25.333 0 -47.5 4.16699 -66.5 12.5s-35.167 17.5 -48.5 27.5c-15.333 12 -28.666 25.333 -39.999 40c-13.333 -14.667 -28.666 -28 -45.999 -40
c-14.667 -10 -32.5 -19.167 -53.5 -27.5s-44.5 -12.5 -70.5 -12.5c-28.667 0 -56.334 6.16699 -83.001 18.5s-50.167 29.166 -70.5 50.499s-36.5 46.166 -48.5 74.499s-18 58.833 -18 91.5s6 63.167 18 91.5s28.167 53.166 48.5 74.499s43.833 38.166 70.5 50.499
s54.334 18.5 83.001 18.5c26 0 49.5 -4.16699 70.5 -12.5s38.833 -17.5 53.5 -27.5c17.333 -12 32.666 -25.333 45.999 -40c12 14.667 26 28 42 40c13.333 10 29.5 19.167 48.5 27.5s40.5 12.5 64.5 12.5c30 0 58 -5.83301 84 -17.5s48.833 -28 68.5 -49
s35 -45.833 46 -74.5s16.5 -60 16.5 -94c0 -5.33301 -0.333008 -10.5 -1 -15.5l-2 -14.5c-0.666992 -5.33301 -1.33398 -10.333 -2.00098 -15h-315c5.33301 -22.667 16.666 -41.667 33.999 -57s41 -23 71 -23c15.333 0 27.833 1.66699 37.5 5s17.834 7.33301 24.501 12
c7.33301 5.33301 13.333 11.333 18 18h120zM145 230.004c0 -18.667 2.83301 -35.667 8.5 -51s13.334 -28.5 23.001 -39.5s20.834 -19.5 33.501 -25.5s26 -9 40 -9s27.333 3 40 9s23.834 14.5 33.501 25.5s17.334 24.167 23.001 39.5s8.5 32.333 8.5 51
s-2.83301 35.667 -8.5 51s-13.334 28.5 -23.001 39.5s-20.834 19.5 -33.501 25.5s-26 9 -40 9s-27.333 -3 -40 -9s-23.834 -14.5 -33.501 -25.5s-17.334 -24.167 -23.001 -39.5s-8.5 -32.333 -8.5 -51zM575 360.004c-28 0 -51.1689 -8.66699 -69.502 -26
s-30.166 -38.666 -35.499 -63.999h210c-5.33301 25.333 -17.166 46.666 -35.499 63.999s-41.5 26 -69.5 26z" />
    <glyph glyph-name="Racute" unicode="&#x154;" horiz-adv-x="560" 
d="M275 230l-90.002 -0.00195312v-230h-120v630h250c30 0 57.833 -5.16699 83.5 -15.5s47.834 -24.5 66.501 -42.5s33.334 -38.833 44.001 -62.5s16 -48.5 16 -74.5c0 -35.333 -7 -64.666 -21 -87.999s-29.667 -42.333 -47 -57c-20 -17.333 -42.333 -30.666 -67 -39.999
l150 -250h-135zM184.998 344.998h130c25.333 0 46.666 8.5 63.999 25.5s26 36.833 26 59.5s-8.66699 42.5 -26 59.5s-38.666 25.5 -63.999 25.5h-130v-170zM294.998 824.998h110l-90 -125h-85z" />
    <glyph glyph-name="racute" unicode="&#x155;" horiz-adv-x="325" 
d="M270 465c5.33301 0 10 -0.333984 14 -1.00098s7.66699 -1.33398 11 -2.00098l10 -2v-120c-3.33301 0.666992 -7 1.33398 -11 2.00098c-3.33301 0.666992 -7.5 1.33398 -12.5 2.00098s-10.5 1 -16.5 1c-28 0 -50.833 -9.16699 -68.5 -27.5s-26.5 -42.5 -26.5 -72.5v-245
h-115v460h85l20 -50c8 10 17.667 19 29 27c9.33301 7.33301 20.833 13.833 34.5 19.5s29.167 8.5 46.5 8.5zM205 639.999h110l-90 -125h-85z" />
    <glyph glyph-name="Rcommaaccent" unicode="&#x156;" horiz-adv-x="560" 
d="M275 230l-90.002 -0.00195312v-230h-120v630h250c30 0 57.833 -5.16699 83.5 -15.5s47.834 -24.5 66.501 -42.5s33.334 -38.833 44.001 -62.5s16 -48.5 16 -74.5c0 -35.333 -7 -64.666 -21 -87.999s-29.667 -42.333 -47 -57c-20 -17.333 -42.333 -30.666 -67 -39.999
l150 -250h-135zM184.998 344.998h130c25.333 0 46.666 8.5 63.999 25.5s26 36.833 26 59.5s-8.66699 42.5 -26 59.5s-38.666 25.5 -63.999 25.5h-130v-170zM294.998 -55.002c17.333 0 32.501 -6.66504 45.501 -19.998s19.5 -30 19.5 -50c0 -24 -5 -45 -15 -63
s-21 -33 -33 -45c-14 -14 -29.667 -26.333 -47 -37l-20 25c8 5.33301 15.667 11.666 23 18.999c6 6 11.667 12.833 17 20.5s8.66602 16.167 9.99902 25.5c-20 0 -35.833 5.66699 -47.5 17s-17.5 25.666 -17.5 42.999s6.5 32.5 19.5 45.5s28.167 19.5 45.5 19.5z" />
    <glyph glyph-name="rcommaaccent" unicode="&#x157;" horiz-adv-x="325" 
d="M270 465c5.33301 0 10 -0.333984 14 -1.00098s7.66699 -1.33398 11 -2.00098l10 -2v-120c-3.33301 0.666992 -7 1.33398 -11 2.00098c-3.33301 0.666992 -7.5 1.33398 -12.5 2.00098s-10.5 1 -16.5 1c-28 0 -50.833 -9.16699 -68.5 -27.5s-26.5 -42.5 -26.5 -72.5v-245
h-115v460h85l20 -50c8 10 17.667 19 29 27c9.33301 7.33301 20.833 13.833 34.5 19.5s29.167 8.5 46.5 8.5zM115 -55.001c17.333 0 32.501 -6.66504 45.501 -19.998s19.5 -30 19.5 -50c0 -24 -5 -45 -15 -63s-21 -33 -33 -45c-14 -14 -29.667 -26.333 -47 -37l-20 25
c8 5.33301 15.667 11.666 23 18.999c6 6 11.667 12.833 17 20.5s8.66602 16.167 9.99902 25.5c-20 0 -35.833 5.66699 -47.5 17s-17.5 25.666 -17.5 42.999s6.5 32.5 19.5 45.5s28.167 19.5 45.5 19.5z" />
    <glyph glyph-name="Rcaron" unicode="&#x158;" horiz-adv-x="560" 
d="M275 230l-90.002 -0.00195312v-230h-120v630h250c30 0 57.833 -5.16699 83.5 -15.5s47.834 -24.5 66.501 -42.5s33.334 -38.833 44.001 -62.5s16 -48.5 16 -74.5c0 -35.333 -7 -64.666 -21 -87.999s-29.667 -42.333 -47 -57c-20 -17.333 -42.333 -30.666 -67 -39.999
l150 -250h-135zM184.998 344.998h130c25.333 0 46.666 8.5 63.999 25.5s26 36.833 26 59.5s-8.66699 42.5 -26 59.5s-38.666 25.5 -63.999 25.5h-130v-170zM334.998 699.998h-100l-95 125h95l50 -65l50 65h95z" />
    <glyph glyph-name="rcaron" unicode="&#x159;" horiz-adv-x="325" 
d="M270 465c5.33301 0 10 -0.333984 14 -1.00098s7.66699 -1.33398 11 -2.00098l10 -2v-120c-3.33301 0.666992 -7 1.33398 -11 2.00098c-3.33301 0.666992 -7.5 1.33398 -12.5 2.00098s-10.5 1 -16.5 1c-28 0 -50.833 -9.16699 -68.5 -27.5s-26.5 -42.5 -26.5 -72.5v-245
h-115v460h85l20 -50c8 10 17.667 19 29 27c9.33301 7.33301 20.833 13.833 34.5 19.5s29.167 8.5 46.5 8.5zM235 514.999h-100l-95 125h95l50 -65l50 65h95z" />
    <glyph glyph-name="Sacute" unicode="&#x15a;" horiz-adv-x="520" 
d="M40 454c0 24 5.16504 47.002 15.498 69.002s25 41.167 44 57.5s42 29.5 69 39.5s57.5 15 91.5 15c31.333 0 59.833 -5 85.5 -15s47.834 -24 66.501 -42s33 -39.167 43 -63.5s15 -50.833 15 -79.5h-115c0 28 -8.33301 50 -25 66s-40 24 -70 24s-53.333 -7.33301 -70 -22
s-25 -30.667 -25 -48c0 -18.667 8 -33 24 -43s36 -19 60 -27l78.5 -25c28.333 -8.66699 54.5 -20.334 78.5 -35.001s44 -33.834 60 -57.501s24 -54.5 24 -92.5c0 -22.667 -5.5 -44.667 -16.5 -66s-26.5 -40.5 -46.5 -57.5s-44.167 -30.667 -72.5 -41
s-59.833 -15.5 -94.5 -15.5c-35.333 0 -66.833 5 -94.5 15s-51.167 24.167 -70.5 42.5s-34.166 40 -44.499 65s-15.5 52.5 -15.5 82.5h120c0 -28 9.33301 -50.833 28 -68.5s44.334 -26.5 77.001 -26.5c35.333 0 61.666 7.5 78.999 22.5s26 32.5 26 52.5
c0 19.333 -8 34.333 -24 45s-36 20.167 -60 28.5s-50.167 16.5 -78.5 24.5s-54.5 19 -78.5 33s-44 32.167 -60 54.5s-24 51.833 -24 88.5zM284.998 825.002h110l-90 -125h-85z" />
    <glyph glyph-name="sacute" unicode="&#x15b;" horiz-adv-x="420" 
d="M140 145c2.66699 -15.333 9.99902 -28.3281 21.999 -38.9951s28 -16 48 -16s35.833 5.16699 47.5 15.5s17.5 21.833 17.5 34.5c0 10.667 -5.83301 19 -17.5 25s-26.167 11.5 -43.5 16.5s-36.166 10.167 -56.499 15.5s-39.166 13.166 -56.499 23.499
s-31.833 23.666 -43.5 39.999s-17.5 37.833 -17.5 64.5c0 18.667 3.83301 36.5 11.5 53.5s18.834 31.833 33.501 44.5s32 22.834 52 30.501s42.667 11.5 68 11.5c55.333 0 97.833 -13.333 127.5 -40s47.167 -60 52.5 -100h-110c-2.66699 10 -9.83398 20 -21.501 30
s-26.167 15 -43.5 15s-30.833 -4.33301 -40.5 -13s-14.5 -19.334 -14.5 -32.001c0 -10.667 5.83301 -19 17.5 -25s26.167 -11.5 43.5 -16.5l56.5 -16c20.333 -5.66699 39.166 -13.834 56.499 -24.501s31.833 -24.5 43.5 -41.5s17.5 -39.167 17.5 -66.5
c0 -18.667 -4 -36.5 -12 -53.5s-19.333 -31.833 -34 -44.5s-32.5 -22.834 -53.5 -30.501s-44.5 -11.5 -70.5 -11.5c-60 0 -105.5 13.667 -136.5 41s-48.833 63.666 -53.5 108.999h110zM228.999 640.005h110l-90 -125h-85z" />
    <glyph glyph-name="Scedilla" unicode="&#x15e;" horiz-adv-x="520" 
d="M40 454c0 24 5.16602 47 15.499 69s25 41.167 44 57.5s42 29.5 69 39.5s57.5 15 91.5 15c31.333 0 59.833 -5 85.5 -15s47.834 -24 66.501 -42s33 -39.167 43 -63.5s15 -50.833 15 -79.5h-115c0 28 -8.33301 50 -25 66s-40 24 -70 24s-53.333 -7.33301 -70 -22
s-25 -30.667 -25 -48c0 -18.667 8 -33 24 -43s36 -19 60 -27l78.5 -25c28.333 -8.66699 54.5 -20.334 78.5 -35.001s44 -33.834 60 -57.501s24 -54.5 24 -92.5c0 -21.333 -5 -42.166 -15 -62.499s-24.167 -38.833 -42.5 -55.5s-40 -30.5 -65 -41.5
s-52.5 -17.833 -82.5 -20.5l-15 -35c13.333 -2 25.666 -6.33301 36.999 -13c9.33301 -5.33301 18 -13 26 -23s12 -23 12 -39c0 -20 -8 -37.5 -24 -52.5s-43 -22.5 -81 -22.5c-14.667 0 -27.667 1.66699 -39 5c-6 1.33301 -11.333 3 -16 5v45
c3.33301 -1.33301 7.33301 -2.33301 12 -3c3.33301 -0.666992 7.5 -1.16699 12.5 -1.5s10.167 -0.5 15.5 -0.5c16 0 28.333 2.83301 37 8.5s13 12.834 13 21.501c0 7.33301 -4 14.166 -12 20.499s-20.667 9.5 -38 9.5c-5.33301 0 -10.666 -0.833008 -15.999 -2.5
s-8.33301 -2.5 -9 -2.5l35 80c-30 2.66699 -57.333 9.33398 -82 20.001s-45.667 25 -63 43s-30.833 39 -40.5 63s-14.5 50.333 -14.5 79h120c0 -28 9.33301 -50.833 28 -68.5s44.334 -26.5 77.001 -26.5c35.333 0 61.666 7.5 78.999 22.5s26 32.5 26 52.5
c0 19.333 -8 34.333 -24 45s-36 20.167 -60 28.5s-50.167 16.5 -78.5 24.5s-54.5 19 -78.5 33s-44 32.167 -60 54.5s-24 51.833 -24 88.5z" />
    <glyph glyph-name="scedilla" unicode="&#x15f;" horiz-adv-x="420" 
d="M140 145c2.66699 -15.333 9.99902 -28.3311 21.999 -38.998s28 -16 48 -16s35.833 5.16699 47.5 15.5s17.5 21.833 17.5 34.5c0 10.667 -5.83301 19 -17.5 25s-26.167 11.5 -43.5 16.5s-36.166 10.167 -56.499 15.5s-39.166 13.166 -56.499 23.499
s-31.833 23.666 -43.5 39.999s-17.5 37.833 -17.5 64.5c0 18.667 3.83301 36.5 11.5 53.5s18.834 31.833 33.501 44.5s32 22.834 52 30.501s42.667 11.5 68 11.5c55.333 0 97.833 -13.333 127.5 -40s47.167 -60 52.5 -100h-110c-2.66699 10 -9.83398 20 -21.501 30
s-26.167 15 -43.5 15s-30.833 -4.33301 -40.5 -13s-14.5 -19.334 -14.5 -32.001c0 -10.667 5.83301 -19 17.5 -25s26.167 -11.5 43.5 -16.5l56.5 -16c20.333 -5.66699 39.166 -13.834 56.499 -24.501s31.833 -24.5 43.5 -41.5s17.5 -39.167 17.5 -66.5
c0 -17.333 -3.66699 -34 -11 -50s-17.5 -30.167 -30.5 -42.5s-28.667 -22.666 -47 -30.999s-38.833 -13.833 -61.5 -16.5l-15 -35c13.333 -2 25.666 -6.33301 36.999 -13c9.33301 -5.33301 18 -13 26 -23s12 -23 12 -39c0 -20 -8 -37.5 -24 -52.5s-43 -22.5 -81 -22.5
c-14.667 0 -27.667 1.66699 -39 5c-6 1.33301 -11.333 3 -16 5v45c3.33301 -1.33301 7.33301 -2.33301 12 -3c3.33301 -0.666992 7.5 -1.16699 12.5 -1.5s10.167 -0.5 15.5 -0.5c16 0 28.333 2.83301 37 8.5s13 12.834 13 21.501c0 7.33301 -4 14.166 -12 20.499
s-20.667 9.5 -38 9.5c-5.33301 0 -10.666 -0.833008 -15.999 -2.5s-8.33301 -2.5 -9 -2.5l30 80c-93.333 10 -145 60 -155 150h110z" />
    <glyph glyph-name="Scaron" unicode="&#x160;" horiz-adv-x="520" 
d="M40 454c0 24 5.16504 47.002 15.498 69.002s25 41.167 44 57.5s42 29.5 69 39.5s57.5 15 91.5 15c31.333 0 59.833 -5 85.5 -15s47.834 -24 66.501 -42s33 -39.167 43 -63.5s15 -50.833 15 -79.5h-115c0 28 -8.33301 50 -25 66s-40 24 -70 24s-53.333 -7.33301 -70 -22
s-25 -30.667 -25 -48c0 -18.667 8 -33 24 -43s36 -19 60 -27l78.5 -25c28.333 -8.66699 54.5 -20.334 78.5 -35.001s44 -33.834 60 -57.501s24 -54.5 24 -92.5c0 -22.667 -5.5 -44.667 -16.5 -66s-26.5 -40.5 -46.5 -57.5s-44.167 -30.667 -72.5 -41
s-59.833 -15.5 -94.5 -15.5c-35.333 0 -66.833 5 -94.5 15s-51.167 24.167 -70.5 42.5s-34.166 40 -44.499 65s-15.5 52.5 -15.5 82.5h120c0 -28 9.33301 -50.833 28 -68.5s44.334 -26.5 77.001 -26.5c35.333 0 61.666 7.5 78.999 22.5s26 32.5 26 52.5
c0 19.333 -8 34.333 -24 45s-36 20.167 -60 28.5s-50.167 16.5 -78.5 24.5s-54.5 19 -78.5 33s-44 32.167 -60 54.5s-24 51.833 -24 88.5zM309.998 700.002h-100l-95 125h95l50 -65l50 65h95z" />
    <glyph glyph-name="scaron" unicode="&#x161;" horiz-adv-x="420" 
d="M140 145c2.66699 -15.333 9.99902 -28.3281 21.999 -38.9951s28 -16 48 -16s35.833 5.16699 47.5 15.5s17.5 21.833 17.5 34.5c0 10.667 -5.83301 19 -17.5 25s-26.167 11.5 -43.5 16.5s-36.166 10.167 -56.499 15.5s-39.166 13.166 -56.499 23.499
s-31.833 23.666 -43.5 39.999s-17.5 37.833 -17.5 64.5c0 18.667 3.83301 36.5 11.5 53.5s18.834 31.833 33.501 44.5s32 22.834 52 30.501s42.667 11.5 68 11.5c55.333 0 97.833 -13.333 127.5 -40s47.167 -60 52.5 -100h-110c-2.66699 10 -9.83398 20 -21.501 30
s-26.167 15 -43.5 15s-30.833 -4.33301 -40.5 -13s-14.5 -19.334 -14.5 -32.001c0 -10.667 5.83301 -19 17.5 -25s26.167 -11.5 43.5 -16.5l56.5 -16c20.333 -5.66699 39.166 -13.834 56.499 -24.501s31.833 -24.5 43.5 -41.5s17.5 -39.167 17.5 -66.5
c0 -18.667 -4 -36.5 -12 -53.5s-19.333 -31.833 -34 -44.5s-32.5 -22.834 -53.5 -30.501s-44.5 -11.5 -70.5 -11.5c-60 0 -105.5 13.667 -136.5 41s-48.833 63.666 -53.5 108.999h110zM264.999 520.005h-100l-95 125h95l50 -65l50 65h95z" />
    <glyph glyph-name="Tcommaaccent" unicode="&#x162;" horiz-adv-x="520" 
d="M15 630h490v-115h-185v-515h-120v515h-185v115zM265 -55c17.333 0 32.501 -6.66504 45.501 -19.998s19.5 -30 19.5 -50c0 -24 -5 -45 -15 -63s-21 -33 -33 -45c-14 -14 -29.667 -26.333 -47 -37l-20 25c8 5.33301 15.667 11.666 23 18.999c6 6 11.667 12.833 17 20.5
s8.66602 16.167 9.99902 25.5c-20 0 -35.833 5.66699 -47.5 17s-17.5 25.666 -17.5 42.999s6.5 32.5 19.5 45.5s28.167 19.5 45.5 19.5z" />
    <glyph glyph-name="tcommaaccent" unicode="&#x163;" horiz-adv-x="345" 
d="M105 570l100.001 -0.000976562v-110h100v-105h-100v-190c0 -20 5.83301 -35.833 17.5 -47.5s27.5 -17.5 47.5 -17.5c5.33301 0 9.66602 0.166992 12.999 0.5s6.33301 0.833008 9 1.5s5.33398 1.66699 8.00098 3v-100c-4.66699 -2 -10 -3.66699 -16 -5
c-11.333 -3.33301 -24.333 -5 -39 -5c-22.667 0 -43.5 3.83301 -62.5 11.5s-35.333 18.834 -49 33.501s-24.334 32 -32.001 52s-11.5 42.667 -11.5 68v195h-70v95h30c36.667 0 55 18.333 55 55v65zM200.001 -55.001c17.333 0 32.501 -6.66504 45.501 -19.998
s19.5 -30 19.5 -50c0 -24 -5 -45 -15 -63s-21 -33 -33 -45c-14 -14 -29.667 -26.333 -47 -37l-20 25c8 5.33301 15.667 11.666 23 18.999c6 6 11.667 12.833 17 20.5s8.66602 16.167 9.99902 25.5c-20 0 -35.833 5.66699 -47.5 17s-17.5 25.666 -17.5 42.999
s6.5 32.5 19.5 45.5s28.167 19.5 45.5 19.5z" />
    <glyph glyph-name="Tcaron" unicode="&#x164;" horiz-adv-x="520" 
d="M15 630h490v-115h-185v-515h-120v515h-185v115zM310 700h-100l-95 125h95l50 -65l50 65h95z" />
    <glyph glyph-name="tcaron" unicode="&#x165;" horiz-adv-x="380" 
d="M330 630h100l-60 -125h-75zM105 570l100.001 -0.000976562v-110h100v-105h-100v-190c0 -20 5.83301 -35.833 17.5 -47.5s27.5 -17.5 47.5 -17.5c5.33301 0 9.66602 0.166992 12.999 0.5s6.33301 0.833008 9 1.5s5.33398 1.66699 8.00098 3v-100
c-4.66699 -2 -10 -3.66699 -16 -5c-11.333 -3.33301 -24.333 -5 -39 -5c-22.667 0 -43.5 3.83301 -62.5 11.5s-35.333 18.834 -49 33.501s-24.334 32 -32.001 52s-11.5 42.667 -11.5 68v195h-70v95h30c36.667 0 55 18.333 55 55v65z" />
    <glyph glyph-name="Umacron" unicode="&#x16a;" horiz-adv-x="620" 
d="M310 110c40 0 71.665 11.667 94.998 35s35 55 35 95v390h120v-390c0 -35.333 -6.16699 -67.833 -18.5 -97.5s-29.666 -55.5 -51.999 -77.5s-48.833 -39.167 -79.5 -51.5s-64 -18.5 -100 -18.5s-69.333 6.16699 -100 18.5s-57.167 29.5 -79.5 51.5
s-39.666 47.833 -51.999 77.5s-18.5 62.167 -18.5 97.5v390h120v-390c0 -40 11.667 -71.667 35 -95s55 -35 95 -35zM439.998 700h-260v85h260v-85z" />
    <glyph glyph-name="umacron" unicode="&#x16b;" horiz-adv-x="530" 
d="M240 -5c-27.333 0 -52.334 4.49902 -75.001 13.499s-42.167 22 -58.5 39s-29 37.5 -38 61.5s-13.5 51 -13.5 81v270h115v-255c0 -30 8.83301 -54.167 26.5 -72.5s40.5 -27.5 68.5 -27.5s50.833 9.16699 68.5 27.5s26.5 42.5 26.5 72.5v255h115v-460h-85l-20 45
c-11.333 -9.33301 -23.666 -17.666 -36.999 -24.999c-11.333 -6.66699 -25 -12.5 -41 -17.5s-33.333 -7.5 -52 -7.5zM394.999 524.999h-260v85h260v-85z" />
    <glyph glyph-name="Uring" unicode="&#x16e;" horiz-adv-x="620" 
d="M310 110c40 0 71.665 11.667 94.998 35s35 55 35 95v390h120v-390c0 -35.333 -6.16699 -67.833 -18.5 -97.5s-29.666 -55.5 -51.999 -77.5s-48.833 -39.167 -79.5 -51.5s-64 -18.5 -100 -18.5s-69.333 6.16699 -100 18.5s-57.167 29.5 -79.5 51.5
s-39.666 47.833 -51.999 77.5s-18.5 62.167 -18.5 97.5v390h120v-390c0 -40 11.667 -71.667 35 -95s55 -35 95 -35zM344.998 770c0 10 -3.33301 18.333 -10 25s-15 10 -25 10s-18.333 -3.33301 -25 -10s-10 -15 -10 -25s3.33301 -18.333 10 -25s15 -10 25 -10
s18.333 3.33301 25 10s10 15 10 25zM404.998 770c0 -25.333 -8.83301 -46.666 -26.5 -63.999s-40.5 -26 -68.5 -26s-50.833 8.66699 -68.5 26s-26.5 38.666 -26.5 63.999s8.83301 46.666 26.5 63.999s40.5 26 68.5 26s50.833 -8.66699 68.5 -26s26.5 -38.666 26.5 -63.999z
" />
    <glyph glyph-name="uring" unicode="&#x16f;" horiz-adv-x="530" 
d="M240 -5c-27.333 0 -52.334 4.49902 -75.001 13.499s-42.167 22 -58.5 39s-29 37.5 -38 61.5s-13.5 51 -13.5 81v270h115v-255c0 -30 8.83301 -54.167 26.5 -72.5s40.5 -27.5 68.5 -27.5s50.833 9.16699 68.5 27.5s26.5 42.5 26.5 72.5v255h115v-460h-85l-20 45
c-11.333 -9.33301 -23.666 -17.666 -36.999 -24.999c-11.333 -6.66699 -25 -12.5 -41 -17.5s-33.333 -7.5 -52 -7.5zM299.999 589.999c0 10 -3.33301 18.333 -10 25s-15 10 -25 10s-18.333 -3.33301 -25 -10s-10 -15 -10 -25s3.33301 -18.333 10 -25s15 -10 25 -10
s18.333 3.33301 25 10s10 15 10 25zM359.999 589.999c0 -25.333 -8.83301 -46.666 -26.5 -63.999s-40.5 -26 -68.5 -26s-50.833 8.66699 -68.5 26s-26.5 38.666 -26.5 63.999s8.83301 46.666 26.5 63.999s40.5 26 68.5 26s50.833 -8.66699 68.5 -26
s26.5 -38.666 26.5 -63.999z" />
    <glyph glyph-name="Uhungarumlaut" unicode="&#x170;" horiz-adv-x="620" 
d="M310 110c40 0 71.665 11.667 94.998 35s35 55 35 95v390h120v-390c0 -35.333 -6.16699 -67.833 -18.5 -97.5s-29.666 -55.5 -51.999 -77.5s-48.833 -39.167 -79.5 -51.5s-64 -18.5 -100 -18.5s-69.333 6.16699 -100 18.5s-57.167 29.5 -79.5 51.5
s-39.666 47.833 -51.999 77.5s-18.5 62.167 -18.5 97.5v390h120v-390c0 -40 11.667 -71.667 35 -95s55 -35 95 -35zM249.998 825h110l-95 -125h-85zM409.998 825h110l-95 -125h-85z" />
    <glyph glyph-name="uhungarumlaut" unicode="&#x171;" horiz-adv-x="530" 
d="M240 -5c-27.333 0 -52.334 4.49902 -75.001 13.499s-42.167 22 -58.5 39s-29 37.5 -38 61.5s-13.5 51 -13.5 81v270h115v-255c0 -30 8.83301 -54.167 26.5 -72.5s40.5 -27.5 68.5 -27.5s50.833 9.16699 68.5 27.5s26.5 42.5 26.5 72.5v255h115v-460h-85l-20 45
c-11.333 -9.33301 -23.666 -17.666 -36.999 -24.999c-11.333 -6.66699 -25 -12.5 -41 -17.5s-33.333 -7.5 -52 -7.5zM209.999 644.999h110l-95 -125h-85zM369.999 644.999h110l-95 -125h-85z" />
    <glyph glyph-name="Uogonek" unicode="&#x172;" horiz-adv-x="620" 
d="M310 110c40 0 71.6689 11.666 95.002 34.999s35 55 35 95v390h120v-390c0 -34 -5.5 -65.167 -16.5 -93.5s-26 -53 -45 -74s-41.333 -38.167 -67 -51.5s-52.834 -22 -81.501 -26c-6 -7.33301 -11 -15 -15 -23c-4 -7.33301 -7.5 -15.333 -10.5 -24s-4.5 -18 -4.5 -28
c0 -12.667 4.5 -23.334 13.5 -32.001s21.167 -13 36.5 -13c5.33301 0 10.166 0.166992 14.499 0.5s8.5 0.833008 12.5 1.5s8.33301 1.66699 13 3v-57c-5.33301 -1.33301 -11.333 -2.66602 -18 -3.99902c-5.33301 -1.33301 -11.666 -2.33301 -18.999 -3s-15 -1 -23 -1
c-32.667 0 -58.334 8.66699 -77.001 26s-28 38.666 -28 63.999c0 11.333 2 22.333 6 33s8.66699 20.334 14 29.001c6 10 12.667 19.333 20 28c-32.667 2.66699 -62.667 10.334 -90 23.001s-51 29.667 -71 51s-35.667 46.333 -47 75s-17 60.667 -17 96v390h120v-390
c0 -40 11.667 -71.667 35 -95s55 -35 95 -35z" />
    <glyph glyph-name="uogonek" unicode="&#x173;" horiz-adv-x="530" 
d="M370 45c-11.333 -9.33301 -23.667 -17.666 -37 -24.999c-11.333 -6.66699 -25 -12.5 -41 -17.5s-33.333 -7.5 -52 -7.5c-27.333 0 -52.333 4.5 -75 13.5s-42.167 22 -58.5 39s-29 37.5 -38 61.5s-13.5 51 -13.5 81v270h115v-255c0 -30 8.83301 -54.167 26.5 -72.5
s40.5 -27.5 68.5 -27.5s50.833 9.16699 68.5 27.5s26.5 42.5 26.5 72.5v255h115v-460h-20c-6.66699 -8.66699 -12.667 -17.667 -18 -27c-4.66699 -8 -8.66699 -16.667 -12 -26s-5 -18.333 -5 -27c0 -12.667 4.5 -23.334 13.5 -32.001s21.167 -13 36.5 -13
c5.33301 0 10.166 0.166992 14.499 0.5s8.5 0.833008 12.5 1.5s8.33301 1.66699 13 3v-57c-5.33301 -1.33301 -11.333 -2.66602 -18 -3.99902c-5.33301 -1.33301 -11.666 -2.33301 -18.999 -3s-15 -1 -23 -1c-32.667 0 -58.334 8.66699 -77.001 26s-28 38.666 -28 63.999
c0 12.667 2.33301 24.5 7 35.5s9.66699 21.167 15 30.5c6.66699 10 14.334 19.667 23.001 29z" />
    <glyph glyph-name="Ydieresis" unicode="&#x178;" horiz-adv-x="550" 
d="M415 630h130l-210 -390v-240h-120v240l-210 390h130l140 -270zM250 755c0 -17.333 -6.5 -32.5 -19.5 -45.5s-28.167 -19.5 -45.5 -19.5s-32.5 6.5 -45.5 19.5s-19.5 28.167 -19.5 45.5s6.5 32.5 19.5 45.5s28.167 19.5 45.5 19.5s32.5 -6.5 45.5 -19.5
s19.5 -28.167 19.5 -45.5zM430 755c0 -17.333 -6.5 -32.5 -19.5 -45.5s-28.167 -19.5 -45.5 -19.5s-32.5 6.5 -45.5 19.5s-19.5 28.167 -19.5 45.5s6.5 32.5 19.5 45.5s28.167 19.5 45.5 19.5s32.5 -6.5 45.5 -19.5s19.5 -28.167 19.5 -45.5z" />
    <glyph glyph-name="Zacute" unicode="&#x179;" horiz-adv-x="515" 
d="M185 115h300v-115h-455v95l285 420h-275v115h430v-95zM280 825h110l-90 -125h-85z" />
    <glyph glyph-name="zacute" unicode="&#x17a;" horiz-adv-x="415" 
d="M230 350h-200v110h345v-95l-200 -255h210v-110h-355v95zM225 645h110l-90 -125h-85z" />
    <glyph glyph-name="Zdotaccent" unicode="&#x17b;" horiz-adv-x="515" 
d="M185 115h300v-115h-455v95l285 420h-275v115h430v-95zM325 759c0 -17.333 -6.5 -32.5 -19.5 -45.5s-28.167 -19.5 -45.5 -19.5s-32.5 6.5 -45.5 19.5s-19.5 28.167 -19.5 45.5s6.5 32.5 19.5 45.5s28.167 19.5 45.5 19.5s32.5 -6.5 45.5 -19.5s19.5 -28.167 19.5 -45.5z
" />
    <glyph glyph-name="zdotaccent" unicode="&#x17c;" horiz-adv-x="415" 
d="M230 350h-200v110h345v-95l-200 -255h210v-110h-355v95zM275 585c0 -17.333 -6.5 -32.5 -19.5 -45.5s-28.167 -19.5 -45.5 -19.5s-32.5 6.5 -45.5 19.5s-19.5 28.167 -19.5 45.5s6.5 32.5 19.5 45.5s28.167 19.5 45.5 19.5s32.5 -6.5 45.5 -19.5s19.5 -28.167 19.5 -45.5
z" />
    <glyph glyph-name="Zcaron" unicode="&#x17d;" horiz-adv-x="515" 
d="M185 115h300v-115h-455v95l285 420h-275v115h430v-95zM310 700h-100l-95 125h95l50 -65l50 65h95z" />
    <glyph glyph-name="zcaron" unicode="&#x17e;" horiz-adv-x="415" 
d="M230 350h-200v110h345v-95l-200 -255h210v-110h-355v95zM255 520h-100l-95 125h95l50 -65l50 65h95z" />
    <glyph glyph-name="florin" unicode="&#x192;" horiz-adv-x="375" 
d="M235 285l-29 -142.001c-4 -18 -7.66699 -35.833 -11 -53.5s-6.5 -33.5 -9.5 -47.5l-7.5 -35c-2 -9.33301 -3 -15 -3 -17c-10 -52.667 -28.5 -91.667 -55.5 -117s-66.833 -38 -119.5 -38c-15.333 0 -29 1.66699 -41 5c-6.66699 1.33301 -13 3 -19 5l25 100
c3.33301 -1.33301 7.33301 -2.33301 12 -3c3.33301 -0.666992 7.5 -1.16699 12.5 -1.5s10.167 -0.5 15.5 -0.5c34 0 55.667 21.667 65 65l55 280h-75l20 105h75c0.666992 2.66699 1.83398 7.66699 3.50098 15l5.5 25l6 27.5l5 22.5c10 52.667 28.5 91.667 55.5 117
s66.833 38 119.5 38c7.33301 0 14.666 -0.5 21.999 -1.5s13.666 -2.16699 18.999 -3.5c6.66699 -2 13 -3.66699 19 -5l-25 -100c-4.66699 0.666992 -9 1.33398 -13 2.00098l-12.5 2c-4.33301 0.666992 -9.16602 1 -14.499 1c-34 0 -55.667 -21.667 -65 -65
c-1.33301 -3.33301 -2.83301 -9 -4.5 -17s-3.16699 -16.333 -4.5 -25c-2 -10 -4 -21 -6 -33h95l-20 -105h-95z" />
    <glyph glyph-name="Scommaaccent" unicode="&#x218;" horiz-adv-x="520" 
d="M40 454c0 24 5.16504 47.002 15.498 69.002s25 41.167 44 57.5s42 29.5 69 39.5s57.5 15 91.5 15c31.333 0 59.833 -5 85.5 -15s47.834 -24 66.501 -42s33 -39.167 43 -63.5s15 -50.833 15 -79.5h-115c0 28 -8.33301 50 -25 66s-40 24 -70 24s-53.333 -7.33301 -70 -22
s-25 -30.667 -25 -48c0 -18.667 8 -33 24 -43s36 -19 60 -27l78.5 -25c28.333 -8.66699 54.5 -20.334 78.5 -35.001s44 -33.834 60 -57.501s24 -54.5 24 -92.5c0 -22.667 -5.5 -44.667 -16.5 -66s-26.5 -40.5 -46.5 -57.5s-44.167 -30.667 -72.5 -41
s-59.833 -15.5 -94.5 -15.5c-35.333 0 -66.833 5 -94.5 15s-51.167 24.167 -70.5 42.5s-34.166 40 -44.499 65s-15.5 52.5 -15.5 82.5h120c0 -28 9.33301 -50.833 28 -68.5s44.334 -26.5 77.001 -26.5c35.333 0 61.666 7.5 78.999 22.5s26 32.5 26 52.5
c0 19.333 -8 34.333 -24 45s-36 20.167 -60 28.5s-50.167 16.5 -78.5 24.5s-54.5 19 -78.5 33s-44 32.167 -60 54.5s-24 51.833 -24 88.5zM264.998 -54.998c17.333 0 32.501 -6.66504 45.501 -19.998s19.5 -30 19.5 -50c0 -24 -5 -45 -15 -63s-21 -33 -33 -45
c-14 -14 -29.667 -26.333 -47 -37l-20 25c8 5.33301 15.667 11.666 23 18.999c6 6 11.667 12.833 17 20.5s8.66602 16.167 9.99902 25.5c-20 0 -35.833 5.66699 -47.5 17s-17.5 25.666 -17.5 42.999s6.5 32.5 19.5 45.5s28.167 19.5 45.5 19.5z" />
    <glyph glyph-name="scommaaccent" unicode="&#x219;" horiz-adv-x="420" 
d="M140 145c2.66699 -15.333 9.99902 -28.3281 21.999 -38.9951s28 -16 48 -16s35.833 5.16699 47.5 15.5s17.5 21.833 17.5 34.5c0 10.667 -5.83301 19 -17.5 25s-26.167 11.5 -43.5 16.5s-36.166 10.167 -56.499 15.5s-39.166 13.166 -56.499 23.499
s-31.833 23.666 -43.5 39.999s-17.5 37.833 -17.5 64.5c0 18.667 3.83301 36.5 11.5 53.5s18.834 31.833 33.501 44.5s32 22.834 52 30.501s42.667 11.5 68 11.5c55.333 0 97.833 -13.333 127.5 -40s47.167 -60 52.5 -100h-110c-2.66699 10 -9.83398 20 -21.501 30
s-26.167 15 -43.5 15s-30.833 -4.33301 -40.5 -13s-14.5 -19.334 -14.5 -32.001c0 -10.667 5.83301 -19 17.5 -25s26.167 -11.5 43.5 -16.5l56.5 -16c20.333 -5.66699 39.166 -13.834 56.499 -24.501s31.833 -24.5 43.5 -41.5s17.5 -39.167 17.5 -66.5
c0 -18.667 -4 -36.5 -12 -53.5s-19.333 -31.833 -34 -44.5s-32.5 -22.834 -53.5 -30.501s-44.5 -11.5 -70.5 -11.5c-60 0 -105.5 13.667 -136.5 41s-48.833 63.666 -53.5 108.999h110zM214.999 -54.9951c17.333 0 32.501 -6.66504 45.501 -19.998s19.5 -30 19.5 -50
c0 -24 -5 -45 -15 -63s-21 -33 -33 -45c-14 -14 -29.667 -26.333 -47 -37l-20 25c8 5.33301 15.667 11.666 23 18.999c6 6 11.667 12.833 17 20.5s8.66602 16.167 9.99902 25.5c-20 0 -35.833 5.66699 -47.5 17s-17.5 25.666 -17.5 42.999s6.5 32.5 19.5 45.5
s28.167 19.5 45.5 19.5z" />
    <glyph glyph-name="uni021A" unicode="&#x21a;" horiz-adv-x="520" 
d="M15 630h490v-115h-185v-515h-120v515h-185v115zM265 -55c17.333 0 32.501 -6.66504 45.501 -19.998s19.5 -30 19.5 -50c0 -24 -5 -45 -15 -63s-21 -33 -33 -45c-14 -14 -29.667 -26.333 -47 -37l-20 25c8 5.33301 15.667 11.666 23 18.999c6 6 11.667 12.833 17 20.5
s8.66602 16.167 9.99902 25.5c-20 0 -35.833 5.66699 -47.5 17s-17.5 25.666 -17.5 42.999s6.5 32.5 19.5 45.5s28.167 19.5 45.5 19.5z" />
    <glyph glyph-name="uni021B" unicode="&#x21b;" horiz-adv-x="345" 
d="M105 570l100.001 -0.000976562v-110h100v-105h-100v-190c0 -20 5.83301 -35.833 17.5 -47.5s27.5 -17.5 47.5 -17.5c5.33301 0 9.66602 0.166992 12.999 0.5s6.33301 0.833008 9 1.5s5.33398 1.66699 8.00098 3v-100c-4.66699 -2 -10 -3.66699 -16 -5
c-11.333 -3.33301 -24.333 -5 -39 -5c-22.667 0 -43.5 3.83301 -62.5 11.5s-35.333 18.834 -49 33.501s-24.334 32 -32.001 52s-11.5 42.667 -11.5 68v195h-70v95h30c36.667 0 55 18.333 55 55v65zM200.001 -55.001c17.333 0 32.501 -6.66504 45.501 -19.998
s19.5 -30 19.5 -50c0 -24 -5 -45 -15 -63s-21 -33 -33 -45c-14 -14 -29.667 -26.333 -47 -37l-20 25c8 5.33301 15.667 11.666 23 18.999c6 6 11.667 12.833 17 20.5s8.66602 16.167 9.99902 25.5c-20 0 -35.833 5.66699 -47.5 17s-17.5 25.666 -17.5 42.999
s6.5 32.5 19.5 45.5s28.167 19.5 45.5 19.5z" />
    <glyph glyph-name="afii57929" unicode="&#x2bc;" horiz-adv-x="190" 
d="M95 635c17.333 0 32.501 -6.66504 45.501 -19.998s19.5 -30 19.5 -50c0 -24 -5 -45 -15 -63s-21 -33 -33 -45c-14 -14 -29.667 -26.333 -47 -37l-20 25c8 5.33301 15.667 11.666 23 18.999c6 6 11.667 12.833 17 20.5s8.66602 16.167 9.99902 25.5
c-20 0 -35.833 5.66699 -47.5 17s-17.5 25.666 -17.5 42.999s6.5 32.5 19.5 45.5s28.167 19.5 45.5 19.5z" />
    <glyph glyph-name="circumflex" unicode="&#x2c6;" horiz-adv-x="350" 
d="M320 505h-95l-50 65l-50 -65h-95l95 125h100z" />
    <glyph glyph-name="caron" unicode="&#x2c7;" horiz-adv-x="350" 
d="M225 505h-100l-95 125h95l50 -65l50 65h95z" />
    <glyph glyph-name="breve" unicode="&#x2d8;" horiz-adv-x="340" 
d="M170 580c11.333 0 20.5 2.5 27.5 7.5s12.5 10.833 16.5 17.5c4.66699 7.33301 8.33398 15.666 11.001 24.999h85c-2.66699 -17.333 -7.83398 -33.666 -15.501 -48.999s-17.667 -28.666 -30 -39.999s-26.5 -20.166 -42.5 -26.499s-33.333 -9.5 -52 -9.5
s-36 3.16699 -52 9.5s-30.167 15.166 -42.5 26.499s-22.333 24.666 -30 39.999s-12.834 31.666 -15.501 48.999h85c2.66699 -9.33301 6.33398 -17.666 11.001 -24.999c4 -6.66699 9.5 -12.5 16.5 -17.5s16.167 -7.5 27.5 -7.5z" />
    <glyph glyph-name="dotaccent" unicode="&#x2d9;" horiz-adv-x="190" 
d="M160 575c0 -17.333 -6.5 -32.5 -19.5 -45.5s-28.167 -19.5 -45.5 -19.5s-32.5 6.5 -45.5 19.5s-19.5 28.167 -19.5 45.5s6.5 32.5 19.5 45.5s28.167 19.5 45.5 19.5s32.5 -6.5 45.5 -19.5s19.5 -28.167 19.5 -45.5z" />
    <glyph glyph-name="ring" unicode="&#x2da;" horiz-adv-x="250" 
d="M160 580c0 10 -3.33301 18.333 -10 25s-15 10 -25 10s-18.333 -3.33301 -25 -10s-10 -15 -10 -25s3.33301 -18.333 10 -25s15 -10 25 -10s18.333 3.33301 25 10s10 15 10 25zM220 580c0 -25.333 -8.83301 -46.666 -26.5 -63.999s-40.5 -26 -68.5 -26
s-50.833 8.66699 -68.5 26s-26.5 38.666 -26.5 63.999s8.83301 46.666 26.5 63.999s40.5 26 68.5 26s50.833 -8.66699 68.5 -26s26.5 -38.666 26.5 -63.999z" />
    <glyph glyph-name="ogonek" unicode="&#x2db;" horiz-adv-x="225" 
d="M140 0c-6.66699 -8.66699 -12.667 -17.3311 -18 -25.998c-4.66699 -7.33301 -8.66699 -15.833 -12 -25.5s-5 -19.167 -5 -28.5c0 -12.667 4.5 -23.334 13.5 -32.001s21.167 -13 36.5 -13c5.33301 0 10.166 0.166992 14.499 0.5s8.5 0.833008 12.5 1.5
s8.33301 1.66699 13 3v-57c-5.33301 -1.33301 -11.333 -2.66602 -18 -3.99902c-5.33301 -1.33301 -11.666 -2.33301 -18.999 -3s-15 -1 -23 -1c-32.667 0 -58.334 8.66699 -77.001 26s-28 38.666 -28 63.999c0 13.333 2.33301 25.666 7 36.999s9.66699 21.333 15 30
c6.66699 10 14.334 19.333 23.001 28h65z" />
    <glyph glyph-name="tilde" unicode="&#x2dc;" horiz-adv-x="360" 
d="M240 505c-15.333 0 -28.332 2.83301 -38.999 8.5s-20.334 12 -29.001 19l-23 19c-6.66699 5.66699 -13 8.5 -19 8.5c-10 0 -19.167 -4.5 -27.5 -13.5s-12.5 -21.167 -12.5 -36.5h-60c0 42.667 8.66699 74.167 26 94.5s38.666 30.5 63.999 30.5
c14.667 0 27.5 -2.83301 38.5 -8.5s20.833 -12 29.5 -19l23 -19c6.66699 -5.66699 13 -8.5 19 -8.5c10 0 19.167 4.5 27.5 13.5s12.5 21.167 12.5 36.5h60c0 -42.667 -8.66699 -74.167 -26 -94.5s-38.666 -30.5 -63.999 -30.5z" />
    <glyph glyph-name="hungarumlaut" unicode="&#x2dd;" horiz-adv-x="400" 
d="M100 630h110l-95 -125h-85zM260 630h110l-95 -125h-85z" />
    <glyph glyph-name="afii10023" unicode="&#x401;" horiz-adv-x="545" 
d="M510 115v-115h-445v630h435v-115h-315v-135h290v-115h-290v-150h325zM265 755c0 -17.333 -6.5 -32.5 -19.5 -45.5s-28.167 -19.5 -45.5 -19.5s-32.5 6.5 -45.5 19.5s-19.5 28.167 -19.5 45.5s6.5 32.5 19.5 45.5s28.167 19.5 45.5 19.5s32.5 -6.5 45.5 -19.5
s19.5 -28.167 19.5 -45.5zM445 755c0 -17.333 -6.5 -32.5 -19.5 -45.5s-28.167 -19.5 -45.5 -19.5s-32.5 6.5 -45.5 19.5s-19.5 28.167 -19.5 45.5s6.5 32.5 19.5 45.5s28.167 19.5 45.5 19.5s32.5 -6.5 45.5 -19.5s19.5 -28.167 19.5 -45.5z" />
    <glyph glyph-name="afii10051" unicode="&#x402;" horiz-adv-x="650" 
d="M410 415c31.333 0 59.832 -5.16406 85.499 -15.4971s47.834 -25.333 66.501 -45s33 -43.834 43 -72.501s15 -61 15 -97c0 -72.667 -21.5 -130 -64.5 -172s-104.833 -63 -185.5 -63v110c40 0 71.667 11.333 95 34s35 53 35 91c0 35.333 -11 64.166 -33 86.499
s-49.333 33.5 -82 33.5c-16 0 -31 -3 -45 -9s-26.167 -14.167 -36.5 -24.5s-18.5 -22.5 -24.5 -36.5s-9 -29 -9 -45v-190h-120v515h-140v115h405v-115h-145v-160c10 11.333 22 21.333 36 30c12 7.33301 26.667 14.166 44 20.499s37.333 9.5 60 9.5z" />
    <glyph glyph-name="afii10052" unicode="&#x403;" horiz-adv-x="475" 
d="M280 825h110l-90 -125h-85zM185 515v-515h-120v630h395v-115h-275z" />
    <glyph glyph-name="afii10053" unicode="&#x404;" horiz-adv-x="645" 
d="M380 260l-225 -0.00488281c6 -21.333 14.667 -41.166 26 -59.499s24.666 -34.166 39.999 -47.499s32.5 -23.833 51.5 -31.5s39.833 -11.5 62.5 -11.5c21.333 0 40.666 3 57.999 9s32.833 13.833 46.5 23.5s25 20 34 31s16.167 21.5 21.5 31.5h125
c-7.33301 -26 -19.333 -51.667 -36 -77s-37.167 -47.833 -61.5 -67.5s-52.333 -35.5 -84 -47.5s-66.167 -18 -103.5 -18c-41.333 0 -80.5 8.16699 -117.5 24.5s-69.333 39 -97 68s-49.667 62.833 -66 101.5s-24.5 80.667 -24.5 126c0 44.667 8.16699 86.5 24.5 125.5
s38.333 73 66 102s60 51.667 97 68s76.167 24.5 117.5 24.5c36 0 69.5 -6 100.5 -18s58.5 -28 82.5 -48s44.333 -43 61 -69s28.667 -52.667 36 -80h-125c-4 11.333 -10.333 22.833 -19 34.5s-19.5 22.334 -32.5 32.001s-28.167 17.667 -45.5 24s-36.666 9.5 -57.999 9.5
c-22.667 0 -43.5 -3.83301 -62.5 -11.5s-36.167 -18.167 -51.5 -31.5s-28.666 -29.166 -39.999 -47.499s-20 -38.166 -26 -59.499h225v-110z" />
    <glyph glyph-name="afii10054" unicode="&#x405;" horiz-adv-x="520" 
d="M40 454c0 24 5.16504 47.002 15.498 69.002s25 41.167 44 57.5s42 29.5 69 39.5s57.5 15 91.5 15c31.333 0 59.833 -5 85.5 -15s47.834 -24 66.501 -42s33 -39.167 43 -63.5s15 -50.833 15 -79.5h-115c0 28 -8.33301 50 -25 66s-40 24 -70 24s-53.333 -7.33301 -70 -22
s-25 -30.667 -25 -48c0 -18.667 8 -33 24 -43s36 -19 60 -27l78.5 -25c28.333 -8.66699 54.5 -20.334 78.5 -35.001s44 -33.834 60 -57.501s24 -54.5 24 -92.5c0 -22.667 -5.5 -44.667 -16.5 -66s-26.5 -40.5 -46.5 -57.5s-44.167 -30.667 -72.5 -41
s-59.833 -15.5 -94.5 -15.5c-35.333 0 -66.833 5 -94.5 15s-51.167 24.167 -70.5 42.5s-34.166 40 -44.499 65s-15.5 52.5 -15.5 82.5h120c0 -28 9.33301 -50.833 28 -68.5s44.334 -26.5 77.001 -26.5c35.333 0 61.666 7.5 78.999 22.5s26 32.5 26 52.5
c0 19.333 -8 34.333 -24 45s-36 20.167 -60 28.5s-50.167 16.5 -78.5 24.5s-54.5 19 -78.5 33s-44 32.167 -60 54.5s-24 51.833 -24 88.5z" />
    <glyph glyph-name="afii10055" unicode="&#x406;" horiz-adv-x="250" 
d="M185 0h-120v630h120v-630z" />
    <glyph glyph-name="afii10056" unicode="&#x407;" horiz-adv-x="250" 
d="M185 0h-120v630h120v-630zM100 760c0 -17.333 -6.5 -32.5 -19.5 -45.5s-28.167 -19.5 -45.5 -19.5s-32.5 6.5 -45.5 19.5s-19.5 28.167 -19.5 45.5s6.5 32.5 19.5 45.5s28.167 19.5 45.5 19.5s32.5 -6.5 45.5 -19.5s19.5 -28.167 19.5 -45.5zM280 760
c0 -17.333 -6.5 -32.5 -19.5 -45.5s-28.167 -19.5 -45.5 -19.5s-32.5 6.5 -45.5 19.5s-19.5 28.167 -19.5 45.5s6.5 32.5 19.5 45.5s28.167 19.5 45.5 19.5s32.5 -6.5 45.5 -19.5s19.5 -28.167 19.5 -45.5z" />
    <glyph glyph-name="afii10057" unicode="&#x408;" horiz-adv-x="485" 
d="M420 630v-435c0 -30 -4.83301 -57.333 -14.5 -82s-23.334 -45.667 -41.001 -63s-39.167 -30.833 -64.5 -40.5s-53.666 -14.5 -84.999 -14.5s-59.666 4.83301 -84.999 14.5s-46.833 23.167 -64.5 40.5s-31.334 38.333 -41.001 63s-14.5 52 -14.5 82h120
c0 -25.333 7.83301 -45.833 23.5 -61.5s36.167 -23.5 61.5 -23.5s45.833 7.83301 61.5 23.5s23.5 36.167 23.5 61.5v435h120z" />
    <glyph glyph-name="afii10058" unicode="&#x409;" horiz-adv-x="905" 
d="M555 630l-0.000976562 -209.997h110c30 0 58 -5.5 84 -16.5s48.833 -26 68.5 -45s35 -41.333 46 -67s16.5 -52.834 16.5 -81.501s-5.5 -55.834 -16.5 -81.501s-26.333 -48 -46 -67s-42.5 -34 -68.5 -45s-54 -16.5 -84 -16.5h-230v515h-180l-25 -325
c-5.33301 -62.667 -24.166 -110.834 -56.499 -144.501s-73.5 -50.5 -123.5 -50.5c-7.33301 0 -14 0.166992 -20 0.5s-11.333 0.833008 -16 1.5c-5.33301 0.666992 -10 1.66699 -14 3v105h15c28 0 51.167 9.16699 69.5 27.5s28.5 42.5 30.5 72.5l30 425h410zM554.999 305.003
v-190h110c12.667 0 24.667 2.66699 36 8s21.333 12.333 30 21s15.667 18.667 21 30s8 23.333 8 36s-2.66699 24.667 -8 36s-12.333 21.333 -21 30s-18.667 15.667 -30 21s-23.333 8 -36 8h-110z" />
    <glyph glyph-name="afii10059" unicode="&#x40a;" horiz-adv-x="900" 
d="M550 630v-209.998h110c30 0 58 -5.5 84 -16.5s48.833 -26 68.5 -45s35 -41.333 46 -67s16.5 -52.834 16.5 -81.501s-5.5 -55.834 -16.5 -81.501s-26.333 -48 -46 -67s-42.5 -34 -68.5 -45s-54 -16.5 -84 -16.5h-230v305h-245v-305h-120v630h120v-210h245v210h120z
M550 305.002v-190h110c12.667 0 24.667 2.66699 36 8s21.333 12.333 30 21s15.667 18.667 21 30s8 23.333 8 36s-2.66699 24.667 -8 36s-12.333 21.333 -21 30s-18.667 15.667 -30 21s-23.333 8 -36 8h-110z" />
    <glyph glyph-name="afii10060" unicode="&#x40b;" horiz-adv-x="650" 
d="M405 415c27.333 0 52.832 -5.16699 76.499 -15.5s44.334 -25.166 62.001 -44.499s31.5 -43 41.5 -71s15 -59.333 15 -94v-190h-120v190c0 35.333 -10 63.333 -30 84s-45 31 -75 31s-55 -10.333 -75 -31s-30 -48.667 -30 -84v-190h-120v515h-140v115h405v-115h-145v-160
c10.667 11.333 22.667 21.333 36 30c11.333 7.33301 25.333 14.166 42 20.499s35.667 9.5 57 9.5z" />
    <glyph glyph-name="afii10061" unicode="&#x40c;" horiz-adv-x="540" 
d="M410 0l-225 285v-285h-120v630h120v-280l210 280h140l-235 -310l250 -320h-140zM315 825h110l-90 -125h-85z" />
    <glyph glyph-name="afii10062" unicode="&#x40e;" horiz-adv-x="535" 
d="M270 765c11.333 0 20.5 2.5 27.5 7.5s12.5 10.833 16.5 17.5c4.66699 7.33301 8.33398 15.666 11.001 24.999h85c-2.66699 -17.333 -7.83398 -33.666 -15.501 -48.999s-17.667 -28.666 -30 -39.999s-26.5 -20.166 -42.5 -26.499s-33.333 -9.5 -52 -9.5
s-36 3.16699 -52 9.5s-30.167 15.166 -42.5 26.499s-22.333 24.666 -30 39.999s-12.834 31.666 -15.501 48.999h85c2.66699 -9.33301 6.33398 -17.666 11.001 -24.999c4 -6.66699 9.5 -12.5 16.5 -17.5s16.167 -7.5 27.5 -7.5zM535 630l-215.002 -480.001
c-12 -27.333 -24.167 -51.166 -36.5 -71.499s-25.666 -37 -39.999 -50s-29.833 -22.667 -46.5 -29s-35.667 -9.5 -57 -9.5c-15.333 0 -29 1.66699 -41 5c-6.66699 1.33301 -13 3 -19 5v105c3.33301 -1.33301 7 -2.33301 11 -3c3.33301 -0.666992 7.33301 -1.16699 12 -1.5
s10.334 -0.5 17.001 -0.5c20 0 36.833 5.5 50.5 16.5s23.5 23.833 29.5 38.5l10 25l-205 450h125l145 -315l140 315h120z" />
    <glyph glyph-name="afii10145" unicode="&#x40f;" horiz-adv-x="625" 
d="M185 630v-515h255v515h120v-630h-190v-120h-115v120h-190v630h120z" />
    <glyph glyph-name="afii10017" unicode="&#x410;" horiz-adv-x="570" 
d="M120 0h-125l235 630h110l235 -630h-125l-45 130h-240zM365 240l-80 230l-80 -230h160z" />
    <glyph glyph-name="afii10018" unicode="&#x411;" horiz-adv-x="565" 
d="M330 390c30 0 57.5 -4.99902 82.5 -14.999s46.667 -23.833 65 -41.5s32.5 -38.334 42.5 -62.001s15 -49.167 15 -76.5s-5 -53 -15 -77s-24.167 -44.667 -42.5 -62s-40 -31 -65 -41s-52.5 -15 -82.5 -15h-265v630h425v-115h-305v-125h145zM185 280.001v-170h145
c25.333 0 45.833 7.83301 61.5 23.5s23.5 36.167 23.5 61.5s-7.83301 45.833 -23.5 61.5s-36.167 23.5 -61.5 23.5h-145z" />
    <glyph glyph-name="afii10019" unicode="&#x412;" horiz-adv-x="565" 
d="M440 335c18.667 -8.66699 35.333 -20.0029 50 -34.0029c12.667 -12 24.167 -28 34.5 -48s15.5 -44.333 15.5 -73c0 -24 -5 -46.833 -15 -68.5s-24.167 -40.667 -42.5 -57s-40 -29.5 -65 -39.5s-52.5 -15 -82.5 -15h-270v630h260c27.333 0 52.666 -4.66699 75.999 -14
s43.5 -22 60.5 -38s30.167 -34.5 39.5 -55.5s14 -43.5 14 -67.5c0 -21.333 -4 -39.666 -12 -54.999s-16.667 -27.666 -26 -36.999c-11.333 -11.333 -23.666 -20.666 -36.999 -27.999zM184.999 374.997h130c22.667 0 41.667 7.5 57 22.5s23 32.5 23 52.5
s-7.66699 37.5 -23 52.5s-34.333 22.5 -57 22.5h-130v-150zM324.999 104.997c28 0 50.833 8.66895 68.5 26.002s26.5 38.666 26.5 63.999s-8.83301 46.666 -26.5 63.999s-40.5 26 -68.5 26h-140v-180h140z" />
    <glyph glyph-name="afii10020" unicode="&#x413;" horiz-adv-x="475" 
d="M185 515v-515h-120v630h395v-115h-275z" />
    <glyph glyph-name="afii10021" unicode="&#x414;" horiz-adv-x="635" 
d="M620 115v-234.999h-120v120h-380v-120h-120v235h35c11.333 5.33301 21.666 12.666 30.999 21.999c8 8 15.833 18.833 23.5 32.5s12.834 30.5 15.501 50.5l50 410h395v-515h70zM430 515.001l-174.999 -0.000976562l-35 -295c-2.66699 -20 -6.83398 -36.833 -12.501 -50.5
s-11.167 -24.5 -16.5 -32.5c-6.66699 -9.33301 -13.667 -16.666 -21 -21.999h260v400z" />
    <glyph glyph-name="afii10022" unicode="&#x415;" horiz-adv-x="545" 
d="M510 115v-115h-445v630h435v-115h-315v-135h290v-115h-290v-150h325z" />
    <glyph glyph-name="afii10024" unicode="&#x416;" horiz-adv-x="790" 
d="M455 630v-280l185 280h140l-210 -310l230 -320h-140l-205 285v-285h-120v285l-205 -285h-140l230 320l-210 310h140l185 -280v280h120z" />
    <glyph glyph-name="afii10025" unicode="&#x417;" horiz-adv-x="515" 
d="M35 445c1.33301 26 7.49902 50.667 18.499 74s26 43.5 45 60.5s41.667 30.5 68 40.5s55.833 15 88.5 15c31.333 0 59.833 -4.83301 85.5 -14.5s47.834 -22.667 66.501 -39s33 -35 43 -56s15 -42.833 15 -65.5s-4.16699 -42.167 -12.5 -58.5s-17.5 -29.833 -27.5 -40.5
c-12 -12 -25.333 -22.333 -40 -31c18.667 -8.66699 35.334 -20 50.001 -34c12.667 -12 24.167 -28 34.5 -48s15.5 -44.333 15.5 -73c0 -24 -5.16699 -46.833 -15.5 -68.5s-25.166 -40.667 -44.499 -57s-43 -29.5 -71 -39.5s-59.333 -15 -94 -15
c-35.333 0 -66.833 5 -94.5 15s-51.5 23.667 -71.5 41s-35.833 38 -47.5 62s-18.834 49.667 -21.501 77h120c5.33301 -22.667 17.5 -42.5 36.5 -59.5s43.5 -25.5 73.5 -25.5c35.333 0 61.666 7.83301 78.999 23.5s26 36.167 26 61.5c0 22.667 -8.5 41.667 -25.5 57
s-41.833 23 -74.5 23h-60v105h55c30 0 52.5 6.66699 67.5 20s22.5 30 22.5 50c0 22.667 -8 41.667 -24 57s-38 23 -66 23c-30 0 -53.5 -7.66699 -70.5 -23s-26.833 -34.333 -29.5 -57h-120z" />
    <glyph glyph-name="afii10026" unicode="&#x418;" horiz-adv-x="635" 
d="M450 0v415l-280 -415h-105v630h120v-415l280 415h105v-630h-120z" />
    <glyph glyph-name="afii10027" unicode="&#x419;" horiz-adv-x="635" 
d="M450 0v415l-280 -415h-105v630h120v-415l280 415h105v-630h-120zM320 765c11.333 0 20.5 2.5 27.5 7.5s12.5 10.833 16.5 17.5c4.66699 7.33301 8.33398 15.666 11.001 24.999h85c-2.66699 -17.333 -7.83398 -33.666 -15.501 -48.999s-17.667 -28.666 -30 -39.999
s-26.5 -20.166 -42.5 -26.499s-33.333 -9.5 -52 -9.5s-36 3.16699 -52 9.5s-30.167 15.166 -42.5 26.499s-22.333 24.666 -30 39.999s-12.834 31.666 -15.501 48.999h85c2.66699 -9.33301 6.33398 -17.666 11.001 -24.999c4 -6.66699 9.5 -12.5 16.5 -17.5
s16.167 -7.5 27.5 -7.5z" />
    <glyph glyph-name="afii10028" unicode="&#x41a;" horiz-adv-x="540" 
d="M410 0l-225 285v-285h-120v630h120v-280l210 280h140l-235 -310l250 -320h-140z" />
    <glyph glyph-name="afii10029" unicode="&#x41b;" horiz-adv-x="635" 
d="M570 630l-0.000976562 -629.999h-120v515h-195l-25 -325c-5.33301 -62.667 -24.166 -110.834 -56.499 -144.501s-73.5 -50.5 -123.5 -50.5c-7.33301 0 -14 0.166992 -20 0.5s-11.333 0.833008 -16 1.5c-5.33301 0.666992 -10 1.66699 -14 3v105h15
c28 0 51.167 9.16699 69.5 27.5s28.5 42.5 30.5 72.5l30 425h425z" />
    <glyph glyph-name="afii10030" unicode="&#x41c;" horiz-adv-x="770" 
d="M705 630v-630h-120v350l-160 -350h-80l-160 350v-350h-120v630h105l215 -465l215 465h105z" />
    <glyph glyph-name="afii10031" unicode="&#x41d;" horiz-adv-x="635" 
d="M570 630v-630h-120v265h-265v-265h-120v630h120v-250h265v250h120z" />
    <glyph glyph-name="afii10032" unicode="&#x41e;" horiz-adv-x="670" 
d="M150 315c0 -30 5 -57.5 15 -82.5s23.333 -46.667 40 -65s36.167 -32.5 58.5 -42.5s46.166 -15 71.499 -15c24.667 0 48.334 5 71.001 15s42.334 24.167 59.001 42.5s30 40 40 65s15 52.5 15 82.5s-5 57.5 -15 82.5s-23.333 46.667 -40 65s-36.334 32.5 -59.001 42.5
s-46.334 15 -71.001 15c-25.333 0 -49.166 -5 -71.499 -15s-41.833 -24.167 -58.5 -42.5s-30 -40 -40 -65s-15 -52.5 -15 -82.5zM640 315c0 -45.333 -8.16699 -87.333 -24.5 -126s-38.333 -72.5 -66 -101.5s-60 -51.667 -97 -68s-76.167 -24.5 -117.5 -24.5
s-80.5 8.16699 -117.5 24.5s-69.333 39 -97 68s-49.667 62.833 -66 101.5s-24.5 80.667 -24.5 126c0 44.667 8.16699 86.5 24.5 125.5s38.333 73 66 102s60 51.667 97 68s76.167 24.5 117.5 24.5s80.5 -8.16699 117.5 -24.5s69.333 -39 97 -68s49.667 -63 66 -102
s24.5 -80.833 24.5 -125.5z" />
    <glyph glyph-name="afii10033" unicode="&#x41f;" horiz-adv-x="640" 
d="M575 630v-630h-120v515h-270v-515h-120v630h510z" />
    <glyph glyph-name="afii10034" unicode="&#x420;" horiz-adv-x="545" 
d="M300 630c30 0 58 -5.49805 84 -16.498s48.833 -26 68.5 -45s35 -41.333 46 -67s16.5 -52.834 16.5 -81.501s-5.5 -55.834 -16.5 -81.501s-26.333 -48 -46 -67s-42.5 -34 -68.5 -45s-54 -16.5 -84 -16.5h-115v-210h-120v630h235zM300 325.002
c12.667 0 24.667 2.66699 36 8s21.333 12.333 30 21s15.667 18.667 21 30s8 23.333 8 36s-2.66699 24.667 -8 36s-12.333 21.333 -21 30s-18.667 15.667 -30 21s-23.333 8 -36 8h-115v-190h115z" />
    <glyph glyph-name="afii10035" unicode="&#x421;" horiz-adv-x="645" 
d="M150 315c0 -30 5 -57.502 15 -82.502s23.333 -46.667 40 -65s36.167 -32.5 58.5 -42.5s46.166 -15 71.499 -15c21.333 0 40.666 3.16699 57.999 9.5s32.833 14.666 46.5 24.999s25 22 34 35s16.167 26.5 21.5 40.5h125c-7.33301 -30 -19.333 -58.667 -36 -86
s-37.167 -51.166 -61.5 -71.499s-52.333 -36.666 -84 -48.999s-66.167 -18.5 -103.5 -18.5c-41.333 0 -80.5 8.16699 -117.5 24.5s-69.333 39 -97 68s-49.667 62.833 -66 101.5s-24.5 80.667 -24.5 126c0 44.667 8.16699 86.5 24.5 125.5s38.333 73 66 102s60 51.667 97 68
s76.167 24.5 117.5 24.5c36 0 69.5 -6.16699 100.5 -18.5s58.5 -28.666 82.5 -48.999s44.333 -44.166 61 -71.499s28.667 -56 36 -86h-125c-4 14 -10.333 27.5 -19 40.5s-19.5 24.667 -32.5 35s-28.167 18.666 -45.5 24.999s-36.666 9.5 -57.999 9.5
c-25.333 0 -49.166 -5 -71.499 -15s-41.833 -24.167 -58.5 -42.5s-30 -40 -40 -65s-15 -52.5 -15 -82.5z" />
    <glyph glyph-name="afii10036" unicode="&#x422;" horiz-adv-x="520" 
d="M15 630h490v-115h-185v-515h-120v515h-185v115z" />
    <glyph glyph-name="afii10037" unicode="&#x423;" horiz-adv-x="535" 
d="M535 630l-215.002 -480.001c-12 -27.333 -24.167 -51.166 -36.5 -71.499s-25.666 -37 -39.999 -50s-29.833 -22.667 -46.5 -29s-35.667 -9.5 -57 -9.5c-15.333 0 -29 1.66699 -41 5c-6.66699 1.33301 -13 3 -19 5v105c3.33301 -1.33301 7 -2.33301 11 -3
c3.33301 -0.666992 7.33301 -1.16699 12 -1.5s10.334 -0.5 17.001 -0.5c20 0 36.833 5.5 50.5 16.5s23.5 23.833 29.5 38.5l10 25l-205 450h125l145 -315l140 315h120z" />
    <glyph glyph-name="afii10038" unicode="&#x424;" horiz-adv-x="730" 
d="M305 465c-50 -2.66699 -89.167 -17.167 -117.5 -43.5s-42.5 -58.5 -42.5 -96.5s14.167 -70.167 42.5 -96.5s67.5 -40.833 117.5 -43.5v280zM425 575c44 -2.66699 83.333 -10.834 118 -24.501s64 -31.5 88 -53.5s42.333 -47.667 55 -77s19 -61 19 -95
s-6.33301 -65.667 -19 -95s-31 -55 -55 -77s-53.333 -39.833 -88 -53.5s-74 -21.834 -118 -24.501v-80h-120v80c-44 2.66699 -83.333 10.834 -118 24.501s-64 31.5 -88 53.5s-42.333 47.667 -55 77s-19 61 -19 95s6.33301 65.667 19 95s31 55 55 77s53.333 39.833 88 53.5
s74 21.834 118 24.501v60h120v-60zM425 185c50 2.66699 89.167 17.167 117.5 43.5s42.5 58.5 42.5 96.5s-14.167 70.167 -42.5 96.5s-67.5 40.833 -117.5 43.5v-280z" />
    <glyph glyph-name="afii10039" unicode="&#x425;" horiz-adv-x="560" 
d="M410 630h135l-195 -310l205 -320h-135l-140 229l-140 -229h-135l205 320l-195 310h135l130 -220z" />
    <glyph glyph-name="afii10040" unicode="&#x426;" horiz-adv-x="645" 
d="M625 115v-235h-120v120h-440v630h120v-515h250v515h120v-515h70z" />
    <glyph glyph-name="afii10041" unicode="&#x427;" horiz-adv-x="605" 
d="M540 630v-630h-120v219c-13.333 -7.33301 -27.666 -14 -42.999 -20c-13.333 -5.33301 -28.666 -9.83301 -45.999 -13.5s-36 -5.5 -56 -5.5c-32.667 0 -62.167 5.16699 -88.5 15.5s-48.833 25 -67.5 44s-33.167 42 -43.5 69s-15.5 57.5 -15.5 91.5v230h120v-225
c0 -76.667 38.333 -115 115 -115c17.333 0 33.666 1.66699 48.999 5s28.666 7.33301 39.999 12c12.667 5.33301 24.667 11.333 36 18v305h120z" />
    <glyph glyph-name="afii10042" unicode="&#x428;" horiz-adv-x="860" 
d="M795 630v-630h-730v630h120v-515h185v515h120v-515h185v515h120z" />
    <glyph glyph-name="afii10043" unicode="&#x429;" horiz-adv-x="885" 
d="M795 630v-515h70v-235h-120v120h-680v630h120v-515h185v515h120v-515h185v515h120z" />
    <glyph glyph-name="afii10044" unicode="&#x42a;" horiz-adv-x="610" 
d="M140 0v515.002h-140v115h260v-210h110c30 0 58 -5.5 84 -16.5s48.833 -26 68.5 -45s35 -41.333 46 -67s16.5 -52.834 16.5 -81.501s-5.5 -55.834 -16.5 -81.501s-26.333 -48 -46 -67s-42.5 -34 -68.5 -45s-54 -16.5 -84 -16.5h-230zM260 305.002v-190h110
c12.667 0 24.667 2.66699 36 8s21.333 12.333 30 21s15.667 18.667 21 30s8 23.333 8 36s-2.66699 24.667 -8 36s-12.333 21.333 -21 30s-18.667 15.667 -30 21s-23.333 8 -36 8h-110z" />
    <glyph glyph-name="afii10045" unicode="&#x42b;" horiz-adv-x="755" 
d="M690 0h-120v630h120v-630zM65 0v630.002h120v-210h105c30 0 58 -5.5 84 -16.5s48.833 -26 68.5 -45s35 -41.333 46 -67s16.5 -52.834 16.5 -81.501s-5.5 -55.834 -16.5 -81.501s-26.333 -48 -46 -67s-42.5 -34 -68.5 -45s-54 -16.5 -84 -16.5h-225zM185 305.002v-190h105
c12.667 0 24.667 2.66699 36 8s21.333 12.333 30 21s15.667 18.667 21 30s8 23.333 8 36s-2.66699 24.667 -8 36s-12.333 21.333 -21 30s-18.667 15.667 -30 21s-23.333 8 -36 8h-105z" />
    <glyph glyph-name="afii10046" unicode="&#x42c;" horiz-adv-x="535" 
d="M65 0v630.002h120v-210h110c30 0 58 -5.5 84 -16.5s48.833 -26 68.5 -45s35 -41.333 46 -67s16.5 -52.834 16.5 -81.501s-5.5 -55.834 -16.5 -81.501s-26.333 -48 -46 -67s-42.5 -34 -68.5 -45s-54 -16.5 -84 -16.5h-230zM185 305.002v-190h110
c12.667 0 24.667 2.66699 36 8s21.333 12.333 30 21s15.667 18.667 21 30s8 23.333 8 36s-2.66699 24.667 -8 36s-12.333 21.333 -21 30s-18.667 15.667 -30 21s-23.333 8 -36 8h-110z" />
    </font>
</defs>
</svg>
