<?xml version="1.0" encoding="utf-8"?>
<!-- Generator: Adobe Illustrator 19.0.1, SVG Export Plug-In . SVG Version: 6.00 Build 0)  -->
<svg version="1.1" id="Layer_1" xmlns="http://www.w3.org/2000/svg" xmlns:xlink="http://www.w3.org/1999/xlink" x="0px" y="0px"
	 viewBox="311.4 225.3 672.2 80.6" style="enable-background:new 311.4 225.3 672.2 80.6;" xml:space="preserve">
<style type="text/css">
	.st0{fill:#101010;}
</style>
<g>
	<polygon class="st0" points="494.7,272 480.9,242.9 468.5,242.9 488.5,282.8 477,305.9 489.4,305.9 521,242.9 508.6,242.9 	"/>
	<path class="st0" d="M339.3,260.6h-16.5v-8.9h25.7v-8.8H325c-7.1,0-13.2,5.5-13.6,12.6c-0.4,7.6,5.7,13.9,13.2,13.9h17.5v10.1
		h-29.6v8.8h27.1c7.9,0,14.2-6.6,13.8-14.5C353.1,266.3,346.7,260.6,339.3,260.6z"/>
	<polygon class="st0" points="460.6,242.9 415.8,242.9 415.8,288.3 427.1,288.3 427.1,253.1 449.3,253.1 449.3,288.3 460.6,288.3 
		460.6,242.9 	"/>
	<polygon class="st0" points="970,242.9 954.9,258.6 939.8,242.9 926.2,242.9 948.1,265.6 926.2,288.3 939.8,288.3 954.9,272.7 
		970,288.3 983.6,288.3 961.7,265.6 983.6,242.9 	"/>
	<polygon class="st0" points="828.3,242.9 815.9,242.9 838.2,288.3 851.8,288.3 874.2,242.9 861.7,242.9 845,278.2 	"/>
	<polygon class="st0" points="625,288.3 636.3,288.3 636.3,253.1 653.4,253.1 653.4,288.3 664.8,288.3 664.8,253.1 681.9,253.1 
		681.9,288.3 693.2,288.3 693.2,242.9 625,242.9 	"/>
	<polygon class="st0" points="739.8,242.9 739.8,278.1 717.6,278.1 717.6,242.9 706.3,242.9 706.3,288.3 706.3,288.3 706.3,288.3 
		751.1,288.3 751.1,242.9 	"/>
	<path class="st0" d="M383.3,241.7c-13.2,0-23.9,10.7-23.9,23.9s10.7,23.9,23.9,23.9s23.9-10.7,23.9-23.9S396.5,241.7,383.3,241.7z
		 M383.3,279c-8.1,0-12.5-5.7-12.5-13.4s4.5-13.4,12.5-13.4s12.5,5.7,12.5,13.4S391.4,279,383.3,279z"/>
	<path class="st0" d="M783.7,289.5c5.6,0,10.7-1.9,14.8-5.2l3,4h13.4v-10.2h-7.4v-52.8h-11.3v19.9c-3.6-2.2-7.9-3.5-12.5-3.5
		c-13.2,0-23.9,10.7-23.9,23.9C759.8,278.8,770.5,289.5,783.7,289.5z M783.7,252.1c7.8,0,12.2,5.3,12.5,12.6v1.6
		c-0.3,7.3-4.7,12.6-12.5,12.6c-8.1,0-12.5-5.7-12.5-13.4S775.6,252.1,783.7,252.1z"/>
	<path class="st0" d="M570.7,265.6C570.7,265.6,570.7,265.6,570.7,265.6c0-13.2-10.7-23.9-23.9-23.9s-23.9,10.7-23.9,23.9
		s10.7,23.9,23.9,23.9c5.6,0,10.8-1.9,14.8-5.2l3,4H578v-10.2h-7.4L570.7,265.6L570.7,265.6z M546.8,279c-8.1,0-12.5-5.7-12.5-13.4
		s4.5-13.4,12.5-13.4c8.1,0,12.5,5.7,12.5,13.4S554.9,279,546.8,279z"/>
	<path class="st0" d="M923.8,265.6c0-13.2-10.7-23.9-23.9-23.9s-23.9,10.7-23.9,23.9s12.5,23.9,25.7,23.9c7.5,0,13.3-2,18.8-7.1
		v-8.9c-5.1,3.5-11,6.6-17.2,6.6c-5.2,0-10.7-1.5-13.8-6c-1-1.5-1.7-3.3-1.9-5.1h36C923.7,267.8,923.8,266.7,923.8,265.6z
		 M888,260.4c1.3-5.7,5.1-9.2,12-9.2s10.7,3.5,12,9.2H888z"/>
</g>
</svg>
