<svg width="1440" height="669" viewBox="0 0 1440 669" fill="none" xmlns="http://www.w3.org/2000/svg">
<path d="M333.45 580.317H544.182C559.694 580.317 574.57 574.155 585.539 563.187L713.467 435.215" stroke="#1D1D1B" stroke-width="2.14073" stroke-linecap="round" stroke-linejoin="round"/>
<path d="M1062.55 438.9L1157.63 438.985C1173.14 438.985 1188.02 432.823 1198.99 421.854L1338.37 282.467" stroke="#1D1D1B" stroke-width="5.70862" stroke-linecap="round" stroke-linejoin="round"/>
<path d="M1062.55 438.849L730.848 438.451C719.718 438.437 709.047 434.01 701.177 426.139L279.336 4.29883" stroke="#1D1D1B" stroke-width="5.70862" stroke-linecap="round" stroke-linejoin="round"/>
<path d="M1062.55 635.098V393.925C1062.55 378.413 1056.39 363.536 1045.42 352.568C1034.45 341.6 1019.57 335.437 1004.06 335.438H473.313" stroke="#1D1D1B" stroke-width="5.70862" stroke-linecap="round" stroke-linejoin="round"/>
<path d="M504.11 229.568H187.312C171.8 229.568 156.924 223.406 145.955 212.437L16.8264 83.3086" stroke="#1D1D1B" stroke-width="2.14073" stroke-linecap="round" stroke-linejoin="round"/>
<path d="M892.034 577.309H1220.19C1235.7 577.309 1250.58 571.146 1261.55 560.178L1397.7 424.021" stroke="#1D1D1B" stroke-width="2.14073" stroke-linecap="round" stroke-linejoin="round"/>
<rect x="864.942" y="559.674" width="54.1851" height="32.7247" rx="5.18822" fill="black"/>
<path d="M886.134 571.351C886.777 571.351 887.376 571.473 887.933 571.715C888.489 571.944 888.974 572.265 889.388 572.679C889.816 573.078 890.145 573.556 890.373 574.113C890.616 574.655 890.737 575.233 890.737 575.847C890.737 576.46 890.616 577.046 890.373 577.602C890.145 578.145 889.816 578.623 889.388 579.037C888.974 579.436 888.489 579.757 887.933 580C887.376 580.228 886.777 580.342 886.134 580.342H883.673V584.838H881.104V571.351H886.134ZM886.134 577.881C886.406 577.881 886.662 577.823 886.905 577.709C887.148 577.595 887.362 577.445 887.547 577.26C887.733 577.074 887.883 576.86 887.997 576.617C888.111 576.375 888.168 576.118 888.168 575.847C888.168 575.576 888.111 575.319 887.997 575.076C887.883 574.834 887.733 574.619 887.547 574.434C887.362 574.248 887.148 574.099 886.905 573.984C886.662 573.87 886.406 573.813 886.134 573.813H883.673V577.881H886.134ZM903.58 571.351V584.838H901.011V579.165H895.338V584.838H892.769V571.351H895.338V576.703H901.011V571.351H903.58Z" fill="#FFDC00"/>
<rect x="256.275" width="54.1851" height="32.7247" rx="5.18822" fill="black"/>
<path d="M273.036 25.1641H270.36L275.391 11.6774H277.746L282.777 25.1641H280.101L279.137 22.3811H274L273.036 25.1641ZM278.281 20.0263L276.569 15.1026L274.856 20.0263H278.281ZM288.349 22.7022C288.877 22.7022 289.384 22.588 289.869 22.3597C290.369 22.1314 290.804 21.8245 291.175 21.4392C291.56 21.0539 291.86 20.6043 292.074 20.0905C292.303 19.5625 292.417 19.0059 292.417 18.4208C292.417 17.8356 292.303 17.2862 292.074 16.7724C291.86 16.2443 291.56 15.7876 291.175 15.4023C290.804 15.017 290.369 14.7101 289.869 14.4818C289.384 14.2535 288.877 14.1393 288.349 14.1393H286.637V22.7022H288.349ZM284.068 25.1641V11.6774H288.349C289.234 11.6774 290.076 11.863 290.875 12.234C291.675 12.5908 292.381 13.0761 292.995 13.6897C293.608 14.3034 294.094 15.017 294.45 15.8305C294.807 16.6439 294.986 17.5074 294.986 18.4208C294.986 19.3341 294.807 20.1976 294.45 21.011C294.094 21.8245 293.608 22.5381 292.995 23.1518C292.381 23.7654 291.675 24.2578 290.875 24.6289C290.076 24.9857 289.234 25.1641 288.349 25.1641H284.068Z" fill="#FFDC00"/>
<rect y="79.0098" width="54.1851" height="32.7247" rx="5.18822" fill="black"/>
<path d="M26.4275 90.6872V104.174H24.1798L18.1857 95.3968V104.174H15.6168V90.6872H17.8646L23.8586 99.4642V90.6872H26.4275ZM30.3829 104.174H27.7069L32.7377 90.6872H35.0925L40.1232 104.174H37.4473L36.484 101.391H31.3462L30.3829 104.174ZM35.6277 99.0361L33.9151 94.1124L32.2025 99.0361H35.6277Z" fill="#FFDC00"/>
<path d="M504.461 238.554C510.047 238.554 514.575 234.026 514.575 228.44C514.575 222.854 510.047 218.326 504.461 218.326C498.876 218.326 494.348 222.854 494.348 228.44C494.348 234.026 498.876 238.554 504.461 238.554Z" fill="black"/>
<path d="M829.827 445.052C833.179 445.052 835.895 442.336 835.895 438.984C835.895 435.633 833.179 432.916 829.827 432.916C826.476 432.916 823.759 435.633 823.759 438.984C823.759 442.336 826.476 445.052 829.827 445.052Z" fill="black"/>
<path d="M946.187 445.052C949.539 445.052 952.255 442.336 952.255 438.984C952.255 435.633 949.539 432.916 946.187 432.916C942.836 432.916 940.119 435.633 940.119 438.984C940.119 442.336 942.836 445.052 946.187 445.052Z" fill="black"/>
<path d="M434.215 164.842C437.566 164.842 440.283 162.125 440.283 158.773C440.283 155.422 437.566 152.705 434.215 152.705C430.864 152.705 428.147 155.422 428.147 158.773C428.147 162.125 430.864 164.842 434.215 164.842Z" fill="black"/>
<path d="M363.049 94.7751C366.4 94.7751 369.117 92.0583 369.117 88.7069C369.117 85.3555 366.4 82.6387 363.049 82.6387C359.697 82.6387 356.98 85.3555 356.98 88.7069C356.98 92.0583 359.697 94.7751 363.049 94.7751Z" fill="black"/>
<path d="M363.049 235.935C366.4 235.935 369.117 233.218 369.117 229.867C369.117 226.516 366.4 223.799 363.049 223.799C359.697 223.799 356.98 226.516 356.98 229.867C356.98 233.218 359.697 235.935 363.049 235.935Z" fill="black"/>
<path d="M271.519 236.199C274.871 236.199 277.587 233.482 277.587 230.131C277.587 226.779 274.871 224.062 271.519 224.062C268.168 224.062 265.451 226.779 265.451 230.131C265.451 233.482 268.168 236.199 271.519 236.199Z" fill="black"/>
<path d="M170.623 233.082C173.974 233.082 176.691 230.365 176.691 227.014C176.691 223.662 173.974 220.945 170.623 220.945C167.272 220.945 164.555 223.662 164.555 227.014C164.555 230.365 167.272 233.082 170.623 233.082Z" fill="black"/>
<path d="M97.4061 170.551C100.758 170.551 103.474 167.834 103.474 164.482C103.474 161.131 100.758 158.414 97.4061 158.414C94.0547 158.414 91.3379 161.131 91.3379 164.482C91.3379 167.834 94.0547 170.551 97.4061 170.551Z" fill="black"/>
<path d="M610.367 345.888C615.953 345.888 620.481 341.359 620.481 335.774C620.481 330.188 615.953 325.66 610.367 325.66C604.781 325.66 600.253 330.188 600.253 335.774C600.253 341.359 604.781 345.888 610.367 345.888Z" fill="black"/>
<path d="M829.827 341.842C833.179 341.842 835.895 339.125 835.895 335.773C835.895 332.422 833.179 329.705 829.827 329.705C826.476 329.705 823.759 332.422 823.759 335.773C823.759 339.125 826.476 341.842 829.827 341.842Z" fill="black"/>
<path d="M946.187 342.885C950.656 342.885 954.278 339.263 954.278 334.794C954.278 330.326 950.656 326.703 946.187 326.703C941.719 326.703 938.096 330.326 938.096 334.794C938.096 339.263 941.719 342.885 946.187 342.885Z" fill="#1D1D1B" stroke="#FFDC00" stroke-width="5.70862"/>
<path d="M713.467 445.688C719.053 445.688 723.581 441.16 723.581 435.575C723.581 429.989 719.053 425.461 713.467 425.461C707.882 425.461 703.354 429.989 703.354 435.575C703.354 441.16 707.882 445.688 713.467 445.688Z" fill="black"/>
<path d="M599.658 555.349C603.009 555.349 605.726 552.633 605.726 549.281C605.726 545.93 603.009 543.213 599.658 543.213C596.306 543.213 593.59 545.93 593.59 549.281C593.59 552.633 596.306 555.349 599.658 555.349Z" fill="black"/>
<path d="M460.266 586.386C463.617 586.386 466.334 583.67 466.334 580.318C466.334 576.967 463.617 574.25 460.266 574.25C456.915 574.25 454.198 576.967 454.198 580.318C454.198 583.67 456.915 586.386 460.266 586.386Z" fill="black"/>
<path d="M657.99 497.045C661.341 497.045 664.058 494.328 664.058 490.976C664.058 487.625 661.341 484.908 657.99 484.908C654.638 484.908 651.921 487.625 651.921 490.976C651.921 494.328 654.638 497.045 657.99 497.045Z" fill="black"/>
<path d="M1062.55 448.544C1068.13 448.544 1072.66 444.016 1072.66 438.43C1072.66 432.844 1068.13 428.316 1062.55 428.316C1056.96 428.316 1052.43 432.844 1052.43 438.43C1052.43 444.016 1056.96 448.544 1062.55 448.544Z" fill="white" stroke="#1D1D1B" stroke-width="5.70862"/>
<path d="M1062.55 587.577C1068.13 587.577 1072.66 583.049 1072.66 577.463C1072.66 571.878 1068.13 567.35 1062.55 567.35C1056.96 567.35 1052.43 571.878 1052.43 577.463C1052.43 583.049 1056.96 587.577 1062.55 587.577Z" fill="black"/>
<path d="M1237.24 580.677C1240.59 580.677 1243.31 577.961 1243.31 574.609C1243.31 571.258 1240.59 568.541 1237.24 568.541C1233.89 568.541 1231.17 571.258 1231.17 574.609C1231.17 577.961 1233.89 580.677 1237.24 580.677Z" fill="black"/>
<path d="M1301.88 525.986C1305.23 525.986 1307.95 523.269 1307.95 519.918C1307.95 516.566 1305.23 513.85 1301.88 513.85C1298.53 513.85 1295.81 516.566 1295.81 519.918C1295.81 523.269 1298.53 525.986 1301.88 525.986Z" fill="black"/>
<path d="M1359.01 468.826C1362.36 468.826 1365.08 466.109 1365.08 462.758C1365.08 459.406 1362.36 456.689 1359.01 456.689C1355.66 456.689 1352.94 459.406 1352.94 462.758C1352.94 466.109 1355.66 468.826 1359.01 468.826Z" fill="black"/>
<rect x="438.817" y="317.453" width="54.1851" height="32.7247" rx="5.18822" fill="black"/>
<path d="M463.386 335.565C463.786 335.75 464.142 335.993 464.456 336.293C464.727 336.55 464.97 336.892 465.184 337.32C465.412 337.748 465.527 338.269 465.527 338.883C465.527 339.397 465.42 339.889 465.206 340.36C464.991 340.817 464.685 341.224 464.285 341.58C463.9 341.923 463.436 342.201 462.894 342.415C462.365 342.629 461.78 342.736 461.138 342.736H455.358V329.25H460.924C461.509 329.25 462.052 329.35 462.551 329.549C463.051 329.749 463.479 330.02 463.835 330.363C464.207 330.705 464.492 331.105 464.692 331.562C464.892 332.004 464.991 332.482 464.991 332.996C464.991 333.453 464.906 333.845 464.735 334.173C464.563 334.502 464.378 334.766 464.178 334.965C463.935 335.208 463.671 335.408 463.386 335.565ZM457.927 334.709H460.71C461.195 334.709 461.602 334.552 461.93 334.238C462.258 333.909 462.423 333.531 462.423 333.103C462.423 332.675 462.258 332.304 461.93 331.99C461.602 331.662 461.195 331.497 460.71 331.497H457.927V334.709ZM460.924 340.489C461.523 340.489 462.009 340.303 462.38 339.932C462.765 339.561 462.958 339.104 462.958 338.562C462.958 338.02 462.765 337.563 462.38 337.192C462.009 336.821 461.523 336.635 460.924 336.635H457.927V340.489H460.924ZM472.063 337.813H470.136V342.736H467.567V329.25H472.919C473.561 329.25 474.153 329.364 474.696 329.592C475.252 329.806 475.73 330.106 476.13 330.491C476.53 330.877 476.844 331.326 477.072 331.84C477.3 332.339 477.414 332.868 477.414 333.424C477.414 334.181 477.265 334.808 476.965 335.308C476.665 335.807 476.33 336.214 475.959 336.528C475.531 336.899 475.052 337.185 474.524 337.384L477.736 342.736H474.846L472.063 337.813ZM470.136 335.351H472.919C473.461 335.351 473.918 335.172 474.289 334.816C474.66 334.445 474.846 334.016 474.846 333.531C474.846 333.046 474.66 332.625 474.289 332.268C473.918 331.897 473.461 331.712 472.919 331.712H470.136V335.351Z" fill="#FFDC00"/>
<rect x="306.156" y="563.955" width="54.1851" height="32.7247" rx="5.18822" fill="black"/>
<path d="M332.231 586.657V589.119H323.347V575.633H325.916V586.657H332.231ZM335.348 582.376C335.348 583.018 335.455 583.61 335.669 584.153C335.883 584.681 336.168 585.145 336.525 585.544C336.882 585.929 337.296 586.229 337.767 586.443C338.252 586.657 338.766 586.764 339.308 586.764C339.836 586.764 340.343 586.657 340.828 586.443C341.313 586.229 341.734 585.929 342.091 585.544C342.448 585.145 342.733 584.681 342.947 584.153C343.161 583.61 343.268 583.018 343.268 582.376C343.268 581.734 343.161 581.148 342.947 580.62C342.733 580.078 342.448 579.614 342.091 579.229C341.734 578.829 341.313 578.523 340.828 578.308C340.343 578.094 339.836 577.987 339.308 577.987C338.766 577.987 338.252 578.094 337.767 578.308C337.296 578.523 336.882 578.829 336.525 579.229C336.168 579.614 335.883 580.078 335.669 580.62C335.455 581.148 335.348 581.734 335.348 582.376ZM345.837 582.376C345.837 583.346 345.659 584.245 345.302 585.073C344.96 585.901 344.489 586.629 343.889 587.257C343.304 587.87 342.612 588.356 341.813 588.712C341.028 589.055 340.193 589.226 339.308 589.226C338.423 589.226 337.581 589.055 336.782 588.712C335.997 588.356 335.305 587.87 334.705 587.257C334.12 586.629 333.649 585.901 333.293 585.073C332.95 584.245 332.779 583.346 332.779 582.376C332.779 581.42 332.95 580.528 333.293 579.7C333.649 578.858 334.12 578.13 334.705 577.516C335.305 576.888 335.997 576.403 336.782 576.061C337.581 575.704 338.423 575.525 339.308 575.525C340.193 575.525 341.028 575.704 341.813 576.061C342.612 576.403 343.304 576.888 343.889 577.516C344.489 578.13 344.96 578.858 345.302 579.7C345.659 580.528 345.837 581.42 345.837 582.376Z" fill="#FFDC00"/>
<rect x="1035.45" y="635.543" width="54.1851" height="32.7247" rx="5.18822" fill="black"/>
<path d="M1060.02 653.655C1060.42 653.84 1060.78 654.083 1061.09 654.383C1061.36 654.639 1061.61 654.982 1061.82 655.41C1062.05 655.838 1062.16 656.359 1062.16 656.973C1062.16 657.487 1062.06 657.979 1061.84 658.45C1061.63 658.907 1061.32 659.313 1060.92 659.67C1060.54 660.013 1060.07 660.291 1059.53 660.505C1059 660.719 1058.42 660.826 1057.78 660.826H1052V647.34H1057.56C1058.15 647.34 1058.69 647.439 1059.19 647.639C1059.69 647.839 1060.12 648.11 1060.47 648.453C1060.84 648.795 1061.13 649.195 1061.33 649.652C1061.53 650.094 1061.63 650.572 1061.63 651.086C1061.63 651.543 1061.54 651.935 1061.37 652.263C1061.2 652.591 1061.02 652.856 1060.82 653.055C1060.57 653.298 1060.31 653.498 1060.02 653.655ZM1054.56 652.798H1057.35C1057.83 652.798 1058.24 652.641 1058.57 652.327C1058.9 651.999 1059.06 651.621 1059.06 651.193C1059.06 650.765 1058.9 650.394 1058.57 650.08C1058.24 649.751 1057.83 649.587 1057.35 649.587H1054.56V652.798ZM1057.56 658.578C1058.16 658.578 1058.65 658.393 1059.02 658.022C1059.4 657.651 1059.6 657.194 1059.6 656.652C1059.6 656.109 1059.4 655.653 1059.02 655.282C1058.65 654.911 1058.16 654.725 1057.56 654.725H1054.56V658.578H1057.56ZM1068.7 655.902H1066.77V660.826H1064.2V647.34H1069.56C1070.2 647.34 1070.79 647.454 1071.33 647.682C1071.89 647.896 1072.37 648.196 1072.77 648.581C1073.17 648.967 1073.48 649.416 1073.71 649.93C1073.94 650.429 1074.05 650.957 1074.05 651.514C1074.05 652.27 1073.9 652.898 1073.6 653.398C1073.3 653.897 1072.97 654.304 1072.6 654.618C1072.17 654.989 1071.69 655.275 1071.16 655.474L1074.37 660.826H1071.48L1068.7 655.902ZM1066.77 653.441H1069.56C1070.1 653.441 1070.56 653.262 1070.93 652.905C1071.3 652.534 1071.48 652.106 1071.48 651.621C1071.48 651.136 1071.3 650.715 1070.93 650.358C1070.56 649.987 1070.1 649.801 1069.56 649.801H1066.77V653.441Z" fill="#FFDC00"/>
<rect x="1385.05" y="399.637" width="54.1851" height="32.7247" rx="5.18822" fill="black"/>
<path d="M1407.67 411.314C1408.31 411.314 1408.91 411.435 1409.47 411.678C1410.03 411.906 1410.51 412.228 1410.93 412.641C1411.35 413.041 1411.68 413.519 1411.91 414.076C1412.15 414.618 1412.27 415.196 1412.27 415.81C1412.27 416.423 1412.15 417.009 1411.91 417.565C1411.68 418.107 1411.35 418.586 1410.93 418.999C1410.51 419.399 1410.03 419.72 1409.47 419.963C1408.91 420.191 1408.31 420.305 1407.67 420.305H1405.21V424.801H1402.64V411.314H1407.67ZM1407.67 417.843C1407.94 417.843 1408.2 417.786 1408.44 417.672C1408.68 417.558 1408.9 417.408 1409.08 417.223C1409.27 417.037 1409.42 416.823 1409.53 416.58C1409.65 416.338 1409.71 416.081 1409.71 415.81C1409.71 415.539 1409.65 415.282 1409.53 415.039C1409.42 414.796 1409.27 414.582 1409.08 414.397C1408.9 414.211 1408.68 414.061 1408.44 413.947C1408.2 413.833 1407.94 413.776 1407.67 413.776H1405.21V417.843H1407.67ZM1425.12 411.314V424.801H1422.55V419.128H1416.88V424.801H1414.31V411.314H1416.88V416.666H1422.55V411.314H1425.12Z" fill="#FFDC00"/>
<rect x="1330.87" y="257.59" width="54.1851" height="32.7247" rx="5.18822" fill="black"/>
<path d="M1349.24 282.754H1346.56L1351.59 269.267H1353.94L1358.98 282.754H1356.3L1355.34 279.971H1350.2L1349.24 282.754ZM1354.48 277.616L1352.77 272.692L1351.05 277.616H1354.48ZM1364.55 280.292C1365.08 280.292 1365.58 280.178 1366.07 279.95C1366.57 279.721 1367 279.414 1367.37 279.029C1367.76 278.644 1368.06 278.194 1368.27 277.68C1368.5 277.152 1368.62 276.596 1368.62 276.011C1368.62 275.425 1368.5 274.876 1368.27 274.362C1368.06 273.834 1367.76 273.377 1367.37 272.992C1367 272.607 1366.57 272.3 1366.07 272.072C1365.58 271.843 1365.08 271.729 1364.55 271.729H1362.84V280.292H1364.55ZM1360.27 282.754V269.267H1364.55C1365.43 269.267 1366.27 269.453 1367.07 269.824C1367.87 270.181 1368.58 270.666 1369.19 271.28C1369.81 271.893 1370.29 272.607 1370.65 273.42C1371.01 274.234 1371.18 275.097 1371.18 276.011C1371.18 276.924 1371.01 277.787 1370.65 278.601C1370.29 279.414 1369.81 280.128 1369.19 280.742C1368.58 281.355 1367.87 281.848 1367.07 282.219C1366.27 282.576 1365.43 282.754 1364.55 282.754H1360.27Z" fill="#FFDC00"/>
<path d="M1280.52 346.092C1283.87 346.092 1286.59 343.375 1286.59 340.023C1286.59 336.672 1283.87 333.955 1280.52 333.955C1277.17 333.955 1274.45 336.672 1274.45 340.023C1274.45 343.375 1277.17 346.092 1280.52 346.092Z" fill="black"/>
</svg>
