<?xml version="1.0" encoding="utf-8"?>
<!-- Generator: Adobe Illustrator 19.0.1, SVG Export Plug-In . SVG Version: 6.00 Build 0)  -->
<svg version="1.1" id="Слой_1" xmlns="http://www.w3.org/2000/svg" xmlns:xlink="http://www.w3.org/1999/xlink" x="0px" y="0px"
	 viewBox="0 0 1008.5 468.3" style="enable-background:new 0 0 1008.5 468.3;" xml:space="preserve">
<g>
	<g>
		<path d="M381.3,407.4H249.5c-0.4,0-0.8-0.3-0.8-0.8s0.3-0.8,0.8-0.8h131.8c10.7,0,20.8-4.2,28.4-11.8l89.6-89.7
			c0.3-0.3,0.8-0.3,1.1,0s0.3,0.8,0,1.1l-89.6,89.7C402.9,403,392.5,407.4,381.3,407.4z"/>
	</g>
	<g>
		<path d="M811.1,309.6l-66.6-0.1c-1.1,0-2-0.9-2-2c0-1.1,0.9-2,2-2c0,0,0,0,0,0l66.6,0.1c10.4,0,20.2-4.1,27.6-11.4l97.7-97.7
			c0.8-0.8,2-0.8,2.8,0c0.8,0.8,0.8,2,0,2.8L841.5,297C833.4,305.1,822.6,309.6,811.1,309.6z"/>
	</g>
	<g>
		<path d="M744.5,309.5C744.5,309.5,744.5,309.5,744.5,309.5l-232.4-0.3c-8.4,0-16.3-3.3-22.2-9.2l-279-279c-0.8-0.8-0.8-2,0-2.8
			c0.8-0.8,2-0.8,2.8,0l279,279c5.2,5.2,12.1,8,19.4,8l232.4,0.3c1.1,0,2,0.9,2,2S745.6,309.5,744.5,309.5z"/>
	</g>
	<g>
		<path d="M353.2,161.6h-222c-11.1,0-21.6-4.3-29.5-12.2L28.9,76.6c-0.3-0.3-0.3-0.8,0-1.1s0.8-0.3,1.1,0l72.8,72.8
			c7.6,7.6,17.7,11.8,28.4,11.8h222c0.4,0,0.8,0.3,0.8,0.8S353.6,161.6,353.2,161.6z"/>
	</g>
	<g>
		<path d="M855,405.3H639c-0.4,0-0.8-0.3-0.8-0.8s0.3-0.8,0.8-0.8H855c10.7,0,20.8-4.2,28.4-11.8l95.4-95.4c0.3-0.3,0.8-0.3,1.1,0
			s0.3,0.8,0,1.1L884.5,393C876.6,400.9,866.1,405.3,855,405.3z"/>
	</g>
</g>
<g>
	<polygon points="192.4,12.6 194.8,12.6 193.6,9.1 	"/>
	<path d="M205.3,9.4c-0.3-0.3-0.6-0.5-0.9-0.6c-0.3-0.2-0.7-0.2-1.1-0.2h-1.2v6h1.2c0.4,0,0.7-0.1,1.1-0.2c0.3-0.2,0.6-0.4,0.9-0.6
		c0.3-0.3,0.5-0.6,0.6-1c0.2-0.4,0.2-0.8,0.2-1.2s-0.1-0.8-0.2-1.2C205.8,9.9,205.5,9.6,205.3,9.4z"/>
	<path d="M213.9,0h-30.7c-2,0-3.6,1.6-3.6,3.6v15.7c0,2,1.6,3.6,3.6,3.6h30.7c2,0,3.6-1.6,3.6-3.6V3.6C217.5,1.6,215.9,0,213.9,0z
		 M196,16.2l-0.7-2h-3.6l-0.7,2h-1.9l3.5-9.5h1.6l3.5,9.5H196z M207.6,13.3c-0.3,0.6-0.6,1.1-1,1.5c-0.4,0.4-0.9,0.8-1.5,1
		c-0.6,0.3-1.2,0.4-1.8,0.4h-3V6.7h3c0.6,0,1.2,0.1,1.8,0.4c0.6,0.3,1.1,0.6,1.5,1c0.4,0.4,0.8,0.9,1,1.5s0.4,1.2,0.4,1.8
		C207.9,12.1,207.8,12.7,207.6,13.3z"/>
</g>
<g>
	<polygon points="22.2,68 24.6,68 23.4,64.5 	"/>
	<path d="M34.3,55.4H3.6C1.6,55.4,0,57,0,59v15.7c0,2,1.6,3.6,3.6,3.6h30.7c2,0,3.6-1.6,3.6-3.6V59C38,57,36.3,55.4,34.3,55.4z
		 M17.5,71.6h-1.6l-4.2-6.2v6.2H9.9v-9.5h1.6l4.2,6.2v-6.2h1.8V71.6z M25.9,71.6l-0.7-2h-3.6l-0.7,2h-1.9l3.5-9.5h1.6l3.5,9.5H25.9z
		"/>
</g>
<circle cx="353.5" cy="160.8" r="7.1"/>
<circle cx="581.5" cy="307.5" r="4.3"/>
<circle cx="663" cy="307.5" r="4.3"/>
<circle cx="304.9" cy="112.6" r="4.3"/>
<circle cx="255.4" cy="62.5" r="4.3"/>
<circle cx="254.4" cy="160.8" r="4.3"/>
<circle cx="188.5" cy="160.8" r="4.3"/>
<circle cx="119.6" cy="159.4" r="4.3"/>
<circle cx="68.8" cy="115.6" r="4.3"/>
<circle cx="427.7" cy="235.3" r="7.1"/>
<circle cx="663" cy="235.3" r="4.3"/>
<circle cx="581.5" cy="235.3" r="4.3"/>
<g>
	<path d="M655.3,234.6c0-0.5,0.1-1,0.2-1.5H339.9c-1.1,0-2,0.9-2,2s0.9,2,2,2h315.8C655.5,236.3,655.3,235.4,655.3,234.6z"/>
	<path d="M703.5,233h-33c0.1,0.5,0.2,1,0.2,1.5c0,0.9-0.1,1.7-0.4,2.5h33.3c21.5,0,39,17.5,39,39v169c0,1.1,0.9,2,2,2s2-0.9,2-2V276
		C746.5,252.3,727.2,233,703.5,233z"/>
</g>
<circle cx="499.9" cy="305.2" r="7.1"/>
<circle cx="420.2" cy="384.9" r="4.3"/>
<circle cx="322.5" cy="406.6" r="4.3"/>
<circle cx="461" cy="344" r="4.3"/>
<path d="M744.5,298.4c-5,0-9.1,4.1-9.1,9.1s4.1,9.1,9.1,9.1s9.1-4.1,9.1-9.1S749.5,298.4,744.5,298.4z"/>
<circle cx="744.5" cy="404.2" r="7.1"/>
<circle cx="866.9" cy="402.6" r="4.3"/>
<circle cx="912.2" cy="364.3" r="4.3"/>
<circle cx="951.8" cy="324" r="4.3"/>
<g>
	<path d="M341.8,222.4h-30.7c-2,0-3.6,1.6-3.6,3.6v15.7c0,2,1.6,3.6,3.6,3.6h30.7c2,0,3.6-1.6,3.6-3.6v-15.7
		C345.4,224.1,343.8,222.4,341.8,222.4z M325,237c-0.1,0.3-0.4,0.6-0.6,0.9s-0.6,0.4-1,0.6c-0.4,0.1-0.8,0.2-1.2,0.2h-4v-9.5h3.9
		c0.4,0,0.8,0.1,1.1,0.2c0.3,0.1,0.7,0.3,0.9,0.6c0.3,0.2,0.5,0.5,0.6,0.8c0.1,0.3,0.2,0.7,0.2,1c0,0.3-0.1,0.6-0.2,0.8
		c-0.1,0.2-0.3,0.4-0.4,0.6c-0.2,0.2-0.4,0.3-0.6,0.4c0.3,0.1,0.5,0.3,0.8,0.5c0.2,0.2,0.4,0.4,0.5,0.7c0.2,0.3,0.2,0.7,0.2,1.1
		C325.2,236.4,325.1,236.7,325,237z M332.7,238.7l-2-3.5h-1.4v3.5h-1.8v-9.5h3.8c0.4,0,0.9,0.1,1.3,0.2c0.4,0.2,0.7,0.4,1,0.6
		c0.3,0.3,0.5,0.6,0.7,0.9c0.2,0.4,0.2,0.7,0.2,1.1c0,0.5-0.1,1-0.3,1.3c-0.2,0.4-0.4,0.6-0.7,0.9c-0.3,0.3-0.6,0.5-1,0.6l2.3,3.8
		H332.7z"/>
	<path d="M332.3,231.3c-0.3-0.3-0.6-0.4-1-0.4h-2v2.5h2c0.4,0,0.7-0.1,1-0.4c0.3-0.3,0.4-0.6,0.4-0.9S332.6,231.6,332.3,231.3z"/>
	<path d="M322,234.4h-2.1v2.7h2.1c0.4,0,0.8-0.1,1-0.4s0.4-0.6,0.4-1s-0.1-0.7-0.4-1S322.4,234.4,322,234.4z"/>
	<path d="M322.7,232.7c0.2-0.2,0.3-0.5,0.3-0.8s-0.1-0.6-0.3-0.8c-0.2-0.2-0.5-0.3-0.9-0.3h-2v2.3h2
		C322.2,233.1,322.5,233,322.7,232.7z"/>
</g>
<g>
	<path d="M240.7,403.9c-0.3-0.3-0.5-0.5-0.9-0.6c-0.3-0.1-0.7-0.2-1.1-0.2c-0.4,0-0.7,0.1-1.1,0.2c-0.3,0.2-0.6,0.4-0.9,0.6
		c-0.3,0.3-0.5,0.6-0.6,1s-0.2,0.8-0.2,1.2c0,0.4,0.1,0.9,0.2,1.2s0.3,0.7,0.6,1c0.2,0.3,0.5,0.5,0.9,0.6c0.3,0.2,0.7,0.2,1.1,0.2
		c0.4,0,0.7-0.1,1.1-0.2s0.6-0.4,0.9-0.6c0.2-0.3,0.4-0.6,0.6-1c0.1-0.4,0.2-0.8,0.2-1.2c0-0.5-0.1-0.9-0.2-1.2
		C241.1,404.5,240.9,404.2,240.7,403.9z"/>
	<path d="M248.9,395.2h-30.7c-2,0-3.6,1.6-3.6,3.6v15.7c0,2,1.6,3.6,3.6,3.6h30.7c2,0,3.6-1.6,3.6-3.6v-15.7
		C252.5,396.8,250.9,395.2,248.9,395.2z M231.8,410.9h-6.2v-9.5h1.8v7.7h4.4V410.9z M242.9,408c-0.2,0.6-0.6,1.1-1,1.5
		c-0.4,0.4-0.9,0.8-1.5,1c-0.6,0.2-1.1,0.4-1.8,0.4s-1.2-0.1-1.8-0.4c-0.6-0.2-1-0.6-1.5-1c-0.4-0.4-0.7-0.9-1-1.5s-0.4-1.2-0.4-1.9
		c0-0.7,0.1-1.3,0.4-1.9s0.6-1.1,1-1.5c0.4-0.4,0.9-0.8,1.5-1c0.6-0.2,1.1-0.4,1.8-0.4s1.2,0.1,1.8,0.4c0.6,0.2,1,0.6,1.5,1
		c0.4,0.4,0.7,0.9,1,1.5s0.4,1.2,0.4,1.9C243.3,406.8,243.2,407.5,242.9,408z"/>
</g>
<g>
	<path d="M621.3,401.1c-0.1-0.1-0.3-0.2-0.5-0.3c-0.2-0.1-0.3-0.1-0.5-0.1h-1.7v2.8h1.7c0.2,0,0.4,0,0.5-0.1s0.3-0.2,0.5-0.3
		s0.2-0.3,0.3-0.5c0.1-0.2,0.1-0.4,0.1-0.5c0-0.2,0-0.4-0.1-0.5C621.5,401.3,621.4,401.2,621.3,401.1z"/>
	<path d="M640.4,392.2h-30.7c-2,0-3.6,1.6-3.6,3.6v15.7c0,2,1.6,3.6,3.6,3.6h30.7c2,0,3.6-1.6,3.6-3.6v-15.7
		C644,393.8,642.4,392.2,640.4,392.2z M623.2,403.3c-0.2,0.4-0.4,0.7-0.7,1c-0.3,0.3-0.6,0.5-1,0.7c-0.4,0.2-0.8,0.2-1.3,0.2h-1.7
		v3.2h-1.8v-9.5h3.5c0.5,0,0.9,0.1,1.3,0.2c0.4,0.2,0.7,0.4,1,0.7c0.3,0.3,0.5,0.6,0.7,1s0.2,0.8,0.2,1.2S623.4,402.9,623.2,403.3z
		 M633.5,408.4h-1.8v-4h-4v4h-1.8v-9.5h1.8v3.8h4v-3.8h1.8V408.4z"/>
</g>
<circle cx="896.2" cy="238.9" r="4.3"/>
<g>
	<path d="M740,457.3h-2.1v2.7h2.1c0.4,0,0.8-0.1,1-0.4s0.4-0.6,0.4-1s-0.1-0.7-0.4-1S740.5,457.3,740,457.3z"/>
	<path d="M740.8,455.6c0.2-0.2,0.3-0.5,0.3-0.8s-0.1-0.6-0.3-0.8c-0.2-0.2-0.5-0.3-0.9-0.3h-2v2.3h2
		C740.2,456,740.5,455.8,740.8,455.6z"/>
	<path d="M750.4,454.2c-0.3-0.3-0.6-0.4-1-0.4h-2v2.5h2c0.4,0,0.7-0.1,1-0.4c0.3-0.3,0.4-0.6,0.4-0.9S750.7,454.5,750.4,454.2z"/>
	<path d="M759.9,445.3h-30.7c-2,0-3.6,1.6-3.6,3.6v15.7c0,2,1.6,3.6,3.6,3.6h30.7c2,0,3.6-1.6,3.6-3.6V449
		C763.5,446.9,761.9,445.3,759.9,445.3z M743,459.9c-0.1,0.3-0.4,0.6-0.6,0.9s-0.6,0.4-1,0.6c-0.4,0.1-0.8,0.2-1.2,0.2h-4v-9.5h3.9
		c0.4,0,0.8,0.1,1.1,0.2c0.3,0.1,0.7,0.3,0.9,0.6c0.3,0.2,0.5,0.5,0.6,0.8c0.1,0.3,0.2,0.7,0.2,1c0,0.3-0.1,0.6-0.2,0.8
		c-0.1,0.2-0.3,0.4-0.4,0.6c-0.2,0.2-0.4,0.3-0.6,0.4c0.3,0.1,0.5,0.3,0.8,0.5c0.2,0.2,0.4,0.4,0.5,0.7c0.2,0.3,0.2,0.7,0.2,1.1
		C743.3,459.2,743.2,459.6,743,459.9z M750.8,461.6l-2-3.5h-1.4v3.5h-1.8v-9.5h3.8c0.4,0,0.9,0.1,1.3,0.2c0.4,0.2,0.7,0.4,1,0.6
		c0.3,0.3,0.5,0.6,0.7,0.9c0.2,0.4,0.2,0.7,0.2,1.1c0,0.5-0.1,1-0.3,1.3c-0.2,0.4-0.4,0.6-0.7,0.9c-0.3,0.3-0.6,0.5-1,0.6l2.3,3.8
		H750.8z"/>
</g>
<g>
	<path d="M958,189.8c-0.3-0.3-0.6-0.5-0.9-0.6c-0.3-0.2-0.7-0.2-1.1-0.2h-1.2v6h1.2c0.4,0,0.7-0.1,1.1-0.2c0.3-0.2,0.6-0.4,0.9-0.6
		c0.3-0.3,0.5-0.6,0.6-1c0.2-0.4,0.2-0.8,0.2-1.2s-0.1-0.8-0.2-1.2C958.5,190.4,958.3,190.1,958,189.8z"/>
	<polygon points="945.1,193.1 947.5,193.1 946.3,189.6 	"/>
	<path d="M967.1,180.5h-30.7c-2,0-3.6,1.6-3.6,3.6v15.7c0,2,1.6,3.6,3.6,3.6h30.7c2,0,3.6-1.6,3.6-3.6v-15.7
		C970.7,182.1,969.1,180.5,967.1,180.5z M948.8,196.7l-0.7-2h-3.6l-0.7,2H942l3.5-9.5h1.6l3.5,9.5H948.8z M960.3,193.8
		c-0.3,0.6-0.6,1.1-1,1.5c-0.4,0.4-0.9,0.8-1.5,1c-0.6,0.3-1.2,0.4-1.8,0.4h-3v-9.5h3c0.6,0,1.2,0.1,1.8,0.4c0.6,0.3,1.1,0.6,1.5,1
		c0.4,0.4,0.8,0.9,1,1.5s0.4,1.2,0.4,1.8C960.7,192.6,960.6,193.2,960.3,193.8z"/>
</g>
<g>
	<path d="M985.7,288.9c-0.1-0.1-0.3-0.2-0.5-0.3c-0.2-0.1-0.3-0.1-0.5-0.1H983v2.8h1.7c0.2,0,0.4,0,0.5-0.1s0.3-0.2,0.5-0.3
		s0.2-0.3,0.3-0.5c0.1-0.2,0.1-0.4,0.1-0.5c0-0.2,0-0.4-0.1-0.5C985.9,289.2,985.8,289.1,985.7,288.9z"/>
	<path d="M1004.8,280h-30.7c-2,0-3.6,1.6-3.6,3.6v15.7c0,2,1.6,3.6,3.6,3.6h30.7c2,0,3.6-1.6,3.6-3.6v-15.7
		C1008.5,281.7,1006.8,280,1004.8,280z M987.7,291.1c-0.2,0.4-0.4,0.7-0.7,1c-0.3,0.3-0.6,0.5-1,0.7c-0.4,0.2-0.8,0.2-1.3,0.2H983
		v3.2h-1.8v-9.5h3.5c0.5,0,0.9,0.1,1.3,0.2c0.4,0.2,0.7,0.4,1,0.7c0.3,0.3,0.5,0.6,0.7,1s0.2,0.8,0.2,1.2S987.9,290.8,987.7,291.1z
		 M997.9,296.2h-1.8v-4h-4v4h-1.8v-9.5h1.8v3.8h4v-3.8h1.8V296.2z"/>
</g>
</svg>
