<?xml version="1.0" encoding="utf-8"?>
<!-- Generator: Adobe Illustrator 19.0.1, SVG Export Plug-In . SVG Version: 6.00 Build 0)  -->
<svg version="1.1" id="Слой_1" xmlns="http://www.w3.org/2000/svg" xmlns:xlink="http://www.w3.org/1999/xlink" x="0px" y="0px"
	 viewBox="354 -518 390 530" style="enable-background:new 354 -518 390 530;" xml:space="preserve">
<style type="text/css">
	.st0{fill:none;}
	.st1{opacity:3.000000e-002;fill:url(#SVGID_1_);enable-background:new    ;}
	.st2{font-family:'TTCommons-Light';}
	.st3{font-size:20px;}
	.st4{font-family:'TTCommons-DemiBold';}
	.st5{font-size:14.9508px;}
	.st6{font-family:'TTCommons-Thin';}
	.st7{fill:none;stroke:#000000;stroke-width:0.25;stroke-miterlimit:10;}
</style>
<pattern  x="177" y="271" width="390" height="530" patternUnits="userSpaceOnUse" id="SVGID_2_" viewBox="0 -530 390 530" style="overflow:visible;">
	<g>
		<polygon class="st0" points="0,0 390,0 390,-530 0,-530 		"/>
		<g>
			<polygon class="st0" points="0,-530 390,-530 390,0 0,0 			"/>
		</g>
	</g>
</pattern>
<pattern  id="SVGID_1_" xlink:href="#SVGID_2_" patternTransform="matrix(1 0 0 1 588.1813 17173)">
</pattern>
<rect x="354" y="-518" class="st1" width="390" height="530"/>
<text transform="matrix(1 0 0 1 470.552 -82.8161)" class="st2 st3">one day travelcard</text>
<g>
	<text transform="matrix(1 0 0 1 470.5516 -469.3753)" class="st4 st5">don’t forget to validate before use</text>
</g>
<text transform="matrix(1 0 0 1 379.1692 -24.877)" class="st6 st5">please retain till the end of journey</text>
<line class="st7" x1="380.2" y1="-47.7" x2="720.4" y2="-47.7"/>
<g>
	<polygon points="391.2,-232.3 380.3,-227 380.3,-222.4 395.3,-229.9 404,-225.6 404,-230.2 380.3,-242.1 380.3,-237.5 	"/>
	<path d="M386.9-173.7v6.2h-3.4v-9.7h-3.3v8.8c0,2.7,2.1,5,4.7,5.1c2.9,0.1,5.2-2.1,5.2-5v-6.6h3.9v11.1h3.3V-174
		c0-3-2.5-5.3-5.5-5.2C389.1-178.9,386.9-176.5,386.9-173.7z"/>
	<polygon points="380.3,-219.4 380.3,-202.5 397.3,-202.5 397.3,-206.8 384.1,-206.8 384.1,-215.2 397.3,-215.2 397.3,-219.4 	"/>
	<polygon points="380.3,-411.2 386.1,-405.5 380.3,-399.8 380.3,-394.7 388.8,-402.9 397.3,-394.7 397.3,-399.8 391.5,-405.5 
		397.3,-411.2 397.3,-416.3 388.8,-408.1 380.3,-416.3 	"/>
	<polygon points="380.3,-357.9 380.3,-353.2 397.3,-361.6 397.3,-366.7 380.3,-375.1 380.3,-370.4 393.5,-364.1 	"/>
	<polygon points="397.3,-281.3 397.3,-285.6 384.1,-285.6 384.1,-292 397.3,-292 397.3,-296.3 384.1,-296.3 384.1,-302.7 
		397.3,-302.7 397.3,-307 380.3,-307 380.3,-281.3 	"/>
	<polygon points="380.3,-324.5 393.5,-324.5 393.5,-316.2 380.3,-316.2 380.3,-311.9 397.3,-311.9 397.3,-311.9 397.3,-311.9 
		397.3,-328.8 380.3,-328.8 	"/>
	<path d="M379.8-190.3c0,5,4,9,9,9s9-4,9-9s-4-9-9-9S379.8-195.3,379.8-190.3z M393.8-190.3c0,3-2.1,4.7-5.1,4.7
		c-2.9,0-5.1-1.7-5.1-4.7s2.1-4.7,5.1-4.7S393.8-193.4,393.8-190.3z"/>
	<path d="M397.8-341c0-2.1-0.7-4-1.9-5.6l1.5-1.1v-5h-3.8v2.8h-20v4.3h7.5c-0.8,1.4-1.3,3-1.3,4.7c0,5,4,9,9,9
		C393.7-332.1,397.8-336.1,397.8-341z M383.7-341c0-2.9,2-4.6,4.8-4.7h0.6c2.8,0.1,4.8,1.8,4.8,4.7c0,3-2.1,4.7-5.1,4.7
		C385.9-336.3,383.7-338,383.7-341z"/>
	<path d="M388.8-260.8L388.8-260.8c-5,0-9,4-9,9c0,5,4,9,9,9s9-4,9-9c0-2.1-0.7-4-1.9-5.6l1.5-1.1v-5h-3.8v2.8L388.8-260.8
		L388.8-260.8z M393.8-251.9c0,3-2.1,4.7-5.1,4.7c-2.9,0-5.1-1.7-5.1-4.7s2.1-4.7,5.1-4.7S393.8-254.9,393.8-251.9z"/>
	<path d="M388.8-393.8c-5,0-9,4-9,9s4,9,9,9s9-4.7,9-9.7c0-2.8-0.8-5-2.7-7.1h-3.4c1.3,1.9,2.5,4.1,2.5,6.5c0,2-0.6,4-2.3,5.2
		c-0.6,0.4-1.2,0.6-1.9,0.7v-13.5C389.6-393.8,389.2-393.8,388.8-393.8z M386.8-380.3c-2.1-0.5-3.5-1.9-3.5-4.5c0-2.6,1.3-4,3.5-4.5
		V-380.3z"/>
</g>
<g>
	<path d="M455.7-472.8c-0.1,1-0.6,1.6-1.7,1.6s-1.9-0.8-1.8-1.8c0.1-1.1,0.7-1.7,1.8-1.7C454.9-474.7,455.7-473.9,455.7-472.8z"/>
	<path d="M438.7-471.1c-1-0.1-1.7-0.8-1.6-1.8c0-1,0.7-1.7,1.8-1.7c1,0,1.9,0.9,1.8,1.9C440.5-471.8,439.9-471.1,438.7-471.1z"/>
	<path d="M433.8-471.1c-1.1-0.1-1.7-0.7-1.8-1.7c-0.1-1,0.8-1.8,1.8-1.8s1.8,0.8,1.8,1.9C435.5-471.7,434.8-471.2,433.8-471.1z"/>
	<path d="M445.7-472.8c-0.1,0.9-0.6,1.6-1.7,1.6c-1,0-1.9-0.8-1.8-1.8c0-1.1,0.7-1.7,1.7-1.8C444.8-474.8,445.7-473.9,445.7-472.8z"
		/>
	<path d="M450.7-472.9c0,1-0.6,1.7-1.7,1.7c-1,0.1-1.9-0.7-1.9-1.7s0.9-1.9,1.8-1.8C450-474.6,450.6-474,450.7-472.9z"/>
</g>
<g>
	<path d="M429.9-472.8c-0.1,1-0.6,1.6-1.7,1.6c-1.1,0-1.9-0.8-1.8-1.8c0.1-1.1,0.7-1.7,1.8-1.7C429.1-474.7,429.9-473.9,429.9-472.8
		z"/>
	<path d="M412.9-471.1c-1-0.1-1.7-0.8-1.6-1.8c0-1,0.7-1.7,1.8-1.7c1,0,1.9,0.9,1.8,1.9C414.7-471.8,414.1-471.1,412.9-471.1z"/>
	<path d="M408-471.1c-1.1-0.1-1.7-0.7-1.8-1.7c-0.1-1,0.8-1.8,1.8-1.8s1.8,0.8,1.8,1.9C409.7-471.7,409-471.2,408-471.1z"/>
	<path d="M419.9-472.8c-0.1,0.9-0.6,1.6-1.7,1.6c-1,0-1.9-0.8-1.8-1.8c0-1.1,0.7-1.7,1.7-1.8C419-474.8,419.9-473.9,419.9-472.8z"/>
	<path d="M424.8-472.9c0,1-0.6,1.7-1.7,1.7c-1,0.1-1.9-0.7-1.9-1.7s0.9-1.9,1.8-1.8C424.2-474.6,424.8-474,424.8-472.9z"/>
</g>
<g>
	<path d="M404.1-472.8c-0.1,1-0.6,1.6-1.7,1.6c-1.1,0-1.9-0.8-1.8-1.8c0.1-1.1,0.7-1.7,1.8-1.7C403.3-474.7,404.1-473.9,404.1-472.8
		z"/>
	<path d="M387.1-471.1c-1-0.1-1.7-0.8-1.6-1.8c0-1,0.7-1.7,1.8-1.7c1,0,1.9,0.9,1.8,1.9C388.8-471.8,388.3-471.1,387.1-471.1z"/>
	<path d="M382.2-471.1c-1.1-0.1-1.7-0.7-1.8-1.7s0.8-1.8,1.8-1.8s1.8,0.8,1.8,1.9C383.9-471.7,383.2-471.2,382.2-471.1z"/>
	<path d="M394-472.8c-0.1,0.9-0.6,1.6-1.7,1.6c-1,0-1.9-0.8-1.8-1.8c0-1.1,0.7-1.7,1.7-1.8C393.2-474.8,394.1-473.9,394-472.8z"/>
	<path d="M399-472.9c0,1-0.6,1.7-1.7,1.7c-1,0.1-1.9-0.7-1.9-1.7s0.9-1.9,1.8-1.8C398.4-474.6,399-474,399-472.9z"/>
</g>
<g>
	<path d="M387.2-100c-1.1-0.1-1.7-0.6-1.8-1.7c-0.1-1,0.8-1.9,1.8-1.9s1.9,0.8,1.8,1.9S388.3-100.1,387.2-100z"/>
	<path d="M387.3-75c-1,0-1.9-0.8-1.9-1.8c0.1-1,0.6-1.7,1.7-1.8c1-0.1,1.9,0.8,1.9,1.8C388.9-75.8,388.4-75.1,387.3-75z"/>
	<path d="M382.2-100c-1.1-0.1-1.7-0.7-1.8-1.8c-0.1-1,0.9-1.8,1.8-1.8c1,0,1.8,0.9,1.7,1.9C383.9-100.5,383.1-100.1,382.2-100z"/>
	<path d="M389-96.8c0,0.9-0.9,1.9-1.8,1.9c-1-0.1-1.7-0.7-1.8-1.7c0-1,0.5-1.7,1.6-1.8C388.1-98.6,389-97.9,389-96.8z"/>
	<path d="M404.1-86.7c-0.1,1-0.6,1.6-1.7,1.6c-1.1,0-1.9-0.8-1.8-1.8c0.1-1.1,0.7-1.7,1.8-1.7C403.3-88.6,404.1-87.8,404.1-86.7z"/>
	<path d="M383.9-76.8c0,1-0.9,1.8-1.9,1.7c-1.1-0.1-1.7-0.8-1.7-1.8s0.7-1.7,1.8-1.7S384-77.8,383.9-76.8z"/>
	<path d="M392.4-78.6c1,0.2,1.6,0.8,1.6,1.8s-0.9,1.8-1.9,1.7s-1.7-0.9-1.6-2C390.6-78,391.4-78.7,392.4-78.6z"/>
	<path d="M383.9-106.7c0,1-0.9,1.8-1.9,1.7c-1.1-0.1-1.7-0.8-1.7-1.8c0-1.1,0.7-1.6,1.8-1.7C383.2-108.5,384-107.7,383.9-106.7z"/>
	<path d="M387.1-85c-1-0.1-1.7-0.8-1.6-1.8c0-1,0.7-1.7,1.8-1.7c1,0,1.9,0.9,1.8,1.9C388.8-85.7,388.3-85,387.1-85z"/>
	<path d="M382.3-98.5c1,0.1,1.6,0.6,1.7,1.7c0.1,1-0.8,1.9-1.8,1.9c-0.9,0-1.9-1-1.8-1.9C380.5-97.9,381.1-98.5,382.3-98.5z"/>
	<path d="M390.5-97c0.1-0.9,0.7-1.5,1.8-1.5c1,0,1.9,0.8,1.8,1.8s-0.8,1.7-1.8,1.7C391.3-94.9,390.5-95.8,390.5-97z"/>
	<path d="M387.3-93.5c1,0,1.5,0.7,1.7,1.7c0.1,1-0.9,1.9-1.8,1.8c-1.1-0.1-1.7-0.7-1.7-1.8C385.4-92.7,386.2-93.5,387.3-93.5z"/>
	<path d="M390.5-91.5c0-1.2,0.8-2,1.8-2c1.1,0,1.7,0.7,1.8,1.7s-0.9,1.9-1.8,1.8C391.2-90.1,390.5-90.6,390.5-91.5z"/>
	<path d="M382.2-85c-1.1-0.1-1.7-0.7-1.8-1.7s0.8-1.8,1.8-1.8s1.8,0.8,1.8,1.9C383.9-85.6,383.2-85.1,382.2-85z"/>
	<path d="M394-86.7c-0.1,0.9-0.6,1.6-1.7,1.6c-1,0-1.9-0.8-1.8-1.8c0-1.1,0.7-1.7,1.7-1.8C393.2-88.6,394.1-87.7,394-86.7z"/>
	<path d="M399-86.8c0,1-0.6,1.7-1.7,1.7c-1,0.1-1.9-0.7-1.9-1.7s0.9-1.9,1.8-1.8C398.4-88.5,399-87.9,399-86.8z"/>
	<path d="M387.3-80c-1.1,0-1.7-0.7-1.8-1.7s0.8-1.9,1.8-1.8c1.1,0.1,1.7,0.7,1.7,1.8C389-80.8,388.4-80.1,387.3-80z"/>
	<path d="M382.3-73.6c1,0.1,1.6,0.6,1.7,1.7c0.1,1-0.8,1.9-1.7,1.9c-0.9,0-1.9-0.9-1.8-1.9C380.5-72.9,381.1-73.5,382.3-73.6z"/>
	<path d="M387.2-73.5c1.1,0,1.6,0.7,1.7,1.7c0.1,0.9-0.9,1.9-1.8,1.8c-1-0.1-1.7-0.7-1.7-1.8C385.4-72.8,386.2-73.6,387.2-73.5z"/>
	<path d="M382-93.5c1.2,0,2,0.8,2,1.8c0,1.1-0.7,1.7-1.7,1.8c-0.9,0.1-1.9-0.8-1.8-1.8C380.5-92.8,381-93.4,382-93.5z"/>
	<path d="M399-92c0,1.2-0.6,1.8-1.7,2c-1,0.1-1.9-0.8-1.8-1.8c0.1-1.1,0.7-1.7,1.8-1.7C398.4-93.5,398.9-92.9,399-92z"/>
	<path d="M382.1-83.6c1,0,1.9,0.8,1.8,1.8c0,1.1-0.7,1.7-1.7,1.7c-1,0.1-1.8-0.8-1.8-1.8C380.4-82.7,381.2-83.5,382.1-83.6z"/>
	<path d="M392.4-80c-1.2,0-2-0.8-1.9-1.8c0-1.1,0.7-1.6,1.8-1.7c1-0.1,1.9,0.9,1.8,1.8C393.9-80.7,393.3-80.1,392.4-80z"/>
	<path d="M399-81.6c-0.1,0.9-0.6,1.6-1.7,1.6c-1.1,0-1.7-0.6-1.8-1.7c-0.1-1,0.8-1.9,1.8-1.8C398.4-83.5,399-82.9,399-81.6z"/>
	<path d="M384-66.9c-0.1,1.2-0.7,1.7-1.7,1.8c-0.9,0.1-1.9-0.9-1.9-1.8c0-1,0.9-1.8,1.9-1.7C383.3-68.5,383.9-67.9,384-66.9z"/>
</g>
<path d="M719.9-178l0.1-0.1c0.1-0.1,0.1-0.2,0.1-0.2s0-0.1,0.1-0.1c0-0.1,0.1-0.2,0.1-0.3v-0.1c0-0.1,0-0.3,0-0.4s0-0.3,0-0.4v-0.1
	c0-0.1-0.1-0.2-0.1-0.3c0,0,0-0.1-0.1-0.1c0-0.1-0.1-0.2-0.1-0.2l-0.1-0.1c-0.1-0.1-0.1-0.1-0.2-0.2l0,0l-16-14
	c-0.9-0.8-2.2-0.7-2.9,0.2c-0.8,0.9-0.7,2.2,0.2,2.9l11.9,10.4h-36.6c-1.1,0-2.1,0.9-2.1,2.1c0,1.1,0.9,2.1,2.1,2.1h36.6l-11.9,10
	c-0.9,0.8-0.9,2.1-0.2,2.9c0.4,0.5,1,0.7,1.6,0.7c0.5,0,1-0.2,1.4-0.5l16-14l0,0C719.8-177.9,719.9-177.9,719.9-178z"/>
</svg>
