<?xml version="1.0" encoding="utf-8"?>
<!-- Generator: Adobe Illustrator 19.0.0, SVG Export Plug-In . SVG Version: 6.00 Build 0)  -->
<svg version="1.1" id="Шар_1" xmlns="http://www.w3.org/2000/svg" xmlns:xlink="http://www.w3.org/1999/xlink" x="0px" y="0px"
	 viewBox="-893 868 32 32" style="enable-background:new -893 868 32 32;" xml:space="preserve">
<path d="M-861.6,888.1c-1.1,4.1-3.8,7.6-7.5,9.7c-2.5,1.4-5.2,2.1-8,2.1c-1.4,0-2.8-0.2-4.2-0.6c-4.1-1.1-7.6-3.8-9.7-7.5
	c-2.1-3.7-2.7-8-1.6-12.1c1.1-4.1,3.8-7.6,7.5-9.7c3.7-2.1,8-2.7,12.1-1.6c4.1,1.1,7.6,3.8,9.7,7.5S-860.4,884-861.6,888.1z
	 M-864.6,876.8c-1.9-3.3-5-5.7-8.7-6.7c-1.2-0.3-2.5-0.5-3.7-0.5c-2.5,0-4.9,0.7-7.1,1.9c-3.3,1.9-5.7,5-6.7,8.7
	c-1,3.7-0.5,7.6,1.4,10.9c1.9,3.3,5,5.7,8.7,6.7c3.7,1,7.6,0.5,10.9-1.4c3.3-1.9,5.7-5,6.7-8.7C-862.2,884-862.7,880.1-864.6,876.8z
	 M-867.8,877.7c-0.2,0-0.5-0.1-0.7-0.3c-1.7-2.2-4.3-3.7-7.1-4.1c-0.5-0.1-0.8-0.5-0.7-0.9c0.1-0.5,0.5-0.8,0.9-0.7
	c3.2,0.4,6.2,2.2,8.2,4.7c0.3,0.4,0.2,0.9-0.1,1.2C-867.5,877.7-867.6,877.7-867.8,877.7z M-868.5,884c0,0.6-0.3,1.2-0.9,1.5
	l-10.3,5.9c-0.3,0.2-0.6,0.2-0.9,0.2s-0.6-0.1-0.9-0.2c-0.5-0.3-0.9-0.9-0.9-1.5v-11.9c0-0.6,0.3-1.2,0.9-1.5c0.5-0.3,1.2-0.3,1.7,0
	l10.3,5.9C-868.8,882.8-868.5,883.4-868.5,884z M-870.2,883.9l-10.3-5.9c0,0,0,0,0,0c0,0,0,0,0,0c0,0,0,0.1,0,0.1v11.9
	c0,0,0,0,0,0.1c0,0,0.1,0,0.1,0l10.3-5.9C-870.1,884-870.1,884-870.2,883.9C-870.1,883.9-870.1,883.9-870.2,883.9z"/>
</svg>
