<?xml version="1.0" encoding="utf-8"?>
<!-- Generator: Adobe Illustrator 19.0.0, SVG Export Plug-In . SVG Version: 6.00 Build 0)  -->
<svg version="1.1" id="Шар_1" xmlns="http://www.w3.org/2000/svg" xmlns:xlink="http://www.w3.org/1999/xlink" x="0px" y="0px"
	 viewBox="11 -20.5 89.2 122.8" style="enable-background:new 11 -20.5 89.2 122.8;" xml:space="preserve">
<path d="M99.5,81.4l-20.2,20.2c-0.5,0.5-1.1,0.7-1.7,0.7H13.5c-1.4,0-2.5-1.1-2.5-2.4v-118c0-1.4,1.1-2.4,2.5-2.4h84.3
	c1.4,0,2.5,1.1,2.5,2.4v97.8C100.2,80.4,100,81,99.5,81.4z M80,94l11.8-11.8l-11.8,0L80,94z M95.3-15.7H15.9V97.4h59.2l0-17.7
	c0-0.7,0.3-1.3,0.7-1.7c0.5-0.5,1.1-0.7,1.7-0.7c0,0,0,0,0,0l17.8,0V-15.7z M82.8,49.7h1.3c1.4,0,2.5,1.1,2.5,2.4
	c0,1.4-1.1,2.4-2.5,2.4h-1.3c-1.4,0-2.5-1.1-2.5-2.4C80.4,50.8,81.5,49.7,82.8,49.7z M84.2,46.3H27c-1.4,0-2.5-1.1-2.5-2.4
	c0-1.4,1.1-2.4,2.5-2.4h57.2c1.4,0,2.5,1.1,2.5,2.4C86.6,45.2,85.5,46.3,84.2,46.3z M84.2,37.2H27c-1.4,0-2.5-1.1-2.5-2.4
	c0-1.4,1.1-2.4,2.5-2.4h57.2c1.4,0,2.5,1.1,2.5,2.4C86.6,36.1,85.5,37.2,84.2,37.2z M84.2,28.9H27c-1.4,0-2.5-1.1-2.5-2.4
	c0-1.4,1.1-2.4,2.5-2.4h57.2c1.4,0,2.5,1.1,2.5,2.4C86.6,27.8,85.5,28.9,84.2,28.9z M84.1,9.6H47.8c-1.4,0-2.5-1.1-2.5-2.4
	c0-1.4,1.1-2.4,2.5-2.4h36.3c1.4,0,2.5,1.1,2.5,2.4C86.5,8.5,85.4,9.6,84.1,9.6z M84.1-1H62.7c-1.4,0-2.5-1.1-2.5-2.4
	s1.1-2.4,2.5-2.4h21.3c1.4,0,2.5,1.1,2.5,2.4S85.4-1,84.1-1z M35.2-1h-7.1c-1.4,0-2.5-1.1-2.5-2.4s1.1-2.4,2.5-2.4h7.1
	c1.4,0,2.5,1.1,2.5,2.4S36.6-1,35.2-1z M27,49.7h47.2c1.4,0,2.5,1.1,2.5,2.4c0,1.4-1.1,2.4-2.5,2.4H27c-1.4,0-2.5-1.1-2.5-2.4
	C24.6,50.8,25.7,49.7,27,49.7z M36.1,67.8c6.2,0,11.2,5,11.2,11.2c0,6.2-5,11.2-11.2,11.2c-6.2,0-11.2-5-11.2-11.2
	C24.9,72.8,30,67.8,36.1,67.8z M36.1,85.2c3.5,0,6.3-2.8,6.3-6.3c0-3.5-2.8-6.3-6.3-6.3s-6.3,2.8-6.3,6.3
	C29.9,82.4,32.7,85.2,36.1,85.2z M54.6,76.9h13.5c1.4,0,2.5,1.1,2.5,2.4c0,1.4-1.1,2.4-2.5,2.4H54.6c-1.4,0-2.5-1.1-2.5-2.4
	C52.2,78,53.3,76.9,54.6,76.9z"/>
</svg>
