<?xml version="1.0" encoding="utf-8"?>
<!-- Generator: Adobe Illustrator 19.0.0, SVG Export Plug-In . SVG Version: 6.00 Build 0)  -->
<svg version="1.1" id="Шар_1" xmlns="http://www.w3.org/2000/svg" xmlns:xlink="http://www.w3.org/1999/xlink" x="0px" y="0px"
	 viewBox="-22 30.3 23 23" style="enable-background:new -22 30.3 23 23;" xml:space="preserve">
<path d="M-10.5,53.3c-6.3,0-11.5-5.2-11.5-11.5s5.2-11.5,11.5-11.5S1,35.5,1,41.8S-4.2,53.3-10.5,53.3z M-10.5,32.3
	c-5.3,0-9.5,4.3-9.5,9.5c0,5.3,4.3,9.5,9.5,9.5S-1,47.1-1,41.8C-1,36.5-5.2,32.3-10.5,32.3z M-6.1,46.3c-0.2,0.2-0.4,0.3-0.7,0.3
	s-0.5-0.1-0.7-0.3l-3.1-3.1l-3.1,3.1c-0.2,0.2-0.4,0.3-0.7,0.3c-0.3,0-0.5-0.1-0.7-0.3c-0.4-0.4-0.4-1,0-1.4l3.1-3.1l-3.1-3.1
	c-0.4-0.4-0.4-1,0-1.4c0.4-0.4,1-0.4,1.4,0l3.1,3.1l3.1-3.1c0.4-0.4,1-0.4,1.4,0c0.4,0.4,0.4,1,0,1.4l-3.1,3.1l3.1,3.1
	C-5.7,45.2-5.7,45.9-6.1,46.3z"/>
</svg>
