<?xml version="1.0" encoding="utf-8"?>
<!-- Generator: Adobe Illustrator 19.0.0, SVG Export Plug-In . SVG Version: 6.00 Build 0)  -->
<svg version="1.1" id="Шар_1" xmlns="http://www.w3.org/2000/svg" xmlns:xlink="http://www.w3.org/1999/xlink" x="0px" y="0px"
	 viewBox="0 0 67.2 83.3" style="enable-background:new 0 0 67.2 83.3;" xml:space="preserve">
<g id="XMLID_24_">
	<path id="XMLID_195_" d="M29.2,24.3c0.3-0.2,0.5-0.6,0.4-1l-0.7-4.2l3.1-3c0.3-0.3,0.4-0.7,0.3-1c-0.1-0.4-0.4-0.6-0.8-0.7
		l-4.2-0.6L25.4,10c-0.2-0.3-0.5-0.6-0.9-0.6s-0.7,0.2-0.9,0.6l-1.9,3.8l-4.2,0.6c-0.4,0.1-0.7,0.3-0.8,0.7c-0.1,0.4,0,0.8,0.3,1
		l3.1,3l-0.7,4.2c-0.1,0.4,0.1,0.7,0.4,1c0.2,0.1,0.4,0.2,0.6,0.2s0.3,0,0.5-0.1l3.8-2l3.8,2C28.5,24.6,28.9,24.6,29.2,24.3z
		 M24.8,20.4c-0.3-0.2-0.6-0.2-0.9,0l-2.5,1.3l0.5-2.7c0.1-0.3-0.1-0.6-0.3-0.9l-2-1.9l2.8-0.4c0.3,0,0.6-0.2,0.7-0.5l1.2-2.5
		l1.2,2.5c0.1,0.3,0.4,0.5,0.7,0.5l2.8,0.4l-2,1.9c-0.2,0.2-0.3,0.6-0.3,0.9l0.5,2.7L24.8,20.4z M67.2,15.2
		c-0.1-0.4-0.4-0.6-0.8-0.7l-4.2-0.6l-1.9-3.8c-0.2-0.3-0.5-0.6-0.9-0.6s-0.7,0.2-0.9,0.6l-1.9,3.8l-4.2,0.6
		c-0.4,0.1-0.7,0.3-0.8,0.7s0,0.8,0.3,1l3.1,3l-0.7,4.2c-0.1,0.4,0.1,0.7,0.4,1c0.3,0.2,0.7,0.2,1,0.1l3.8-2l3.8,2
		c0.1,0.1,0.3,0.1,0.5,0.1s0.4-0.1,0.6-0.2c0.3-0.2,0.5-0.6,0.4-1l-0.7-4.2l3.1-3C67.2,15.9,67.3,15.6,67.2,15.2z M62.1,18.1
		c-0.2,0.2-0.3,0.6-0.3,0.9l0.5,2.7l-2.5-1.3c-0.1-0.1-0.3-0.1-0.5-0.1s-0.3,0-0.5,0.1l-2.5,1.3l0.5-2.7c0.1-0.3-0.1-0.6-0.3-0.9
		l-2-1.9l2.8-0.4c0.3,0,0.6-0.2,0.7-0.5l1.2-2.5l1.2,2.5c0.1,0.3,0.4,0.5,0.7,0.5l2.8,0.4L62.1,18.1z M35.7,13.6L34.6,20
		c-0.1,0.4,0.1,0.7,0.4,1c0.3,0.2,0.7,0.3,1,0.1l5.8-3l5.8,3c0.1,0.1,0.3,0.1,0.5,0.1s0.4-0.1,0.6-0.2c0.3-0.2,0.5-0.6,0.4-1
		L48,13.6L52.6,9c0.3-0.3,0.4-0.7,0.3-1c-0.1-0.4-0.4-0.6-0.8-0.7l-6.5-0.9l-2.9-5.9C42.5,0.2,42.2,0,41.8,0s-0.7,0.2-0.9,0.6
		L38,6.4l-6.5,0.9c-0.4,0.1-0.7,0.3-0.8,0.7c-0.1,0.4,0,0.7,0.3,1L35.7,13.6z M38.8,8.3c0.3,0,0.6-0.3,0.7-0.5l2.2-4.5L44,7.8
		c0.1,0.3,0.4,0.5,0.7,0.5l5,0.7l-3.6,3.5c-0.2,0.2-0.3,0.6-0.3,0.9l0.9,5L42.2,16c-0.1-0.1-0.3-0.1-0.5-0.1s-0.3,0-0.5,0.1
		l-4.5,2.4l0.9-5c0.1-0.3-0.1-0.6-0.3-0.9L33.8,9L38.8,8.3z M15.1,49.2H6.5c-3.6,0-6.5,2.9-6.5,6.6v20.9c0,3.6,2.9,6.6,6.5,6.6h8.6
		c3.6,0,6.5-2.9,6.5-6.6V55.8C21.7,52.1,18.8,49.2,15.1,49.2z M17.9,76.7c0,1.5-1.2,2.8-2.8,2.8H6.5c-1.5,0-2.8-1.2-2.8-2.8V55.8
		C3.8,54.2,5,53,6.5,53h8.6c1.5,0,2.8,1.2,2.8,2.8V76.7z M10.6,72.9h-0.5c-0.9,0-1.7,0.7-1.7,1.7V75c0,0.9,0.7,1.7,1.7,1.7h0.5
		c0.9,0,1.7-0.7,1.7-1.7v-0.5C12.3,73.6,11.5,72.9,10.6,72.9z M56,46.4c-0.3,0-0.6-0.1-1-0.1c-0.5,0-1.2,0-2.2,0c-0.8,0-1.7,0-2.9,0
		c-1.9,0-3.9-0.2-6-0.3c0-0.4,0-1,0.1-1.2c0.3-0.9,0.7-2,1.2-3c0.7-1.6,1.5-3.3,1.6-5.1c0.6-5.7-2.4-8.4-5-10.1c-1-0.6-2.1-1-3.2-1
		c-1.9,0-3.3,0.8-3.4,0.9c-0.6,0.4-1,1-0.9,1.8c0.1,1,0.1,4.2-0.8,6.5c-0.5,1.4-2.3,4.1-4,6.7c-2.5,3.9-4,6.3-4.5,8l-0.3,0.8
		c-0.1,0.2-0.1,0.5-0.1,0.8V75c0,0.1-0.1,0.3-0.1,0.4c1.7,7.1,6.7,7.7,11.4,7.7c1.1,0,2.2,0,3.4-0.1c1.4,0,2.8-0.1,4.3-0.1
		c1.2,0,2.3,0,3.2,0c0.8,0,1.5,0,2.1,0c1.9,0,3.3-0.1,4.4-0.7c1.8-0.6,3.2-2.2,3.4-4.1c0.1-0.9,0-1.8-0.3-2.6c1.2-1,2-2.4,2.2-3.9
		c0.1-1.1,0-2.2-0.4-3.2c0,0,0,0,0-0.1c1.3-1.1,2.1-2.6,2.3-4.3c0.2-1.4-0.1-2.9-0.8-4.2c1.6-1.2,2.6-3.1,2.9-5.1
		c0.3-2.1-0.3-4.1-1.5-5.7C59.8,47.8,58,46.7,56,46.4z M58.9,54.6c-0.1,1.1-0.8,2.1-1.7,2.7c-1.3,0.9-1.7,3.1-0.9,4.4
		c0.4,0.6,0.6,1.4,0.5,2.1c-0.1,0.8-0.5,1.6-1.2,2.1c-1.3,1-1.2,3.3-0.8,4.2c0.2,0.4,0.2,0.8,0.2,1.2c-0.1,0.7-0.5,1.3-1.1,1.7
		c-0.6,0.3-1,0.9-1.2,1.7c-0.2,0.8-0.1,1.7,0.3,2.4c0.2,0.3,0.2,0.6,0.1,0.8c-0.1,0.5-0.5,0.9-0.9,1c-0.1,0-0.3,0.1-0.4,0.2
		c-0.5,0.3-2.1,0.3-2.7,0.3c-0.6,0-1.3,0-2,0c-1,0-2,0-3.3,0c-1.6,0-3,0-4.4,0.1c-1.2,0-2.2,0.1-3.3,0.1c-4.7,0-6.8-0.7-7.7-4.6
		V51.6l0.1-0.6c0-0.1,0-0.2,0-0.2c0.4-1.2,2.5-4.5,4.2-7.1c1.9-2.9,3.6-5.7,4.3-7.4c0.9-2.4,1.1-5.1,1.1-6.7c0.6-0.1,1.2,0,1.7,0.3
		c1.9,1.3,3.7,2.8,3.3,6.6c-0.1,1.2-0.7,2.5-1.3,3.9c-0.5,1.2-1,2.3-1.4,3.6c-0.2,0.7-0.2,1.4-0.2,2.1c0,0.5,0,1-0.1,1.5
		s0.1,1,0.4,1.4c0.3,0.4,0.8,0.6,1.3,0.7l0.6,0.1c2.5,0.2,5.1,0.5,7.5,0.5c1.2,0,2.2,0,2.9,0c0.9,0,1.6,0,2,0h0.1c0.2,0,0.3,0,0.5,0
		c1,0.1,2,0.7,2.6,1.5C58.7,52.5,59,53.6,58.9,54.6z M43.9,75c-0.5,0-0.9,0.4-0.9,0.9s0.4,0.8,0.9,0.9c0.1,0,0.2-0.2,0.3-0.2l0,0
		c0.4,0,0.7-0.1,0.9-0.4c0.1-0.1,0.1-0.1,0.1-0.2C45.2,75.1,44.3,75,43.9,75z M41.2,75.2c-0.5,0-0.9,0.1-1.4,0.1
		c-3.4,0.2-5.3,0.4-7.2-1.8c-0.3-0.4-0.9-0.4-1.3-0.1s-0.4,0.9-0.1,1.3c1.8,2.1,3.8,2.6,6.1,2.6c0.8,0,1.7-0.1,2.7-0.1
		c0.4,0,0.9-0.1,1.3-0.1c0.5,0,0.9-0.5,0.9-1C42.2,75.5,41.7,75.1,41.2,75.2z"/>
</g>
</svg>
