<?xml version="1.0" encoding="utf-8"?>
<!-- Generator: Adobe Illustrator 19.0.0, SVG Export Plug-In . SVG Version: 6.00 Build 0)  -->
<svg version="1.1" id="Шар_1" xmlns="http://www.w3.org/2000/svg" xmlns:xlink="http://www.w3.org/1999/xlink" x="0px" y="0px"
	 viewBox="-891 871 37 27" style="enable-background:new -891 871 37 27;" xml:space="preserve">
<path d="M-856.5,898h-32.1c-1.4,0-2.5-1.2-2.5-2.6v-18.9c0-1.4,0.9-1.9,2-1l14.6,11.5c0.5,0.4,1.3,0.6,2,0.6c0.7,0,1.4-0.2,2-0.6
	l14.6-11.5c1.1-0.9,2-0.4,2,1v18.9C-854,896.8-855.1,898-856.5,898z M-870.3,883.6c-0.6,0.5-1.4,0.7-2.2,0.7c-0.8,0-1.6-0.2-2.2-0.7
	l-13.3-11c-1.1-0.9-0.8-1.6,0.5-1.6h30.1c1.4,0,1.6,0.7,0.5,1.6L-870.3,883.6z"/>
</svg>
