<?xml version="1.0" encoding="utf-8"?>
<!-- Generator: Adobe Illustrator 19.0.0, SVG Export Plug-In . SVG Version: 6.00 Build 0)  -->
<svg version="1.1" id="Шар_1" xmlns="http://www.w3.org/2000/svg" xmlns:xlink="http://www.w3.org/1999/xlink" x="0px" y="0px"
	 viewBox="-15 23.3 36 37" style="enable-background:new -15 23.3 36 37;" xml:space="preserve">
<path d="M20.2,52.6l-5.6-5.7c-1.1-1.1-2.9-1.1-4.1,0.1l-2.8,2.9c-0.2-0.1-0.4-0.2-0.6-0.3c-1.8-1-4.2-2.4-6.7-5
	c-2.6-2.6-3.9-5.1-4.9-7c-0.1-0.2-0.2-0.4-0.3-0.6l1.9-1.9l0.9-1c1.1-1.2,1.2-3.1,0.1-4.2l-5.6-5.7c-1.1-1.1-2.9-1.1-4.1,0.1
	l-1.6,1.6l0,0c-0.5,0.7-1,1.5-1.3,2.3c-0.3,0.8-0.5,1.6-0.6,2.4c-0.7,6.3,2,12,9.6,19.8c10.4,10.7,18.8,9.9,19.2,9.9
	c0.8-0.1,1.5-0.3,2.3-0.6c0.8-0.3,1.6-0.8,2.3-1.3l0,0l1.6-1.6C21.3,55.6,21.3,53.7,20.2,52.6L20.2,52.6z"/>
</svg>
