<?xml version="1.0" encoding="utf-8"?>
<!-- Generator: Adobe Illustrator 19.0.0, SVG Export Plug-In . SVG Version: 6.00 Build 0)  -->
<svg version="1.1" id="Шар_1" xmlns="http://www.w3.org/2000/svg" xmlns:xlink="http://www.w3.org/1999/xlink" x="0px" y="0px"
	 viewBox="-894 868 31 32" style="enable-background:new -894 868 31 32;" xml:space="preserve">
<path d="M-863.8,878l-14.9,15c-0.1,0.1-0.2,0.2-0.3,0.2c0,0-4.8,1.4-4.9,1.4c0,0-0.2,0-0.2,0h-3.9c-0.4,0-0.8-0.3-0.8-0.8
	c0-0.4,0.3-0.8,0.8-0.8h3.4l1.2-4.3c0-0.1,0.1-0.2,0.2-0.3l0,0h-4.8c-0.4,0-0.8-0.3-0.8-0.8c0-0.4,0.3-0.8,0.8-0.8h6.3l4.6-4.6H-888
	c-0.4,0-0.8-0.3-0.8-0.8c0-0.4,0.3-0.8,0.8-0.8h12.5l7.2-7.2c1-1,2.7-1,3.7,0l0.9,0.9C-862.7,875.3-862.7,876.9-863.8,878z
	 M-882.3,890.3l-0.6,2.3l2.3-0.6L-882.3,890.3z M-869.3,876.5l-12.3,12.4l2.4,2.4l12.3-12.4L-869.3,876.5z M-864.8,875.4l-0.9-0.9
	c-0.4-0.4-1.1-0.4-1.5,0l-1,1l2.4,2.4l1-1C-864.4,876.5-864.4,875.8-864.8,875.4z M-869.7,872.9c-0.4,0-0.8-0.3-0.8-0.8v-2.4
	c0-0.1-0.1-0.1-0.1-0.1h-15.5v4.7c0,0.9-0.8,1.7-1.7,1.7h-4.7v22.4c0,0.1,0.1,0.1,0.1,0.1h21.7c0.1,0,0.1-0.1,0.1-0.1v-11.8
	c0-0.4,0.3-0.8,0.8-0.8c0.4,0,0.8,0.3,0.8,0.8v11.8c0,0.9-0.8,1.7-1.7,1.7h-21.7c-0.9,0-1.7-0.8-1.7-1.7v-23.1
	c0-0.2,0.1-0.4,0.2-0.5l6.4-6.4c0.1-0.1,0.3-0.2,0.5-0.2h16.3c0.9,0,1.7,0.8,1.7,1.7v2.4C-868.9,872.5-869.3,872.9-869.7,872.9z
	 M-887.6,870.6l-3.7,3.8h3.6c0.1,0,0.1-0.1,0.1-0.1V870.6z"/>
</svg>
