<?xml version="1.0" encoding="utf-8"?>
<!-- Generator: Adobe Illustrator 19.0.0, SVG Export Plug-In . SVG Version: 6.00 Build 0)  -->
<svg version="1.1" id="Шар_1" xmlns="http://www.w3.org/2000/svg" xmlns:xlink="http://www.w3.org/1999/xlink" x="0px" y="0px"
	 viewBox="-885 860 48 48" style="enable-background:new -885 860 48 48;" xml:space="preserve">
<path d="M-861,860c-13.2,0-24,10.8-24,24c0,13.2,10.8,24,24,24s24-10.8,24-24C-837,870.8-847.8,860-861,860L-861,860z M-848.6,884.6
	l-17.6,12c-0.1,0.1-0.3,0.1-0.5,0.1c-0.1,0-0.3,0-0.4-0.1c-0.3-0.1-0.4-0.4-0.4-0.7v-24c0-0.3,0.2-0.6,0.4-0.7
	c0.3-0.1,0.6-0.1,0.8,0l17.6,12c0.2,0.1,0.3,0.4,0.3,0.7S-848.3,884.5-848.6,884.6L-848.6,884.6z"/>
</svg>
