<?xml version="1.0" encoding="utf-8"?>
<!-- Generator: Adobe Illustrator 19.0.0, SVG Export Plug-In . SVG Version: 6.00 Build 0)  -->
<svg version="1.1" id="Шар_1" xmlns="http://www.w3.org/2000/svg" xmlns:xlink="http://www.w3.org/1999/xlink" x="0px" y="0px"
	 viewBox="-871 852 76 64" style="enable-background:new -871 852 76 64;" xml:space="preserve">
<style type="text/css">
	.st0{opacity:0.5;enable-background:new    ;}
</style>
<path class="st0" d="M-795.7,903c-2.1,7.7-9.1,13-17,13c0,0,0,0-0.1,0c-6.4-0.3-11.4-2.8-14.8-7.5c-6.1-8.4-5.4-21.8-2.9-30.7
	c4.2-15.2,14.2-25.8,24.3-25.8c0.6,0,1.3,0,1.9,0.1c0.6,0.1,1.1,0.4,1.4,0.9c0.3,0.5,0.4,1.1,0.3,1.6l-1.8,6.6
	c-0.2,0.8-0.8,1.3-1.6,1.4c-8.4,1.3-12.6,12.4-14.4,18.9c1.8-0.8,4.2-1.4,7-1.4c1.8,0,3.7,0.3,5.6,0.8c4.6,1.3,8.3,4.3,10.6,8.4
	C-795,893.6-794.4,898.4-795.7,903z M-851.4,916C-851.5,916-851.5,916-851.4,916c-6.5-0.3-11.4-2.8-14.9-7.5
	c-6.1-8.4-5.4-21.8-2.9-30.7c4.2-15.2,14.2-25.8,24.3-25.8c0.6,0,1.3,0,1.9,0.1c0.6,0.1,1.1,0.4,1.4,0.9c0.3,0.5,0.4,1.1,0.3,1.6
	l-1.8,6.6c-0.2,0.8-0.8,1.3-1.6,1.4c-8.4,1.3-12.6,12.4-14.4,18.9c1.8-0.8,4.2-1.4,7-1.4c1.8,0,3.7,0.3,5.6,0.8
	c4.6,1.3,8.3,4.3,10.6,8.4c2.3,4.1,2.9,9,1.6,13.5C-836.6,910.6-843.6,916-851.4,916z"/>
</svg>
