<?xml version="1.0" encoding="utf-8"?>
<!-- Generator: Adobe Illustrator 19.0.0, SVG Export Plug-In . SVG Version: 6.00 Build 0)  -->
<svg version="1.1" id="Шар_1" xmlns="http://www.w3.org/2000/svg" xmlns:xlink="http://www.w3.org/1999/xlink" x="0px" y="0px"
	 viewBox="18 -19.7 103 122" style="enable-background:new 18 -19.7 103 122;" xml:space="preserve">
<g id="XMLID_2_">
	<path id="XMLID_263_" d="M51.1,57.3c3.6,0,6.6-3,6.6-6.6c0-3.7-3-6.6-6.6-6.6s-6.6,3-6.6,6.6S47.4,57.3,51.1,57.3z M51.1,47.4
		c1.8,0,3.3,1.5,3.3,3.3S52.9,54,51.1,54s-3.3-1.5-3.3-3.3S49.3,47.4,51.1,47.4z M64.3,57.3c-3.6,0-6.6,3-6.6,6.6
		c0,3.7,3,6.6,6.6,6.6c3.6,0,6.6-3,6.6-6.6C70.8,60.3,67.9,57.3,64.3,57.3z M64.3,67.3c-1.8,0-3.3-1.5-3.3-3.3
		c0-1.8,1.5-3.3,3.3-3.3c1.8,0,3.3,1.5,3.3,3.3C67.5,65.8,66.1,67.3,64.3,67.3z M69.2,44.1c-0.5,0-0.9,0.2-1.2,0.5L45,67.7
		c-0.3,0.3-0.5,0.7-0.5,1.2c0,0.9,0.7,1.7,1.6,1.7c0.5,0,0.9-0.2,1.2-0.5l23.1-23.2c0.3-0.3,0.5-0.7,0.5-1.2
		C70.8,44.8,70.1,44.1,69.2,44.1z M119.1,10c0.6-1.1,0.3-2.4-0.8-3L72.9-19.4c-1-0.6-2.4-0.2-3,0.8L60-1.3l1.6,6l-6,1.6L19.3,69.6
		c-0.6,1.1-0.3,2.4,0.8,3L65.5,99c1,0.6,2.4,0.2,3-0.8l15.4-26.7l0.8,2.8L88.3,87c-2,0.5-3.6,2.4-3.6,4.5c0,2.5,1.9,4.5,4.4,4.7
		c-0.2,0.6-0.3,1.2-0.2,1.9c0.2,2.2,2,4,4.3,4.2c2.7,0.2,4.9-1.9,4.9-4.6c0-0.5-0.1-1-0.3-1.5h5.4c-0.2,0.6-0.3,1.3-0.2,2
		c0.2,2.2,2,3.9,4.2,4c2.7,0.2,4.9-1.9,4.9-4.6c0-2.5-2.1-4.6-4.7-4.6h-18c-0.9,0-1.6-0.7-1.7-1.5c0-0.9,0.7-1.7,1.6-1.7h21.5
		c1.8,0,3.4-1.2,3.9-3l3.6-14.3c0.3-1.2,0-2.5-0.8-3.5c-0.8-0.9-1.9-1.5-3.2-1.5H88c-0.8,0-1.5,0.2-2.1,0.6l-0.1-0.3l19-33l-1.6-6
		l6-1.6L119.1,10z M107.5,96.1c0.8,0,1.5,0.7,1.5,1.5s-0.7,1.5-1.5,1.5s-1.5-0.7-1.5-1.5C106,96.7,106.7,96.1,107.5,96.1z
		 M93.4,96.1c0.8,0,1.5,0.7,1.5,1.5s-0.7,1.5-1.5,1.5s-1.5-0.7-1.5-1.5C91.9,96.7,92.6,96.1,93.4,96.1z M99.8,86.7h-2.2l-0.7-3.1
		h2.9C99.8,83.6,99.8,86.7,99.8,86.7z M99.8,80.5h-3.5l-0.7-3.3h4.3v3.3H99.8z M111.9,70.6h2.5c0.4,0,0.6,0.2,0.7,0.3
		c0.1,0.1,0.3,0.4,0.2,0.8l-0.6,2.4h-3.5L111.9,70.6z M110.5,77.2h3.4l-0.8,3.3h-3.3L110.5,77.2z M112.3,83.6l-0.6,2.4
		c-0.1,0.4-0.5,0.7-0.9,0.7h-2.4l0.7-3.1H112.3z M102.9,70.6h5.9l-0.8,3.6h-5.1V70.6z M102.9,77.2h4.5l-0.7,3.3h-3.8V77.2z
		 M102.9,83.6h3.1l-0.7,3.1h-2.4V83.6z M99.8,70.6v3.6h-4.9l-0.8-3.6H99.8z M94.5,86.7h-2.4l0,0c-0.4,0-0.8-0.3-0.9-0.7l-0.7-2.5
		h3.3L94.5,86.7z M93.1,80.5h-3.4l-0.9-3.3h3.7L93.1,80.5z M87.3,71c0.1-0.1,0.3-0.4,0.7-0.4h2.9l0.8,3.6h-3.8l0,0l-0.7-2.4
		C87,71.4,87.2,71.1,87.3,71z M102.1,24.6l-4.2,1.2l1.1,4.3l1.1,4.3L83.9,62.5c-0.3-0.2-0.6-0.3-1-0.3h-6c-0.7,0-1.4,0.6-1.4,1.3
		v0.1c0,0.7,0.6,1.3,1.4,1.3H82l0.1,0.5L65.7,93.9l-41.5-24l34.3-59.7L62.7,9l4.2-1.2l-1.1-4.3l-1.1-4.2l7.9-13.7l41.6,24.2
		l-7.9,13.7L102.1,24.6z M72.2,8.3c-1-0.6-2.4-0.2-3,0.8c-0.6,1.1-0.3,2.4,0.8,3c1,0.6,2.4,0.2,3-0.8C73.6,10.2,73.2,8.9,72.2,8.3z
		 M79.7,12.7c-1-0.6-2.4-0.2-3,0.8c-0.6,1.1-0.3,2.4,0.8,3c1,0.6,2.4,0.2,3-0.8C81.1,14.6,80.8,13.3,79.7,12.7z M87.3,17
		c-1-0.6-2.4-0.2-3,0.8c-0.6,1.1-0.3,2.4,0.8,3c1,0.6,2.4,0.2,3-0.8C88.7,19,88.3,17.7,87.3,17z M94.9,21.4c-1-0.6-2.4-0.2-3,0.8
		c-0.6,1.1-0.3,2.4,0.8,3c1,0.6,2.4,0.2,3-0.8S95.9,22,94.9,21.4z"/>
</g>
</svg>
