<?xml version="1.0" encoding="utf-8"?>
<!-- Generator: Adobe Illustrator 19.0.0, SVG Export Plug-In . SVG Version: 6.00 Build 0)  -->
<svg version="1.1" id="Шар_1" xmlns="http://www.w3.org/2000/svg" xmlns:xlink="http://www.w3.org/1999/xlink" x="0px" y="0px"
	 viewBox="-860 835 99 99" style="enable-background:new -860 835 99 99;" xml:space="preserve">
<path d="M-767.2,890.7v6.2c0,3.4-2.8,6.2-6.2,6.2h-8.3v-4.1h8.3c1.1,0,2.1-0.9,2.1-2.1v-6.2h-10.3v-4.1h14.4c1.1,0,2.1-0.9,2.1-2.1
	v-22.7h-8.3c-0.5,0-1.1-0.2-1.5-0.6l-6.8-6.8l-9.5,9.5l2.1,2.1h13.6v4.1h-14.4c-0.5,0-1.1-0.2-1.5-0.6l-17.1-17.1l-8.9,8.9
	c-0.4,0.4-0.9,0.6-1.5,0.6h-8.3v6.2h-4.1v-16.5h-6.2c-1.1,0-2.1,0.9-2.1,2.1v22.7h-4.1v-22.7c0-3.4,2.8-6.2,6.2-6.2h6.2v-6.2
	c0-3.4,2.8-6.2,6.2-6.2h57.8c3.4,0,6.2,2.8,6.2,6.2v43.3C-761,887.9-763.8,890.7-767.2,890.7z M-765.1,841.2c0-1.1-0.9-2.1-2.1-2.1
	h-57.8c-1.1,0-2.1,0.9-2.1,2.1v16.5h7.4l9.7-9.7c0.8-0.8,2.1-0.8,2.9,0l13,13l10.9-10.9c0.8-0.8,2.1-0.8,2.9,0l7.6,7.6h7.4V841.2z
	 M-827,872.1h8.3c4.9,0,9.1,3.5,10.1,8.3h12.6c5.7,0,10.3,4.6,10.3,10.3v33c0,5.7-4.6,10.3-10.3,10.3h-53.6
	c-5.7,0-10.3-4.6-10.3-10.3v-33c0-5.7,4.6-10.3,10.3-10.3h12.6C-836.1,875.6-831.9,872.1-827,872.1z M-855.9,890.7v33
	c0,3.4,2.8,6.2,6.2,6.2h53.6c3.4,0,6.2-2.8,6.2-6.2v-33c0-3.4-2.8-6.2-6.2-6.2h-14.4c-1.1,0-2.1-0.9-2.1-2.1c0-3.4-2.8-6.2-6.2-6.2
	h-8.3c-2.6,0-5,1.7-5.8,4.1h10v4.1h-26.8C-853.1,884.5-855.9,887.3-855.9,890.7z M-804.4,905.1h4.2v4.1h-4.2
	c-1,9.3-8.9,16.5-18.4,16.5c-9.6,0-17.4-7.2-18.4-16.5h-4.2v-4.1h4.2c1-9.3,8.9-16.5,18.4-16.5S-805.5,895.8-804.4,905.1z
	 M-837.3,907.2c0,8,6.5,14.4,14.4,14.4s14.4-6.5,14.4-14.4c0-8-6.5-14.4-14.4-14.4C-830.8,892.7-837.3,899.2-837.3,907.2z
	 M-812.6,907.2h-4.1c0-3.4-2.8-6.2-6.2-6.2v-4.1C-817.2,896.9-812.6,901.5-812.6,907.2z M-794,892.7h-4.1v-4.1h4.1V892.7z"/>
</svg>
