<?xml version="1.0" encoding="utf-8"?>
<!-- Generator: Adobe Illustrator 19.0.0, SVG Export Plug-In . SVG Version: 6.00 Build 0)  -->
<svg version="1.1" id="Шар_1" xmlns="http://www.w3.org/2000/svg" xmlns:xlink="http://www.w3.org/1999/xlink" x="0px" y="0px"
	 viewBox="-857 823 105 123" style="enable-background:new -857 823 105 123;" xml:space="preserve">
<path d="M-775.1,928.7c-11.4,11.1-24.6,17.3-29.4,17.3s-18-6.1-29.4-17.3c-10.5-10.3-23.1-28.3-23.1-55.6v-26.4
	c0-1.2,0.8-2.2,1.9-2.5c17.4-4.8,33.5-11.6,49.3-20.9c0.8-0.5,1.8-0.5,2.6,0c15.3,9,32.3,16.2,49.3,20.9c1.1,0.3,1.9,1.3,1.9,2.5
	v26.4C-752,900.4-764.6,918.4-775.1,928.7z M-757.2,848.7c-16.3-4.6-32.6-11.6-47.3-20.1c-15.1,8.8-30.7,15.4-47.3,20.1v24.5
	c0,25.4,11.7,42.2,21.6,51.9c11.2,10.9,23.1,15.8,25.8,15.8c2.7,0,14.6-4.9,25.8-15.8c9.8-9.6,21.6-26.4,21.6-51.9V848.7z
	 M-780.9,920.1c-2.5,2.6-5.2,5-8,7.1c-0.5,0.4-1,0.5-1.6,0.5c-0.8,0-1.6-0.4-2.1-1c-0.9-1.1-0.6-2.8,0.5-3.6c2.6-2,5.1-4.2,7.4-6.6
	c2.8-2.9,5.3-6,7.4-9.3c0.8-1.2,2.4-1.5,3.6-0.8c1.2,0.8,1.5,2.4,0.8,3.6C-775.2,913.5-777.9,916.9-780.9,920.1z M-774.9,874.5
	l-31.9,31.9c-1.6,1.6-3.7,2.5-6,2.5c-2.2,0-4.4-0.9-6-2.5l-15.3-15.3c-3.3-3.3-3.3-8.6,0-11.9c1.6-1.6,3.7-2.5,6-2.5
	c2.2,0,4.4,0.9,6,2.5l9.3,9.3l26-25.9c1.6-1.6,3.7-2.5,6-2.5c2.3,0,4.4,0.9,6,2.5C-771.7,865.9-771.7,871.2-774.9,874.5z
	 M-778.6,866.3c-0.6-0.6-1.4-0.9-2.3-0.9c-0.9,0-1.7,0.3-2.3,0.9L-811,894c-0.5,0.5-1.1,0.8-1.8,0.8c-0.7,0-1.3-0.3-1.8-0.8
	l-11.2-11.2c-0.6-0.6-1.4-0.9-2.3-0.9c-0.9,0-1.7,0.3-2.3,0.9c-1.3,1.3-1.3,3.3,0,4.6l15.3,15.3c0.6,0.6,1.4,0.9,2.3,0.9
	c0.9,0,1.7-0.3,2.3-0.9l31.9-31.9C-777.3,869.6-777.3,867.5-778.6,866.3z M-821.5,848.7L-821.5,848.7c-0.4,0.2-0.7,0.2-1.1,0.2
	c-1,0-2-0.6-2.4-1.6c-0.6-1.3,0-2.8,1.3-3.4l0,0c1.3-0.6,2.8,0,3.4,1.3C-819.5,846.6-820.1,848.1-821.5,848.7z M-828.9,851.8
	c-4.2,1.6-8.4,3.2-12.6,4.5v8.1c0,1.4-1.2,2.6-2.6,2.6c-1.4,0-2.6-1.2-2.6-2.6v-10c0-1.1,0.7-2.1,1.8-2.5c4.7-1.5,9.5-3.2,14.1-5
	c1.3-0.5,2.8,0.1,3.4,1.5C-826.9,849.7-827.6,851.2-828.9,851.8z M-798.3,927.2l0.1-0.1c1.2-0.7,2.8-0.3,3.5,0.9
	c0.7,1.2,0.3,2.8-0.9,3.5l-0.2,0.1c-0.4,0.2-0.9,0.3-1.3,0.3c-0.9,0-1.8-0.5-2.2-1.3C-799.9,929.5-799.5,927.9-798.3,927.2z"/>
</svg>
