<?xml version="1.0" encoding="utf-8"?>
<!-- Generator: Adobe Illustrator 19.0.0, SVG Export Plug-In . SVG Version: 6.00 Build 0)  -->
<svg version="1.1" id="Шар_1" xmlns="http://www.w3.org/2000/svg" xmlns:xlink="http://www.w3.org/1999/xlink" x="0px" y="0px"
	 viewBox="-897 868 24 32" style="enable-background:new -897 868 24 32;" xml:space="preserve">
<path d="M-873,896.4c0,0-1.8,3.6-12,3.6s-12-3.6-12-3.6c0-0.4,0-0.7,0-0.8c0,0.1,0,0,0-0.6c0.1-7.3,1.2-9.4,8.5-10.8
	c0,0,1,1.4,3.5,1.4c2.4,0,3.5-1.4,3.5-1.4c7.4,1.4,8.4,3.5,8.5,11c0,0.5,0,0.6,0,0.5C-873,895.9-873,896.1-873,896.4z M-885,883.6
	c-3.5,0-6.4-3.5-6.4-7.8c0-4.3,0.9-7.8,6.4-7.8c5.4,0,6.4,3.5,6.4,7.8C-878.6,880.1-881.5,883.6-885,883.6z"/>
</svg>
