<?xml version="1.0" encoding="utf-8"?>
<!-- Generator: Adobe Illustrator 25.0.0, SVG Export Plug-In . SVG Version: 6.00 Build 0)  -->
<svg version="1.1" id="Шар_1" xmlns="http://www.w3.org/2000/svg" xmlns:xlink="http://www.w3.org/1999/xlink" x="0px" y="0px"
	 viewBox="0 0 198.1 76.2" style="enable-background:new 0 0 198.1 76.2;" xml:space="preserve">
<g>
	<path style="fill:#FFFFFF;" d="M79.4,66v7.8h-1v-5.6h-1.9v-0.7c0.6,0,1.1-0.1,1.5-0.3c0.4-0.2,0.6-0.6,0.7-1.1H79.4z"/>
	<path style="fill:#FFFFFF;" d="M83.8,66c0.5,0,0.9,0.1,1.2,0.3c0.3,0.2,0.6,0.4,0.7,0.6c0.2,0.2,0.3,0.6,0.4,1
		c0.1,0.4,0.2,0.8,0.2,1.1s0,0.7,0,1.1c0,0.4,0,0.8,0,1.1s-0.1,0.7-0.2,1c-0.1,0.4-0.2,0.7-0.4,0.9c-0.2,0.2-0.4,0.4-0.7,0.6
		c-0.3,0.2-0.7,0.2-1.1,0.2c-0.4,0-0.8-0.1-1.2-0.2s-0.6-0.4-0.8-0.6s-0.3-0.5-0.4-0.9c-0.1-0.4-0.2-0.7-0.2-1c0-0.3,0-0.7,0-1.1
		c0-0.4,0-0.7,0-1c0-0.3,0.1-0.6,0.1-0.9c0.1-0.3,0.1-0.6,0.3-0.9c0.1-0.2,0.3-0.5,0.4-0.7s0.4-0.4,0.7-0.5C83.1,66,83.4,66,83.8,66
		z M84.4,67c-0.2-0.1-0.4-0.1-0.6-0.1c-0.2,0-0.4,0-0.6,0.1c-0.2,0.1-0.3,0.2-0.4,0.3c-0.1,0.1-0.2,0.3-0.3,0.5
		c-0.1,0.2-0.1,0.4-0.2,0.5c0,0.1-0.1,0.4-0.1,0.6c0,0.3,0,0.5,0,0.6c0,0.1,0,0.3,0,0.6c0,0.3,0,0.5,0,0.6c0,0.2,0,0.4,0.1,0.7
		s0.1,0.5,0.2,0.7s0.2,0.4,0.3,0.5c0.1,0.2,0.3,0.3,0.4,0.4c0.2,0.1,0.4,0.1,0.7,0.1c0.2,0,0.4,0,0.6-0.1c0.2-0.1,0.3-0.2,0.4-0.3
		c0.1-0.1,0.2-0.3,0.3-0.5c0.1-0.2,0.1-0.4,0.2-0.5c0-0.1,0.1-0.4,0.1-0.6c0-0.3,0-0.4,0-0.6c0-0.1,0-0.3,0-0.5c0-0.3,0-0.4,0-0.6
		c0-0.1,0-0.3,0-0.6s0-0.5-0.1-0.6c0-0.1-0.1-0.3-0.2-0.5s-0.2-0.4-0.3-0.5C84.7,67.1,84.6,67,84.4,67z"/>
	<path style="fill:#FFFFFF;" d="M88.3,68.1v0.8c0.2-0.3,0.5-0.6,0.8-0.7c0.3-0.2,0.6-0.2,1-0.2c0.8,0,1.3,0.3,1.5,1
		c0.5-0.7,1.1-1,1.8-1c0.6,0,1,0.2,1.3,0.5c0.3,0.3,0.4,0.8,0.4,1.4v4h-0.9v-3.6c0-0.5-0.1-0.8-0.2-1.1c-0.1-0.2-0.4-0.4-0.9-0.4
		c-0.9,0-1.4,0.6-1.4,1.8v3.2h-0.9v-3.6c0-0.4-0.1-0.8-0.2-1c-0.1-0.2-0.4-0.3-0.8-0.3c-0.6,0-1,0.2-1.2,0.5
		c-0.2,0.4-0.3,0.8-0.3,1.4v3h-0.9v-5.7H88.3z"/>
	<path style="fill:#FFFFFF;" d="M101.4,68.1v5.1c0,0.5,0,0.9-0.1,1.1c-0.1,0.3-0.1,0.5-0.3,0.8c-0.4,0.7-1.1,1-2.2,1
		c-0.6,0-1.2-0.1-1.6-0.4c-0.4-0.3-0.7-0.7-0.8-1.3h0.9c0.1,0.6,0.6,0.9,1.4,0.9c0.6,0,1-0.1,1.2-0.4c0.3-0.3,0.4-0.8,0.4-1.4l0-0.7
		c-0.4,0.7-0.9,1-1.8,1c-0.7,0-1.3-0.3-1.8-0.8c-0.4-0.5-0.7-1.2-0.7-2.1c0-0.8,0.2-1.5,0.7-2.1c0.4-0.6,1-0.9,1.8-0.9
		c0.4,0,0.7,0.1,1,0.3s0.5,0.4,0.7,0.7v-0.8H101.4z M98.8,68.8c-0.5,0-0.9,0.2-1.2,0.6c-0.3,0.4-0.4,0.9-0.4,1.6
		c0,0.6,0.1,1.1,0.4,1.5c0.3,0.4,0.7,0.6,1.2,0.6c0.5,0,0.9-0.2,1.2-0.6c0.3-0.4,0.4-0.9,0.4-1.6c0-0.6-0.1-1.1-0.4-1.5
		C99.7,69,99.3,68.8,98.8,68.8z"/>
	<path style="fill:#FFFFFF;" d="M115.1,75.7h-1v-1.9h-5.6v1.9h-1v-2.9h0.8c0.3-0.5,0.5-1.3,0.7-2.3s0.3-2,0.3-3.1V66h4.9v6.9h0.9
		V75.7z M113.3,72.9v-6h-2.9v1.1c0,0.9-0.1,1.9-0.3,2.8c-0.2,0.9-0.4,1.6-0.6,2.2H113.3z"/>
	<path style="fill:#FFFFFF;" d="M117.1,73.8h-1.2v-5.7h0.9v4.6h0l2.5-4.6h1.2v5.7h-0.9v-4.6h0L117.1,73.8z"/>
	<path style="fill:#FFFFFF;" d="M127.3,75.6h-0.9v-1.8h-4.2v1.8h-0.9V73h0.6c0.2-0.3,0.3-0.9,0.5-1.6c0.1-0.7,0.2-1.4,0.2-2.1v-1.2
		h4V73h0.7V75.6z M125.6,73v-4h-2.2v0.5c0,0.7-0.1,1.3-0.2,2c-0.1,0.7-0.3,1.2-0.4,1.5H125.6z"/>
	<path style="fill:#FFFFFF;" d="M128.9,68.1v0.8c0.4-0.7,1-1,1.9-1c0.8,0,1.4,0.3,1.8,0.8s0.7,1.3,0.7,2.2c0,0.9-0.2,1.6-0.7,2.2
		s-1.1,0.8-1.8,0.8c-0.8,0-1.4-0.3-1.9-0.9v3H128v-7.9H128.9z M130.6,68.7c-0.5,0-1,0.2-1.3,0.6c-0.3,0.4-0.5,0.9-0.5,1.6
		s0.2,1.2,0.5,1.6c0.3,0.4,0.7,0.6,1.3,0.6c0.5,0,0.9-0.2,1.2-0.6c0.3-0.4,0.5-0.9,0.5-1.6c0-0.7-0.2-1.2-0.5-1.6
		C131.6,68.9,131.2,68.7,130.6,68.7z"/>
	<path style="fill:#FFFFFF;" d="M134.8,68.8c0.5-0.5,1.2-0.8,2-0.8c0.8,0,1.5,0.3,2,0.8c0.5,0.5,0.7,1.3,0.7,2.2
		c0,1-0.2,1.7-0.7,2.2c-0.5,0.5-1.1,0.8-2,0.8c-0.8,0-1.5-0.3-2-0.8s-0.7-1.3-0.7-2.2C134.1,70,134.4,69.3,134.8,68.8z M138.1,69.3
		c-0.3-0.4-0.7-0.6-1.3-0.6c-0.5,0-1,0.2-1.3,0.6c-0.3,0.4-0.5,0.9-0.5,1.6c0,0.7,0.2,1.2,0.5,1.6c0.3,0.4,0.7,0.6,1.3,0.6
		c0.5,0,1-0.2,1.3-0.6c0.3-0.4,0.5-0.9,0.5-1.6C138.6,70.3,138.4,69.7,138.1,69.3z"/>
	<path style="fill:#FFFFFF;" d="M144.4,68.9h-2.9v4.9h-0.9v-5.7h3.8V68.9z"/>
	<path style="fill:#FFFFFF;" d="M149.8,72c-0.3,1.3-1.1,2-2.4,2c-0.8,0-1.5-0.3-1.9-0.8s-0.7-1.2-0.7-2.2c0-0.9,0.2-1.7,0.7-2.2
		c0.5-0.6,1.1-0.9,1.9-0.9c0.9,0,1.5,0.3,1.9,0.9c0.4,0.6,0.6,1.3,0.6,2.2v0.1h-4.2l0,0.1c0,0.6,0.2,1.1,0.5,1.4
		c0.3,0.3,0.7,0.5,1.3,0.5c0.4,0,0.7-0.1,1-0.3c0.2-0.2,0.4-0.5,0.5-0.9H149.8z M148.9,70.4c0-0.5-0.2-1-0.5-1.3
		c-0.3-0.3-0.7-0.5-1.1-0.5c-0.4,0-0.8,0.2-1.1,0.5s-0.5,0.7-0.5,1.3H148.9z"/>
	<path style="fill:#FFFFFF;" d="M155.6,71.7c-0.1,0.7-0.3,1.2-0.8,1.6c-0.4,0.4-1,0.6-1.7,0.6c-0.8,0-1.5-0.3-2-0.8
		c-0.5-0.5-0.7-1.2-0.7-2.1c0-0.9,0.2-1.7,0.7-2.3c0.5-0.6,1.1-0.8,2-0.8c0.7,0,1.2,0.2,1.6,0.5c0.4,0.3,0.7,0.8,0.7,1.5h-0.9
		c-0.2-0.8-0.6-1.2-1.4-1.2c-0.5,0-1,0.2-1.3,0.6c-0.3,0.4-0.5,0.9-0.5,1.6c0,0.7,0.1,1.2,0.4,1.6c0.3,0.4,0.7,0.6,1.2,0.6
		c0.4,0,0.8-0.1,1-0.4c0.3-0.2,0.4-0.6,0.5-1.1H155.6z"/>
	<path style="fill:#FFFFFF;" d="M160.8,68.9h-2v4.9h-0.9v-4.9h-2v-0.8h4.9V68.9z"/>
	<path style="fill:#FFFFFF;" d="M166.2,72c-0.3,1.3-1.1,2-2.4,2c-0.8,0-1.5-0.3-1.9-0.8s-0.7-1.2-0.7-2.2c0-0.9,0.2-1.7,0.7-2.2
		c0.5-0.6,1.1-0.9,1.9-0.9c0.9,0,1.5,0.3,1.9,0.9c0.4,0.6,0.6,1.3,0.6,2.2v0.1h-4.2l0,0.1c0,0.6,0.2,1.1,0.5,1.4
		c0.3,0.3,0.7,0.5,1.3,0.5c0.4,0,0.7-0.1,1-0.3c0.2-0.2,0.4-0.5,0.5-0.9H166.2z M165.3,70.4c0-0.5-0.2-1-0.5-1.3
		c-0.3-0.3-0.7-0.5-1.1-0.5c-0.4,0-0.8,0.2-1.1,0.5s-0.5,0.7-0.5,1.3H165.3z"/>
	<path style="fill:#FFFFFF;" d="M168.1,68.1v0.8c0.4-0.7,1-1,1.9-1c0.8,0,1.4,0.3,1.8,0.8s0.7,1.3,0.7,2.2c0,0.9-0.2,1.6-0.7,2.2
		s-1.1,0.8-1.8,0.8c-0.8,0-1.4-0.3-1.9-0.9v3h-0.9v-7.9H168.1z M169.8,68.7c-0.5,0-1,0.2-1.3,0.6c-0.3,0.4-0.5,0.9-0.5,1.6
		s0.2,1.2,0.5,1.6c0.3,0.4,0.7,0.6,1.3,0.6c0.5,0,0.9-0.2,1.2-0.6c0.3-0.4,0.5-0.9,0.5-1.6c0-0.7-0.2-1.2-0.5-1.6
		C170.8,68.9,170.4,68.7,169.8,68.7z"/>
	<path style="fill:#FFFFFF;" d="M174,68.8c0.5-0.5,1.2-0.8,2-0.8c0.8,0,1.5,0.3,2,0.8c0.5,0.5,0.7,1.3,0.7,2.2c0,1-0.2,1.7-0.7,2.2
		c-0.5,0.5-1.1,0.8-2,0.8c-0.8,0-1.5-0.3-2-0.8s-0.7-1.3-0.7-2.2C173.3,70,173.5,69.3,174,68.8z M177.3,69.3
		c-0.3-0.4-0.7-0.6-1.3-0.6c-0.5,0-1,0.2-1.3,0.6c-0.3,0.4-0.5,0.9-0.5,1.6c0,0.7,0.2,1.2,0.5,1.6c0.3,0.4,0.7,0.6,1.3,0.6
		c0.5,0,1-0.2,1.3-0.6c0.3-0.4,0.5-0.9,0.5-1.6C177.7,70.3,177.6,69.7,177.3,69.3z"/>
	<path style="fill:#FFFFFF;" d="M180.6,73.8h-0.9v-5.7h0.9v2.3h2.8v-2.3h0.9v5.7h-0.9v-2.6h-2.8V73.8z"/>
</g>
<g>
	<g>
		<g>
			<path style="fill:#FFFFFF;" d="M145.8,29.6h-1.3c-1.7,0-2.5-0.3-3-0.5c-0.6-0.2-0.9-0.4-1.4-0.6c-1.6-0.8-3.7-2.5-8.1-7.4
				c-2.3-2.5-4.6-5.1-6.7-7.5h14.5c4.6,5.1,9.2,10.1,9.7,10.6c0.8,0.8,1.5,0.9,2.6,0.9l1.2,0l-2.5,2.3
				C149.5,28.7,147.5,29.6,145.8,29.6"/>
			<path style="fill:#FFFFFF;" d="M158.8,29.6c3.3,0,5.1-0.9,8.8-4.2c3.1-2.8,18.6-17.2,26.9-25.4l-15.2,0c0,0-19.6,17.9-29.7,27.4
				c-1.3,1.3-3.3,2.2-5,2.2H158.8z"/>
		</g>
		<g>
			<path style="fill:#FFFFFF;" d="M198.1,32.7c0,2-1.6,3.6-3.6,3.6c-2,0-3.7-1.6-3.7-3.6c0-2,1.6-3.6,3.7-3.6
				C196.5,29.1,198.1,30.7,198.1,32.7 M191.7,32.7c0,1.6,1.2,2.8,2.8,2.8c1.5,0,2.7-1.3,2.7-2.8c0-1.6-1.2-2.9-2.8-2.9
				C192.9,29.8,191.7,31.1,191.7,32.7 M193.9,34.5h-0.8V31c0.3,0,0.8-0.1,1.4-0.1c0.7,0,1,0.1,1.2,0.3c0.2,0.2,0.4,0.4,0.4,0.8
				c0,0.4-0.3,0.7-0.7,0.8v0c0.3,0.1,0.5,0.4,0.6,0.9c0.1,0.5,0.2,0.7,0.3,0.9h-0.9c-0.1-0.1-0.2-0.4-0.3-0.9
				c-0.1-0.4-0.3-0.5-0.7-0.5h-0.4V34.5z M193.9,32.5h0.4c0.5,0,0.8-0.2,0.8-0.5c0-0.3-0.2-0.5-0.8-0.5c-0.2,0-0.4,0-0.5,0V32.5z"/>
			<path style="fill-rule:evenodd;clip-rule:evenodd;fill:#FFFFFF;" d="M2,61.7c1.2-2.7,2.5-5.1,6.2-5.1h11.2c3.4,0,3.6,3.5,3.4,5.1
				c-0.2,2.2,1.5,2,2,0c0.5-2,1-4.8,1-4.8s0-1.4-0.4-1.4c-1.6-0.1-2.9-0.8-2.9-1.9c0-0.4,0.1-0.6,0.3-1.3l5.7-19.4l0.5-2.3
				c0.2-1.3,0.3-1.9,1.6-1.9c1.9,0,1.4-2.1-0.5-2c-1.9,0.1-14.9-0.1-16.8,0c-1.9,0.1-1.7,2-0.2,2c1.5,0,1.3,0.1,1.3,2.3
				c-0.1,2.4-3.7,10.9-5.4,15.2C6,54,5.2,53.9,2.7,55c-1.1,0.5-1.3,2.1-1.3,2.1s-0.9,3.4-1.3,4.6C-0.3,62.9,1,63.9,2,61.7 M7.4,54.7
				c-0.3,0-0.4-0.2-0.1-0.5c3.3-4.3,7.8-18,8.8-22c0.6-2.4,1.6-3.5,3.1-3.5h3.5c1.4,0,1.7,0.4,1.7,1.4c0,0.6-0.2,1.6-0.6,3
				l-5.5,19.5c-0.6,2.2-0.8,2.2-2.7,2.2H9.2C9.2,54.7,8.3,54.7,7.4,54.7"/>
			<path style="fill:#FFFFFF;" d="M70,43c0.8-2.1,1.8-4,2.9-5c0.6-0.6,1.3-0.9,2-0.9c1.7,0,2.7,1.2,2.7,4.2c0,3.9-1.9,11.4-4.7,13.9
				c-0.6,0.5-1.3,0.9-2,0.9c-1.8,0-2.7-1.1-2.7-4.1c0-1.5,0.2-3.4,0.7-5.4L70,43z M61.9,56.5l-2,6.4c-0.4,1.4-0.8,1.8-2.7,1.9
				c-0.9,0.1-1.8,0.3-1.8,0.8c0,0.4,0.3,0.5,0.8,0.5c0.4,0,4.1-0.2,5-0.2c0.1,0,0.2,0,0.3,0c1.5,0,3.6,0.1,4.5,0.1
				c0.4,0,0.7-0.2,0.7-0.5c0-0.6-0.9-0.6-1.3-0.7c-0.8-0.2-1.5-0.3-1.5-1.2l2.6-8.6c1,1.4,2.4,2.2,4.1,2.2c0.9,0,1.7-0.1,2.4-0.4
				c5.1-1.6,8.2-8.2,8.2-12.6c0-5.2-2.4-8.4-5.7-8.4c-0.9,0-1.7,0.1-2.5,0.4c-0.3,0.1-0.7,0.3-1,0.4l2.6-8.8c0.1-0.4,0-0.6-0.3-0.6
				h-2.8c-0.3,0-0.7,0.3-0.7,0.6l-3.1,10.3c-1-1.5-2.4-2.3-4.2-2.3c-0.9,0-1.7,0.1-2.4,0.4c-5.1,1.6-8.2,8.2-8.2,12.6
				c0,5.2,2.4,8.4,5.7,8.4c0.9,0,1.7-0.1,2.5-0.4C61.2,56.8,61.6,56.6,61.9,56.5 M60.9,55.1c-0.6,0.6-1.3,0.9-2,0.9
				c-1.7,0-2.7-1.2-2.7-4.2c0-3.9,1.9-11.4,4.7-13.9c0.6-0.5,1.3-0.9,2-0.9c1.8,0,2.7,1.1,2.7,4.1C65.6,45.2,63.7,52.6,60.9,55.1"/>
			<path style="fill:#FFFFFF;" d="M101.9,35.9h-1.7c-0.9,0-1.1,0.4-1.5,1.5c-0.8-0.5-1.7-0.9-3-0.9c-1.1,0-2.4,0.4-3.6,1
				c-4.9,2.6-9.9,9.9-9.9,16.1c0,2.1,1.2,3.9,3,3.9c2.5,0,4.9-2.5,6.8-5.1c1.3-1.8,2.4-3.7,3.2-4.8h0.1c-0.6,2.5-1.8,5.7-1.8,8.1
				c0,1,0.6,1.8,1.5,1.8c3.7,0,6.8-7.2,6.8-8.1c0-0.3-0.1-0.4-0.4-0.4c-0.2,0-0.2,0.4-1.2,2c-1.1,1.8-2,3.1-2.4,3.1
				c-0.3,0-0.4,0-0.4-0.4c0-1.7,4.9-16.2,5-16.9C102.5,36.3,102.4,35.9,101.9,35.9 M92.1,50.5c-1.7,2.3-3.3,4-4.5,4
				c-0.8,0-1.3-0.6-1.3-1.6c0-3.3,2.7-9.6,5.9-13c1.3-1.4,2.7-2.3,4.1-2.3c1.1,0,1.7,0.6,1.7,1.6C97.9,40.7,95,46.5,92.1,50.5"/>
			<path style="fill:#FFFFFF;" d="M104.1,50.2c0,4.5,2.1,7.3,5.7,7.3c5.6,0,8.9-6.7,8.9-8.1c0-0.3-0.1-0.5-0.5-0.5
				c-0.7,0-0.6,1.9-2.8,4.1c-1.2,1.2-2.7,2-3.9,2c-1.8,0-3.2-1.3-3.2-4.1c0-5.1,3.6-13.6,6.7-13.6c1,0,1.4,0.8,1.4,2.6
				c0,1.6,0.8,2.3,1.8,2.3c1.4,0,2.4-1,2.4-2.8c0-1.8-1.3-3.3-4.3-3.3C109.6,36,104.1,43.8,104.1,50.2"/>
			<path style="fill:#FFFFFF;" d="M129.1,36.6c0.1-0.3,0-0.6-0.3-0.6h-2.3c-0.3,0-0.6,0.3-0.8,0.6l-5.8,18l-0.5,1.4
				c-0.1,0.3,0,0.7,0.4,0.7h2.3c1.2,0,0.5-0.4,3.2-6.5c3-6.9,6.7-11.9,8.5-11.9c0.4,0,0.7,0.1,0.7,0.6c0,0.8-0.5,2.5-1.2,4.8
				l-3.6,12.4c0,0.4,0.2,0.5,0.5,0.5h2.2c0.8,0,0.8-0.1,1.1-1.1c1.6-6.2,7.7-17.5,10.6-17.5c0.5,0,0.8,0.4,0.8,0.8
				c0,0.5-0.1,1.4-0.4,2.3l-3.6,9.8c-0.7,1.9-0.9,3.5-0.9,4.5c0,1.2,0.5,2,1.6,2c1.6,0,3.5-1.6,4.7-3c2.1-2.6,3.2-4.8,3.2-5.3
				c0-0.1-0.1-0.3-0.3-0.3c-0.4,0-0.5,0.7-2.1,2.9c-0.9,1.2-2.1,2.8-2.9,2.8c-0.1,0-0.4-0.1-0.4-0.5c0-1.8,4.9-11.9,4.9-14.6
				c0-2.1-0.9-3.4-3-3.4c-4,0-7.9,7.2-9,9.7c-0.1,0.1-0.2,0-0.1-0.1c0.6-2.1,1.6-6.1,1.6-6.7c0-1.9-1.1-2.8-2.6-2.8
				c-3.9,0-7.8,7.6-8.9,9.5c-0.1,0.1-0.2,0-0.1-0.2L129.1,36.6z"/>
			<path style="fill:#FFFFFF;" d="M163.2,36c-1,0-1.8,0.1-2.7,0.4c-5.7,1.6-9.1,8.2-9.1,12.6c0,5.2,2.7,8.4,6.3,8.4
				c1,0,1.9-0.1,2.7-0.4c5.7-1.7,9-8.3,9-12.7C169.6,39.1,167.1,36,163.2,36 M160.5,55.2c-0.7,0.6-1.4,0.9-2.2,0.9
				c-1.8,0-3-1.2-3-4.2c0-3.9,2.1-11.4,5.2-13.9c0.7-0.5,1.4-0.9,2.2-0.9c2,0,3,1.1,3,4.1C165.7,45.3,163.6,52.7,160.5,55.2"/>
			<path style="fill:#FFFFFF;" d="M175.8,45.2l2.7-8.6c0.1-0.3,0-0.5-0.3-0.5h-2.5c-0.3,0-0.6,0.2-0.7,0.5l-5.5,17.9l-0.5,1.5
				c-0.1,0.4,0.1,0.8,0.6,0.8h2c0.6,0,0.9-0.2,1.4-1.8l2.5-8.2h7.2l-1.3,4.2c-0.5,1.4-0.9,3.6-0.9,4.5c0,1.6,0.5,2.1,1.5,2.1
				c3.7,0,7.4-7.4,7.4-8.3c0-0.1-0.1-0.3-0.4-0.3c-0.4,0-0.4,0.5-1.8,2.9c-1.6,2.5-2.2,2.7-2.6,2.7c-0.3,0-0.4-0.1-0.4-0.5
				c0-0.3,0.2-1,0.5-1.9l5-15.5c0.1-0.3,0-0.6-0.3-0.6h-2.4c-0.4,0-0.6,0.2-0.8,0.5l-2.8,8.6L175.8,45.2z"/>
			<path style="fill:#FFFFFF;" d="M41.8,54.7L41.8,54.7c5.1-5.9,7.6-10.1,7.6-12.4c0-0.6-0.2-1.3-0.5-2.1c-0.3-0.8-0.5-1.4-0.5-1.8
				c0-0.6,0.2-1.2,0.6-1.7c0.4-0.5,0.9-0.8,1.6-0.8c1.3,0,2,0.9,2,2.7c0,3.1-3,8.3-8.9,15.6c-4.1,5.1-7.3,8.4-9.5,9.9
				c-1.4,1-3,1.6-4.6,1.6c-1.1,0-1.9-0.2-2.5-0.7c-0.5-0.4-0.8-0.9-0.8-1.6c0-0.6,0.2-1.1,0.7-1.4c0.4-0.3,0.8-0.4,1.3-0.4
				c0.7,0,1.6,0.5,2.6,1.6c0.4,0.4,0.8,0.7,1.2,0.7c0.6,0,1.4-0.3,2.2-0.9c0.8-0.6,1.5-1.5,2-2.6c1.3-2.7,2-7.1,2-13.2
				c0-5.9-0.7-8.8-2-8.8c-0.6,0-1.1,0.4-1.7,1.2c-0.3,0.5-1,1.5-1.9,3c-0.1,0.3-0.3,0.4-0.5,0.4c-0.3,0-0.4-0.2-0.4-0.6
				c0-0.7,0.6-1.9,1.9-3.5c1.5-2,3.2-3,5-3c1.2,0,2,0.5,2.6,1.5c0.8,1.5,1.2,4.3,1.2,8.5C42.4,48.6,42.2,51.5,41.8,54.7"/>
		</g>
	</g>
</g>
</svg>
