<?xml version="1.0" encoding="utf-8"?>
<!-- Generator: Adobe Illustrator 25.0.0, SVG Export Plug-In . SVG Version: 6.00 Build 0)  -->
<svg version="1.1" id="Шар_1" xmlns="http://www.w3.org/2000/svg" xmlns:xlink="http://www.w3.org/1999/xlink" x="0px" y="0px"
	 viewBox="0 0 167.3 41.7" style="enable-background:new 0 0 167.3 41.7;" xml:space="preserve">
<g>
	<g>
		<path style="fill:#FFFFFF;" d="M6.9,13.9C3.1,13.9,0,17,0,20.8v14c0,3.8,3.1,6.9,6.9,6.9h38.4c3.8,0,6.9-3.1,6.9-6.9V6.9
			c0-3.8-3.1-6.9-6.9-6.9H0v7h43.1c1.2,0,2.3,1,2.3,2.3v23.4c0,1.2-1,2.3-2.3,2.3H9.2c-1.2,0-2.3-1-2.3-2.3v-9.4
			c0-1.2,1-2.3,2.3-2.3h29.1v-7H6.9V13.9z"/>
	</g>
</g>
<g>
	<g>
		<path style="fill:#FFFFFF;" d="M141.5,23.7c0,5.2-3.5,8.1-8.4,8.1c-4.8,0-8.4-2.9-8.4-8.1s3.5-8.1,8.4-8.1S141.5,18.5,141.5,23.7
			 M106.9,31.3h3.6l0.9-2c1.1,1.8,3,2.5,5,2.5c4.9,0,6.7-3.8,6.7-8.1s-1.8-8.1-6.7-8.1c-1.5,0-3,0.9-4.2,2.2V9.7h-8.1v2.7h1.5
			c0.9,0,1.2,0.5,1.2,1.4L106.9,31.3L106.9,31.3z M88.7,31.3h3.6l0.9-2c1.1,1.8,3,2.5,5,2.5c4.9,0,6.7-3.8,6.7-8.1s-1.8-8.1-6.7-8.1
			c-1.5,0-3,0.9-4.2,2.2V9.7h-8.1v2.7h1.5c0.9,0,1.2,0.5,1.2,1.4L88.7,31.3L88.7,31.3z M73.5,14.6L73.5,14.6l2.4,7h-4.7L73.5,14.6z
			 M71.5,9.8L66.1,26c-0.7,2-1.1,2.4-2.2,2.4h-1.1v2.9h9.6v-2.9h-0.9c-0.9,0-2-0.1-2-0.6s0.1-0.9,0.5-2.1l0.4-1.3h6.4l0.7,2.3
			c0.1,0.5,0.2,0.8,0.2,1.2c0,0.4-0.8,0.5-1.8,0.5h-1v2.9h11.9v-2.9h-1.1c-1.1,0-1.6-0.5-2.2-2.4L78.1,9.8
			C78.1,9.8,71.5,9.8,71.5,9.8z M99.2,23.7c0,3.3-0.7,5.3-2.6,5.3c-1.8,0-2.6-2-2.6-5.3s0.7-5.3,2.6-5.3
			C98.5,18.4,99.2,20.4,99.2,23.7 M133.2,18.2c-1.9,0-2.6,1.7-2.6,5.5s0.7,5.5,2.6,5.5c1.9,0,2.6-1.7,2.6-5.5S135.1,18.2,133.2,18.2
			 M164.7,24v2.5c0,1.5-0.3,2.4-1.6,2.4c-0.7,0-1.1-0.6-1.1-1.2v-8.9h4v-2.6h-4v-6h-3.2c-0.3,2.7-1.1,6-4.4,6h-5.1v-6h-3.2
			c-0.3,2.7-1.1,6-4.4,6v2.6h2.2V27c0,3.3,1.9,4.9,5.2,4.9c3.9,0,5.5-1.8,5.5-4.9v-2.9H152v2.5c0,1.5-0.3,2.4-1.6,2.4
			c-0.8,0-1.1-0.6-1.1-1.2v-8.9h7.3v8.2c0,3.3,1.8,4.9,5.2,4.9c3.9,0,5.5-1.8,5.5-4.9v-2.9h-2.6V24z M117.5,23.7
			c0,3.3-0.7,5.3-2.6,5.3c-1.8,0-2.6-2-2.6-5.3s0.7-5.3,2.6-5.3C116.7,18.4,117.5,20.4,117.5,23.7"/>
	</g>
</g>
</svg>
