<?xml version="1.0" encoding="utf-8"?>
<!-- Generator: Adobe Illustrator 25.0.0, SVG Export Plug-In . SVG Version: 6.00 Build 0)  -->
<svg version="1.1" id="Шар_1" xmlns="http://www.w3.org/2000/svg" xmlns:xlink="http://www.w3.org/1999/xlink" x="0px" y="0px"
	 viewBox="0 0 138.2 34.6" style="enable-background:new 0 0 138.2 34.6;" xml:space="preserve">
<g>
	<path style="fill:#108BCB;" d="M5.7,11.5c-3.2,0-5.7,2.6-5.7,5.7v11.6c0,3.2,2.6,5.7,5.7,5.7h31.7c3.2,0,5.7-2.6,5.7-5.7V5.7
		c0-3.2-2.6-5.7-5.7-5.7H0v5.8h35.6c1,0,1.9,0.8,1.9,1.9v19.3c0,1-0.8,1.9-1.9,1.9h-28c-1,0-1.9-0.8-1.9-1.9v-7.8
		c0-1,0.8-1.9,1.9-1.9h24.1v-5.8H5.7z"/>
	<path style="fill:#2A2522;" d="M116.9,19.7c0,4.3-2.9,6.7-6.9,6.7c-4,0-6.9-2.4-6.9-6.7c0-4.3,2.9-6.7,6.9-6.7
		C114,13,116.9,15.4,116.9,19.7 M88.3,26h3l0.8-1.7c0.9,1.5,2.4,2.1,4.1,2.1c4,0,5.5-3.1,5.5-6.7c0-3.5-1.5-6.7-5.5-6.7
		c-1.2,0-2.5,0.7-3.5,1.9V8.2h-6.7v2.1h1.2c0.8,0,1,0.4,1,1.2V26z M73.3,26h3l0.8-1.7c0.9,1.5,2.4,2.1,4.1,2.1c4,0,5.5-3.1,5.5-6.7
		c0-3.5-1.5-6.7-5.5-6.7c-1.2,0-2.5,0.7-3.5,1.9V8.2h-6.7v2.1h1.2c0.8,0,1,0.4,1,1.2V26z M60.7,12.2L60.7,12.2l2,5.8h-3.9L60.7,12.2
		z M59.1,8.2l-4.5,13.4c-0.5,1.6-0.9,2-1.9,2h-0.9V26h7.9v-2.4h-0.8c-0.7,0-1.7-0.1-1.7-0.5c0-0.4,0.1-0.8,0.4-1.7l0.3-1.1h5.5
		l0.6,1.9c0.1,0.4,0.1,0.7,0.1,1c0,0.3-0.7,0.4-1.5,0.4h-0.8V26h9.8v-2.4h-0.9c-0.9,0-1.3-0.4-1.8-2L64.5,8.2H59.1z M82,19.7
		c0,2.7-0.6,4.4-2.1,4.4c-1.5,0-2.1-1.6-2.1-4.4c0-2.7,0.6-4.4,2.1-4.4C81.3,15.3,82,16.9,82,19.7 M110,15.1c-1.6,0-2.2,1.4-2.2,4.5
		c0,3.2,0.6,4.5,2.2,4.5c1.6,0,2.2-1.4,2.2-4.5C112.2,16.5,111.6,15.1,110,15.1 M136.1,19.9V22c0,1.2-0.3,2-1.3,2
		c-0.6,0-0.9-0.5-0.9-1v-7.4h3.3v-2.1h-3.3v-5h-2.7c-0.2,2.2-0.9,5-3.6,5h-4.2v-5h-2.7c-0.2,2.2-0.9,5-3.6,5v2.1h1.8v6.7
		c0,2.7,1.5,4.1,4.3,4.1c3.2,0,4.5-1.4,4.5-4.1v-2.4h-2.1V22c0,1.2-0.3,2-1.3,2c-0.6,0-0.9-0.5-0.9-1v-7.4h6v6.7
		c0,2.7,1.5,4.1,4.3,4.1c3.2,0,4.5-1.4,4.5-4.1v-2.4H136.1z M97,19.7c0,2.7-0.6,4.4-2.1,4.4c-1.5,0-2.1-1.6-2.1-4.4
		c0-2.7,0.6-4.4,2.1-4.4C96.4,15.3,97,16.9,97,19.7"/>
</g>
</svg>
