<?xml version="1.0" encoding="utf-8"?>
<!-- Generator: Adobe Illustrator 19.0.0, SVG Export Plug-In . SVG Version: 6.00 Build 0)  -->
<svg version="1.1" id="Шар_1" xmlns="http://www.w3.org/2000/svg" xmlns:xlink="http://www.w3.org/1999/xlink" x="0px" y="0px"
	 viewBox="-891 866 37 37" style="enable-background:new -891 866 37 37;" xml:space="preserve">
<path d="M-891,903v-37h37v37H-891z M-859.7,878.1c0-3.6-2.9-6.5-6.5-6.5h-12.7c-3.6,0-6.5,2.9-6.5,6.5v12.7c0,3.6,2.9,6.5,6.5,6.5
	h12.7c3.6,0,6.5-2.9,6.5-6.5V878.1z M-866.2,894.5h-12.7c-2,0-3.7-1.6-3.7-3.7v-12.7c0-2,1.6-3.7,3.7-3.7h12.7c2,0,3.7,1.6,3.7,3.7
	v12.7C-862.5,892.9-864.1,894.5-866.2,894.5z M-872.5,877.9c-3.6,0-6.6,3-6.6,6.6c0,3.6,3,6.6,6.6,6.6s6.6-3,6.6-6.6
	C-865.9,880.9-868.9,877.9-872.5,877.9z M-865.7,876.1c-0.9,0-1.6,0.7-1.6,1.6c0,0.9,0.7,1.6,1.6,1.6c0.9,0,1.6-0.7,1.6-1.6
	C-864.1,876.8-864.8,876.1-865.7,876.1z M-872.5,888.3c-2.1,0-3.8-1.7-3.8-3.8c0-2.1,1.7-3.8,3.8-3.8s3.8,1.7,3.8,3.8
	C-868.7,886.6-870.4,888.3-872.5,888.3z"/>
</svg>
