<?xml version="1.0" encoding="utf-8"?>
<!-- Generator: Adobe Illustrator 19.0.0, SVG Export Plug-In . SVG Version: 6.00 Build 0)  -->
<svg version="1.1" id="Шар_1" xmlns="http://www.w3.org/2000/svg" xmlns:xlink="http://www.w3.org/1999/xlink" x="0px" y="0px"
	 viewBox="-901 876 17 16" style="enable-background:new -901 876 17 16;" xml:space="preserve">
<path d="M-884.1,888.7l-0.1-0.2c-0.2-0.6-0.9-1.1-1.5-1.3l-2.2-0.6c-0.6-0.2-1.5,0.1-1.9,0.5l-0.8,0.8c-2.9-0.7-5.2-2.9-6-5.7
	l0.8-0.8c0.4-0.4,0.7-1.2,0.5-1.8l-0.6-2.1c-0.2-0.6-0.8-1.2-1.4-1.4l-0.3-0.1c-0.6-0.2-1.4,0-1.9,0.4l-1.2,1.1
	c-0.2,0.2-0.4,0.8-0.4,0.8c0,3.6,1.5,7.1,4.2,9.7c2.7,2.5,6.4,4,10.2,3.9c0,0,0.7-0.1,0.9-0.3l1.2-1.1
	C-884.1,890.1-883.9,889.3-884.1,888.7L-884.1,888.7z"/>
</svg>
