<?xml version="1.0" encoding="utf-8"?>
<!-- Generator: Adobe Illustrator 19.0.0, SVG Export Plug-In . SVG Version: 6.00 Build 0)  -->
<svg version="1.1" id="Шар_1" xmlns="http://www.w3.org/2000/svg" xmlns:xlink="http://www.w3.org/1999/xlink" x="0px" y="0px"
	 viewBox="-880 863 59 42" style="enable-background:new -880 863 59 42;" xml:space="preserve">
<path d="M-834.8,905c-7.6,0-13.8-6.3-13.8-14.1c0-15.9,6.3-26.4,6.6-26.8l0.7-1.1h10.1l-0.8,3c-0.8,2.9-2.1,8.2-2.1,9.9
	c0,0.4,0,0.7,0,1c3.5,0.2,6.8,1.6,9.3,4.2c2.6,2.6,4,6.2,4,9.9C-821,898.7-827.2,905-834.8,905z M-834.6,881.5l-0.1,0
	c-2,0-3-1.1-3.5-2c-0.5-1-0.6-2.2-0.6-3.7c0-1.9,0.8-5.6,1.5-8.2h-1.4c-1.5,3-5.3,11.6-5.3,23.2c0,5.2,4.1,9.4,9.2,9.4
	s9.2-4.2,9.2-9.4C-825.6,885.8-829.7,881.6-834.6,881.5z M-866.2,905c-7.6,0-13.8-6.3-13.8-14.1c0-15.9,6.3-26.4,6.6-26.8l0.7-1.1
	h10.1l-0.8,3c-0.8,2.9-2.1,8.2-2.1,9.9c0,0.4,0,0.7,0,1c3.5,0.2,6.8,1.6,9.3,4.2c2.6,2.6,4,6.2,4,9.9
	C-852.3,898.7-858.5,905-866.2,905z M-866,881.5l-0.1,0c-2,0-3-1.1-3.5-2c-0.5-1-0.6-2.2-0.6-3.7c0-1.9,0.8-5.6,1.5-8.2h-1.4
	c-1.5,3-5.3,11.6-5.3,23.2c0,5.2,4.1,9.4,9.2,9.4s9.2-4.2,9.2-9.4C-857,885.8-861,881.6-866,881.5z"/>
</svg>
