<?xml version="1.0" encoding="utf-8"?>
<!-- Generator: Adobe Illustrator 24.0.0, SVG Export Plug-In . SVG Version: 6.00 Build 0)  -->
<svg version="1.1" id="Слой_1" xmlns="http://www.w3.org/2000/svg" xmlns:xlink="http://www.w3.org/1999/xlink" x="0px" y="0px"
	 viewBox="0 0 15.2 20" style="enable-background:new 0 0 15.2 20;" xml:space="preserve">
<path d="M15.1,8.1c0.3-2.1-1.3-3.2-3.5-4l0.7-2.9l-1.7-0.4L9.9,3.6C9.5,3.5,9,3.4,8.5,3.3l0.7-2.8L7.5,0L6.8,2.9
	C6.4,2.8,3.3,2,3.3,2L2.8,3.8c0,0,1.3,0.3,1.2,0.3c0.7,0.2,0.8,0.6,0.8,1L2.9,13c-0.1,0.2-0.3,0.5-0.8,0.4c0,0-1.3-0.3-1.3-0.3L0,15
	c0,0,3.1,0.8,3.5,0.9l-0.7,2.9l1.7,0.4l0.7-2.9c0.5,0.1,0.9,0.2,1.4,0.3l-0.7,2.8L7.6,20l0.7-2.9c3,0.5,5.2,0.3,6.2-2.3
	c0.7-2.2,0-3.4-1.6-4.2C14,10.5,14.9,9.7,15.1,8.1z M11.2,13.7c-0.5,2.2-4.2,1-5.4,0.7l0.9-3.8C7.9,10.9,11.7,11.5,11.2,13.7z
	 M11.7,8.1c-0.5,2-3.5,1-4.5,0.7L8,5.4C9,5.6,12.2,6.1,11.7,8.1z"/>
</svg>
