<?xml version="1.0" encoding="utf-8"?>
<!-- Generator: Adobe Illustrator 24.0.0, SVG Export Plug-In . SVG Version: 6.00 Build 0)  -->
<svg version="1.1" id="Слой_1" xmlns="http://www.w3.org/2000/svg" xmlns:xlink="http://www.w3.org/1999/xlink" x="0px" y="0px"
	 viewBox="0 0 20 20" style="enable-background:new 0 0 20 20;" xml:space="preserve">
<path d="M12.2,10l7.5-7.5C19.9,2.3,20,2,20,1.7c0-0.3-0.1-0.6-0.3-0.8L19,0.3C18.8,0.1,18.5,0,18.3,0c-0.3,0-0.6,0.1-0.8,0.3L10,7.8
	L2.5,0.3C2.3,0.1,2,0,1.7,0C1.5,0,1.2,0.1,1,0.3L0.3,1c-0.4,0.4-0.4,1.1,0,1.5L7.8,10l-7.5,7.5C0.1,17.7,0,18,0,18.3
	c0,0.3,0.1,0.6,0.3,0.8L1,19.7C1.2,19.9,1.5,20,1.7,20c0.3,0,0.6-0.1,0.8-0.3l7.5-7.5l7.5,7.5c0.2,0.2,0.5,0.3,0.8,0.3h0
	c0.3,0,0.6-0.1,0.8-0.3l0.7-0.7c0.2-0.2,0.3-0.5,0.3-0.8c0-0.3-0.1-0.6-0.3-0.8L12.2,10z"/>
</svg>
