<?xml version="1.0" encoding="utf-8"?>
<!-- Generator: Adobe Illustrator 24.0.0, SVG Export Plug-In . SVG Version: 6.00 Build 0)  -->
<svg version="1.1" id="Слой_1" xmlns="http://www.w3.org/2000/svg" xmlns:xlink="http://www.w3.org/1999/xlink" x="0px" y="0px"
	 viewBox="0 0 12 14" style="enable-background:new 0 0 12 14;" xml:space="preserve">
<path d="M6.5,14H2.2C1,14,0,13,0,11.8V5.4c0-1.2,1-2.2,2.2-2.2h4.3c1.2,0,2.2,1,2.2,2.2v6.4C8.8,13,7.8,14,6.5,14z M3.2,5.3
	c-0.6,0-1.1,0.5-1.1,1.1v4.4c0,0.6,0.5,1.1,1.1,1.1h2.3c0.6,0,1.1-0.5,1.1-1.1V6.4c0-0.6-0.5-1.1-1.1-1.1H3.2z M12,10.4V2.2
	C12,1,11,0,9.8,0H3.6C3.3,0,2.5,0,2.5,1s0.8,1.1,1.1,1.1h5.2c0.6,0,1.1,0.5,1.1,1.1v7.3c0,0.3,0.1,1.1,1.1,1.1S12,10.7,12,10.4z"/>
</svg>
