<?xml version="1.0" encoding="utf-8"?>
<!-- Generator: Adobe Illustrator 24.0.0, SVG Export Plug-In . SVG Version: 6.00 Build 0)  -->
<svg version="1.1" id="Слой_1" xmlns="http://www.w3.org/2000/svg" xmlns:xlink="http://www.w3.org/1999/xlink" x="0px" y="0px"
	 viewBox="0 0 22 22" style="enable-background:new 0 0 22 22;" xml:space="preserve">
<style type="text/css">
	.st0{clip-path:url(#SVGID_2_);}
</style>
<g>
	<defs>
		<rect id="SVGID_1_" width="22" height="22"/>
	</defs>
	<clipPath id="SVGID_2_">
		<use xlink:href="#SVGID_1_"  style="overflow:visible;"/>
	</clipPath>
	<g class="st0">
		<path d="M14.7,8.4c-0.1-1.1-1-2-2.1-2h-0.7V4.6C11.9,2.1,9.9,0,7.3,0C4.8,0,2.8,2.1,2.8,4.6v1.8H2.1C0.9,6.4,0,7.3,0,8.5v7.8
			c0,1.1,0.9,2.1,2.1,2.1h6.5c-0.2-0.7-0.3-1.5-0.3-2.3C8.3,12.2,11,9,14.7,8.4z M4.6,4.6c0-1.5,1.2-2.8,2.8-2.8
			c1.5,0,2.8,1.2,2.8,2.8v1.8H4.6V4.6z"/>
		<path d="M16,10.1c-3.3,0-6,2.7-6,6c0,3.3,2.7,6,6,6s6-2.7,6-6C22,12.8,19.3,10.1,16,10.1z M18.1,18.1c-0.2,0.2-0.4,0.3-0.6,0.3
			s-0.5-0.1-0.6-0.3l-1.4-1.4c-0.2-0.2-0.3-0.4-0.3-0.6v-2.3c0-0.5,0.4-0.9,0.9-0.9s0.9,0.4,0.9,0.9v1.9l1.1,1.1
			C18.4,17.1,18.4,17.7,18.1,18.1z"/>
	</g>
</g>
</svg>
