<?xml version="1.0" encoding="utf-8"?>
<!-- Generator: Adobe Illustrator 24.0.0, SVG Export Plug-In . SVG Version: 6.00 Build 0)  -->
<svg version="1.1" id="Слой_1" xmlns="http://www.w3.org/2000/svg" xmlns:xlink="http://www.w3.org/1999/xlink" x="0px" y="0px"
	 viewBox="0 0 17 17" style="enable-background:new 0 0 17 17;" xml:space="preserve">
<path d="M13.2,2.5l-1.4,1.4c0.3,0.2,0.5,0.4,0.7,0.6c0.2,0.2,0.4,0.5,0.6,0.7l1.4-1.4c0.4-0.4,0.4-1,0-1.4S13.5,2.1,13.2,2.5z"/>
<path d="M3.9,11.7l-1.4,1.4c-0.4,0.4-0.4,1,0,1.4c0.2,0.2,0.4,0.3,0.7,0.3c0.2,0,0.5-0.1,0.7-0.3l1.4-1.4c-0.3-0.2-0.5-0.4-0.7-0.6
	C4.3,12.2,4.1,12,3.9,11.7z"/>
<path d="M13.1,11.7c-0.2,0.3-0.4,0.5-0.6,0.7c-0.2,0.2-0.5,0.4-0.7,0.6l1.4,1.4c0.2,0.2,0.4,0.3,0.7,0.3s0.5-0.1,0.7-0.3
	c0.4-0.4,0.4-1,0-1.4L13.1,11.7z"/>
<path d="M3.9,5.3C4.1,5,4.3,4.8,4.5,4.5C4.8,4.3,5,4.1,5.3,3.9L3.8,2.5c-0.4-0.4-1-0.4-1.4,0s-0.4,1,0,1.4L3.9,5.3z"/>
<path d="M2.9,8.5c0-0.3,0-0.6,0.1-1H1c-0.5,0-1,0.4-1,1c0,0.5,0.4,1,1,1h2C2.9,9.1,2.9,8.8,2.9,8.5z"/>
<path d="M16,7.5h-2c0.1,0.3,0.1,0.6,0.1,1c0,0.3,0,0.6-0.1,1h2c0.5,0,1-0.4,1-1C17,8,16.6,7.5,16,7.5z"/>
<path d="M7.5,14v2c0,0.5,0.4,1,1,1c0.5,0,1-0.4,1-1v-2c-0.3,0.1-0.6,0.1-1,0.1C8.2,14.1,7.9,14.1,7.5,14z"/>
<path d="M7.5,1v2c0.3-0.1,0.6-0.1,1-0.1c0.3,0,0.6,0,1,0.1V1c0-0.5-0.4-1-1-1C8,0,7.5,0.4,7.5,1z"/>
<path d="M13,9.5c0.1-0.3,0.1-0.6,0.1-1c0-0.3,0-0.6-0.1-1C12.8,7,12.6,6.5,12.3,6C12,5.5,11.5,5,11,4.7C10.5,4.4,10,4.2,9.5,4
	C9.2,4,8.8,3.9,8.5,3.9c-0.3,0-0.6,0-1,0.1C7,4.2,6.5,4.4,6,4.7C5.5,5,5,5.5,4.7,6C4.4,6.5,4.2,7,4.1,7.5C4,7.9,3.9,8.2,3.9,8.5
	c0,0.3,0,0.6,0.1,1C4.2,10,4.4,10.5,4.7,11C5,11.5,5.5,12,6,12.3c0.5,0.3,1,0.5,1.5,0.6c0.3,0.1,0.6,0.1,1,0.1c0.3,0,0.6,0,1-0.1
	c0.5-0.1,1.1-0.3,1.5-0.6c0.5-0.4,1-0.8,1.4-1.4C12.6,10.5,12.8,10,13,9.5z"/>
</svg>
