<?xml version="1.0" encoding="iso-8859-1"?>
<!-- Generator: Adobe Illustrator 19.0.0, SVG Export Plug-In . SVG Version: 6.00 Build 0)  -->
<svg version="1.1" id="&#x428;&#x430;&#x440;_1" xmlns="http://www.w3.org/2000/svg" xmlns:xlink="http://www.w3.org/1999/xlink"
	 x="0px" y="0px" viewBox="0 0 299.498 306.606" style="enable-background:new 0 0 299.498 306.606;" xml:space="preserve">
<polygon style="fill:#fff;" points="110.764,90.799 0,1.321 0.096,217.166 30.725,195.302 30.918,65.853 110.957,130.674 
	222.009,40.951 222.009,1.321 "/>
<polygon style="fill:#fff;" points="191.284,103.32 191.091,232.769 111.053,167.947 0,257.671 0,297.301 111.245,207.823 
	222.009,297.301 221.913,81.455 "/>
<g>
	<defs>
		<rect id="SVGID_1_" width="299.498" height="306.606"/>
	</defs>
	<clipPath id="SVGID_2_">
		<use xlink:href="#SVGID_1_"  style="overflow:visible;"/>
	</clipPath>
	<g style="clip-path:url(#SVGID_2_);">
		<path style="fill:#fff;" d="M264.814,264.223c-6.186,0.329-13.621,0.725-19.15,0.658v0.198
			c5.199,1.513,10.727,3.355,16.848,5.594l21.52,7.831v4.344l-21.125,7.174c-6.252,2.105-11.977,3.883-17.242,5.133v0.132
			c5.529,0.132,12.965,0.461,19.611,0.855l19.02,1.185v5.462l-44.355-3.093v-7.305l21.453-7.568
			c5.463-1.843,10.332-3.356,14.939-4.476v-0.197c-4.475-1.119-9.346-2.698-14.939-4.673l-21.453-7.897v-7.305l44.355-2.764v5.594
			L264.814,264.223z"/>
		<path style="fill:#fff;" d="M261.656,210.786c15.268,0,23.363,9.279,23.363,20.6c0,11.714-9.082,19.94-22.508,19.94
			c-14.084,0-23.297-8.753-23.297-20.599C239.215,218.618,248.494,210.786,261.656,210.786z M262.381,245.206
			c9.477,0,17.967-5.134,17.967-14.149c0-9.082-8.359-14.216-18.428-14.216c-8.818,0-18.033,4.607-18.033,14.149
			C243.887,240.466,252.641,245.206,262.381,245.206z"/>
		<path style="fill:#fff;" d="M239.939,197.625h44.355v5.726h-44.355V197.625z"/>
		<path style="fill:#fff;" d="M277.32,188.412c1.578-2.566,2.895-6.317,2.895-10.267c0-5.857-3.094-9.279-7.568-9.279
			c-4.146,0-6.516,2.369-8.818,8.358c-2.566,7.239-6.318,11.714-12.57,11.714c-6.91,0-12.043-5.726-12.043-14.347
			c0-4.541,1.053-7.832,2.172-9.806l4.672,1.579c-0.789,1.448-2.105,4.409-2.105,8.424c0,6.055,3.619,8.358,6.646,8.358
			c4.146,0,6.188-2.698,8.557-8.819c2.895-7.502,6.514-11.319,13.029-11.319c6.846,0,12.768,5.067,12.768,15.531
			c0,4.278-1.25,8.951-2.83,11.32L277.32,188.412z"/>
		<path style="fill:#fff;" d="M263.5,132.21v17.242h15.99v-19.217h4.805v24.942h-44.355v-23.955h4.803v18.229h14.018V132.21
			H263.5z"/>
		<path style="fill:#fff;" d="M239.939,117.074h44.355v5.726h-44.355V117.074z"/>
		<path style="fill:#fff;" d="M263.5,84.102v17.242h15.99V82.127h4.805v24.942h-44.355V83.115h4.803v18.229h14.018V84.102H263.5z
			"/>
		<path style="fill:#fff;" d="M284.295,65.545l-44.355,14.478v-6.186l21.848-6.91c5.99-1.909,11.387-3.554,16.586-4.738v-0.132
			c-5.135-1.251-10.729-3.094-16.52-5.067l-21.914-7.503v-6.12l44.355,15.86V65.545z"/>
	</g>
</g>
</svg>
